<svg width="54" height="56" viewBox="0 0 54 56" fill="none" xmlns="http://www.w3.org/2000/svg">
<path d="M40.3333 20.7126C39.8736 14.7356 32.8921 6 22.8621 6C12.8321 6 4.70117 14.1309 4.70117 24.1609C4.70117 34.1909 12.8321 42.3218 22.8621 42.3218C24.7012 42.3985 29.7586 41.954 33.4368 38.6437M12.7471 9.21839C13.5901 9.75479 15.5977 10.9655 16.8851 10.5977C18.4943 10.1379 19.6437 9.67816 21.2529 10.3678C22.8621 11.0575 22.1724 11.5172 24.0115 11.7471C25.8506 11.977 25.0383 15.5428 24.0115 15.8851C21.9716 16.565 19.4847 15.9041 18.0933 19.4108C18.0538 19.5103 18.0102 19.611 17.9464 19.6969C17.7342 19.9823 17.3214 20.3375 16.6876 20.5648C15.5242 20.9821 14.3528 21.8869 14.9226 22.9836C15.1837 23.4861 15.5527 23.9599 16.064 24.3069C16.4239 24.5512 16.8809 24.5532 17.3086 24.474C18.277 24.2947 19.6893 24.1837 20.5632 24.6207C21.9425 25.3103 24.7012 26 25.3908 27.3793C26.0805 28.7586 25.1609 30.1379 23.092 33.3563C21.023 36.5747 21.7127 37.7241 21.023 38.8736C20.3552 39.9865 17.9631 38.9441 17.8121 33.4507C17.8021 33.0883 17.7197 32.7184 17.464 32.4614C17.0345 32.0295 16.4252 31.7116 15.4521 30.7709C15.3345 30.6573 15.203 30.5547 15.0976 30.4296C14.5972 29.8358 13.6425 27.8915 14.1265 25.3103C14.2031 25.0805 13.4828 24.1149 9.98853 22.0919C6.49427 20.069 6.47653 16.6513 6.9363 15.4253M35.046 10.9815C33.8966 11.288 31.1839 12.2069 30.4483 13.1264C30.0392 13.6378 29.9903 14.3624 30.0802 15.0235C30.1919 15.8446 30.9944 16.3143 31.8225 16.2849C33.3111 16.2322 35.0963 16.2083 35.5058 16.3448C36.1954 16.5747 36.6552 18.6437 35.046 18.8736C33.4368 19.1034 31.1379 17.7241 29.5287 18.4138C27.9196 19.1034 28.6092 19.7931 28.6092 20.2529C28.6092 20.7126 26.7701 22.5517 27.2299 23.7011C27.6897 24.8506 29.069 26.2299 30.4483 26.2299" stroke="#5C5C5C"/>
<path d="M30.4482 26.2295L39.8735 31.5169M30.4482 26.2295V36.5176C30.4482 36.6951 30.5424 36.8594 30.6957 36.9491L39.8735 42.3215M30.4482 26.2295L39.6185 20.638C39.7756 20.5422 39.9726 20.5404 40.1314 20.6333L49.2988 25.9997M39.8735 31.5169V42.3215M39.8735 31.5169L49.2988 25.9997M39.8735 42.3215L49.0514 36.9491C49.2046 36.8594 49.2988 36.6951 49.2988 36.5176V25.9997" stroke="#5C5C5C"/>
<path d="M46.0808 24.1613L36.9029 29.5338C36.7497 29.6235 36.6555 29.7877 36.6555 29.9653V32.9794C36.6555 33.3577 36.2516 33.599 35.9184 33.4196L33.9299 32.3489C33.768 32.2617 33.667 32.0926 33.667 31.9087V28.3501C33.667 28.1758 33.7578 28.014 33.9067 27.9232L43.0923 22.3223" stroke="#5C5C5C"/>
<path d="M42.4023 19.793L48.3794 19.793" stroke="#5C5C5C" stroke-linecap="round" stroke-linejoin="round"/>
<path d="M48.8389 44.6211H36.4251" stroke="#5C5C5C" stroke-linecap="round" stroke-linejoin="round"/>
<path d="M47 18.4141L48.3793 19.7934L47 21.1727" stroke="#5C5C5C" stroke-linecap="round" stroke-linejoin="round"/>
<path d="M37.8047 43.2422L36.4254 44.6215L37.8047 46.0008" stroke="#5C5C5C" stroke-linecap="round" stroke-linejoin="round"/>
</svg>
