<svg width="54" height="61" viewBox="0 0 54 61" fill="none" xmlns="http://www.w3.org/2000/svg">
<path d="M9.5 15.5893V39.9167C9.5 40.469 9.94772 40.9167 10.5 40.9167H22.8567M9.5 15.5893L18.2227 7M9.5 15.5893H17.2227C17.775 15.5893 18.2227 15.1416 18.2227 14.5893V7M18.2227 7H35.2134C35.7657 7 36.2134 7.44772 36.2134 8V8.65179M22.6931 14.378H31.5249M15.3879 19.6637H31.5249M15.3879 24.7292H31.5249M15.3879 29.9048H31.5249M15.3879 35.1905H31.5249M36.2134 8.65179V39.9167C36.2134 40.469 35.7657 40.9167 35.2134 40.9167H22.8567M36.2134 8.65179L43.5199 9.91402C44.0621 10.0077 44.4267 10.5217 44.336 11.0643L38.9993 42.9887C38.9066 43.5431 38.3753 43.9122 37.8234 43.8057L22.8567 40.9167" stroke="#5C5C5C" stroke-linecap="round"/>
</svg>
