<svg width="54" height="56" viewBox="0 0 54 56" fill="none" xmlns="http://www.w3.org/2000/svg">
<path d="M29.1625 29.0756L34.7375 34.6506C35.7101 35.6232 35.7108 37.1998 34.7391 38.1733V38.1733C33.7662 39.1482 32.1869 39.1489 31.213 38.175L24.664 31.626" stroke="#5C5C5C" stroke-linecap="round"/>
<path d="M28.583 21.7383L37.5285 30.6838C38.5417 31.697 38.5417 33.3397 37.5285 34.3529V34.3529C37.3847 34.4966 37.2258 34.6249 37.04 34.7074C36.5775 34.9129 35.61 35.2153 34.8052 34.6261" stroke="#5C5C5C" stroke-linecap="round"/>
<path d="M24.6641 38.3652L27.3303 40.8794C28.2264 41.7243 29.6319 41.7037 30.5027 40.8328V40.8328C30.76 40.5755 30.9569 40.2609 31.0196 39.9024C31.1111 39.3793 31.1705 38.5756 30.8528 37.9557" stroke="#5C5C5C" stroke-linecap="round"/>
<path d="M25.6419 39.3438C26.1307 41.7877 23.4912 44.4272 20.7539 41.2989" stroke="#5C5C5C" stroke-linecap="round"/>
<rect x="17.1152" y="40.3841" width="6.59533" height="2.79119" rx="1.3956" transform="rotate(-45.8423 17.1152 40.3841)" stroke="#5C5C5C"/>
<rect x="13.6289" y="38.9584" width="8.10227" height="3.13229" rx="1.56614" transform="rotate(-45.8423 13.6289 38.9584)" stroke="#5C5C5C"/>
<rect x="12.3652" y="35.8763" width="6.71468" height="3.01419" rx="1.5071" transform="rotate(-45.8423 12.3652 35.8763)" stroke="#5C5C5C"/>
<rect x="10.75" y="33.0209" width="5.87229" height="2.70348" rx="1.35174" transform="rotate(-45.8423 10.75 33.0209)" stroke="#5C5C5C"/>
<circle cx="6.08996" cy="28.1017" r="1.45519" stroke="#5C5C5C"/>
<circle cx="44.2159" cy="18.3263" r="1.45519" stroke="#5C5C5C"/>
<path d="M13.9111 17.3482C15.0517 17.1852 17.3327 16.8594 21.2431 16.8594" stroke="#5C5C5C" stroke-linecap="round"/>
<path d="M10 30.5469L11.4664 32.0133" stroke="#5C5C5C" stroke-linecap="round"/>
<path d="M40.0129 17.2539L35.418 18.8148" stroke="#5C5C5C" stroke-linecap="round"/>
<path d="M38.3506 32.5013C39.0023 32.6643 42.2992 32.5013 44.043 30.8027" stroke="#5C5C5C" stroke-linecap="round"/>
<path d="M35.4181 18.8142C34.1166 17.9465 32.4301 16.3088 27.283 15.6097C25.8755 15.4185 24.4122 15.4401 23.1164 16.0219C21.0267 16.9599 18.9147 18.8135 17.4068 21.5825C17.0053 22.3198 16.772 23.1874 17.0785 23.9689C17.7827 25.7652 19.9685 26.7646 22.2205 24.1909C23.3611 22.5616 26.2287 19.7918 28.5749 21.7469" stroke="#5C5C5C" stroke-linecap="round"/>
<rect x="40.092" y="15.795" width="7.63978" height="17.0484" rx="0.5" transform="rotate(-16.8063 40.092 15.795)" stroke="#5C5C5C"/>
<rect x="-0.623212" y="0.334076" width="7.63978" height="17.0484" rx="0.5" transform="matrix(-0.957288 -0.289136 -0.289136 0.957288 13.408 15.295)" stroke="#5C5C5C"/>
</svg>
