<svg width="101" height="135" viewBox="0 0 101 135" fill="none" xmlns="http://www.w3.org/2000/svg">
<path opacity="0.5" d="M100 143.5H100.5V143V123.8V123.3H100H30.0885L62.2576 95.9811L62.2624 95.9769C66.8561 91.9733 71.1803 88.0358 75.235 84.1643C79.4404 80.2781 83.1062 76.1882 86.2307 71.8942C89.3619 67.5911 91.814 63.0168 93.5853 58.1717C95.3621 53.3116 96.2479 48.053 96.2479 42.4C96.2479 36.3428 95.2257 30.7458 93.175 25.6145C91.1244 20.483 88.1146 16.0889 84.1467 12.4381C80.3104 8.65067 75.5237 5.75029 69.7993 3.7302C64.0656 1.57346 57.5943 0.5 50.3926 0.5C43.1961 0.5 36.862 1.43869 31.3986 3.32744L31.3986 3.32743L31.3949 3.32875C26.0818 5.21265 21.4405 7.77283 17.4769 11.0129C13.5223 14.2456 10.2461 17.9525 7.65148 22.1332C5.06616 26.1659 3.02407 30.4017 1.52625 34.8401L1.37217 35.2967L1.82274 35.4675L21.8682 43.0675L22.3872 43.2643L22.5289 42.7277C23.3295 39.6963 24.3958 36.8657 25.7268 34.2346C27.186 31.6159 28.9744 29.3276 31.0918 27.3669C33.2027 25.4121 35.644 23.9125 38.4199 22.868L38.4199 22.8681L38.4311 22.8636C41.3297 21.6923 44.706 21.1 48.5702 21.1C55.4951 21.1 60.8938 23.0049 64.8283 26.7616L64.8282 26.7617L64.8342 26.7672C68.8967 30.521 70.9504 35.7102 70.9504 42.4V45C70.9504 51.2912 69.0282 57.3293 65.1626 63.1225L65.1611 63.1248C61.4127 68.8108 55.9788 74.8449 48.8456 81.2262C48.8451 81.2266 48.8447 81.227 48.8443 81.2273L3.69417 121.025L3.52479 121.174V121.4V143V143.5H4.02479H100Z" stroke="#F1B83B"/>
</svg>
