<svg width="74" height="65" viewBox="0 0 63 65" fill="none" xmlns="http://www.w3.org/2000/svg">
<path d="M8.34783 35.7826L11.8261 38.2174M11.8261 38.2174V40.6522M11.8261 38.2174V16.0254C11.8261 15.9796 11.8302 15.9348 11.8401 15.8901C12.1027 14.714 13.327 12.3617 16.2855 11.7942C16.3265 11.7864 16.3688 11.7826 16.4106 11.7826H47.5894C47.6312 11.7826 47.6735 11.7864 47.7145 11.7942C50.673 12.3617 51.8973 14.714 52.1599 15.8901C52.1698 15.9348 52.1739 15.9796 52.1739 16.0254V39.3768M11.8261 40.6522V49M11.8261 40.6522H13.9485C14.1472 40.6522 14.3364 40.7371 14.4684 40.8856L16.8678 43.5849C16.9809 43.7123 17.0435 43.8767 17.0435 44.0471V49M11.8261 49H8.69565C8.31144 49 8 48.6886 8 48.3043V1.69565C8 1.31146 8.31144 1 8.69565 1H55.3043C55.6886 1 56 1.31146 56 1.69565V48.3043C56 48.6886 55.6886 49 55.3043 49H17.0435M11.8261 49H17.0435M55.6522 35.7826L52.4706 38.0097C52.2847 38.1399 52.1739 38.3526 52.1739 38.5796V40.6522M52.1739 40.6522V49M52.1739 40.6522H50.0515C49.8528 40.6522 49.6636 40.7371 49.5316 40.8856L47.1322 43.5849C47.0191 43.7123 46.9565 43.8767 46.9565 44.0471V49M21.913 44.8261H42.4348M21.5652 41H42.4348M21.7028 35.7826H42.2972C42.388 35.7826 42.478 35.7648 42.562 35.7302L47.917 33.5252C48.1777 33.4179 48.3478 33.1638 48.3478 32.8819V17.6957C48.3478 17.3114 48.0364 17 47.6522 17H16.3478C15.9636 17 15.6522 17.3114 15.6522 17.6957V32.8819C15.6522 33.1638 15.8223 33.4179 16.083 33.5252L21.438 35.7302C21.522 35.7648 21.612 35.7826 21.7028 35.7826Z" stroke="white" stroke-width="0.8" stroke-linecap="round"/>
<path d="M22 52H27.7358M34.9057 52H41" stroke="white" stroke-width="0.8" stroke-linecap="round"/>
<path d="M23.4237 35L25.5593 32.2727M36.2373 35L38.3729 32.2727M35.1695 32H43M22 32H29.8305" stroke="white" stroke-width="0.8" stroke-linecap="round"/>
<path d="M7.62286 36H1.69714C1.31212 36 1 35.6823 1 35.2903V25.7097C1 25.3177 1.31212 25 1.69714 25H7.62286M55.7257 25H61.3029C61.6879 25 62 25.3177 62 25.7097V35.2903C62 35.6823 61.6879 36 61.3029 36H55.7257" stroke="white" stroke-width="0.8" stroke-linecap="round"/>
<path d="M53.7554 49H10.2446C9.00494 49 8 49.97 8 51.1667V53.8333C8 55.03 9.00494 56 10.2446 56H53.7554C54.9951 56 56 55.03 56 53.8333V51.1667C56 49.97 54.9951 49 53.7554 49Z" stroke="white" stroke-width="0.8"/>
<path d="M12 56H22V61.7391C22 62.9878 20.9965 64 19.7586 64H14.2414C13.0035 64 12 62.9878 12 61.7391V56Z" stroke="white" stroke-width="0.8"/>
<path d="M42 56H52V61.7391C52 62.9878 50.9965 64 49.7586 64H44.2414C43.0035 64 42 62.9878 42 61.7391V56Z" stroke="white" stroke-width="0.8"/>
</svg>
