<svg width="62" height="63" viewBox="0 0 62 63" fill="none" xmlns="http://www.w3.org/2000/svg">
<path d="M38.7842 25.2547V39.5552M38.7842 25.2547L52.2266 19.2335M38.7842 25.2547L32.063 22.056M38.7842 39.5552L25.6374 33.6663C25.4576 33.5858 25.3418 33.4071 25.3418 33.21V18.8572M38.7842 39.5552L51.931 33.6663C52.1109 33.5858 52.2266 33.4071 52.2266 33.21V26.3837V19.2335M25.3418 18.8572L38.5735 12.9303C38.7072 12.8704 38.8604 12.8722 38.9927 12.9352L45.5054 16.0347M25.3418 18.8572L32.063 22.056M52.2266 19.2335L45.5054 16.0347M32.063 22.056L45.5054 16.0347" stroke="white" stroke-width="0.8" stroke-linecap="round"/>
<mask id="path-2-inside-1_2844_15529" fill="white">
<path d="M37.0351 41.2303C37.1961 41.3556 37.2292 41.5862 37.1049 41.7479C35.9391 43.2645 34.4634 44.4972 32.7822 45.3562C30.994 46.2698 29.0234 46.735 27.0296 46.7143C25.0358 46.6936 23.0747 46.1875 21.3045 45.2369C19.5344 44.2863 18.0049 42.9178 16.8395 41.242C15.6741 39.5661 14.9055 37.6299 14.5958 35.5896C14.286 33.5494 14.4438 31.4622 15.0564 29.4968C15.669 27.5313 16.7192 25.7427 18.1223 24.2752C19.4332 22.904 21.0179 21.8492 22.7632 21.1835C22.9651 21.1064 23.1877 21.2181 23.254 21.4238C23.3183 21.6234 23.2109 21.8372 23.015 21.9121C21.3747 22.5388 19.8855 23.5308 18.6531 24.8197C17.3325 26.201 16.344 27.8846 15.7674 29.7346C15.1908 31.5845 15.0423 33.549 15.3338 35.4694C15.6253 37.3898 16.3488 39.2123 17.4457 40.7896C18.5426 42.367 19.9823 43.6551 21.6484 44.5499C23.3145 45.4446 25.1605 45.921 27.0371 45.9405C28.9138 45.96 30.7685 45.5221 32.4517 44.6621C34.0203 43.8607 35.3989 42.7136 36.4917 41.3031C36.6227 41.134 36.8663 41.099 37.0351 41.2303Z"/>
</mask>
<path d="M37.0351 41.2303C37.1961 41.3556 37.2292 41.5862 37.1049 41.7479C35.9391 43.2645 34.4634 44.4972 32.7822 45.3562C30.994 46.2698 29.0234 46.735 27.0296 46.7143C25.0358 46.6936 23.0747 46.1875 21.3045 45.2369C19.5344 44.2863 18.0049 42.9178 16.8395 41.242C15.6741 39.5661 14.9055 37.6299 14.5958 35.5896C14.286 33.5494 14.4438 31.4622 15.0564 29.4968C15.669 27.5313 16.7192 25.7427 18.1223 24.2752C19.4332 22.904 21.0179 21.8492 22.7632 21.1835C22.9651 21.1064 23.1877 21.2181 23.254 21.4238C23.3183 21.6234 23.2109 21.8372 23.015 21.9121C21.3747 22.5388 19.8855 23.5308 18.6531 24.8197C17.3325 26.201 16.344 27.8846 15.7674 29.7346C15.1908 31.5845 15.0423 33.549 15.3338 35.4694C15.6253 37.3898 16.3488 39.2123 17.4457 40.7896C18.5426 42.367 19.9823 43.6551 21.6484 44.5499C23.3145 45.4446 25.1605 45.921 27.0371 45.9405C28.9138 45.96 30.7685 45.5221 32.4517 44.6621C34.0203 43.8607 35.3989 42.7136 36.4917 41.3031C36.6227 41.134 36.8663 41.099 37.0351 41.2303Z" stroke="white" stroke-width="1.6" mask="url(#path-2-inside-1_2844_15529)"/>
<mask id="path-3-inside-2_2844_15529" fill="white">
<path d="M42.6383 41.8379C42.8216 41.9362 42.8938 42.1628 42.7971 42.3469C41.4048 44.9977 39.4048 47.2558 36.9708 48.921C34.4357 50.6554 31.5142 51.6889 28.4844 51.9232C25.4547 52.1574 22.4175 51.5845 19.6619 50.2591C16.9063 48.9336 14.5241 46.8998 12.7419 44.351C10.9597 41.8023 9.83696 38.8235 9.48043 35.6982C9.12389 32.5729 9.54548 29.4051 10.7051 26.4963C11.8646 23.5875 13.7236 21.0345 16.105 19.0803C18.3822 17.2117 21.0645 15.95 23.917 15.4027C24.1329 15.3613 24.3379 15.5094 24.3719 15.7266C24.4054 15.9404 24.2604 16.1409 24.0479 16.1817C21.3207 16.7064 18.7563 17.9134 16.5791 19.7001C14.2997 21.5705 12.5205 24.014 11.4106 26.7981C10.3008 29.5822 9.89726 32.6141 10.2385 35.6054C10.5797 38.5967 11.6544 41.4478 13.3601 43.8872C15.0659 46.3267 17.346 48.2733 19.9834 49.5419C22.6208 50.8105 25.5278 51.3588 28.4276 51.1346C31.3275 50.9105 34.1237 49.9213 36.5501 48.2612C38.8694 46.6745 40.777 44.5253 42.1088 42.0028C42.21 41.8112 42.4474 41.7355 42.6383 41.8379Z"/>
</mask>
<path d="M42.6383 41.8379C42.8216 41.9362 42.8938 42.1628 42.7971 42.3469C41.4048 44.9977 39.4048 47.2558 36.9708 48.921C34.4357 50.6554 31.5142 51.6889 28.4844 51.9232C25.4547 52.1574 22.4175 51.5845 19.6619 50.2591C16.9063 48.9336 14.5241 46.8998 12.7419 44.351C10.9597 41.8023 9.83696 38.8235 9.48043 35.6982C9.12389 32.5729 9.54548 29.4051 10.7051 26.4963C11.8646 23.5875 13.7236 21.0345 16.105 19.0803C18.3822 17.2117 21.0645 15.95 23.917 15.4027C24.1329 15.3613 24.3379 15.5094 24.3719 15.7266C24.4054 15.9404 24.2604 16.1409 24.0479 16.1817C21.3207 16.7064 18.7563 17.9134 16.5791 19.7001C14.2997 21.5705 12.5205 24.014 11.4106 26.7981C10.3008 29.5822 9.89726 32.6141 10.2385 35.6054C10.5797 38.5967 11.6544 41.4478 13.3601 43.8872C15.0659 46.3267 17.346 48.2733 19.9834 49.5419C22.6208 50.8105 25.5278 51.3588 28.4276 51.1346C31.3275 50.9105 34.1237 49.9213 36.5501 48.2612C38.8694 46.6745 40.777 44.5253 42.1088 42.0028C42.21 41.8112 42.4474 41.7355 42.6383 41.8379Z" stroke="white" stroke-width="1.6" mask="url(#path-3-inside-2_2844_15529)"/>
<path d="M60.946 8.89412V5C60.946 2.79086 59.1551 1 56.946 1H5C2.79086 1 1 2.79086 1 5V8.89412M60.946 8.89412V58C60.946 60.2091 59.1551 62 56.946 62H40.6179H4.99999C2.79086 62 1 60.2091 1 58V34.1343L1 8.89412M60.946 8.89412H1" stroke="white" stroke-width="0.8" stroke-linecap="round"/>
<path d="M37.3301 48.2117L46.7105 57.9283C48.3185 59.5939 51.0176 59.5317 52.5712 57.8152V57.8152C53.9984 56.2382 53.9572 53.8032 52.4579 52.2946L42.4164 42.1904" stroke="white" stroke-width="0.8" stroke-linecap="round"/>
<rect x="4.45769" y="4.59539" width="1.80353" height="0.376327" rx="0.188164" stroke="white" stroke-width="0.376327"/>
<rect x="8.81707" y="4.59539" width="1.80353" height="0.376327" rx="0.188164" stroke="white" stroke-width="0.376327"/>
<rect x="13.1784" y="4.59539" width="1.80353" height="0.376327" rx="0.188164" stroke="white" stroke-width="0.376327"/>
</svg>
