<svg width="64" height="51" viewBox="0 0 64 51" fill="none" xmlns="http://www.w3.org/2000/svg">
<path d="M8.42377 18.8169H55.5677M8.42377 18.8169L11.9812 7.84801C12.5161 6.19888 14.0524 5.08203 15.7861 5.08203H48.2053C49.939 5.08203 51.4754 6.19888 52.0102 7.84801L55.5677 18.8169M8.42377 18.8169L2.95333 27.7063C2.74832 28.0395 2.988 28.4684 3.37916 28.4684H61.2952C61.6986 28.4684 61.9359 28.0154 61.7063 27.6838L55.5677 18.8169" stroke="white" stroke-width="0.8" stroke-linecap="round"/>
<path d="M55.5678 18.8182L50.5401 3.73508C49.9956 2.10172 48.4671 1 46.7453 1H16.9328C15.1832 1 13.6367 2.137 13.1149 3.8069L8.42383 18.8182" stroke="white" stroke-width="0.8" stroke-linecap="round"/>
<path d="M3 18.4482H6.91655C7.97268 18.4482 8.84678 17.627 8.91266 16.5729L8.96747 15.6959C9.07541 13.9688 7.70363 12.5088 5.97316 12.5088H3.00047C1.8959 12.5088 1 13.4042 1 14.5088V16.4482C1 17.5528 1.89543 18.4482 3 18.4482Z" stroke="white" stroke-width="0.8" stroke-linecap="round"/>
<path d="M61.3633 18.4482H57.4467C56.3906 18.4482 55.5165 17.627 55.4506 16.5729L55.3958 15.6959C55.2879 13.9688 56.6595 12.5088 58.39 12.5088H61.3633C62.4679 12.5088 63.3633 13.4042 63.3633 14.5088V16.4482C63.3633 17.5528 62.4679 18.4482 61.3633 18.4482Z" stroke="white" stroke-width="0.8" stroke-linecap="round"/>
<path d="M2.75781 28.4688V34.4081M61.8788 28.4688V34.4081M12.5076 42.2036V47.9991C12.5076 49.1036 11.6122 49.9991 10.5076 49.9991H4.75781C3.65324 49.9991 2.75781 49.1036 2.75781 47.9991V42.2036M2.75781 42.2036H21.7879M2.75781 42.2036V34.4081M61.8788 42.2036V47.9991C61.8788 49.1036 60.9834 49.9991 59.8788 49.9991H53.8561C52.7515 49.9991 51.8561 49.1036 51.8561 47.9991V42.2036M61.8788 42.2036H51.8561M61.8788 42.2036V34.4081M51.8561 42.2036H42.5758M21.7879 42.2036V39.1203C21.7879 38.568 22.2356 38.1203 22.7879 38.1203H41.5758C42.1281 38.1203 42.5758 38.568 42.5758 39.1203V42.2036M21.7879 42.2036H42.5758M61.8788 34.4081H2.75781" stroke="white" stroke-width="0.8" stroke-linecap="round"/>
<path d="M57.4247 29.2112V33.4081C57.4247 33.9604 56.9769 34.4081 56.4247 34.4081H42.8731C42.7091 34.4081 42.5762 34.2752 42.5762 34.1112C42.5762 30.995 45.1024 28.4688 48.2186 28.4688H56.6822C57.0923 28.4688 57.4247 28.8011 57.4247 29.2112Z" stroke="white" stroke-width="0.8" stroke-linecap="round"/>
<path d="M6.93863 29.2112V33.4081C6.93863 33.9604 7.38634 34.4081 7.93863 34.4081H21.4901C21.6542 34.4081 21.7871 34.2752 21.7871 34.1112C21.7871 30.995 19.2609 28.4688 16.1447 28.4688H7.68105C7.27102 28.4688 6.93863 28.8011 6.93863 29.2112Z" stroke="white" stroke-width="0.8" stroke-linecap="round"/>
</svg>
