<svg width="71" height="57" viewBox="0 0 71 57" fill="none" xmlns="http://www.w3.org/2000/svg">
<path d="M53.4689 20.4157C52.8492 12.388 43.4404 0.655174 29.9231 0.655174C16.4059 0.655174 5.44801 11.5758 5.44801 25.0471C5.44801 38.5184 16.4059 49.4391 29.9231 49.4391C32.4016 49.542 39.2175 48.9451 44.1745 44.4989M16.2914 4.97779C17.4274 5.69823 20.1331 7.32437 21.8681 6.83037C24.0367 6.21283 25.5858 5.59531 27.7545 6.52159C29.9232 7.44787 28.9937 8.06537 31.4722 8.37415C33.9507 8.68287 32.8559 13.4721 31.4722 13.9318C28.703 14.8517 25.3226 13.9444 23.4555 18.7712C23.4302 18.8367 23.4007 18.9025 23.362 18.961C22.9725 19.5494 21.8917 20.4346 20.0064 20.5176C19.1947 20.5533 18.4672 21.159 18.6591 21.9458C18.9694 23.217 19.6915 24.7101 21.1579 25.4804C21.4109 25.6133 21.7061 25.622 21.9852 25.5598C23.2629 25.2748 25.5018 25.0052 26.8251 25.6646C28.6839 26.5909 32.4016 27.5172 33.3311 29.3697C34.2605 31.2222 33.0212 33.0748 30.233 37.3974C27.4447 41.7201 28.3741 43.2639 27.4447 44.8076C26.5296 46.3276 23.2121 44.8546 23.1097 37.1476C23.1066 36.9101 23.048 36.6678 22.9015 36.4806C22.2971 35.708 21.4063 35.3668 19.8151 33.8068C19.7385 33.7316 19.6517 33.6666 19.5747 33.5917C18.9483 32.9834 17.4584 30.2684 18.1503 26.5909C18.2536 26.2821 17.2828 24.9853 12.5737 22.2683C7.86456 19.5512 7.84064 14.961 8.46024 13.3143M46.3431 7.34579C44.7941 7.75751 41.1383 8.99165 40.147 10.2267C39.393 11.1658 39.5469 12.6406 39.8455 13.7006C39.9927 14.2233 40.5052 14.5299 41.0495 14.5062C43.1615 14.4145 46.3201 14.3358 46.9628 14.5493C47.8923 14.8581 48.5119 17.6369 46.3431 17.9456C44.1745 18.2544 41.0764 16.4019 38.9077 17.3281C36.739 18.2544 37.6685 19.1807 37.6685 19.7982C37.6685 20.4157 35.19 22.8858 35.8096 24.4296C36.4292 25.9734 38.2881 27.826 40.147 27.826" stroke="white" stroke-width="0.8"/>
<path d="M40.1481 27.8265L52.8504 34.928M40.1481 27.8265V41.8415C40.1481 41.9579 40.21 42.0655 40.3107 42.1242L52.8504 49.4396M40.1481 27.8265L52.6827 20.2095C52.7859 20.1467 52.9154 20.1455 53.0198 20.2064L65.5527 27.5177M52.8504 34.928V49.4396M52.8504 34.928L65.5527 27.5177M52.8504 49.4396L65.39 42.1242C65.4907 42.0655 65.5527 41.9579 65.5527 41.8415V27.5177" stroke="white" stroke-width="0.8"/>
<path d="M61.2127 25.0473L48.6731 32.3626C48.5723 32.4214 48.5104 32.529 48.5104 32.6453V37.4667C48.5104 37.7145 48.2448 37.8726 48.0258 37.7551L44.6557 35.9466C44.5493 35.8895 44.4829 35.7787 44.4829 35.6581V30.4801C44.4829 30.3659 44.5426 30.2599 44.6405 30.2004L57.1852 22.5772" stroke="white" stroke-width="0.8"/>
<path d="M56.2571 19.1791H64.3123" stroke="white" stroke-width="0.8" stroke-linecap="round" stroke-linejoin="round"/>
<path d="M64.9331 52.529H48.2033" stroke="white" stroke-width="0.8" stroke-linecap="round" stroke-linejoin="round"/>
<path d="M62.4537 17.3281L64.3126 19.1807L62.4537 21.0333" stroke="white" stroke-width="0.8" stroke-linecap="round" stroke-linejoin="round"/>
<path d="M50.0618 50.6741L48.2029 52.5267L50.0618 54.3792" stroke="white" stroke-width="0.8" stroke-linecap="round" stroke-linejoin="round"/>
</svg>
