<svg width="80" height="72" viewBox="0 0 80 72" fill="none" xmlns="http://www.w3.org/2000/svg">
<path d="M26.6579 28.9642V71.5M26.6579 28.9642L13.829 32.4365M26.6579 28.9642L74.0599 36.8492M26.6579 71.5H78.3436C78.6197 71.5 78.8436 71.2761 78.8436 71V38.0687C78.8436 37.8242 78.6668 37.6155 78.4256 37.5754L74.0599 36.8492M26.6579 71.5H11.4371M13.829 32.4365L41.6122 16.0997C41.7755 16.0037 41.9791 16.0082 42.138 16.1114L74.0599 36.8492M13.829 32.4365L11.4371 33.0839M11.4371 33.0839L1.36937 35.8088C1.15138 35.8678 1 36.0656 1 36.2915V71C1 71.2761 1.22386 71.5 1.5 71.5H11.4371M11.4371 33.0839V71.5M15.3511 48.4959V53.7044M8.39297 49.798V53.7044M41.8788 11.1879V16.377M44.7237 13.0095L48.843 1.67073C48.9615 1.34466 48.72 1 48.3731 1H34.7447C34.3916 1 34.1498 1.356 34.2798 1.68422L38.7737 13.023C38.8492 13.2136 39.0335 13.3388 39.2385 13.3388H44.2537C44.464 13.3388 44.6519 13.2072 44.7237 13.0095Z" stroke="white" stroke-width="0.8"/>
<path d="M36.5534 35.5723C36.0544 35.5723 35.0564 35.8717 35.0564 37.0693C35.0564 38.2669 35.0564 54.2847 35.0564 62.1439C35.0564 62.5181 35.6552 63.2666 36.5534 63.2666" stroke="white" stroke-width="0.8" stroke-linecap="round"/>
<path d="M43.6642 36.6948C43.1652 36.6948 42.1672 36.978 42.1672 38.1109C42.1672 39.2438 42.1672 54.3957 42.1672 61.8301C42.1672 62.1841 42.766 62.8922 43.6642 62.8922" stroke="white" stroke-width="0.8" stroke-linecap="round"/>
<path d="M50.4006 38.1919C49.9016 38.1919 48.9036 38.4589 48.9036 39.527C48.9036 40.5952 48.9036 54.8813 48.9036 61.8909C48.9036 62.2247 49.5024 62.8923 50.4006 62.8923" stroke="white" stroke-width="0.8" stroke-linecap="round"/>
<path d="M56.3888 38.9399C55.8898 38.9399 54.8918 39.1989 54.8918 40.2346C54.8918 41.2704 54.8918 55.1236 54.8918 61.9208C54.8918 62.2445 55.4906 62.8918 56.3888 62.8918" stroke="white" stroke-width="0.8" stroke-linecap="round"/>
<path d="M63.1252 39.6885C62.6262 39.6885 61.6282 39.9393 61.6282 40.9427C61.6282 41.9461 61.6282 55.3664 61.6282 61.9512C61.6282 62.2647 62.227 62.8918 63.1252 62.8918" stroke="white" stroke-width="0.8" stroke-linecap="round"/>
<path d="M69.1132 40.437C68.6142 40.437 67.6162 40.6798 67.6162 41.6508C67.6162 42.6218 67.6162 55.6092 67.6162 61.9816C67.6162 62.285 68.215 62.8919 69.1132 62.8919" stroke="white" stroke-width="0.8" stroke-linecap="round"/>
</svg>
