<svg width="72" height="69" viewBox="0 0 72 69" fill="none" xmlns="http://www.w3.org/2000/svg">
<path d="M9.7965 64.2018L7.73044 57.1181C7.61805 56.7326 7.87757 56.3382 8.276 56.289L36.5108 52.7993M36.5108 52.7993L64.118 56.2899C64.5081 56.3392 64.766 56.7203 64.6667 57.1008L62.8993 63.876M36.5108 52.7993V61.5955M41.0718 58.6634H41.7233M30.9725 58.6634H31.624" stroke="white" stroke-width="0.8" stroke-linecap="round"/>
<path d="M11.4248 51.8227V41.3977C11.4248 41.0378 11.7165 40.7461 12.0764 40.7461H60.6182C60.978 40.7461 61.2697 41.0378 61.2697 41.3977V51.8227" stroke="white" stroke-width="0.8" stroke-linecap="round"/>
<path d="M35.99 48.2385C35.99 48.5264 36.2234 48.7598 36.5113 48.7598C36.7991 48.7598 37.0325 48.5264 37.0325 48.2385H35.99ZM31.82 45.3065C31.82 45.0186 31.5866 44.7852 31.2987 44.7852C31.0109 44.7852 30.7775 45.0186 30.7775 45.3065H31.82ZM30.7775 49.2159C30.7775 49.5037 31.0109 49.7371 31.2987 49.7371C31.5866 49.7371 31.82 49.5037 31.82 49.2159H30.7775ZM26.9332 45.3065C26.9332 45.0186 26.6998 44.7852 26.412 44.7852C26.1241 44.7852 25.8907 45.0186 25.8907 45.3065H26.9332ZM25.8907 49.2159C25.8907 49.5037 26.1241 49.7371 26.412 49.7371C26.6998 49.7371 26.9332 49.5037 26.9332 49.2159H25.8907ZM22.0465 45.3065C22.0465 45.0186 21.8131 44.7852 21.5252 44.7852C21.2373 44.7852 21.0039 45.0186 21.0039 45.3065H22.0465ZM21.0039 49.2159C21.0039 49.5037 21.2373 49.7371 21.5252 49.7371C21.8131 49.7371 22.0465 49.5037 22.0465 49.2159H21.0039ZM17.1597 45.3065C17.1597 45.0186 16.9263 44.7852 16.6384 44.7852C16.3506 44.7852 16.1172 45.0186 16.1172 45.3065H17.1597ZM16.1172 50.519C16.1172 50.8069 16.3506 51.0403 16.6384 51.0403C16.9263 51.0403 17.1597 50.8069 17.1597 50.519H16.1172ZM41.9193 45.3065C41.9193 45.0186 41.6859 44.7852 41.398 44.7852C41.1102 44.7852 40.8768 45.0186 40.8768 45.3065H41.9193ZM40.8768 49.2159C40.8768 49.5037 41.1102 49.7371 41.398 49.7371C41.6859 49.7371 41.9193 49.5037 41.9193 49.2159H40.8768ZM46.806 45.3065C46.806 45.0186 46.5726 44.7852 46.2848 44.7852C45.9969 44.7852 45.7635 45.0186 45.7635 45.3065H46.806ZM45.7635 49.2159C45.7635 49.5037 45.9969 49.7371 46.2848 49.7371C46.5726 49.7371 46.806 49.5037 46.806 49.2159H45.7635ZM51.6928 45.3065C51.6928 45.0186 51.4594 44.7852 51.1715 44.7852C50.8837 44.7852 50.6503 45.0186 50.6503 45.3065H51.6928ZM50.6503 49.2159C50.6503 49.5037 50.8837 49.7371 51.1715 49.7371C51.4594 49.7371 51.6928 49.5037 51.6928 49.2159H50.6503ZM56.5796 45.3065C56.5796 45.0186 56.3462 44.7852 56.0583 44.7852C55.7704 44.7852 55.537 45.0186 55.537 45.3065H56.5796ZM55.537 50.519C55.537 50.8069 55.7704 51.0403 56.0583 51.0403C56.3462 51.0403 56.5796 50.8069 56.5796 50.519H55.537ZM35.99 41.0713V48.2385H37.0325V41.0713H35.99ZM30.7775 45.3065V49.2159H31.82V45.3065H30.7775ZM25.8907 45.3065V49.2159H26.9332V45.3065H25.8907ZM21.0039 45.3065V49.2159H22.0465V45.3065H21.0039ZM16.1172 45.3065V50.519H17.1597V45.3065H16.1172ZM40.8768 45.3065V49.2159H41.9193V45.3065H40.8768ZM45.7635 45.3065V49.2159H46.806V45.3065H45.7635ZM50.6503 45.3065V49.2159H51.6928V45.3065H50.6503ZM55.537 45.3065V50.519H56.5796V45.3065H55.537Z" fill="white"/>
<path d="M14.0317 40.4199V28.3659C14.0317 28.0061 14.3234 27.7144 14.6833 27.7144H58.0126C58.3724 27.7144 58.6641 28.0061 58.6641 28.3659V40.7457" stroke="white" stroke-width="0.8"/>
<path d="M18.918 31.9497V36.5107M24.1305 31.9497V36.5107" stroke="white" stroke-width="0.8" stroke-linecap="round"/>
<path d="M33.5781 31.9497V36.5107M38.7907 31.9497V36.5107" stroke="white" stroke-width="0.8" stroke-linecap="round"/>
<path d="M48.5645 31.9497V36.5107M53.777 31.9497V36.5107" stroke="white" stroke-width="0.8" stroke-linecap="round"/>
<path d="M22.8281 23.4796V17.2898C22.8281 16.9299 23.1198 16.6382 23.4797 16.6382H49.5424C49.9023 16.6382 50.194 16.9299 50.194 17.2898V23.4796M45.3072 21.5249H42.3752M37.8142 21.5249H34.8821M30.3212 21.5249H27.3891" stroke="white" stroke-width="0.8" stroke-linecap="round"/>
<path d="M22.8271 20.5467L16.7758 18.7313C16.5002 18.6486 16.3114 18.3949 16.3114 18.1072V15.1712V12.4021C16.3114 12.0422 16.6032 11.7505 16.963 11.7505H55.7313C56.0912 11.7505 56.3829 12.0421 56.3829 12.402C56.3829 13.157 56.3829 14.4148 56.3829 15.3341M56.3829 15.3341C56.3829 16.3175 56.3829 17.6882 56.3829 18.4164C56.3829 18.7124 56.1834 18.9703 55.8971 19.0456L50.193 20.5467M56.3829 15.3341C57.5279 15.3341 59.3149 15.3341 59.3149 15.3341M13.3794 15.3341C14.5245 15.3341 16.3114 15.3341 16.3114 15.3341" stroke="white" stroke-width="0.8" stroke-linecap="round"/>
<path d="M29.0176 11.7509L30.9723 5.88676M30.9723 5.88676H41.7232M30.9723 5.88676H28.0402C27.6804 5.88676 27.3887 5.59504 27.3887 5.23519V1.65157C27.3887 1.29172 27.6804 1 28.0402 1H44.3294C44.6893 1 44.981 1.29172 44.981 1.65157V5.23519C44.981 5.59504 44.6893 5.88676 44.3294 5.88676H41.7232M41.7232 5.88676L43.6779 11.7509" stroke="white" stroke-width="0.8" stroke-linecap="round"/>
<path d="M29.0171 28.0401V40.7457M44.0031 27.7144V40.7457" stroke="white" stroke-width="0.8" stroke-linecap="round"/>
<path d="M1 65.8294C1.86876 65.9382 4.25784 66.4809 6.86411 67.7841C10.122 69.413 14.0314 66.8067 14.3571 66.8067C14.6829 66.8067 17.615 64.5264 22.8275 67.1325C26.9976 69.2175 30.4292 68.0017 31.6237 67.1325M31.6237 67.1338C33.2526 66.1565 35.8589 64.5274 41.0714 67.1338M49.8676 67.1338C51.4965 66.1565 54.1028 64.5274 59.3153 67.1338C63.4854 69.2188 65.831 68.4369 71.0435 65.5049M41.0714 67.1325C45.2415 69.2175 48.6731 68.0017 49.8676 67.1325" stroke="white" stroke-width="0.8" stroke-linecap="round"/>
</svg>
