<svg width="64" height="70" viewBox="0 0 64 70" fill="none" xmlns="http://www.w3.org/2000/svg">
<path d="M17.1504 1V7.29083C17.1504 7.34681 17.1556 7.40237 17.1678 7.45699C17.3326 8.19313 17.8682 9.59758 18.8504 9.925C19.8565 10.2603 31.4192 10.072 37.3086 9.93086C37.4693 9.92695 37.6238 9.88063 37.7422 9.77191C38.189 9.36153 38.8254 8.42093 38.8254 6.95C38.8254 5.25 38.8254 2.275 38.8254 1" stroke="white" stroke-width="0.8" stroke-linecap="round"/>
<path d="M48.442 30.3603C48.442 29.7786 48.442 16.2422 48.442 8.583C48.442 8.30686 48.2181 8.08691 47.942 8.08691H39.2489M48.442 55.2523V61.8925C48.442 62.1686 48.2181 62.3925 47.942 62.3925H8.29892C8.02278 62.3925 7.79892 62.1686 7.79892 61.8925L7.79883 8.58691C7.79883 8.31077 8.02269 8.08691 8.29883 8.08691H17.1488M55.3989 55.2523H47.5528C47.4189 55.2523 47.2906 55.1987 47.1967 55.1033L44.9273 52.8007C44.8334 52.7054 44.7051 52.6517 44.5712 52.6517H39.5061C38.1724 52.6517 37.0912 51.5705 37.0912 50.2368V50.2368C37.0912 48.9031 38.1724 47.8219 39.5061 47.8219H47.3435" stroke="white" stroke-width="0.8" stroke-linecap="round"/>
<path d="M55.4004 56.5986V40.5986C55.4004 40.3225 55.6242 40.0986 55.9004 40.0986H62.5504C62.8265 40.0986 63.0504 40.3225 63.0504 40.5986V56.5986C63.0504 56.8748 62.8265 57.0986 62.5504 57.0986H55.9004C55.6242 57.0986 55.4004 56.8748 55.4004 56.5986Z" stroke="white" stroke-width="0.8" stroke-linecap="round"/>
<path d="M55.3988 42.9048H53.0842C52.9487 42.9048 52.8189 42.8498 52.7247 42.7523L49.9844 39.917M42.2238 47.3223C42.3943 47.1518 50.1448 38.9625 52.513 36.5456C52.7105 36.3441 52.7021 36.0222 52.4966 35.8289L49.2644 32.7885C49.0638 32.5998 48.7484 32.6089 48.5589 32.8088L30.4927 51.8685M30.4927 51.8685L34.1023 55.9768M30.4927 51.8685L29.27 56.2961C29.1697 56.6595 29.4922 56.9989 29.8602 56.9174L34.1023 55.9768M34.1023 55.9768L37.9738 51.9973" stroke="white" stroke-width="0.8" stroke-linecap="round"/>
<path d="M43.5012 37.5527H39.549C39.4277 37.5527 39.3106 37.5968 39.2194 37.6768L32.6215 43.463C32.5132 43.558 32.4512 43.695 32.4512 43.839V49.4527" stroke="white" stroke-width="0.8" stroke-linecap="round"/>
<path d="M23.9512 16.3027H43.5012" stroke="white" stroke-width="0.8" stroke-linecap="round"/>
<path d="M23.9512 31.5986H43.5012" stroke="white" stroke-width="0.8" stroke-linecap="round"/>
<path d="M23.9512 46.9014H32.4512" stroke="white" stroke-width="0.8" stroke-linecap="round"/>
<path d="M23.9512 21.4014H35.0012" stroke="white" stroke-width="0.8" stroke-linecap="round"/>
<path d="M23.9512 36.6973H33.3012" stroke="white" stroke-width="0.8" stroke-linecap="round"/>
<path d="M23.9512 51.1514H28.2012" stroke="white" stroke-width="0.8" stroke-linecap="round"/>
<path d="M12.334 19.2834L14.4432 21.4981C14.6474 21.7125 14.9922 21.7034 15.1849 21.4786L19.3083 16.668" stroke="white" stroke-width="0.8" stroke-linecap="round"/>
<path d="M12.334 34.1071L14.4432 36.3218C14.6474 36.5362 14.9922 36.5272 15.1849 36.3024L19.3083 31.4917" stroke="white" stroke-width="0.8" stroke-linecap="round"/>
<path d="M12.334 48.9264L14.4432 51.1411C14.6474 51.3555 14.9922 51.3465 15.1849 51.1217L19.3083 46.311" stroke="white" stroke-width="0.8" stroke-linecap="round"/>
<path d="M55.4 38.0513V3C55.4 1.89543 54.5046 1 53.4 1H3C1.89543 1 1 1.89543 1 3V67C1 68.1046 1.89543 69 3 69H53.4C54.5046 69 55.4 68.1046 55.4 67V58.9744" stroke="white" stroke-width="0.8" stroke-linecap="round"/>
</svg>
