<svg width="63" height="59" viewBox="0 0 63 59" fill="none" xmlns="http://www.w3.org/2000/svg">
<path d="M3.94589 3.5723C4.5556 2.49255 5.19255 1.42982 5.78863 0.339844C6.56183 1.33785 7.12385 2.47551 7.73356 3.5723C9.01769 3.58593 10.3018 3.58252 11.5825 3.58593C10.932 4.6759 10.3018 5.7795 9.66145 6.87629C10.3086 7.94924 10.9388 9.0324 11.5417 10.1292C10.2712 10.1428 8.99725 10.1292 7.72675 10.1564C7.13067 11.2669 6.5448 12.3909 5.80566 13.4161C5.19937 12.3262 4.559 11.2532 3.95952 10.1598C2.69242 10.1224 1.42873 10.1496 0.165039 10.1292C0.713433 9.0324 1.45598 8.0378 1.93966 6.90695C1.62288 5.93619 0.989333 5.10168 0.475001 4.22969C0.41369 4.06279 0.287661 3.7358 0.22635 3.5689C1.4662 3.58933 2.70605 3.58933 3.94589 3.5723Z" fill="#E3E3E3"/>
<path d="M20.8918 3.59617C21.5594 2.53004 22.1623 1.42984 22.806 0.34668C23.552 1.36172 24.131 2.48576 24.7544 3.57573C26.0113 3.58595 27.2647 3.57914 28.5216 3.59276C27.9494 4.7134 27.2988 5.78975 26.6652 6.87632C27.309 7.94585 27.9289 9.03242 28.5386 10.1258C27.2784 10.1462 26.0215 10.136 24.7612 10.1428C24.1276 11.243 23.5452 12.3773 22.8095 13.4128C22.2032 12.3194 21.5492 11.2532 20.9531 10.1531C19.6826 10.1292 18.4087 10.1394 17.1348 10.136C17.7343 9.04945 18.4427 8.0242 18.9741 6.90356C18.504 5.72844 17.7104 4.70999 17.145 3.58255C18.3951 3.58595 19.6417 3.57573 20.8918 3.59617Z" fill="#E3E3E3"/>
<path d="M39.7316 0.517578C39.7929 0.52439 39.9121 0.534609 39.9734 0.538015C40.6478 1.50877 41.1554 2.57831 41.7719 3.58314C43.0322 3.58314 44.2959 3.57632 45.5561 3.59676C44.9396 4.69695 44.2993 5.78012 43.6725 6.8735C44.3061 7.95326 44.9294 9.03642 45.5561 10.123C44.2993 10.1468 43.0424 10.14 41.7855 10.1366C41.1349 11.23 40.5389 12.354 39.8304 13.4099C39.2002 12.3336 38.5428 11.2709 37.9774 10.1605C36.6967 10.123 35.416 10.1571 34.1318 10.1128C34.762 9.04323 35.4466 8.00435 36.0052 6.89394C35.4977 5.73584 34.7313 4.70717 34.1455 3.58314C35.3921 3.58654 36.6388 3.57292 37.8854 3.59676C38.5428 2.59534 39.0776 1.5224 39.7316 0.517578Z" fill="#E3E3E3"/>
<path d="M54.906 3.59615C55.5702 2.5198 56.1867 1.41619 56.8509 0.339844C57.5287 1.40257 58.1452 2.50276 58.7856 3.58593C59.9403 3.58252 61.095 3.58252 62.2497 3.58252V4.54988L62.2463 4.15817C61.7115 5.0608 61.187 5.96684 60.6692 6.8797C61.2074 7.79937 61.7762 8.70541 62.2497 9.66595V10.1394C61.095 10.1394 59.9437 10.1394 58.789 10.136C58.1452 11.226 57.5321 12.3296 56.8509 13.3957C56.1935 12.316 55.5668 11.2192 54.9162 10.136C53.6661 10.1394 52.4161 10.1394 51.166 10.1326C51.7825 9.03581 52.4161 7.95264 53.0394 6.85926C52.4092 5.76929 51.7757 4.68272 51.1592 3.58593C52.4092 3.58252 53.6559 3.57571 54.906 3.59615Z" fill="#E3E3E3"/>
<path d="M12.5806 18.263C13.2618 17.1832 13.8715 16.0626 14.5255 14.9658C15.1863 16.0592 15.7858 17.1866 16.4636 18.2698C17.7239 18.2596 18.9876 18.2562 20.2479 18.2698C19.6313 19.4381 18.7423 20.494 18.3881 21.7816C19.0966 22.7421 19.6211 23.8219 20.2581 24.8267C18.9978 24.8778 17.7341 24.871 16.4738 24.8437C15.7687 25.8826 15.2203 27.0135 14.5459 28.0728C13.8443 27.0305 13.2652 25.9167 12.601 24.8539C11.3237 24.8642 10.0498 24.8744 8.77246 24.8335C9.42304 23.7367 10.1111 22.6638 10.6799 21.5227C10.1043 20.4157 9.44348 19.353 8.7929 18.2902C10.0566 18.246 11.3169 18.263 12.5806 18.263Z" fill="#E3E3E3"/>
<path d="M29.3836 18.2663C30.0239 17.1661 30.6813 16.0728 31.2808 14.9487C31.9552 16.0421 32.5615 17.173 33.2428 18.2629C34.5065 18.2629 35.7736 18.2527 37.0407 18.2766C36.3628 19.3495 35.7429 20.4531 35.1332 21.5601C35.7668 22.6535 36.3935 23.7469 37.0339 24.8403C35.7702 24.8709 34.5065 24.8607 33.2428 24.8573C32.5513 25.9132 32.0063 27.0611 31.257 28.0795C30.6575 26.9896 30.0274 25.92 29.3972 24.8505C28.1029 24.8675 26.8085 24.8743 25.5176 24.8266C26.1886 23.7605 26.9073 22.7114 27.4182 21.5601C26.938 20.3952 26.209 19.3529 25.5448 18.2902C26.8221 18.2493 28.1029 18.2595 29.3836 18.2663Z" fill="#E3E3E3"/>
<path d="M46.1957 18.2359C46.802 17.1561 47.4355 16.0934 48.035 15.0103C48.7707 16.0321 49.3498 17.1527 49.9731 18.2495C51.2402 18.27 52.5073 18.2529 53.7744 18.2802C53.1647 19.377 52.5414 20.4669 51.884 21.5365C52.555 22.6265 53.1579 23.7539 53.8289 24.8439C52.5448 24.8677 51.2606 24.8575 49.9799 24.8643C49.3361 25.9407 48.7707 27.0715 48.0248 28.0831C47.4151 26.9932 46.819 25.8964 46.1378 24.8507C44.8741 24.8677 43.6104 24.8609 42.3467 24.8575C42.9087 23.7301 43.7296 22.7286 44.1656 21.5467C43.7534 20.3682 42.9291 19.3804 42.3603 18.27C43.641 18.2529 44.9183 18.2802 46.1957 18.2359Z" fill="#E3E3E3"/>
<path d="M0.256376 32.4902C8.30517 32.4936 16.3505 32.4902 24.3959 32.4902C24.3993 34.9972 24.3959 37.5041 24.3993 40.0145C20.0462 43.5944 15.7613 47.2492 11.5717 51.0198C15.8464 51.0743 20.1178 51.03 24.3925 51.0437C24.4027 53.4723 24.3959 55.8975 24.3959 58.3261H0.256376C0.259782 55.8191 0.249564 53.3156 0.263189 50.8086C4.37785 47.365 8.31198 43.717 12.2052 40.0281C8.22342 40.0043 4.23819 40.0213 0.256376 40.0179C0.256376 37.5075 0.256376 35.0006 0.256376 32.4902Z" fill="#E3E3E3"/>
<path d="M27.3467 32.4902C29.5403 32.4902 31.7338 32.4902 33.924 32.4902C33.924 41.1045 33.924 49.7153 33.924 58.3261H27.3467C27.3467 49.7153 27.3467 41.101 27.3467 32.4902Z" fill="#E3E3E3"/>
<path d="M36.7539 32.491C39.6151 32.491 42.4763 32.491 45.3341 32.491C46.9656 36.5069 48.4269 40.5909 49.9528 44.6477C51.2574 40.5364 52.9162 36.5512 54.4422 32.5217C57.0445 32.457 59.6468 32.5081 62.2491 32.491V58.3269H56.0124C55.9784 54.3893 56.0805 50.445 55.9511 46.5074C54.6159 50.4348 53.1921 54.3314 52.0578 58.3235L52.3542 58.3269H47.4323C46.8464 57.0529 46.6761 55.6394 46.2639 54.3042C45.6372 51.6439 44.5404 49.1132 43.9784 46.4325C43.6446 50.3871 43.8864 54.3621 43.8115 58.3269H36.7539C36.7539 49.716 36.7539 41.1052 36.7539 32.491Z" fill="#E3E3E3"/>
</svg>
