<svg width="208" height="55" viewBox="0 0 208 55" fill="none" xmlns="http://www.w3.org/2000/svg">
<path d="M1.55859 28.0982C19.2853 28.0931 37.0119 28.088 54.7386 28.0982C54.6313 29.268 54.5036 30.4328 54.3656 31.5975C36.8995 31.5822 19.4334 31.618 1.96728 31.5771H1.89065C1.77826 30.4175 1.68631 29.2527 1.55859 28.0982Z" fill="#E3E3E3"/>
<path d="M3.1582 36.2669C19.7712 36.2516 36.3893 36.2465 53.0023 36.2669C52.4965 37.3908 51.9755 38.5095 51.4289 39.613H51.3216C35.8274 39.5875 20.3331 39.567 4.83891 39.6232H4.69588C4.16459 38.5147 3.66395 37.3857 3.1582 36.2669Z" fill="#E3E3E3"/>
<path d="M7.82031 44.1489C21.2558 44.1847 34.6964 44.1234 48.137 44.1847C47.1459 45.2319 46.1038 46.2332 45.031 47.2038C33.6542 47.1936 22.2775 47.1885 10.9008 47.2038C9.83819 46.223 8.8267 45.186 7.82031 44.1489Z" fill="#E3E3E3"/>
<path d="M17.2051 51.0356C24.3111 51.1685 31.4171 51.0612 38.523 51.0969C31.8819 54.1825 23.8258 54.1825 17.2051 51.0356Z" fill="#E3E3E3"/>
<path d="M23.8636 0.3592C30.8521 -0.810657 38.2799 0.951791 44.0475 5.06417C49.3706 8.83939 53.3246 14.5456 54.8112 20.916C56.4102 27.7921 55.4089 35.3323 51.6848 41.3808C47.6643 48.1241 40.6094 52.9772 32.8547 54.2441C24.8087 55.7052 16.1548 53.2837 10.0399 47.8585C4.45625 43.0615 1.12548 35.9249 0.701467 28.6044C0.451148 22.0194 2.5763 15.3068 6.78575 10.2034C10.9799 4.93646 17.2123 1.36558 23.8636 0.3592ZM11.1791 7.00031C5.11014 11.9965 1.69252 19.7819 1.54438 27.5878L1.5597 28.0986C1.68742 29.2531 1.77937 30.4179 1.89176 31.5775H1.96839C2.22381 33.1714 2.62739 34.7397 3.15868 36.2672C3.66442 37.3859 4.16506 38.5149 4.69635 39.6235H4.83939C5.63632 41.2531 6.64271 42.7704 7.82278 44.1497C8.82916 45.1867 9.84066 46.2237 10.9032 47.2046C12.8802 48.6605 14.8624 50.2288 17.2072 51.036C23.8279 54.1828 31.884 54.1828 38.5251 51.0973C40.9568 50.3208 43.0002 48.6912 45.0334 47.2046C46.1062 46.2339 47.1484 45.2327 48.1394 44.1854C49.3502 42.7755 50.4383 41.2531 51.3221 39.6133H51.4293C51.9759 38.5098 52.497 37.3911 53.0028 36.2672C53.5545 34.7397 54.0143 33.1816 54.3667 31.598C54.5047 30.4332 54.6324 29.2685 54.7397 28.0986L54.7652 27.5878C54.5966 21.8611 52.778 16.1395 49.3297 11.5367C45.294 6.06545 39.1177 2.18806 32.3796 1.15102C24.9109 -0.080135 16.9415 2.07056 11.1791 7.00031Z" fill="#E3E3E3"/>
<path d="M63.6961 19.2577C66.1022 17.7252 69.1775 17.8273 71.8748 18.3331C74.4955 18.9104 76.3039 21.2552 76.6411 23.8503C74.8838 23.8452 73.1162 23.9934 71.364 23.7737C70.5875 23.0891 70.0051 21.8835 68.7893 22.0368C67.9004 21.9193 67.364 22.8031 66.7356 23.2475C68.8761 25.2909 72.0587 25.5821 74.2299 27.5591C76.5543 29.5719 76.2733 33.6945 73.8008 35.4672C72.069 36.7341 69.8314 37.0457 67.7369 37.0457C65.3768 36.964 62.7867 36.4122 61.1571 34.5578C60.1763 33.5259 60.0077 32.0598 59.7676 30.7264C61.5913 30.706 63.4202 30.7009 65.249 30.7162C65.7446 31.9729 66.7918 33.1121 68.2733 32.8516C69.3665 33.0099 69.8774 31.9627 70.3934 31.2117C68.2427 29.342 65.2848 28.8363 63.1239 26.987C60.7433 25.061 61.1316 20.8669 63.6961 19.2577Z" fill="#E3E3E3"/>
<path d="M126.608 18.3639C130.041 17.5567 134.255 17.9347 136.631 20.8517C139.062 23.9577 138.812 28.5247 137.141 31.927C134.332 37.5975 125.484 38.9053 121.285 34.1237C117.397 28.8926 120.094 19.9935 126.608 18.3639ZM128.763 22.5682C125.739 23.4315 124.932 27.217 125.412 29.95C125.627 32.1007 128.329 33.1173 130.061 31.9986C132.253 30.609 132.789 27.6818 132.6 25.2757C132.472 23.4315 130.546 22.0624 128.763 22.5682Z" fill="#E3E3E3"/>
<path d="M172.191 18.5374C174.271 17.8477 176.544 17.8835 178.674 18.3126C181.918 19.038 184.416 22.0929 184.431 25.4288C184.861 29.2347 183.374 33.4084 179.997 35.4518C175.905 38.0674 169.346 37.5974 166.746 33.107C164.023 27.9473 166.424 20.3918 172.191 18.5374ZM174.771 22.5987C171.655 23.6408 170.965 27.6613 171.681 30.4761C172.227 32.4275 174.853 33.0354 176.396 31.8758C178.521 30.2768 178.97 27.3088 178.613 24.8311C178.317 23.1146 176.391 22.1134 174.771 22.5987Z" fill="#E3E3E3"/>
<path d="M84.3746 18.4966C86.3312 18.517 88.2877 18.4966 90.2494 18.5221C89.2737 24.5298 88.4104 30.5528 87.5215 36.5757C85.5496 36.6013 83.5828 36.5859 81.6211 36.6013C82.556 30.5681 83.4857 24.5349 84.3746 18.4966Z" fill="#E3E3E3"/>
<path d="M97.5956 18.711C99.3019 18.2462 101.166 18.5884 102.934 18.5425C104.426 22.0061 106.265 25.3368 107.435 28.9281C108.027 25.4697 108.513 21.9958 109.049 18.5271C110.857 18.4914 112.661 18.522 114.464 18.4914C113.55 24.5348 112.62 30.568 111.69 36.6063C109.897 36.591 108.104 36.6012 106.306 36.5501C104.804 33.112 103.169 29.7302 101.672 26.2921C101.325 29.7353 100.707 33.1478 100.247 36.5756C98.4487 36.5961 96.6505 36.591 94.8574 36.5961C95.7667 30.6344 96.5381 24.6472 97.5956 18.711Z" fill="#E3E3E3"/>
<path d="M146.224 18.4966C148.124 18.5068 150.025 18.5068 151.925 18.4966C151.644 20.4429 151.338 22.3791 151.026 24.3152C152.921 22.3893 154.837 20.494 156.691 18.5272C158.975 18.4915 161.264 18.4864 163.552 18.5477C161.044 21.0355 158.454 23.4417 155.925 25.9091C157.729 29.4697 159.562 33.0151 161.33 36.5962C159.241 36.5911 157.151 36.5859 155.062 36.6013C153.948 34.3586 152.875 32.0955 151.823 29.8273C151.159 30.3842 150.52 30.9717 149.897 31.5694C149.626 33.2245 149.524 34.9257 149.059 36.5451C147.184 36.683 145.305 36.5808 143.43 36.5911C144.4 30.563 145.259 24.5247 146.224 18.4966Z" fill="#E3E3E3"/>
<path d="M189.592 36.6061C190.409 30.5627 191.395 24.5448 192.269 18.5116C195.702 18.5576 199.14 18.3941 202.573 18.578C204.713 18.6649 207.206 19.896 207.37 22.297C207.896 24.7951 206.552 27.2728 204.289 28.366C204.963 28.9841 205.903 29.5103 206.098 30.486C206.465 32.5192 205.51 34.6699 206.491 36.6112C204.391 36.5805 202.292 36.5958 200.192 36.5907C200.238 34.7721 200.698 32.9483 200.412 31.1348C199.62 29.6176 197.571 30.1642 196.177 30.0058C195.85 32.1872 195.507 34.3634 195.216 36.5499C193.341 36.6061 191.467 36.5907 189.592 36.6061ZM197.193 22.8743C197.045 23.9931 196.887 25.1118 196.734 26.2357C198.179 26.1795 199.686 26.3379 201.071 25.8424C202.307 25.4235 202.327 23.3085 201.025 22.9458C199.758 22.7568 198.465 22.8539 197.193 22.8743Z" fill="#E3E3E3"/>
<path d="M16.3073 10.9545C17.2728 11.2815 18.1259 10.694 18.9382 10.2598C18.9842 12.0631 19.0046 13.8715 18.8973 15.6799C17.4363 14.0197 16.3686 11.5676 13.8858 11.3121C12.1745 10.8166 9.39031 12.1193 10.4631 14.224C12.7006 16.671 16.7364 16.4258 18.9177 19.0158C20.4146 20.814 19.8679 23.7055 17.9267 24.9468C15.2192 26.7604 11.7198 26.2648 8.75174 25.4526C8.20001 25.7387 7.64829 26.0298 7.09657 26.3159C7.00972 24.3083 6.98929 22.2955 7.20896 20.2981C8.56783 22.2751 9.62019 25.0286 12.3686 25.3198C14.3354 25.9226 17.3188 24.4462 16.3788 22.0758C14.3865 19.8741 10.974 19.8945 8.76706 17.9277C6.58061 16.4513 6.89223 12.8549 9.03782 11.4909C11.1936 10.0759 13.9216 10.4386 16.3073 10.9545Z" fill="#E3E3E3"/>
<path d="M19.7285 10.9138C22.0989 10.735 24.4692 10.8525 26.8447 10.8525C26.2777 11.3481 25.5471 11.6393 25.0312 12.191C24.6276 14.0658 24.8728 16.0122 24.8166 17.9177C26.5076 15.9815 28.4284 14.1935 29.634 11.8896C28.9137 11.5626 28.1985 11.2357 27.4424 11.0058C29.5165 10.7402 31.6059 10.7861 33.6902 10.9087C31.0695 12.0531 29.1487 14.1884 27.4271 16.3953C29.6442 19.5166 31.6672 22.7861 34.1295 25.7286C31.8869 25.7542 29.6033 25.9841 27.3964 25.4323C27.8766 25.2689 28.8371 24.9419 29.3173 24.7835C27.9635 22.6993 26.6046 20.6201 25.0721 18.6686C24.8575 20.5128 24.5816 22.4132 24.9801 24.2523C25.3377 24.8806 26.0682 25.2178 26.5535 25.7491C24.316 25.7593 22.0784 25.7797 19.8409 25.7388C20.5101 25.0543 21.8026 24.6865 21.6034 23.5013C21.6647 19.6801 21.6902 15.8436 21.5318 12.0224C20.9546 11.6188 20.362 11.2255 19.7285 10.9138Z" fill="#E3E3E3"/>
<path d="M34.4473 10.9393C37.3132 10.7605 40.1893 10.7809 43.0552 10.8473C44.741 10.9444 46.6311 11.2611 47.755 12.6455C48.8585 13.938 48.6695 16.0631 47.4587 17.2177C46.7282 17.8154 45.8444 18.173 45.0117 18.5919C46.7384 21.0235 48.4242 23.491 50.3961 25.7387C48.8023 25.7592 47.2135 25.7592 45.6197 25.7592C43.9338 23.3581 42.4575 20.8039 40.5264 18.5817C40.46 20.5076 40.1944 22.4795 40.6337 24.3747C41.1854 24.9724 42.0539 25.1461 42.7384 25.5497C40.0003 25.8664 37.2161 25.9431 34.4779 25.5242C35.1574 25.2534 35.801 24.9163 36.4038 24.5178C36.7563 23.3633 36.6695 22.1423 36.6899 20.9571C36.6184 17.9635 36.8432 14.9648 36.4498 11.9865C35.801 11.6034 35.142 11.2356 34.4473 10.9393ZM40.5162 11.6494C40.414 13.8154 40.4089 15.9865 40.4396 18.1525C41.6707 17.9124 43.3157 18.1372 44.036 16.8601C44.7154 15.6289 44.6388 14.0197 44.0462 12.7681C43.423 11.4093 41.7116 11.7873 40.5162 11.6494Z" fill="#E3E3E3"/>
</svg>
