<svg width="13" height="12" viewBox="0 0 13 12" fill="none" xmlns="http://www.w3.org/2000/svg">
<path d="M7.49981 11L7.49981 3.41002L10.7898 6.71002C10.9781 6.89832 11.2335 7.00411 11.4998 7.00411C11.7661 7.00411 12.0215 6.89832 12.2098 6.71002C12.3981 6.52172 12.5039 6.26632 12.5039 6.00002C12.5039 5.73372 12.3981 5.47832 12.2098 5.29002L7.20981 0.290019C7.11471 0.198978 7.00257 0.127613 6.87981 0.0800185C6.63635 -0.0199996 6.36328 -0.0199996 6.11981 0.0800185C5.99706 0.127613 5.88492 0.198978 5.78981 0.290019L0.789816 5.29002C0.696088 5.38298 0.621692 5.49358 0.570923 5.61544C0.520154 5.7373 0.494017 5.86801 0.494017 6.00002C0.494017 6.13203 0.520154 6.26274 0.570923 6.3846C0.621692 6.50645 0.696088 6.61706 0.789816 6.71002C0.882779 6.80375 0.993379 6.87814 1.11524 6.92891C1.2371 6.97968 1.3678 7.00582 1.49982 7.00582C1.63183 7.00582 1.76253 6.97968 1.88439 6.92891C2.00625 6.87814 2.11685 6.80375 2.20981 6.71002L5.49981 3.41002L5.49981 11C5.49981 11.2652 5.60517 11.5196 5.79271 11.7071C5.98024 11.8947 6.2346 12 6.49981 12C6.76503 12 7.01939 11.8947 7.20692 11.7071C7.39446 11.5196 7.49981 11.2652 7.49981 11Z" fill="white"/>
</svg>
