<svg width="6" height="8" viewBox="0 0 6 8" fill="none" xmlns="http://www.w3.org/2000/svg">
<path d="M1.11288 3.52655L3.93955 0.699884C4.00153 0.637399 4.07526 0.587802 4.1565 0.553957C4.23774 0.520111 4.32488 0.502686 4.41288 0.502686C4.50089 0.502686 4.58803 0.520111 4.66927 0.553957C4.75051 0.587802 4.82424 0.637399 4.88622 0.699884C5.01038 0.824793 5.08008 0.993761 5.08008 1.16988C5.08008 1.34601 5.01038 1.51498 4.88622 1.63988L2.52622 3.99988L4.88622 6.35988C5.01038 6.48479 5.08008 6.65376 5.08008 6.82988C5.08008 7.00601 5.01038 7.17498 4.88622 7.29988C4.82392 7.36167 4.75005 7.41056 4.66882 7.44373C4.5876 7.47691 4.50062 7.49372 4.41288 7.49322C4.32515 7.49372 4.23817 7.47691 4.15695 7.44373C4.07572 7.41056 4.00184 7.36167 3.93955 7.29988L1.11288 4.47322C1.0504 4.41124 1.0008 4.33751 0.966956 4.25627C0.93311 4.17503 0.915685 4.08789 0.915685 3.99988C0.915685 3.91188 0.93311 3.82474 0.966956 3.7435C1.0008 3.66226 1.0504 3.58853 1.11288 3.52655Z" fill="#47474B"/>
</svg>
