<svg width="14" height="14" viewBox="0 0 14 14" fill="none" xmlns="http://www.w3.org/2000/svg">
<path d="M7.00065 6.33325C6.82384 6.33325 6.65427 6.40349 6.52925 6.52851C6.40423 6.65354 6.33399 6.82311 6.33399 6.99992V9.66659C6.33399 9.8434 6.40423 10.013 6.52925 10.138C6.65427 10.263 6.82384 10.3333 7.00065 10.3333C7.17747 10.3333 7.34703 10.263 7.47206 10.138C7.59708 10.013 7.66732 9.8434 7.66732 9.66659V6.99992C7.66732 6.82311 7.59708 6.65354 7.47206 6.52851C7.34703 6.40349 7.17747 6.33325 7.00065 6.33325ZM7.25399 3.71992C7.09168 3.65324 6.90963 3.65324 6.74732 3.71992C6.66549 3.75165 6.59072 3.79922 6.52732 3.85992C6.46843 3.92472 6.42108 3.99913 6.38732 4.07992C6.35 4.15904 6.33173 4.2458 6.33399 4.33325C6.33348 4.42099 6.3503 4.50796 6.38347 4.58919C6.41665 4.67041 6.46553 4.74429 6.52732 4.80659C6.59212 4.86547 6.66653 4.91282 6.74732 4.94659C6.84832 4.98808 6.95796 5.00413 7.06662 4.99333C7.17527 4.98252 7.27961 4.9452 7.37046 4.88463C7.46131 4.82406 7.5359 4.74211 7.58766 4.64597C7.63942 4.54982 7.66678 4.44244 7.66732 4.33325C7.66487 4.15674 7.59581 3.98767 7.47399 3.85992C7.41059 3.79922 7.33582 3.75165 7.25399 3.71992ZM7.00065 0.333252C5.68211 0.333252 4.39318 0.724245 3.29685 1.45679C2.20052 2.18933 1.34604 3.23052 0.841457 4.4487C0.336873 5.66687 0.204851 7.00731 0.462086 8.30052C0.71932 9.59373 1.35426 10.7816 2.28661 11.714C3.21896 12.6463 4.40685 13.2813 5.70005 13.5385C6.99326 13.7957 8.3337 13.6637 9.55188 13.1591C10.7701 12.6545 11.8112 11.8 12.5438 10.7037C13.2763 9.60739 13.6673 8.31846 13.6673 6.99992C13.6673 6.12444 13.4949 5.25753 13.1599 4.4487C12.8248 3.63986 12.3338 2.90493 11.7147 2.28587C11.0956 1.66682 10.3607 1.17575 9.55188 0.840722C8.74304 0.50569 7.87613 0.333252 7.00065 0.333252ZM7.00065 12.3333C5.94582 12.3333 4.91467 12.0205 4.03761 11.4344C3.16055 10.8484 2.47696 10.0154 2.0733 9.0409C1.66963 8.06636 1.56401 6.994 1.7698 5.95944C1.97559 4.92487 2.48354 3.97456 3.22942 3.22868C3.9753 2.4828 4.92561 1.97485 5.96017 1.76906C6.99474 1.56328 8.06709 1.66889 9.04163 2.07256C10.0162 2.47623 10.8491 3.15982 11.4352 4.03688C12.0212 4.91394 12.334 5.94509 12.334 6.99992C12.334 8.41441 11.7721 9.77096 10.7719 10.7712C9.7717 11.7713 8.41514 12.3333 7.00065 12.3333Z" fill="#696969"/>
</svg>
