<svg width="76" height="44" viewBox="0 0 76 44" fill="none" xmlns="http://www.w3.org/2000/svg">
<g clip-path="url(#clip0_268_5971)">
<mask id="mask0_268_5971" style="mask-type:luminance" maskUnits="userSpaceOnUse" x="0" y="0" width="76" height="44">
<path d="M0 0.564453H76V43.4362H0V0.564453Z" fill="white"/>
</mask>
<g mask="url(#mask0_268_5971)">
<mask id="mask1_268_5971" style="mask-type:luminance" maskUnits="userSpaceOnUse" x="0" y="0" width="77" height="43">
<path d="M0 0.564453H76.342V42.0302H0V0.564453Z" fill="white"/>
</mask>
<g mask="url(#mask1_268_5971)">
<path d="M10.4642 31.5841H2.41113L18.1811 2.99256C18.9996 1.48035 20.6404 0.564453 22.4245 0.564453H30.3333L14.4201 29.2934C14.0229 29.9913 13.4474 30.5711 12.7525 30.9735C12.0576 31.3758 11.2682 31.5862 10.4652 31.5832L10.4642 31.5841ZM56.2318 31.5841H63.2238C65.2018 31.5841 66.6487 29.843 66.2628 28.056L60.0883 0.564453H53.0953C51.1184 0.564453 49.6714 2.30563 50.0573 4.09163L56.2308 31.5841H56.2318Z" fill="black"/>
<path d="M44.7539 6.5665H33.9512L36.0246 2.85517C36.7963 1.43456 38.3397 0.564453 39.9795 0.564453H48.0813L44.7539 6.5665Z" fill="#B12925"/>
<path d="M48.6944 32H43.0304C40.7251 32 39.2383 29.664 40.2935 27.6961L41.2536 25.955H52.0065L48.6944 32ZM74.7605 6.99824H64.0076L67.3197 1H72.9837C75.2881 1 76.7759 3.33503 75.7207 5.30393L74.7605 6.99824ZM28.1488 32H20.1319L32.4686 9.60787H43.2215L32.133 29.7546C31.3649 31.0827 29.8286 31.999 28.1488 31.999V32ZM10.8193 6.99824H0.0664062L2.13028 3.28926C2.89841 1.86955 4.43468 1 6.06696 1H14.1314L10.8193 6.99824Z" fill="black"/>
<path d="M1.10882 36.8075H2.12215L1.20626 41.2058H4.1001L3.9062 42.0301H0L1.10882 36.8075ZM9.69292 41.7553C9.30805 41.5721 8.96995 41.2974 8.77703 40.9758C8.55937 40.6334 8.44253 40.2367 8.4399 39.8309C8.4399 39.2814 8.5841 38.7319 8.87349 38.2729C9.16287 37.815 9.54872 37.4486 10.0797 37.1739C10.6098 36.8991 11.1886 36.7607 11.8628 36.7607C12.3938 36.7607 12.8762 36.8523 13.262 37.0365C13.6478 37.2197 13.9859 37.4944 14.1779 37.815C14.3718 38.1365 14.516 38.5019 14.516 38.9608C14.516 39.5104 14.3718 40.0599 14.0824 40.5179C13.793 40.9758 13.4072 41.3432 12.8762 41.6179C12.3461 41.8927 11.7673 42.0301 11.0921 42.0301C10.5611 42.0301 10.1275 41.9385 9.69292 41.7553ZM12.3938 40.931C12.7319 40.7478 13.0213 40.4731 13.1655 40.1515C13.3585 39.831 13.4549 39.4646 13.4549 39.0524C13.4549 38.6393 13.3107 38.2729 13.0213 38.044C12.7319 37.7692 12.2974 37.6776 11.7673 37.6776C11.3328 37.6776 10.9469 37.7692 10.5611 37.9524C10.2239 38.1356 9.93456 38.4103 9.78938 38.7319C9.59744 39.0524 9.50097 39.4188 9.50097 39.8309C9.50097 40.2431 9.64518 40.6104 9.93456 40.8394C10.2239 41.1142 10.6575 41.2058 11.1886 41.2058C11.6709 41.2058 12.0557 41.1142 12.3938 40.931ZM23.1488 39.373H24.1134L23.6311 41.4347C23.3417 41.6179 23.0524 41.8011 22.6665 41.8927C22.3284 41.9843 21.9435 42.0759 21.5577 42.0759C21.0267 42.0759 20.5444 41.9843 20.1585 41.8011C19.7727 41.6179 19.4355 41.3432 19.2426 41.0216C19.001 40.702 18.9045 40.3347 18.9045 39.8767C18.9045 39.3272 19.0497 38.7777 19.3391 38.3187C19.6285 37.8608 20.0143 37.4944 20.5444 37.2197C21.0754 36.9449 21.6542 36.8075 22.3284 36.8075C22.8107 36.8075 23.2443 36.8991 23.6311 37.0365C24.017 37.1729 24.3064 37.4028 24.547 37.6776L23.8241 38.2272C23.6311 38.044 23.4382 37.8608 23.1966 37.7692C22.9182 37.6715 22.6244 37.6249 22.3294 37.6318C21.8471 37.6318 21.4612 37.7234 21.0754 37.9066C20.7373 38.0898 20.4479 38.3645 20.255 38.6861C20.0621 39.0066 19.9656 39.373 19.9656 39.7852C19.9656 40.1973 20.1108 40.5646 20.4002 40.7936C20.6895 41.0226 21.1231 41.16 21.7019 41.16C22.0877 41.16 22.4249 41.0684 22.763 40.931L23.1488 39.372V39.373ZM30.0931 36.8075H31.1064L29.9966 42.0301H28.9833L30.0931 36.8075ZM36.4118 41.8927C36.025 41.8011 35.7356 41.6179 35.4949 41.4805L35.9285 40.7478C36.1702 40.931 36.4108 41.0684 36.7489 41.16C37.0861 41.2516 37.3754 41.2974 37.7135 41.2974C38.0984 41.2974 38.4365 41.2516 38.6782 41.1142C38.9188 40.9768 39.0153 40.7926 39.0153 40.5646C39.0168 40.5036 39.0045 40.443 38.9794 40.3873C38.9543 40.3316 38.9169 40.2823 38.8701 40.2431C38.7736 40.1515 38.6294 40.1067 38.4843 40.0141C38.3401 39.9683 38.1471 39.9225 37.9065 39.8309C37.6128 39.7534 37.3231 39.6617 37.0383 39.5562C36.7967 39.4646 36.6525 39.3272 36.4595 39.144C36.3024 38.9493 36.217 38.7064 36.2179 38.4561C36.2179 38.1356 36.3153 37.8618 36.5073 37.586C36.7002 37.3571 36.9896 37.1281 37.3754 36.9907C37.7613 36.8533 38.1471 36.8075 38.6294 36.8075C38.9666 36.8075 39.3047 36.8533 39.6428 36.8991C39.9799 36.9907 40.2206 37.0823 40.4612 37.2197L40.0764 37.9524C39.8732 37.8141 39.6431 37.7204 39.4011 37.6776C39.1311 37.6218 38.8564 37.5911 38.5807 37.586C38.245 37.5792 37.913 37.658 37.6161 37.815C37.3754 37.9524 37.279 38.1365 37.279 38.3645C37.279 38.5019 37.3277 38.5945 37.4232 38.6861C37.5206 38.7777 37.6648 38.8225 37.809 38.9151C37.9542 38.9608 38.1471 39.0515 38.4365 39.0982C38.7736 39.1898 39.063 39.2814 39.3037 39.373C39.5453 39.4646 39.6905 39.602 39.8834 39.7394C40.0276 39.9225 40.1241 40.1515 40.1241 40.3805C40.1241 40.702 40.0276 41.0226 39.8347 41.2516C39.6418 41.4805 39.3524 41.7095 38.9675 41.8469C38.5807 41.9843 38.1949 42.0301 37.7126 42.0301C37.2748 42.0352 36.838 41.9894 36.4108 41.8937L36.4118 41.8927ZM46.779 37.6318H44.9472L45.1401 36.8075H49.817L49.6251 37.6318H47.7933L46.8764 42.0301H45.8144L46.779 37.6318ZM55.3153 36.8075H56.3287L55.2189 42.0301H54.2055L55.3153 36.8075ZM61.9702 41.7553C61.5844 41.5721 61.2472 41.2974 61.0543 40.9758C60.8366 40.6334 60.7198 40.2367 60.7172 39.8309C60.7172 39.2814 60.8614 38.7319 61.1508 38.2729C61.4402 37.815 61.826 37.4486 62.3561 37.1739C62.8871 36.8991 63.4658 36.7607 64.1411 36.7607C64.6234 36.7607 65.057 36.8523 65.3951 36.9907C65.7799 37.1271 66.0216 37.3571 66.2135 37.6318L65.4906 38.2272C65.2021 37.815 64.7198 37.6318 64.0446 37.6318C63.6101 37.6318 63.1765 37.7234 62.8384 37.9066C62.5012 38.0898 62.2118 38.3645 62.0189 38.6861C61.826 39.0066 61.7295 39.373 61.7295 39.7852C61.7295 40.1973 61.8737 40.5646 62.1631 40.7936C62.4525 41.0226 62.8871 41.16 63.4171 41.16C64.0446 41.16 64.5747 40.9768 64.9605 40.5646L65.5393 41.159C65.2864 41.4518 64.9497 41.66 64.5747 41.7553C64.1888 41.8927 63.7552 41.9385 63.3207 41.9385C62.8871 42.0301 62.4048 41.9385 61.9702 41.7553Z" fill="#B12925"/>
</g>
</g>
</g>
<defs>
<clipPath id="clip0_268_5971">
<rect width="76" height="44" fill="white"/>
</clipPath>
</defs>
</svg>
