<svg width="291" height="317" viewBox="0 0 291 317" fill="none" xmlns="http://www.w3.org/2000/svg">
<g clip-path="url(#clip0_2686_6984)">
<path d="M101.272 156.207C100.961 152.297 99.5981 148.327 97.4291 144.723C90.8598 133.85 86.3977 122.549 84.0426 116.013C83.9806 115.829 83.9186 115.585 83.8566 115.401C76.2343 133.361 74.5603 149.854 74.3132 152.786C77.2874 159.2 80.3865 164.637 83.2986 169.096C84.1652 170.413 85.0536 171.717 85.9637 173.006C92.0998 172.334 96.5 170.257 98.9171 166.836C100.838 164.148 101.644 160.605 101.272 156.207ZM126 24.3227C123.521 26.2162 119.679 29.4533 114.783 34.7071C110.506 39.3497 105.3 44.3581 101.272 48.085C113.172 44.4803 123.025 41.7321 125.194 41.121C125.132 36.295 125.256 30.5533 126 24.3227ZM76.7303 56.8814C79.1474 55.2934 82.5565 53.8277 87.2657 52.3619C87.6377 52.2397 87.9477 52.1175 88.3197 52.0563C87.8237 44.6035 86.3986 36.4182 84.8496 29.0876C83.2375 21.3912 81.4405 14.7328 80.3874 11.0059C71.2151 21.2069 67.62 33.67 67 36.1737C68.178 40.5108 69.7891 44.4812 71.4622 47.8415C73.0085 50.9689 74.7686 53.9891 76.7303 56.8814Z" fill="#9E9E9E" fill-opacity="0.2"/>
<path d="M53.9059 215.735C56.9782 217.329 76.8225 227.077 89.6628 218.556C102.196 210.341 95.1303 191.765 93.9634 188.883C91.5673 186.738 78.2353 174.047 67.4838 146.89C57.6543 122.122 48.4385 80.4341 57.1626 19.0059C57.1011 19.1899 57.0396 19.3125 56.9782 19.4965C51.6327 33.2896 44.1993 54.9926 39.0383 80.0048C31.0517 118.383 27.119 172.392 52.6161 213.651C53.0464 214.326 53.4766 215.061 53.9059 215.735Z" fill="#9E9E9E" fill-opacity="0.2"/>
<path d="M73.7376 90.9812C73.6168 89.6556 73.4901 88.3304 73.3576 87.0059L60 101.624C61.2034 110.125 62.9136 118.627 65.1918 127.006C68.8645 121.562 75.3835 109.024 73.7376 90.9812Z" fill="#9E9E9E" fill-opacity="0.2"/>
<path d="M75.6429 79.1994C76.0116 82.3863 76.4417 85.9402 76.8094 90.1684C78.8361 113.455 68.8255 127.855 66 131.471C67.4132 136.25 69.0098 140.969 70.8522 145.626C70.9136 145.749 70.9751 145.872 70.9751 145.994C72.1425 138.273 74.8441 125.404 80.9252 111.739C81.2938 110.943 81.6001 110.146 82.0302 109.349L84.2413 104.692L85.6535 109.594C85.715 109.778 90.8129 127.181 100.271 142.991C102.728 147.097 104.263 151.693 104.632 156.166C104.939 159.904 104.509 163.214 103.403 166.033C102.912 167.258 102.36 168.361 101.622 169.403C98.8583 173.324 94.3133 175.837 88.1718 176.94C90.8744 180.433 93.1468 182.946 94.6206 184.477C95.4193 185.274 95.9723 185.826 96.341 186.132C98.3677 186.745 108.194 189.441 116.362 188.093C118.45 187.726 120.355 187.174 122.075 186.193C129.138 182.21 129.751 175.96 129.751 173.57C126.128 171.425 115.81 162.968 124.409 139.744C124.47 139.499 124.593 139.254 124.654 139.008L124.776 138.702L124.961 138.457C125.083 138.273 126.742 136.434 129.628 134.412C131.795 132.892 134.148 131.657 136.63 130.736C146.642 108.736 129.138 93.3553 128.401 92.7423L127.356 91.884L127.786 90.5975C130.181 84.0406 129.628 74.9098 128.462 67.4956C127.356 60.387 125.759 54.9327 125.759 54.8101L125.698 54.6261C125.636 54.1979 124.961 50.6432 124.654 45.0059C123.425 45.3737 121.522 45.9245 118.942 46.6602C111.694 48.7446 99.8414 52.2975 87.9874 56.0352C73.4933 60.6322 73.8015 63.0835 75.6429 79.1994ZM95.4798 249.373H95.5413C101.806 250.475 108.316 249.802 109.36 249.679C112.984 248.576 115.748 246.431 117.774 244.225C118.88 243 119.74 241.774 120.476 240.671C121.152 239.568 121.705 238.526 122.074 237.729C115.809 235.462 109.913 237.362 105.183 240.426C100.823 243.245 97.3836 246.983 95.4798 249.373ZM248.962 164.992L248.9 165.236L248.778 165.481C248.716 165.542 248.103 166.83 247.058 169.036C242.82 178.044 232.318 202.494 232.318 221.92C232.318 228.905 233.423 234.85 235.757 240.119C239.995 249.679 239.627 260.035 234.836 268.553C231.212 274.926 225.439 279.338 219.236 280.38C216.779 282.28 203.39 293.31 198.109 305.872C197.372 307.588 196.634 309.611 195.837 311.756C195.05 313.844 194.252 315.927 193.441 318.006C197.556 317.148 201.671 315.677 205.724 313.716C207.075 313.042 208.427 312.368 209.778 311.633C229.738 300.48 247.488 279.154 250.559 267.45C252.34 260.648 253.568 253.662 254.551 246.615C255.718 237.791 256.455 228.966 257.131 220.203L261.307 167.81C262.105 157.944 262.965 146.791 259.219 137.231C255.043 126.508 252.156 121.666 243.496 113.026C250.867 130.797 252.709 148.446 248.962 164.992Z" fill="#9E9E9E" fill-opacity="0.2"/>
<path d="M131.081 57.7722C132.795 64.9549 135.674 80.179 132.428 90.8604C136.164 94.6048 149.146 109.584 141.859 129.658C144.546 129.186 147.284 129.062 150.003 129.29L151.106 129.413L151.596 130.394C151.78 130.763 156.066 139.848 151.535 148.074L151.106 148.872H151.045C151.29 150.038 151.412 151.267 151.412 152.494C151.412 160.107 147.248 166.061 141.92 166.061C138.98 166.061 137.082 164.527 135.919 162.868C135.368 164.404 134.939 166.122 134.632 168.025C134.388 169.437 134.266 170.911 134.143 172.445C134.266 173.428 134.449 177.418 132.367 181.715C131.02 184.478 128.631 187.424 124.651 189.695C120.977 191.782 116.445 192.458 112.098 192.458C107.198 192.458 102.422 191.598 99.298 190.862C100.316 193.929 100.994 197.099 101.32 200.315C102.3 210.076 99.2367 217.626 92.4402 222.108C88.3374 224.809 83.3156 226.16 77.6199 226.16C74.0685 226.16 70.272 225.607 66.2305 224.563C62.2102 223.488 58.2953 222.05 54.5337 220.266C53.6148 222.845 52.2066 224.748 50.7372 226.222C49.6957 227.265 48.6542 228.124 47.6137 228.922C44.1235 231.685 42.164 233.219 44.8578 240.095C45.8992 241.016 49.3282 243.901 53.1256 245.313L51.7778 248.934C48.5327 247.769 45.5317 245.681 43.7559 244.207L41 248.996C42.4091 250.776 43.9397 252.311 45.4704 253.661C56.677 263.545 70.3333 264.036 71.8639 264.036C87.2346 261.519 93.1744 263.116 98.38 264.589C101.504 265.448 104.259 266.246 108.79 265.939C119.384 265.325 129.673 257.099 131.816 255.257C131.877 255.012 131.939 254.767 132.061 254.521C134.327 246.11 133.347 233.219 132.979 229.168C125.264 227.203 114.363 227.203 114.241 227.203V223.336C114.731 223.336 127.039 223.336 135.306 225.792L136.532 226.16L136.653 227.449C136.653 227.572 136.714 228.002 136.776 228.676C137.021 231.009 137.45 236.289 137.327 242.12C146.513 225.607 161.393 214.619 164.027 212.716C182.704 179.137 173.335 149.731 166.538 128.246C165.374 124.624 164.333 121.247 163.475 118.117C162.251 113.636 161.516 109.646 161.7 106.269C162.741 85.7045 156.678 68.3932 153.862 61.578C151.657 64.7092 149.453 67.6562 147.432 70.1118L146.39 71.3401L144.982 70.5417C144.492 70.2346 132.918 63.4205 136.103 55.7465C140.879 44.3896 142.778 22.8426 143.084 18.6069L143.206 17.2557L146.207 16.4583L147.003 17.5638C148.595 19.8966 153.984 27.7538 156.128 32.358L154.596 33.0336L152.575 33.9539C151.963 32.6027 150.983 30.885 149.819 28.9812C148.779 27.3239 147.676 25.4824 146.513 23.7024C145.655 32.0509 143.634 47.8278 139.654 57.159C138.307 60.2893 142.655 64.2179 145.533 66.1822C146.88 64.4636 148.289 62.5607 149.759 60.5964C151.904 57.5706 153.987 54.5005 156.005 51.388C160.781 44.1449 164.823 37.3307 166.231 34.9979C161.884 25.7895 155.883 18.1155 150.248 12.2226C144.37 6.084 138.919 1.97112 136.164 0.00585938C125.631 24.9911 129.979 51.8793 130.284 53.6594C130.223 54.2735 130.591 55.6851 131.081 57.7722ZM120.303 233.526C122.201 233.833 124.1 234.447 125.998 235.368L127.529 236.105L127.039 237.7C126.856 238.192 123.059 250.286 110.995 253.907L110.688 253.969C110.505 253.969 107.688 254.337 103.952 254.337C100.523 254.337 96.298 254.03 92.3177 252.925L89.7446 252.189L91.2149 249.979C91.2762 249.917 91.7663 249.119 92.6853 247.953C94.3384 245.804 97.2782 242.366 101.196 239.297C107.505 234.447 113.996 232.483 120.303 233.526ZM153.923 167.718L156.678 170.419C155.485 171.624 154.217 172.751 152.882 173.795C149.269 176.681 145.655 178.891 145.41 179.014L144.676 179.505L136.959 176.988L138.185 173.305L144.186 175.269C145.821 174.227 147.414 173.121 148.962 171.954C150.616 170.665 152.453 169.192 153.923 167.718Z" fill="#9E9E9E" fill-opacity="0.2"/>
<path d="M147.83 133.029C141.93 132.784 137.185 134.558 133.839 136.516C130.737 138.29 128.791 140.248 128.182 140.921C123.073 154.627 125.02 162.336 127.756 166.436C128.38 167.378 129.116 168.241 129.946 169.006C131.163 158.788 135.725 152.913 139.557 149.793C142.963 146.979 146.248 145.816 147.89 145.388C150.019 140.554 148.56 135.23 147.83 133.029Z" fill="#9E9E9E" fill-opacity="0.2"/>
<path d="M138.36 156.774C138.114 157.144 137.806 157.575 137.559 158.006C138.853 161.328 140.208 161.759 141.564 161.759C142.549 161.759 143.536 161.267 144.336 160.467C144.028 160.529 143.782 160.529 143.474 160.529C141.379 160.59 139.531 159.113 138.36 156.774ZM77 267.052C81.1275 269.329 87.2273 272.344 92.0935 273.391C96.406 274.314 100.657 271.914 103.491 269.699C100.903 269.452 98.8087 268.898 96.6525 268.283C92.4633 267.114 87.7204 265.821 77 267.052ZM146 150.006C144.277 150.896 142.681 152.014 141.256 153.328C141.749 155.482 142.858 156.652 143.474 156.652C144.459 156.652 146 154.314 146 150.805V150.006ZM117.722 337.576C118.585 335.668 121.172 329.698 123.02 321.822C113.471 318.56 108.173 309.329 106.879 306.745C103.983 305.39 101.211 303.852 98.6238 302.314C99.2619 306.112 100.189 309.857 101.396 313.514C103.306 314.621 108.912 318.007 113.409 321.76L113.779 322.068L113.964 322.56C114.149 322.991 117.045 330.868 116.798 338.006C117.167 337.883 117.413 337.699 117.722 337.576Z" fill="#9E9E9E" fill-opacity="0.2"/>
<path d="M152.694 382.775C154.469 383.204 155.753 384.553 156.61 386.76C157.343 382.1 156.854 376.336 156.487 373.209C152.817 374.436 148.168 375.6 142.786 375.968L142.296 376.03L141.868 375.846C141.806 375.846 135.078 372.903 128.106 372.78V371.86L128.167 368.855C134.895 368.978 141.195 371.369 142.969 372.044C143.89 371.979 144.809 371.877 145.722 371.737C154.469 370.573 160.769 367.322 162.298 366.526C168.537 357.144 171.473 349.233 172.819 344.695C170.739 345.738 168.476 346.536 165.968 347.087C165.845 347.087 165.723 347.148 165.662 347.148C164.5 347.394 163.277 347.516 162.053 347.516C158.873 347.516 155.569 346.841 151.839 346.045C150.615 345.8 149.269 345.493 147.924 345.247L148.657 341.446C150.004 341.691 151.349 341.998 152.633 342.243C157.343 343.224 161.441 344.083 164.867 343.347C167.641 342.775 170.305 341.761 172.758 340.342C183.707 334.026 188.661 320.72 192.454 310.48C193.183 308.459 193.958 306.455 194.778 304.47C200.406 291.164 213.862 279.943 216.86 277.551C217.227 275.589 218.083 268.844 215.331 260.259C215.073 259.432 214.787 258.614 214.474 257.806C212.15 256.274 201.507 249.467 189.396 245.911L190.496 242.17C204.749 246.339 216.676 254.557 217.166 254.924L217.655 255.231L217.9 255.783C218.541 257.407 219.093 259.065 219.551 260.75C221.386 267.434 221.325 272.891 221.019 276.08C225.178 274.669 229.032 271.358 231.601 266.759C234.231 261.976 235.333 256.58 234.782 251.061C234.465 247.844 233.639 244.697 232.335 241.74C229.766 235.977 228.543 229.477 228.543 221.996C228.543 197.653 243.651 167.115 245.242 163.988C252.154 132.96 237.412 104.202 223.221 85.0693C212.394 70.4152 201.874 61.3399 201.629 61.1558L201.201 60.7878L201.017 60.297C196.613 47.7268 187.988 30.803 171.779 21.7889C167.823 19.5651 163.554 17.9526 159.117 17.0059C163.032 22.0343 166.824 27.8593 169.883 34.4818L170.311 35.402L169.822 36.2608C169.455 36.8733 163.155 47.6041 156.181 57.9055C156.976 59.5618 158.506 63.1179 160.096 68.1455C162.971 77.1595 166.09 90.8339 165.296 106.532C165.051 111.622 167.314 118.796 170.005 127.135C176.672 148.106 186.765 179.809 167.008 214.945L166.763 215.313L166.396 215.557C166.151 215.741 142.663 232.114 135.629 255.292C135.506 255.783 135.384 256.274 135.2 256.764L135.078 257.254L134.65 257.622C134.161 258.052 122.6 268.476 109.694 269.58C107.859 271.542 101.803 277.367 94.6464 277.367C93.7285 277.367 92.8106 277.244 91.8324 277.06C83.8809 275.282 73.6041 269.151 71.3418 267.741C70.8522 267.741 70.0567 267.679 69.0785 267.618C62.7774 267.004 47.67 264.122 37.0881 250.203L36.2926 249.16L40.9405 240.944C37.5155 231.684 41.3689 228.679 45.1008 225.737C47.4864 223.836 49.9935 221.874 51.095 217.703C41.125 202.312 35.3135 185.082 32.3771 167.483C30.7258 172.573 28.7685 179.747 27.9118 186.799L27.8515 187.228L27.6068 187.596C27.4844 187.78 13.9049 208.383 10.5402 216.661C8.46051 221.69 12.8656 226.717 15.6174 229.232C16.8413 226.656 19.2872 222.793 23.8137 220.217L25.7097 223.591C25.0375 223.959 24.4256 224.387 23.8137 224.878C20.0827 227.822 18.6762 231.746 18.3702 232.727C18.4314 234.873 18.9821 248.67 22.5907 255.599C23.0803 256.58 23.5698 257.806 24.0594 259.216C27.668 269.887 30.175 291.41 30.175 300.669C30.175 306.249 45.9565 309.682 58.0683 310.48C58.6181 310.541 59.1698 310.541 59.7196 310.602L59.536 314.465C59.2912 314.465 54.6424 314.22 48.8929 313.362C53.4806 319.248 61.7993 330.838 64.9192 342.059C66.6929 342.795 75.5623 346.168 91.7712 344.451L92.1996 348.314C88.7134 348.682 85.5934 348.866 82.7192 348.866C74.3384 348.866 68.7104 347.516 65.5914 346.536V350.46C66.8153 350.521 68.4666 350.705 70.3015 351.44C72.9931 352.483 76.4181 354.752 79.2321 359.719C80.8834 356.04 83.8197 351.44 88.7125 350.153C93.2399 348.927 98.3162 350.951 103.822 355.978C104.005 354.691 104.128 353.464 104.372 352.115L104.433 351.747L104.616 351.44C104.739 351.196 106.88 347.578 110 343.899C110.869 342.893 111.788 341.931 112.752 341.016C114.465 335.375 111.59 326.361 110.856 324.215C108.654 322.376 106.146 320.597 104.005 319.248C105.106 321.885 106.391 324.645 107.981 327.403L104.616 329.305C96.5425 314.772 95.0748 302.14 94.83 299.442C81.3729 290.367 73.4214 280.433 72.9931 279.881L75.5623 277.858L75.9907 277.49C76.113 277.674 89.0796 293.862 109.449 303.305L110.122 303.612L110.428 304.286C110.489 304.409 115.138 314.404 124.068 317.777C125.108 312.196 125.597 306.003 124.924 299.749L124.802 298.89C122.722 279.513 121.193 265.533 156.549 246.217L158.139 249.222L158.322 249.528L158.383 249.651C125.292 267.741 126.514 279.329 128.594 298.523L128.717 299.381C129.267 304.532 129.084 309.56 128.472 314.281C126.82 327.281 122.049 337.644 121.193 339.422C120.826 341.262 118.808 351.44 114.954 355.917L112.018 353.404C113.914 351.135 115.443 346.536 116.422 342.856C112.691 345.922 109.388 350.767 107.981 353.097C106.941 359.597 106.696 364.747 106.941 368.795C111.528 367.936 115.016 368.672 117.34 371.063C120.398 374.19 120.398 379.28 119.97 382.775L120.887 382.407C125.903 380.567 133.977 378.421 139.298 381.549C141.318 382.775 142.786 384.553 143.581 387.006C146.088 384.553 149.514 381.977 152.694 382.775ZM134.1 345.125C149.453 350.705 159.79 350.583 159.912 350.583V351.809L159.974 354.445H159.729C159.423 354.445 158.873 354.445 158.016 354.384C154.224 354.2 145.049 353.22 132.753 348.743L134.1 345.125Z" fill="#9E9E9E" fill-opacity="0.2"/>
<path d="M281.907 269.647C273.932 236.38 276.019 217.179 277.552 203.115C278.472 194.676 279.208 188.071 277.307 181.344C274.239 170.521 269.7 162.081 266.511 157.006C266.45 161.348 266.143 165.567 265.836 169.664L261.665 221.949C260.377 237.788 259.089 254.115 254.979 269.708C254.366 272.032 253.201 274.784 251.545 277.72C242.098 294.842 216.888 319.853 192.292 323.4C189.041 330.554 184.624 337.893 177.877 342.847C177.326 345.842 174.811 356.361 165.61 369.997L165.365 370.365L164.996 370.609C164.812 370.67 163.218 371.649 160.519 372.75C160.948 376.235 161.869 384.675 160.273 390.667L160.028 391.584L159.108 391.951C158.924 392.012 155.489 393.419 148.925 393.847C146.901 398.433 145.736 402.286 145 405.466C145.437 405.162 145.911 404.915 146.411 404.732C149.723 403.509 153.955 405.343 159.354 410.236C161.255 411.948 162.911 413.721 164.077 415.006C167.941 408.401 171.989 404.243 176.099 402.53C177.647 401.869 179.322 401.556 181.006 401.613C187.753 401.981 192.782 408.585 195.604 413.415C197.077 408.34 199.224 405.772 202.106 405.343C204.805 404.976 207.443 406.872 209.528 409.257C207.197 402.775 202.597 398.861 202.535 398.8L202.167 398.494L201.983 398.066C201.86 397.761 188.305 365.045 221.121 341.745C231.855 334.102 240.258 325.724 246.699 318.08C257.187 305.483 262.279 294.781 263.444 292.151C262.77 290.256 260.316 284.629 255.102 280.471L256.39 278.881L257.494 277.475C262.402 281.389 265.101 286.342 266.388 289.277C273.013 284.385 278.901 276.496 281.232 273.134C281.907 272.155 282.152 270.871 281.907 269.647ZM178.061 384.43C177.448 384.491 176.774 384.491 176.099 384.491C173.399 384.491 170.456 384.185 167.266 383.268L168.309 379.538C168.615 379.599 168.922 379.721 169.229 379.782C180.576 382.534 188.611 377.52 188.734 377.458L190.819 380.699C190.514 380.883 185.668 383.94 178.061 384.43ZM195.236 376.235L190.145 373.973C187.999 375.135 182.355 377.887 175.73 377.887H174.872C171.989 377.764 168.922 377.153 165.855 375.624L167.573 372.138C167.818 372.26 168.064 372.382 168.309 372.444C178.245 376.847 188.857 370.242 188.979 370.181L189.839 369.63L196.77 372.75L195.236 376.235Z" fill="#9E9E9E" fill-opacity="0.2"/>
</g>
<defs>
<clipPath id="clip0_2686_6984">
<rect width="291" height="316" fill="white" transform="translate(0 0.00585938)"/>
</clipPath>
</defs>
</svg>
