<svg width="14" height="14" viewBox="0 0 14 14" fill="none" xmlns="http://www.w3.org/2000/svg">
<path d="M13.4268 7.66644C13.3305 7.5869 13.2139 7.53598 13.0901 7.51948C12.9664 7.50297 12.8405 7.52156 12.7268 7.57311C12.0218 7.8957 11.2553 8.06173 10.4801 8.05978C9.04599 8.05804 7.67074 7.4894 6.65418 6.47784C5.63763 5.46628 5.06222 4.09385 5.05342 2.65978C5.05646 2.21033 5.1124 1.76281 5.22009 1.32644C5.24294 1.21013 5.23437 1.08984 5.19526 0.977945C5.15615 0.866052 5.08792 0.76661 4.99759 0.689863C4.90725 0.613116 4.7981 0.561841 4.68136 0.541318C4.56461 0.520796 4.44451 0.53177 4.33342 0.573109C3.28831 1.04305 2.3798 1.77095 1.69326 2.68843C1.00672 3.60591 0.564677 4.68286 0.408656 5.8181C0.252636 6.95334 0.387761 8.10961 0.801337 9.17828C1.21491 10.247 1.89337 11.193 2.77296 11.9274C3.65255 12.6619 4.70441 13.1607 5.82972 13.377C6.95503 13.5933 8.11686 13.52 9.20606 13.1639C10.2953 12.8079 11.2761 12.1808 12.0564 11.3416C12.8366 10.5024 13.3908 9.47863 13.6668 8.36644C13.7004 8.23911 13.6955 8.10467 13.6528 7.98009C13.6101 7.85551 13.5314 7.74637 13.4268 7.66644ZM7.09342 12.1264C5.9746 12.1185 4.88556 11.765 3.97542 11.1143C3.06528 10.4635 2.37853 9.54734 2.00921 8.49119C1.63989 7.43505 1.60605 6.29057 1.91232 5.21445C2.21859 4.13832 2.84999 3.18317 3.72009 2.47978V2.65978C3.72186 4.4521 4.43463 6.1705 5.702 7.43787C6.96936 8.70523 8.68777 9.41801 10.4801 9.41978C10.9507 9.4215 11.4201 9.37233 11.8801 9.27311C11.42 10.1435 10.7311 10.8717 9.88753 11.3792C9.04399 11.8867 8.07788 12.1543 7.09342 12.1531V12.1264Z" fill="#333338"/>
</svg>
