<svg width="15" height="15" viewBox="0 0 15 15" fill="none" xmlns="http://www.w3.org/2000/svg">
<path d="M1.12533 6.79199C0.985231 6.79199 0.848282 6.83354 0.731797 6.91137C0.615312 6.9892 0.524523 7.09983 0.470911 7.22926C0.417299 7.35869 0.403272 7.50111 0.430603 7.63851C0.457934 7.77592 0.525396 7.90213 0.624459 8.00119C0.723521 8.10026 0.849734 8.16772 0.987137 8.19505C1.12454 8.22238 1.26696 8.20835 1.39639 8.15474C1.52582 8.10113 1.63645 8.01034 1.71428 7.89386C1.79212 7.77737 1.83366 7.64042 1.83366 7.50033C1.83366 7.31246 1.75903 7.1323 1.62619 6.99946C1.49336 6.86662 1.31319 6.79199 1.12533 6.79199ZM2.49241 11.5095C2.39293 11.6084 2.32504 11.7346 2.29737 11.8721C2.2697 12.0096 2.28348 12.1523 2.33697 12.2819C2.39046 12.4116 2.48124 12.5225 2.59782 12.6005C2.71439 12.6785 2.85151 12.7202 2.99178 12.7202C3.13206 12.7202 3.26918 12.6785 3.38575 12.6005C3.50233 12.5225 3.59311 12.4116 3.6466 12.2819C3.70009 12.1523 3.71387 12.0096 3.6862 11.8721C3.65852 11.7346 3.59064 11.6084 3.49116 11.5095C3.35844 11.3776 3.17892 11.3035 2.99178 11.3035C2.80465 11.3035 2.62512 11.3776 2.49241 11.5095ZM3.49116 3.49116C3.59064 3.39227 3.65852 3.26606 3.6862 3.12854C3.71387 2.99102 3.70009 2.84839 3.6466 2.71871C3.59311 2.58903 3.50233 2.47816 3.38575 2.40014C3.26918 2.32212 3.13206 2.28047 2.99178 2.28047C2.85151 2.28047 2.71439 2.32212 2.59782 2.40014C2.48124 2.47816 2.39046 2.58903 2.33697 2.71871C2.28348 2.84839 2.2697 2.99102 2.29737 3.12854C2.32504 3.26606 2.39293 3.39227 2.49241 3.49116C2.62512 3.62309 2.80465 3.69714 2.99178 3.69714C3.17892 3.69714 3.35844 3.62309 3.49116 3.49116ZM7.50033 1.83366C7.64042 1.83366 7.77737 1.79212 7.89386 1.71428C8.01034 1.63645 8.10113 1.52582 8.15474 1.39639C8.20835 1.26696 8.22238 1.12454 8.19505 0.987137C8.16772 0.849734 8.10026 0.723521 8.00119 0.624459C7.90213 0.525396 7.77592 0.457934 7.63852 0.430603C7.50111 0.403272 7.35869 0.417299 7.22926 0.470911C7.09983 0.524523 6.9892 0.615312 6.91137 0.731797C6.83354 0.848282 6.79199 0.985231 6.79199 1.12533C6.79199 1.31319 6.86662 1.49336 6.99946 1.62619C7.1323 1.75903 7.31246 1.83366 7.50033 1.83366ZM11.5095 11.5095C11.41 11.6084 11.3421 11.7346 11.3145 11.8721C11.2868 12.0096 11.3006 12.1523 11.3541 12.2819C11.4075 12.4116 11.4983 12.5225 11.6149 12.6005C11.7315 12.6785 11.8686 12.7202 12.0089 12.7202C12.1491 12.7202 12.2863 12.6785 12.4028 12.6005C12.5194 12.5225 12.6102 12.4116 12.6637 12.2819C12.7172 12.1523 12.731 12.0096 12.7033 11.8721C12.6756 11.7346 12.6077 11.6084 12.5082 11.5095C12.3755 11.3776 12.196 11.3035 12.0089 11.3035C11.8217 11.3035 11.6422 11.3776 11.5095 11.5095ZM13.8753 6.79199C13.7352 6.79199 13.5983 6.83354 13.4818 6.91137C13.3653 6.9892 13.2745 7.09983 13.2209 7.22926C13.1673 7.35869 13.1533 7.50111 13.1806 7.63851C13.2079 7.77592 13.2754 7.90213 13.3745 8.00119C13.4735 8.10026 13.5997 8.16772 13.7371 8.19505C13.8745 8.22238 14.017 8.20835 14.1464 8.15474C14.2758 8.10113 14.3865 8.01034 14.4643 7.89386C14.5421 7.77737 14.5837 7.64042 14.5837 7.50033C14.5837 7.31246 14.509 7.1323 14.3762 6.99946C14.2434 6.86662 14.0632 6.79199 13.8753 6.79199ZM11.5095 2.49241C11.41 2.5913 11.3421 2.71751 11.3145 2.85503C11.2868 2.99254 11.3006 3.13518 11.3541 3.26486C11.4075 3.39453 11.4983 3.50541 11.6149 3.58343C11.7315 3.66145 11.8686 3.7031 12.0089 3.7031C12.1491 3.7031 12.2863 3.66145 12.4028 3.58343C12.5194 3.50541 12.6102 3.39453 12.6637 3.26486C12.7172 3.13518 12.731 2.99254 12.7033 2.85503C12.6756 2.71751 12.6077 2.5913 12.5082 2.49241C12.3755 2.36048 12.196 2.28643 12.0089 2.28643C11.8217 2.28643 11.6422 2.36048 11.5095 2.49241ZM7.50033 13.167C7.36023 13.167 7.22328 13.2085 7.1068 13.2864C6.99031 13.3642 6.89952 13.4748 6.84591 13.6043C6.7923 13.7337 6.77827 13.8761 6.8056 14.0135C6.83293 14.1509 6.9004 14.2771 6.99946 14.3762C7.09852 14.4753 7.22473 14.5427 7.36214 14.57C7.49954 14.5974 7.64196 14.5834 7.77139 14.5297C7.90083 14.4761 8.01145 14.3853 8.08928 14.2689C8.16712 14.1524 8.20866 14.0154 8.20866 13.8753C8.20866 13.6875 8.13403 13.5073 8.00119 13.3745C7.86836 13.2416 7.68819 13.167 7.50033 13.167ZM7.50033 3.25033C6.65976 3.25033 5.83806 3.49958 5.13915 3.96658C4.44024 4.43358 3.89551 5.09734 3.57384 5.87392C3.25217 6.65051 3.168 7.50504 3.33199 8.32946C3.49598 9.15388 3.90075 9.91116 4.49512 10.5055C5.0895 11.0999 5.84677 11.5047 6.67119 11.6687C7.49561 11.8327 8.35015 11.7485 9.12673 11.4268C9.90332 11.1051 10.5671 10.5604 11.0341 9.8615C11.5011 9.16259 11.7503 8.3409 11.7503 7.50033C11.7503 6.37316 11.3026 5.29215 10.5055 4.49512C9.7085 3.69809 8.6275 3.25033 7.50033 3.25033ZM7.50033 10.3337C6.93995 10.3337 6.39215 10.1675 5.92621 9.85616C5.46027 9.54483 5.09712 9.10232 4.88267 8.5846C4.66822 8.06687 4.61211 7.49718 4.72143 6.94757C4.83076 6.39796 5.10061 5.89311 5.49686 5.49686C5.89311 5.10061 6.39796 4.83076 6.94757 4.72143C7.49718 4.61211 8.06687 4.66822 8.5846 4.88267C9.10232 5.09712 9.54483 5.46027 9.85616 5.92621C10.1675 6.39215 10.3337 6.93995 10.3337 7.50033C10.3337 8.25177 10.0351 8.97244 9.5038 9.5038C8.97244 10.0351 8.25177 10.3337 7.50033 10.3337Z" fill="#1B1B1F"/>
</svg>
