<svg width="48" height="45" viewBox="0 0 48 45" fill="none" xmlns="http://www.w3.org/2000/svg">
<path d="M24 41C35.0457 41 44 32.0457 44 21C44 9.9543 35.0457 1 24 1C12.9543 1 4 9.9543 4 21C4 32.0457 12.9543 41 24 41Z" stroke="#5C5C5C" stroke-linecap="round" stroke-linejoin="round"/>
<path d="M10.7826 25.6168V35.5625M37.2174 35.5625V25.6168M26.4348 18.4429V40.501M26.4348 18.4429H36.5327C36.9454 18.4429 37.3157 18.6965 37.465 19.0813L39.4719 24.2552C39.7261 24.9106 39.2425 25.6168 38.5395 25.6168H29.5862C29.1578 25.6168 28.7769 25.3439 28.6392 24.9382L26.4348 18.4429ZM26.4348 18.4429H11.4673C11.0546 18.4429 10.6843 18.6965 10.535 19.0813L8.52815 24.2552C8.27393 24.9106 8.75748 25.6168 9.46047 25.6168H23.2834C23.7118 25.6168 24.0926 25.3439 24.2303 24.9382L26.4348 18.4429ZM18.7826 35.7255H23.3043M17.0435 10.9429L20.1739 15.1821M24 9.3125V14.5299M30.9565 10.9429L27.8261 15.1821" stroke="#5C5C5C" stroke-linecap="round"/>
</svg>
