<svg width="49" height="48" viewBox="0 0 49 48" fill="none" xmlns="http://www.w3.org/2000/svg">
<path d="M24.5 44C35.5457 44 44.5 35.0457 44.5 24C44.5 12.9543 35.5457 4 24.5 4C13.4543 4 4.5 12.9543 4.5 24C4.5 35.0457 13.4543 44 24.5 44Z" stroke="#5C5C5C" stroke-linecap="round" stroke-linejoin="round"/>
<path d="M34.5998 16.8008H14.6031C13.2226 16.8008 12.1035 17.8753 12.1035 19.2008V31.2008C12.1035 32.5263 13.2226 33.6008 14.6031 33.6008H34.5998C35.9803 33.6008 37.0994 32.5263 37.0994 31.2008V19.2008C37.0994 17.8753 35.9803 16.8008 34.5998 16.8008Z" stroke="#5C5C5C" stroke-linecap="round" stroke-linejoin="round"/>
<path d="M12 21L24.4979 24L36.9959 21" stroke="#5C5C5C"/>
<path d="M18.3535 16.5V13C18.3535 12.4477 18.8012 12 19.3535 12H29.8514C30.4037 12 30.8514 12.4477 30.8514 13V16.8" stroke="#5C5C5C"/>
</svg>
