<svg width="48" height="48" viewBox="0 0 48 48" fill="none" xmlns="http://www.w3.org/2000/svg">
<path d="M23.8691 41C34.9148 41 43.8691 32.0457 43.8691 21C43.8691 9.9543 34.9148 1 23.8691 1C12.8234 1 3.86914 9.9543 3.86914 21C3.86914 32.0457 12.8234 41 23.8691 41Z" stroke="#5C5C5C" stroke-linecap="round" stroke-linejoin="round"/>
<path d="M25.8953 21.7762L30.5056 26.3865C31.3099 27.1908 31.3106 28.4946 30.507 29.2997V29.2997C29.7024 30.1058 28.3964 30.1065 27.591 29.3011L22.1753 23.8853" stroke="#5C5C5C" stroke-linecap="round"/>
<path d="M25.416 15.709L32.8136 23.1066C33.6515 23.9445 33.6515 25.3029 32.8136 26.1408V26.1408C32.6947 26.2597 32.5633 26.3658 32.4096 26.434C32.0272 26.6039 31.2271 26.854 30.5616 26.3668" stroke="#5C5C5C" stroke-linecap="round"/>
<path d="M22.1758 29.459L24.3807 31.5381C25.1217 32.2368 26.284 32.2198 27.0041 31.4996V31.4996C27.2169 31.2868 27.3797 31.0266 27.4316 30.7302C27.5073 30.2976 27.5563 29.633 27.2936 29.1203" stroke="#5C5C5C" stroke-linecap="round"/>
<path d="M22.9836 30.2676C23.3878 32.2887 21.205 34.4714 18.9414 31.8844" stroke="#5C5C5C" stroke-linecap="round"/>
<rect x="16.0547" y="31.1263" width="5.28106" height="2.13518" rx="1.06759" transform="rotate(-45.8423 16.0547 31.1263)" stroke="#5C5C5C"/>
<rect x="13.1719" y="29.9466" width="6.52725" height="2.41725" rx="1.20863" transform="rotate(-45.8423 13.1719 29.9466)" stroke="#5C5C5C"/>
<rect x="12.127" y="27.3978" width="5.37976" height="2.31959" rx="1.1598" transform="rotate(-45.8423 12.127 27.3978)" stroke="#5C5C5C"/>
<rect x="10.791" y="25.0365" width="4.68314" height="2.06265" rx="1.03132" transform="rotate(-45.8423 10.791 25.0365)" stroke="#5C5C5C"/>
<path d="M3.8689 23.0002L7.33319 24.2606C8.43023 24.6597 9.6345 24.0383 9.94495 22.913L12.8931 12.2261C13.1639 11.2442 12.6536 10.2156 11.7079 9.8373L8.36879 8.50166" stroke="#5C5C5C"/>
<path d="M43.8677 23L40.8698 24.1841C39.7639 24.6209 38.5233 24.0021 38.2071 22.8558L35.275 12.2269C35.0041 11.245 35.5144 10.2163 36.4602 9.83804L39.7993 8.50241" stroke="#5C5C5C"/>
<circle cx="6.81609" cy="20.9704" r="1.11687" stroke="#5C5C5C"/>
<circle cx="38.3454" cy="12.8864" r="1.11687" stroke="#5C5C5C"/>
<path d="M13.2832 12.078C14.2264 11.9433 16.1127 11.6738 19.3465 11.6738" stroke="#5C5C5C" stroke-linecap="round"/>
<path d="M10.0488 22.9922L11.2615 24.2048" stroke="#5C5C5C" stroke-linecap="round"/>
<path d="M34.8682 12L31.0684 13.2908" stroke="#5C5C5C" stroke-linecap="round"/>
<path d="M33.4941 24.6091C34.0331 24.7439 36.2518 24.7127 37.8687 23.5" stroke="#5C5C5C" stroke-linecap="round"/>
<path d="M31.0693 13.2905C30.0245 12.5939 28.6796 11.2973 24.708 10.6931C23.3038 10.4795 21.8302 10.5 20.5624 11.1405C18.9944 11.9328 17.4386 13.3482 16.2819 15.3869C15.8676 16.117 15.6233 17.0005 15.9916 17.7549C16.6528 19.1088 18.3792 19.7668 20.1554 17.7369C21.0986 16.3895 23.47 14.0989 25.4102 15.7158" stroke="#5C5C5C" stroke-linecap="round"/>
</svg>
