<svg width="48" height="44" viewBox="0 0 48 44" fill="none" xmlns="http://www.w3.org/2000/svg">
<path d="M17 43C17 40.5093 16.1571 38.5119 14.6569 36.7506C13.1566 34.9894 11.1217 34 9 34C6.87827 34 4.84344 34.9894 3.34315 36.7506C1.84285 38.5119 1 40.5093 1 43" stroke="#5C5C5C" stroke-linecap="round" stroke-linejoin="round"/>
<path d="M47 43C47 40.5093 46.1571 38.5119 44.6569 36.7506C43.1566 34.9894 41.1217 34 39 34C36.8783 34 34.8434 34.9894 33.3431 36.7506C31.8429 38.5119 31 40.5093 31 43" stroke="#5C5C5C" stroke-linecap="round" stroke-linejoin="round"/>
<path d="M32 20C32 17.5093 31.1571 15.5119 29.6569 13.7506C28.1566 11.9894 26.1217 11 24 11C21.8783 11 19.8434 11.9894 18.3431 13.7506C16.8429 15.5119 16 17.5093 16 20" stroke="#5C5C5C" stroke-linecap="round" stroke-linejoin="round"/>
<path d="M9 34C11.7614 34 14 31.7614 14 29C14 26.2386 11.7614 24 9 24C6.23858 24 4 26.2386 4 29C4 31.7614 6.23858 34 9 34Z" stroke="#5C5C5C" stroke-linecap="round" stroke-linejoin="round"/>
<path d="M39 34C41.7614 34 44 31.7614 44 29C44 26.2386 41.7614 24 39 24C36.2386 24 34 26.2386 34 29C34 31.7614 36.2386 34 39 34Z" stroke="#5C5C5C" stroke-linecap="round" stroke-linejoin="round"/>
<path d="M24 11C26.7614 11 29 8.76142 29 6C29 3.23858 26.7614 1 24 1C21.2386 1 19 3.23858 19 6C19 8.76142 21.2386 11 24 11Z" stroke="#5C5C5C" stroke-linecap="round" stroke-linejoin="round"/>
<path d="M7 18.5C7.33333 16.5 9 11 14.5 7.5" stroke="#5C5C5C" stroke-linecap="round"/>
<path d="M41.5 19C41.1667 17 39.5 11.5 34 8" stroke="#5C5C5C" stroke-linecap="round"/>
<path d="M18.9999 38.5002C20.2569 39.1064 25.012 40.0729 29.1629 38.3688" stroke="#5C5C5C" stroke-linecap="round"/>
</svg>
