<svg width="54" height="55" viewBox="0 0 54 55" fill="none" xmlns="http://www.w3.org/2000/svg">
<path d="M1.13672 7.09735V19.0035C1.13672 19.1821 1.23196 19.3471 1.38658 19.4364L11.6898 25.3894M1.13672 7.09735L11.6898 13.1947M1.13672 7.09735L5.12345 4.79391M11.6898 25.3894V13.1947M11.6898 25.3894L21.9931 19.4364C22.1477 19.3471 22.2429 19.1821 22.2429 19.0035V7.09735M11.6898 13.1947L15.3428 11.0841M22.2429 7.09735L11.94 1.14452C11.7852 1.0551 11.5945 1.0551 11.4397 1.14452L8.17212 3.03245M22.2429 7.09735L18.4907 9.2653M5.12345 4.79391L15.3428 11.0841M5.12345 4.79391L8.17212 3.03245M15.3428 11.0841L18.4907 9.2653M15.3428 11.0841V15.1288C15.3428 15.5168 15.7655 15.7569 16.0988 15.5583L18.2467 14.2782C18.398 14.188 18.4907 14.0248 18.4907 13.8487V9.2653M18.4907 9.2653L8.17212 3.03245M25.0571 10.3805H26.9332M31.858 10.3805H33.9686M38.6589 10.8496C39.0497 10.9277 39.9722 11.1779 40.535 11.5531M43.5837 15.3053C43.8182 15.6962 44.2872 16.6186 44.2872 17.1814M44.0527 21.8717C43.8963 22.2626 43.4899 23.185 43.1146 23.7478M39.3624 26.562C39.0497 26.7965 38.1899 27.3124 37.2518 27.5M32.796 27.2655H30.6854M25.7606 27.2655H23.65M19.1943 27.9691C18.8034 28.0472 17.8341 28.3443 17.0836 28.9071M14.504 31.9558C13.8004 32.8938 13.8004 33.3629 13.5659 34.0664M13.8004 38.9912C14.068 39.5384 14.6772 40.7735 14.973 41.3363M18.4907 43.916C18.8034 44.0723 19.7102 44.4319 20.8359 44.6195M25.5261 44.6195C26.6518 44.6195 27.5586 44.6195 27.8713 44.6195M32.0925 44.6195H34.4376M34.4376 37.5841C34.6168 40.9884 39.3734 47.3018 42.0479 50.314C42.2426 50.5333 42.5797 50.5332 42.7736 50.3132C45.4289 47.3007 49.9709 40.9881 50.15 37.5841C50.3846 33.1283 46.6323 29.3761 42.4111 29.3761C38.1899 29.3761 34.2031 33.1283 34.4376 37.5841Z" stroke="#5C5C5C" stroke-width="0.9" stroke-linecap="round"/>
<circle cx="42.4107" cy="37.5845" r="3.77124" stroke="#5C5C5C" stroke-width="0.9"/>
<path d="M52.73 50.4824C52.73 52.4252 48.1102 54.0001 42.4114 54.0001C36.7126 54.0001 32.0928 52.4252 32.0928 50.4824" stroke="#5C5C5C" stroke-width="0.9"/>
<path d="M32.0922 50.4824C32.0922 49.0753 35.8445 47.6683 39.5967 47.4337" stroke="#5C5C5C" stroke-width="0.9"/>
<path d="M52.73 50.4824C52.73 49.0753 48.9778 47.6683 45.2256 47.4337" stroke="#5C5C5C" stroke-width="0.9"/>
</svg>
