<svg width="32" height="40" viewBox="0 0 32 40" fill="none" xmlns="http://www.w3.org/2000/svg">
<path d="M17.0018 39.1186L16.9881 39.1289L16.975 39.14C16.7033 39.3724 16.3575 39.5001 16 39.5001C15.6425 39.5001 15.2967 39.3724 15.025 39.14L15.0241 39.1393C14.7088 38.866 11.0735 35.7156 7.51424 31.3012C3.92188 26.8456 0.5 21.2141 0.5 16C0.5 11.8891 2.13303 7.94666 5.03984 5.03984C7.94666 2.13303 11.8891 0.5 16 0.5C20.1109 0.5 24.0533 2.13303 26.9602 5.03984C29.867 7.94666 31.5 11.8891 31.5 16C31.5 21.2152 28.1019 26.8472 24.5227 31.3018C20.9575 35.739 17.3125 38.8878 17.0018 39.1186ZM15.6577 35.6645L15.9991 35.9851L16.3413 35.6654C18.4884 33.6594 21.5134 30.4789 24.0059 26.951C26.4838 23.4437 28.5 19.5044 28.5 16C28.5 12.6848 27.183 9.50537 24.8388 7.16117C22.4946 4.81696 19.3152 3.5 16 3.5C12.6848 3.5 9.50537 4.81696 7.16117 7.16117C4.81696 9.50537 3.5 12.6848 3.5 16C3.5 19.5045 5.51629 23.4389 7.99424 26.9437C10.4867 30.469 13.5115 33.6492 15.6577 35.6645ZM11.8332 9.76398C13.0666 8.93987 14.5166 8.5 16 8.5C17.9891 8.5 19.8968 9.29018 21.3033 10.6967C22.7098 12.1032 23.5 14.0109 23.5 16C23.5 17.4834 23.0601 18.9334 22.236 20.1668C21.4119 21.4001 20.2406 22.3614 18.8701 22.9291C17.4997 23.4968 15.9917 23.6453 14.5368 23.3559C13.082 23.0665 11.7456 22.3522 10.6967 21.3033C9.64781 20.2544 8.9335 18.918 8.64411 17.4632C8.35472 16.0083 8.50325 14.5003 9.0709 13.1299C9.63856 11.7594 10.5999 10.5881 11.8332 9.76398ZM13.4999 19.7416C14.24 20.2361 15.11 20.5 16 20.5C17.1935 20.5 18.3381 20.0259 19.182 19.182C20.0259 18.3381 20.5 17.1935 20.5 16C20.5 15.11 20.2361 14.24 19.7416 13.4999C19.2471 12.7599 18.5443 12.1831 17.7221 11.8425C16.8998 11.5019 15.995 11.4128 15.1221 11.5865C14.2492 11.7601 13.4474 12.1887 12.818 12.818C12.1887 13.4474 11.7601 14.2492 11.5865 15.1221C11.4128 15.995 11.5019 16.8998 11.8425 17.7221C12.1831 18.5443 12.7599 19.2471 13.4999 19.7416Z" fill="#737383" stroke="#1B1B1F"/>
</svg>
