<svg width="32" height="40" viewBox="0 0 32 40" fill="none" xmlns="http://www.w3.org/2000/svg">
<path d="M24.46 34.4201C26.7937 32.7538 28.6954 30.554 30.0069 28.004C31.3185 25.4541 32.0018 22.6276 32 19.7601V4.86013C32.001 4.56134 31.9351 4.26612 31.807 3.99616C31.679 3.7262 31.4921 3.48837 31.26 3.30013M24.46 34.4201L24.1699 34.0129L24.1695 34.0132M24.46 34.4201L17.16 39.6201M24.46 34.4201L24.1695 34.0132M24.1695 34.0132C26.4383 32.3932 28.2872 30.2545 29.5623 27.7754C30.8374 25.2962 31.5017 22.5483 31.5 19.7604V19.7601V4.86013V4.85843C31.5008 4.63434 31.4513 4.41292 31.3553 4.21045C31.2592 4.00798 31.119 3.82961 30.945 3.68843M24.1695 34.0132L16.87 39.2128M30.945 3.68843C30.9452 3.68857 30.9454 3.68872 30.9455 3.68886L31.26 3.30013M30.945 3.68843L31.26 3.30013M30.945 3.68843C30.7709 3.54769 30.5674 3.44772 30.3496 3.39586C30.1316 3.34394 29.9046 3.34155 29.6856 3.38886L29.6826 3.38951C27.4787 3.85138 25.2035 3.85727 22.9973 3.40679C20.7913 2.95637 18.7008 2.05925 16.8546 0.770636M31.26 3.30013C31.0277 3.11217 30.7561 2.97868 30.4654 2.90945C30.1747 2.84023 29.8721 2.83705 29.58 2.90013C27.4429 3.34802 25.2367 3.35372 23.0973 2.9169C20.9579 2.48007 18.9305 1.60996 17.14 0.360129M16.8546 0.770636C16.8547 0.770741 16.8549 0.770846 16.855 0.770951L17.14 0.360129M16.8546 0.770636C16.6036 0.596647 16.3054 0.503418 16 0.503418C15.6947 0.503418 15.3966 0.596612 15.1456 0.770538M16.8546 0.770636C16.8543 0.770465 16.8541 0.770294 16.8538 0.770123L17.14 0.360129M17.14 0.360129C16.8052 0.127874 16.4075 0.00341797 16 0.00341797C15.5925 0.00341797 15.1948 0.127874 14.86 0.360129M14.86 0.360129C13.0695 1.60996 11.0422 2.48007 8.90274 2.9169C6.76333 3.35372 4.55714 3.34802 2.42001 2.90013C2.12789 2.83705 1.82534 2.84023 1.53461 2.90945C1.24388 2.97868 0.972363 3.11217 0.740011 3.30013M14.86 0.360129L15.145 0.770951C15.1452 0.770813 15.1454 0.770676 15.1456 0.770538M14.86 0.360129L15.1462 0.770122C15.146 0.770261 15.1458 0.770399 15.1456 0.770538M15.1456 0.770538C13.2993 2.0592 11.2088 2.95636 9.00277 3.40679C6.7965 3.85727 4.52137 3.85138 2.31745 3.3895L2.31447 3.38886C2.09538 3.34155 1.86847 3.34394 1.65042 3.39586C1.43249 3.44775 1.22895 3.54779 1.05475 3.68864M1.05475 3.68864C1.05483 3.68857 1.05492 3.6885 1.05501 3.68843L0.740011 3.30013M1.05475 3.68864C0.880837 3.82979 0.740742 4.00808 0.644747 4.21045C0.548704 4.41292 0.499247 4.63434 0.500009 4.85843L0.500014 4.86013L0.500012 19.7601V19.7604C0.498283 22.5483 1.16263 25.2962 2.43772 27.7754C3.71281 30.2545 5.56175 32.3932 7.83057 34.0132M1.05475 3.68864C1.05465 3.68872 1.05456 3.68879 1.05447 3.68886L0.740011 3.30013M0.740011 3.30013L7.83057 34.0132M7.83057 34.0132L7.8301 34.0129L7.54001 34.4201M7.83057 34.0132L1.1563e-05 19.7601C-0.00176651 22.6276 0.681558 25.4541 1.99308 28.004C3.3046 30.554 5.20637 32.7538 7.54001 34.4201M7.83057 34.0132L7.54001 34.4201M7.83057 34.0132L15.13 39.2128M7.54001 34.4201L14.84 39.6201M14.84 39.6201L15.13 39.2128M14.84 39.6201L15.1301 39.2129L15.13 39.2128M14.84 39.6201C15.1787 39.8613 15.5842 39.9909 16 39.9909C16.4158 39.9909 16.8213 39.8613 17.16 39.6201M15.13 39.2128C15.3841 39.3937 15.6882 39.4909 16 39.4909C16.3119 39.4909 16.616 39.3937 16.87 39.2128M17.16 39.6201L16.8699 39.2129L16.87 39.2128M17.16 39.6201L16.87 39.2128M3.50001 19.7598C3.49842 22.0689 4.04835 24.3451 5.10402 26.3988C6.15969 28.4524 7.69059 30.2243 9.5693 31.5669L9.56964 31.5672L15.7096 35.9472L16 36.1543L16.2904 35.9472L22.4304 31.5672L22.4307 31.5669C24.3094 30.2243 25.8403 28.4524 26.896 26.3988C27.9517 24.3451 28.5016 22.0689 28.5 19.7598M3.50001 19.7598L4.00001 19.7601H3.50001V19.7598ZM3.50001 19.7598V7.16013V6.61551L4.04265 6.66195C8.13069 7.01184 12.2249 6.06334 15.7427 3.95145L16 3.79694L16.2574 3.95145C19.7751 6.06334 23.8693 7.01184 27.9574 6.66195L28.5 6.61551V7.16013V19.7598M28.5 19.7598L28 19.7601H28.5V19.7598ZM13.3445 20.9317L13.6987 21.2899L14.0542 20.933L19.3361 15.6315L19.4156 15.6116L19.5136 15.5137C19.7964 15.2308 20.18 15.0719 20.58 15.0719C20.98 15.0719 21.3636 15.2308 21.6465 15.5137C21.9293 15.7965 22.0882 16.1801 22.0882 16.5801C22.0882 16.9798 21.9295 17.3632 21.6471 17.6459C21.6469 17.6462 21.6467 17.6464 21.6465 17.6466L14.768 24.465L14.768 24.465L14.765 24.468C14.6256 24.6086 14.4597 24.7202 14.2769 24.7964C14.0941 24.8725 13.898 24.9117 13.7 24.9117C13.502 24.9117 13.3059 24.8725 13.1231 24.7964C12.9404 24.7202 12.7745 24.6086 12.635 24.468L12.6336 24.4666L9.43357 21.2666C9.15073 20.9837 8.99183 20.6001 8.99183 20.2001C8.99183 19.8001 9.15073 19.4165 9.43357 19.1337C9.7164 18.8508 10.1 18.6919 10.5 18.6919C10.8996 18.6919 11.2829 18.8505 11.5656 19.1329C11.5659 19.1331 11.5662 19.1334 11.5665 19.1337L13.3445 20.9317Z" fill="#737383" stroke="#1B1B1F"/>
</svg>
