<svg width="40" height="33" viewBox="0 0 40 33" fill="none" xmlns="http://www.w3.org/2000/svg">
<path d="M20.8916 18.6232L21.1699 18.6972L21.3736 18.4936L26.9336 12.9336C27.2165 12.6507 27.6001 12.4918 28.0001 12.4918C28.4001 12.4918 28.7837 12.6507 29.0665 12.9336C29.3493 13.2164 29.5082 13.6 29.5082 14C29.5082 14.4 29.3493 14.7836 29.0665 15.0664L23.5065 20.6264L23.3028 20.8301L23.3769 21.1085C23.4545 21.4005 23.4959 21.701 23.5001 22.0032C23.4992 22.9303 23.1306 23.8193 22.4749 24.4749C21.8193 25.1305 20.9304 25.4991 20.0033 25.5C19.7011 25.4958 19.4006 25.4544 19.1085 25.3768L18.8302 25.3028L18.6265 25.5064L17.0665 27.0664L17.0651 27.0679C16.9256 27.2085 16.7597 27.3201 16.5769 27.3962C16.3941 27.4724 16.1981 27.5116 16.0001 27.5116C15.802 27.5116 15.606 27.4724 15.4232 27.3962C15.2404 27.3201 15.0745 27.2085 14.9351 27.0679L14.9322 27.065C14.7916 26.9256 14.68 26.7597 14.6038 26.5769C14.5277 26.3941 14.4885 26.198 14.4885 26C14.4885 25.802 14.5277 25.6059 14.6038 25.4231C14.68 25.2403 14.7916 25.0744 14.9322 24.935L14.9336 24.9336L16.4936 23.3736L16.6973 23.1699L16.6233 22.8915C16.5456 22.5995 16.5042 22.299 16.5001 21.9968C16.5009 21.0697 16.8696 20.1807 17.5252 19.5251C18.1808 18.8695 19.0697 18.5009 19.9968 18.5C20.299 18.5042 20.5995 18.5456 20.8916 18.6232ZM0.500061 20.0012V20C0.500061 14.8283 2.55452 9.86838 6.21148 6.21142C8.02222 4.40068 10.1719 2.96432 12.5377 1.98435C14.9036 1.00438 17.4393 0.5 20.0001 0.5C25.1718 0.5 30.1317 2.55446 33.7886 6.21142C37.4456 9.86838 39.5001 14.8283 39.5001 20V20.0012C39.5097 23.8622 38.3622 27.6375 36.2057 30.8401C36.0682 31.0436 35.8827 31.2102 35.6656 31.3253C35.4486 31.4404 35.2065 31.5004 34.9608 31.5L34.9589 31.5C34.6599 31.5007 34.3674 31.4119 34.1192 31.2452C33.9555 31.135 33.8151 30.9937 33.7062 30.8292C33.5972 30.6647 33.5217 30.4804 33.4841 30.2867C33.4465 30.093 33.4474 29.8938 33.4869 29.7005C33.5264 29.5072 33.6036 29.3236 33.7142 29.1602L33.7157 29.1579C35.377 26.6737 36.3324 23.785 36.4799 20.8001C36.6275 17.8153 35.9615 14.8464 34.5533 12.2104C33.145 9.57454 31.0473 7.37059 28.4842 5.83394C25.921 4.29728 22.9886 3.48562 20.0001 3.48562C17.0115 3.48562 14.0791 4.29728 11.516 5.83394C8.95279 7.37059 6.85508 9.57454 5.44682 12.2104C4.03857 14.8464 3.37265 17.8153 3.52018 20.8001C3.6677 23.785 4.62313 26.6737 6.28443 29.158L6.28558 29.1597C6.50845 29.49 6.59098 29.8953 6.51499 30.2865C6.43901 30.6777 6.21074 31.0226 5.88041 31.2455C5.55008 31.4684 5.14474 31.5509 4.75356 31.4749C4.36253 31.399 4.01767 31.1709 3.79479 30.8407C1.63805 27.638 0.490459 23.8625 0.500061 20.0012Z" fill="#737383" stroke="#1B1B1F"/>
</svg>
