<svg width="54" height="52" viewBox="0 0 54 52" fill="none" xmlns="http://www.w3.org/2000/svg">
<path d="M20.583 30.0831C24.1382 30.0831 24.1382 24.75 20.583 24.75" stroke="#5C5C5C" stroke-linecap="round" stroke-linejoin="round"/>
<path d="M15.25 30.084H20.5831" stroke="#5C5C5C" stroke-linecap="round" stroke-linejoin="round"/>
<path d="M15.25 32.75H20.5831" stroke="#5C5C5C" stroke-linecap="round" stroke-linejoin="round"/>
<path d="M17.25 36.7494V24.75" stroke="#5C5C5C" stroke-linecap="round" stroke-linejoin="round"/>
<path d="M17.25 24.75H20.5832" stroke="#5C5C5C" stroke-linecap="round" stroke-linejoin="round"/>
<path d="M49.25 12.25C49.25 12.8381 48.9824 13.4062 48.4054 13.9483C47.8218 14.4965 46.9405 14.9973 45.7812 15.4192C43.4646 16.2625 40.1531 16.75 36.25 16.75C32.3479 16.75 28.7794 16.2628 26.2043 15.4142C24.9144 14.9891 23.904 14.4831 23.2258 13.9263C22.5497 13.3712 22.25 12.8076 22.25 12.25C22.25 11.6807 22.5616 11.0482 23.2523 10.3941C23.9394 9.74344 24.9564 9.117 26.243 8.57121C28.8134 7.48085 32.3705 6.75 36.25 6.75C40.1293 6.75 43.4289 7.48073 45.7401 8.56367C46.8964 9.10547 47.7862 9.72642 48.3803 10.3701C48.974 11.0134 49.25 11.6526 49.25 12.25Z" stroke="#5C5C5C"/>
<path d="M22.25 12.25V16.25" stroke="#5C5C5C" stroke-linecap="round"/>
<path d="M33.75 26.25C37.0717 26.552 44.1411 26.3068 48.1185 23.2842C48.9052 22.6862 49.25 21.7032 49.25 20.7151V20.25C49.25 19.9167 49.05 19.15 48.25 18.75" stroke="#5C5C5C" stroke-linecap="round"/>
<path d="M34.75 30.75C39.9806 31.1859 44.8312 30.4818 47.9767 28.3065C48.8493 27.7031 49.25 26.654 49.25 25.5931V25.25C49.25 24.9167 49.05 24.15 48.25 23.75" stroke="#5C5C5C" stroke-linecap="round"/>
<path d="M34.25 35.75C39.9814 35.75 44.1578 35.75 47.8076 33.3506C48.7714 32.7169 49.25 31.5884 49.25 30.4349V29.75C49.25 29.4167 49.05 28.65 48.25 28.25" stroke="#5C5C5C" stroke-linecap="round"/>
<path d="M31.25 40.25C39.1194 41.1244 44.6952 40.0874 47.9774 37.8076C48.8487 37.2024 49.25 36.154 49.25 35.0931V34.7503C49.25 34.417 48.7568 33.25 48.25 33.25" stroke="#5C5C5C" stroke-linecap="round"/>
<path d="M31.75 21.25C34.851 21.7396 42.3311 21.9416 47.8988 18.9448C48.1335 18.8184 48.3475 18.6557 48.5102 18.4444C48.6254 18.2948 48.762 18.1013 48.9056 17.8687C49.1502 17.4723 49.25 17.0075 49.25 16.5418V12.75" stroke="#5C5C5C" stroke-linecap="round"/>
<circle cx="18.75" cy="31.25" r="14" stroke="#5C5C5C"/>
</svg>
