<svg width="133" height="59" viewBox="0 0 133 59" fill="none" xmlns="http://www.w3.org/2000/svg">
<path d="M0.998047 0.353286C8.74873 0.343262 16.4894 0.333238 24.23 0.36331C24.2501 7.46047 24.2401 14.5676 24.2401 21.6648C21.6599 21.6648 19.0796 21.6548 16.4894 21.6548C16.4793 17.1338 16.4894 12.6129 16.4693 8.10202C13.879 8.09199 11.2888 8.09199 8.70857 8.09199C8.71861 12.6029 8.71861 17.1038 8.70857 21.6147C13.0658 25.0029 17.5536 28.2307 21.941 31.5788C23.1859 32.501 24.471 33.7941 24.23 35.4982C24.2903 43.1066 24.1999 50.715 24.2601 58.3234C16.5095 58.3134 8.76881 58.3134 1.01813 58.3234C1.00809 49.3217 0.998047 40.3199 1.03821 31.3181C3.55818 33.1826 6.06812 35.0572 8.62826 36.8615C8.80897 41.4526 8.66842 46.0538 8.73869 50.6449C11.3289 50.705 13.9192 50.6549 16.5095 50.5145C16.4492 45.9936 16.5095 41.4627 16.4593 36.9417C12.0418 33.754 7.68452 30.4761 3.29715 27.2483C2.04218 26.4063 0.907689 25.1933 1.04825 23.5694C0.947848 15.8307 1.06833 8.09199 0.998047 0.353286Z" fill="#E3E3E3"/>
<path d="M28.137 0.343262C35.8475 0.353286 43.5681 0.333237 51.2786 0.353286C51.3188 19.68 51.2585 39.0067 51.3087 58.3234C48.7486 58.3234 46.1985 58.3134 43.6384 58.3034C43.6685 49.9632 43.6484 41.613 43.6484 33.2729C41.0581 33.2829 38.4679 33.2829 35.8877 33.2929C35.8676 41.6431 35.8776 49.9833 35.8676 58.3334C33.2874 58.3134 30.7072 58.3134 28.127 58.3234C28.137 38.9967 28.127 19.67 28.137 0.343262ZM35.8676 8.10202C35.8877 13.906 35.8676 19.7101 35.8776 25.5041C38.4679 25.5442 41.0581 25.5542 43.6484 25.5342C43.6584 19.7201 43.6584 13.906 43.6384 8.09199C41.0481 8.09199 38.4579 8.10202 35.8676 8.10202Z" fill="#E3E3E3"/>
<path d="M55.2046 0.333496C62.9553 0.353545 70.706 0.333496 78.4567 0.353545C78.4667 7.4507 78.4667 14.5579 78.4567 21.655C75.8765 21.655 73.2963 21.6651 70.706 21.6651C70.696 17.1441 70.706 12.6232 70.696 8.10227C68.1057 8.09225 65.5155 8.09225 62.9252 8.10227C62.9252 12.6232 62.9352 17.1542 62.9252 21.6851C67.915 25.795 73.7782 29.0028 78.1856 33.7142C78.8382 41.8539 78.2659 50.1238 78.4667 58.3136C70.7161 58.3337 62.9553 58.3036 55.1946 58.3237C55.2147 49.3119 55.1444 40.2901 55.2348 31.2783C57.7447 33.1629 60.2546 35.0675 62.8449 36.8518C63.0055 41.3927 62.9252 45.9437 62.8951 50.4847C65.5054 50.7353 68.1258 50.7053 70.7261 50.5048C70.6859 46.0039 70.7161 41.503 70.696 37.0021C66.3086 33.7242 61.8811 30.4964 57.4736 27.2486C56.2889 26.3764 54.9536 25.2738 55.2147 23.6198C55.1544 15.861 55.2046 8.10227 55.2046 0.333496Z" fill="#E3E3E3"/>
<path d="M82.3523 0.333496C90.0628 0.363569 97.7733 0.333496 105.494 0.353545C105.504 7.4507 105.504 14.5579 105.494 21.655C102.904 21.655 100.323 21.6651 97.7432 21.6651C97.7332 17.1441 97.7432 12.6232 97.7332 8.1123C95.173 8.09225 92.6229 8.09225 90.0628 8.10227C90.0327 22.2264 90.0929 36.3606 90.0327 50.4947C92.5828 50.6652 95.1529 50.7053 97.7131 50.6451C97.7633 46.1041 97.7332 41.5632 97.7432 37.0322C100.323 37.0222 102.914 37.0322 105.494 37.0523C105.494 44.1394 105.504 51.2265 105.494 58.3237C97.7834 58.3136 90.0728 58.3237 82.3623 58.3136C82.3322 38.9869 82.3523 19.6602 82.3523 0.333496Z" fill="#E3E3E3"/>
<path d="M109.388 0.343262C117.139 0.353286 124.889 0.333237 132.65 0.353286C132.68 19.67 132.62 38.9867 132.68 58.3034C124.92 58.3334 117.149 58.3034 109.388 58.3234C109.368 38.9967 109.368 19.67 109.388 0.343262ZM117.129 8.09199C117.139 22.2262 117.159 36.3503 117.129 50.4845C119.719 50.7451 122.329 50.695 124.93 50.4945C124.879 36.3603 124.95 22.2362 124.889 8.10202C122.309 8.09199 119.719 8.09199 117.129 8.09199Z" fill="#E3E3E3"/>
</svg>
