<svg width="132" height="47" viewBox="0 0 132 47" fill="none" xmlns="http://www.w3.org/2000/svg">
<path d="M0.101562 0H57.5214C60.2221 2.03546 62.8037 4.22979 65.4845 6.2851C68.1554 4.19007 70.7866 2.03546 73.4973 0H130.798C130.788 0.893617 130.778 2.69078 130.778 3.5844C112.241 3.60425 93.7029 3.5844 75.1654 3.59432C71.9086 6.12624 68.6916 8.71773 65.4547 11.2695C62.2278 8.71773 59.0505 6.10638 55.7937 3.5844C37.2363 3.60425 18.6689 3.59432 0.101562 3.59432V0Z" fill="#E3E3E3"/>
<path d="M0.101562 9.05518C4.2817 9.05518 8.46184 9.05518 12.642 9.05518C12.6321 12.0438 12.6321 15.0225 12.6321 18.0013C16.8122 17.9913 20.9923 17.9913 25.1725 18.0013C25.1725 15.0225 25.1725 12.0339 25.1526 9.05518C29.293 9.0651 33.4235 9.04525 37.564 9.07503C37.5937 20.5332 37.5838 31.9814 37.5739 43.4296C33.4434 42.5559 29.293 41.7913 25.1725 40.9076C25.1625 36.5786 25.1923 32.2495 25.1427 27.9303C20.9824 27.9204 16.8122 27.9204 12.6519 27.9303C12.6321 31.4155 12.6321 34.9006 12.6321 38.3857C8.45191 37.5715 4.2817 36.7374 0.111492 35.8637L0.101562 36.7077V9.05518Z" fill="#E3E3E3"/>
<path d="M41.5352 9.05518C45.4373 9.05518 49.3493 9.05518 53.2515 9.06511C57.2827 12.4013 61.4032 15.6282 65.4046 18.9942C69.5351 15.7275 73.6061 12.3913 77.677 9.05518C81.6089 9.05518 85.5309 9.05518 89.4628 9.05518C89.4727 20.7516 89.4628 32.4381 89.4628 44.1247C85.3422 44.9091 81.2316 45.7232 77.1507 46.6665H76.7139C76.6444 39.1105 76.6742 31.5545 76.694 23.9984C72.9805 27.0268 69.2373 30.0452 65.494 33.0438C61.6812 30.0552 57.938 26.9871 54.1749 23.9289C54.2742 31.5147 54.1649 39.0906 54.2344 46.6665C50.0047 45.8027 45.7848 44.9587 41.5649 44.0552C41.5252 32.3885 41.5848 20.7218 41.5352 9.05518Z" fill="#E3E3E3"/>
<path d="M93.305 9.06506C97.3164 9.13457 101.348 8.9062 105.369 9.13457C107.841 10.475 109.807 12.5899 112.121 14.1885C114.275 12.4707 116.43 10.7629 118.575 9.03528C122.775 9.13457 126.984 8.8367 131.165 9.33315V30.909L130.609 35.7147C126.627 36.9856 122.427 37.3927 118.376 38.3856C118.376 33.2026 118.386 28.0296 118.376 22.8466C116.241 24.5246 114.116 26.2026 111.982 27.8807C109.966 26.1034 107.841 24.4353 105.667 22.8466C105.766 28.8736 105.697 34.9005 105.716 40.9275C101.576 41.7913 97.4355 42.6253 93.2852 43.4494C93.3249 31.9814 93.305 20.5232 93.305 9.06506Z" fill="#E3E3E3"/>
</svg>
