<svg width="130" height="59" viewBox="0 0 130 59" fill="none" xmlns="http://www.w3.org/2000/svg">
<path d="M0.2658 0.333496H41.3064C41.3064 15.1688 41.3104 30.0001 41.3064 44.8354C27.6248 44.8433 13.9433 44.8315 0.261719 44.8394C0.2658 30.0041 0.2658 15.1688 0.2658 0.333496ZM10.2453 8.84801C10.2412 17.9386 10.2494 27.0331 10.2412 36.1236C17.2616 36.1315 24.2861 36.1236 31.3064 36.1276C31.3309 27.0331 31.3064 17.9386 31.3146 8.84801C24.2942 8.84406 17.2698 8.84406 10.2453 8.84801Z" fill="#CECECD"/>
<path d="M47.3623 0.333496H56.5827C64.2479 9.64896 71.7213 19.1183 79.2641 28.5245C79.2601 19.1301 79.2641 9.73181 79.2641 0.333496H89.2518C89.2478 15.1688 89.2559 30.0041 89.2478 44.8394C86.1947 44.8197 83.1417 44.8828 80.0886 44.8039C79.1131 43.4742 78.0927 42.184 77.0233 40.9254C70.4071 32.8173 63.9704 24.5671 57.3663 16.4511C57.3378 25.9125 57.3663 35.374 57.35 44.8354C54.0194 44.8394 50.6888 44.8394 47.3623 44.8394C47.3664 30.0041 47.3623 15.1688 47.3623 0.333496Z" fill="#CECECD"/>
<path d="M95.3049 0.333496H129.627V8.81644C121.517 8.81644 113.407 8.81644 105.297 8.81644C105.288 11.819 105.293 14.8176 105.293 17.8202C113.403 17.8084 121.517 17.8202 129.627 17.8163V26.3623C121.517 26.3623 113.403 26.3584 105.293 26.3623C105.293 29.6293 105.297 32.8922 105.288 36.1591C113.403 36.1552 121.513 36.1591 129.627 36.1591V44.8354C118.186 44.8354 106.746 44.8354 95.3008 44.8354C95.313 30.0041 95.3049 15.1688 95.3049 0.333496Z" fill="#CECECD"/>
<path d="M8.27309 53.5079C9.68533 52.0598 12.3343 52.3045 13.42 54.0129C13.02 54.1944 12.6241 54.3759 12.2241 54.5574C11.6159 54.1352 10.8812 53.5079 10.0772 53.8827C8.6037 54.3877 8.54656 56.7195 10.0649 57.1969C10.8486 57.556 11.5792 56.9918 12.1914 56.5933C12.6078 56.7472 13.0241 56.901 13.4363 57.0628C12.9792 57.5008 12.5139 57.9387 12.0118 58.3333H9.469C7.42004 57.7099 6.79555 54.9598 8.27309 53.5079Z" fill="#CECECD"/>
<path d="M50.7258 52.6558C52.3421 52.6558 53.9584 52.6558 55.5747 52.6558C55.5665 53.0543 55.5625 53.4567 55.5625 53.8631C55.0074 53.8631 54.4563 53.8631 53.9053 53.867C53.9012 55.3545 53.9013 56.8459 53.9013 58.3334H52.4482C52.4482 56.842 52.4482 55.3545 52.4441 53.8631C51.8727 53.8631 51.2972 53.8631 50.7217 53.867C50.7217 53.5632 50.7258 52.9556 50.7258 52.6558Z" fill="#CECECD"/>
<path d="M65.7131 54.1385C66.7376 52.1381 70.109 51.9922 71.2886 53.9215C72.309 55.4287 71.611 57.6185 69.9049 58.3327H67.3213C65.6356 57.725 64.8274 55.6615 65.7131 54.1385ZM67.6805 54.0281C66.5866 54.6199 66.5213 56.4664 67.6723 57.0504C68.7498 57.7842 70.4233 56.8846 70.3253 55.6102C70.4764 54.2924 68.8437 53.2547 67.6805 54.0281Z" fill="#CECECD"/>
<path d="M88.9502 52.6479C90.4032 52.6558 91.8563 52.6558 93.3053 52.6479C93.3134 53.0543 93.3216 53.4607 93.3298 53.8671C92.3583 53.8632 91.3828 53.8632 90.4114 53.8671C90.4073 54.1275 90.4032 54.6562 90.4032 54.9166C91.3543 54.9166 92.3094 54.9166 93.2645 54.9127C93.2645 55.2165 93.2645 55.8281 93.2604 56.1319C92.3338 56.1279 91.4073 56.12 90.4808 56.0964C90.4563 56.3726 90.4073 56.9328 90.3828 57.213C91.3624 57.209 92.3461 57.209 93.3298 57.213C93.3298 57.4931 93.3298 58.0534 93.3257 58.3335H88.9543C88.9502 56.4396 88.9543 54.5458 88.9502 52.6479Z" fill="#CECECD"/>
<path d="M94.459 52.6357C95.0223 52.6515 95.5896 52.6673 96.157 52.687C96.5488 53.3183 96.9406 53.9496 97.3365 54.5809C97.7447 53.9378 98.1569 53.2986 98.5651 52.6555C98.9937 52.6555 99.8549 52.6515 100.283 52.6515C99.6345 53.5945 98.9814 54.5375 98.3365 55.4844C99.0182 56.4393 99.6794 57.4059 100.398 58.3331H98.6876C98.2182 57.7097 97.7855 57.0587 97.3447 56.4156C96.9039 57.0587 96.4631 57.7097 95.9896 58.3331H94.3447C95.0427 57.4059 95.6753 56.4393 96.3529 55.5002C95.6998 54.5612 95.0672 53.6063 94.459 52.6357Z" fill="#CECECD"/>
<path d="M113.636 52.6548C115.093 52.6509 116.554 52.6548 118.015 52.6509C118.011 53.0533 118.011 53.4558 118.015 53.8622C117.04 53.8622 116.068 53.8622 115.097 53.8661C115.093 54.1305 115.093 54.6552 115.089 54.9196C116.044 54.9156 117.003 54.9156 117.962 54.9156C117.954 55.3181 117.946 55.7205 117.942 56.123C116.991 56.1269 116.044 56.1269 115.093 56.1309C115.093 56.3992 115.093 56.9397 115.093 57.208C116.068 57.208 117.044 57.2119 118.023 57.2119C118.019 57.4921 118.015 58.0523 118.011 58.3325H113.64C113.64 56.4386 113.644 54.5487 113.636 52.6548Z" fill="#CECECD"/>
<path d="M119.221 54.3678C119.416 52.0557 122.551 52.3082 124.041 53.2788C123.8 53.5984 123.551 53.9101 123.29 54.2139C122.355 54.0363 121.429 53.6812 120.465 53.9259C121.147 55.2871 123.331 54.6006 124.025 55.9854C124.441 56.9048 123.829 57.8004 123.082 58.333H120.269C119.845 58.1358 119.429 57.9227 119.021 57.7018C119.188 57.4413 119.523 56.9245 119.69 56.6641C120.633 57.1809 121.702 57.4098 122.78 57.1731C122.22 55.5988 119.041 56.5733 119.221 54.3678Z" fill="#CECECD"/>
<path d="M0.705628 53.9856C1.79542 52.1509 4.96682 52.0405 6.13416 53.8475C7.21579 55.3468 6.55865 57.6865 4.75458 58.3336H2.22399C0.468894 57.7102 -0.318855 55.5046 0.705628 53.9856ZM2.4199 54.1198C1.43624 54.8615 1.50154 56.6331 2.71786 57.1263C3.80357 57.7181 5.33417 56.8185 5.23213 55.5954C5.37498 54.1908 3.55867 53.2123 2.4199 54.1198Z" fill="#CECECD"/>
<path d="M14.4727 52.6548C15.9339 52.6548 17.3951 52.6548 18.8522 52.6509C18.8522 52.9547 18.8481 53.5584 18.8441 53.8622C17.8726 53.8622 16.9012 53.8622 15.9298 53.8661C15.9298 54.2173 15.9298 54.5684 15.9298 54.9196C16.8849 54.9156 17.84 54.9156 18.7951 54.9156C18.791 55.3181 18.7869 55.7205 18.7788 56.123C17.8318 56.1269 16.8808 56.1269 15.9298 56.1269C15.9298 56.3992 15.9298 56.9397 15.9298 57.208C16.9053 57.208 17.8808 57.208 18.8604 57.2119C18.8563 57.4921 18.8481 58.0523 18.8481 58.3325H14.4727C14.4727 56.4386 14.4767 54.5447 14.4727 52.6548Z" fill="#CECECD"/>
<path d="M22.097 52.6509C22.7174 52.6509 23.3378 52.6509 23.9582 52.6548C24.701 54.5487 25.399 56.4623 26.2112 58.3325H24.5786C24.4806 58.1391 24.2929 57.7525 24.1949 57.5631C23.2031 57.6538 21.8235 57.1567 21.3419 58.3325H19.8398C20.6521 56.4623 21.3419 54.5447 22.097 52.6509ZM23.0031 53.945C22.701 54.7618 22.4153 55.5785 22.1419 56.4031C22.7174 56.407 23.2929 56.411 23.8684 56.4149C23.5908 55.5903 23.3051 54.7618 23.0031 53.945Z" fill="#CECECD"/>
<path d="M27.1387 52.6509C27.657 52.6548 28.1754 52.6588 28.6978 52.6627C29.5387 53.7793 30.3591 54.9156 31.1917 56.0401C31.2121 54.9117 31.2121 53.7833 31.208 52.6548C31.5754 52.6548 32.306 52.6548 32.6733 52.6588C32.6733 54.5487 32.6733 56.4386 32.6733 58.3325H31.1999C30.3019 57.2159 29.4815 56.0441 28.604 54.9196C28.5917 56.0559 28.5917 57.1922 28.5917 58.3325H27.1387C27.1387 56.4386 27.1428 54.5447 27.1387 52.6509Z" fill="#CECECD"/>
<path d="M38.1631 52.6509C38.661 52.6548 39.159 52.6588 39.661 52.6627C40.51 53.7872 41.359 54.9117 42.2243 56.0322C42.2365 54.9038 42.2365 53.7793 42.2324 52.6548C42.5998 52.6548 43.3345 52.6548 43.6977 52.6548C43.6977 54.5487 43.6977 56.4386 43.6977 58.3325H42.2324C41.3059 57.2119 40.4447 56.048 39.5631 54.8998C39.5672 56.0441 39.5672 57.1883 39.5672 58.3325H38.1631C38.1631 56.4386 38.1672 54.5447 38.1631 52.6509Z" fill="#CECECD"/>
<path d="M45.3105 52.6509C46.7514 52.6548 48.1922 52.6509 49.637 52.6548C49.633 52.9586 49.633 53.5623 49.6289 53.8661C48.6575 53.8622 47.686 53.8622 46.7146 53.8661C46.7146 54.1265 46.7105 54.6552 46.7105 54.9156C47.6656 54.9156 48.6207 54.9156 49.5799 54.9156C49.5717 55.3181 49.5677 55.7205 49.5636 56.1269C48.6126 56.1269 47.6656 56.1269 46.7146 56.1269C46.7146 56.3992 46.7146 56.9397 46.7146 57.208C47.686 57.208 48.6575 57.208 49.633 57.2119C49.633 57.4921 49.637 58.0523 49.637 58.3325H45.3105C45.3105 56.4386 45.3105 54.5447 45.3105 52.6509Z" fill="#CECECD"/>
<path d="M56.4766 52.6548C57.0235 52.6548 57.5745 52.6548 58.1214 52.6588C58.4398 53.9529 58.7582 55.251 59.0929 56.5412C59.4725 55.2471 59.8398 53.949 60.199 52.6509C60.4806 52.6548 61.048 52.6627 61.3296 52.6667C61.6888 53.9726 62.052 55.2747 62.4275 56.5767C62.7051 55.2668 63.0071 53.9608 63.3337 52.6588C63.75 52.6588 64.5745 52.6509 64.9867 52.6509C64.4153 54.5447 63.901 56.4544 63.2684 58.3325H61.7255C61.4031 57.1528 61.0765 55.977 60.7582 54.7973C60.4398 55.977 60.1174 57.1528 59.799 58.3325H58.1949C57.5704 56.4544 57.0521 54.5447 56.4766 52.6548Z" fill="#CECECD"/>
<path d="M72.7656 52.6553C74.2187 52.7697 75.8636 52.312 77.1738 53.0775C78.3452 54.0126 77.8676 55.7407 76.6799 56.4391C77.0472 57.0704 77.4187 57.6977 77.7942 58.329L77.3982 58.3329H76.1615C75.8146 57.7372 75.4962 57.1217 75.1779 56.514C74.9411 56.4983 74.4677 56.4628 74.2309 56.447C74.2228 57.0743 74.2187 57.7017 74.2146 58.3329H72.7656C72.7656 56.4391 72.7697 54.5492 72.7656 52.6553ZM74.3003 53.8429C74.3003 54.3243 74.3003 54.8056 74.3003 55.287C75.0391 55.2002 76.4881 55.5513 76.4717 54.4387C76.186 53.5509 75.0146 53.9771 74.3003 53.8429Z" fill="#CECECD"/>
<path d="M78.9336 52.6509C79.2969 52.6548 80.0275 52.6588 80.3948 52.6588C80.3907 53.5228 80.3826 54.383 80.3703 55.247C81.0356 54.3909 81.7009 53.5386 82.3499 52.6667C82.954 52.6627 83.5621 52.6548 84.1703 52.6548C83.3989 53.5505 82.6274 54.4461 81.8315 55.322C82.603 56.3558 83.403 57.3698 84.2642 58.3325H82.4928C81.9009 57.5868 81.3417 56.8174 80.7336 56.0914C80.452 56.8095 80.3662 57.571 80.3336 58.3325H78.9336C78.9336 56.4386 78.9377 54.5447 78.9336 52.6509Z" fill="#CECECD"/>
<path d="M101.334 52.6555C102.591 52.6713 103.861 52.5529 105.105 52.766C106.62 53.2197 106.82 55.516 105.42 56.2262C104.595 56.5774 103.661 56.4353 102.783 56.4945C102.787 57.1061 102.787 57.7176 102.787 58.3331H101.334C101.334 56.4393 101.334 54.5454 101.334 52.6555ZM102.791 53.8392C102.791 54.3205 102.791 54.8019 102.795 55.2872C103.465 55.2004 104.909 55.5318 104.877 54.5296C104.738 53.5748 103.481 53.9417 102.791 53.8392Z" fill="#CECECD"/>
<path d="M107.362 52.6551C108.73 52.7419 110.211 52.3907 111.501 52.9352C112.897 53.7164 112.534 55.7208 111.24 56.427C111.599 57.0662 111.954 57.7054 112.342 58.3327H110.762C110.411 57.737 110.093 57.1215 109.77 56.5138C109.542 56.4941 109.081 56.4507 108.852 56.431C108.832 57.0662 108.815 57.6975 108.803 58.3327H107.362C107.362 56.4389 107.362 54.545 107.362 52.6551ZM108.799 53.8743C108.799 54.2215 108.807 54.9198 108.811 55.267C109.521 55.1921 110.958 55.5709 110.97 54.5095C110.783 53.5428 109.517 53.9453 108.799 53.8743Z" fill="#CECECD"/>
<path d="M125.795 53.0497C126.93 52.2172 128.428 52.6157 129.628 53.0812V53.5231C129.521 53.7204 129.305 54.111 129.195 54.3083C128.464 54.0795 127.73 53.8664 126.983 53.7086C126.844 53.8822 126.575 54.2294 126.44 54.403C127.505 54.7542 128.607 55.0264 129.628 55.5078V57.9856L129.305 57.8554C129.203 57.9777 128.995 58.2144 128.889 58.3328H126.13C125.709 58.1237 125.293 57.9106 124.885 57.6857C125.06 57.4332 125.411 56.9321 125.587 56.6796C126.595 57.1412 127.852 57.6936 128.787 56.7506C127.811 56.3166 126.726 56.1548 125.77 55.6853C124.836 55.0935 124.909 53.6533 125.795 53.0497Z" fill="#CECECD"/>
</svg>
