<svg width="98" height="58" viewBox="0 0 98 58" fill="none" xmlns="http://www.w3.org/2000/svg">
<path d="M0.681641 56.0646V47.8335H4.55588C5.391 47.8335 6.0367 48.0576 6.493 48.5057C6.9493 48.9538 7.17745 49.5552 7.17745 50.3099C7.17745 51.0646 6.9493 51.666 6.493 52.1142C6.0367 52.5623 5.391 52.7863 4.55588 52.7863H2.14094V56.0646H0.681641ZM2.14094 51.6189H4.46548C4.83569 51.6189 5.1241 51.5324 5.33073 51.3594C5.53736 51.1786 5.64067 50.9231 5.64067 50.5929V50.0269C5.64067 49.6967 5.53736 49.4451 5.33073 49.2722C5.1241 49.0914 4.83569 49.0009 4.46548 49.0009H2.14094V51.6189Z" fill="#E3E3E3"/>
<path d="M8.13431 54.8854H8.93498L10.1618 52.6684C10.2996 52.4168 10.4416 52.2321 10.588 52.1142C10.7344 51.9962 10.9065 51.9176 11.1046 51.8783V51.8193C10.9238 51.7643 10.7602 51.6818 10.6138 51.5717C10.4675 51.4538 10.334 51.2808 10.2135 51.0528L9.16744 49.0127H8.36676V47.8335H9.07704C9.4042 47.8335 9.6797 47.9003 9.90354 48.034C10.136 48.1676 10.3383 48.3995 10.5105 48.7297L11.8407 51.3005H13.2612V47.8335H14.7205V51.3005H16.1411L17.4712 48.7297C17.6434 48.3995 17.8414 48.1676 18.0653 48.034C18.2977 47.9003 18.5775 47.8335 18.9047 47.8335H19.615V49.0127H18.8143L17.7683 51.0528C17.6477 51.2808 17.5143 51.4538 17.3679 51.5717C17.2216 51.6818 17.058 51.7643 16.8772 51.8193V51.8783C17.0752 51.9176 17.2474 51.9962 17.3937 52.1142C17.5401 52.2321 17.6822 52.4168 17.8199 52.6684L19.0468 54.8854H19.8474V56.0646H18.9434C18.6421 56.0646 18.3924 56.0017 18.1944 55.8759C18.005 55.7423 17.8113 55.4986 17.6133 55.1448L16.1411 52.4679H14.7205V56.0646H13.2612V52.4679H11.8407L10.3685 55.1448C10.1704 55.4986 9.97242 55.7423 9.7744 55.8759C9.585 56.0017 9.33963 56.0646 9.0383 56.0646H8.13431V54.8854Z" fill="#E3E3E3"/>
<path d="M20.5983 54.8854H21.5539C21.7261 54.6888 21.8811 54.4569 22.0188 54.1896C22.1652 53.9145 22.2857 53.5961 22.3804 53.2344C22.4837 52.8649 22.5612 52.4443 22.6129 51.9726C22.6645 51.4931 22.6904 50.9467 22.6904 50.3335V47.8335H28.5663V54.8854H29.9094V57.8335H28.5534V56.0646H21.9543V57.8335H20.5983V54.8854ZM27.107 54.8854V49.0127H24.098V50.4868C24.098 51.0764 24.0765 51.5992 24.0334 52.0552C23.999 52.5112 23.943 52.916 23.8655 53.2698C23.7967 53.6157 23.7063 53.9184 23.5943 54.1778C23.491 54.4294 23.3705 54.6495 23.2327 54.8382V54.8854H27.107Z" fill="#E3E3E3"/>
<path d="M33.5253 54.8854H34.5197C34.6919 54.7281 34.8426 54.5355 34.9717 54.3076C35.1008 54.0796 35.2042 53.7887 35.2816 53.4349C35.3677 53.0811 35.4323 52.6487 35.4753 52.1377C35.5184 51.6189 35.5399 50.9899 35.5399 50.2509V47.8335H41.3642V56.0646H39.9049V49.0127H36.9476V50.4043C36.9476 51.1983 36.9174 51.8822 36.8572 52.4561C36.8055 53.0222 36.728 53.5057 36.6247 53.9066C36.5214 54.3076 36.3923 54.6377 36.2373 54.8972C36.0909 55.1566 35.9273 55.3689 35.7465 55.534C35.5227 55.7305 35.2816 55.8759 35.0234 55.9703C34.7651 56.0568 34.4508 56.1 34.0806 56.1H33.5253V54.8854Z" fill="#E3E3E3"/>
<path d="M46.117 56.2061C45.6521 56.2061 45.2259 56.1315 44.8385 55.9821C44.4597 55.8327 44.1368 55.6204 43.8699 55.3453C43.6031 55.0623 43.3964 54.7242 43.2501 54.3311C43.1037 53.9302 43.0305 53.486 43.0305 52.9986C43.0305 52.5112 43.1037 52.0709 43.2501 51.6778C43.3964 51.2769 43.6031 50.9388 43.8699 50.6637C44.1368 50.3807 44.4597 50.1645 44.8385 50.0151C45.2259 49.8657 45.6521 49.791 46.117 49.791C46.5819 49.791 47.0038 49.8657 47.3826 50.0151C47.77 50.1645 48.0972 50.3807 48.3641 50.6637C48.631 50.9388 48.8376 51.2769 48.9839 51.6778C49.1303 52.0709 49.2035 52.5112 49.2035 52.9986C49.2035 53.486 49.1303 53.9302 48.9839 54.3311C48.8376 54.7242 48.631 55.0623 48.3641 55.3453C48.0972 55.6204 47.77 55.8327 47.3826 55.9821C47.0038 56.1315 46.5819 56.2061 46.117 56.2061ZM46.117 55.1448C46.5991 55.1448 46.9866 55.0112 47.2793 54.7439C47.572 54.4687 47.7184 54.0599 47.7184 53.5175V52.4797C47.7184 51.9373 47.572 51.5324 47.2793 51.2651C46.9866 50.9899 46.5991 50.8524 46.117 50.8524C45.6349 50.8524 45.2475 50.9899 44.9547 51.2651C44.662 51.5324 44.5157 51.9373 44.5157 52.4797V53.5175C44.5157 54.0599 44.662 54.4687 44.9547 54.7439C45.2475 55.0112 45.6349 55.1448 46.117 55.1448Z" fill="#E3E3E3"/>
<path d="M50.7719 49.9326H55.1498V50.9821H52.1796V56.0646H50.7719V49.9326Z" fill="#E3E3E3"/>
<path d="M56.4471 49.9326H57.8289V52.9278L57.6998 54.3783H57.7514L58.5521 53.0693L60.8767 49.9326H62.1552V56.0646H60.7733V53.0693L60.9025 51.6189H60.8508L60.0501 52.9278L57.7256 56.0646H56.4471V49.9326Z" fill="#E3E3E3"/>
<path d="M66.7611 56.2061C66.2789 56.2061 65.8485 56.1315 65.4696 55.9821C65.0908 55.8327 64.7723 55.6204 64.514 55.3453C64.2557 55.0623 64.0577 54.7242 63.9199 54.3311C63.7822 53.9302 63.7133 53.486 63.7133 52.9986C63.7133 52.5112 63.7822 52.0709 63.9199 51.6778C64.0577 51.2769 64.2557 50.9388 64.514 50.6637C64.7723 50.3807 65.0908 50.1645 65.4696 50.0151C65.8485 49.8657 66.2789 49.791 66.7611 49.791C67.4326 49.791 67.9836 49.9286 68.4141 50.2038C68.8445 50.4789 69.1588 50.8445 69.3568 51.3005L68.1945 51.7958C68.0998 51.5127 67.9319 51.2887 67.6909 51.1236C67.4584 50.9506 67.1485 50.8642 66.7611 50.8642C66.2445 50.8642 65.8528 51.0135 65.5859 51.3123C65.3276 51.6031 65.1984 51.9844 65.1984 52.4561V53.5528C65.1984 54.0245 65.3276 54.4098 65.5859 54.7085C65.8528 54.9994 66.2445 55.1448 66.7611 55.1448C67.1743 55.1448 67.5015 55.0544 67.7425 54.8736C67.9922 54.6849 68.1902 54.4373 68.3366 54.1307L69.4085 54.6495C69.1846 55.1527 68.8488 55.5379 68.4012 55.8052C67.9535 56.0725 67.4068 56.2061 66.7611 56.2061Z" fill="#E3E3E3"/>
<path d="M72.2189 50.9821H70.0751V49.9326H75.7703V50.9821H73.6265V56.0646H72.2189V50.9821Z" fill="#E3E3E3"/>
<path d="M77.0416 49.9326H78.4234V52.9278L78.2943 54.3783H78.3459L79.1466 53.0693L81.4712 49.9326H82.7497V56.0646H81.3679V53.0693L81.497 51.6189H81.4453L80.6447 52.9278L78.3201 56.0646H77.0416V49.9326Z" fill="#E3E3E3"/>
<path d="M84.7598 49.9326H86.1675V52.409H87.3556L88.4662 50.6991C88.6556 50.4082 88.845 50.2077 89.0344 50.0976C89.2238 49.9876 89.4649 49.9326 89.7576 49.9326H90.442V50.9821H89.693L88.8407 52.2793C88.7116 52.4837 88.5953 52.6252 88.492 52.7038C88.3973 52.7824 88.2682 52.8414 88.1046 52.8807V52.9278C88.2768 52.9593 88.4275 53.0182 88.5566 53.1047C88.6857 53.1833 88.8106 53.3248 88.9311 53.5293L89.8351 55.0151H90.5712V56.0646H89.7705C89.4864 56.0646 89.241 56.0057 89.0344 55.8877C88.8364 55.7698 88.647 55.5615 88.4662 55.2627L87.3556 53.4467H86.1675V56.0646H84.7598V49.9326Z" fill="#E3E3E3"/>
<path d="M96.8939 56.0646C96.5237 56.0646 96.2396 55.9703 96.0415 55.7816C95.8435 55.5851 95.723 55.3374 95.6799 55.0387H95.6154C95.4862 55.4239 95.2495 55.7148 94.9051 55.9113C94.5607 56.1079 94.1432 56.2061 93.6524 56.2061C92.9551 56.2061 92.417 56.041 92.0382 55.7109C91.668 55.3807 91.4829 54.9365 91.4829 54.3783C91.4829 53.7651 91.7239 53.3052 92.206 52.9986C92.6968 52.692 93.4114 52.5387 94.3498 52.5387H95.5637V52.0198C95.5637 51.6425 95.4518 51.3516 95.228 51.1472C95.0041 50.9428 94.6554 50.8406 94.1819 50.8406C93.7859 50.8406 93.463 50.9192 93.2133 51.0764C92.9637 51.2337 92.7527 51.4341 92.5806 51.6778L91.7411 50.9821C91.965 50.6362 92.2792 50.3531 92.6839 50.133C93.0885 49.905 93.618 49.791 94.2723 49.791C95.1419 49.791 95.8091 49.9758 96.274 50.3453C96.7389 50.7148 96.9714 51.2454 96.9714 51.9373V55.0151H97.6816V56.0646H96.8939ZM94.0528 55.2274C94.4918 55.2274 94.8534 55.1409 95.1376 54.9679C95.4217 54.7871 95.5637 54.5473 95.5637 54.2486V53.3642H94.3756C93.4027 53.3642 92.9163 53.6393 92.9163 54.1896V54.4019C92.9163 54.677 93.0153 54.8854 93.2133 55.0269C93.42 55.1605 93.6998 55.2274 94.0528 55.2274Z" fill="#E3E3E3"/>
<path d="M71.8546 0.939376C72.442 0.799594 73.0502 0.844206 73.6495 0.838258C76.8228 0.838258 79.9947 0.844205 83.1666 0.83677C85.186 0.808516 87.2247 0.958707 89.1876 1.46133C91.3706 2.09481 93.445 3.34542 94.7507 5.2414C96.2243 7.35598 96.886 9.95385 96.9678 12.5071C96.9663 15.2314 96.9931 17.9586 96.9544 20.6829C96.7492 23.0428 96.2199 25.4771 94.8161 27.4341C93.5149 29.4178 91.3706 30.7309 89.1073 31.3405C87.4136 31.7837 85.6574 31.9577 83.9101 31.9547C81.4312 31.9681 78.9523 31.9562 76.4748 31.9607C74.5684 31.9532 72.607 32.0424 70.775 31.4164C69.2344 30.9004 68.076 29.6884 67.041 28.4899C65.9585 27.1352 64.9562 25.718 63.8885 24.3514C63.1093 23.3447 62.6111 22.0391 62.9026 20.7602C63.2044 19.8264 63.7561 19.0025 64.3465 18.2293C66.0506 15.9675 67.737 13.6938 69.4471 11.4394C69.6463 11.1182 70.0538 11.2193 70.3705 11.1955C74.4391 11.2223 78.5091 11.1569 82.5762 11.2372C81.4758 12.8714 80.2326 14.4076 79.0578 15.9898C77.3552 18.2516 75.6466 20.5104 73.9484 22.7767C73.5171 23.3863 73.0873 24.0763 73.1632 24.857C73.1439 25.7612 73.8948 26.5047 74.7469 26.6757C75.8072 26.8705 76.8882 26.8095 77.9619 26.817C79.6497 26.8021 81.3375 26.8259 83.0253 26.8214C84.1019 26.7798 85.3451 26.5508 85.9815 25.5842C86.6061 24.7306 86.5436 23.6272 86.615 22.625C86.5109 20.9416 86.7325 19.2524 86.5674 17.569C86.5659 15.9838 86.7013 14.3957 86.5645 12.8105C86.6284 11.3204 86.67 9.8215 86.4827 8.33743C86.3711 7.6296 85.9577 6.99463 85.3659 6.59461C84.6566 6.05482 83.7287 6.02061 82.8766 5.93734C78.4853 5.89719 74.0941 5.97749 69.7043 5.90611C69.566 4.85923 69.5452 3.75733 69.8456 2.73721C70.1252 1.83309 70.9296 1.12526 71.8546 0.939376Z" fill="#E3E3E3"/>
<path d="M3.48475 11.3202C4.11228 11.1923 4.75617 11.2131 5.39412 11.2086C13.0792 11.2131 20.7642 11.1997 28.4493 11.2057C30.027 11.2607 31.6687 11.28 33.1275 11.9596C34.6755 12.6496 35.8176 13.9611 36.8288 15.2772C37.7403 16.4534 38.6474 17.6356 39.5084 18.8506C40.078 19.6521 40.6431 20.5636 40.5672 21.5912C40.5568 23.2492 39.3285 24.5028 38.4348 25.7787C36.9686 27.6896 35.5351 29.6272 34.1001 31.5618C33.6257 32.2117 32.7008 32.0035 32.0108 31.9767C29.9795 31.9321 27.9452 31.9782 25.9139 31.9574C25.1689 31.9336 24.4268 32.0734 23.6833 32.002C22.7881 31.9202 21.887 31.9812 20.9903 31.9247C21.0587 31.6421 21.1821 31.3804 21.3635 31.1529C23.7948 27.9751 26.1711 24.7571 28.5742 21.557C29.1452 20.7242 29.9334 19.9971 30.1906 18.9874C30.43 18.2825 30.2144 17.4498 29.6359 16.9754C29.0649 16.4847 28.2753 16.4044 27.5571 16.3449C24.3822 16.3389 21.2059 16.3449 18.031 16.3419C17.6325 16.336 17.2355 16.3746 16.8414 16.4222C16.7611 17.0497 16.7834 17.6817 16.7908 18.3108C16.7849 26.32 16.7938 34.3292 16.7849 42.3385C14.3268 42.389 11.8672 42.3325 9.40766 42.3578C8.44554 42.3444 7.48193 42.3964 6.52427 42.3087C6.44249 41.4492 6.49007 40.5867 6.4871 39.7257C6.47817 33.0831 6.4871 26.4419 6.47966 19.8008C6.44843 18.6736 6.54063 17.542 6.42315 16.4192C4.72792 16.2304 3.01336 16.4401 1.31366 16.2928C1.31069 15.0467 1.00436 13.6533 1.72111 12.5395C2.09287 11.8971 2.77989 11.4986 3.48475 11.3202Z" fill="#E3E3E3"/>
<path d="M52.8816 11.2286C56.4833 11.1706 60.0849 11.2182 63.6865 11.2004C64.3825 11.1989 65.0799 11.1959 65.7758 11.245C65.4026 12.0004 64.8271 12.6294 64.3289 13.303C60.1488 18.8408 56.0044 24.4083 51.8303 29.952C51.2979 30.6048 50.9113 31.3959 50.2377 31.9179C47.6874 32.0279 45.1237 31.9134 42.569 31.9759C41.6277 32.0993 40.6864 31.9298 39.7436 31.9565C38.9911 31.9372 38.2372 32.1142 37.4922 31.9476C37.5561 31.7722 37.5993 31.5863 37.7138 31.4346C39.6097 28.9245 41.4938 26.4039 43.3824 23.8878C44.9468 21.7361 46.6033 19.6572 48.1692 17.5084C49.7291 15.4072 51.3485 13.3506 52.8816 11.2286Z" fill="#E3E3E3"/>
</svg>
