<svg width="258" height="59" viewBox="0 0 258 59" fill="none" xmlns="http://www.w3.org/2000/svg">
<path d="M4.90631 0.612535C18.9485 0.0677182 33.0259 0.489511 47.0856 0.401638C50.8818 -0.178328 54.4495 3.17844 54.3089 6.95701C54.5198 21.1398 54.3264 35.3402 54.3967 49.5406C54.8009 53.1961 52.9556 57.9589 48.6849 58.0467C35.1173 58.574 21.4969 58.2225 7.89402 58.2401C3.74638 58.7497 -0.102483 55.2699 0.231437 51.052C0.178713 36.5177 0.161138 21.9834 0.249012 7.4491C0.125988 4.54927 1.90104 1.24522 4.90631 0.612535ZM27.2789 5.07651C25.9081 10.5598 24.59 16.0783 23.3949 21.6143C18.2631 19.1539 13.0961 16.7637 7.91159 14.4263C11.5847 18.8375 15.2051 23.3015 18.6849 27.8709C13.4652 30.1732 8.31581 32.6337 3.27186 35.3402C8.96607 35.4105 14.6427 35.4456 20.3369 35.4632C19.054 40.8411 17.9116 46.2541 16.9098 51.7023C20.4072 47.414 23.8167 43.0379 27.2614 38.697C30.8115 43.1258 34.3264 47.5898 37.8589 52.0538C36.7693 46.5001 35.5566 40.9993 34.221 35.5159C39.9152 35.4808 45.5918 35.3578 51.2684 35.182C46.2069 32.7216 41.1454 30.2787 36.0839 27.8182C39.3703 23.2488 42.815 18.7848 46.3651 14.3911C41.3211 16.8516 36.2245 19.2242 31.0927 21.4737C29.7218 16.0256 28.474 10.5598 27.2789 5.07651Z" fill="#797979"/>
<path d="M27.2786 5.07666C28.4736 10.56 29.7214 16.0257 31.0923 21.4739C36.2241 19.2243 41.3208 16.8517 46.3647 14.3913C42.8146 18.7849 39.37 23.2489 36.0835 27.8183C41.145 30.2788 46.2065 32.7217 51.2681 35.1822C45.5914 35.3579 39.9148 35.4809 34.2206 35.5161C35.5563 40.9994 36.7689 46.5003 37.8585 52.0539C34.326 47.5899 30.8111 43.1259 27.261 38.6971C23.8163 43.0381 20.4068 47.4142 16.9095 51.7024C17.9112 46.2542 19.0536 40.8412 20.3365 35.4634C14.6423 35.4458 8.96569 35.4106 3.27148 35.3403C8.31543 32.6338 13.4648 30.1734 18.6845 27.8711C15.2047 23.3016 11.5843 18.8377 7.91121 14.4264C13.0958 16.7639 18.2627 19.154 23.3945 21.6145C24.5896 16.0784 25.9077 10.56 27.2786 5.07666Z" fill="#CECECD"/>
<path d="M78.2607 16.6933C80.563 16.6406 82.8653 16.5703 85.1676 16.5176C88.0323 22.8269 90.8091 29.1538 93.5859 35.4983C96.4506 29.2065 99.3504 22.9324 102.074 16.5879C104.236 16.6055 106.38 16.623 108.542 16.6406C108.56 25.0237 108.56 33.4245 108.56 41.8076C107.136 41.8428 104.306 41.8779 102.883 41.8955C102.9 37.0624 102.83 32.2294 102.707 27.3963C100.827 32.247 98.8407 37.0273 96.7142 41.7725C94.6931 41.8603 92.672 41.9306 90.6509 41.9658C88.4892 37.0624 86.3627 32.1239 84.2889 27.1854C84.2889 32.1064 84.2537 37.0273 84.2537 41.9482C82.7599 41.9306 79.7546 41.8779 78.2607 41.8428C78.2432 33.4596 78.2607 25.0765 78.2607 16.6933Z" fill="#CECECD"/>
<path d="M121.934 16.728C124.694 16.6577 127.435 16.605 130.194 16.5347C133.955 24.9705 137.646 33.4416 141.302 41.9301C139.738 41.9301 136.609 41.9126 135.028 41.895C134.448 40.6472 133.252 38.134 132.655 36.8862C128.437 36.8862 124.237 36.8686 120.019 36.7807C119.14 38.4679 118.279 40.1902 117.453 41.895C115.238 41.895 113.024 41.8774 110.81 41.8774C114.781 33.5997 118.49 25.2166 121.934 16.728ZM121.636 32.0707C124.641 32.0707 127.646 32.0707 130.651 32.0707C129.105 28.5031 127.558 24.9178 126.012 21.315C124.571 24.9178 123.112 28.5031 121.636 32.0707Z" fill="#CECECD"/>
<path d="M143.938 16.5872C151.952 16.5697 159.984 16.5697 167.998 16.6048C167.963 17.8526 167.892 20.3658 167.875 21.6312C161.882 21.6136 155.871 21.6312 149.878 21.6312C149.878 22.8966 149.878 25.4273 149.878 26.7103C155.116 26.7103 160.335 26.7103 165.572 26.7278C165.572 27.9405 165.572 30.3658 165.572 31.5785C160.353 31.596 155.116 31.596 149.896 31.6136C149.896 32.9317 149.878 35.5504 149.861 36.8509C155.854 36.8509 161.847 36.8685 167.84 36.8509C167.892 38.1163 168.015 40.6294 168.068 41.8773C160.019 41.93 151.97 41.9124 143.92 41.93C143.92 33.4765 143.903 25.0407 143.938 16.5872Z" fill="#CECECD"/>
<path d="M172.778 16.6052C180.265 16.8512 187.822 15.9373 195.239 17.0445C198.894 20.8582 196.68 27.2027 196.539 32.0006C195.309 32.3345 192.849 33.0024 191.601 33.3363C193.481 36.201 195.344 39.0481 197.225 41.9128C195.643 41.9128 192.497 41.9303 190.915 41.9303C189.017 39.0129 187.102 36.0955 185.204 33.1781C183.077 33.1606 180.951 33.1254 178.824 33.1078C178.648 36.0428 178.473 38.9954 178.332 41.9479C176.944 41.9303 174.167 41.9303 172.796 41.9128C172.778 33.4769 172.778 25.041 172.778 16.6052ZM178.473 21.7194C178.455 23.8284 178.455 25.9373 178.455 28.0463C182.708 28.099 186.979 28.1166 191.249 28.1342C191.267 25.9549 191.284 23.7757 191.302 21.5964C187.031 21.614 182.743 21.6491 178.473 21.7194Z" fill="#CECECD"/>
<path d="M202.6 17.2381C209.613 16.3242 216.73 16.3067 223.778 16.8339C226.291 18.0993 225.606 21.21 226.115 23.4947C225.043 23.5475 222.934 23.6529 221.862 23.6881C221.23 23.1784 219.947 22.1415 219.296 21.6142C215.448 21.6318 211.599 21.6318 207.75 21.6318C207.75 22.9148 207.75 25.4455 207.75 26.7109C213.391 27.1679 219.683 25.551 224.938 27.7478C226.063 31.8427 227.574 38.732 223.778 41.6494C217.152 42.1767 210.421 42.1942 203.778 41.6318C201.247 40.4016 202.39 36.9042 201.722 34.7426C207.803 36.1661 213.919 37.6072 220.245 36.8515C220.228 35.5686 220.228 32.9675 220.21 31.667C214.428 31.1925 208.101 32.9148 202.653 30.4368C201.458 26.1309 202.143 21.6142 202.6 17.2381Z" fill="#CECECD"/>
<path d="M231.775 16.6053C233.726 16.5877 235.694 16.5877 237.645 16.5877C237.645 20.0148 237.645 23.4594 237.662 26.8865C243.146 21.7898 248.453 14.303 257.083 16.535C252.601 20.542 248.032 24.4612 243.48 28.3803C248.19 32.8443 252.812 37.4313 257.504 41.948C254.763 41.948 252.021 41.948 249.297 41.9656C245.272 38.2749 241.423 34.426 237.68 30.4717C237.662 34.2679 237.627 38.0816 237.627 41.8953C235.676 41.9129 233.726 41.9304 231.792 41.948C231.757 33.4946 231.775 25.0587 231.775 16.6053Z" fill="#CECECD"/>
</svg>
