<svg width="249" height="37" viewBox="0 0 249 37" fill="none" xmlns="http://www.w3.org/2000/svg">
<path d="M26.3868 4.622C32.1668 1.85386 38.5602 0.140097 44.9969 0.35097C49.8503 0.35097 54.7069 0.354317 59.5603 0.347623C57.5036 3.91909 55.4669 7.50059 53.4069 11.0687C49.7269 11.0988 46.0469 11.0587 42.3669 11.0888C40.3835 11.1892 38.1635 11.3633 36.6535 12.8193C41.8969 12.9264 47.1436 12.8159 52.3903 12.8762C50.3103 16.4878 48.2669 20.1229 46.1602 23.7178C39.7902 23.6944 33.4168 23.7077 27.0468 23.7111C24.7335 27.9252 22.4334 32.1427 20.0834 36.3334H0V35.7577L0.0466669 36.33C3.08335 30.931 6.20336 25.5822 9.25671 20.1932C13.0601 13.2846 19.3834 8.04284 26.3868 4.622Z" fill="#CECECD"/>
<path d="M69.1292 4.02603C74.5426 1.70977 80.3993 0.170059 86.3193 0.350808C93.806 0.354155 101.296 0.34746 108.783 0.354155C106.736 3.93566 104.693 7.52386 102.623 11.092C96.416 11.0685 90.2094 11.0786 84.0027 11.0853C82.3326 11.0786 80.7293 11.7514 79.4626 12.8258C86.8493 12.9162 94.2394 12.8225 101.626 12.8727C99.5494 16.4843 97.4827 20.0993 95.4027 23.7076C87.766 23.7243 80.1293 23.6708 72.4926 23.7377C73.5659 25.2875 75.5926 25.4816 77.3193 25.4716C83.006 25.4682 88.696 25.4716 94.386 25.4682C92.3194 29.0899 90.2527 32.7116 88.186 36.3332H66.7026C62.0192 35.9952 57.0692 34.7466 53.6492 31.3225C51.2992 29.0095 50.0892 25.5552 50.6492 22.285C51.1158 19.0951 52.8925 16.2734 54.9825 13.8902C58.8492 9.54892 63.8526 6.36238 69.1292 4.02603Z" fill="#CECECD"/>
<path d="M105.602 12.5076C112.895 5.52529 122.702 1.35468 132.695 0.400725C141.142 0.28692 149.595 0.377295 158.049 0.353864C155.949 3.99227 153.905 7.66081 151.772 11.2758C145.622 11.239 139.469 11.2724 133.318 11.2557C131.715 11.2088 130.018 11.6406 128.875 12.8255C136.209 12.9126 143.545 12.8389 150.879 12.8691C149.215 15.761 147.619 18.6932 145.879 21.5383C142.632 26.2646 137.695 29.5113 132.598 31.9247C127.262 34.3949 121.488 35.948 115.618 36.3329H90.7383C92.8483 32.7447 94.885 29.1164 96.9683 25.5114C102.322 25.5014 107.678 25.5047 113.035 25.4847C114.985 25.4813 117.048 25.0796 118.552 23.7408C111.705 23.6638 104.855 23.724 98.0083 23.7106C100.265 19.8045 102.252 15.6238 105.602 12.5076Z" fill="#CECECD"/>
<path d="M157.913 9.19099C164.656 3.8522 173.133 0.889931 181.673 0.371115C189.679 0.324254 197.686 0.364421 205.693 0.351032C203.659 3.93254 201.603 7.504 199.553 11.0755C195.483 11.0889 191.416 11.0721 187.349 11.0822C182.949 11.1324 178.423 12.0863 174.733 14.59C172.879 15.8754 171.199 17.5958 170.463 19.7748C170.009 21.1271 170.059 22.7907 171.063 23.8886C172.116 25.0902 173.793 25.4383 175.323 25.4651C180.933 25.4818 186.543 25.4584 192.153 25.4751C190.096 29.1001 188.026 32.7218 185.946 36.3334H165.376C160.593 36.0523 155.519 34.7737 152.046 31.2557C149.463 28.7119 148.376 24.7856 149.313 21.271C150.556 16.3373 154.039 12.3139 157.913 9.19099Z" fill="#CECECD"/>
<path d="M223.972 0.89309C227.372 0.166747 230.858 0.337454 234.308 0.387662C238.392 0.772591 242.618 1.99097 245.695 4.83944C247.615 6.58333 248.792 9.0703 248.998 11.6577V13.1171C248.485 18.1245 245.325 22.3855 241.718 25.6758C235.098 31.5869 226.565 35.1048 217.842 36.3333H208.688C204.912 35.7174 201.035 34.4689 198.258 31.7041C195.815 29.2907 194.675 25.6256 195.382 22.2482C189.638 21.9872 183.851 22.6064 178.328 24.2264C178.741 23.5336 179.151 22.834 179.555 22.1311C187.525 20.0458 195.975 19.6073 204.042 21.4014C205.865 21.8097 207.672 22.3018 209.505 22.6834C213.525 23.5737 217.658 23.8248 221.768 23.7913C222.055 23.3126 222.332 22.8306 222.622 22.3487C219.275 22.3453 215.922 22.1712 212.618 21.6223C209.108 21.0131 205.705 19.8818 202.175 19.3663C194.925 18.1479 187.408 18.6266 180.365 20.752C180.748 20.0592 181.135 19.3696 181.515 18.6734C188.048 16.9028 194.938 16.3471 201.655 17.2642C205.635 17.7329 209.435 19.1119 213.395 19.6876C216.845 20.2399 220.355 20.3671 223.845 20.2299C224.102 19.7546 224.362 19.2826 224.628 18.8107C221.305 18.8441 217.968 18.7939 214.682 18.2785C210.705 17.7563 206.905 16.3739 202.935 15.8216C196.058 14.7672 188.885 15.0384 182.238 17.1705C182.848 16.5145 183.235 15.6944 183.675 14.9246C190.745 13.2376 198.175 12.8058 205.332 14.2183C208.028 14.707 210.652 15.5371 213.352 16.0124C217.445 16.8023 221.638 16.9094 225.795 16.7923C226.068 16.3003 226.348 15.8116 226.632 15.3262C221.408 15.507 216.132 15.1789 211.055 13.8735C207.925 13.0635 204.765 12.3238 201.538 12.046C207.672 6.16158 215.682 2.45623 223.972 0.89309Z" fill="#CECECD"/>
</svg>
