<svg width="1250" height="704" viewBox="0 0 1250 704" fill="none" xmlns="http://www.w3.org/2000/svg">
<path d="M136.562 417.54C166.987 470.153 240.107 458.684 245.505 460.319C255.319 458.746 292.451 422.622 309.791 404.756C360.336 377.22 428.058 432.783 446.215 432.783C493.815 442.893 530.622 466.868 591.473 459.333C635.148 453.925 648.888 386.563 728.387 412.623C744.425 418.349 782.587 443.863 806.927 500.114C808.563 511.915 823.612 535.321 870.722 534.534C887.734 537.146 932.555 529.395 975.739 477.496C1011.56 444.06 1096.17 413.279 1147.99 557.645C1152.08 567.806 1151.32 597.866 1115.6 636.81M136.562 417.54C123.585 406.749 98.2843 391.48 86.998 333.949M136.562 417.54C103.585 419.507 81.2724 428.522 74.2383 432.783M136.562 417.54C156.191 445.076 179.256 500.312 181.218 523.749C179.647 568.986 170.257 598.981 172.875 606.848" stroke="#B5B5B5" stroke-width="3" stroke-linecap="round" stroke-dasharray="10 10"/>
<path d="M1146.17 572.627C1152.54 572.627 1157.7 567.239 1157.7 560.593C1157.7 553.946 1152.54 548.559 1146.17 548.559C1139.8 548.559 1134.63 553.946 1134.63 560.593C1134.63 567.239 1139.8 572.627 1146.17 572.627Z" fill="#E8CF99"/>
<path d="M1108.55 651.852C1115.2 651.852 1120.58 646.464 1120.58 639.817C1120.58 633.171 1115.2 627.783 1108.55 627.783C1101.9 627.783 1096.51 633.171 1096.51 639.817C1096.51 646.464 1101.9 651.852 1108.55 651.852Z" fill="#E8CF99"/>
<path d="M814.105 519.477C820.477 519.477 825.642 514.089 825.642 507.442C825.642 500.796 820.477 495.408 814.105 495.408C807.734 495.408 802.568 500.796 802.568 507.442C802.568 514.089 807.734 519.477 814.105 519.477Z" fill="#E8CF99"/>
<path d="M592.396 469.334C598.768 469.334 603.933 463.946 603.933 457.3C603.933 450.654 598.768 445.266 592.396 445.266C586.025 445.266 580.859 450.654 580.859 457.3C580.859 463.946 586.025 469.334 592.396 469.334Z" fill="#E8CF99"/>
<path d="M716.793 422.199C723.164 422.199 728.33 416.811 728.33 410.165C728.33 403.519 723.164 398.131 716.793 398.131C710.421 398.131 705.256 403.519 705.256 410.165C705.256 416.811 710.421 422.199 716.793 422.199Z" fill="#E8CF99"/>
<path d="M133.929 430.222C141.963 430.222 148.476 423.487 148.476 415.179C148.476 406.872 141.963 400.137 133.929 400.137C125.896 400.137 119.383 406.872 119.383 415.179C119.383 423.487 125.896 430.222 133.929 430.222Z" fill="#E8CF99"/>
<path d="M88.5465 344.085C96.5804 344.085 103.093 337.351 103.093 329.043C103.093 320.735 96.5804 314 88.5465 314C80.5127 314 74 320.735 74 329.043C74 337.351 80.5127 344.085 88.5465 344.085Z" fill="#E8CF99"/>
<path d="M245.787 471.34C252.435 471.34 257.825 465.952 257.825 459.306C257.825 452.659 252.435 447.271 245.787 447.271C239.138 447.271 233.748 452.659 233.748 459.306C233.748 465.952 239.138 471.34 245.787 471.34Z" fill="#E8CF99"/>
<path d="M73.7361 445.265C80.1078 445.265 85.2731 440.101 85.2731 433.732C85.2731 427.363 80.1078 422.199 73.7361 422.199C67.3645 422.199 62.1992 427.363 62.1992 433.732C62.1992 440.101 67.3645 445.265 73.7361 445.265Z" fill="#E8CF99"/>
<path d="M307.484 415.18C313.856 415.18 319.021 409.792 319.021 403.146C319.021 396.499 313.856 391.111 307.484 391.111C301.113 391.111 295.947 396.499 295.947 403.146C295.947 409.792 301.113 415.18 307.484 415.18Z" fill="#E8CF99"/>
<path d="M178.07 526.496C184.442 526.496 189.607 521.108 189.607 514.462C189.607 507.816 184.442 502.428 178.07 502.428C171.698 502.428 166.533 507.816 166.533 514.462C166.533 521.108 171.698 526.496 178.07 526.496Z" fill="#E8CF99"/>
<path d="M172.051 612.741C178.422 612.741 183.588 607.578 183.588 601.209C183.588 594.839 178.422 589.676 172.051 589.676C165.679 589.676 160.514 594.839 160.514 601.209C160.514 607.578 165.679 612.741 172.051 612.741Z" fill="#E8CF99"/>
<path d="M443.92 445.265C450.291 445.265 455.457 440.101 455.457 433.732C455.457 427.363 450.291 422.199 443.92 422.199C437.548 422.199 432.383 427.363 432.383 433.732C432.383 440.101 437.548 445.265 443.92 445.265Z" fill="#E8CF99"/>
<path d="M716.579 434.14C730.153 434.14 741.157 423.139 741.157 409.57C741.157 396 730.153 385 716.579 385C703.004 385 692 396 692 409.57C692 423.139 703.004 434.14 716.579 434.14Z" fill="white"/>
<path d="M716.58 424.11C724.614 424.11 731.126 417.6 731.126 409.569C731.126 401.538 724.614 395.027 716.58 395.027C708.546 395.027 702.033 401.538 702.033 409.569C702.033 417.6 708.546 424.11 716.58 424.11Z" fill="#F1B83B"/>
</svg>
