<svg width="102" height="67" viewBox="0 0 102 67" fill="none" xmlns="http://www.w3.org/2000/svg">
<path d="M45.8931 0H48.9748C48.283 1.52201 47.8428 3.77358 45.8302 4.02516C39.7673 4.85534 33.5535 5.48427 27.9308 8.1132C21.7547 10.566 16.7484 15.0314 11.8428 19.3711C19.6918 8.32704 32.4969 1.39623 45.8931 0Z" fill="#CECECD"/>
<path d="M2.57334 26.4277C6.68654 24.9308 14.1331 24.6038 13.6677 30.9308C11.0262 31.6981 9.54189 29.9245 7.50415 28.9811C2.96327 28.3773 4.92554 34.3648 5.0639 36.9434C7.07648 36.9685 9.34063 37.2075 9.96956 34.7421C11.2148 34.717 12.4475 34.7044 13.6928 34.6918C13.5042 37.0188 12.8878 39.9119 10.045 40.1635C6.83749 40.3773 0.975853 41.1446 0.711703 36.5157C0.938118 33.2578 -0.684523 28.5534 2.57334 26.4277Z" fill="#CECECD"/>
<path d="M15.0146 25.6857C17.065 25.6857 19.1027 25.6857 21.1404 25.6983C22.0461 28.7298 23.0021 31.7486 23.9958 34.7549C24.914 31.736 25.7819 28.7046 26.6121 25.6606C28.7379 25.6103 30.8511 25.5851 32.9643 25.5474C32.9769 30.3524 33.0398 35.1448 33.0524 39.9499C32.0838 39.975 30.1467 40.0128 29.1782 40.0379C29.2914 36.2392 29.4046 32.4279 29.4801 28.6291C28.2096 32.4153 27.0021 36.2266 25.7568 40.0128C24.914 40.0253 23.2285 40.0631 22.3857 40.0757C21.1153 36.3398 19.7945 32.6165 18.5241 28.8681C18.5744 32.6165 18.826 36.3524 18.9266 40.0882C17.958 40.1008 16.0209 40.1134 15.0524 40.126C15.0524 35.3084 15.0146 30.5033 15.0146 25.6857Z" fill="#CECECD"/>
<path d="M38.3851 25.5346C40.36 25.5094 42.3348 25.4843 44.3222 25.4717C45.7813 30.2893 47.3537 35.0817 48.8128 39.9245C46.6367 39.9497 44.0203 40.4025 43.9449 37.371C41.5675 37.522 38.3348 36.6541 37.9197 39.9245C36.6493 39.9497 35.3788 39.9748 34.1084 40C35.5424 35.1824 36.9512 30.3522 38.3851 25.5346ZM39.6681 34.6289C40.8757 34.6163 42.0832 34.6163 43.2908 34.6038C42.6744 32.566 42.0581 30.5157 41.4291 28.478C40.8254 30.5157 40.2593 32.5786 39.6681 34.6289Z" fill="#CECECD"/>
<path d="M55.3041 26.3399C59.3544 24.3776 67.3544 23.9751 66.9645 30.4405C66.0462 30.4531 64.1972 30.4782 63.2664 30.4908C62.4488 27.8996 59.8827 28.7047 57.9833 28.994C58.0085 31.2833 57.7066 33.6103 58.2727 35.8493C59.5934 37.1197 63.3922 36.9688 63.1406 34.2518C64.1091 34.2518 66.0337 34.2644 66.9896 34.277C67.0525 36.8179 65.8198 39.7864 62.889 39.7864C59.9079 39.8996 54.8513 40.6418 54.0588 36.6795C53.8198 33.321 52.801 29.082 55.3041 26.3399Z" fill="#CECECD"/>
<path d="M68.2329 31.3709C68.0819 29.0061 68.7486 25.9495 71.5033 25.4715C75.3901 24.6791 81.8304 24.1885 81.8681 29.7734C78.5473 30.2011 75.7801 27.4967 72.4593 28.5281C72.258 31.1696 72.258 33.8237 72.6228 36.4526C74.6857 36.5533 77.6039 37.069 78.1574 34.3394C77.3775 34.2891 75.8178 34.1633 75.0253 34.1005C75.0253 33.4464 75.0128 32.1382 75.0128 31.4841C77.2392 31.4715 79.4656 31.4464 81.7046 31.4338C81.4027 33.8992 82.2832 37.0564 80.1826 38.9181C77.126 40.1382 73.4907 40.0753 70.3964 39.0438C67.692 37.5344 68.3838 33.9495 68.2329 31.3709Z" fill="#CECECD"/>
<path d="M83.2285 25.1573C85.2788 25.1447 87.3291 25.1322 89.392 25.107C90.3606 28.1762 91.3291 31.2579 92.3354 34.3145C93.1908 31.3586 93.8574 28.3523 94.914 25.4592C96.7254 24.5535 99.153 25.2705 101.166 24.9938C101.191 29.7988 101.216 34.5913 101.229 39.3963C100.298 39.4215 98.4109 39.4466 97.4801 39.4718C97.5807 35.6982 97.6939 31.9246 97.7568 28.151C96.4864 31.9246 95.2788 35.7108 94.0587 39.4844C93.2034 39.4969 91.5178 39.4969 90.6751 39.5095C89.392 35.7737 88.1342 32.0378 86.7883 28.3271C86.8889 32.063 87.0776 35.7988 87.2285 39.5347C86.26 39.5472 84.3229 39.5724 83.3543 39.585C83.304 34.78 83.2663 29.9749 83.2285 25.1573Z" fill="#CECECD"/>
<path d="M72.5995 59.0818C79.329 56.6416 84.9014 52.0001 90.1089 47.2202C82.285 58.4278 69.2536 65.2076 55.7945 66.6667H52.9014C53.6435 65.2454 53.8196 62.9435 55.7567 62.6164C61.4171 61.7359 67.2536 61.346 72.5995 59.0818Z" fill="#CECECD"/>
</svg>
