<svg width="208" height="55" viewBox="0 0 208 55" fill="none" xmlns="http://www.w3.org/2000/svg">
<path d="M1.55762 28.0982C19.2843 28.0931 37.0109 28.088 54.7376 28.0982C54.6303 29.268 54.5026 30.4328 54.3647 31.5975C36.8985 31.5822 19.4324 31.618 1.9663 31.5771H1.88967C1.77728 30.4175 1.68533 29.2527 1.55762 28.0982Z" fill="#CECECD"/>
<path d="M3.15723 36.2669C19.7702 36.2516 36.3883 36.2465 53.0013 36.2669C52.4956 37.3908 51.9745 38.5095 51.4279 39.613H51.3206C35.8264 39.5875 20.3322 39.567 4.83794 39.6232H4.6949C4.16361 38.5147 3.66297 37.3857 3.15723 36.2669Z" fill="#CECECD"/>
<path d="M7.82031 44.1489C21.2558 44.1847 34.6964 44.1234 48.137 44.1847C47.1459 45.2319 46.1038 46.2332 45.031 47.2038C33.6542 47.1936 22.2775 47.1885 10.9008 47.2038C9.83819 46.223 8.8267 45.186 7.82031 44.1489Z" fill="#CECECD"/>
<path d="M17.2041 51.0356C24.3101 51.1685 31.4161 51.0612 38.5221 51.0969C31.881 54.1825 23.8248 54.1825 17.2041 51.0356Z" fill="#CECECD"/>
<path d="M23.8626 0.3592C30.8511 -0.810657 38.279 0.951791 44.0465 5.06417C49.3696 8.83939 53.3236 14.5456 54.8102 20.916C56.4092 27.7921 55.4079 35.3323 51.6838 41.3808C47.6634 48.1241 40.6085 52.9772 32.8537 54.2441C24.8077 55.7052 16.1538 53.2837 10.0389 47.8585C4.45527 43.0615 1.1245 35.9249 0.70049 28.6044C0.450171 22.0194 2.57533 15.3068 6.78477 10.2034C10.9789 4.93646 17.2113 1.36558 23.8626 0.3592ZM11.1781 7.00031C5.10917 11.9965 1.69155 19.7819 1.5434 27.5878L1.55873 28.0986C1.68644 29.2531 1.77839 30.4179 1.89078 31.5775H1.96741C2.22284 33.1714 2.62641 34.7397 3.1577 36.2672C3.66345 37.3859 4.16409 38.5149 4.69537 39.6235H4.83841C5.63535 41.2531 6.64173 42.7704 7.8218 44.1497C8.82819 45.1867 9.83968 46.2237 10.9023 47.2046C12.8793 48.6605 14.8614 50.2288 17.2062 51.036C23.8269 54.1828 31.8831 54.1828 38.5242 51.0973C40.9558 50.3208 42.9993 48.6912 45.0325 47.2046C46.1053 46.2339 47.1474 45.2327 48.1385 44.1854C49.3492 42.7755 50.4373 41.2531 51.3211 39.6133H51.4284C51.975 38.5098 52.496 37.3911 53.0018 36.2672C53.5535 34.7397 54.0133 33.1816 54.3658 31.598C54.5037 30.4332 54.6314 29.2685 54.7387 28.0986L54.7642 27.5878C54.5957 21.8611 52.777 16.1395 49.3287 11.5367C45.293 6.06545 39.1168 2.18806 32.3786 1.15102C24.9099 -0.080135 16.9406 2.07056 11.1781 7.00031Z" fill="#CECECD"/>
<path d="M63.6951 19.2577C66.1012 17.7252 69.1765 17.8273 71.8739 18.3331C74.4945 18.9104 76.303 21.2552 76.6401 23.8503C74.8828 23.8452 73.1152 23.9934 71.363 23.7737C70.5865 23.0891 70.0041 21.8835 68.7883 22.0368C67.8994 21.9193 67.363 22.8031 66.7347 23.2475C68.8751 25.2909 72.0578 25.5821 74.2289 27.5591C76.5533 29.5719 76.2723 33.6945 73.7998 35.4672C72.068 36.7341 69.8304 37.0457 67.7359 37.0457C65.3758 36.964 62.7858 36.4122 61.1561 34.5578C60.1753 33.5259 60.0067 32.0598 59.7666 30.7264C61.5904 30.706 63.4192 30.7009 65.2481 30.7162C65.7436 31.9729 66.7909 33.1121 68.2723 32.8516C69.3656 33.0099 69.8764 31.9627 70.3924 31.2117C68.2417 29.342 65.2838 28.8363 63.1229 26.987C60.7423 25.061 61.1306 20.8669 63.6951 19.2577Z" fill="#CECECD"/>
<path d="M126.608 18.3639C130.041 17.5567 134.255 17.9347 136.631 20.8517C139.062 23.9577 138.812 28.5247 137.141 31.927C134.332 37.5975 125.484 38.9053 121.285 34.1237C117.397 28.8926 120.094 19.9935 126.608 18.3639ZM128.763 22.5682C125.739 23.4315 124.932 27.217 125.412 29.95C125.627 32.1007 128.329 33.1173 130.061 31.9986C132.253 30.609 132.789 27.6818 132.6 25.2757C132.472 23.4315 130.546 22.0624 128.763 22.5682Z" fill="#CECECD"/>
<path d="M172.19 18.5374C174.27 17.8477 176.543 17.8835 178.673 18.3126C181.917 19.038 184.415 22.0929 184.43 25.4288C184.86 29.2347 183.373 33.4084 179.996 35.4518C175.904 38.0674 169.345 37.5974 166.745 33.107C164.022 27.9473 166.423 20.3918 172.19 18.5374ZM174.77 22.5987C171.654 23.6408 170.964 27.6613 171.68 30.4761C172.226 32.4275 174.852 33.0354 176.395 31.8758C178.52 30.2768 178.969 27.3088 178.612 24.8311C178.316 23.1146 176.39 22.1134 174.77 22.5987Z" fill="#CECECD"/>
<path d="M84.3736 18.4966C86.3302 18.517 88.2868 18.4966 90.2485 18.5221C89.2727 24.5298 88.4094 30.5528 87.5205 36.5757C85.5486 36.6013 83.5818 36.5859 81.6201 36.6013C82.555 30.5681 83.4847 24.5349 84.3736 18.4966Z" fill="#CECECD"/>
<path d="M97.5946 18.711C99.3009 18.2462 101.165 18.5884 102.933 18.5425C104.425 22.0061 106.264 25.3368 107.434 28.9281C108.026 25.4697 108.512 21.9958 109.048 18.5271C110.856 18.4914 112.66 18.522 114.463 18.4914C113.549 24.5348 112.619 30.568 111.689 36.6063C109.896 36.591 108.103 36.6012 106.305 36.5501C104.803 33.112 103.168 29.7302 101.671 26.2921C101.324 29.7353 100.706 33.1478 100.246 36.5756C98.4478 36.5961 96.6495 36.591 94.8564 36.5961C95.7658 30.6344 96.5372 24.6472 97.5946 18.711Z" fill="#CECECD"/>
<path d="M146.223 18.4966C148.123 18.5068 150.024 18.5068 151.924 18.4966C151.643 20.4429 151.337 22.3791 151.025 24.3152C152.92 22.3893 154.836 20.494 156.69 18.5272C158.974 18.4915 161.263 18.4864 163.551 18.5477C161.043 21.0355 158.453 23.4417 155.924 25.9091C157.728 29.4697 159.562 33.0151 161.329 36.5962C159.24 36.5911 157.15 36.5859 155.061 36.6013C153.947 34.3586 152.874 32.0955 151.822 29.8273C151.158 30.3842 150.519 30.9717 149.896 31.5694C149.625 33.2245 149.523 34.9257 149.058 36.5451C147.183 36.683 145.304 36.5808 143.429 36.5911C144.399 30.563 145.258 24.5247 146.223 18.4966Z" fill="#CECECD"/>
<path d="M189.59 36.6061C190.407 30.5627 191.393 24.5448 192.267 18.5116C195.7 18.5576 199.138 18.3941 202.571 18.578C204.711 18.6649 207.204 19.896 207.368 22.297C207.894 24.7951 206.55 27.2728 204.287 28.366C204.961 28.9841 205.901 29.5103 206.096 30.486C206.463 32.5192 205.508 34.6699 206.489 36.6112C204.389 36.5805 202.29 36.5958 200.19 36.5907C200.236 34.7721 200.696 32.9483 200.41 31.1348C199.618 29.6176 197.569 30.1642 196.175 30.0058C195.848 32.1872 195.506 34.3634 195.214 36.5499C193.34 36.6061 191.465 36.5907 189.59 36.6061ZM197.191 22.8743C197.043 23.9931 196.885 25.1118 196.732 26.2357C198.177 26.1795 199.684 26.3379 201.069 25.8424C202.305 25.4235 202.325 23.3085 201.023 22.9458C199.756 22.7568 198.463 22.8539 197.191 22.8743Z" fill="#CECECD"/>
<path d="M16.3063 10.9545C17.2718 11.2815 18.1249 10.694 18.9372 10.2598C18.9832 12.0631 19.0036 13.8715 18.8963 15.6799C17.4353 14.0197 16.3676 11.5676 13.8849 11.3121C12.1735 10.8166 9.38933 12.1193 10.4621 14.224C12.6997 16.671 16.7354 16.4258 18.9168 19.0158C20.4136 20.814 19.867 23.7055 17.9257 24.9468C15.2182 26.7604 11.7188 26.2648 8.75076 25.4526C8.19904 25.7387 7.64732 26.0298 7.09559 26.3159C7.00875 24.3083 6.98831 22.2955 7.20798 20.2981C8.56685 22.2751 9.61922 25.0286 12.3676 25.3198C14.3344 25.9226 17.3178 24.4462 16.3778 22.0758C14.3855 19.8741 10.973 19.8945 8.76609 17.9277C6.57963 16.4513 6.89125 12.8549 9.03684 11.4909C11.1926 10.0759 13.9206 10.4386 16.3063 10.9545Z" fill="#CECECD"/>
<path d="M19.7285 10.9138C22.0989 10.735 24.4692 10.8525 26.8447 10.8525C26.2777 11.3481 25.5471 11.6393 25.0312 12.191C24.6276 14.0658 24.8728 16.0122 24.8166 17.9177C26.5076 15.9815 28.4284 14.1935 29.634 11.8896C28.9137 11.5626 28.1985 11.2357 27.4424 11.0058C29.5165 10.7402 31.6059 10.7861 33.6902 10.9087C31.0695 12.0531 29.1487 14.1884 27.4271 16.3953C29.6442 19.5166 31.6672 22.7861 34.1295 25.7286C31.8869 25.7542 29.6033 25.9841 27.3964 25.4323C27.8766 25.2689 28.8371 24.9419 29.3173 24.7835C27.9635 22.6993 26.6046 20.6201 25.0721 18.6686C24.8575 20.5128 24.5816 22.4132 24.9801 24.2523C25.3377 24.8806 26.0682 25.2178 26.5535 25.7491C24.316 25.7593 22.0784 25.7797 19.8409 25.7388C20.5101 25.0543 21.8026 24.6865 21.6034 23.5013C21.6647 19.6801 21.6902 15.8436 21.5318 12.0224C20.9546 11.6188 20.362 11.2255 19.7285 10.9138Z" fill="#CECECD"/>
<path d="M34.4473 10.9393C37.3132 10.7605 40.1893 10.7809 43.0552 10.8473C44.741 10.9444 46.6311 11.2611 47.755 12.6455C48.8585 13.938 48.6695 16.0631 47.4587 17.2177C46.7282 17.8154 45.8444 18.173 45.0117 18.5919C46.7384 21.0235 48.4242 23.491 50.3961 25.7387C48.8023 25.7592 47.2135 25.7592 45.6197 25.7592C43.9338 23.3581 42.4575 20.8039 40.5264 18.5817C40.46 20.5076 40.1944 22.4795 40.6337 24.3747C41.1854 24.9724 42.0539 25.1461 42.7384 25.5497C40.0003 25.8664 37.2161 25.9431 34.4779 25.5242C35.1574 25.2534 35.801 24.9163 36.4038 24.5178C36.7563 23.3633 36.6695 22.1423 36.6899 20.9571C36.6184 17.9635 36.8432 14.9648 36.4498 11.9865C35.801 11.6034 35.142 11.2356 34.4473 10.9393ZM40.5162 11.6494C40.414 13.8154 40.4089 15.9865 40.4396 18.1525C41.6707 17.9124 43.3157 18.1372 44.036 16.8601C44.7154 15.6289 44.6388 14.0197 44.0462 12.7681C43.423 11.4093 41.7116 11.7873 40.5162 11.6494Z" fill="#CECECD"/>
</svg>
