<svg width="98" height="58" viewBox="0 0 98 58" fill="none" xmlns="http://www.w3.org/2000/svg">
<path d="M0.680664 56.0646V47.8335H4.5549C5.39002 47.8335 6.03573 48.0576 6.49203 48.5057C6.94833 48.9538 7.17648 49.5552 7.17648 50.3099C7.17648 51.0646 6.94833 51.666 6.49203 52.1142C6.03573 52.5623 5.39002 52.7863 4.5549 52.7863H2.13996V56.0646H0.680664ZM2.13996 51.6189H4.46451C4.83471 51.6189 5.12313 51.5324 5.32975 51.3594C5.53638 51.1786 5.63969 50.9231 5.63969 50.5929V50.0269C5.63969 49.6967 5.53638 49.4451 5.32975 49.2722C5.12313 49.0914 4.83471 49.0009 4.46451 49.0009H2.13996V51.6189Z" fill="#CECECD"/>
<path d="M8.13333 54.8854H8.93401L10.1609 52.6684C10.2986 52.4168 10.4407 52.2321 10.587 52.1142C10.7334 51.9962 10.9056 51.9176 11.1036 51.8783V51.8193C10.9228 51.7643 10.7592 51.6818 10.6128 51.5717C10.4665 51.4538 10.333 51.2808 10.2125 51.0528L9.16646 49.0127H8.36579V47.8335H9.07606C9.40322 47.8335 9.67872 47.9003 9.90257 48.034C10.135 48.1676 10.3373 48.3995 10.5095 48.7297L11.8397 51.3005H13.2602V47.8335H14.7195V51.3005H16.1401L17.4703 48.7297C17.6424 48.3995 17.8405 48.1676 18.0643 48.034C18.2968 47.9003 18.5766 47.8335 18.9037 47.8335H19.614V49.0127H18.8133L17.7673 51.0528C17.6467 51.2808 17.5133 51.4538 17.3669 51.5717C17.2206 51.6818 17.057 51.7643 16.8762 51.8193V51.8783C17.0742 51.9176 17.2464 51.9962 17.3928 52.1142C17.5391 52.2321 17.6812 52.4168 17.8189 52.6684L19.0458 54.8854H19.8465V56.0646H18.9425C18.6411 56.0646 18.3915 56.0017 18.1934 55.8759C18.004 55.7423 17.8103 55.4986 17.6123 55.1448L16.1401 52.4679H14.7195V56.0646H13.2602V52.4679H11.8397L10.3675 55.1448C10.1695 55.4986 9.97144 55.7423 9.77343 55.8759C9.58402 56.0017 9.33865 56.0646 9.03732 56.0646H8.13333V54.8854Z" fill="#CECECD"/>
<path d="M20.5973 54.8854H21.5529C21.7251 54.6888 21.8801 54.4569 22.0178 54.1896C22.1642 53.9145 22.2847 53.5961 22.3794 53.2344C22.4828 52.8649 22.5602 52.4443 22.6119 51.9726C22.6635 51.4931 22.6894 50.9467 22.6894 50.3335V47.8335H28.5653V54.8854H29.9084V57.8335H28.5524V56.0646H21.9533V57.8335H20.5973V54.8854ZM27.106 54.8854V49.0127H24.097V50.4868C24.097 51.0764 24.0755 51.5992 24.0324 52.0552C23.998 52.5112 23.942 52.916 23.8646 53.2698C23.7957 53.6157 23.7053 53.9184 23.5934 54.1778C23.4901 54.4294 23.3695 54.6495 23.2318 54.8382V54.8854H27.106Z" fill="#CECECD"/>
<path d="M33.5243 54.8854H34.5187C34.6909 54.7281 34.8416 54.5355 34.9707 54.3076C35.0999 54.0796 35.2032 53.7887 35.2807 53.4349C35.3668 53.0811 35.4313 52.6487 35.4744 52.1377C35.5174 51.6189 35.5389 50.9899 35.5389 50.2509V47.8335H41.3632V56.0646H39.9039V49.0127H36.9466V50.4043C36.9466 51.1983 36.9165 51.8822 36.8562 52.4561C36.8045 53.0222 36.727 53.5057 36.6237 53.9066C36.5204 54.3076 36.3913 54.6377 36.2363 54.8972C36.0899 55.1566 35.9264 55.3689 35.7456 55.534C35.5217 55.7305 35.2807 55.8759 35.0224 55.9703C34.7641 56.0568 34.4499 56.1 34.0796 56.1H33.5243V54.8854Z" fill="#CECECD"/>
<path d="M46.116 56.2061C45.6511 56.2061 45.225 56.1315 44.8375 55.9821C44.4587 55.8327 44.1359 55.6204 43.869 55.3453C43.6021 55.0623 43.3955 54.7242 43.2491 54.3311C43.1027 53.9302 43.0295 53.486 43.0295 52.9986C43.0295 52.5112 43.1027 52.0709 43.2491 51.6778C43.3955 51.2769 43.6021 50.9388 43.869 50.6637C44.1359 50.3807 44.4587 50.1645 44.8375 50.0151C45.225 49.8657 45.6511 49.791 46.116 49.791C46.5809 49.791 47.0028 49.8657 47.3816 50.0151C47.769 50.1645 48.0962 50.3807 48.3631 50.6637C48.63 50.9388 48.8366 51.2769 48.983 51.6778C49.1293 52.0709 49.2025 52.5112 49.2025 52.9986C49.2025 53.486 49.1293 53.9302 48.983 54.3311C48.8366 54.7242 48.63 55.0623 48.3631 55.3453C48.0962 55.6204 47.769 55.8327 47.3816 55.9821C47.0028 56.1315 46.5809 56.2061 46.116 56.2061ZM46.116 55.1448C46.5982 55.1448 46.9856 55.0112 47.2783 54.7439C47.571 54.4687 47.7174 54.0599 47.7174 53.5175V52.4797C47.7174 51.9373 47.571 51.5324 47.2783 51.2651C46.9856 50.9899 46.5982 50.8524 46.116 50.8524C45.6339 50.8524 45.2465 50.9899 44.9538 51.2651C44.661 51.5324 44.5147 51.9373 44.5147 52.4797V53.5175C44.5147 54.0599 44.661 54.4687 44.9538 54.7439C45.2465 55.0112 45.6339 55.1448 46.116 55.1448Z" fill="#CECECD"/>
<path d="M50.771 49.9326H55.1489V50.9821H52.1786V56.0646H50.771V49.9326Z" fill="#CECECD"/>
<path d="M56.4461 49.9326H57.8279V52.9278L57.6988 54.3783H57.7505L58.5511 53.0693L60.8757 49.9326H62.1542V56.0646H60.7724V53.0693L60.9015 51.6189H60.8498L60.0492 52.9278L57.7246 56.0646H56.4461V49.9326Z" fill="#CECECD"/>
<path d="M66.7601 56.2061C66.278 56.2061 65.8475 56.1315 65.4687 55.9821C65.0899 55.8327 64.7713 55.6204 64.513 55.3453C64.2547 55.0623 64.0567 54.7242 63.919 54.3311C63.7812 53.9302 63.7123 53.486 63.7123 52.9986C63.7123 52.5112 63.7812 52.0709 63.919 51.6778C64.0567 51.2769 64.2547 50.9388 64.513 50.6637C64.7713 50.3807 65.0899 50.1645 65.4687 50.0151C65.8475 49.8657 66.278 49.791 66.7601 49.791C67.4316 49.791 67.9826 49.9286 68.4131 50.2038C68.8436 50.4789 69.1578 50.8445 69.3558 51.3005L68.1936 51.7958C68.0988 51.5127 67.931 51.2887 67.6899 51.1236C67.4575 50.9506 67.1475 50.8642 66.7601 50.8642C66.2435 50.8642 65.8518 51.0135 65.5849 51.3123C65.3266 51.6031 65.1975 51.9844 65.1975 52.4561V53.5528C65.1975 54.0245 65.3266 54.4098 65.5849 54.7085C65.8518 54.9994 66.2435 55.1448 66.7601 55.1448C67.1733 55.1448 67.5005 55.0544 67.7416 54.8736C67.9912 54.6849 68.1892 54.4373 68.3356 54.1307L69.4075 54.6495C69.1836 55.1527 68.8479 55.5379 68.4002 55.8052C67.9525 56.0725 67.4058 56.2061 66.7601 56.2061Z" fill="#CECECD"/>
<path d="M72.2179 50.9821H70.0742V49.9326H75.7693V50.9821H73.6256V56.0646H72.2179V50.9821Z" fill="#CECECD"/>
<path d="M77.0406 49.9326H78.4225V52.9278L78.2933 54.3783H78.345L79.1456 53.0693L81.4702 49.9326H82.7487V56.0646H81.3669V53.0693L81.496 51.6189H81.4444L80.6437 52.9278L78.3191 56.0646H77.0406V49.9326Z" fill="#CECECD"/>
<path d="M84.7589 49.9326H86.1665V52.409H87.3546L88.4652 50.6991C88.6546 50.4082 88.844 50.2077 89.0334 50.0976C89.2228 49.9876 89.4639 49.9326 89.7566 49.9326H90.4411V50.9821H89.6921L88.8397 52.2793C88.7106 52.4837 88.5943 52.6252 88.491 52.7038C88.3963 52.7824 88.2672 52.8414 88.1036 52.8807V52.9278C88.2758 52.9593 88.4265 53.0182 88.5556 53.1047C88.6848 53.1833 88.8096 53.3248 88.9301 53.5293L89.8341 55.0151H90.5702V56.0646H89.7695C89.4854 56.0646 89.2401 56.0057 89.0334 55.8877C88.8354 55.7698 88.646 55.5615 88.4652 55.2627L87.3546 53.4467H86.1665V56.0646H84.7589V49.9326Z" fill="#CECECD"/>
<path d="M96.8929 56.0646C96.5227 56.0646 96.2386 55.9703 96.0406 55.7816C95.8425 55.5851 95.722 55.3374 95.679 55.0387H95.6144C95.4853 55.4239 95.2485 55.7148 94.9041 55.9113C94.5597 56.1079 94.1422 56.2061 93.6515 56.2061C92.9541 56.2061 92.416 56.041 92.0372 55.7109C91.667 55.3807 91.4819 54.9365 91.4819 54.3783C91.4819 53.7651 91.7229 53.3052 92.2051 52.9986C92.6958 52.692 93.4104 52.5387 94.3488 52.5387H95.5627V52.0198C95.5627 51.6425 95.4508 51.3516 95.227 51.1472C95.0031 50.9428 94.6544 50.8406 94.1809 50.8406C93.7849 50.8406 93.462 50.9192 93.2124 51.0764C92.9627 51.2337 92.7518 51.4341 92.5796 51.6778L91.7402 50.9821C91.964 50.6362 92.2782 50.3531 92.6829 50.133C93.0875 49.905 93.617 49.791 94.2713 49.791C95.1409 49.791 95.8081 49.9758 96.273 50.3453C96.7379 50.7148 96.9704 51.2454 96.9704 51.9373V55.0151H97.6807V56.0646H96.8929ZM94.0518 55.2274C94.4909 55.2274 94.8525 55.1409 95.1366 54.9679C95.4207 54.7871 95.5627 54.5473 95.5627 54.2486V53.3642H94.3746C93.4018 53.3642 92.9153 53.6393 92.9153 54.1896V54.4019C92.9153 54.677 93.0144 54.8854 93.2124 55.0269C93.419 55.1605 93.6988 55.2274 94.0518 55.2274Z" fill="#CECECD"/>
<path d="M71.8536 0.939376C72.441 0.799594 73.0492 0.844206 73.6485 0.838258C76.8218 0.838258 79.9937 0.844205 83.1656 0.83677C85.185 0.808516 87.2237 0.958707 89.1866 1.46133C91.3696 2.09481 93.444 3.34542 94.7497 5.2414C96.2233 7.35598 96.8851 9.95385 96.9669 12.5071C96.9654 15.2314 96.9921 17.9586 96.9535 20.6829C96.7483 23.0428 96.2189 25.4771 94.8151 27.4341C93.5139 29.4178 91.3696 30.7309 89.1063 31.3405C87.4126 31.7837 85.6564 31.9577 83.9091 31.9547C81.4302 31.9681 78.9513 31.9562 76.4739 31.9607C74.5675 31.9532 72.6061 32.0424 70.774 31.4164C69.2334 30.9004 68.075 29.6884 67.04 28.4899C65.9575 27.1352 64.9552 25.718 63.8875 24.3514C63.1083 23.3447 62.6101 22.0391 62.9016 20.7602C63.2035 19.8264 63.7552 19.0025 64.3455 18.2293C66.0497 15.9675 67.736 13.6938 69.4461 11.4394C69.6453 11.1182 70.0528 11.2193 70.3695 11.1955C74.4381 11.2223 78.5082 11.1569 82.5752 11.2372C81.4748 12.8714 80.2316 14.4076 79.0569 15.9898C77.3542 18.2516 75.6456 20.5104 73.9474 22.7767C73.5161 23.3863 73.0864 24.0763 73.1622 24.857C73.1429 25.7612 73.8938 26.5047 74.7459 26.6757C75.8062 26.8705 76.8873 26.8095 77.9609 26.817C79.6487 26.8021 81.3365 26.8259 83.0243 26.8214C84.1009 26.7798 85.3441 26.5508 85.9806 25.5842C86.6051 24.7306 86.5427 23.6272 86.614 22.625C86.5099 20.9416 86.7315 19.2524 86.5665 17.569C86.565 15.9838 86.7003 14.3957 86.5635 12.8105C86.6274 11.3204 86.6691 9.8215 86.4817 8.33743C86.3702 7.6296 85.9568 6.99463 85.3649 6.59461C84.6556 6.05482 83.7277 6.02061 82.8756 5.93734C78.4844 5.89719 74.0931 5.97749 69.7033 5.90611C69.565 4.85923 69.5442 3.75733 69.8446 2.73721C70.1242 1.83309 70.9287 1.12526 71.8536 0.939376Z" fill="#CECECD"/>
<path d="M3.48377 11.3202C4.11131 11.1923 4.7552 11.2131 5.39314 11.2086C13.0782 11.2131 20.7633 11.1997 28.4483 11.2057C30.0261 11.2607 31.6678 11.28 33.1266 11.9596C34.6746 12.6496 35.8166 13.9611 36.8278 15.2772C37.7394 16.4534 38.6465 17.6356 39.5075 18.8506C40.077 19.6521 40.6421 20.5636 40.5662 21.5912C40.5558 23.2492 39.3275 24.5028 38.4338 25.7787C36.9676 27.6896 35.5341 29.6272 34.0991 31.5618C33.6247 32.2117 32.6998 32.0035 32.0098 31.9767C29.9785 31.9321 27.9442 31.9782 25.9129 31.9574C25.1679 31.9336 24.4258 32.0734 23.6823 32.002C22.7871 31.9202 21.886 31.9812 20.9893 31.9247C21.0577 31.6421 21.1811 31.3804 21.3625 31.1529C23.7939 27.9751 26.1702 24.7571 28.5732 21.557C29.1442 20.7242 29.9324 19.9971 30.1896 18.9874C30.4291 18.2825 30.2134 17.4498 29.635 16.9754C29.0639 16.4847 28.2743 16.4044 27.5561 16.3449C24.3812 16.3389 21.2049 16.3449 18.0301 16.3419C17.6315 16.336 17.2345 16.3746 16.8404 16.4222C16.7601 17.0497 16.7824 17.6817 16.7899 18.3108C16.7839 26.32 16.7928 34.3292 16.7839 42.3385C14.3258 42.389 11.8663 42.3325 9.40668 42.3578C8.44456 42.3444 7.48095 42.3964 6.5233 42.3087C6.44151 41.4492 6.48909 40.5867 6.48612 39.7257C6.4772 33.0831 6.48612 26.4419 6.47868 19.8008C6.44746 18.6736 6.53965 17.542 6.42218 16.4192C4.72694 16.2304 3.01238 16.4401 1.31269 16.2928C1.30971 15.0467 1.00338 13.6533 1.72014 12.5395C2.0919 11.8971 2.77891 11.4986 3.48377 11.3202Z" fill="#CECECD"/>
<path d="M52.8807 11.2286C56.4823 11.1706 60.0839 11.2182 63.6855 11.2004C64.3815 11.1989 65.0789 11.1959 65.7748 11.245C65.4016 12.0004 64.8261 12.6294 64.3279 13.303C60.1479 18.8408 56.0035 24.4083 51.8293 29.952C51.297 30.6048 50.9103 31.3959 50.2367 31.9179C47.6864 32.0279 45.1227 31.9134 42.568 31.9759C41.6267 32.0993 40.6854 31.9298 39.7426 31.9565C38.9902 31.9372 38.2362 32.1142 37.4912 31.9476C37.5552 31.7722 37.5983 31.5863 37.7128 31.4346C39.6088 28.9245 41.4929 26.4039 43.3814 23.8878C44.9458 21.7361 46.6023 19.6572 48.1682 17.5084C49.7281 15.4072 51.3475 13.3506 52.8807 11.2286Z" fill="#CECECD"/>
</svg>
