<svg width="147" height="67" viewBox="0 0 147 67" fill="none" xmlns="http://www.w3.org/2000/svg">
<path d="M33.565 0.333496H72.7495C62.7587 2.78492 53.159 6.79381 44.3345 12.0738C37.8917 15.9814 31.7736 20.6154 26.972 26.4681C23.4066 30.8297 20.5955 36.1376 20.4558 41.8786C20.2393 46.53 21.9155 51.2373 25.0514 54.6875C28.8822 58.9862 34.4206 61.3573 39.9764 62.4538C48.3085 64.1579 56.8885 63.3268 65.2066 61.9754C58.2574 64.6887 50.8368 66.2741 43.3637 66.3335H42.8295C37.5075 66.2986 32.1717 65.4744 27.1571 63.6691C20.5047 61.3049 14.3552 57.09 10.4161 51.1535C6.9066 45.9259 5.43993 39.3538 6.49453 33.1379C7.48279 26.7544 10.692 20.9192 14.7533 15.9779C19.9949 9.6608 26.5774 4.58334 33.565 0.333496Z" fill="#CECECD"/>
<path d="M0.481445 3.87777C8.51319 3.87777 16.5414 3.87078 24.5732 3.88126C20.1976 7.19523 16.084 10.9073 12.6757 15.227C8.61097 15.2479 4.54621 15.2305 0.481445 15.2375V3.87777Z" fill="#CECECD"/>
<path d="M66.6521 4.23398C67.2737 4.01748 67.9198 3.83589 68.5867 3.8743C76.3426 3.88129 84.095 3.8743 91.8509 3.87779C91.8474 7.66319 91.8509 11.4521 91.8509 15.2375C78.7591 15.2375 65.6674 15.2375 52.5756 15.2375C52.5791 22.8572 52.5791 30.4768 52.5756 38.1C47.4842 38.0826 42.3893 38.1349 37.2979 38.0721C37.3118 31.8492 37.3013 25.6264 37.3013 19.4C46.0839 12.6568 56.1515 7.68414 66.6521 4.23398Z" fill="#CECECD"/>
<path d="M57.3427 19.8299C59.7871 18.4959 62.6856 19.0686 65.3465 18.9359C65.3465 20.1616 65.3465 21.3873 65.3465 22.6131C64.2011 22.6445 63.0068 22.4769 61.9033 22.8645C60.6217 23.3918 60.2446 24.8969 60.2411 26.1505C60.2237 28.4308 60.2341 30.7112 60.2411 32.9915C58.5021 33.0439 56.7595 33.0019 55.0205 33.0159C55.031 30.0267 54.989 27.034 55.0379 24.0448C55.0763 22.3896 55.7992 20.6156 57.3427 19.8299Z" fill="#CECECD"/>
<path d="M66.7681 18.9604C69.6945 18.9045 72.6243 18.9534 75.5541 18.9324C76.937 18.9045 78.4456 19.128 79.4688 20.1511C80.6142 21.2337 80.8132 22.9169 80.8027 24.4115C80.7573 26.5102 80.8586 28.6089 80.7538 30.7042C80.698 31.9369 79.5805 32.9007 78.3618 32.8797C75.3376 32.9321 72.31 32.8902 69.2824 32.9007C68.0951 32.9635 66.7611 32.4537 66.3072 31.2734C65.6926 29.7194 65.6926 27.9594 66.0138 26.3391C66.2338 25.1937 67.2151 24.2473 68.4024 24.181C70.7107 24.0588 73.0259 24.1985 75.3342 24.1216C76.1688 23.6886 75.1595 22.4629 74.4437 22.4664C71.891 22.3546 69.3313 22.4524 66.7751 22.421C66.7751 21.2651 66.7821 20.1127 66.7681 18.9604ZM70.9097 28.2562C71.0075 28.4658 71.21 28.8813 71.3113 29.0908C72.6208 29.1572 73.9478 29.227 75.2573 29.0699C75.7916 28.6892 75.5891 27.9943 75.6624 27.4426C74.2132 27.4391 72.764 27.3937 71.3183 27.4985C71.217 27.687 71.011 28.0642 70.9097 28.2562Z" fill="#CECECD"/>
<path d="M84.2211 19.1104C85.9706 18.7892 87.7655 18.9917 89.5325 18.9358C91.5125 18.9603 93.7125 18.7577 95.4271 19.9485C96.8379 20.8006 97.5084 22.4838 97.5118 24.0831C97.5503 27.0584 97.5153 30.0371 97.5258 33.0158C95.7693 33.0053 94.0093 33.0403 92.2563 32.9914C92.2493 30.3688 92.2912 27.7463 92.2388 25.1238C92.2528 24.0796 91.6591 22.9587 90.5766 22.7247C89.6233 22.5676 88.5757 22.4558 87.6957 22.9342C87.6922 26.2936 87.6922 29.6565 87.6922 33.0158C85.9531 33.0123 84.2106 33.0158 82.4715 33.0123C82.482 29.1012 82.4576 25.1901 82.482 21.279C82.3912 20.2244 83.2118 19.299 84.2211 19.1104Z" fill="#CECECD"/>
<path d="M99.8522 19.7532C100.613 18.9779 101.773 18.9605 102.789 18.936C105.886 18.936 108.987 18.9395 112.088 18.936C112.085 20.1373 112.085 21.3386 112.088 22.5364C109.211 22.6306 106.306 22.3443 103.449 22.6935C104.42 23.5944 105.827 23.7271 107.014 24.216C108.722 24.8691 110.873 25.1519 111.9 26.8595C112.612 28.19 112.661 29.8592 112.12 31.2595C111.655 32.4503 110.335 33.0649 109.11 33.016C105.705 33.0056 102.297 33.037 98.8919 32.9951C98.8988 31.7379 98.8988 30.4843 98.8954 29.2271C101.546 29.1957 104.2 29.283 106.85 29.1887C106.871 29.0456 106.91 28.7627 106.931 28.623C105.171 27.8687 103.281 27.4706 101.5 26.7722C100.428 26.3357 99.2795 25.6478 98.9792 24.443C98.609 22.8821 98.616 20.944 99.8522 19.7532Z" fill="#CECECD"/>
<path d="M0.481445 19.0474C3.61383 19.0509 6.74621 19.0439 9.87859 19.0543C6.34113 24.6032 3.92113 31.067 4.07478 37.7194C4.17605 45.0004 7.49002 52.0229 12.6094 57.1283C8.56557 57.1004 4.52525 57.1248 0.481445 57.1143V19.0474Z" fill="#CECECD"/>
<path d="M24.514 34.1509C26.6337 29.7055 29.9093 25.9131 33.5096 22.5991C33.5061 34.1055 33.5096 45.6083 33.5096 57.1147C32.7972 57.1077 32.0778 57.1636 31.3724 57.0763C27.7267 55.0928 24.7655 51.7788 23.421 47.8328C21.881 43.3699 22.4851 38.3588 24.514 34.1509Z" fill="#CECECD"/>
<path d="M72.509 38.0054C74.2446 37.9985 75.9836 38.0054 77.7192 38.002C77.7227 39.7131 77.7192 41.4242 77.7227 43.1353C79.0567 43.1353 80.3941 43.1353 81.7316 43.1318C81.7351 44.3366 81.7351 45.5448 81.7351 46.7496C80.3976 46.7531 79.0601 46.7496 77.7227 46.7531C77.8449 48.562 77.3805 50.5105 78.1767 52.2112C78.889 53.4439 80.436 53.4578 81.6862 53.4508C81.6757 54.6975 81.6792 55.9442 81.6827 57.1908C79.4966 57.107 77.2233 57.4772 75.1281 56.688C73.5043 56.1013 72.4846 54.4007 72.5055 52.707C72.4846 50.7235 72.509 48.7366 72.4986 46.7531C71.8386 46.7496 71.1786 46.7496 70.5186 46.7496C70.522 45.5448 70.5186 44.34 70.5186 43.1353C71.1786 43.1353 71.8386 43.1353 72.4986 43.1353C72.502 41.4242 72.4916 39.7166 72.509 38.0054Z" fill="#CECECD"/>
<path d="M98.9019 38.0968C100.648 38.0688 102.397 38.0863 104.144 38.0828C104.144 39.3015 104.147 40.5237 104.14 41.7425C102.394 41.7355 100.644 41.7774 98.8984 41.7145C98.9124 40.5098 98.9124 39.3015 98.9019 38.0968Z" fill="#CECECD"/>
<path d="M41.1885 43.2333C43.0812 42.8946 45.0227 42.9749 46.9364 43.0342C48.7139 43.1041 50.7008 43.5685 51.8043 45.0911C53.1069 46.9942 53.0859 49.4108 52.9602 51.6212C52.8415 53.5733 52.0278 55.7768 50.1072 56.6079C47.8862 57.5508 45.4104 57.3971 43.0532 57.3377C41.0139 57.2295 38.6218 56.6743 37.6475 54.6593C36.5091 52.2044 36.5231 49.306 37.218 46.7289C37.6789 44.8746 39.3202 43.5057 41.1885 43.2333ZM43.5735 46.9419C42.477 47.2876 42.0894 48.5063 42.1139 49.5504C42.1174 50.6923 41.9602 52.0787 42.8926 52.9343C44.3139 54.0866 47.1704 53.7584 47.5685 51.712C47.7675 50.3606 47.9002 48.8066 47.1564 47.5914C46.2764 46.5996 44.7574 46.6066 43.5735 46.9419Z" fill="#CECECD"/>
<path d="M124.122 43.6707C126.207 42.7872 128.529 43.0421 130.736 42.9897C132.388 43.0561 134.267 42.885 135.653 43.964C137.137 45.2596 137.116 47.4282 137.095 49.237C137.116 50.2882 136.494 51.5942 135.297 51.5942C132.583 51.6431 129.867 51.5872 127.153 51.6151C127.199 52.4602 127.639 53.3577 128.599 53.3786C131.263 53.5009 133.942 53.3926 136.61 53.431C136.61 54.6812 136.61 55.9348 136.61 57.1885C133.362 57.192 130.114 57.1955 126.867 57.1885C125.582 57.185 124.143 57.0209 123.218 56.0291C122.17 54.9885 122.079 53.4136 122.055 52.0237C122.062 50.2602 121.974 48.4932 122.114 46.7367C122.219 45.4726 122.914 44.1875 124.122 43.6707ZM127.88 46.7332C127.195 46.9567 127.261 47.7459 127.164 48.3117C128.606 48.3012 130.055 48.3675 131.497 48.2837C132.21 47.9205 131.93 46.7717 131.166 46.7158C130.097 46.4678 128.941 46.4399 127.88 46.7332Z" fill="#CECECD"/>
<path d="M54.9128 45.3845C54.822 44.0261 56.2119 43.188 57.4201 43.167C59.3966 43.0832 61.3766 43.1635 63.3531 43.1321C64.9211 43.0972 66.6042 43.2404 67.9208 44.1762C69.2547 45.0213 69.9252 46.6312 69.9357 48.1712C69.9462 51.1778 69.9357 54.1845 69.9392 57.1912C68.2315 57.1667 66.5274 57.2401 64.8233 57.1632C64.4392 54.3521 64.935 51.3734 64.5684 48.5204C64.1458 46.694 61.8306 46.481 60.3604 46.9804C60.3081 47.0886 60.2033 47.3051 60.1509 47.4134C60.0601 50.668 60.137 53.9331 60.116 57.1912C58.377 57.1877 56.6414 57.1947 54.9023 57.1877C54.9163 53.2521 54.8884 49.3201 54.9128 45.3845Z" fill="#CECECD"/>
<path d="M83.4812 46.7287C83.4847 45.5623 83.4847 44.3925 83.4847 43.2261C86.5472 43.2261 89.6133 43.2261 92.6758 43.2227C94.139 43.2227 95.7593 43.6766 96.6183 44.9477C97.5821 46.2782 97.5263 48.0103 97.5298 49.5712C97.4844 51.4081 97.6171 53.2484 97.4564 55.0782C97.3866 56.2655 96.2971 57.1665 95.1377 57.1665C91.9879 57.2154 88.8345 57.1944 85.6847 57.1769C84.4345 57.2223 83.2088 56.4227 82.8736 55.19C82.4336 53.5871 82.3567 51.8271 82.8631 50.2277C83.2332 49.0439 84.5009 48.363 85.6917 48.3979C87.9126 48.37 90.1371 48.4119 92.358 48.3804C92.2812 47.7169 92.0926 46.8265 91.2615 46.7846C88.6704 46.6554 86.0723 46.7741 83.4812 46.7287ZM88.1501 53.3741C89.4526 53.5242 90.7726 53.4474 92.0821 53.3741C92.2882 52.8677 92.3755 52.33 92.4209 51.7887C90.9891 51.7608 89.5434 51.6595 88.1186 51.8271C87.5006 52.1728 87.5913 53.0109 88.1501 53.3741Z" fill="#CECECD"/>
<path d="M98.9082 43.1425C100.651 43.1286 102.397 43.1355 104.146 43.1355C104.139 47.8184 104.146 52.5047 104.143 57.1876C102.397 57.1876 100.654 57.2016 98.9082 57.1771C98.9047 52.4978 98.9117 47.8184 98.9082 43.1425Z" fill="#CECECD"/>
<path d="M105.747 45.14C105.806 43.8025 107.241 43.16 108.415 43.153C110.611 43.1076 112.811 43.139 115.011 43.139C116.698 43.139 118.493 43.6454 119.624 44.9689C120.588 46.0235 120.78 47.5111 120.773 48.8835C120.777 51.6527 120.773 54.4219 120.773 57.1911C119.027 57.1876 117.281 57.1946 115.538 57.1876C115.5 54.5441 115.594 51.8971 115.493 49.2571C115.507 48.1676 114.788 47.0606 113.677 46.8685C112.825 46.7987 111.875 46.6136 111.086 47.0327C110.859 47.4936 110.96 48.0314 110.929 48.5273C110.946 51.4152 110.925 54.3031 110.939 57.1946C109.2 57.1876 107.458 57.1946 105.715 57.1876C105.736 53.1717 105.673 49.1558 105.747 45.14Z" fill="#CECECD"/>
<path d="M139.938 44.4242C141.67 43.0518 144.009 43.1182 146.101 43.1286V46.701C145.392 47.0083 144.526 47.1724 144.079 47.8674C143.479 48.7753 143.444 49.9032 143.44 50.9578C143.447 53.0356 143.444 55.1134 143.454 57.1912C141.705 57.1877 139.959 57.1912 138.212 57.1912C138.219 54.408 138.205 51.6283 138.216 48.8451C138.219 47.2423 138.593 45.4509 139.938 44.4242Z" fill="#CECECD"/>
</svg>
