<svg width="28" height="26" viewBox="0 0 28 26" fill="none" xmlns="http://www.w3.org/2000/svg">
<path d="M18.8332 5.66658V6.16658H19.3332H23.3332C24.2614 6.16658 25.1517 6.53533 25.808 7.19171C26.4644 7.84809 26.8332 8.73833 26.8332 9.66658V21.6666C26.8332 22.5948 26.4644 23.4851 25.808 24.1415C25.1517 24.7978 24.2614 25.1666 23.3332 25.1666H4.6665C3.73825 25.1666 2.84801 24.7978 2.19163 24.1415C1.53525 23.4851 1.1665 22.5948 1.1665 21.6666V9.66658C1.1665 8.73833 1.53525 7.84809 2.19163 7.19171C2.84801 6.53533 3.73825 6.16658 4.6665 6.16658H8.6665H9.1665V5.66658V4.33325C9.1665 3.40499 9.53525 2.51476 10.1916 1.85838C10.848 1.202 11.7382 0.833252 12.6665 0.833252H15.3332C16.2614 0.833252 17.1517 1.202 17.808 1.85838C18.4644 2.51476 18.8332 3.40499 18.8332 4.33325V5.66658ZM16.6665 6.16658H17.1665V5.66658V4.33325C17.1665 3.84702 16.9734 3.38071 16.6295 3.03689C16.2857 2.69307 15.8194 2.49992 15.3332 2.49992H12.6665C12.1803 2.49992 11.714 2.69307 11.3701 3.03689C11.0263 3.38071 10.8332 3.84702 10.8332 4.33325V5.66658V6.16658H11.3332H16.6665ZM3.51755 13.8685L2.83317 13.597V14.3333V21.6666C2.83317 22.1528 3.02632 22.6191 3.37014 22.9629C3.71396 23.3068 4.18027 23.4999 4.6665 23.4999H23.3332C23.8194 23.4999 24.2857 23.3068 24.6295 22.9629C24.9734 22.6191 25.1665 22.1528 25.1665 21.6666V14.3333V13.5973L24.4823 13.8684C21.1455 15.1908 17.5889 15.871 13.9997 15.8733C10.4104 15.8723 6.85383 15.192 3.51755 13.8685ZM24.8676 11.871L25.1665 11.7397V11.4133V9.66658C25.1665 9.18036 24.9734 8.71404 24.6295 8.37022C24.2857 8.02641 23.8194 7.83325 23.3332 7.83325H4.6665C4.18027 7.83325 3.71396 8.02641 3.37014 8.37022C3.02633 8.71404 2.83317 9.18035 2.83317 9.66658V11.4133V11.7397L3.13206 11.871C6.55759 13.3759 10.2583 14.153 13.9998 14.153C17.7414 14.153 21.4421 13.3759 24.8676 11.871Z" fill="#9B9BA5" stroke="#16161D"/>
</svg>
