<svg width="37" height="31" viewBox="0 0 37 31" fill="none" xmlns="http://www.w3.org/2000/svg">
<path d="M23.365 1.50766L23.3712 1.50398L23.3774 1.5001C25.7059 0.0279607 28.9568 0.178602 31.3964 1.48544L31.3963 1.48552L31.4042 1.48954C34.901 3.27517 36.8064 7.11903 36.5222 10.7281C36.453 10.881 36.3655 10.9605 36.2769 11.0077C36.1686 11.0655 36.0178 11.0959 35.8157 11.0868C35.4033 11.0682 34.9167 10.8939 34.4901 10.7156C33.6396 10.2997 32.8066 10.3926 32.0611 10.6154C31.6893 10.7265 31.3257 10.8741 30.9868 11.0138C30.9614 11.0243 30.9361 11.0347 30.911 11.0451C30.594 11.1759 30.3004 11.2971 30.0128 11.3906L29.9981 11.3954L29.9838 11.4011C27.5342 12.3881 24.3816 11.9663 22.5775 10.1821L22.5595 10.1643L22.5396 10.1486C22.3022 9.96145 22.2543 9.67633 22.3758 9.39898C22.4923 9.13324 22.7451 8.93163 23.0648 8.91898C23.4526 9.05936 23.7993 9.28211 24.1955 9.53672C24.2438 9.56772 24.2928 9.5992 24.3427 9.63105C24.8033 9.92518 25.3326 10.2448 25.9795 10.3725C27.5846 10.7616 29.015 10.2246 30.3065 9.73228L30.3471 9.71679C31.6641 9.21463 32.8435 8.76496 34.1497 9.00831L34.8476 9.13833L34.6674 8.45168C34.0608 6.1405 32.7244 3.72596 30.2218 2.57331C28.3277 1.61024 25.9748 1.67057 24.13 2.70175L23.1048 3.27481L24.2505 3.5335C26.3607 4.01001 28.4302 4.75563 29.7365 6.25898L29.7372 6.25979C29.8983 6.44438 29.8957 6.71657 29.677 6.97961C29.4657 7.2337 29.1483 7.34832 28.8614 7.24886C28.5338 7.05291 28.2384 6.84377 27.9281 6.62402C27.7215 6.47778 27.5083 6.32684 27.2746 6.17195C26.709 5.79717 26.0817 5.44487 25.3342 5.27155C24.6804 5.0968 23.9263 4.95312 23.181 4.9699C22.4327 4.98675 21.6647 5.16633 21.0207 5.66716C20.066 6.3728 19.766 7.50427 19.7605 8.48158C19.7266 9.81409 19.7346 11.1662 19.7425 12.5105C19.7483 13.4901 19.7541 14.4656 19.7436 15.4264L19.739 15.8469L20.1583 15.8799C20.397 15.8987 20.6408 15.9091 20.8764 15.9192C20.9176 15.921 20.9586 15.9227 20.9992 15.9245C21.2765 15.9367 21.5433 15.9505 21.803 15.9784C22.3231 16.0343 22.7828 16.1438 23.1784 16.3821L23.1873 16.3875L23.1965 16.3924C23.519 16.5669 23.7798 16.8177 24.0282 17.1223C24.1866 17.3165 24.3183 17.5025 24.458 17.6999C24.5541 17.8357 24.654 17.9769 24.769 18.1297L25.0206 18.4641L25.3724 18.2374C26.6804 17.3942 27.9567 16.5077 29.2261 15.626C29.5901 15.3732 29.9536 15.1208 30.317 14.8699C31.2757 14.2245 32.1973 13.6388 33.2651 13.6354L33.2733 13.6354L33.2815 13.6351C34.9238 13.5699 36.4136 14.8539 36.5161 16.2768L36.5167 16.2856L36.5177 16.2944C36.6419 17.4076 36.0059 18.528 34.9927 19.2741L34.9927 19.274L34.9844 19.2804C33.9595 20.0725 32.9432 20.8688 31.9283 21.6641C29.9831 23.1883 28.0431 24.7085 26.0574 26.1868C24.6197 27.1862 23.1875 28.1745 21.4928 28.1815V28.1815L21.4864 28.1816C19.8167 28.2125 18.1576 28.0189 16.4642 27.8213C16.3901 27.8127 16.316 27.804 16.2418 27.7954C14.4829 27.5906 12.6872 27.3923 10.8699 27.4733C9.88553 27.5091 9.23353 28.0133 8.75324 28.6069C8.51743 28.8983 8.3171 29.218 8.13691 29.5169C8.09741 29.5825 8.05912 29.6466 8.02164 29.7093C7.88427 29.9393 7.75795 30.1508 7.62404 30.3456C7.47726 30.5433 7.17515 30.6183 6.82273 30.4819C6.46946 30.3452 6.30604 30.0909 6.31904 29.8838C6.71465 27.8982 8.6517 26.1365 10.916 26.0337C12.5769 25.9637 14.2328 26.1224 15.9166 26.3125C16.1395 26.3376 16.363 26.3634 16.5871 26.3892C18.043 26.5567 19.5233 26.7271 21.0112 26.7617C21.8462 26.8168 22.585 26.5759 23.2394 26.2407C23.7649 25.9715 24.2618 25.6264 24.7127 25.3133C24.8163 25.2414 24.9174 25.1711 25.0159 25.1039L25.0242 25.0983L25.0321 25.0923C26.9327 23.6676 28.8038 22.2026 30.67 20.7414C31.6924 19.941 32.7133 19.1417 33.7367 18.3507L33.762 18.3312L33.7842 18.3084C33.8613 18.2291 33.959 18.1479 34.0837 18.0457L34.0979 18.0341C34.2119 17.9407 34.3468 17.8302 34.4683 17.7098C34.7118 17.4685 34.9831 17.1076 34.9366 16.6107C34.9703 15.9803 34.5528 15.4861 34.0801 15.2452C33.5956 14.9984 32.9398 14.9546 32.4077 15.3427C30.9263 16.2238 29.5026 17.2235 28.0947 18.2121C27.2673 18.7931 26.4453 19.3703 25.6203 19.9173C25.3038 20.1185 24.9923 20.3416 24.6902 20.5579C24.6598 20.5798 24.6294 20.6015 24.5991 20.6232C24.263 20.8636 23.9359 21.0944 23.5997 21.2979C22.9296 21.7035 22.2549 21.9805 21.4895 21.9822L21.4872 21.9822C20.9845 21.9858 20.4841 21.9939 19.9857 22.002C18.3756 22.0281 16.7863 22.0538 15.2057 21.9289C14.5794 21.7412 14.6059 20.8111 15.2231 20.6497C16.2992 20.5313 17.3874 20.554 18.5104 20.5776L18.5144 20.5777C19.6356 20.6013 20.792 20.6256 21.9457 20.494L21.98 20.4901L22.0132 20.481C22.7833 20.2708 23.1545 19.5865 23.1495 18.9495C23.1445 18.3085 22.7571 17.6324 21.9635 17.4548L21.9366 17.4488L21.9091 17.4461C20.7515 17.3328 19.5869 17.3384 18.4493 17.344C18.3157 17.3446 18.1826 17.3453 18.0498 17.3457C16.7761 17.3501 15.5346 17.3368 14.3115 17.1509L14.3041 17.1498L14.2967 17.1489C13.8119 17.0916 13.3189 17.0053 12.808 16.9158L12.7568 16.9068C12.2325 16.815 11.6903 16.721 11.1465 16.6607C10.0587 16.5399 8.92367 16.548 7.81293 16.9914C4.97326 18.1014 3.29921 20.6164 1.87818 22.811L1.86635 22.8293L1.85635 22.8486C1.76328 23.0282 1.54535 23.154 1.25005 23.1554C0.95206 23.1568 0.69522 23.0282 0.575561 22.8487L0.567413 22.8364L0.558484 22.8248C0.428953 22.6554 0.418158 22.4812 0.510358 22.2218C0.558699 22.0857 0.631257 21.9416 0.719761 21.7826C0.7495 21.7292 0.784245 21.6688 0.820368 21.6059C0.876875 21.5075 0.936753 21.4033 0.98611 21.3111C2.68554 18.629 5.04741 16.0652 8.33972 15.3336C9.83411 15.0419 11.3241 15.2182 12.882 15.4662C13.0852 15.4985 13.2898 15.5322 13.4959 15.5661C14.8488 15.7886 16.2598 16.0206 17.688 15.9544L18.1237 15.9342L18.1171 15.498C18.1038 14.6184 18.1115 13.7201 18.1193 12.8157C18.1307 11.4926 18.1422 10.1562 18.088 8.84579C18.1323 7.1398 16.5167 5.74225 14.7907 5.74984C13.2992 5.60395 11.8479 5.94501 10.4922 6.26358C10.1788 6.33723 9.87045 6.40969 9.56793 6.47464C9.27428 6.52461 9.02034 6.35911 8.89334 6.07276C8.76507 5.78355 8.82296 5.5079 9.01894 5.35666C9.59021 5.00576 10.2507 4.8109 10.9753 4.66106C11.2729 4.59952 11.5732 4.54704 11.8807 4.4933C11.9514 4.48094 12.0225 4.46852 12.0941 4.4559C12.4725 4.38915 12.8596 4.31759 13.2391 4.22479L14.321 3.96024L13.359 3.39898C11.0396 2.04588 7.87537 2.61338 6.03563 4.3625C5.10425 5.19142 4.6228 6.30979 4.19984 7.29228C4.15502 7.39641 4.11085 7.49901 4.06687 7.59958L3.74103 8.34469L4.54542 8.22497C5.53269 8.07803 6.44933 8.28409 7.39602 8.61256C7.7406 8.73212 8.07865 8.86388 8.42593 8.99924C8.56014 9.05156 8.69573 9.10441 8.83361 9.1573C9.32093 9.34424 9.82622 9.52729 10.3492 9.66353L10.3491 9.6636L10.3567 9.66543C12.0133 10.0666 13.379 9.1047 14.3768 8.30999L14.385 8.30346L14.3929 8.29655C14.6239 8.09433 14.965 8.10747 15.2647 8.33118C15.5685 8.558 15.6369 8.84711 15.5289 9.05504C14.5952 10.5813 12.4568 11.2958 10.4843 11.1263L10.4843 11.1262L10.4776 11.1257C9.7339 11.073 9.03895 10.8288 8.30513 10.5304C8.17611 10.478 8.04512 10.4235 7.91226 10.3682C7.3085 10.117 6.66603 9.84964 5.99353 9.68568C5.23934 9.49707 4.56653 9.73924 4.02309 9.95108C3.98026 9.96778 3.93825 9.98425 3.89699 10.0004C3.40371 10.1938 3.01747 10.3453 2.6167 10.3355C2.41791 10.2423 2.30609 10.1238 2.23635 9.99755C2.15392 9.84836 2.11136 9.65316 2.10686 9.40433C2.10235 9.15522 2.13608 8.88206 2.18259 8.59165C2.19534 8.51202 2.2095 8.42883 2.22388 8.34433C2.25808 8.14342 2.29353 7.9351 2.31432 7.74971C2.95065 4.0587 6.76621 0.94571 10.9409 1.23566L10.9546 1.23661L10.9683 1.23672C13.0656 1.25465 14.9423 2.46859 15.8178 4.18568L15.8863 4.32017L16.0221 4.38609C16.8392 4.78275 17.631 5.21355 18.4018 5.6823L18.6932 5.85951L18.9426 5.62686C19.5065 5.10079 20.1138 4.6097 20.7459 4.14212C21.3004 3.75794 21.7043 3.24809 22.0613 2.7973C22.0864 2.76563 22.1113 2.73425 22.1359 2.70322C22.5271 2.21112 22.8791 1.79332 23.365 1.50766Z" fill="#9B9BA5" stroke="#151621" stroke-width="0.9"/>
</svg>
