<svg width="31" height="30" viewBox="0 0 31 30" fill="none" xmlns="http://www.w3.org/2000/svg">
<path d="M10.2524 18.7013L10.25 18.7256V18.75C10.25 19.2141 10.0656 19.6592 9.73744 19.9874C9.40925 20.3156 8.96413 20.5 8.5 20.5C8.03587 20.5 7.59075 20.3156 7.26256 19.9874C6.93437 19.6592 6.75 19.2141 6.75 18.75C6.75 18.2859 6.93437 17.8408 7.26256 17.5126C7.59075 17.1844 8.03587 17 8.5 17H8.70711L8.85355 16.8536L13.3536 12.3536L13.5 12.2071V12C13.5 11.5359 13.6844 11.0908 14.0126 10.7626C14.3408 10.4344 14.7859 10.25 15.25 10.25C15.7141 10.25 16.1592 10.4344 16.4874 10.7626C16.8156 11.0908 17 11.5359 17 12V12.2046L17.1434 12.3505L19.7384 14.9905L19.8854 15.14H20.095H20.335H20.5421L20.6886 14.9936L26.1036 9.57855L26.2706 9.41147L26.2476 9.1763C26.2435 9.13387 26.2435 9.09113 26.2476 9.0487L26.25 9.02441V9C26.25 8.65388 26.3526 8.31554 26.5449 8.02775C26.7372 7.73997 27.0105 7.51566 27.3303 7.38321C27.6501 7.25076 28.0019 7.2161 28.3414 7.28363C28.6809 7.35115 28.9927 7.51782 29.2374 7.76256C29.4822 8.00731 29.6489 8.31913 29.7164 8.65859C29.7839 8.99806 29.7492 9.34993 29.6168 9.6697C29.4843 9.98947 29.26 10.2628 28.9722 10.4551C28.6845 10.6474 28.3461 10.75 28 10.75H27.7917L27.645 10.8979L22.185 16.4029L22.04 16.5491V16.755V16.875C22.04 17.3391 21.8556 17.7842 21.5274 18.1124C21.1992 18.4406 20.7541 18.625 20.29 18.625C19.8259 18.625 19.3808 18.4406 19.0526 18.1124C18.7244 17.7842 18.54 17.3391 18.54 16.875V16.8747V16.8745V16.8742V16.8739V16.8737V16.8734V16.8731V16.8729V16.8726V16.8723V16.8721V16.8718V16.8715V16.8712V16.871V16.8707V16.8704V16.8701V16.8699V16.8696V16.8693V16.869V16.8688V16.8685V16.8682V16.8679V16.8676V16.8674V16.8671V16.8668V16.8665V16.8662V16.866V16.8657V16.8654V16.8651V16.8648V16.8645V16.8642V16.864V16.8637V16.8634V16.8631V16.8628V16.8625V16.8622V16.8619V16.8616V16.8613V16.8611V16.8608V16.8605V16.8602V16.8599V16.8596V16.8593V16.859V16.8587V16.8584V16.8581V16.8578V16.8575V16.8572V16.8569V16.8566V16.8563V16.856V16.8557V16.8554V16.8551V16.8548V16.8545V16.8542V16.8539V16.8536V16.8533V16.853V16.8527V16.8524V16.8521V16.8518V16.8515V16.8512V16.8509V16.8506V16.8503V16.85V16.8497V16.8494V16.8491V16.8488V16.8484V16.8481V16.8478V16.8475V16.8472V16.8469V16.8466V16.8463V16.846V16.8457V16.8454V16.8451V16.8447V16.8444V16.8441V16.8438V16.8435V16.8432V16.8429V16.8426V16.8423V16.8419V16.8416V16.8413V16.841V16.8407V16.8404V16.8401V16.8398V16.8395V16.8391V16.8388V16.8385V16.8382V16.8379V16.8376V16.8373V16.837V16.8366V16.8363V16.836V16.8357V16.8354V16.8351V16.8348V16.8344V16.8341V16.8338V16.8335V16.8332V16.8329V16.8326V16.8322V16.8319V16.8316V16.8313V16.831V16.8307V16.8304V16.8301V16.8297V16.8294V16.8291V16.8288V16.8285V16.8282V16.8279V16.8275V16.8272V16.8269V16.8266V16.8263V16.826V16.8257V16.8253V16.825V16.8247V16.8244V16.8241V16.8238V16.8235V16.8232V16.8228V16.8225V16.8222V16.8219V16.8216V16.8213V16.821V16.8207V16.8204V16.82V16.8197V16.8194V16.8191V16.8188V16.8185V16.8182V16.8179V16.8176V16.8173V16.8169V16.8166V16.8163V16.816V16.8157V16.8154V16.8151V16.8148V16.8145V16.8142V16.8139V16.8136V16.8133V16.813V16.8126V16.8123V16.812V16.8117V16.8114V16.8111V16.8108V16.8105V16.8102V16.8099V16.8096V16.8093V16.809V16.8087V16.8084V16.8081V16.8078V16.8075V16.8072V16.8069V16.8066V16.8063V16.806V16.8057V16.8054V16.8051V16.8048V16.8045V16.8042V16.8039V16.8036V16.8033V16.8031V16.8028V16.8025V16.8022V16.8019V16.8016V16.8013V16.801V16.8007V16.8004V16.8001V16.7998V16.7996V16.7993V16.799V16.7987V16.7984V16.7981V16.7978V16.7976V16.7973V16.797V16.7967V16.7964V16.7961V16.7959V16.7956V16.7953V16.795V16.7947V16.7945V16.7942V16.7939V16.7936V16.7933V16.7931V16.7928V16.7925V16.7922V16.792V16.7917V16.7914V16.7912V16.7909V16.7906V16.7903V16.7901V16.7898V16.7895V16.7893V16.789V16.7887V16.7885V16.7882V16.7879V16.7877V16.7874V16.7872V16.7869V16.7866V16.7864V16.7861V16.7859V16.7856V16.7854V16.7851V16.7848V16.7846V16.7843V16.7841V16.7838V16.7836V16.7833V16.7831V16.7828V16.7826V16.7823V16.7821V16.7818V16.7816V16.7813V16.7811V16.7809V16.7806V16.7804V16.7801V16.7799V16.7797V16.7794V16.7792V16.7789V16.7787V16.7785V16.7782V16.778V16.7778V16.7776V16.7773V16.7771V16.7769V16.7766V16.7764V16.7762V16.776V16.7757V16.7755V16.7753V16.7751V16.7749V16.7746V16.7744V16.7742V16.774V16.7738V16.7736V16.7733V16.7731V16.7729V16.7727V16.7725V16.7723V16.7721V16.7719V16.7717V16.7715V16.7713V16.7711V16.7709V16.7707V16.7705V16.7703V16.7701V16.7699V16.7697V16.7695V16.7693V16.7691V16.7689V16.7687V16.7685V16.7683V16.7682V16.768V16.7678V16.7676V16.7674V16.7672V16.7671V16.7669V16.7667V16.7665V16.7664V16.7662V16.766V16.7658V16.7657V16.7655V16.7653V16.7652V16.765V16.7648V16.7647V16.7645V16.7643V16.7642V16.764V16.7639V16.7637V16.7636V16.7634V16.7633V16.7631V16.763V16.7628V16.7627V16.7625V16.7624V16.7622V16.7621V16.7619V16.7618V16.7617V16.7615V16.7614V16.7612V16.7611V16.761V16.7609V16.7607V16.7606V16.7605V16.7603V16.7602V16.7601V16.76V16.7599V16.7597V16.7596V16.7595V16.7594V16.7593V16.7592V16.759V16.7589V16.7588V16.7587V16.7586V16.7585V16.7584V16.7583V16.7582V16.7581V16.758V16.7579V16.7578V16.7577V16.7576V16.7576V16.7575V16.7574V16.7573V16.7572V16.7571V16.757V16.757V16.7569V16.7568V16.7567V16.7567V16.7566V16.7565V16.7565V16.7564V16.7563V16.7563V16.7562V16.7561V16.7561V16.756V16.756V16.7559V16.7559V16.7558V16.7558V16.7557V16.7557V16.7556V16.7556V16.7555V16.7555V16.7554V16.7554V16.7554V16.7553V16.7553V16.7553V16.7552V16.7552V16.7552V16.7552V16.7551V16.7551V16.7551V16.7551V16.7551V16.755V16.755V16.755V16.5479L18.3936 16.4014L15.9786 13.9864L15.8321 13.84H15.625H15.28H14.935H14.7279L14.5814 13.9864L10.3964 18.1714L10.2294 18.3385L10.2524 18.5737C10.2565 18.6161 10.2565 18.6589 10.2524 18.7013ZM2.75 27V27.5H3.25H28.75C29.0152 27.5 29.2696 27.6054 29.4571 27.7929C29.6446 27.9804 29.75 28.2348 29.75 28.5C29.75 28.7652 29.6446 29.0196 29.4571 29.2071C29.2696 29.3946 29.0152 29.5 28.75 29.5H1.75C1.48478 29.5 1.23043 29.3946 1.04289 29.2071C0.855357 29.0196 0.75 28.7652 0.75 28.5V1.5C0.75 1.23478 0.855357 0.980429 1.04289 0.792893C1.23043 0.605357 1.48478 0.5 1.75 0.5C2.01522 0.5 2.26957 0.605357 2.45711 0.792893C2.64464 0.980429 2.75 1.23478 2.75 1.5V27Z" fill="#9B9BA5" stroke="#11121C"/>
</svg>
