<svg width="49" height="48" viewBox="0 0 49 48" fill="none" xmlns="http://www.w3.org/2000/svg">
<path d="M37.0727 44.9636H6.94546C5.84089 44.9636 4.94545 44.0682 4.94545 42.9636V41.0182M4.94545 41.0182H19.6M4.94545 41.0182H3C1.89543 41.0182 1 40.1228 1 39.0182V11.9909M1 11.9909L11.7091 1M1 11.9909H9.70909C10.8137 11.9909 11.7091 11.0955 11.7091 9.99091V1M11.7091 1H34.8818C35.158 1 35.3818 1.22386 35.3818 1.5V4.94545M35.3818 14.8091V4.94545M35.3818 4.94545H37.3273C38.4318 4.94545 39.3273 5.84088 39.3273 6.94545V16.7818M3.53636 34.2545V37.2C3.53636 37.7523 3.98408 38.2 4.53636 38.2H7.76364M14.5273 29.1818H4.38182M4.38182 26.3636H14.5273M4.38182 22.9818H15.6545M4.38182 20.1636H17.3455M4.38182 16.7818H19.0364M28.0545 4.38182H31.7818C32.058 4.38182 32.2818 4.60568 32.2818 4.88182V8.60909M37.0727 40.4545L42.57 45.7404C43.5864 46.7177 45.1981 46.7019 46.1952 45.7048V45.7048C47.2209 44.6791 47.2038 43.011 46.1574 42.0064L41.0182 37.0727M38.9879 25.1363L37.3969 23.3465C37.2166 23.1437 36.9074 23.1217 36.7002 23.297L26.433 31.9846C26.2345 32.1526 25.9404 32.1404 25.7565 31.9565L23.3354 29.5354C23.1401 29.3401 22.8235 29.3401 22.6283 29.5354L21.0808 31.0828C20.8856 31.2781 20.8856 31.5947 21.0808 31.7899L25.7556 36.4647C25.9398 36.6489 26.2347 36.6608 26.4332 36.4919L38.9382 25.8493C39.1517 25.6676 39.1741 25.3459 38.9879 25.1363Z" stroke="#737383" stroke-width="0.9" stroke-linecap="round"/>
<circle cx="30.3084" cy="29.1815" r="12.7955" stroke="#737383" stroke-width="0.9"/>
</svg>
