<svg width="49" height="48" viewBox="0 0 49 48" fill="none" xmlns="http://www.w3.org/2000/svg">
<path d="M35.1972 2.44468C35.2003 4.74052 35.1999 7.03681 35.1994 9.33292C35.1991 11.0567 35.1987 12.7804 35.1999 14.5038L35.1999 14.5123L35.1992 14.5209C35.1705 14.8576 35.4616 15.1758 35.7878 15.1671L35.7994 15.1668L35.7994 15.1671C36.1265 15.1772 36.4197 14.857 36.3909 14.519L36.3902 14.5105L36.3902 14.5019C36.3911 13.1312 36.3907 11.7599 36.3904 10.3884C36.39 8.78757 36.3896 7.18659 36.3911 5.58629L36.3913 5.3844L36.5932 5.38649C36.7945 5.38857 37.0006 5.38704 37.2088 5.38549C37.5451 5.38298 37.8867 5.38044 38.2218 5.39303C38.7864 5.39553 39.2141 5.92404 39.1756 6.45801C39.1781 7.99117 39.1774 9.5234 39.1768 11.0555C39.176 12.9507 39.1751 14.8457 39.1803 16.7421L39.1803 16.7513L39.1801 16.7513C39.1651 17.0958 39.5175 17.4023 39.8546 17.3399L39.8665 17.3377L39.8665 17.338C40.1685 17.3008 40.3999 16.9862 40.3687 16.6617L40.3678 16.6522L40.3678 16.6427C40.367 15.3375 40.3674 14.0325 40.3678 12.7277C40.3684 10.6073 40.369 8.48719 40.365 6.36676L40.3649 6.36407C40.376 5.40689 39.6742 4.49945 38.7501 4.26539C38.4113 4.19229 38.0623 4.18043 37.6982 4.18377C37.5958 4.18471 37.4912 4.18691 37.3852 4.18914C37.1204 4.19471 36.8472 4.20045 36.5794 4.18716L36.3966 4.17808L36.3894 3.99527C36.3794 3.73977 36.3853 3.47816 36.391 3.22396C36.3936 3.10709 36.3962 2.99179 36.3972 2.87937C36.4004 2.5158 36.3877 2.16685 36.3151 1.8282C36.1003 0.960869 35.3013 0.29661 34.4133 0.2H11.8264C11.6922 0.249358 11.5778 0.311591 11.491 0.397127C9.88866 2.00293 8.28711 3.61034 6.68553 5.21778C4.71421 7.19632 2.74284 9.17491 0.769828 11.1506C0.715223 11.2068 0.664559 11.2558 0.616247 11.3025C0.54241 11.374 0.474069 11.44 0.405555 11.5185C0.30649 11.6318 0.23486 11.7431 0.2 11.8688V40.1343C0.301038 40.8504 0.730553 41.5127 1.36535 41.8374L1.36868 41.8391L1.36866 41.8392C1.74292 42.0395 2.15617 42.0941 2.60332 42.1009C2.78934 42.1038 2.9764 42.0984 3.16811 42.0929C3.20748 42.0918 3.24704 42.0907 3.28682 42.0896C3.51783 42.0834 3.75461 42.0794 3.98866 42.0936L4.17421 42.1048L4.17659 42.2906C4.17965 42.529 4.17817 42.7614 4.17671 42.9916C4.17451 43.3386 4.17234 43.6806 4.18577 44.0301C4.22243 44.8952 4.84279 45.6988 5.66418 45.9661L5.66941 45.9678L5.66938 45.9678C6.01337 46.0903 6.37231 46.0869 6.76793 46.0832L35.1972 2.44468ZM35.1972 2.44468C35.2365 1.84421 34.6934 1.3429 34.1094 1.39627C29.3592 1.39565 24.6085 1.39585 19.858 1.39606C17.4812 1.39617 15.1044 1.39627 12.7278 1.39627H12.5278L12.5278 1.5962C12.5268 4.30682 12.5268 7.01837 12.5278 9.72899C12.5267 9.8244 12.5274 9.91716 12.528 10.0077C12.5303 10.3497 12.5323 10.6605 12.4451 10.9644L12.4451 10.9644L12.4443 10.9672C12.2484 11.6884 11.6536 12.2857 10.9363 12.4829L10.9363 12.4828L10.9329 12.4838C10.6284 12.5732 10.3167 12.571 9.97389 12.5686L35.1972 2.44468ZM7.08536 46.0825C10.6764 46.0828 14.2675 46.0827 17.8586 46.0825C24.1461 46.0822 30.4338 46.082 36.7218 46.0844C36.8013 46.0815 36.8832 46.0829 36.9597 46.0842C36.9718 46.0844 36.9837 46.0846 36.9955 46.0848C37.0858 46.0862 37.1693 46.0866 37.2491 46.0807C37.4078 46.0689 37.5312 46.0333 37.6296 45.9497L37.6369 45.9434L37.637 45.9436C37.902 45.7393 37.9227 45.2882 37.6774 45.0612L37.6686 45.053L37.6688 45.0528C37.5742 44.9541 37.4488 44.9093 37.2839 44.8922C37.2008 44.8836 37.1127 44.8825 37.018 44.8835C36.9934 44.8837 36.9679 44.8841 36.9418 44.8845C36.8725 44.8856 36.7995 44.8868 36.7306 44.8853C26.6289 44.8881 16.5272 44.8881 6.4265 44.8853C5.90929 44.918 5.39705 44.5088 5.37729 43.962C5.37728 43.9617 5.37727 43.9613 5.37726 43.961L5.57713 43.954L7.08536 46.0825ZM7.08536 46.0825C7.08581 46.0825 7.08626 46.0825 7.08671 46.0825L7.08444 46.2825L7.08446 46.0825H7.08536ZM1.39118 12.5684L1.59106 12.5683C4.29222 12.5664 6.99335 12.5674 9.69436 12.5683C9.69474 12.5683 9.69512 12.5683 9.6955 12.5683L1.39118 12.5684ZM1.39118 12.5684L1.3912 12.7683M1.39118 12.5684L1.3912 12.7683M1.3912 12.7683C1.39158 16.3782 1.39135 19.9882 1.39113 23.5983M1.3912 12.7683L1.39113 23.5983M1.39113 23.5983C1.39079 29.0111 1.39046 34.424 1.39213 39.8365M1.39113 23.5983L1.39213 39.8365M1.39213 39.8365C1.35103 40.4076 1.84638 40.9273 2.42579 40.8941L1.39213 39.8365ZM2.57556 11.0299L2.23555 11.3713L2.71733 11.3711C3.56428 11.3708 4.41142 11.3712 5.25866 11.3716C6.95264 11.3724 8.64701 11.3733 10.3411 11.3683C10.8762 11.3806 11.3431 10.9112 11.3319 10.3771C11.3382 8.64283 11.3372 6.90822 11.3363 5.17439C11.3358 4.35836 11.3353 3.54249 11.3356 2.72692L11.3358 2.24319L10.9941 2.58555C8.18632 5.3985 5.38045 8.21424 2.57556 11.0299Z" fill="#737383" stroke="#1B1B1F" stroke-width="0.4"/>
<path d="M27.8024 4.06298L27.8028 4.0631L27.8061 4.05192C27.8849 3.79136 28.1645 3.60909 28.4479 3.63038L28.4552 3.63093L28.4626 3.63094C28.9244 3.6316 29.3858 3.6309 29.847 3.63021C30.7297 3.62888 31.6114 3.62755 32.4933 3.63571L32.4933 3.63574L32.4964 3.63572C32.8166 3.63363 33.1034 3.94337 33.0834 4.26962L33.083 4.26959L33.0831 4.28228C33.0859 5.6187 33.0869 6.95493 33.0831 8.29202L33.083 8.29916L33.0835 8.30629C33.0961 8.48988 33.0079 8.67095 32.858 8.79568C32.7083 8.92027 32.5157 8.9733 32.3376 8.92549L32.3377 8.92522L32.3274 8.92303C32.0548 8.86497 31.8434 8.59182 31.8554 8.31367L31.8557 8.31368L31.8556 8.30361C31.8514 7.70969 31.8521 7.11948 31.8528 6.52847C31.8534 6.04075 31.8539 5.55247 31.8518 5.06112L31.8509 4.8627L31.6525 4.86201C31.2227 4.86051 30.7946 4.86135 30.3671 4.86219C29.701 4.8635 29.0366 4.86481 28.3705 4.85724L28.3705 4.85715L28.3645 4.85726C28.1795 4.86063 28.0042 4.75963 27.8901 4.59837C27.7759 4.43704 27.7385 4.23714 27.8024 4.06298Z" fill="#737383" stroke="#1B1B1F" stroke-width="0.4"/>
<path d="M18.6976 16.203L18.7069 16.203L18.7161 16.2021C19.0138 16.1746 19.3271 16.4226 19.3622 16.7612L19.3619 16.7612L19.3637 16.7724C19.4288 17.1763 19.0686 17.5454 18.7193 17.5091L18.709 17.508L18.6985 17.508C16.6762 17.5089 14.6536 17.5087 12.631 17.5084C9.93388 17.5081 7.23668 17.5078 4.53976 17.51L4.53064 17.5101L4.52155 17.5109C4.24348 17.5366 3.96973 17.4202 3.85313 17.183L3.85343 17.1829L3.84778 17.1729C3.75871 17.0153 3.7487 16.8141 3.81099 16.6307C3.8734 16.447 3.99965 16.3055 4.15338 16.2486C4.24253 16.216 4.34097 16.2039 4.45554 16.201C4.51295 16.1996 4.57133 16.2005 4.6342 16.2014L4.63734 16.2015C4.69714 16.2024 4.76125 16.2035 4.82541 16.202C7.1371 16.203 9.44878 16.2027 11.7604 16.2025H11.7604C14.0729 16.2022 16.3852 16.202 18.6976 16.203Z" fill="#737383" stroke="#1B1B1F" stroke-width="0.4"/>
<path d="M28.3321 16.3619L28.3327 16.3618C30.8073 15.9725 33.3908 16.2907 35.6971 17.2625L35.6977 17.2628C38.3387 18.3648 40.6014 20.3337 42.056 22.7826L42.0567 22.7837C44.0442 26.0802 44.4848 30.2414 43.2373 33.8772L43.2369 33.8784C42.8731 34.9619 42.361 35.9949 41.7352 36.9559L41.6464 37.0923L41.7618 37.2069C42.6317 38.0711 43.5028 38.9344 44.3738 39.7976C44.9541 40.3727 45.5343 40.9478 46.1142 41.523C46.2602 41.6744 46.406 41.8156 46.5489 41.9541C46.8168 42.2136 47.0747 42.4635 47.3054 42.7523C47.9243 43.5539 48.1083 44.6632 47.7882 45.6218L47.7875 45.624C47.4975 46.5273 46.7679 47.2811 45.8692 47.6056L45.8692 47.6056L45.8666 47.6065C44.7536 48.0259 43.4152 47.7481 42.5675 46.9218C41.5644 45.9312 40.5659 44.9383 39.5671 43.9452C38.7345 43.1173 37.9016 42.2891 37.0658 41.4619L36.9613 41.3585L36.8315 41.4273C34.9975 42.3987 32.9414 42.9562 30.8642 43.0144L30.8629 43.0145C28.6324 43.0921 26.3855 42.6029 24.3915 41.609L24.3906 41.6086C21.9758 40.4196 19.9396 38.4887 18.6295 36.15L18.6292 36.1494C17.2212 33.6534 16.6476 30.701 17.0302 27.8655L17.0303 27.8647C17.3916 25.1036 18.6471 22.4646 20.5708 20.4384L20.5715 20.4376C22.6051 18.2737 25.386 16.8168 28.3321 16.3619ZM41.0589 38.222L40.9036 38.0695L40.7647 38.2371C40.0301 39.1241 39.1591 39.896 38.2126 40.5632L38.0181 40.7003L38.1867 40.8683C39.1751 41.8534 40.1651 42.8374 41.1549 43.8214C41.8966 44.5587 42.6383 45.296 43.3792 46.0335C43.9087 46.5859 44.7667 46.7814 45.4841 46.506C46.2454 46.232 46.781 45.4597 46.7591 44.6529C46.7582 44.102 46.5005 43.5827 46.1084 43.2189C45.3957 42.5158 44.6842 41.8096 43.9724 41.1032C43.0029 40.1408 42.0329 39.1781 41.0589 38.222ZM28.9094 17.4962C26.8582 17.7462 24.8744 18.5205 23.204 19.7303C21.0397 21.2868 19.4003 23.5547 18.6406 26.1043C17.8112 28.8466 17.9927 31.8778 19.1548 34.4994C20.2516 37.005 22.2229 39.1203 24.6561 40.3959C26.923 41.5969 29.5751 42.0631 32.1195 41.7074C34.0833 41.4374 35.9776 40.687 37.5881 39.5385C39.8823 37.9192 41.5732 35.49 42.2999 32.7906C43.0372 30.1117 42.8045 27.1872 41.6628 24.6529C40.6198 22.3036 38.8049 20.3065 36.5612 19.0319C34.2681 17.7116 31.5383 17.1653 28.9094 17.4962Z" fill="#737383" stroke="#1B1B1F" stroke-width="0.4"/>
<path d="M4.32044 19.697L4.32049 19.6971L4.32652 19.6938C4.43417 19.6355 4.56258 19.6319 4.74849 19.6287C7.05753 19.6315 9.36709 19.6312 11.6766 19.6309C13.5247 19.6306 15.3727 19.6304 17.2204 19.6317L17.2293 19.6317L17.2381 19.6309C17.5436 19.6041 17.8667 19.8906 17.8704 20.2569L17.8701 20.2569L17.8707 20.267C17.8939 20.6486 17.5619 20.9662 17.2449 20.9408L17.2369 20.9402L17.2288 20.9402C14.2347 20.9424 11.2406 20.9419 8.2468 20.9415C7.04909 20.9414 5.85142 20.9412 4.6538 20.9412V20.9407L4.64 20.9417C4.3918 20.9589 4.13482 20.8067 4.03956 20.5542L4.03976 20.5542L4.03614 20.5458C3.90203 20.2343 4.04971 19.8318 4.32044 19.697Z" fill="#737383" stroke="#1B1B1F" stroke-width="0.4"/>
<path d="M4.56342 23.9919C6.54427 24.0002 8.5254 23.999 10.5065 23.9978C12.1042 23.9969 13.7018 23.9959 15.2993 23.9999C15.3128 23.9999 15.3263 23.9998 15.3399 23.9998C15.5704 23.9994 15.8169 23.999 16.0106 23.8466L4.56342 23.9919ZM4.56342 23.9919C4.09296 23.9959 3.70625 23.487 3.80034 22.998L4.56342 23.9919ZM15.2998 23.7999C15.2996 23.7999 15.2993 23.7999 15.2991 23.7999C13.7001 23.7959 12.1025 23.7969 10.5052 23.7978C8.52509 23.799 6.54549 23.8002 4.56426 23.7919L4.56172 23.7919C4.40154 23.7933 4.2426 23.7068 4.12902 23.5583C4.01564 23.4101 3.96175 23.2176 3.99674 23.0358L3.99691 23.0358L3.99815 23.0275C4.03214 22.7996 4.19044 22.603 4.38267 22.529C4.47138 22.4993 4.56862 22.4887 4.68098 22.4862C4.73581 22.4851 4.79124 22.4858 4.85077 22.4867L4.85775 22.4868C4.91763 22.4876 4.9817 22.4884 5.04604 22.4867C6.94287 22.4883 8.84015 22.4882 10.7373 22.488C12.319 22.4879 13.9005 22.4878 15.4817 22.4887V22.4891L15.4946 22.4883C15.7227 22.4737 15.9526 22.5873 16.0643 22.7937L16.0641 22.7938L16.0695 22.8026C16.2409 23.0836 16.1514 23.5044 15.8961 23.6827L15.8959 23.6824L15.887 23.6894C15.7488 23.7981 15.5678 23.7988 15.3086 23.7999L15.2998 23.7999Z" fill="#737383" stroke="#1B1B1F" stroke-width="0.4"/>
<path d="M36.7857 23.3836L36.7876 23.382C37.2383 22.9928 37.9584 22.9487 38.4597 23.2761C38.6571 23.4164 38.8254 23.5936 38.9944 23.7913C39.0456 23.8512 39.0979 23.9143 39.1513 23.9787C39.2693 24.121 39.3926 24.2698 39.5218 24.4054L39.5218 24.4054L39.5248 24.4084C39.9276 24.8135 40.2274 25.2921 40.1416 25.8009L40.1402 25.809L40.1395 25.8173C40.0992 26.2945 39.7355 26.6673 39.303 26.9956L39.3029 26.9954L39.2952 27.0019C37.0854 28.8613 34.8768 30.7225 32.6683 32.5837C30.8585 34.1089 29.0488 35.634 27.2385 37.158L27.2385 37.158L27.2359 37.1603C26.8464 37.5 26.2642 37.6103 25.7809 37.4258L25.781 37.4256L25.7729 37.423C25.5343 37.3432 25.3327 37.1722 25.131 36.9667L25.1311 36.9667L25.1287 36.9644C23.7456 35.6008 22.3615 34.2382 20.9765 32.8774L20.9765 32.8773L20.9725 32.8736C20.5044 32.4383 20.4195 31.6682 20.7781 31.1451C20.8835 30.9987 21.0106 30.8656 21.1504 30.7297C21.1942 30.6872 21.2402 30.6435 21.2871 30.5989C21.3845 30.5064 21.4859 30.4101 21.5799 30.3122C21.6644 30.2335 21.7462 30.1503 21.8246 30.0704C21.8309 30.064 21.8372 30.0577 21.8434 30.0513C21.9302 29.963 22.0135 29.8789 22.0999 29.801C22.2722 29.6455 22.4458 29.5246 22.6496 29.4625L22.6497 29.4626L22.6556 29.4605C23.1548 29.291 23.7464 29.4305 24.1122 29.8022L24.1122 29.8022L24.115 29.805C24.5139 30.1947 24.9091 30.5843 25.3047 30.9742C25.6399 31.3046 25.9753 31.6353 26.3135 31.9665L26.4432 32.0935L26.5822 31.9767C28.5108 30.3551 30.4379 28.7312 32.3649 27.1073C33.8383 25.8657 35.3117 24.6242 36.7857 23.3836L36.7857 23.3836ZM26.8477 33.3209L26.8475 33.3206L26.8383 33.3293C26.6114 33.5461 26.2132 33.5483 25.9998 33.3331L25.9998 33.3331L25.9967 33.3301C25.5701 32.9179 25.1413 32.4951 24.7117 32.0714C24.2206 31.5871 23.7284 31.1016 23.2368 30.6296L23.0949 30.4933L22.9563 30.633C22.7222 30.869 22.4856 31.1012 22.2479 31.3344C22.1074 31.4723 21.9665 31.6106 21.8256 31.7502L21.6815 31.8929L21.8262 32.035C22.5458 32.7416 23.2645 33.4489 23.9833 34.1563L23.9851 34.1581C24.7045 34.866 25.4239 35.5741 26.1444 36.2814L26.2742 36.4089L26.4133 36.2917C30.5663 32.7943 34.7174 29.2951 38.8685 25.7949L39.023 25.6646L38.891 25.5114C38.696 25.2853 38.4985 25.059 38.3015 24.8333C38.1491 24.6588 37.997 24.4845 37.8465 24.3109L37.7176 24.1621L37.5668 24.2887C35.5314 25.9978 33.4996 27.7122 31.4678 29.4263C29.9282 30.7254 28.3886 32.0244 26.8477 33.3209Z" fill="#737383" stroke="#1B1B1F" stroke-width="0.4"/>
<path d="M14.3304 25.9181L14.3404 25.918L14.3504 25.917C14.6406 25.8872 14.9497 26.1132 15 26.4429L14.9997 26.4429L15.002 26.4538C15.0415 26.6417 14.9862 26.8404 14.869 26.992C14.7515 27.144 14.5876 27.2295 14.4257 27.2228L14.4257 27.2226L14.4169 27.2226C12.2469 27.2279 10.0771 27.227 7.90706 27.2262C6.82186 27.2257 5.73658 27.2253 4.65115 27.2256L4.64173 27.2256L4.63236 27.2265C4.32201 27.2559 3.99448 26.9745 3.98804 26.6103L3.98831 26.6103L3.98759 26.6C3.9645 26.2684 4.21275 25.9645 4.48523 25.929C6.49955 25.9125 8.51313 25.9151 10.5277 25.9178C11.7947 25.9195 13.0622 25.9212 14.3304 25.9181Z" fill="#737383" stroke="#1B1B1F" stroke-width="0.4"/>
<path d="M14.2558 28.7732L14.2558 28.7735L14.2663 28.7729C14.5035 28.7598 14.7221 28.8243 14.8499 28.9803L14.8497 28.9806L14.8577 28.9893C14.9757 29.1171 15.03 29.3049 15.011 29.496C14.9921 29.6872 14.9023 29.8579 14.7636 29.9561L14.7634 29.9558L14.753 29.9642C14.6112 30.0796 14.4178 30.0855 14.1531 30.0855C12.2592 30.0825 10.3651 30.0828 8.47115 30.083C7.20864 30.0832 5.94622 30.0833 4.68405 30.0825L4.67488 30.0825L4.66576 30.0834C4.3549 30.1117 4.03523 29.8656 3.99634 29.5333L3.99666 29.5333L3.99472 29.5222C3.9329 29.1679 4.20791 28.809 4.52364 28.7832C6.43333 28.7703 8.34169 28.7722 10.2509 28.7742C11.5852 28.7755 12.92 28.7769 14.2558 28.7732Z" fill="#737383" stroke="#1B1B1F" stroke-width="0.4"/>
<path d="M2.84636 34.5364L2.84654 34.5364L2.84621 34.5279C2.83355 34.1988 3.14681 33.8937 3.4761 33.9155L3.47608 33.9158L3.48753 33.9159C3.80223 33.9187 4.08367 34.213 4.07306 34.5288L4.07288 34.5288L4.07296 34.5373C4.07858 35.1755 4.07759 35.8119 4.07659 36.4495C4.07589 36.8969 4.07519 37.345 4.07678 37.7948L4.07748 37.9934L4.27607 37.9941C4.7589 37.9958 5.23928 37.9952 5.71911 37.9947C6.3178 37.994 6.91563 37.9932 7.51628 37.997L7.51628 37.9972L7.52529 37.9968C7.78381 37.9868 8.03856 38.1588 8.12032 38.4005L8.12021 38.4005L8.12253 38.4067C8.21985 38.6659 8.10636 38.9904 7.86881 39.1299L7.86858 39.1295L7.85746 39.1371C7.73096 39.2233 7.56761 39.2255 7.3347 39.2285L7.32245 39.2286C6.69797 39.2258 6.08223 39.2264 5.46722 39.227C4.81162 39.2277 4.15686 39.2283 3.49324 39.2248L3.49324 39.2243L3.47956 39.2252C3.13411 39.2471 2.81703 38.9214 2.84476 38.5752L2.84541 38.5672L2.8454 38.5591C2.84518 38.2495 2.84481 37.9399 2.84443 37.6304C2.84319 36.5987 2.84194 35.5673 2.84636 34.5364Z" fill="#737383" stroke="#1B1B1F" stroke-width="0.4"/>
</svg>
