<svg width="54" height="54" viewBox="0 0 54 54" fill="none" xmlns="http://www.w3.org/2000/svg">
<path d="M12.704 25.8514C14.3549 24.8968 16.0062 23.9437 17.6575 22.9906C19.4414 21.9609 21.2252 20.9314 23.0082 19.9001L12.704 25.8514ZM12.704 25.8514C12.459 25.9939 12.1708 26.1333 11.8815 26.0372L12.704 25.8514ZM14.9971 12.5118C14.9989 12.9009 14.9976 13.2901 14.9962 13.6794C14.9937 14.3645 14.9912 15.0496 15.0066 15.734C15.0182 16.3179 15.733 16.7106 16.2344 16.4129L14.9971 12.5118ZM14.9971 12.5118C15.0215 12.4979 15.0459 12.484 15.0703 12.4701L14.996 12.3398M14.9971 12.5118L14.996 12.3398M14.996 12.3398L14.846 12.3409C14.8462 12.3689 14.8464 12.397 14.8466 12.4251M14.996 12.3398L14.8466 12.4251M14.8466 12.4251C14.5458 12.5971 14.2458 12.7706 13.9456 12.9441C13.61 13.138 13.2743 13.3321 12.9373 13.5243C12.9383 16.8788 12.9383 20.2342 12.9383 23.5887C12.9133 23.6032 12.8882 23.6177 12.8632 23.6322L12.9383 23.7621H13.0883C13.0883 23.7331 13.0883 23.7042 13.0883 23.6752C14.0152 23.139 14.9435 22.605 15.8719 22.0711C17.8584 20.9287 19.8449 19.7862 21.8162 18.6205C21.8023 16.5775 21.8043 14.5342 21.8064 12.491C21.8077 11.1867 21.809 9.88241 21.8061 8.5783C21.8312 8.56371 21.8562 8.5491 21.8813 8.5345L21.8057 8.40493L21.6557 8.4053C21.6558 8.43424 21.6558 8.46319 21.6559 8.49213C21.3287 8.68222 21.0006 8.87063 20.6725 9.05898C20.3639 9.23613 20.0554 9.41323 19.748 9.59161L14.8466 12.4251ZM22.9424 6.307L22.9423 6.30718L22.9492 6.31074C23.2171 6.44812 23.3698 6.74734 23.3464 7.05703L23.346 7.05699V7.06833V7.09165V7.11496V7.13828V7.16159V7.18491V7.20822V7.23154V7.25486V7.27817V7.30149V7.3248V7.34812V7.37143V7.39475V7.41806V7.44138V7.46469V7.48801V7.51133V7.53464V7.55796V7.58127V7.60459V7.6279V7.65122V7.67453V7.69785V7.72116V7.74448V7.7678V7.79111V7.81443V7.83774V7.86106V7.88437V7.90769V7.931V7.95432V7.97763V8.00095V8.02426V8.04758V8.0709V8.09421V8.11753V8.14084V8.16416V8.18747V8.21079V8.2341V8.25742V8.28073V8.30405V8.32736V8.35068V8.374V8.39731V8.42063V8.44394V8.46726V8.49057V8.51389V8.5372V8.56052V8.58383V8.60715V8.63046V8.65378V8.6771V8.70041V8.72373V8.74704V8.77036V8.79367V8.81699V8.8403V8.86362V8.88693V8.91025V8.93356V8.95688V8.98019V9.00351V9.02682V9.05014V9.07346V9.09677V9.12009V9.1434V9.16672V9.19003V9.21335V9.23666V9.25998V9.28329V9.30661V9.32992V9.35324V9.37655V9.39987V9.42318V9.4465V9.46981V9.49313V9.51645V9.53976V9.56308V9.58639V9.60971V9.63302V9.65634V9.67965V9.70297V9.72628V9.7496V9.77291V9.79623V9.81954V9.84286V9.86617V9.88949V9.9128V9.93612V9.95943V9.98275V10.0061V10.0294V10.0527V10.076V10.0993V10.1226V10.146V10.1693V10.1926V10.2159V10.2392V10.2625V10.2858V10.3092V10.3325V10.3558V10.3791V10.4024V10.4257V10.449V10.4724V10.4957V10.519V10.5423V10.5656V10.5889V10.6123V10.6356V10.6589V10.6822V10.7055V10.7288V10.7521V10.7755V10.7988V10.8221V10.8454V10.8687V10.892V10.9153V10.9387V10.962V10.9853V11.0086V11.0319V11.0552V11.0785V11.1019V11.1252V11.1485V11.1718V11.1951V11.2184V11.2418V11.2651V11.2884V11.3117V11.335V11.3583V11.3816V11.405V11.4283V11.4516V11.4749V11.4982V11.5215V11.5448V11.5682V11.5915V11.6148V11.6381V11.6614V11.6847V11.708V11.7314V11.7547V11.778V11.8013V11.8246V11.8479V11.8712V11.8946V11.9179V11.9412V11.9645V11.9878V12.0111V12.0344V12.0578V12.0811V12.1044V12.1277V12.151V12.1743V12.1976V12.221V12.2443V12.2676V12.2909V12.3142V12.3375V12.3608V12.3842V12.4075V12.4308V12.4541V12.4774V12.5007V12.524V12.5474V12.5707V12.594V12.6173V12.6406V12.6639V12.6872V12.7106V12.7339V12.7572V12.7805V12.8038V12.8271V12.8504V12.8738V12.8971V12.9204V12.9437V12.967V12.9903V13.0136V13.037V13.0603V13.0836V13.1069V13.1302V13.1535V13.1768V13.2002V13.2235V13.2468V13.2701V13.2934V13.3167V13.34V13.3633V13.3867V13.41V13.4333V13.4566V13.4799V13.5032V13.5265V13.5499V13.5732V13.5965V13.6198V13.6431V13.6664V13.6897V13.7131V13.7364V13.7597V13.783V13.8063V13.8296V13.8529V13.8762V13.8996V13.9229V13.9462V13.9695V13.9928V14.0161V14.0394V14.0628V14.0861V14.1094V14.1327V14.156V14.1793V14.2026V14.2259V14.2493V14.2726V14.2959V14.3192V14.3425V14.3658V14.3891V14.4125V14.4358V14.4591V14.4824V14.5057V14.529V14.5523V14.5756V14.599V14.6223V14.6456V14.6689V14.6922V14.7155V14.7388V14.7621V14.7855V14.8088V14.8321V14.8554V14.8787V14.902V14.9253V14.9487V14.972V14.9953V15.0186V15.0419V15.0652V15.0885V15.1118V15.1352V15.1585V15.1818V15.2051V15.2284V15.2517V15.275V15.2983V15.3217V15.345V15.3683V15.3916V15.4149V15.4382V15.4615V15.4848V15.5082V15.5315V15.5548V15.5781V15.6014V15.6247V15.648V15.6713V15.6946V15.718V15.7413V15.7646V15.7879V15.8112V15.8345V15.8578V15.8811V15.9045V15.9278V15.9511V15.9744V15.9977V16.021V16.0443V16.0676V16.091V16.1143V16.1376V16.1609V16.1842V16.2075V16.2308V16.2541V16.2774V16.3008V16.3241V16.3474V16.3707V16.394V16.4173V16.4406V16.4639V16.4873V16.5106V16.5339V16.5572V16.5805V16.6038V16.6271V16.6504V16.6737V16.6971V16.7204V16.7437V16.767V16.7903V16.8136V16.8369V16.8602V16.8835V16.9069V16.9302V16.9535V16.9768V17.0001V17.0234V17.0467V17.07V17.0933V17.1167V17.14V17.1633V17.1866V17.2099V17.2332V17.2565V17.2798V17.3031V17.3265V17.3498V17.3731V17.3964V17.4197V17.443V17.4663V17.4896V17.5129V17.5363V17.5596V17.5829V17.6062V17.6295V17.6528V17.6761V17.6994V17.7227V17.7461V17.7694V17.7927V17.816V17.8393V17.8626V17.8859V17.9092V17.9325V17.9558V17.9792V18.0025V18.0258V18.0491V18.0724V18.0957V18.119V18.1423V18.1656V18.1889V18.2123V18.2356V18.2589V18.2822V18.3055V18.3288V18.3521V18.3754V18.3987V18.422V18.4454V18.4687V18.492V18.5153V18.5386V18.5619V18.5852V18.6085V18.6318V18.6551V18.6785V18.7018V18.7251V18.7484V18.7717V18.795V18.8183V18.8416V18.8649V18.8882V18.9115V18.9349V18.9582V18.9815V19.0048H23.3455L23.3464 19.0164C23.3706 19.3277 23.2128 19.627 22.9399 19.7665L22.9398 19.7663L22.9331 19.7702C21.1495 20.8019 19.3657 21.8314 17.5818 22.8611C15.931 23.8139 14.2801 24.7668 12.6289 25.7216L12.6285 25.7218C12.3798 25.8665 12.1476 25.9672 11.9294 25.895C11.774 25.8417 11.626 25.7646 11.4747 25.6767C11.4178 25.6437 11.358 25.6075 11.2969 25.5707C11.2028 25.5138 11.1056 25.4551 11.0115 25.403C9.66119 24.6218 8.31008 23.8424 6.95902 23.063C5.04886 21.961 3.13883 20.8592 1.23133 19.7524L1.23145 19.7522L1.22383 19.7483C0.963995 19.6167 0.821012 19.3208 0.84016 19.0163L0.840448 19.0163L0.840455 19.007C0.841723 17.4019 0.8413 15.7969 0.840878 14.1919C0.840244 11.7846 0.839611 9.37752 0.844678 6.97046L0.844806 6.97046L0.844564 6.96428C0.833546 6.68291 1.01055 6.42369 1.27367 6.28985L1.27377 6.29004L1.28062 6.28608C4.7208 4.30157 8.16106 2.317 11.5982 0.329267C11.7312 0.256762 11.8715 0.196693 12.0157 0.15H12.1419C12.3333 0.195996 12.5173 0.281374 12.6987 0.385436C14.4384 1.39554 16.185 2.40309 17.9313 3.41048C19.604 4.37543 21.2765 5.34023 22.9424 6.307ZM9.91985 2.90061L9.69118 3.03024L9.91912 3.16117C11.5475 4.09645 13.1783 5.02858 14.809 5.96062C16.1488 6.72641 17.4886 7.49214 18.8267 8.2595L18.9012 8.30224L18.9758 8.25957C19.6645 7.86554 20.3511 7.46839 21.0364 7.07029L21.2601 6.94037L21.0362 6.81077C18.0821 5.10039 15.1269 3.39315 12.1675 1.69012L12.0922 1.64681L12.0172 1.69052C11.3193 2.09701 10.6211 2.50307 9.91985 2.90061ZM6.8532 4.67425L6.62883 4.80553L6.85477 4.93409C8.53649 5.89107 10.2157 6.85182 11.8952 7.81272C13.1861 8.55129 14.4771 9.28994 15.7695 10.027L15.8451 10.0701L15.92 10.0259C16.1456 9.89287 16.3727 9.76237 16.6006 9.63139L16.601 9.63116C16.8285 9.50039 17.0569 9.36913 17.284 9.23516L17.5069 9.10376L17.2821 8.97564C16.1422 8.32575 15.0031 7.67348 13.864 7.02115C12.0322 5.97218 10.2001 4.92308 8.36373 3.88348L8.28757 3.84036L8.21257 3.88544C7.94183 4.04814 7.67035 4.20373 7.39726 4.36025C7.21669 4.46374 7.03542 4.56764 6.8532 4.67425ZM3.15713 6.80243L2.92868 6.93082L3.15508 7.06279C5.1649 8.23428 7.17934 9.39658 9.19352 10.5587C10.1347 11.1018 11.0759 11.6448 12.0165 12.1888L12.0913 12.232L12.1662 12.1891C12.8515 11.7963 13.537 11.4023 14.2195 11.0051L14.4441 10.8743L14.2186 10.7452C13.7449 10.4741 13.2713 10.2029 12.7977 9.93166C10.3027 8.50294 7.80776 7.07423 5.30981 5.64999L5.23503 5.60736L5.16049 5.65041C4.98978 5.749 4.81937 5.84777 4.64906 5.94649C4.15266 6.23421 3.65709 6.52144 3.15713 6.80243ZM2.45689 8.27297L2.23195 8.14286L2.23179 8.40272C2.22967 11.8161 2.22967 15.2305 2.23179 18.6438L2.23184 18.7305L2.30693 18.7737C4.19082 19.8586 6.07288 20.9459 7.95525 22.0335C9.02764 22.6531 10.1001 23.2727 11.1731 23.892L11.3979 24.0217L11.3981 23.7621C11.3993 21.8124 11.3991 19.8624 11.3989 17.9123C11.3988 16.4498 11.3987 14.9871 11.3991 13.5244L11.3992 13.4379L11.3243 13.3945C9.72518 12.4687 8.12432 11.545 6.52351 10.6213C5.16757 9.83895 3.81166 9.0566 2.45689 8.27297ZM19.6727 9.46186L19.5982 9.50511L19.598 9.59127C19.5966 10.2302 19.5971 10.8679 19.5976 11.5053C19.5982 12.2838 19.5988 13.062 19.5959 13.8415L19.5956 13.8415L19.5962 13.8511C19.6134 14.1366 19.4439 14.411 19.1833 14.5448L19.1832 14.5447L19.1767 14.5484C18.9585 14.6746 18.7404 14.801 18.5225 14.9274C17.7368 15.3829 16.9519 15.8379 16.161 16.2821L16.161 16.2821L16.1579 16.2839C15.9615 16.4005 15.715 16.3862 15.5093 16.2727C15.3036 16.1592 15.1611 15.9591 15.1566 15.7311L15.1565 15.7307C15.1412 15.0473 15.1437 14.3666 15.1462 13.6837C15.1478 13.2367 15.1494 12.7887 15.146 12.3386L15.1441 12.0827L14.9218 12.2094C14.5777 12.4055 14.2347 12.6037 13.892 12.8018L13.871 12.8139C13.5352 13.008 13.1997 13.2019 12.863 13.394L12.7873 13.4372L12.7873 13.5244C12.7883 16.9366 12.7883 20.3498 12.7883 23.7621V24.0222L13.0135 23.8919C13.9893 23.3268 14.9674 22.7643 15.9457 22.2017C17.9326 21.059 19.9205 19.9157 21.8926 18.7496L21.9668 18.7057L21.9662 18.6195C21.9523 16.5768 21.9543 14.5349 21.9564 12.4923C21.9577 11.1301 21.9591 9.76767 21.9557 8.40456L21.955 8.14415L21.7301 8.27536C21.353 8.49537 20.9761 8.71171 20.5989 8.92825C20.2906 9.10528 19.9819 9.28244 19.6727 9.46186ZM16.6094 11.2337L16.5351 11.2773L16.5352 11.3635C16.5363 11.8373 16.536 12.311 16.5358 12.7851V12.7852C16.5355 13.2592 16.5352 13.7335 16.5363 14.2077L16.5369 14.4625L16.7594 14.3384C16.969 14.2214 17.171 14.1043 17.3716 13.9879C17.6187 13.8446 17.8638 13.7024 18.1191 13.5631L18.1949 13.5216L18.1971 13.4352C18.2127 12.822 18.2105 12.2058 18.2083 11.5924C18.2071 11.2497 18.2059 10.9079 18.2077 10.568L18.2092 10.3063L17.9826 10.4373C17.8939 10.4886 17.8052 10.5399 17.7165 10.5911C17.3471 10.8046 16.9776 11.0182 16.6094 11.2337Z" fill="#737383" stroke="#1B1B1F" stroke-width="0.3"/>
<path d="M27.6316 9.76005L27.6315 9.76015L27.6363 9.7644C27.9307 10.0228 27.9227 10.545 27.6199 10.7938L27.6199 10.7938L27.6168 10.7964C27.4675 10.9259 27.2824 10.9665 27.0602 10.973C26.9609 10.9759 26.8596 10.9719 26.753 10.9678C26.7398 10.9673 26.7264 10.9668 26.713 10.9663C26.5981 10.9619 26.4771 10.9583 26.3591 10.9661C26.2267 10.9561 26.0892 10.9605 25.9584 10.9657C25.9454 10.9663 25.9324 10.9668 25.9194 10.9673C25.7961 10.9723 25.6785 10.9771 25.5641 10.9728C25.313 10.9633 25.1082 10.9106 24.9533 10.7447L24.9534 10.7447L24.949 10.7403C24.7922 10.5856 24.7381 10.3536 24.7837 10.1305C24.8289 9.90884 24.9679 9.71764 25.1705 9.63579C25.3612 9.57415 25.564 9.56145 25.7831 9.56325C25.8523 9.56382 25.9251 9.56598 25.9997 9.56819C26.1509 9.57268 26.3095 9.57738 26.4608 9.56953C26.5635 9.57401 26.6696 9.57133 26.7708 9.56877C26.7789 9.56857 26.787 9.56836 26.7951 9.56816C26.9083 9.56535 27.016 9.56337 27.1197 9.57022C27.3262 9.58386 27.4972 9.63152 27.6316 9.76005Z" fill="#737383" stroke="#1B1B1F" stroke-width="0.3"/>
<path d="M34.4227 9.76183L34.4226 9.76194L34.4277 9.76639C34.7205 10.0249 34.7122 10.5443 34.4114 10.7919L34.4114 10.7919L34.4083 10.7946C34.2579 10.9255 34.0714 10.9664 33.8477 10.9729C33.7482 10.9758 33.6468 10.9718 33.5402 10.9677C33.5262 10.9672 33.5122 10.9666 33.4981 10.9661C33.3824 10.9617 33.2607 10.9582 33.142 10.9663C33.0105 10.9566 32.8742 10.961 32.7445 10.9661C32.732 10.9666 32.7196 10.9671 32.7073 10.9676C32.5844 10.9725 32.4673 10.9772 32.3533 10.9729C32.1041 10.9634 31.9004 10.9113 31.7454 10.7474L31.7455 10.7473L31.741 10.743C31.5835 10.5896 31.5281 10.3579 31.5723 10.1344C31.6162 9.91219 31.7541 9.72024 31.9556 9.63774C32.1468 9.57434 32.3508 9.56134 32.5716 9.56327C32.6408 9.56387 32.7137 9.56609 32.7884 9.56837C32.9413 9.57302 33.1019 9.57792 33.2549 9.56968C33.3555 9.57384 33.4597 9.57125 33.5592 9.56877C33.569 9.56853 33.5786 9.56829 33.5883 9.56805C33.7013 9.56531 33.8089 9.56352 33.9125 9.57061C34.1187 9.58474 34.2894 9.63304 34.4227 9.76183Z" fill="#737383" stroke="#1B1B1F" stroke-width="0.3"/>
<path d="M38.8238 10.0425L38.8238 10.0427L38.8321 10.0403C39.0268 9.98391 39.2269 10.0587 39.4727 10.1505C39.4814 10.1537 39.4902 10.157 39.499 10.1603C39.9924 10.3575 40.4755 10.5717 40.9147 10.8531L40.9147 10.8531L40.9172 10.8546C41.2094 11.0341 41.3148 11.4612 41.1417 11.7601L41.1416 11.7601L41.1386 11.7657C40.9834 12.0623 40.5884 12.2102 40.2864 12.0774C40.1482 12.013 40.0143 11.9424 39.8767 11.8698C39.8282 11.8442 39.7792 11.8184 39.7294 11.7925C39.541 11.6946 39.3446 11.5979 39.1354 11.5228C39.0997 11.5091 39.0644 11.4959 39.0296 11.4829C38.894 11.4323 38.7659 11.3845 38.6503 11.3185C38.5098 11.2383 38.407 11.1411 38.355 11.0013L38.3524 10.9943L38.3491 10.9876C38.2608 10.8072 38.2752 10.5959 38.3687 10.4125C38.4625 10.2286 38.6288 10.087 38.8238 10.0425Z" fill="#737383" stroke="#1B1B1F" stroke-width="0.3"/>
<path d="M43.53 14.6373L43.5301 14.6375L43.5366 14.6347C43.8832 14.4855 44.3282 14.6588 44.4748 14.9825L44.4748 14.9826L44.4771 14.9874C44.7479 15.5324 44.9522 16.1092 45.0961 16.6983L45.0961 16.6983L45.0969 16.7016C45.1818 17.0177 44.9819 17.3843 44.6446 17.4933L44.6445 17.4931L44.6371 17.4959C44.4521 17.5667 44.2379 17.5482 44.0557 17.4595C43.8733 17.3709 43.7374 17.2195 43.6934 17.0411L43.6934 17.041L43.692 17.0361C43.5473 16.5257 43.3711 16.0244 43.1496 15.5371L43.1497 15.5371L43.1476 15.5328C42.9886 15.2107 43.1675 14.7733 43.53 14.6373Z" fill="#737383" stroke="#1B1B1F" stroke-width="0.3"/>
<path d="M43.7612 21.1545L43.7613 21.1548L43.7703 21.1504C43.9837 21.0448 44.2311 21.1063 44.417 21.2805C44.6023 21.4542 44.7002 21.7178 44.6253 21.9744C44.4233 22.6255 44.1241 23.2484 43.7623 23.8164C43.4906 24.2074 42.8289 24.1044 42.6741 23.6227L42.6745 23.6226L42.6705 23.6127C42.5844 23.3982 42.6241 23.198 42.7229 22.9801C42.7707 22.8746 42.8297 22.7705 42.8923 22.6603C42.8952 22.6552 42.8981 22.65 42.901 22.6449C42.964 22.5338 43.0304 22.4158 43.0818 22.2954C43.1424 22.1834 43.1907 22.0617 43.2348 21.9455C43.2437 21.9221 43.2525 21.8989 43.2611 21.876C43.2971 21.7801 43.3314 21.689 43.3706 21.6016C43.4674 21.3858 43.579 21.2299 43.7612 21.1545Z" fill="#737383" stroke="#1B1B1F" stroke-width="0.3"/>
<path d="M39.0835 25.8007L39.0835 25.8007L39.0853 25.8C39.3408 25.6888 39.6691 25.7823 39.8411 26.0302L39.8409 26.0303L39.8455 26.0363C40.0408 26.2896 40.0448 26.6957 39.8559 26.9595L39.8542 26.962C39.7319 27.1405 39.5364 27.2212 39.302 27.318C39.2748 27.3292 39.2471 27.3407 39.2189 27.3525C38.7568 27.5293 38.293 27.6832 37.819 27.7687L37.819 27.7686L37.8141 27.7697C37.6376 27.8076 37.4509 27.7489 37.301 27.619C37.1512 27.4892 37.049 27.2967 37.04 27.0889L37.0402 27.0889L37.0394 27.0811C37.0034 26.7038 37.2733 26.3484 37.5979 26.29L37.5979 26.2901L37.6049 26.2885C38.1117 26.1721 38.6041 26.0019 39.0835 25.8007Z" fill="#737383" stroke="#1B1B1F" stroke-width="0.3"/>
<path d="M26.3478 26.5167L26.3474 26.517L26.3541 26.5258C26.5027 26.7249 26.5308 27.0091 26.4521 27.2641C26.374 27.5177 26.2033 27.7047 25.9947 27.7511C25.7217 27.7801 25.4456 27.7833 25.1636 27.7807C25.0891 27.78 25.0139 27.7789 24.9383 27.7778C24.7275 27.7748 24.5132 27.7717 24.3005 27.7773L24.3005 27.7771L24.2925 27.7777C23.998 27.8012 23.686 27.6156 23.5841 27.286L23.5843 27.2859L23.5819 27.2794C23.5119 27.0853 23.5249 26.8618 23.6036 26.669C23.6814 26.478 23.8166 26.3332 23.9757 26.273C24.1677 26.2252 24.3672 26.2171 24.5792 26.2198C24.6412 26.2206 24.7054 26.2223 24.7709 26.2242C24.9236 26.2284 25.0833 26.2328 25.2382 26.2252C25.303 26.226 25.3738 26.2245 25.4428 26.2231C25.486 26.2222 25.5286 26.2213 25.5685 26.221C25.6796 26.2202 25.7852 26.2232 25.884 26.2382C26.0771 26.2675 26.2353 26.3403 26.3478 26.5167Z" fill="#737383" stroke="#1B1B1F" stroke-width="0.3"/>
<path d="M33.3243 26.5069L33.3239 26.5071L33.3307 26.5159C33.4832 26.7137 33.5143 26.9993 33.4373 27.257C33.3607 27.5132 33.1902 27.703 32.9816 27.7507C32.7083 27.7801 32.4319 27.7833 32.1497 27.7806C32.0748 27.7799 31.9991 27.7788 31.923 27.7776C31.7124 27.7744 31.4983 27.7712 31.2859 27.7768L31.2859 27.7765L31.2774 27.7772C30.985 27.8017 30.6737 27.6182 30.5692 27.2912L30.5693 27.2911L30.5669 27.2847C30.4949 27.0904 30.5069 26.8656 30.5856 26.6712C30.6635 26.4788 30.7996 26.3324 30.96 26.2717C31.1513 26.2245 31.3503 26.2169 31.562 26.2199C31.6218 26.2207 31.6836 26.2225 31.7467 26.2242C31.9013 26.2286 32.0631 26.2331 32.2205 26.225C32.2882 26.226 32.3613 26.2245 32.4323 26.223C32.472 26.2222 32.5111 26.2213 32.5483 26.221C32.6586 26.2199 32.7633 26.2225 32.8614 26.2367C33.0534 26.2646 33.2108 26.335 33.3243 26.5069Z" fill="#737383" stroke="#1B1B1F" stroke-width="0.3"/>
<path d="M18.9858 27.2109L18.986 27.2113L18.9967 27.2064C19.2459 27.0934 19.5279 27.1591 19.7308 27.3278C19.9342 27.497 20.0296 27.7442 19.9487 27.974L19.9483 27.9738L19.9451 27.9858C19.8936 28.1827 19.7488 28.3058 19.5355 28.4102C19.4286 28.4626 19.3117 28.5067 19.1883 28.5532L19.1861 28.5541C19.0682 28.5985 18.9435 28.6455 18.8298 28.7017C18.7039 28.7514 18.5823 28.8176 18.4681 28.8817C18.4505 28.8916 18.433 28.9015 18.4158 28.9112C18.3164 28.9673 18.2224 29.0204 18.1264 29.0654C17.9043 29.1697 17.7003 29.2169 17.4783 29.1383L17.4784 29.1381L17.4701 29.1356C16.9839 28.9945 16.8644 28.3314 17.2442 28.044C17.7756 27.6959 18.3727 27.4327 18.9858 27.2109Z" fill="#737383" stroke="#1B1B1F" stroke-width="0.3"/>
<path d="M40.4233 28.7926L40.4238 28.7924C42.0732 28.3875 43.847 28.4839 45.4403 29.072L45.4408 29.0722C47.1493 29.6965 48.636 30.8865 49.6211 32.3971L49.6213 32.3974C50.5555 33.8225 51.0412 35.5357 50.9588 37.2305C50.856 38.5939 50.3079 39.883 49.6898 41.1208C48.7495 42.961 47.5606 44.6663 46.3434 46.3519L46.1981 46.5531L46.4438 46.5882C47.9671 46.8058 49.4854 47.108 50.8801 47.7283C51.656 48.0826 52.4074 48.5457 52.8168 49.2635L52.8172 49.2641C53.1815 49.896 53.0596 50.7371 52.5738 51.2883L52.5726 51.2896C51.843 52.1374 50.7453 52.5678 49.6599 52.9264C47.4125 53.603 45.0444 53.8121 42.6915 53.8499H41.541C39.1987 53.731 36.8379 53.5017 34.6425 52.7013C33.7576 52.3621 32.8858 51.9418 32.3156 51.2177L32.3148 51.2168C31.9117 50.7129 31.7931 49.9978 32.0534 49.413C32.3308 48.8035 32.8912 48.3588 33.4964 48.0179C35.0287 47.1866 36.778 46.8386 38.5165 46.5861L38.761 46.5506L38.6167 46.35C37.3497 44.5891 36.1202 42.7997 35.1532 40.8702C34.5732 39.6762 34.0575 38.4353 33.982 37.1264C33.9174 35.2772 34.5259 33.4146 35.6502 31.9327L35.6506 31.9321C36.8121 30.3874 38.5268 29.2512 40.4233 28.7926ZM35.8133 34.5248L35.8131 34.5253C35.3639 35.7562 35.2087 37.1535 35.6539 38.4297C36.2624 40.2365 37.2725 41.8742 38.302 43.4478L38.3028 43.449C39.5623 45.3342 40.941 47.1379 42.3565 48.9046L42.4734 49.0506L42.5905 48.9048C44.3037 46.7709 45.9836 44.593 47.4264 42.2601L47.4271 42.2589C48.1859 41.0064 48.9149 39.6989 49.344 38.2772C49.7877 36.8191 49.5018 35.2379 48.8644 33.9019L48.8639 33.9008C48.0238 32.1764 46.4452 30.8161 44.5901 30.2485L44.59 30.2484C43.1796 29.8183 41.6288 29.821 40.2277 30.2948C38.2066 30.9467 36.5388 32.5566 35.8133 34.5248ZM34.3229 49.1441L34.3228 49.1438L34.314 49.1489C34.2771 49.1702 34.2379 49.1922 34.1972 49.215C34.0533 49.2957 33.8916 49.3865 33.7507 49.4931C33.5665 49.6325 33.3972 49.8132 33.3255 50.0661L33.3109 50.1173L33.3319 50.1663C33.5062 50.5721 33.9059 50.8021 34.222 50.984C34.2376 50.9929 34.253 51.0017 34.2681 51.0105L34.268 51.0106L34.2744 51.0139C35.3085 51.5468 36.4493 51.825 37.5681 52.0447L37.5704 52.0452C39.9398 52.4725 42.363 52.5463 44.7578 52.377L44.7599 52.3769C46.651 52.2164 48.5903 51.9452 50.3596 51.1697L50.3597 51.1701L50.3694 51.165C50.4181 51.1393 50.4697 51.1129 50.5228 51.0857C50.6989 50.9958 50.893 50.8966 51.0654 50.779C51.2934 50.6236 51.5047 50.4232 51.6141 50.1388L51.634 50.0871L51.6155 50.035C51.523 49.773 51.3347 49.5888 51.1329 49.4464C50.9868 49.3433 50.8212 49.2543 50.6717 49.174C50.619 49.1457 50.5683 49.1184 50.5212 49.092L50.5214 49.0917L50.5117 49.0871C48.8746 48.3181 47.0628 48.0339 45.298 47.8533L45.2161 47.845L45.1651 47.9095C45.0188 48.0946 44.8729 48.2798 44.7271 48.465C44.1602 49.1846 43.5947 49.9026 43.0094 50.6043L43.0093 50.6043L43.0069 50.6074C42.8802 50.7676 42.6754 50.8512 42.4628 50.8481C42.2501 50.845 42.0476 50.7553 41.9255 50.5925L41.9256 50.5924L41.9214 50.5873C41.1989 49.7077 40.4933 48.8153 39.7992 47.9142L39.7483 47.8481L39.6652 47.8565C37.8562 48.0401 35.9894 48.3254 34.3229 49.1441Z" fill="#737383" stroke="#1B1B1F" stroke-width="0.3"/>
<path d="M14.4148 31.3725L14.4147 31.3721C14.0683 31.4509 13.9103 31.7822 13.7753 32.1464L13.7751 32.147L13.7751 32.147C13.5907 32.6378 13.4131 33.1179 13.3524 33.6145C13.337 33.8407 13.4764 34.0547 13.7014 34.1847C13.9269 34.3148 14.2076 34.3414 14.4337 34.2198L14.4461 34.2131L14.4464 34.2138C14.6023 34.1478 14.7001 34.0311 14.771 33.8805C14.8377 33.7389 14.8758 33.5789 14.9152 33.4129C14.9192 33.3963 14.9231 33.3797 14.9271 33.363C14.9272 33.3627 14.9273 33.3623 14.9274 33.362L15.0732 33.397C15.1274 33.1566 15.2199 32.9273 15.3124 32.6981C15.3865 32.5144 15.4606 32.3307 15.515 32.1412L14.4148 31.3725ZM14.4148 31.3725L14.4254 31.3692C14.666 31.2955 14.9281 31.3643 15.12 31.5185C15.3106 31.6716 15.4112 31.8904 15.3692 32.1055L14.4148 31.3725Z" fill="#737383" stroke="#1B1B1F" stroke-width="0.3"/>
<path d="M41.4752 32.8594L41.4752 32.8594L41.476 32.8592C42.4697 32.6209 43.5457 32.7294 44.4663 33.1741L44.4663 33.1741L44.4677 33.1748C45.7795 33.7912 46.7495 35.0801 46.974 36.5121L46.974 36.5121L46.9743 36.5137C47.1811 37.7424 46.8429 39.0496 46.0664 40.0247L46.0654 40.026C45.1972 41.1417 43.7784 41.8055 42.3657 41.7421L42.3635 41.742C40.9784 41.7005 39.6356 40.9688 38.8456 39.8316L38.8456 39.8315L38.8444 39.8298C38.0297 38.6919 37.8028 37.1619 38.2476 35.8367L38.2482 35.8348C38.7158 34.3758 39.9838 33.2086 41.4752 32.8594ZM41.7116 34.263C40.1583 34.6563 39.1203 36.3731 39.5211 37.933C39.8618 39.5991 41.7282 40.7204 43.361 40.2109C44.942 39.8057 45.9692 38.0246 45.5118 36.4514C45.1237 34.8372 43.3075 33.7827 41.7116 34.263Z" fill="#737383" stroke="#1B1B1F" stroke-width="0.3"/>
<path d="M14.3132 38.3408L14.3132 38.341L14.3221 38.3388C14.5854 38.2723 14.8969 38.4179 15.0138 38.7014L15.0138 38.7014L15.0147 38.7036C15.0277 38.7338 15.0408 38.7642 15.0538 38.7946C15.2293 39.2032 15.4104 39.6247 15.6482 40.0113L15.648 40.0114L15.6524 40.0178C15.8359 40.2839 15.9118 40.6306 15.7728 40.9009L15.7725 40.9007L15.7687 40.9095C15.5782 41.346 14.9828 41.4091 14.7303 41.0391C14.3784 40.5132 14.0982 39.9254 13.8693 39.3168L13.8694 39.3168L13.8677 39.3126C13.7888 39.1206 13.8052 38.8927 13.8951 38.701C13.9853 38.5088 14.1388 38.3737 14.3132 38.3408Z" fill="#737383" stroke="#1B1B1F" stroke-width="0.3"/>
<path d="M18.85 43.0523L18.8567 43.0491L18.863 43.0453C18.9888 42.9696 19.124 42.964 19.2794 42.9982C19.3972 43.0241 19.5103 43.0682 19.6315 43.1155C19.6787 43.134 19.7272 43.1529 19.7777 43.1714C19.9797 43.2526 20.1854 43.3079 20.3852 43.357C20.4346 43.3691 20.4833 43.3808 20.5315 43.3923C20.6819 43.4284 20.8277 43.4634 20.9727 43.5068C21.1294 43.5564 21.2645 43.6872 21.3479 43.8648C21.4312 44.0422 21.4554 44.252 21.4039 44.4392L21.4038 44.4392L21.4025 44.445C21.3154 44.8196 20.9612 45.059 20.6516 44.9952L20.6517 44.9951L20.6484 44.9945C20.0012 44.8759 19.3586 44.7007 18.7762 44.3963C18.5662 44.2627 18.458 43.9918 18.4737 43.7042C18.4896 43.4142 18.6285 43.1575 18.85 43.0523Z" fill="#737383" stroke="#1B1B1F" stroke-width="0.3"/>
<path d="M28.2095 43.6654L28.2092 43.6656L28.2164 43.673C28.3821 43.8437 28.4438 44.1151 28.3975 44.378C28.3513 44.6402 28.2054 44.8552 28.0033 44.9376C27.8295 44.9958 27.6451 45.0071 27.4441 45.0047C27.384 45.004 27.3207 45.002 27.2556 44.9998C27.1139 44.9952 26.9638 44.9903 26.8205 44.9986C26.7167 44.9932 26.609 44.9964 26.5072 44.9994C26.4983 44.9996 26.4894 44.9999 26.4806 45.0001C26.3653 45.0034 26.2568 45.0056 26.1528 44.9973C25.9484 44.9808 25.7797 44.9251 25.6482 44.7691L25.6483 44.7689L25.6426 44.7629C25.478 44.5883 25.4205 44.3138 25.4718 44.0504C25.5228 43.7885 25.6728 43.577 25.8759 43.5C26.064 43.4489 26.2609 43.4404 26.4719 43.4435C26.532 43.4444 26.5945 43.4463 26.6583 43.4483C26.8106 43.4529 26.9706 43.4578 27.1255 43.4495C27.2155 43.453 27.3092 43.4504 27.3981 43.448C27.4128 43.4476 27.4273 43.4472 27.4417 43.4468C27.5485 43.4441 27.649 43.4429 27.7448 43.4516C27.9333 43.4687 28.0884 43.5222 28.2095 43.6654Z" fill="#737383" stroke="#1B1B1F" stroke-width="0.3"/>
<path d="M34.7658 43.7136L34.7654 43.7138L34.7729 43.7229C34.9346 43.9198 34.9694 44.2127 34.8903 44.4777C34.8114 44.7418 34.6338 44.9353 34.4171 44.9769C34.047 45.0116 33.6814 45.0066 33.3068 45.0014C33.1115 44.9987 32.9137 44.996 32.7116 44.9988L32.7116 44.9986L32.7045 44.9991C32.4335 45.0158 32.1492 44.848 32.0368 44.5519L32.0369 44.5518L32.0343 44.5457C31.9515 44.3536 31.9541 44.1237 32.0272 43.9216C32.0996 43.7214 32.234 43.5665 32.3963 43.5005C32.5841 43.4493 32.7804 43.4405 32.9908 43.4435C33.0514 43.4443 33.1144 43.4462 33.1787 43.4482C33.3311 43.4528 33.4912 43.4576 33.6463 43.4492C33.7265 43.4512 33.8114 43.449 33.893 43.4469C33.9215 43.4462 33.9497 43.4455 33.9771 43.445C34.0887 43.4428 34.1942 43.4435 34.2938 43.4557C34.4886 43.4795 34.6482 43.5453 34.7658 43.7136Z" fill="#737383" stroke="#1B1B1F" stroke-width="0.3"/>
</svg>
