<svg width="54" height="55" viewBox="0 0 54 55" fill="none" xmlns="http://www.w3.org/2000/svg">
<path d="M1.13721 7.09735V19.0035C1.13721 19.1821 1.23245 19.3471 1.38707 19.4364L11.6903 25.3894M1.13721 7.09735L11.6903 13.1947M1.13721 7.09735L5.12394 4.79391M11.6903 25.3894V13.1947M11.6903 25.3894L21.9936 19.4364C22.1482 19.3471 22.2434 19.1821 22.2434 19.0035V7.09735M11.6903 13.1947L15.3433 11.0841M22.2434 7.09735L11.9405 1.14452C11.7857 1.0551 11.5949 1.0551 11.4402 1.14452L8.17261 3.03245M22.2434 7.09735L18.4912 9.2653M5.12394 4.79391L15.3433 11.0841M5.12394 4.79391L8.17261 3.03245M15.3433 11.0841L18.4912 9.2653M15.3433 11.0841V15.1288C15.3433 15.5168 15.766 15.7569 16.0993 15.5583L18.2472 14.2782C18.3985 14.188 18.4912 14.0248 18.4912 13.8487V9.2653M18.4912 9.2653L8.17261 3.03245M25.0576 10.3805H26.9337M31.8585 10.3805H33.9691M38.6594 10.8496C39.0502 10.9277 39.9726 11.1779 40.5355 11.5531M43.5841 15.3053C43.8187 15.6962 44.2877 16.6186 44.2877 17.1814M44.0532 21.8717C43.8968 22.2626 43.4903 23.185 43.1151 23.7478M39.3629 26.562C39.0502 26.7965 38.1903 27.3124 37.2523 27.5M32.7965 27.2655H30.6859M25.7611 27.2655H23.6505M19.1947 27.9691C18.8039 28.0472 17.8346 28.3443 17.0841 28.9071M14.5045 31.9558C13.8009 32.8938 13.8009 33.3629 13.5664 34.0664M13.8009 38.9912C14.0685 39.5384 14.6777 40.7735 14.9735 41.3363M18.4912 43.916C18.8039 44.0723 19.7107 44.4319 20.8363 44.6195M25.5266 44.6195C26.6523 44.6195 27.5591 44.6195 27.8717 44.6195M32.093 44.6195H34.4381M34.4381 37.5841C34.6173 40.9884 39.3739 47.3018 42.0484 50.314C42.2431 50.5333 42.5802 50.5332 42.7741 50.3132C45.4294 47.3007 49.9714 40.9881 50.1505 37.5841C50.385 33.1283 46.6328 29.3761 42.4116 29.3761C38.1903 29.3761 34.2036 33.1283 34.4381 37.5841Z" stroke="#737383" stroke-width="0.9" stroke-linecap="round"/>
<circle cx="42.4112" cy="37.5845" r="3.77124" stroke="#737383" stroke-width="0.9"/>
<path d="M52.7305 50.4824C52.7305 52.4252 48.1107 54.0001 42.4119 54.0001C36.7131 54.0001 32.0933 52.4252 32.0933 50.4824" stroke="#737383" stroke-width="0.9"/>
<path d="M32.0932 50.4824C32.0932 49.0753 35.8454 47.6683 39.5977 47.4337" stroke="#737383" stroke-width="0.9"/>
<path d="M52.7305 50.4824C52.7305 49.0753 48.9783 47.6683 45.2261 47.4337" stroke="#737383" stroke-width="0.9"/>
</svg>
