<svg width="44" height="57" viewBox="0 0 44 57" fill="none" xmlns="http://www.w3.org/2000/svg">
<path d="M12.3163 40.7509C9.49839 41.7293 5.42303 42.9092 3.95848 43.5368C3.23167 43.8483 2.71355 44.201 2.32942 44.5813M12.3163 40.7509C13.8098 40.2323 14.5975 39.8785 15.0156 39.6502C15.2053 39.5467 15.1434 39.315 14.9297 39.2832V39.2832M12.3163 40.7509C13.9252 43.1894 17.8094 48.1719 21.9417 49.0823C22.024 49.1005 22.1071 49.0964 22.1872 49.0699C24.4531 48.3201 29.4296 45.7512 32.1661 41.0991M32.1661 41.0991C34.2556 41.6795 38.8524 43.0493 40.524 43.8851C42.1726 44.7094 42.6017 45.6013 42.9473 46.628C42.9569 46.6564 42.9638 46.6853 42.9679 46.715C43.3057 49.1504 42.9616 52.5995 42.9616 53.9841C42.9616 55.3395 41.8626 55.9256 41.2686 56.0631C41.2365 56.0706 41.2049 56.0736 41.172 56.0736C32.3544 56.0736 17.0525 56.0733 8.83291 56.0733M32.1661 41.0991C31.3289 40.7642 30.5722 40.3488 30.0121 40.0078C29.6354 39.7783 29.7568 39.2368 30.1905 39.1563C33.9928 38.4502 39.9245 36.9373 40.1757 35.179C40.524 32.7413 39.131 16.0257 36.345 11.1503C33.5591 6.27487 30.0767 1.39947 22.4153 1.05123C9.8786 0.00650016 6.21493 15.2672 5.69969 17.0704C5.00321 19.5079 3.26199 33.786 4.30672 35.8755C5.10145 37.4649 11.4169 38.7605 14.9297 39.2832M32.8616 30.9999C30.4239 33.4376 24.8521 38.2433 22.0661 37.9647C20.1655 37.7747 17.5387 36.2361 15.3182 34.6511M32.8616 30.9999C32.9777 30.7677 33.2795 30.0248 33.5581 28.9104C33.8263 27.8376 34.116 21.9452 34.2409 18.8142C34.2493 18.6029 34.1235 18.4125 33.933 18.3207C32.7696 17.76 30.8055 16.3626 29.9159 14.1285C29.8039 13.847 29.4852 13.698 29.2075 13.819C25.2194 15.5573 16.7674 18.4796 10.419 18.1513C10.1269 18.1362 9.87755 18.3658 9.87929 18.6583C9.88328 19.3292 9.89466 20.091 9.91555 20.9008M32.8616 30.9999C31.7008 31.6964 28.822 33.0893 25.2003 33.0893M9.91555 20.9008C9.20643 20.7848 7.78818 20.9008 7.43994 21.5973C6.74345 22.9903 7.09169 27.1692 7.43994 27.8657C7.74538 28.4766 8.13642 28.5622 10.4511 28.5622M9.91555 20.9008C9.98058 23.4216 10.1378 26.4073 10.4511 28.5622M10.4511 28.5622C10.6534 29.9535 10.9209 30.9984 11.2706 31.3481C11.9033 31.9808 13.4701 33.332 15.3182 34.6511M34.4419 20.9008C35.1511 20.7848 36.8183 21.0564 37.0406 21.9456C37.3888 23.3385 37.2147 27.1692 37.0406 27.5174C36.6923 28.2139 36.3441 28.5622 33.9064 28.5622M2.32942 44.5813C1.68286 45.2214 1.41593 45.9397 1.17247 46.6708C0.800003 47.7893 1.14253 53.8178 1.17073 54.3015C1.17206 54.3244 1.17459 54.3432 1.17957 54.3656C1.3107 54.9559 1.89518 56.0736 3.26199 56.0736C3.63844 56.0736 5.78338 56.0733 8.83291 56.0733M2.32942 44.5813C4.26509 46.3225 7.2084 48.9353 8.48466 50.8497C9.18115 51.8944 8.86004 54.9125 8.83291 56.0733M41.3961 44.8786C39.4605 46.6198 36.9239 48.9353 35.6476 50.8497C34.9511 51.8944 35.2722 54.9125 35.2993 56.0733M14.9297 39.2832C14.9297 39.3067 15.7066 38.0051 15.3182 34.6511M29.5559 39.7195C29.2076 39.3067 28.1629 38.262 28.5112 35.1278" stroke="#5C5C5C" stroke-width="0.9" stroke-linecap="round"/>
<path d="M24.9273 32.6904C24.9273 33.024 24.7817 33.3296 24.4746 33.5639C24.1598 33.804 23.6547 33.9816 22.9397 33.9816C22.2246 33.9816 21.7195 33.804 21.4047 33.5639C21.0976 33.3296 20.952 33.024 20.952 32.6904C20.952 32.3569 21.0976 32.0513 21.4047 31.817C21.7195 31.5769 22.2246 31.3992 22.9397 31.3992C23.6547 31.3992 24.1598 31.5769 24.4746 31.817C24.7817 32.0513 24.9273 32.3569 24.9273 32.6904Z" stroke="#5C5C5C" stroke-width="0.9"/>
</svg>
