<svg width="43" height="55" viewBox="0 0 43 55" fill="none" xmlns="http://www.w3.org/2000/svg">
<mask id="path-1-inside-1_1015_7061" fill="white">
<path d="M20.6931 0H21.3068C24.3923 0.0418945 27.5251 0.867969 30.0335 2.71455C32.7564 4.68789 34.6446 7.60869 35.9127 10.6853C37.3912 14.2603 38.1432 18.0888 38.6496 21.9098C39.1281 25.8307 39.3094 29.7827 39.3298 33.7305C39.3287 34.549 38.9264 35.3504 38.2784 35.8456C37.8975 36.1432 37.4373 36.3064 36.9974 36.4923C34.8227 37.4279 32.5279 38.0478 30.2148 38.5269C32.5096 39.3046 34.8109 40.0641 37.109 40.8332C37.9458 41.1179 38.8159 41.3531 39.568 41.8344C41.0153 42.7432 41.9744 44.3749 42.0699 46.0818C42.1236 47.155 42.0806 48.2313 42.0946 49.3056C42.0785 50.3809 42.1268 51.4594 42.071 52.5336C41.9905 53.8452 40.8275 54.942 39.5251 55H2.59175C1.67123 54.9484 0.788263 54.4199 0.350534 53.6014C0.00829069 53.0224 -0.00780227 52.3306 0.0018535 51.6774C0.0147279 49.8856 -0.0131665 48.0938 0.0158008 46.3031C0.0490596 44.622 0.905205 42.9816 2.27525 42.0073C2.96403 41.5014 3.78155 41.2274 4.58513 40.9675C7.01731 40.1543 9.45164 39.3443 11.8827 38.5279C9.56858 38.0467 7.27158 37.4279 5.09581 36.4901C4.63126 36.2946 4.14525 36.1206 3.75258 35.793C3.11316 35.2709 2.74302 34.447 2.76555 33.622C2.81812 28.1542 3.10779 22.6574 4.21392 17.2896C4.9263 13.924 5.94981 10.5757 7.72003 7.60439C8.9034 5.61279 10.4515 3.81133 12.3709 2.49756C14.7999 0.816406 17.7642 0.0612305 20.6931 0ZM13.6229 3.73184C10.8217 5.52256 8.93559 8.43369 7.72325 11.4759C6.4841 14.5342 5.79532 17.7815 5.31789 21.0375C4.73426 25.2388 4.52505 29.4841 4.49286 33.7229C4.47677 34.3073 5.02178 34.6382 5.50994 34.795C8.11378 35.9391 10.8925 36.6212 13.6884 37.1003C13.8418 36.0476 13.7356 34.9798 13.7678 33.9195C12.5737 33.0183 11.1854 32.3157 10.2702 31.0965C9.64583 30.2833 9.24135 29.3154 9.05468 28.3089C8.60193 28.3175 8.14596 28.3486 7.6975 28.2702C6.66756 28.0812 5.79103 27.2368 5.58289 26.2066C5.43805 25.3569 5.5389 24.49 5.50886 23.6328C5.5507 22.6198 5.33613 21.5059 5.9069 20.5971C6.409 19.7441 7.38959 19.2736 8.36268 19.2833C8.34551 18.6925 8.30796 18.1017 8.29938 17.5108C8.28651 17.2272 8.36483 16.9265 8.58905 16.7385C8.84976 16.4946 9.23277 16.5118 9.56429 16.4925C11.8162 16.4355 14.0607 16.1949 16.2815 15.82C17.2256 15.631 18.1708 15.443 19.1138 15.2485C22.2745 14.4708 25.4255 13.5266 28.3255 12.0237C28.5744 11.9034 28.878 11.8809 29.1258 12.0184C29.4112 12.1569 29.5378 12.4695 29.6698 12.7392C30.3864 14.3967 31.6138 15.9307 33.3153 16.6364C33.6115 16.761 33.7906 17.079 33.7949 17.3948C33.8046 18.0243 33.7466 18.6538 33.7327 19.2844C34.2444 19.3091 34.7723 19.38 35.2175 19.6539C36.0222 20.1051 36.5586 20.9859 36.5801 21.9108C36.6015 23.0946 36.5844 24.2806 36.5886 25.4654C36.5983 26.0992 36.4266 26.7437 36.0361 27.2497C35.5233 27.9533 34.6596 28.325 33.8013 28.3347C33.5246 28.7654 33.236 29.193 32.8637 29.5485C32.4377 29.9471 32.2704 30.5261 31.911 30.9751C31.0001 32.2642 29.5614 32.9936 28.3297 33.9217C28.3651 34.9798 28.2546 36.0465 28.4113 37.0981C31.3896 36.5868 34.3549 35.8478 37.1015 34.5608C37.4405 34.3857 37.6283 34.0001 37.61 33.6252C37.5585 29.1038 37.3354 24.5717 36.6401 20.0997C36.1649 17.1918 35.5136 14.2968 34.4064 11.5597C33.3422 8.85801 31.7672 6.27666 29.4756 4.44834C27.5573 2.89932 25.1509 2.02383 22.7079 1.80791C19.5881 1.51143 16.2879 1.99912 13.6229 3.73184ZM13.1155 17.9899C12.0898 18.0684 11.0642 18.136 10.0396 18.2112C10.1855 21.3157 10.4773 24.4116 10.694 27.5118C10.7734 28.9158 11.5223 30.2532 12.6788 31.0524C14.552 32.363 16.4167 33.6886 18.3006 34.983C19.8938 36.0723 22.1232 36.0927 23.7315 35.0249C25.1423 34.0721 26.522 33.0763 27.9178 32.102C26.7805 32.3383 25.6283 32.465 24.4707 32.5413C24.1778 33.0881 23.7207 33.5661 23.1135 33.7487C22.5148 33.9131 21.8818 33.8884 21.2682 33.8486C20.2618 33.767 19.3949 32.9033 19.2952 31.9C19.1836 31.0696 19.5945 30.207 20.2961 29.758C20.956 29.3133 21.7864 29.3831 22.5416 29.4024C23.4064 29.439 24.1595 30.0405 24.5082 30.8161C26.8095 30.6732 29.2374 30.2844 31.1235 28.8557C31.3499 28.2122 31.4153 27.5301 31.455 26.8544C31.6599 23.8885 31.9507 20.9279 32.0687 17.9577C30.4411 17.0564 29.1559 15.6159 28.3276 13.9584C23.5405 16.1745 18.3446 17.4163 13.1155 17.9899ZM7.60953 21.2384C7.29733 21.4629 7.21686 21.8689 7.22866 22.232C7.23081 23.3084 7.22759 24.3848 7.22974 25.4611C7.22544 25.792 7.31664 26.1476 7.58485 26.3624C7.94641 26.6771 8.46031 26.5837 8.89804 26.5901C8.75964 24.7274 8.62017 22.8637 8.47748 21.001C8.18137 21.0386 7.84663 21.0257 7.60953 21.2384ZM33.62 21.0021C33.4784 22.8647 33.3389 24.7274 33.1995 26.5901C33.6383 26.5837 34.15 26.6771 34.5116 26.3635C34.7798 26.1497 34.8731 25.7952 34.8689 25.4654C34.871 24.3858 34.8667 23.3073 34.8699 22.2277C34.8807 21.8668 34.8013 21.4629 34.4891 21.2395C34.2509 21.0268 33.9172 21.0375 33.62 21.0021ZM21.2875 31.1728C20.8701 31.3446 20.9259 32.0332 21.3722 32.1202C21.7906 32.1664 22.2262 32.1879 22.6404 32.0977C23.0695 31.9258 23.0041 31.2179 22.5449 31.1427C22.1297 31.1008 21.6952 31.0718 21.2875 31.1728ZM15.4876 35.1248C15.4704 36.1217 15.6002 37.1819 15.1249 38.1025C14.6518 39.137 13.653 39.8277 12.5758 40.1167C13.9341 41.7828 15.4736 43.3061 17.1848 44.6091C18.3661 45.5093 19.661 46.2655 21.0493 46.7983C22.2262 46.3439 23.3388 45.7359 24.3698 45.0076C26.3063 43.6305 28.0165 41.9515 29.5249 40.1178C28.4478 39.8299 27.4489 39.1402 26.9758 38.1058C26.4984 37.1852 26.6282 36.1228 26.611 35.1248C25.8257 35.6576 25.0758 36.2474 24.2475 36.7168C22.5835 37.6417 20.5161 37.7899 18.7351 37.1196C17.5271 36.6835 16.5433 35.8284 15.4876 35.1248ZM4.46604 42.8205C4.04655 42.9559 3.64959 43.1535 3.27838 43.392C4.7364 44.8594 6.20515 46.316 7.66103 47.7855C8.40452 48.5364 8.92915 49.5236 9.02464 50.585C9.10725 51.4798 9.05146 52.38 9.06648 53.277C17.055 53.278 25.0436 53.278 33.0321 53.277C33.0471 52.3832 32.9924 51.4862 33.0729 50.5946C33.1662 49.5301 33.6908 48.5386 34.4376 47.7866C35.8934 46.3171 37.3611 44.8583 38.8202 43.392C38.449 43.1546 38.052 42.9559 37.6315 42.8205C35.5093 42.1137 33.3872 41.4036 31.2651 40.6968C29.953 42.3511 28.5196 43.9184 26.8782 45.2515C25.2614 46.5781 23.4793 47.7426 21.5042 48.458C21.2606 48.5515 20.9914 48.6062 20.7414 48.5063C19.9035 48.2238 19.101 47.8436 18.3317 47.4106C15.3889 45.7381 12.9138 43.3469 10.8335 40.6968C8.71029 41.4036 6.58924 42.1137 4.46604 42.8205ZM1.73453 46.301C1.71736 48.1604 1.73667 50.021 1.72487 51.8805C1.73024 52.2371 1.70878 52.6432 1.96734 52.9268C2.19157 53.2125 2.57136 53.2855 2.91575 53.2791C4.39309 53.278 5.86934 53.278 7.34668 53.278C7.34453 52.6002 7.3499 51.9224 7.34668 51.2445C7.34346 50.7805 7.28016 50.3078 7.07632 49.8856C6.85316 49.3861 6.45084 49.0026 6.0689 48.6234C4.76215 47.3172 3.45755 46.0088 2.1508 44.7025C1.94159 45.2128 1.73024 45.7392 1.73453 46.301ZM36.0297 48.6234C35.3034 49.2562 34.7165 50.1306 34.7551 51.1339C34.7444 51.8482 34.7551 52.5626 34.7519 53.278C36.1198 53.2802 37.4877 53.2737 38.8545 53.2802C39.1775 53.2727 39.5208 53.306 39.8223 53.1674C40.1849 52.9987 40.3812 52.598 40.3673 52.2081C40.3737 50.2756 40.3716 48.342 40.3673 46.4095C40.3855 45.8111 40.1752 45.245 39.9478 44.7025C38.641 46.0077 37.3375 47.3172 36.0297 48.6234Z"/>
</mask>
<path d="M20.6931 0H21.3068C24.3923 0.0418945 27.5251 0.867969 30.0335 2.71455C32.7564 4.68789 34.6446 7.60869 35.9127 10.6853C37.3912 14.2603 38.1432 18.0888 38.6496 21.9098C39.1281 25.8307 39.3094 29.7827 39.3298 33.7305C39.3287 34.549 38.9264 35.3504 38.2784 35.8456C37.8975 36.1432 37.4373 36.3064 36.9974 36.4923C34.8227 37.4279 32.5279 38.0478 30.2148 38.5269C32.5096 39.3046 34.8109 40.0641 37.109 40.8332C37.9458 41.1179 38.8159 41.3531 39.568 41.8344C41.0153 42.7432 41.9744 44.3749 42.0699 46.0818C42.1236 47.155 42.0806 48.2313 42.0946 49.3056C42.0785 50.3809 42.1268 51.4594 42.071 52.5336C41.9905 53.8452 40.8275 54.942 39.5251 55H2.59175C1.67123 54.9484 0.788263 54.4199 0.350534 53.6014C0.00829069 53.0224 -0.00780227 52.3306 0.0018535 51.6774C0.0147279 49.8856 -0.0131665 48.0938 0.0158008 46.3031C0.0490596 44.622 0.905205 42.9816 2.27525 42.0073C2.96403 41.5014 3.78155 41.2274 4.58513 40.9675C7.01731 40.1543 9.45164 39.3443 11.8827 38.5279C9.56858 38.0467 7.27158 37.4279 5.09581 36.4901C4.63126 36.2946 4.14525 36.1206 3.75258 35.793C3.11316 35.2709 2.74302 34.447 2.76555 33.622C2.81812 28.1542 3.10779 22.6574 4.21392 17.2896C4.9263 13.924 5.94981 10.5757 7.72003 7.60439C8.9034 5.61279 10.4515 3.81133 12.3709 2.49756C14.7999 0.816406 17.7642 0.0612305 20.6931 0ZM13.6229 3.73184C10.8217 5.52256 8.93559 8.43369 7.72325 11.4759C6.4841 14.5342 5.79532 17.7815 5.31789 21.0375C4.73426 25.2388 4.52505 29.4841 4.49286 33.7229C4.47677 34.3073 5.02178 34.6382 5.50994 34.795C8.11378 35.9391 10.8925 36.6212 13.6884 37.1003C13.8418 36.0476 13.7356 34.9798 13.7678 33.9195C12.5737 33.0183 11.1854 32.3157 10.2702 31.0965C9.64583 30.2833 9.24135 29.3154 9.05468 28.3089C8.60193 28.3175 8.14596 28.3486 7.6975 28.2702C6.66756 28.0812 5.79103 27.2368 5.58289 26.2066C5.43805 25.3569 5.5389 24.49 5.50886 23.6328C5.5507 22.6198 5.33613 21.5059 5.9069 20.5971C6.409 19.7441 7.38959 19.2736 8.36268 19.2833C8.34551 18.6925 8.30796 18.1017 8.29938 17.5108C8.28651 17.2272 8.36483 16.9265 8.58905 16.7385C8.84976 16.4946 9.23277 16.5118 9.56429 16.4925C11.8162 16.4355 14.0607 16.1949 16.2815 15.82C17.2256 15.631 18.1708 15.443 19.1138 15.2485C22.2745 14.4708 25.4255 13.5266 28.3255 12.0237C28.5744 11.9034 28.878 11.8809 29.1258 12.0184C29.4112 12.1569 29.5378 12.4695 29.6698 12.7392C30.3864 14.3967 31.6138 15.9307 33.3153 16.6364C33.6115 16.761 33.7906 17.079 33.7949 17.3948C33.8046 18.0243 33.7466 18.6538 33.7327 19.2844C34.2444 19.3091 34.7723 19.38 35.2175 19.6539C36.0222 20.1051 36.5586 20.9859 36.5801 21.9108C36.6015 23.0946 36.5844 24.2806 36.5886 25.4654C36.5983 26.0992 36.4266 26.7437 36.0361 27.2497C35.5233 27.9533 34.6596 28.325 33.8013 28.3347C33.5246 28.7654 33.236 29.193 32.8637 29.5485C32.4377 29.9471 32.2704 30.5261 31.911 30.9751C31.0001 32.2642 29.5614 32.9936 28.3297 33.9217C28.3651 34.9798 28.2546 36.0465 28.4113 37.0981C31.3896 36.5868 34.3549 35.8478 37.1015 34.5608C37.4405 34.3857 37.6283 34.0001 37.61 33.6252C37.5585 29.1038 37.3354 24.5717 36.6401 20.0997C36.1649 17.1918 35.5136 14.2968 34.4064 11.5597C33.3422 8.85801 31.7672 6.27666 29.4756 4.44834C27.5573 2.89932 25.1509 2.02383 22.7079 1.80791C19.5881 1.51143 16.2879 1.99912 13.6229 3.73184ZM13.1155 17.9899C12.0898 18.0684 11.0642 18.136 10.0396 18.2112C10.1855 21.3157 10.4773 24.4116 10.694 27.5118C10.7734 28.9158 11.5223 30.2532 12.6788 31.0524C14.552 32.363 16.4167 33.6886 18.3006 34.983C19.8938 36.0723 22.1232 36.0927 23.7315 35.0249C25.1423 34.0721 26.522 33.0763 27.9178 32.102C26.7805 32.3383 25.6283 32.465 24.4707 32.5413C24.1778 33.0881 23.7207 33.5661 23.1135 33.7487C22.5148 33.9131 21.8818 33.8884 21.2682 33.8486C20.2618 33.767 19.3949 32.9033 19.2952 31.9C19.1836 31.0696 19.5945 30.207 20.2961 29.758C20.956 29.3133 21.7864 29.3831 22.5416 29.4024C23.4064 29.439 24.1595 30.0405 24.5082 30.8161C26.8095 30.6732 29.2374 30.2844 31.1235 28.8557C31.3499 28.2122 31.4153 27.5301 31.455 26.8544C31.6599 23.8885 31.9507 20.9279 32.0687 17.9577C30.4411 17.0564 29.1559 15.6159 28.3276 13.9584C23.5405 16.1745 18.3446 17.4163 13.1155 17.9899ZM7.60953 21.2384C7.29733 21.4629 7.21686 21.8689 7.22866 22.232C7.23081 23.3084 7.22759 24.3848 7.22974 25.4611C7.22544 25.792 7.31664 26.1476 7.58485 26.3624C7.94641 26.6771 8.46031 26.5837 8.89804 26.5901C8.75964 24.7274 8.62017 22.8637 8.47748 21.001C8.18137 21.0386 7.84663 21.0257 7.60953 21.2384ZM33.62 21.0021C33.4784 22.8647 33.3389 24.7274 33.1995 26.5901C33.6383 26.5837 34.15 26.6771 34.5116 26.3635C34.7798 26.1497 34.8731 25.7952 34.8689 25.4654C34.871 24.3858 34.8667 23.3073 34.8699 22.2277C34.8807 21.8668 34.8013 21.4629 34.4891 21.2395C34.2509 21.0268 33.9172 21.0375 33.62 21.0021ZM21.2875 31.1728C20.8701 31.3446 20.9259 32.0332 21.3722 32.1202C21.7906 32.1664 22.2262 32.1879 22.6404 32.0977C23.0695 31.9258 23.0041 31.2179 22.5449 31.1427C22.1297 31.1008 21.6952 31.0718 21.2875 31.1728ZM15.4876 35.1248C15.4704 36.1217 15.6002 37.1819 15.1249 38.1025C14.6518 39.137 13.653 39.8277 12.5758 40.1167C13.9341 41.7828 15.4736 43.3061 17.1848 44.6091C18.3661 45.5093 19.661 46.2655 21.0493 46.7983C22.2262 46.3439 23.3388 45.7359 24.3698 45.0076C26.3063 43.6305 28.0165 41.9515 29.5249 40.1178C28.4478 39.8299 27.4489 39.1402 26.9758 38.1058C26.4984 37.1852 26.6282 36.1228 26.611 35.1248C25.8257 35.6576 25.0758 36.2474 24.2475 36.7168C22.5835 37.6417 20.5161 37.7899 18.7351 37.1196C17.5271 36.6835 16.5433 35.8284 15.4876 35.1248ZM4.46604 42.8205C4.04655 42.9559 3.64959 43.1535 3.27838 43.392C4.7364 44.8594 6.20515 46.316 7.66103 47.7855C8.40452 48.5364 8.92915 49.5236 9.02464 50.585C9.10725 51.4798 9.05146 52.38 9.06648 53.277C17.055 53.278 25.0436 53.278 33.0321 53.277C33.0471 52.3832 32.9924 51.4862 33.0729 50.5946C33.1662 49.5301 33.6908 48.5386 34.4376 47.7866C35.8934 46.3171 37.3611 44.8583 38.8202 43.392C38.449 43.1546 38.052 42.9559 37.6315 42.8205C35.5093 42.1137 33.3872 41.4036 31.2651 40.6968C29.953 42.3511 28.5196 43.9184 26.8782 45.2515C25.2614 46.5781 23.4793 47.7426 21.5042 48.458C21.2606 48.5515 20.9914 48.6062 20.7414 48.5063C19.9035 48.2238 19.101 47.8436 18.3317 47.4106C15.3889 45.7381 12.9138 43.3469 10.8335 40.6968C8.71029 41.4036 6.58924 42.1137 4.46604 42.8205ZM1.73453 46.301C1.71736 48.1604 1.73667 50.021 1.72487 51.8805C1.73024 52.2371 1.70878 52.6432 1.96734 52.9268C2.19157 53.2125 2.57136 53.2855 2.91575 53.2791C4.39309 53.278 5.86934 53.278 7.34668 53.278C7.34453 52.6002 7.3499 51.9224 7.34668 51.2445C7.34346 50.7805 7.28016 50.3078 7.07632 49.8856C6.85316 49.3861 6.45084 49.0026 6.0689 48.6234C4.76215 47.3172 3.45755 46.0088 2.1508 44.7025C1.94159 45.2128 1.73024 45.7392 1.73453 46.301ZM36.0297 48.6234C35.3034 49.2562 34.7165 50.1306 34.7551 51.1339C34.7444 51.8482 34.7551 52.5626 34.7519 53.278C36.1198 53.2802 37.4877 53.2737 38.8545 53.2802C39.1775 53.2727 39.5208 53.306 39.8223 53.1674C40.1849 52.9987 40.3812 52.598 40.3673 52.2081C40.3737 50.2756 40.3716 48.342 40.3673 46.4095C40.3855 45.8111 40.1752 45.245 39.9478 44.7025C38.641 46.0077 37.3375 47.3172 36.0297 48.6234Z" fill="#737383" stroke="#1B1B1F" stroke-width="0.8" mask="url(#path-1-inside-1_1015_7061)"/>
</svg>
