<svg width="77" height="67" viewBox="0 0 77 67" fill="none" xmlns="http://www.w3.org/2000/svg">
<g clip-path="url(#clip0_848_11776)">
<path d="M70.9712 33.5C70.9712 51.6278 56.4322 66.3232 38.4974 66.3232C25.7752 66.6616 18.0752 60.2323 12.3126 53.803M6.02344 33.5C6.02344 15.3722 20.5625 0.676758 38.4974 0.676758C56.4322 0.676758 66.2843 12.8586 68.9625 20.6414" stroke="white" stroke-width="0.8"/>
<path d="M6.02346 37.2222C4.01477 40.8316 2.34095 47.306 9.03658 47.0353C12.2729 47.1481 23.7025 44.802 40.8433 35.8687" stroke="white" stroke-width="0.8" stroke-linecap="round"/>
<path d="M6.0234 37.2222C2.78717 40.606 -2.078 47.9151 3.01069 51.4343C8.0994 54.9535 14.7284 53.7674 18.7458 53.1262C25.1066 52.1111 30.7979 50.8929 45.5284 44.6666" stroke="white" stroke-width="0.8" stroke-linecap="round"/>
<path d="M38.4976 33.5002L44.69 39.1005C44.7992 39.1993 44.8734 39.3315 44.9011 39.477L46.3732 47.214C46.4545 47.6418 46.9088 47.8816 47.3026 47.7047L49.2352 46.8365C49.4302 46.7489 49.5722 46.5726 49.6175 46.3618L51.1512 39.231C51.1943 39.0307 51.3248 38.8611 51.506 38.7694L56.5161 36.2375C56.8936 36.0467 57.3495 36.2522 57.4612 36.6636L61.7591 52.4886C61.8554 52.8432 62.2137 53.0558 62.5647 52.9591C63.9896 52.5666 66.0541 51.9004 66.2845 51.4345C66.5483 50.9013 67.483 37.1956 67.9376 30.1003C67.951 29.8936 68.0561 29.7104 68.2235 29.5912C71.5137 27.2505 77.2225 22.3362 75.6584 19.9648" stroke="white" stroke-width="0.8" stroke-linecap="round"/>
<path d="M38.4951 33.4985L40.9074 31.6699C41.075 31.5429 41.2916 31.5024 41.493 31.5605L47.8796 33.4051C48.0831 33.4639 48.3021 33.422 48.4703 33.292L53.2786 29.5755C53.6031 29.3246 53.6317 28.8411 53.339 28.553L41.6514 17.0497C41.3871 16.7896 41.38 16.3623 41.6416 16.0994C42.6314 15.1049 44.0109 13.8412 44.5213 13.8721C45.1099 13.9079 56.6943 19.7221 62.9822 22.8651C63.1658 22.9569 63.3761 22.9575 63.5604 22.8668C67.1646 21.0919 73.3775 17.3298 75.6581 19.9645" stroke="white" stroke-width="0.8" stroke-linecap="round"/>
<path d="M10.7104 16.5808C11.38 16.9192 13.8574 17.7313 15.7322 16.9192C18.0757 15.904 21.4235 10.8283 22.7626 10.4899C24.1018 10.1515 26.1105 8.1212 26.1105 7.10605C26.1105 6.09089 31.1322 7.78281 34.1452 6.42928C37.1583 5.07574 36.4887 1.01514 36.4887 1.01514M45.8626 1.6919C45.1931 1.6919 49.545 6.02322 48.3548 7.10605C46.867 8.45958 44.1887 4.73736 40.8409 8.79796C40.2829 9.47473 39.2339 11.3697 39.5018 13.5353C39.8365 16.2424 34.8148 16.2424 33.8105 18.6111C32.8061 20.9798 37.4931 20.9798 41.8452 17.5959" stroke="white" stroke-width="0.8" stroke-linecap="round"/>
<path d="M48.2053 23.6868C47.6473 24.9276 45.661 27.2737 42.1792 26.7323C37.827 26.0555 39.8357 24.0252 37.1575 23.6868C34.4792 23.3485 33.4749 25.0404 33.8097 26.3939C34.1406 27.7318 34.7991 28.4083 29.6419 29.7309C29.5242 29.761 29.4123 29.8196 29.3118 29.8883C28.5054 30.4394 25.1942 32.4148 28.9792 36.0701C29.0702 36.158 29.1885 36.2191 29.3121 36.2433C31.1619 36.605 34.7083 37.4527 35.4844 38.2372" stroke="white" stroke-width="0.8" stroke-linecap="round"/>
<path d="M21.0883 44.3284C19.526 43.5389 16.3343 41.6214 16.0665 40.2678C15.7317 38.5759 17.7404 38.5759 15.3969 35.5305C13.0535 32.485 11.7143 31.8082 13.0535 28.7628C14.3926 25.7173 15.732 28.086 18.745 25.3789C21.7581 22.6719 24.1016 26.3941 24.1016 27.4092C24.1016 28.4244 23.0972 34.1769 23.7668 35.8688C24.4363 37.5607 27.7842 40.6061 27.1146 41.9597" stroke="white" stroke-width="0.8" stroke-linecap="round"/>
<path d="M54.5667 37.2222C54.7898 39.3653 55.4371 44.0575 56.2406 45.6818C57.2449 47.7121 46.1971 57.8636 42.8493 57.1868C39.5014 56.51 43.8536 49.404 43.8536 48.3888C43.8536 47.3737 43.5191 46.3585 43.1842 46.0201" stroke="white" stroke-width="0.8" stroke-linecap="round"/>
<path d="M70.9717 33.5001C70.9717 31.4698 70.9717 30.4546 70.6369 27.7476M9.03892 47.0354C7.36501 44.3284 6.02588 39.591 6.02588 33.1617" stroke="white" stroke-width="0.8" stroke-linecap="round"/>
</g>
<defs>
<clipPath id="clip0_848_11776">
<rect width="77" height="67" fill="white"/>
</clipPath>
</defs>
</svg>
