<svg width="80" height="67" viewBox="0 0 80 67" fill="none" xmlns="http://www.w3.org/2000/svg">
<mask id="path-1-inside-1_667_11455" fill="white">
<path d="M24.1499 4.17815C29.7256 1.02029 36.217 -0.414428 42.5717 0.103615C48.6314 0.575731 54.5381 2.8316 59.4301 6.51117C63.8093 9.78292 67.3465 14.1973 69.6674 19.2014C71.7508 18.2957 73.9297 17.4378 76.2218 17.3919C77.4057 17.3699 78.7245 17.7262 79.4297 18.7752C79.9839 19.4769 80.1242 20.4414 79.8939 21.3029C79.5503 22.7413 78.6273 23.9409 77.6558 25.0045C76.1301 26.6285 74.3507 27.9732 72.5479 29.2573C73.2909 35.2533 72.4237 41.4496 70.029 46.9809C69.725 48.2705 69.8779 49.6318 69.6368 50.9379C69.3795 52.075 68.4655 52.9843 67.3752 53.3003C66.8805 53.5152 66.2364 53.5189 65.9143 54.0168C62.2044 58.9363 57.1145 62.75 51.4165 64.9122C46.0388 66.9568 40.1302 67.5134 34.4772 66.5214C28.5363 65.4963 22.8905 62.7573 18.3727 58.6865C16.9334 57.4079 15.6398 55.9732 14.4163 54.4797C13.6067 54.5807 12.7917 54.6303 11.9767 54.5807C9.33905 54.465 6.64748 54.1968 4.1898 53.1515C2.59752 52.4736 1.1114 51.3053 0.4439 49.6354C-0.36933 47.6827 0.039084 45.4562 0.830724 43.5696C2.27187 40.1766 4.64319 37.2943 7.20342 34.7206C6.99832 28.8182 8.34231 22.8662 11.0933 17.6675C14.0619 12.0186 18.648 7.26987 24.1499 4.17815ZM39.8154 2.19599C40.0115 2.61116 40.2328 3.04654 40.1968 3.52416C40.1788 4.36369 39.5833 5.0489 38.9266 5.48611C37.6852 6.34217 36.1846 6.61037 34.8263 7.20373C33.108 7.88343 31.2243 7.89997 29.4179 7.68504C28.7504 7.66115 28.002 7.50868 27.3884 7.83751C26.998 8.39045 26.8631 9.09771 26.4079 9.61024C25.8807 10.2955 25.0909 10.6776 24.2938 10.9347C23.2233 11.2562 22.5486 12.2207 21.7678 12.9628C20.3033 14.392 18.9773 16.0251 17.1979 17.0667C16.1112 17.7134 14.796 18.044 13.5563 17.6913C11.9011 20.5994 10.6812 23.7664 10.0065 27.0602C8.72733 33.1683 9.32826 39.6549 11.66 45.4268C14.2526 45.0667 16.8128 44.4918 19.3119 43.7018C17.9607 42.7852 16.4512 41.8244 15.8017 40.2298C15.3951 39.2562 15.7729 38.2293 16.05 37.2814C16.1993 36.8019 15.7909 36.4235 15.4905 36.1241C14.1519 34.9098 12.8043 33.5798 12.1404 31.842C11.6618 30.6203 11.7266 29.1562 12.4552 28.0503C13.2721 26.8177 14.5945 26.0535 15.9277 25.5336C16.588 25.2838 17.0917 24.7602 17.698 24.413C19.0546 23.5882 20.6127 22.9158 22.223 23.0959C23.4212 23.2116 24.4972 23.9685 25.1323 24.9935C26.5968 27.4037 26.613 30.4164 25.9779 33.1003C25.798 34.0905 25.5335 35.1192 25.7908 36.1222C25.9797 36.8662 26.4888 37.4541 26.8829 38.0879C27.3848 38.8631 27.7753 39.7063 28.1225 40.5624C30.4039 39.6383 32.6726 38.6757 34.9216 37.6727C33.4103 37.5753 31.8918 37.3586 30.4668 36.813C29.4485 36.4235 28.5093 35.674 28.1027 34.6177C27.5989 33.3594 27.8634 31.9393 28.3672 30.7269C28.7522 29.8323 29.1768 28.8935 29.9667 28.2947C31.2729 27.2567 32.9569 27.0143 34.4718 26.4429C34.1336 25.6126 34.2775 24.6206 34.9198 23.985C36.0245 22.8571 37.624 22.3115 39.1605 22.2472C40.5944 22.2251 41.503 23.5 42.6077 24.2183C43.3975 24.7308 44.3151 25.4583 45.3047 25.0707C46.431 24.5875 47.3072 23.6727 48.3399 23.0261C46.7818 21.4866 45.2201 19.949 43.6602 18.4114C42.4944 18.6852 41.3807 19.161 40.3749 19.8223C39.308 20.4946 38.0666 20.8969 36.809 20.9245C36.0227 20.9392 35.1555 20.6802 34.6949 19.9839C34.2325 19.3153 34.2865 18.428 34.5348 17.6858C34.918 16.4697 35.5567 15.2058 36.7424 14.6364C37.8471 14.1293 39.0435 13.626 39.7848 12.5973C40.4919 11.5134 39.9611 10.1044 40.5566 8.97647C41.5066 6.96308 43.6872 5.76901 45.8174 5.61838C46.9257 5.49897 47.9999 5.94721 49.1082 5.82964C48.8545 5.05625 48.4766 4.32327 47.9747 3.68766C47.7588 3.42864 47.5231 3.14023 47.1776 3.07409C44.7703 2.47522 42.2911 2.20334 39.8154 2.19599ZM14.8499 15.6596C16.1238 15.362 17.1637 14.4949 18.0849 13.5911C19.1716 12.4999 20.2439 11.394 21.3306 10.3028C21.9189 9.71128 22.599 9.19691 23.3871 8.92319C23.9088 8.70642 24.5799 8.60539 24.8462 8.02672C25.242 7.24415 25.5551 6.3238 26.3665 5.88475C27.6421 5.18116 29.1516 5.47509 30.528 5.57245C31.7694 5.67532 33.0505 5.56694 34.2109 5.08564C35.474 4.52351 36.8845 4.29939 38.0198 3.45619C37.4926 3.03919 36.9313 2.60014 36.2638 2.46603C27.7177 3.46354 19.7095 8.41617 14.8499 15.6596ZM50.8336 4.22591C51.0801 4.86887 51.3319 5.55408 51.224 6.25766C51.1322 6.94655 50.6536 7.55828 50.0203 7.81363C49.0758 8.20675 48.0322 8.04325 47.0589 7.87976C45.544 7.60053 43.8851 8.14797 42.8614 9.32918C42.1291 10.2091 42.48 11.4344 42.1705 12.465C41.8449 13.9438 40.6574 14.9982 39.4376 15.7478C38.8366 16.1409 38.1421 16.3485 37.5286 16.7177C36.8953 17.1825 36.7154 18.0183 36.4815 18.7329C37.4998 18.7697 38.5128 18.4427 39.362 17.875C40.2778 17.2707 41.2799 16.8187 42.318 16.4936C42.3055 15.937 42.3288 15.3252 42.7103 14.888C43.25 14.28 43.8599 13.7417 44.4537 13.1906C45.3425 12.3952 46.6847 12.1747 47.7642 12.6744C53.7752 15.5071 59.7863 18.3416 65.7991 21.1725C66.4379 20.8327 67.0748 20.4891 67.7117 20.1456C64.358 12.8875 58.1832 7.06963 50.8336 4.22591ZM45.902 14.8256C45.4108 15.2389 44.9736 15.7147 44.5022 16.1537C48.482 20.1383 52.5212 24.0603 56.5172 28.0265C57.0443 28.4692 57.0012 29.384 56.4254 29.7643C54.5453 31.1604 52.6453 32.5327 50.758 33.9233C50.4324 34.1879 50.0059 34.3146 49.6011 34.1713C47.4097 33.6018 45.2219 33.0122 43.0341 32.4353C42.4782 32.2663 42.1381 32.9405 41.7405 33.2142C43.635 34.7775 45.5404 36.3225 47.4367 37.8803C47.7156 38.0915 47.8865 38.413 47.9279 38.7639C48.3471 41.1704 48.7519 43.5806 49.1747 45.9889C49.5867 45.8475 49.9952 45.6932 50.3928 45.5095C50.9757 43.1489 51.5532 40.7865 52.1506 38.4296C52.2243 38.0236 52.5374 37.7333 52.8972 37.579C55.0005 36.5558 57.0965 35.5142 59.2034 34.4983C59.8151 34.1566 60.6229 34.5828 60.7417 35.2735C62.226 40.7516 63.6437 46.2498 65.1569 51.7186C65.783 51.4982 66.4289 51.3365 67.0388 51.0702C67.3752 50.9269 67.566 50.5576 67.5695 50.1939C68.0193 43.3895 68.4961 36.5852 68.9495 29.779C68.9549 29.3289 69.1204 28.866 69.5253 28.64C71.8588 27.1043 74.1959 25.5097 76.1211 23.4486C76.8227 22.6587 77.5388 21.7934 77.7835 20.7298C77.9005 20.3624 77.7205 19.9472 77.3625 19.8149C76.4035 19.4457 75.3492 19.6423 74.3759 19.848C71.5673 20.5479 68.9765 21.9202 66.4523 23.3237C66.0834 23.5551 65.6282 23.5496 65.2504 23.342C59.1368 20.4597 53.0214 17.5829 46.9114 14.697C46.5857 14.5298 46.1737 14.5739 45.902 14.8256ZM36.4851 25.4326C36.8593 26.2152 36.8989 27.2586 36.2134 27.8795C35.2473 28.7411 33.9069 28.866 32.7464 29.3142C32.0141 29.5788 31.1883 29.8837 30.8105 30.635C30.3733 31.4488 29.9631 32.3416 29.9937 33.2914C30.0044 33.8535 30.3913 34.3293 30.8663 34.5755C33.135 35.7457 35.8356 35.1009 38.1224 36.2068C38.9266 35.8393 39.72 35.4462 40.5243 35.0788C39.9053 34.524 39.344 33.7764 39.3476 32.8983C39.4232 32.27 40.0079 31.9099 40.4019 31.4838C41.1198 30.7691 42.041 29.9755 43.1187 30.1886C45.3353 30.7581 47.5465 31.3588 49.7613 31.9393C51.2186 30.8739 52.6759 29.8065 54.1315 28.7356C52.7443 27.367 51.3553 25.9984 49.9664 24.6298C48.3705 25.4785 47.1219 27.0418 45.2759 27.3559C43.6494 27.6462 42.2065 26.6211 40.9471 25.7173C40.3407 25.315 39.8694 24.661 39.1623 24.4461C38.1961 24.481 37.2731 24.876 36.4851 25.4326ZM17.8762 26.9665C17.1997 27.525 16.3019 27.648 15.5732 28.1165C14.8337 28.5482 14.0133 29.1985 13.9935 30.1501C14.0421 31.3203 14.805 32.2902 15.5354 33.1261C16.408 34.1346 17.6729 34.8657 18.1173 36.1994C18.4375 37.0867 18.1011 38.0052 17.8492 38.8576C17.6585 39.5134 18.1766 40.0719 18.6066 40.4797C19.6628 41.4111 20.897 42.0963 22.1042 42.7999C23.4428 42.3351 24.776 41.8538 26.102 41.3504C25.7386 40.4044 25.2654 39.5024 24.6717 38.6849C24.0725 37.8656 23.6389 36.8975 23.5598 35.8669C23.3619 33.8645 24.2003 31.9559 24.2273 29.9664C24.2453 28.6804 23.9772 27.367 23.3565 26.2409C23.002 25.5814 22.2644 25.1827 21.5285 25.2728C20.1737 25.4234 18.9485 26.1435 17.8762 26.9665ZM19.2022 46.0275C16.1436 46.9093 13.0184 47.6625 9.83203 47.7727C8.26134 47.8149 6.54852 47.5945 5.31069 46.5143C4.10164 45.4599 3.77958 43.6926 3.98829 42.1477C3.34238 43.2867 2.71447 44.4569 2.38342 45.7373C2.08295 46.8358 2.01459 48.0905 2.59392 49.11C3.20924 50.2031 4.34452 50.846 5.46361 51.2832C7.49129 52.0383 9.6629 52.2605 11.8039 52.3689C13.3116 52.4681 14.8104 52.2275 16.3055 52.0732C26.7461 50.7689 36.8359 47.431 46.5245 43.3418C46.3014 42.0889 46.1053 40.8306 45.8732 39.5795C45.8444 39.3573 45.6267 39.2452 45.4864 39.1019C44.4591 38.2734 43.4407 37.4321 42.4152 36.5962C34.8676 40.1931 27.2049 43.6247 19.2022 46.0275ZM57.6831 37.6782C57.4294 40.1784 58.5718 42.4912 59.3185 44.7985C59.5938 45.6123 59.2717 46.4684 58.8723 47.1738C58.158 48.4046 57.1685 49.4407 56.1537 50.4162C54.1585 52.2899 51.9778 53.9543 49.6857 55.4294C48.6674 56.0577 47.6418 56.7025 46.5137 57.1011C45.7239 57.3895 44.7631 57.2775 44.1532 56.6584C43.4731 55.975 43.3076 54.9463 43.2716 54.0149C43.2374 52.2477 43.644 50.5062 44.146 48.8253C44.3457 48.107 44.8837 47.3263 44.3277 46.6301C35.5297 50.1259 26.4241 52.9825 17.0341 54.206C19.4792 57.0276 22.4191 59.4029 25.6828 61.1628C30.9886 64.0451 37.1418 65.2686 43.1187 64.6311C51.0747 63.8412 58.6186 59.6748 63.6725 53.3591C63.0014 52.5453 62.8449 51.4743 62.5678 50.486C61.3714 46.0055 60.1785 41.525 58.9803 37.0463C58.5467 37.2575 58.1167 37.4688 57.6831 37.6782ZM6.34162 41.4845C6.09693 42.4876 5.86303 43.6835 6.49275 44.5891C7.18363 45.4562 8.38009 45.5278 9.38943 45.594C8.53302 43.2793 7.90331 40.8802 7.53627 38.4332C7.05409 39.4124 6.62049 40.4227 6.34162 41.4845ZM54.1315 39.416C53.5485 41.7031 53.0052 44.0031 52.4132 46.2902C52.0282 47.3153 50.9217 47.7378 49.9718 48.0335C49.4086 48.1823 48.7843 48.5479 48.214 48.2393C47.327 47.6698 47.0265 46.5694 46.9042 45.5701C46.7206 45.6436 46.5371 45.7152 46.3554 45.7905C46.7494 46.5327 46.9365 47.4255 46.6361 48.2411C46.3014 49.1596 45.9686 50.0837 45.7797 51.0481C45.5296 52.3689 45.2435 53.7596 45.5908 55.0896C47.3108 54.4944 48.8221 53.4289 50.3082 52.3873C52.4798 50.7836 54.6011 49.066 56.3786 47.0085C56.7277 46.5327 57.2261 46.0385 57.2315 45.4176C56.5208 43.2407 55.5798 41.0896 55.4719 38.7621C55.0257 38.9825 54.5777 39.1993 54.1315 39.416Z"/>
</mask>
<path d="M24.1499 4.17815C29.7256 1.02029 36.217 -0.414428 42.5717 0.103615C48.6314 0.575731 54.5381 2.8316 59.4301 6.51117C63.8093 9.78292 67.3465 14.1973 69.6674 19.2014C71.7508 18.2957 73.9297 17.4378 76.2218 17.3919C77.4057 17.3699 78.7245 17.7262 79.4297 18.7752C79.9839 19.4769 80.1242 20.4414 79.8939 21.3029C79.5503 22.7413 78.6273 23.9409 77.6558 25.0045C76.1301 26.6285 74.3507 27.9732 72.5479 29.2573C73.2909 35.2533 72.4237 41.4496 70.029 46.9809C69.725 48.2705 69.8779 49.6318 69.6368 50.9379C69.3795 52.075 68.4655 52.9843 67.3752 53.3003C66.8805 53.5152 66.2364 53.5189 65.9143 54.0168C62.2044 58.9363 57.1145 62.75 51.4165 64.9122C46.0388 66.9568 40.1302 67.5134 34.4772 66.5214C28.5363 65.4963 22.8905 62.7573 18.3727 58.6865C16.9334 57.4079 15.6398 55.9732 14.4163 54.4797C13.6067 54.5807 12.7917 54.6303 11.9767 54.5807C9.33905 54.465 6.64748 54.1968 4.1898 53.1515C2.59752 52.4736 1.1114 51.3053 0.4439 49.6354C-0.36933 47.6827 0.039084 45.4562 0.830724 43.5696C2.27187 40.1766 4.64319 37.2943 7.20342 34.7206C6.99832 28.8182 8.34231 22.8662 11.0933 17.6675C14.0619 12.0186 18.648 7.26987 24.1499 4.17815ZM39.8154 2.19599C40.0115 2.61116 40.2328 3.04654 40.1968 3.52416C40.1788 4.36369 39.5833 5.0489 38.9266 5.48611C37.6852 6.34217 36.1846 6.61037 34.8263 7.20373C33.108 7.88343 31.2243 7.89997 29.4179 7.68504C28.7504 7.66115 28.002 7.50868 27.3884 7.83751C26.998 8.39045 26.8631 9.09771 26.4079 9.61024C25.8807 10.2955 25.0909 10.6776 24.2938 10.9347C23.2233 11.2562 22.5486 12.2207 21.7678 12.9628C20.3033 14.392 18.9773 16.0251 17.1979 17.0667C16.1112 17.7134 14.796 18.044 13.5563 17.6913C11.9011 20.5994 10.6812 23.7664 10.0065 27.0602C8.72733 33.1683 9.32826 39.6549 11.66 45.4268C14.2526 45.0667 16.8128 44.4918 19.3119 43.7018C17.9607 42.7852 16.4512 41.8244 15.8017 40.2298C15.3951 39.2562 15.7729 38.2293 16.05 37.2814C16.1993 36.8019 15.7909 36.4235 15.4905 36.1241C14.1519 34.9098 12.8043 33.5798 12.1404 31.842C11.6618 30.6203 11.7266 29.1562 12.4552 28.0503C13.2721 26.8177 14.5945 26.0535 15.9277 25.5336C16.588 25.2838 17.0917 24.7602 17.698 24.413C19.0546 23.5882 20.6127 22.9158 22.223 23.0959C23.4212 23.2116 24.4972 23.9685 25.1323 24.9935C26.5968 27.4037 26.613 30.4164 25.9779 33.1003C25.798 34.0905 25.5335 35.1192 25.7908 36.1222C25.9797 36.8662 26.4888 37.4541 26.8829 38.0879C27.3848 38.8631 27.7753 39.7063 28.1225 40.5624C30.4039 39.6383 32.6726 38.6757 34.9216 37.6727C33.4103 37.5753 31.8918 37.3586 30.4668 36.813C29.4485 36.4235 28.5093 35.674 28.1027 34.6177C27.5989 33.3594 27.8634 31.9393 28.3672 30.7269C28.7522 29.8323 29.1768 28.8935 29.9667 28.2947C31.2729 27.2567 32.9569 27.0143 34.4718 26.4429C34.1336 25.6126 34.2775 24.6206 34.9198 23.985C36.0245 22.8571 37.624 22.3115 39.1605 22.2472C40.5944 22.2251 41.503 23.5 42.6077 24.2183C43.3975 24.7308 44.3151 25.4583 45.3047 25.0707C46.431 24.5875 47.3072 23.6727 48.3399 23.0261C46.7818 21.4866 45.2201 19.949 43.6602 18.4114C42.4944 18.6852 41.3807 19.161 40.3749 19.8223C39.308 20.4946 38.0666 20.8969 36.809 20.9245C36.0227 20.9392 35.1555 20.6802 34.6949 19.9839C34.2325 19.3153 34.2865 18.428 34.5348 17.6858C34.918 16.4697 35.5567 15.2058 36.7424 14.6364C37.8471 14.1293 39.0435 13.626 39.7848 12.5973C40.4919 11.5134 39.9611 10.1044 40.5566 8.97647C41.5066 6.96308 43.6872 5.76901 45.8174 5.61838C46.9257 5.49897 47.9999 5.94721 49.1082 5.82964C48.8545 5.05625 48.4766 4.32327 47.9747 3.68766C47.7588 3.42864 47.5231 3.14023 47.1776 3.07409C44.7703 2.47522 42.2911 2.20334 39.8154 2.19599ZM14.8499 15.6596C16.1238 15.362 17.1637 14.4949 18.0849 13.5911C19.1716 12.4999 20.2439 11.394 21.3306 10.3028C21.9189 9.71128 22.599 9.19691 23.3871 8.92319C23.9088 8.70642 24.5799 8.60539 24.8462 8.02672C25.242 7.24415 25.5551 6.3238 26.3665 5.88475C27.6421 5.18116 29.1516 5.47509 30.528 5.57245C31.7694 5.67532 33.0505 5.56694 34.2109 5.08564C35.474 4.52351 36.8845 4.29939 38.0198 3.45619C37.4926 3.03919 36.9313 2.60014 36.2638 2.46603C27.7177 3.46354 19.7095 8.41617 14.8499 15.6596ZM50.8336 4.22591C51.0801 4.86887 51.3319 5.55408 51.224 6.25766C51.1322 6.94655 50.6536 7.55828 50.0203 7.81363C49.0758 8.20675 48.0322 8.04325 47.0589 7.87976C45.544 7.60053 43.8851 8.14797 42.8614 9.32918C42.1291 10.2091 42.48 11.4344 42.1705 12.465C41.8449 13.9438 40.6574 14.9982 39.4376 15.7478C38.8366 16.1409 38.1421 16.3485 37.5286 16.7177C36.8953 17.1825 36.7154 18.0183 36.4815 18.7329C37.4998 18.7697 38.5128 18.4427 39.362 17.875C40.2778 17.2707 41.2799 16.8187 42.318 16.4936C42.3055 15.937 42.3288 15.3252 42.7103 14.888C43.25 14.28 43.8599 13.7417 44.4537 13.1906C45.3425 12.3952 46.6847 12.1747 47.7642 12.6744C53.7752 15.5071 59.7863 18.3416 65.7991 21.1725C66.4379 20.8327 67.0748 20.4891 67.7117 20.1456C64.358 12.8875 58.1832 7.06963 50.8336 4.22591ZM45.902 14.8256C45.4108 15.2389 44.9736 15.7147 44.5022 16.1537C48.482 20.1383 52.5212 24.0603 56.5172 28.0265C57.0443 28.4692 57.0012 29.384 56.4254 29.7643C54.5453 31.1604 52.6453 32.5327 50.758 33.9233C50.4324 34.1879 50.0059 34.3146 49.6011 34.1713C47.4097 33.6018 45.2219 33.0122 43.0341 32.4353C42.4782 32.2663 42.1381 32.9405 41.7405 33.2142C43.635 34.7775 45.5404 36.3225 47.4367 37.8803C47.7156 38.0915 47.8865 38.413 47.9279 38.7639C48.3471 41.1704 48.7519 43.5806 49.1747 45.9889C49.5867 45.8475 49.9952 45.6932 50.3928 45.5095C50.9757 43.1489 51.5532 40.7865 52.1506 38.4296C52.2243 38.0236 52.5374 37.7333 52.8972 37.579C55.0005 36.5558 57.0965 35.5142 59.2034 34.4983C59.8151 34.1566 60.6229 34.5828 60.7417 35.2735C62.226 40.7516 63.6437 46.2498 65.1569 51.7186C65.783 51.4982 66.4289 51.3365 67.0388 51.0702C67.3752 50.9269 67.566 50.5576 67.5695 50.1939C68.0193 43.3895 68.4961 36.5852 68.9495 29.779C68.9549 29.3289 69.1204 28.866 69.5253 28.64C71.8588 27.1043 74.1959 25.5097 76.1211 23.4486C76.8227 22.6587 77.5388 21.7934 77.7835 20.7298C77.9005 20.3624 77.7205 19.9472 77.3625 19.8149C76.4035 19.4457 75.3492 19.6423 74.3759 19.848C71.5673 20.5479 68.9765 21.9202 66.4523 23.3237C66.0834 23.5551 65.6282 23.5496 65.2504 23.342C59.1368 20.4597 53.0214 17.5829 46.9114 14.697C46.5857 14.5298 46.1737 14.5739 45.902 14.8256ZM36.4851 25.4326C36.8593 26.2152 36.8989 27.2586 36.2134 27.8795C35.2473 28.7411 33.9069 28.866 32.7464 29.3142C32.0141 29.5788 31.1883 29.8837 30.8105 30.635C30.3733 31.4488 29.9631 32.3416 29.9937 33.2914C30.0044 33.8535 30.3913 34.3293 30.8663 34.5755C33.135 35.7457 35.8356 35.1009 38.1224 36.2068C38.9266 35.8393 39.72 35.4462 40.5243 35.0788C39.9053 34.524 39.344 33.7764 39.3476 32.8983C39.4232 32.27 40.0079 31.9099 40.4019 31.4838C41.1198 30.7691 42.041 29.9755 43.1187 30.1886C45.3353 30.7581 47.5465 31.3588 49.7613 31.9393C51.2186 30.8739 52.6759 29.8065 54.1315 28.7356C52.7443 27.367 51.3553 25.9984 49.9664 24.6298C48.3705 25.4785 47.1219 27.0418 45.2759 27.3559C43.6494 27.6462 42.2065 26.6211 40.9471 25.7173C40.3407 25.315 39.8694 24.661 39.1623 24.4461C38.1961 24.481 37.2731 24.876 36.4851 25.4326ZM17.8762 26.9665C17.1997 27.525 16.3019 27.648 15.5732 28.1165C14.8337 28.5482 14.0133 29.1985 13.9935 30.1501C14.0421 31.3203 14.805 32.2902 15.5354 33.1261C16.408 34.1346 17.6729 34.8657 18.1173 36.1994C18.4375 37.0867 18.1011 38.0052 17.8492 38.8576C17.6585 39.5134 18.1766 40.0719 18.6066 40.4797C19.6628 41.4111 20.897 42.0963 22.1042 42.7999C23.4428 42.3351 24.776 41.8538 26.102 41.3504C25.7386 40.4044 25.2654 39.5024 24.6717 38.6849C24.0725 37.8656 23.6389 36.8975 23.5598 35.8669C23.3619 33.8645 24.2003 31.9559 24.2273 29.9664C24.2453 28.6804 23.9772 27.367 23.3565 26.2409C23.002 25.5814 22.2644 25.1827 21.5285 25.2728C20.1737 25.4234 18.9485 26.1435 17.8762 26.9665ZM19.2022 46.0275C16.1436 46.9093 13.0184 47.6625 9.83203 47.7727C8.26134 47.8149 6.54852 47.5945 5.31069 46.5143C4.10164 45.4599 3.77958 43.6926 3.98829 42.1477C3.34238 43.2867 2.71447 44.4569 2.38342 45.7373C2.08295 46.8358 2.01459 48.0905 2.59392 49.11C3.20924 50.2031 4.34452 50.846 5.46361 51.2832C7.49129 52.0383 9.6629 52.2605 11.8039 52.3689C13.3116 52.4681 14.8104 52.2275 16.3055 52.0732C26.7461 50.7689 36.8359 47.431 46.5245 43.3418C46.3014 42.0889 46.1053 40.8306 45.8732 39.5795C45.8444 39.3573 45.6267 39.2452 45.4864 39.1019C44.4591 38.2734 43.4407 37.4321 42.4152 36.5962C34.8676 40.1931 27.2049 43.6247 19.2022 46.0275ZM57.6831 37.6782C57.4294 40.1784 58.5718 42.4912 59.3185 44.7985C59.5938 45.6123 59.2717 46.4684 58.8723 47.1738C58.158 48.4046 57.1685 49.4407 56.1537 50.4162C54.1585 52.2899 51.9778 53.9543 49.6857 55.4294C48.6674 56.0577 47.6418 56.7025 46.5137 57.1011C45.7239 57.3895 44.7631 57.2775 44.1532 56.6584C43.4731 55.975 43.3076 54.9463 43.2716 54.0149C43.2374 52.2477 43.644 50.5062 44.146 48.8253C44.3457 48.107 44.8837 47.3263 44.3277 46.6301C35.5297 50.1259 26.4241 52.9825 17.0341 54.206C19.4792 57.0276 22.4191 59.4029 25.6828 61.1628C30.9886 64.0451 37.1418 65.2686 43.1187 64.6311C51.0747 63.8412 58.6186 59.6748 63.6725 53.3591C63.0014 52.5453 62.8449 51.4743 62.5678 50.486C61.3714 46.0055 60.1785 41.525 58.9803 37.0463C58.5467 37.2575 58.1167 37.4688 57.6831 37.6782ZM6.34162 41.4845C6.09693 42.4876 5.86303 43.6835 6.49275 44.5891C7.18363 45.4562 8.38009 45.5278 9.38943 45.594C8.53302 43.2793 7.90331 40.8802 7.53627 38.4332C7.05409 39.4124 6.62049 40.4227 6.34162 41.4845ZM54.1315 39.416C53.5485 41.7031 53.0052 44.0031 52.4132 46.2902C52.0282 47.3153 50.9217 47.7378 49.9718 48.0335C49.4086 48.1823 48.7843 48.5479 48.214 48.2393C47.327 47.6698 47.0265 46.5694 46.9042 45.5701C46.7206 45.6436 46.5371 45.7152 46.3554 45.7905C46.7494 46.5327 46.9365 47.4255 46.6361 48.2411C46.3014 49.1596 45.9686 50.0837 45.7797 51.0481C45.5296 52.3689 45.2435 53.7596 45.5908 55.0896C47.3108 54.4944 48.8221 53.4289 50.3082 52.3873C52.4798 50.7836 54.6011 49.066 56.3786 47.0085C56.7277 46.5327 57.2261 46.0385 57.2315 45.4176C56.5208 43.2407 55.5798 41.0896 55.4719 38.7621C55.0257 38.9825 54.5777 39.1993 54.1315 39.416Z" fill="white" stroke="#1B1B1F" stroke-width="1.4" mask="url(#path-1-inside-1_667_11455)"/>
</svg>
