<svg width="63" height="66" viewBox="0 0 63 66" fill="none" xmlns="http://www.w3.org/2000/svg">
<mask id="path-1-inside-1_667_11687" fill="white">
<path d="M8.68137 0H53.7101C55.0096 0.0686715 56.1095 1.29713 56.0657 2.66038C56.0743 9.58603 56.0645 16.5117 56.0706 23.4373C57.7339 23.45 59.3984 23.4182 61.0604 23.4513C61.7248 23.45 62.2625 24.0477 62.2966 24.7268V35.1763C62.2455 35.5388 62.1263 35.9152 61.8391 36.1479C61.5313 36.4302 61.1018 36.4646 60.7124 36.4646C59.1648 36.4607 57.6171 36.4607 56.0694 36.4633C56.067 40.2898 56.0694 44.1163 56.0694 47.9429C56.0901 48.3714 55.9392 48.7784 55.7032 49.123C56.0061 49.8733 56.0986 50.691 56.0706 51.5023C56.0378 52.741 56.2251 54.0737 55.6228 55.2068C55.0047 56.4772 53.6846 57.2745 52.3316 57.3025C52.3292 58.5081 52.3328 59.7149 52.3316 60.9218C52.3292 61.6021 52.2367 62.2965 51.9398 62.9107C51.3606 64.1951 50.0709 65.0421 48.7228 65.1107H43.4312C42.1135 65.0217 40.859 64.1989 40.2774 62.9501C39.9003 62.2113 39.8552 61.3567 39.8686 60.5364C39.8771 59.4606 39.8577 58.3847 39.8808 57.3102C34.0648 57.2796 28.2488 57.3114 22.4341 57.2949C22.4085 58.6225 22.4462 59.9515 22.4158 61.2804C22.3976 62.3499 21.9377 63.3952 21.1723 64.1061C20.5506 64.7051 19.7244 65.023 18.891 65.1107H13.6748C12.6309 65.0764 11.5942 64.611 10.9104 63.7767C10.3021 63.0671 9.98084 62.1197 9.97233 61.1723C9.95529 59.8815 9.97233 58.592 9.96502 57.3025C8.85658 57.2644 7.75301 56.7544 7.06556 55.8286C6.44502 55.0529 6.20289 54.0241 6.22723 53.0296C6.2613 51.7236 6.07149 50.3553 6.59346 49.1217C6.35863 48.7809 6.20776 48.379 6.22723 47.953C6.22601 44.124 6.22966 40.2936 6.22723 36.4633C4.56152 36.4506 2.89704 36.4824 1.23255 36.4493C0.56943 36.448 0.0340685 35.8529 0 35.1751V24.7205C0.0377187 24.0363 0.584031 23.4424 1.25323 23.4488C2.91042 23.4208 4.56882 23.4488 6.22723 23.4373C6.23453 16.4773 6.21749 9.51863 6.23575 2.55865C6.23331 1.19794 7.38312 0.00890186 8.68137 0ZM8.72274 2.6057C8.72396 13.2243 8.72153 23.843 8.72274 34.4616C9.13643 34.7503 9.54404 35.0453 9.96746 35.3188C9.96502 29.1841 9.96259 23.0482 9.96868 16.9135C9.95772 14.4706 11.4056 12.1116 13.5167 11.0752C14.4073 10.5869 15.4281 10.4075 16.4259 10.4152C26.3228 10.419 36.2196 10.4114 46.1153 10.419C48.7775 10.3948 51.2743 12.3736 52.0493 15.0187C52.2708 15.7537 52.3401 16.5269 52.3316 17.2938C52.3292 23.3051 52.3328 29.3164 52.3304 35.3277C52.7465 35.0415 53.1602 34.7528 53.5739 34.4616C53.5751 23.8443 53.5714 13.2256 53.5751 2.60824C38.6239 2.59934 23.6727 2.60316 8.72274 2.6057ZM13.3901 14.3689C12.7647 15.0963 12.4581 16.0755 12.463 17.0458C12.452 24.3796 12.4715 31.7148 12.4532 39.0499C13.1614 39.1237 14.0034 38.8795 14.5764 39.4518C15.3442 40.2148 16.0754 41.0185 16.8335 41.7929C17.1498 42.1083 17.4431 42.5026 17.4358 42.9845C17.4601 44.2817 17.437 45.5801 17.4455 46.8772C26.5807 46.8784 35.7159 46.8784 44.8511 46.8772C44.8596 45.5801 44.8365 44.2817 44.8609 42.9845C44.8584 42.57 45.0689 42.2037 45.3427 41.9227C46.052 41.1762 46.7687 40.4361 47.4768 39.6883C47.7299 39.4263 48.0146 39.1567 48.3821 39.1033C48.8578 39.0283 49.3409 39.0702 49.8203 39.0753C49.8592 31.814 49.8239 24.5513 49.8373 17.2887C49.8641 16.3044 49.6317 15.2883 49.0233 14.5164C48.3127 13.5524 47.1544 13.0082 45.9973 13.026C36.1016 13.0209 26.2059 13.0221 16.3103 13.026C15.2104 13.0107 14.1068 13.4889 13.3901 14.3689ZM2.49673 33.8601C3.74023 33.855 4.98373 33.8601 6.22723 33.8576C6.22845 31.2544 6.22845 28.6513 6.22723 26.0468C4.98495 26.0417 3.74388 26.0545 2.50282 26.0405C2.47848 28.6462 2.49065 31.2531 2.49673 33.8601ZM56.0694 26.0468C56.0682 28.65 56.0682 31.2544 56.0694 33.8576C57.3129 33.8601 58.5564 33.855 59.7999 33.8601C59.806 31.2722 59.8157 28.6831 59.7962 26.0964L59.7597 26.0557C58.5296 26.0316 57.2995 26.0532 56.0694 26.0468ZM8.72396 37.5976C8.72031 40.6891 8.72639 43.7806 8.72153 46.8721C9.13521 46.8784 9.55012 46.8785 9.96381 46.8785C9.96259 44.068 9.97476 41.2576 9.95772 38.4471C9.5416 38.1724 9.13643 37.8799 8.72396 37.5976ZM52.3389 38.4459C52.3206 41.2563 52.334 44.0667 52.3328 46.8772C52.7489 46.881 53.1663 46.8835 53.5836 46.8619C53.5605 43.7742 53.5812 40.6853 53.5727 37.5976C53.1602 37.8787 52.7562 38.1712 52.3389 38.4459ZM12.4605 46.8772C13.2904 46.8784 14.1189 46.8772 14.9488 46.8785C14.9524 45.7568 14.9488 44.6352 14.9512 43.5148C14.4256 42.9616 13.8963 42.411 13.3707 41.8578C13.1565 41.5539 12.7659 41.7027 12.463 41.6696C12.4569 43.4055 12.4618 45.1413 12.4605 46.8772ZM48.9284 41.8553C48.4016 42.4084 47.8735 42.9604 47.3466 43.5123C47.3466 44.6339 47.3442 45.7568 47.3479 46.8785C48.1765 46.8772 49.0063 46.8784 49.8361 46.8772C49.8336 45.1413 49.8409 43.4055 49.8324 41.6696C49.5295 41.7027 49.1425 41.5551 48.9284 41.8553ZM9.8835 49.5032C9.40168 49.5376 8.95514 49.8847 8.80426 50.3667C8.67407 50.8614 8.73369 51.379 8.72274 51.8864C8.74099 52.4803 8.67529 53.0805 8.7702 53.6706C8.88457 54.3051 9.49902 54.7248 10.0989 54.6905C24.0925 54.6994 38.0861 54.6917 52.0797 54.6943C52.6224 54.7324 53.2076 54.4832 53.4412 53.9414C53.67 53.3259 53.541 52.6481 53.5739 52.0047C53.5349 51.3307 53.7199 50.546 53.2831 49.9738C53.002 49.591 52.519 49.4714 52.0785 49.4841C45.2648 49.4854 38.4499 49.4842 31.6362 49.4854C24.3857 49.4969 17.1328 49.46 9.8835 49.5032ZM12.463 61.054C12.4593 61.494 12.6041 61.962 12.9582 62.2291C13.2806 62.4999 13.7174 62.5101 14.1104 62.5101C15.5328 62.505 16.9539 62.5076 18.3751 62.5088C18.7559 62.5101 19.172 62.472 19.4713 62.1985C19.8035 61.9251 19.9349 61.4737 19.9337 61.0464C19.9398 59.7976 19.9325 58.5488 19.9361 57.2987C17.4443 57.2962 14.9536 57.3 12.463 57.2974C12.4593 58.5488 12.4569 59.8014 12.463 61.054ZM42.3593 57.3013C42.3653 58.5488 42.3556 59.7963 42.3629 61.0451C42.3605 61.4711 42.4919 61.9213 42.8216 62.196C43.1234 62.4745 43.5456 62.5101 43.9313 62.5088C45.4327 62.5038 46.933 62.5114 48.4344 62.5063C48.8554 62.5088 49.3068 62.3664 49.5623 61.9951C49.8251 61.6581 49.8409 61.2015 49.8385 60.787C49.8324 59.6234 49.8397 58.461 49.8336 57.2974C47.343 57.3013 44.8511 57.2936 42.3593 57.3013Z"/>
</mask>
<path d="M8.68137 0H53.7101C55.0096 0.0686715 56.1095 1.29713 56.0657 2.66038C56.0743 9.58603 56.0645 16.5117 56.0706 23.4373C57.7339 23.45 59.3984 23.4182 61.0604 23.4513C61.7248 23.45 62.2625 24.0477 62.2966 24.7268V35.1763C62.2455 35.5388 62.1263 35.9152 61.8391 36.1479C61.5313 36.4302 61.1018 36.4646 60.7124 36.4646C59.1648 36.4607 57.6171 36.4607 56.0694 36.4633C56.067 40.2898 56.0694 44.1163 56.0694 47.9429C56.0901 48.3714 55.9392 48.7784 55.7032 49.123C56.0061 49.8733 56.0986 50.691 56.0706 51.5023C56.0378 52.741 56.2251 54.0737 55.6228 55.2068C55.0047 56.4772 53.6846 57.2745 52.3316 57.3025C52.3292 58.5081 52.3328 59.7149 52.3316 60.9218C52.3292 61.6021 52.2367 62.2965 51.9398 62.9107C51.3606 64.1951 50.0709 65.0421 48.7228 65.1107H43.4312C42.1135 65.0217 40.859 64.1989 40.2774 62.9501C39.9003 62.2113 39.8552 61.3567 39.8686 60.5364C39.8771 59.4606 39.8577 58.3847 39.8808 57.3102C34.0648 57.2796 28.2488 57.3114 22.4341 57.2949C22.4085 58.6225 22.4462 59.9515 22.4158 61.2804C22.3976 62.3499 21.9377 63.3952 21.1723 64.1061C20.5506 64.7051 19.7244 65.023 18.891 65.1107H13.6748C12.6309 65.0764 11.5942 64.611 10.9104 63.7767C10.3021 63.0671 9.98084 62.1197 9.97233 61.1723C9.95529 59.8815 9.97233 58.592 9.96502 57.3025C8.85658 57.2644 7.75301 56.7544 7.06556 55.8286C6.44502 55.0529 6.20289 54.0241 6.22723 53.0296C6.2613 51.7236 6.07149 50.3553 6.59346 49.1217C6.35863 48.7809 6.20776 48.379 6.22723 47.953C6.22601 44.124 6.22966 40.2936 6.22723 36.4633C4.56152 36.4506 2.89704 36.4824 1.23255 36.4493C0.56943 36.448 0.0340685 35.8529 0 35.1751V24.7205C0.0377187 24.0363 0.584031 23.4424 1.25323 23.4488C2.91042 23.4208 4.56882 23.4488 6.22723 23.4373C6.23453 16.4773 6.21749 9.51863 6.23575 2.55865C6.23331 1.19794 7.38312 0.00890186 8.68137 0ZM8.72274 2.6057C8.72396 13.2243 8.72153 23.843 8.72274 34.4616C9.13643 34.7503 9.54404 35.0453 9.96746 35.3188C9.96502 29.1841 9.96259 23.0482 9.96868 16.9135C9.95772 14.4706 11.4056 12.1116 13.5167 11.0752C14.4073 10.5869 15.4281 10.4075 16.4259 10.4152C26.3228 10.419 36.2196 10.4114 46.1153 10.419C48.7775 10.3948 51.2743 12.3736 52.0493 15.0187C52.2708 15.7537 52.3401 16.5269 52.3316 17.2938C52.3292 23.3051 52.3328 29.3164 52.3304 35.3277C52.7465 35.0415 53.1602 34.7528 53.5739 34.4616C53.5751 23.8443 53.5714 13.2256 53.5751 2.60824C38.6239 2.59934 23.6727 2.60316 8.72274 2.6057ZM13.3901 14.3689C12.7647 15.0963 12.4581 16.0755 12.463 17.0458C12.452 24.3796 12.4715 31.7148 12.4532 39.0499C13.1614 39.1237 14.0034 38.8795 14.5764 39.4518C15.3442 40.2148 16.0754 41.0185 16.8335 41.7929C17.1498 42.1083 17.4431 42.5026 17.4358 42.9845C17.4601 44.2817 17.437 45.5801 17.4455 46.8772C26.5807 46.8784 35.7159 46.8784 44.8511 46.8772C44.8596 45.5801 44.8365 44.2817 44.8609 42.9845C44.8584 42.57 45.0689 42.2037 45.3427 41.9227C46.052 41.1762 46.7687 40.4361 47.4768 39.6883C47.7299 39.4263 48.0146 39.1567 48.3821 39.1033C48.8578 39.0283 49.3409 39.0702 49.8203 39.0753C49.8592 31.814 49.8239 24.5513 49.8373 17.2887C49.8641 16.3044 49.6317 15.2883 49.0233 14.5164C48.3127 13.5524 47.1544 13.0082 45.9973 13.026C36.1016 13.0209 26.2059 13.0221 16.3103 13.026C15.2104 13.0107 14.1068 13.4889 13.3901 14.3689ZM2.49673 33.8601C3.74023 33.855 4.98373 33.8601 6.22723 33.8576C6.22845 31.2544 6.22845 28.6513 6.22723 26.0468C4.98495 26.0417 3.74388 26.0545 2.50282 26.0405C2.47848 28.6462 2.49065 31.2531 2.49673 33.8601ZM56.0694 26.0468C56.0682 28.65 56.0682 31.2544 56.0694 33.8576C57.3129 33.8601 58.5564 33.855 59.7999 33.8601C59.806 31.2722 59.8157 28.6831 59.7962 26.0964L59.7597 26.0557C58.5296 26.0316 57.2995 26.0532 56.0694 26.0468ZM8.72396 37.5976C8.72031 40.6891 8.72639 43.7806 8.72153 46.8721C9.13521 46.8784 9.55012 46.8785 9.96381 46.8785C9.96259 44.068 9.97476 41.2576 9.95772 38.4471C9.5416 38.1724 9.13643 37.8799 8.72396 37.5976ZM52.3389 38.4459C52.3206 41.2563 52.334 44.0667 52.3328 46.8772C52.7489 46.881 53.1663 46.8835 53.5836 46.8619C53.5605 43.7742 53.5812 40.6853 53.5727 37.5976C53.1602 37.8787 52.7562 38.1712 52.3389 38.4459ZM12.4605 46.8772C13.2904 46.8784 14.1189 46.8772 14.9488 46.8785C14.9524 45.7568 14.9488 44.6352 14.9512 43.5148C14.4256 42.9616 13.8963 42.411 13.3707 41.8578C13.1565 41.5539 12.7659 41.7027 12.463 41.6696C12.4569 43.4055 12.4618 45.1413 12.4605 46.8772ZM48.9284 41.8553C48.4016 42.4084 47.8735 42.9604 47.3466 43.5123C47.3466 44.6339 47.3442 45.7568 47.3479 46.8785C48.1765 46.8772 49.0063 46.8784 49.8361 46.8772C49.8336 45.1413 49.8409 43.4055 49.8324 41.6696C49.5295 41.7027 49.1425 41.5551 48.9284 41.8553ZM9.8835 49.5032C9.40168 49.5376 8.95514 49.8847 8.80426 50.3667C8.67407 50.8614 8.73369 51.379 8.72274 51.8864C8.74099 52.4803 8.67529 53.0805 8.7702 53.6706C8.88457 54.3051 9.49902 54.7248 10.0989 54.6905C24.0925 54.6994 38.0861 54.6917 52.0797 54.6943C52.6224 54.7324 53.2076 54.4832 53.4412 53.9414C53.67 53.3259 53.541 52.6481 53.5739 52.0047C53.5349 51.3307 53.7199 50.546 53.2831 49.9738C53.002 49.591 52.519 49.4714 52.0785 49.4841C45.2648 49.4854 38.4499 49.4842 31.6362 49.4854C24.3857 49.4969 17.1328 49.46 9.8835 49.5032ZM12.463 61.054C12.4593 61.494 12.6041 61.962 12.9582 62.2291C13.2806 62.4999 13.7174 62.5101 14.1104 62.5101C15.5328 62.505 16.9539 62.5076 18.3751 62.5088C18.7559 62.5101 19.172 62.472 19.4713 62.1985C19.8035 61.9251 19.9349 61.4737 19.9337 61.0464C19.9398 59.7976 19.9325 58.5488 19.9361 57.2987C17.4443 57.2962 14.9536 57.3 12.463 57.2974C12.4593 58.5488 12.4569 59.8014 12.463 61.054ZM42.3593 57.3013C42.3653 58.5488 42.3556 59.7963 42.3629 61.0451C42.3605 61.4711 42.4919 61.9213 42.8216 62.196C43.1234 62.4745 43.5456 62.5101 43.9313 62.5088C45.4327 62.5038 46.933 62.5114 48.4344 62.5063C48.8554 62.5088 49.3068 62.3664 49.5623 61.9951C49.8251 61.6581 49.8409 61.2015 49.8385 60.787C49.8324 59.6234 49.8397 58.461 49.8336 57.2974C47.343 57.3013 44.8511 57.2936 42.3593 57.3013Z" fill="white" stroke="#1B1B1F" stroke-width="2" mask="url(#path-1-inside-1_667_11687)"/>
<path d="M15.6434 16.2049L15.6434 16.2049L16.9133 16.1249C16.9136 16.1249 16.9138 16.1249 16.9141 16.1249C20.9698 16.1265 25.0251 16.1259 29.0804 16.1253C34.7577 16.1244 40.4348 16.1235 46.1121 16.1287V16.1288L46.12 16.1287C46.8538 16.1178 47.5899 16.5908 47.8979 17.3097L47.9011 17.3172L47.9046 17.3246C48.098 17.7383 48.0962 18.2129 48.094 18.8099C48.0938 18.8552 48.0936 18.9013 48.0935 18.9481V18.9489C48.0924 21.0237 48.0928 23.0972 48.0933 25.1705C48.0938 27.5891 48.0943 30.0075 48.0923 32.4274L48.0923 32.4413L48.093 32.4551C48.1141 32.8404 47.8905 33.1887 47.5883 33.3111L47.5783 33.3151L47.5686 33.3195C46.621 33.7513 45.6747 34.1765 44.7271 34.6023C44.0011 34.9286 43.2743 35.2551 42.5457 35.5853L42.5456 35.5852L42.5409 35.5875L42.5226 35.5959C42.0625 35.8103 41.7279 35.9662 41.3811 35.9617V35.9616L41.3745 35.9616C38.4712 35.9627 35.5673 35.9624 32.663 35.9621C28.7901 35.9617 24.9167 35.9613 21.0439 35.9642V35.964L21.0305 35.9644C20.7456 35.9722 20.4545 35.9084 20.1816 35.7817L20.1785 35.7803C19.2701 35.3664 18.3602 34.9577 17.4516 34.5497L17.4511 34.5494C16.542 34.1411 15.6344 33.7335 14.7287 33.3208L14.7185 33.3162L14.7081 33.312C14.4038 33.1895 14.1792 32.8359 14.2028 32.4453L14.2038 32.4303L14.2038 32.4152C14.2041 30.8966 14.2035 29.3784 14.2029 27.8603C14.2016 24.6352 14.2004 21.4109 14.2086 18.1861L14.2087 18.1861L14.2086 18.1805C14.2007 17.2689 14.8377 16.4181 15.6434 16.2049ZM16.1067 17.7332L15.6045 17.7332L15.6068 18.2355C15.615 20.0144 15.6272 21.7913 15.6394 23.5676C15.658 26.2722 15.6766 28.9751 15.681 31.6809L15.6815 31.9973L15.9677 32.1323C16.7939 32.522 17.6447 32.9024 18.4899 33.2803C19.1502 33.5756 19.8071 33.8693 20.4462 34.1647C20.7764 34.3358 21.1135 34.3656 21.3919 34.3672C21.5058 34.3679 21.6219 34.3635 21.7248 34.3596C21.7474 34.3588 21.7695 34.3579 21.7907 34.3572C21.915 34.3528 22.0209 34.3508 22.1195 34.3564L22.4341 34.3743L22.586 34.0981C22.8251 33.6633 23.0617 33.2287 23.2979 32.7935L23.6773 32.0944L22.8828 32.0556C22.7161 32.0474 22.5472 32.0517 22.3983 32.0555L22.3853 32.0558C22.2264 32.0599 22.0877 32.063 21.9548 32.0564C21.6919 32.0433 21.511 31.9936 21.3681 31.8833L21.3682 31.8832L21.359 31.8764C21.2156 31.7708 21.1093 31.5826 21.0823 31.3545C21.0552 31.1264 21.1139 30.9108 21.2319 30.7652L21.2422 30.7525L21.2516 30.7393C21.3866 30.5486 21.654 30.4415 22.0006 30.4516L22.0006 30.4518L22.0145 30.4518C22.9446 30.4533 23.8729 30.4525 24.8006 30.4517C26.2674 30.4504 27.7324 30.4491 29.1998 30.4569L29.2134 30.457L29.2269 30.4563C29.5734 30.4394 29.9321 30.7171 29.9896 31.0867L29.9922 31.103L29.9958 31.1192C30.0421 31.3258 29.9849 31.5577 29.8427 31.7459C29.6999 31.9349 29.5055 32.036 29.3244 32.0385L29.3244 32.0383L29.3119 32.0388C28.7229 32.0619 28.1307 32.0601 27.5275 32.0564C27.4826 32.0562 27.4377 32.0559 27.3927 32.0556C26.836 32.0521 26.2695 32.0485 25.7028 32.0641L25.4069 32.0722L25.2717 32.3356C25.1292 32.6132 24.9833 32.8805 24.8338 33.1541C24.7507 33.3063 24.6665 33.4606 24.5811 33.6196L24.1877 34.3533L25.0202 34.3559C26.3535 34.3602 27.6832 34.3589 29.0118 34.3576C30.8689 34.3558 32.7237 34.354 34.5829 34.3674L34.8639 34.3694L35.0117 34.1305C35.2094 33.811 35.3914 33.472 35.5646 33.1496C35.6295 33.0286 35.6932 32.91 35.756 32.7956L36.1515 32.0755L35.3301 32.0551C35.1986 32.0519 35.0331 32.0544 34.8836 32.0568C34.785 32.0583 34.6932 32.0597 34.6229 32.0593C34.4063 32.058 34.2214 32.0444 34.0521 32.0019C33.7304 31.9177 33.4665 31.5123 33.5435 31.1304L33.5471 31.113L33.5493 31.0955C33.5964 30.7303 33.9508 30.4459 34.3031 30.4579L34.3133 30.4582L34.3236 30.4582C35.6201 30.449 36.9086 30.4504 38.1993 30.4517C39.2525 30.4528 40.3072 30.4539 41.3692 30.4493C41.7894 30.4522 42.0149 30.4796 42.1616 30.6118L42.1755 30.6244L42.1903 30.6358C42.4799 30.86 42.5631 31.3737 42.3451 31.6901L42.3371 31.7018L42.3297 31.714C42.2032 31.922 41.9349 32.0539 41.6211 32.0512V32.0511L41.6123 32.0512C40.8713 32.0578 40.1324 32.0563 39.3902 32.0549C38.9925 32.0541 38.594 32.0533 38.1936 32.0537L37.9009 32.054L37.7579 32.3094C37.5137 32.7454 37.2761 33.1832 37.0409 33.6202L36.645 34.3554L37.48 34.3572C37.9726 34.3583 38.4631 34.3582 38.9529 34.3582C39.6323 34.3581 40.3103 34.358 40.9904 34.361C41.3167 34.3782 41.6066 34.2812 41.8383 34.1697C42.492 33.8689 43.1599 33.569 43.8304 33.268C44.6622 32.8945 45.498 32.5193 46.3153 32.1383L46.605 32.0033L46.6041 31.6837C46.5965 29.1539 46.5975 26.6269 46.5985 24.0987C46.5992 22.1442 46.6 20.1889 46.5968 18.2311L46.596 17.7318L46.0967 17.7319C41.1003 17.7325 36.1039 17.7325 31.1074 17.7325H31.1018C26.1035 17.7325 21.1051 17.7325 16.1067 17.7332Z" fill="white" stroke="#1B1B1F"/>
<path d="M41.5751 39.7569L41.5657 39.7483C41.4729 39.664 41.3497 39.6121 41.1702 39.5852C41.0038 39.5602 40.8302 39.5611 40.6199 39.5623C40.5878 39.5624 40.5549 39.5626 40.521 39.5627L41.5751 39.7569ZM41.5751 39.7569L41.585 39.7649M41.5751 39.7569L41.585 39.7649M41.585 39.7649C41.7342 39.8871 41.8339 40.099 41.8409 40.3453C41.8479 40.5915 41.7605 40.8102 41.6172 40.9426L41.6071 40.9519M41.585 39.7649L41.6071 40.9519M41.6071 40.9519L41.5975 40.9618M41.6071 40.9519L41.5975 40.9618M41.5975 40.9618C41.5058 41.0564 41.3813 41.1152 41.1972 41.1469C41.0122 41.1788 40.8119 41.1771 40.5697 41.1751C40.5552 41.175 40.5406 41.1749 40.5259 41.1748L40.5224 41.1748M41.5975 40.9618L40.5224 41.1748M40.5224 41.1748C36.4698 41.1715 32.4165 41.1719 28.3635 41.1723C26.0474 41.1725 23.7314 41.1727 21.4158 41.1722L21.3998 41.1722M40.5224 41.1748L21.3998 41.1722M21.3998 41.1722L21.3838 41.1732M21.3998 41.1722L21.3838 41.1732M21.3838 41.1732C20.9791 41.1991 20.6259 40.9989 20.514 40.693L20.5088 40.6788M21.3838 41.1732L20.5088 40.6788M20.5088 40.6788L20.5028 40.665M20.5088 40.6788L20.5028 40.665M20.5028 40.665C20.4089 40.4496 20.4336 40.182 20.5669 39.9529C20.6988 39.7262 20.8995 39.598 21.0965 39.5855M20.5028 40.665L21.0965 39.5855M21.0965 39.5855C24.9583 39.5552 28.8171 39.5598 32.6785 39.5643C35.2909 39.5674 37.9044 39.5704 40.5209 39.5627L21.0965 39.5855Z" fill="white" stroke="#1B1B1F"/>
<path d="M41.0075 43.4753L41.0194 43.4753L41.0312 43.4748C41.3731 43.4591 41.7112 43.6875 41.8049 44.0174L41.8089 44.0312L41.8136 44.0449C41.8973 44.2858 41.8403 44.5551 41.673 44.7706C41.5038 44.9886 41.264 45.0983 41.0429 45.077L41.0187 45.0746L40.9944 45.0746C37.0047 45.0793 33.0151 45.0787 29.0249 45.0782C26.4853 45.0778 23.9455 45.0775 21.4054 45.0785L21.3944 45.0785L21.3835 45.0789C21.0109 45.0954 20.703 44.9496 20.5721 44.7089L20.5645 44.6948L20.556 44.6813C20.4435 44.5027 20.4186 44.2566 20.4953 44.0178C20.572 43.7793 20.7299 43.6084 20.9081 43.5411C21.0443 43.492 21.2056 43.4766 21.4294 43.4702C24.2258 43.4724 27.0215 43.4718 29.8169 43.4711C33.5469 43.4703 37.2766 43.4695 41.0075 43.4753Z" fill="white" stroke="#1B1B1F"/>
<path d="M22.4134 51.2978L22.4206 51.2979L22.4277 51.2978C23.3543 51.2827 24.2716 51.285 25.1945 51.2874C25.8379 51.289 26.4839 51.2906 27.1376 51.2864L27.1376 51.2864L27.1461 51.2862C27.533 51.2772 27.8072 51.3685 27.9469 51.5508L27.9558 51.5624L27.9654 51.5735C28.0888 51.7164 28.1547 51.9319 28.1346 52.1628C28.1144 52.3936 28.013 52.5879 27.8701 52.7005L27.8598 52.7086L27.8499 52.7173C27.6852 52.8617 27.4308 52.8959 27.0093 52.8946C26.2998 52.8892 25.6071 52.8905 24.9172 52.8918C24.1168 52.8932 23.3201 52.8947 22.5054 52.8857L22.4954 52.8856L22.4854 52.8859C22.1136 52.8967 21.7484 52.5983 21.7072 52.2234L21.7054 52.2075L21.7026 52.1917C21.6224 51.7342 22.0196 51.2929 22.4134 51.2978Z" fill="white" stroke="#1B1B1F"/>
<path d="M34.8538 51.3017L34.8551 51.3016C36.1021 51.2804 37.349 51.2849 38.6017 51.2894C38.9966 51.2908 39.392 51.2922 39.7882 51.2928L39.7991 51.2928L39.81 51.2924C40.1728 51.2771 40.5345 51.5626 40.5844 51.9329L40.5868 51.9504L40.5904 51.9676C40.6834 52.4161 40.2976 52.8706 39.9003 52.877L39.8995 52.877C38.3369 52.9044 36.7706 52.8947 35.1991 52.885C35.105 52.8844 35.0108 52.8838 34.9166 52.8833L34.9166 52.8831L34.9044 52.8833C34.5092 52.8906 34.1172 52.4959 34.1538 52.0549L34.1547 52.0441L34.1551 52.0333C34.171 51.6291 34.516 51.3065 34.8538 51.3017Z" fill="white" stroke="#1B1B1F"/>
</svg>
