<svg width="80" height="74" viewBox="0 0 80 74" fill="none" xmlns="http://www.w3.org/2000/svg">
<path d="M62.763 66.4591V72.1824C62.763 72.634 62.3955 73 61.9422 73H9.82081C9.36749 73 9 72.634 9 72.1824V8.81761C9 8.36605 9.36749 8 9.82081 8H61.9422C62.3955 8 62.763 8.36606 62.763 8.81761V39.0692M62.763 39.0692V44.3836M62.763 39.0692H69.3295C70.5607 39.2055 73.0231 40.2956 73.0231 43.566C73.0231 46.7191 73.0231 53.1652 73.0231 56.3105C73.0231 56.5273 73.1096 56.734 73.2635 56.8873L80 63.5975M69.3295 72.1824L59.6135 62.101C59.5256 62.0098 59.4597 61.9005 59.4244 61.779C58.815 59.686 58.3269 55.4209 60.5177 52.7753C60.8183 52.4123 60.8398 51.8704 60.5059 51.5378L53.8711 44.9289C53.7811 44.8392 53.712 44.7299 53.676 44.6082C52.9799 42.2595 53.9523 39.7696 57.5894 40.2582C57.7506 40.2798 57.9014 40.3549 58.0198 40.4658L64.815 46.8365" stroke="white" stroke-width="0.8" stroke-linecap="round"/>
<path d="M26 8V14.213C26 14.2683 26.005 14.3232 26.0169 14.3771C26.1766 15.1042 26.6955 16.4912 27.6471 16.8146C28.6218 17.1458 39.8244 16.9598 45.5304 16.8204C45.6861 16.8165 45.8359 16.7708 45.9506 16.6634C46.3834 16.2581 47 15.3291 47 13.8764C47 12.1974 47 9.25923 47 8" stroke="white" stroke-width="0.8" stroke-linecap="round"/>
<path d="M57 35.2V14.8154C57 14.3651 56.6277 14 56.1683 14H47.0198M25.396 14H15.8317C15.3724 14 15 14.3651 15 14.8154V66.1846C15 66.635 15.3724 67 15.8317 67H56.1683M35.7921 55.1769H47.0198M35.7921 49.0615H49.9307M35.7921 43.7615H47.0198M35.7921 37.6462H49.9307M35.7921 31.5308H47.0198M35.7921 25.8231H50.3465M21.6535 29.4923L23.5382 31.3401C23.8716 31.6669 24.415 31.6571 24.7358 31.3184L29.5545 26.2308M21.6535 41.3154L23.5382 43.1632C23.8716 43.49 24.415 43.4802 24.7358 43.1415L29.5545 38.0538M21.6535 52.7308L23.5382 54.5786C23.8716 54.9054 24.415 54.8955 24.7358 54.5569L29.5545 49.4692" stroke="white" stroke-width="0.8" stroke-linecap="round"/>
</svg>
