<svg width="70" height="65" viewBox="0 0 70 65" fill="none" xmlns="http://www.w3.org/2000/svg">
<path d="M69.2268 54.0846C68.8099 54.4899 68.393 54.8966 67.978 55.3047C66.8983 54.2056 65.7997 53.1071 64.7032 52.0106C63.6422 50.9496 62.583 49.8905 61.5446 48.8345L61.5289 48.8185L61.5119 48.8039C61.1806 48.5177 61.0759 48.0398 61.0942 47.407L61.0945 47.3986L61.0944 47.3902C61.0919 45.8355 61.0958 44.2773 61.0998 42.7179C61.1058 40.3215 61.1119 37.922 61.0946 35.527C61.1893 33.901 60.0085 32.2334 58.2955 32.0207L58.2955 32.0206L58.2883 32.0198C57.4722 31.9295 56.6601 31.9202 55.8673 31.9291C55.6106 31.932 55.3581 31.9367 55.108 31.9413C54.5744 31.9513 54.0517 31.961 53.5233 31.9524L52.9614 31.9432L52.9644 32.5052C52.9708 33.7261 52.9708 34.9504 52.9708 36.1764V36.4024L53.1297 36.5632C53.7883 37.2289 54.4532 37.8875 55.1198 38.5438C54.9223 38.7467 54.7246 38.9494 54.5265 39.1524L54.5254 39.1535C54.3277 39.3561 54.1297 39.5591 53.9317 39.7625C52.7613 38.6208 51.6149 37.4597 50.4647 36.2947C49.8229 35.6447 49.1799 34.9935 48.5309 34.3437L48.5259 34.3387L48.5207 34.3338C48.4987 34.3128 48.4759 34.2911 48.4525 34.2687C48.2002 34.0276 47.869 33.7112 47.4944 33.4894C47.0722 33.2395 46.538 33.0747 45.932 33.2586C45.1742 33.4167 44.6552 34.0067 44.4452 34.6436C44.2327 35.2882 44.3039 36.0826 44.8564 36.6574C45.8625 37.7757 46.9377 38.8269 47.9978 39.8634C48.0481 39.9125 48.0983 39.9616 48.1484 40.0106C49.2641 41.1017 50.36 42.1804 51.3697 43.332L51.371 43.3335C51.4984 43.4777 51.5299 43.5926 51.533 43.6879C51.5365 43.7976 51.5031 43.9371 51.4123 44.1185C51.3213 44.3001 51.1902 44.4901 51.0347 44.6973C50.9912 44.7552 50.9437 44.8171 50.8948 44.8808C50.7868 45.0214 50.6719 45.1712 50.5777 45.3077C48.5105 47.9716 48.8745 52.0589 51.2405 54.3963C52.9299 56.1134 54.6359 57.8196 56.3401 59.524C57.3468 60.5307 58.3527 61.5368 59.3543 62.5441C58.9484 62.9548 58.5427 63.365 58.1361 63.7741C57.4554 63.0961 56.7838 62.4216 56.1112 61.746C55.3816 61.0132 54.6507 60.279 53.9054 59.5378L52.9917 58.6291L52.9677 59.9175C52.9597 60.3462 52.9697 60.7948 52.9795 61.2298C52.9854 61.4943 52.9912 61.7537 52.9928 62.0006C52.997 62.664 52.9732 63.2976 52.8599 63.9117C52.7903 64.0947 52.6518 64.2215 52.4327 64.3102C52.1889 64.409 51.8752 64.4447 51.5622 64.4321L51.5511 64.4316H51.5401C46.7377 64.4316 41.9349 64.4299 37.1318 64.4282C25.928 64.4241 14.7229 64.4201 3.51963 64.438C3.26792 64.4292 2.99945 64.4358 2.74643 64.4421C2.67755 64.4438 2.60983 64.4454 2.5439 64.4468C2.21898 64.4533 1.9193 64.4523 1.64245 64.4194C1.1545 64.3614 0.797325 64.2139 0.55 63.8753V1.17358C0.818301 0.730396 1.30214 0.50397 1.86442 0.557671L1.89056 0.560167L1.91682 0.560162C7.82121 0.559016 13.7262 0.559916 19.6315 0.560817C30.2615 0.562437 40.8923 0.564058 51.5214 0.553744L51.5312 0.553734L51.541 0.553375C51.8529 0.541949 52.1629 0.572506 52.4075 0.664748C52.6288 0.74823 52.7702 0.869654 52.8458 1.04617C52.9541 1.48951 52.9853 1.95665 52.9884 2.45816C52.9898 2.69177 52.9851 2.92631 52.9803 3.16883L52.9789 3.24336C52.9737 3.50766 52.9691 3.78088 52.9739 4.05449C52.9666 8.93196 52.9677 13.8108 52.9687 18.689C52.9695 22.3484 52.9703 26.0074 52.9676 29.6653L52.9671 30.2074L53.5092 30.2157C54.1028 30.2248 54.6783 30.2155 55.2438 30.2065C56.3473 30.1888 57.4124 30.1718 58.4982 30.2924C60.7429 30.5569 62.647 32.5992 62.7661 34.8667C62.8421 36.8131 62.8242 38.765 62.8061 40.7324C62.805 40.8558 62.8038 40.9793 62.8027 41.1029C62.7839 43.192 62.7717 45.2974 62.8815 47.4005L62.8912 47.5868L63.0123 47.7288C64.0436 48.9376 65.1649 50.0623 66.2871 51.1626C66.4869 51.3586 66.6866 51.5536 66.8858 51.7481C67.68 52.5238 68.4671 53.2925 69.2268 54.0846ZM2.80154 2.30957L2.24951 2.30789L2.24987 2.85992C2.25665 13.3149 2.25535 23.7682 2.25406 34.2217C2.25291 43.5139 2.25175 52.8064 2.25627 62.1004L2.25654 62.6499L2.80605 62.6501C11.925 62.6538 21.0444 62.6533 30.1636 62.6528C37.0023 62.6524 43.8409 62.652 50.6792 62.6534L51.2303 62.6535L51.2293 62.1023C51.2284 61.6448 51.229 61.1859 51.2295 60.726C51.231 59.4943 51.2325 58.256 51.2068 57.022L51.2019 56.7862L51.0276 56.6272C49.7738 55.4831 48.6772 54.2034 48.1138 52.6779L48.1138 52.6779L48.1107 52.6699C47.0321 49.8842 47.4527 46.5866 49.2044 44.175L49.4793 43.7965L49.1498 43.4644C48.4948 42.8041 47.8392 42.1498 47.1849 41.4968C46.0031 40.3172 44.8256 39.1419 43.6633 37.9434L43.6633 37.9433L43.6579 37.9379C42.6829 36.9602 42.3627 35.4039 42.8018 34.0774L42.8019 34.0774L42.805 34.0675C43.363 32.269 45.4021 31.0995 47.2302 31.5356L47.2511 31.5406L47.2724 31.5439C47.8486 31.6345 48.3547 31.9129 48.8466 32.3079C49.2486 32.6306 49.6124 33.0057 49.9937 33.3988C50.0891 33.4971 50.1856 33.5966 50.284 33.6967L51.2261 34.6542V33.3109C51.2261 30.2665 51.2269 27.222 51.2278 24.1774C51.2298 17.0725 51.2318 9.96717 51.2229 2.86208L51.2222 2.31235L50.6725 2.31277C49.1666 2.31392 47.6603 2.31302 46.1536 2.31212C43.4405 2.3105 40.7264 2.30888 38.0122 2.31919L37.4681 2.32126L37.4643 2.8653C37.4579 3.76906 37.4483 4.67422 37.4292 5.57536L37.4184 6.08251L37.9231 6.13417C39.4153 6.28693 40.9067 6.28218 42.3708 6.26333C42.5281 6.2613 42.685 6.25912 42.8416 6.25694C44.1514 6.23869 45.4373 6.22079 46.7193 6.29964L46.7278 6.30016L46.7363 6.30042C46.8848 6.30495 47.0202 6.38191 47.1337 6.55481C47.2529 6.73629 47.3154 6.98306 47.3017 7.20197L47.3006 7.21989L47.3006 7.23785C47.313 11.7739 47.3107 16.309 47.3084 20.8452C47.3072 23.1359 47.3061 25.4269 47.3068 27.7184C47.0209 27.7177 46.7355 27.7172 46.4504 27.7167C46.1646 27.7162 45.8791 27.7157 45.5936 27.7151C45.5907 25.2622 45.5919 22.8079 45.5931 20.3531C45.595 16.3953 45.5969 12.4362 45.5815 8.47922L45.5794 7.9306L45.0308 7.93135C44.186 7.93252 43.3403 7.93199 42.4943 7.93146C41.0118 7.93053 39.5281 7.9296 38.0464 7.93778L37.6599 7.93991L37.531 8.3043C37.0418 9.68673 35.9382 10.7963 34.5911 10.7553L34.5816 10.755L34.5721 10.7551C29.3547 10.7775 24.1373 10.7775 18.9199 10.7551V10.755L18.9081 10.7552C17.5589 10.7784 16.4365 9.67432 15.9769 8.30045L15.8505 7.92276L15.4523 7.92494C13.1187 7.93777 10.7847 7.93456 8.44912 7.92815L7.89816 7.92663L7.89761 8.47759C7.88161 24.4802 7.88481 40.486 7.89441 56.4883L7.89474 57.0373L8.44372 57.038C13.9912 57.045 19.5373 57.0434 25.0831 57.0418C32.0287 57.0399 38.9737 57.0379 45.9199 57.0528C45.9193 57.3386 45.9188 57.6246 45.9183 57.9105L45.9183 57.9168C45.9178 58.2018 45.9173 58.4868 45.9166 58.7718C39.397 58.7766 32.8785 58.7761 26.3597 58.7756C20.7757 58.7752 15.1915 58.7748 9.60627 58.7777C9.28116 58.7735 8.97162 58.7782 8.67157 58.7829C8.02805 58.7928 7.42815 58.8021 6.81179 58.7197C6.42442 58.6516 6.11438 58.21 6.17203 57.6874L6.17535 57.6573L6.17534 57.627C6.17476 54.5751 6.17397 51.5232 6.17318 48.4712C6.1696 34.7339 6.16603 20.9956 6.18174 7.25943L6.18178 7.22813L6.17826 7.19702C6.1186 6.66925 6.54389 6.23995 6.9493 6.27605L6.97956 6.27874L7.00993 6.27809C8.65528 6.24263 10.285 6.24956 11.9226 6.25654C13.1054 6.26157 14.2923 6.26662 15.4923 6.25573L16.0318 6.25084L16.0373 5.71135C16.0421 5.23962 16.0453 4.76804 16.0485 4.29755L16.0485 4.29441V4.29419C16.0517 3.82242 16.0549 3.35173 16.0597 2.8812L16.0653 2.33022L15.5143 2.32563C12.971 2.30444 10.423 2.30752 7.87802 2.31059C6.18372 2.31264 4.49079 2.31468 2.80154 2.30957ZM18.3108 2.30635L17.7447 2.30507L17.7598 2.871C17.7777 3.5451 17.769 4.2189 17.7602 4.90533C17.7581 5.06127 17.7561 5.21786 17.7544 5.37526C17.7453 6.20896 17.7449 7.05882 17.8035 7.91123C17.7959 8.17329 17.8683 8.42482 18.0472 8.62617C18.2219 8.82276 18.4459 8.91144 18.6199 8.95599C18.7957 9.00103 18.9756 9.01457 19.1151 9.02125C19.1877 9.02472 19.2439 9.02642 19.2921 9.02787C19.3556 9.02979 19.4053 9.03129 19.4608 9.03589L19.4854 9.03793L19.51 9.03776C21.5138 9.02413 23.5252 9.02974 25.5395 9.03536C28.7204 9.04423 31.9085 9.05312 35.0852 8.98631L35.542 8.9767L35.6163 8.52584C35.84 7.16769 35.8134 5.76995 35.7879 4.43446C35.7778 3.90291 35.7678 3.38123 35.774 2.87583L35.7807 2.32109L35.2259 2.31919C32.1519 2.3087 29.0729 2.30965 25.9952 2.3106C23.4317 2.31139 20.8691 2.31218 18.3108 2.30635Z" fill="white" stroke="#1B1B1F" stroke-width="1.1"/>
<path d="M23.1697 13.359H23.1792H23.218H23.2568H23.2956H23.3344H23.3731H23.4119H23.4507H23.4895H23.5283H23.5671H23.6059H23.6447H23.6835H23.7223H23.7611H23.7999H23.8386H23.8774H23.9162H23.955H23.9938H24.0326H24.0714H24.1102H24.149H24.1878H24.2266H24.2654H24.3041H24.3429H24.3817H24.4205H24.4593H24.4981H24.5369H24.5757H24.6145H24.6533H24.6921H24.7308H24.7696H24.8084H24.8472H24.886H24.9248H24.9636H25.0024H25.0412H25.08H25.1188H25.1576H25.1963H25.2351H25.2739H25.3127H25.3515H25.3903H25.4291H25.4679H25.5067H25.5455H25.5843H25.6231H25.6618H25.7006H25.7394H25.7782H25.817H25.8558H25.8946H25.9334H25.9722H26.011H26.0498H26.0886H26.1273H26.1661H26.2049H26.2437H26.2825H26.3213H26.3601H26.3989H26.4377H26.4765H26.5153H26.5541H26.5928H26.6316H26.6704H26.7092H26.748H26.7868H26.8256H26.8644H26.9032H26.942H26.9808H27.0196H27.0583H27.0971H27.1359H27.1747H27.2135H27.2523H27.2911H27.3299H27.3687H27.4075H27.4463H27.485H27.5238H27.5626H27.6014H27.6402H27.679H27.7178H27.7566H27.7954H27.8342H27.873H27.9118H27.9505H27.9893H28.0281H28.0669H28.1057H28.1445H28.1833H28.2221H28.2609H28.2997H28.3385H28.3773H28.416H28.4548H28.4936H28.5324H28.5712H28.61H28.6488H28.6876H28.7264H28.7652H28.804H28.8428H28.8815H28.9203H28.9591H28.9979H29.0367H29.0755H29.1143H29.1531H29.1919H29.2307H29.2695H29.3083H29.347H29.3858H29.4246H29.4634H29.5022H29.541H29.5798H29.6186H29.6574H29.6962H29.735H29.7738H29.8125H29.8513H29.8901H29.9289H29.9677H30.0065H30.0453H30.0841H30.1229H30.1617H30.2005H30.2393H30.278H30.3168H30.3556H30.3944H30.4332H30.472H30.5108H30.5496H30.5884H30.6272H30.666H30.7047H30.7435H30.7823H30.8211H30.8599H30.8987H30.9375H30.9763H31.0151H31.0539H31.0927H31.1315H31.1702H31.209H31.2478H31.2866H31.3254H31.3642H31.403H31.4418H31.4806H31.5194H31.5582H31.597H31.6357H31.6745H31.7133H31.7521H31.7909H31.8297H31.8685H31.9073H31.9461H31.9849H32.0237H32.0625H32.1012H32.14H32.1788H32.2176H32.2564H32.2952H32.334H32.3728H32.4116H32.4504H32.4892H32.528H32.5667H32.6055H32.6443H32.6831H32.7219H32.7607H32.7995H32.8383H32.8771H32.9159H32.9547H32.9935H33.0322H33.071H33.1098H33.1486H33.1874H33.2262H33.265H33.3038H33.3426H33.3814H33.4202H33.459H33.4977H33.5365H33.5753H33.6141H33.6529H33.6917H33.7305H33.7693H33.8081H33.8469H33.8857H33.9244H33.9632H34.002H34.0408H34.0796H34.1184H34.1572H34.196H34.2348H34.2736H34.3124H34.3512H34.3899H34.4287H34.4675H34.5063H34.5451H34.5839H34.6227H34.6615H34.7003H34.7391H34.7779H34.8167H34.8554H34.8942H34.933H34.9718H35.0106H35.0494H35.0882H35.127H35.1658H35.2046H35.2434H35.2822H35.3209H35.3597H35.3985H35.4373H35.4761H35.5149H35.5537H35.5925H35.6313H35.6701H35.7089H35.7477H35.7864H35.8252H35.864H35.9028H35.9416H35.9804H36.0192H36.058H36.0968H36.1356H36.1744H36.2132H36.2519H36.2907H36.3295H36.3683H36.4071H36.4459H36.4847H36.5235H36.5623H36.6011H36.6399H36.6786H36.7174H36.7562H36.795H36.8338H36.8726H36.9114H36.9502H36.989H37.0278H37.0666H37.1054H37.1441H37.1829H37.2217H37.2605H37.2993H37.3381H37.3769H37.4157H37.4545H37.4933H37.5321H37.5709H37.6096H37.6484H37.6872H37.726H37.7648H37.8036H37.8424H37.8812H37.92H37.9588H37.9976H38.0364H38.0751H38.1139H38.1527H38.1915H38.2303H38.2691H38.3079H38.3467H38.3855H38.4243H38.4631H38.5019H38.5406H38.5794H38.6182H38.657H38.6958H38.7346H38.7734H38.8122H38.851H38.8898H38.9286H38.9674H39.0061H39.0449H39.0837H39.1225H39.1613H39.2001H39.2389H39.2777H39.3165H39.3553H39.3941H39.4329H39.4716H39.5104H39.5492H39.588H39.6268H39.6656H39.7044H39.7432H39.782H39.8208H39.8596H39.8983H39.9371H39.9759H40.0147H40.0535H40.0923H40.1311H40.1699H40.2087H40.2475H40.2863H40.3251H40.3638H40.4026H40.4414H40.4802H40.519H40.5578H40.5966H40.6354H40.6742H40.713H40.7518H40.7906H40.8293H40.8681H40.9069H40.9457H40.9845H41.0233H41.0621H41.1009H41.1397H41.1785H41.2173H41.2561H41.2948H41.3336H41.3724H41.4112H41.45H41.4888H41.5276H41.5664H41.6052H41.644H41.6828H41.7216H41.7291C41.7274 14.1081 41.727 14.8571 41.7269 15.6056C35.5405 15.6092 29.354 15.6092 23.1675 15.6056C23.1692 14.8565 23.1696 14.1075 23.1697 13.359Z" fill="white" stroke="#1B1B1F" stroke-width="1.3"/>
<path d="M9.42736 19.6375L9.8898 20.0903L10.3446 19.6298C10.5344 19.4376 10.7242 19.2453 10.9139 19.0532C12.543 17.4026 14.1676 15.7567 15.8276 14.1475C16.3574 14.6712 16.8757 15.2098 17.4014 15.756C17.4164 15.7716 17.4314 15.7872 17.4464 15.8028C15.3931 17.8523 13.3395 19.9034 11.2965 21.9618L11.2954 21.9629C10.966 22.2964 10.6479 22.5892 10.3207 22.7629C10.0449 22.9093 9.79905 22.9534 9.54048 22.8757C8.22907 21.8512 7.0676 20.6228 5.92542 19.3399C6.47319 18.8175 7.01571 18.2898 7.55382 17.7602C8.17128 18.392 8.79512 19.0185 9.42736 19.6375Z" fill="white" stroke="#1B1B1F" stroke-width="1.3"/>
<path d="M31.7914 22.903C28.9163 22.9024 26.0412 22.9017 23.1675 22.9054C23.1692 22.1315 23.1696 21.3575 23.1697 20.5826C25.658 20.5842 28.1462 20.5842 30.6347 20.5842C33.123 20.5842 35.6116 20.5842 38.1009 20.5858C38.0991 21.3587 38.0987 22.1304 38.0986 22.9027C35.9965 22.9039 33.8939 22.9034 31.7914 22.903Z" fill="white" stroke="#1B1B1F" stroke-width="1.3"/>
<path d="M23.1705 27.8119V27.8066C27.3676 27.8089 31.5649 27.808 35.7619 27.8072C37.7514 27.8068 39.7409 27.8063 41.7303 27.8063C41.7266 28.5806 41.7169 29.354 41.7031 30.1278C37.8247 30.1129 33.9458 30.1155 30.0682 30.118C27.7683 30.1195 25.469 30.121 23.1705 30.1188V30.1125V30.1054V30.0984V30.0913V30.0842V30.0772V30.0701V30.0631V30.056V30.049V30.0419V30.0349V30.0278V30.0208V30.0137V30.0067V29.9996V29.9925V29.9855V29.9784V29.9714V29.9643V29.9573V29.9502V29.9432V29.9361V29.929V29.922V29.9149V29.9079V29.9008V29.8938V29.8867V29.8797V29.8726V29.8656V29.8585V29.8514V29.8444V29.8373V29.8303V29.8232V29.8162V29.8091V29.8021V29.795V29.7879V29.7809V29.7738V29.7668V29.7597V29.7527V29.7456V29.7385V29.7315V29.7244V29.7174V29.7103V29.7033V29.6962V29.6892V29.6821V29.675V29.668V29.6609V29.6539V29.6468V29.6398V29.6327V29.6256V29.6186V29.6115V29.6045V29.5974V29.5904V29.5833V29.5762V29.5692V29.5621V29.5551V29.548V29.541V29.5339V29.5268V29.5198V29.5127V29.5057V29.4986V29.4916V29.4845V29.4774V29.4704V29.4633V29.4563V29.4492V29.4422V29.4351V29.428V29.421V29.4139V29.4069V29.3998V29.3927V29.3857V29.3786V29.3716V29.3645V29.3575V29.3504V29.3433V29.3363V29.3292V29.3222V29.3151V29.3081V29.301V29.2939V29.2869V29.2798V29.2728V29.2657V29.2586V29.2516V29.2445V29.2375V29.2304V29.2234V29.2163V29.2092V29.2022V29.1951V29.1881V29.181V29.1739V29.1669V29.1598V29.1528V29.1457V29.1387V29.1316V29.1245V29.1175V29.1104V29.1034V29.0963V29.0892V29.0822V29.0751V29.0681V29.061V29.054V29.0469V29.0398V29.0328V29.0257V29.0187V29.0116V29.0045V28.9975V28.9904V28.9834V28.9763V28.9693V28.9622V28.9551V28.9481V28.941V28.934V28.9269V28.9198V28.9128V28.9057V28.8987V28.8916V28.8846V28.8775V28.8704V28.8634V28.8563V28.8493V28.8422V28.8351V28.8281V28.821V28.814V28.8069V28.7999V28.7928V28.7857V28.7787V28.7716V28.7646V28.7575V28.7504V28.7434V28.7363V28.7293V28.7222V28.7152V28.7081V28.701V28.694V28.6869V28.6799V28.6728V28.6657V28.6587V28.6516V28.6446V28.6375V28.6305V28.6234V28.6163V28.6093V28.6022V28.5952V28.5881V28.581V28.574V28.5669V28.5599V28.5528V28.5458V28.5387V28.5316V28.5246V28.5175V28.5105V28.5034V28.4964V28.4893V28.4822V28.4752V28.4681V28.4611V28.454V28.4469V28.4399V28.4328V28.4258V28.4187V28.4117V28.4046V28.3975V28.3905V28.3834V28.3764V28.3693V28.3623V28.3552V28.3481V28.3411V28.334V28.327V28.3199V28.3129V28.3058V28.2987V28.2917V28.2846V28.2776V28.2705V28.2635V28.2564V28.2494V28.2423V28.2352V28.2282V28.2211V28.2141V28.207V28.2V28.1929V28.1858V28.1788V28.1717V28.1647V28.1576V28.1506V28.1435V28.1365V28.1294V28.1223V28.1153V28.1082V28.1012V28.0941V28.0871V28.08V28.0729V28.0659V28.0588V28.0518V28.0447V28.0377V28.0306V28.0236V28.0165V28.0095V28.0024V27.9953V27.9883V27.9812V27.9742V27.9671V27.9601V27.953V27.946V27.9389V27.9318V27.9248V27.9177V27.9107V27.9036V27.8966V27.8895V27.8825V27.8754V27.8684V27.8613V27.8543V27.8472V27.8401V27.8331V27.826V27.819V27.8119Z" fill="white" stroke="#1B1B1F" stroke-width="1.3"/>
<path d="M9.44649 34.0847L9.90722 34.5218L10.3549 34.0713C11.3412 33.0789 12.3296 32.0904 13.3189 31.1011L13.3193 31.1008C14.1537 30.2664 14.9887 29.4313 15.8227 28.5937C16.3652 29.1439 16.9074 29.6933 17.4523 30.2425C16.2098 31.4684 14.9745 32.7065 13.7412 33.9425C12.7941 34.8917 11.8482 35.8398 10.9011 36.7802L10.8826 36.7986L10.8656 36.8184C10.4163 37.3426 9.70268 37.4568 9.3024 37.1514C8.63496 36.5834 8.00942 35.9604 7.37513 35.3134C7.26864 35.2048 7.16174 35.0953 7.05433 34.9853C6.67757 34.5995 6.29452 34.2072 5.90115 33.823C6.44255 33.2809 6.98866 32.7414 7.53759 32.2034C8.16195 32.8426 8.79754 33.469 9.44649 34.0847Z" fill="white" stroke="#1B1B1F" stroke-width="1.3"/>
<path d="M31.7914 37.3144C28.9163 37.3138 26.0412 37.3132 23.1675 37.3169C23.1691 36.5517 23.1691 35.7866 23.1674 35.0214C27.0094 35.0162 30.8494 35.017 34.691 35.0177C35.8274 35.0179 36.964 35.0181 38.1009 35.0182C38.0991 35.7838 38.0987 36.5492 38.0986 37.3141C35.9965 37.3153 33.8939 37.3149 31.7914 37.3144Z" fill="white" stroke="#1B1B1F" stroke-width="1.3"/>
<path d="M32.4406 44.5432C29.3494 44.5432 26.2584 44.5432 23.1674 44.5449C23.1691 43.7723 23.1691 42.9999 23.1674 42.2289C26.2603 42.2273 29.3531 42.2273 32.4458 42.2272H32.446C35.5392 42.2272 38.6322 42.2272 41.7243 42.2256C41.7252 42.9974 41.7233 43.7685 41.7209 44.5416C38.6272 44.5432 35.5344 44.5432 32.4418 44.5432H32.4406Z" fill="white" stroke="#1B1B1F" stroke-width="1.3"/>
<path d="M9.40158 48.5253L9.85413 48.9778L10.3136 48.5323C11.3253 47.5516 12.3198 46.554 13.3097 45.561L13.3116 45.5591C14.152 44.7161 14.9891 43.8764 15.8353 43.0482C16.1012 43.3155 16.3666 43.5841 16.6328 43.8537L16.6339 43.8547C16.9004 44.1245 17.1678 44.3953 17.4368 44.6656C16.0976 46.0399 14.7401 47.3886 13.378 48.7419C12.5535 49.561 11.7273 50.3818 10.9026 51.2109L10.8784 51.2352L10.857 51.2619C10.659 51.508 10.3483 51.6948 10.032 51.7554C9.72523 51.8141 9.46419 51.7489 9.27459 51.5718L9.26314 51.5612L9.25119 51.551C8.40463 50.8337 7.65852 50.0665 6.88917 49.2753C6.57316 48.9503 6.25322 48.6213 5.92079 48.2901C6.0828 48.1183 6.23895 47.9413 6.38535 47.7753C6.50332 47.6415 6.61497 47.515 6.71825 47.4041C7.01705 47.0834 7.28565 46.8418 7.56025 46.6892C7.98041 47.0453 8.3576 47.441 8.75978 47.863C8.96428 48.0776 9.17523 48.2989 9.40158 48.5253Z" fill="white" stroke="#1B1B1F" stroke-width="1.3"/>
<path d="M23.1682 49.7461C23.168 49.6595 23.1678 49.573 23.1675 49.4864C28.1462 49.4899 33.1218 49.4899 38.1005 49.4864C38.0978 50.2654 38.0947 51.045 38.0903 51.8234C33.1186 51.8307 28.1474 51.834 23.1765 51.8238C23.1717 51.1322 23.17 50.4397 23.1682 49.7461Z" fill="white" stroke="#1B1B1F" stroke-width="1.3"/>
</svg>
