<svg width="67" height="66" viewBox="0 0 67 66" fill="none" xmlns="http://www.w3.org/2000/svg">
<path d="M63.5633 54.0835H3.43668C3.05933 54.0835 2.75342 54.3766 2.75342 54.7383V58.0121C2.75342 58.3737 3.05933 58.6668 3.43668 58.6668H63.5633C63.9407 58.6668 64.2466 58.3737 64.2466 58.0121V54.7383C64.2466 54.3766 63.9407 54.0835 63.5633 54.0835Z" stroke="white" stroke-width="0.8" stroke-linecap="round"/>
<path d="M5.50684 54.0833V3.43904C5.50684 3.0585 5.80703 2.75 6.17733 2.75H24.2807M24.2807 2.75H60.8226C61.193 2.75 61.4931 3.0585 61.4931 3.43904V54.0833M24.2807 2.75V54.0833" stroke="white" stroke-width="0.8" stroke-linecap="round"/>
<path d="M43.0545 2.75V53.1667M5.50684 20.1233H17.911M17.911 20.1233H61.1579M17.911 20.1233V23.1892V25.5738C17.911 25.95 17.6108 26.2551 17.2405 26.2551H12.547C12.1767 26.2551 11.8765 25.95 11.8765 25.5738V23.3595V20.464M61.4931 36.8153H5.50684M11.8765 3.43131V8.5411C11.8765 8.91739 12.1767 9.22241 12.547 9.22241H17.2405C17.6108 9.22241 17.911 8.91739 17.911 8.5411V3.09065M30.6504 20.464V23.3595V25.5738C30.6504 25.95 30.9506 26.2551 31.3209 26.2551H36.0143C36.3847 26.2551 36.6848 25.95 36.6848 25.5738V23.1892V20.1233M30.6504 37.3263V40.2218V42.4361C30.6504 42.8124 30.9506 43.1174 31.3209 43.1174H33.6676H36.0143C36.3847 43.1174 36.6848 42.8124 36.6848 42.4361V40.0515V36.9856M30.6504 3.43131V6.32686V8.5411C30.6504 8.91739 30.9506 9.22241 31.3209 9.22241H36.0143C36.3847 9.22241 36.6848 8.91739 36.6848 8.5411V6.15653V3.09065M49.4242 3.43131V6.32686V8.5411C49.4242 8.91739 49.7244 9.22241 50.0947 9.22241H54.7882C55.1585 9.22241 55.4587 8.91739 55.4587 8.5411V6.15653V3.09065M49.4242 20.464V23.3595V25.5738C49.4242 25.95 49.7244 26.2551 50.0947 26.2551H54.7882C55.1585 26.2551 55.4587 25.95 55.4587 25.5738V23.1892V20.1233M49.4242 37.4966V40.3922V42.6064C49.4242 42.9827 49.7244 43.2877 50.0947 43.2877H54.7882C55.1585 43.2877 55.4587 42.9827 55.4587 42.6064V40.2218V37.156M11.8765 37.3263V40.2218V42.4361C11.8765 42.8124 12.1767 43.1174 12.547 43.1174H17.2405C17.6108 43.1174 17.911 42.8124 17.911 42.4361V40.0515V36.9856" stroke="white" stroke-width="0.8" stroke-linecap="round"/>
<path d="M7.34229 58.6665V62.4165C7.34229 62.8768 7.64507 63.2498 8.01856 63.2498H13.0907C13.4642 63.2498 13.7669 62.8768 13.7669 62.4165V58.6665" stroke="white" stroke-width="0.8" stroke-linecap="round"/>
<path d="M30.2876 58.6665V62.4165C30.2876 62.8768 30.5904 63.2498 30.9639 63.2498H36.036C36.4095 63.2498 36.7123 62.8768 36.7123 62.4165V58.6665" stroke="white" stroke-width="0.8" stroke-linecap="round"/>
<path d="M53.2329 58.6665V62.4165C53.2329 62.8768 53.5357 63.2498 53.9092 63.2498H58.9813C59.3548 63.2498 59.6576 62.8768 59.6576 62.4165V58.6665" stroke="white" stroke-width="0.8" stroke-linecap="round"/>
</svg>
