<svg width="71" height="67" viewBox="0 0 71 76" fill="none" xmlns="http://www.w3.org/2000/svg">
<path d="M1 18.0211V52.8737L30.1789 70.3M1 18.0211L30.1789 1L39.5 6.3628M1 18.0211L10.3211 23.5878M30.1789 35.4474V58.9526M30.1789 35.4474L54.9 20.8579M30.1789 35.4474L19.6421 29.1545M30.1789 63.0053V70.3M30.1789 70.3L40.5 64M59.7632 46V18.0211L48.8211 11.7256M19.6421 29.1545L48.8211 11.7256M19.6421 29.1545L10.3211 23.5878M19.6421 29.1545V41.1211L10.3211 35.4474V23.5878M48.8211 11.7256L39.5 6.3628M10.3211 23.5878L23.2895 15.5895M26.9368 13.5632L39.5 6.3628M11.5368 46.7947V53.6842M6.26842 43.9579V50.8474" stroke="white" stroke-width="0.8" stroke-linecap="round"/>
<circle cx="55.4947" cy="60.6002" r="15" stroke="white" stroke-width="0.8" stroke-linecap="round"/>
<mask id="path-3-inside-1_1026_6513" fill="white">
<path d="M60.1897 52.5318C60.2985 52.3448 60.5388 52.2808 60.7212 52.397C62.6027 53.5957 64.0186 55.4076 64.7247 57.5322C65.4721 59.7808 65.3729 62.225 64.4457 64.4057C63.5185 66.5864 61.8271 68.3535 59.6891 69.3754C57.5511 70.3972 55.1136 70.6034 52.8344 69.9552C50.5551 69.3071 48.5909 67.8491 47.3106 65.8552C46.0302 63.8612 45.5218 61.4685 45.8808 59.1262C46.2399 56.7839 47.4416 54.6533 49.2604 53.1344C50.9788 51.6994 53.1363 50.9037 55.367 50.8744C55.5833 50.8715 55.7539 51.0524 55.7481 51.2687C55.7422 51.485 55.5621 51.6546 55.3457 51.6582C53.306 51.6922 51.3345 52.4231 49.7626 53.7357C48.0903 55.1323 46.9854 57.0913 46.6552 59.2449C46.3251 61.3985 46.7926 63.5985 47.9698 65.4319C49.147 67.2652 50.953 68.6057 53.0487 69.2017C55.1443 69.7976 57.3855 69.608 59.3512 68.6685C61.317 67.729 62.8722 66.1041 63.7247 64.0991C64.5772 62.0941 64.6685 59.8468 63.9813 57.7793C63.3354 55.8359 62.0435 54.177 60.3268 53.0747C60.1448 52.9579 60.0808 52.7188 60.1897 52.5318Z"/>
</mask>
<path d="M60.1897 52.5318C60.2985 52.3448 60.5388 52.2808 60.7212 52.397C62.6027 53.5957 64.0186 55.4076 64.7247 57.5322C65.4721 59.7808 65.3729 62.225 64.4457 64.4057C63.5185 66.5864 61.8271 68.3535 59.6891 69.3754C57.5511 70.3972 55.1136 70.6034 52.8344 69.9552C50.5551 69.3071 48.5909 67.8491 47.3106 65.8552C46.0302 63.8612 45.5218 61.4685 45.8808 59.1262C46.2399 56.7839 47.4416 54.6533 49.2604 53.1344C50.9788 51.6994 53.1363 50.9037 55.367 50.8744C55.5833 50.8715 55.7539 51.0524 55.7481 51.2687C55.7422 51.485 55.5621 51.6546 55.3457 51.6582C53.306 51.6922 51.3345 52.4231 49.7626 53.7357C48.0903 55.1323 46.9854 57.0913 46.6552 59.2449C46.3251 61.3985 46.7926 63.5985 47.9698 65.4319C49.147 67.2652 50.953 68.6057 53.0487 69.2017C55.1443 69.7976 57.3855 69.608 59.3512 68.6685C61.317 67.729 62.8722 66.1041 63.7247 64.0991C64.5772 62.0941 64.6685 59.8468 63.9813 57.7793C63.3354 55.8359 62.0435 54.177 60.3268 53.0747C60.1448 52.9579 60.0808 52.7188 60.1897 52.5318Z" stroke="white" stroke-width="1.6" stroke-linecap="round" mask="url(#path-3-inside-1_1026_6513)"/>
<path d="M50.6318 61.0053L52.922 63.2954C53.0001 63.3735 53.1267 63.3735 53.2048 63.2954L59.5476 56.9526" stroke="white" stroke-width="0.8" stroke-linecap="round"/>
</svg>
