<svg width="73" height="72" viewBox="0 0 73 72" fill="none" xmlns="http://www.w3.org/2000/svg">
<path d="M49.9498 65.4803H48.4282C48.0968 65.4803 47.8282 65.7489 47.8282 66.0803V71M49.9498 65.4803V60.7923M49.9498 65.4803H69.3479M47.8282 71H71.4C71.7314 71 72 70.7314 72 70.4V66.0803C72 65.7489 71.7314 65.4803 71.4 65.4803H69.3479M47.8282 71H1.6C1.26863 71 1 70.7314 1 70.4V58.8215C1 58.4901 1.26863 58.2215 1.6 58.2215H49.3498C49.6812 58.2215 49.9498 58.4901 49.9498 58.8215V60.7923M49.9498 60.7923H55.0267M69.3479 65.4803V61.3923C69.3479 61.061 69.0793 60.7923 68.7479 60.7923H64.953M64.953 60.7923H55.0267M64.953 60.7923V26.0863M64.953 16.1054H55.6267C55.2953 16.1054 55.0267 16.3741 55.0267 16.7054V20.9446M64.953 16.1054L55.0267 20.9446M64.953 16.1054V26.0863M55.0267 60.7923V20.9446M55.0267 60.7923L63.8685 56.5492C64.3148 56.3351 64.3244 55.7031 63.8849 55.4755L56.0866 51.4361C55.6486 51.2093 55.6563 50.5802 56.0996 50.364L64.953 46.0479M67.3778 9.98083V9.52226C67.3778 9.19089 67.1092 8.92226 66.7778 8.92226H63.968M67.3778 9.98083H71.4C71.7314 9.98083 72 10.2495 72 10.5808V14.5981C72 14.9295 71.7314 15.1981 71.4 15.1981H67.3778M67.3778 9.98083V15.1981M67.3778 15.1981V15.5054C67.3778 15.8368 67.1092 16.1054 66.7778 16.1054H52.8231C52.4917 16.1054 52.2231 15.8368 52.2231 15.5054V15.1981M52.2231 9.98083V9.52226C52.2231 9.19089 52.4917 8.92226 52.8231 8.92226H55.0267M52.2231 9.98083H11.7537C11.4223 9.98083 11.1537 10.2495 11.1537 10.5808V14.5981C11.1537 14.9295 11.4223 15.1981 11.7537 15.1981H15.8517M52.2231 9.98083V15.1981M52.2231 15.1981H21.1558M15.8517 15.1981V21.63C15.8517 21.9614 16.1203 22.23 16.4517 22.23H18.5037M15.8517 15.1981H21.1558M21.1558 15.1981V21.63C21.1558 21.9614 20.8872 22.23 20.5558 22.23H18.5037M18.5037 22.23V28.279M55.0267 20.9446L64.953 26.0863M64.953 26.0863L56.0996 30.4024C55.6563 30.6185 55.6486 31.2476 56.0866 31.4745L64.953 36.0671M64.953 36.1427L56.0996 40.4588C55.6563 40.675 55.6486 41.304 56.0866 41.5309L64.953 46.1235M11.1537 41.4356H6.82839C6.49702 41.4356 6.22839 41.7042 6.22839 42.0356V53.0848C6.22839 53.4161 6.49702 53.6848 6.82839 53.6848H30.1033C30.4347 53.6848 30.7033 53.4161 30.7033 53.0848V42.0356C30.7033 41.7042 30.4347 41.4356 30.1033 41.4356H25.4749M11.1537 41.4356L18.1194 35.8752C18.3429 35.6968 18.6612 35.7009 18.88 35.8851L25.4749 41.4356M11.1537 41.4356H25.4749M55.0267 8.92226L59.0294 1.06698C59.2537 0.626855 59.884 0.631134 60.1023 1.07426L63.968 8.92226M55.0267 8.92226H63.968" stroke="white" stroke-width="0.8" stroke-linecap="round"/>
<path d="M25.8584 58.8041V71M10 45V50.5M14.1062 45V50.5M18.0708 45V50.5M22.177 45V50.5M26 45V50.5" stroke="white" stroke-width="0.8" stroke-linecap="round"/>
<path d="M5 62V68" stroke="white" stroke-width="0.8" stroke-linecap="round"/>
<path d="M9 62V68" stroke="white" stroke-width="0.8" stroke-linecap="round"/>
<path d="M13 62V68" stroke="white" stroke-width="0.8" stroke-linecap="round"/>
<path d="M17 62V68" stroke="white" stroke-width="0.8" stroke-linecap="round"/>
<path d="M21.5 62V68" stroke="white" stroke-width="0.8" stroke-linecap="round"/>
<path d="M30 62V68" stroke="white" stroke-width="0.8" stroke-linecap="round"/>
<path d="M34 62V68" stroke="white" stroke-width="0.8" stroke-linecap="round"/>
<path d="M38 62V68" stroke="white" stroke-width="0.8" stroke-linecap="round"/>
<path d="M42 62V68" stroke="white" stroke-width="0.8" stroke-linecap="round"/>
<path d="M45 62V68" stroke="white" stroke-width="0.8" stroke-linecap="round"/>
<mask id="path-13-inside-1_934_9453" fill="white">
<path d="M15.2295 32.0558C15.0066 32.0494 14.8185 32.2253 14.8362 32.4475C14.8856 33.0693 15.0903 33.6711 15.4342 34.1965C15.8521 34.835 16.4556 35.3301 17.1633 35.6153C17.8711 35.9004 18.6493 35.9619 19.393 35.7914C20.1368 35.621 20.8105 35.2268 21.3235 34.6619C21.8365 34.097 22.1641 33.3885 22.2622 32.6317C22.3604 31.875 22.2244 31.1064 21.8725 30.4293C21.5206 29.7522 20.9697 29.1992 20.2941 28.8446C19.738 28.5528 19.1193 28.407 18.4956 28.4175C18.2727 28.4213 18.1157 28.6254 18.1435 28.8466C18.1713 29.0678 18.3736 29.2217 18.5966 29.2245C19.0557 29.2305 19.509 29.3444 19.9189 29.5595C20.4485 29.8374 20.8803 30.2709 21.1561 30.8016C21.4319 31.3323 21.5385 31.9348 21.4616 32.5279C21.3847 33.121 21.1279 33.6764 20.7258 34.1191C20.3238 34.5619 19.7957 34.8709 19.2127 35.0045C18.6297 35.1381 18.0198 35.0899 17.465 34.8664C16.9102 34.6429 16.4373 34.2548 16.1097 33.7544C15.8562 33.3671 15.6992 32.9268 15.6492 32.4704C15.6249 32.2488 15.4523 32.0622 15.2295 32.0558Z"/>
</mask>
<path d="M15.2295 32.0558C15.0066 32.0494 14.8185 32.2253 14.8362 32.4475C14.8856 33.0693 15.0903 33.6711 15.4342 34.1965C15.8521 34.835 16.4556 35.3301 17.1633 35.6153C17.8711 35.9004 18.6493 35.9619 19.393 35.7914C20.1368 35.621 20.8105 35.2268 21.3235 34.6619C21.8365 34.097 22.1641 33.3885 22.2622 32.6317C22.3604 31.875 22.2244 31.1064 21.8725 30.4293C21.5206 29.7522 20.9697 29.1992 20.2941 28.8446C19.738 28.5528 19.1193 28.407 18.4956 28.4175C18.2727 28.4213 18.1157 28.6254 18.1435 28.8466C18.1713 29.0678 18.3736 29.2217 18.5966 29.2245C19.0557 29.2305 19.509 29.3444 19.9189 29.5595C20.4485 29.8374 20.8803 30.2709 21.1561 30.8016C21.4319 31.3323 21.5385 31.9348 21.4616 32.5279C21.3847 33.121 21.1279 33.6764 20.7258 34.1191C20.3238 34.5619 19.7957 34.8709 19.2127 35.0045C18.6297 35.1381 18.0198 35.0899 17.465 34.8664C16.9102 34.6429 16.4373 34.2548 16.1097 33.7544C15.8562 33.3671 15.6992 32.9268 15.6492 32.4704C15.6249 32.2488 15.4523 32.0622 15.2295 32.0558Z" stroke="white" stroke-width="1.6" stroke-linecap="round" mask="url(#path-13-inside-1_934_9453)"/>
</svg>
