<svg width="72" height="69" viewBox="0 0 72 69" fill="none" xmlns="http://www.w3.org/2000/svg">
<path d="M26.2174 0.923526L26.2174 0.923529L26.2179 0.918791C26.2346 0.751631 26.3345 0.622356 26.5398 0.525146C26.7542 0.423699 27.0393 0.38451 27.2897 0.405425C27.3004 0.406318 27.3111 0.406781 27.3218 0.406811C29.7286 0.413644 32.1323 0.41169 34.5351 0.409737C37.737 0.407134 40.9375 0.404532 44.1416 0.422724C44.1541 0.422795 44.1665 0.42228 44.179 0.421182C44.5958 0.384403 44.9639 0.753982 44.9442 1.1254C44.9438 1.13329 44.9436 1.14119 44.9437 1.14909C44.9456 1.44977 44.9577 1.74129 44.9696 2.02831C44.9903 2.52613 45.0103 3.01044 44.976 3.50562C44.9238 4.25641 44.746 4.92453 44.28 5.4757C44.275 5.48165 44.2702 5.48774 44.2655 5.49397C43.7947 6.1219 43.0187 6.44846 42.1589 6.72526C42.0518 6.75973 41.9642 6.83769 41.9175 6.94003C41.8708 7.04238 41.8694 7.15965 41.9136 7.26309C42.1089 7.72046 42.3006 8.18884 42.4937 8.66039C42.7892 9.38218 43.0877 10.1114 43.4066 10.8198C43.472 10.9651 43.6173 11.0577 43.7766 11.0556C45.9453 11.0271 48.1095 11.0303 50.2769 11.0335C51.7503 11.0357 53.2252 11.0379 54.7039 11.0301C54.7118 11.0301 54.7198 11.0298 54.7277 11.0293C55.0234 11.0101 55.3384 11.0531 55.5774 11.1651C55.8022 11.2704 55.9358 11.421 55.9731 11.6357C56.0367 12.2456 56.027 12.8493 56.0169 13.4787C56.0131 13.7166 56.0092 13.9582 56.0092 14.2052C56.0092 14.4243 56.1855 14.6026 56.4045 14.6052C57.0837 14.6132 57.7651 14.6167 58.4457 14.6195C58.4427 15.1343 58.4421 15.649 58.4419 16.1642C57.7635 16.1643 57.0833 16.1647 56.4077 16.1674C56.2089 16.1682 56.0408 16.3148 56.0131 16.5117C55.9683 16.8308 55.9815 17.1697 56.0013 17.4833C56.0063 17.5616 56.0116 17.6381 56.0168 17.7131C56.0335 17.952 56.0491 18.1766 56.0484 18.3985C56.0466 18.9491 55.9422 19.3389 55.5896 19.6005C54.7315 19.8386 53.8513 20.0096 52.9541 20.1736C52.8135 20.1993 52.6724 20.2248 52.5309 20.2504C51.7518 20.3914 50.9607 20.5346 50.1803 20.7176C49.9995 20.76 49.8716 20.9213 49.8716 21.107C49.8716 21.8327 49.8716 22.5591 49.8736 23.2875C49.6029 23.2867 49.3325 23.2862 49.0624 23.2857H49.061L49.0595 23.2857C48.7875 23.2851 48.5158 23.2846 48.2439 23.2838C48.2408 22.4291 48.2415 21.5746 48.2422 20.7194V20.7178C48.2431 19.7313 48.2439 18.7437 48.2389 17.756C48.2378 17.5359 48.0591 17.358 47.839 17.358C45.1162 17.358 42.3934 17.3576 39.6707 17.3573C34.2256 17.3566 28.7808 17.3559 23.3376 17.358C23.1186 17.3581 22.9404 17.5343 22.9378 17.7533C22.9232 19.0019 22.9244 20.2548 22.9256 21.5053C22.9262 22.0995 22.9268 22.6933 22.9256 23.2857H22.9238H22.919H22.9142H22.9094H22.9045H22.8997H22.8949H22.89H22.8852H22.8804H22.8756H22.8707H22.8659H22.8611H22.8562H22.8514H22.8466H22.8418H22.8369H22.8321H22.8273H22.8224H22.8176H22.8128H22.808H22.8031H22.7983H22.7935H22.7886H22.7838H22.779H22.7742H22.7693H22.7645H22.7597H22.7548H22.75H22.7452H22.7404H22.7355H22.7307H22.7259H22.721H22.7162H22.7114H22.7066H22.7017H22.6969H22.6921H22.6872H22.6824H22.6776H22.6728H22.6679H22.6631H22.6583H22.6534H22.6486H22.6438H22.639H22.6341H22.6293H22.6245H22.6196H22.6148H22.61H22.6052H22.6003H22.5955H22.5907H22.5858H22.581H22.5762H22.5714H22.5665H22.5617H22.5569H22.552H22.5472H22.5424H22.5376H22.5327H22.5279H22.5231H22.5182H22.5134H22.5086H22.5038H22.4989H22.4941H22.4893H22.4844H22.4796H22.4748H22.47H22.4651H22.4603H22.4555H22.4506H22.4458H22.441H22.4362H22.4313H22.4265H22.4217H22.4168H22.412H22.4072H22.4024H22.3975H22.3927H22.3879H22.383H22.3782H22.3734H22.3686H22.3637H22.3589H22.3541H22.3492H22.3444H22.3396H22.3348H22.3299H22.3251H22.3203H22.3154H22.3106H22.3058H22.301H22.2961H22.2913H22.2865H22.2816H22.2768H22.272H22.2672H22.2623H22.2575H22.2527H22.2478H22.243H22.2382H22.2334H22.2285H22.2237H22.2189H22.214H22.2092H22.2044H22.1996H22.1947H22.1899H22.1851H22.1802H22.1754H22.1706H22.1658H22.1609H22.1561H22.1513H22.1464H22.1416H22.1368H22.132H22.1271H22.1223H22.1175H22.1126H22.1078H22.103H22.0982H22.0933H22.0885H22.0837H22.0788H22.074H22.0692H22.0644H22.0595H22.0547H22.0499H22.045H22.0402H22.0354H22.0306H22.0257H22.0209H22.0161H22.0112H22.0064H22.0016H21.9968H21.9919H21.9871H21.9823H21.9774H21.9726H21.9678H21.963H21.9581H21.9533H21.9485H21.9436H21.9388H21.934H21.9292H21.9243H21.9195H21.9147H21.9098H21.905H21.9002H21.8954H21.8905H21.8857H21.8809H21.876H21.8712H21.8664H21.8616H21.8567H21.8519H21.8471H21.8422H21.8374H21.8326H21.8278H21.8229H21.8181H21.8133H21.8084H21.8036H21.7988H21.794H21.7891H21.7843H21.7795H21.7746H21.7698H21.765H21.7602H21.7553H21.7505H21.7457H21.7409H21.736H21.7312H21.7264H21.7215H21.7167H21.7119H21.7071H21.7022H21.6974H21.6926H21.6877H21.6829H21.6781H21.6733H21.6684H21.6636H21.6588H21.6539H21.6491H21.6443H21.6395H21.6346H21.6298H21.625H21.6201H21.6153H21.6105H21.6057H21.6008H21.596H21.5912H21.5863H21.5815H21.5767H21.5719H21.567H21.5622H21.5574H21.5525H21.5477H21.5429H21.5381H21.5332H21.5284H21.5236H21.5187H21.5139H21.5091H21.5043H21.4994H21.4946H21.4898H21.4849H21.4801H21.4753H21.4705H21.4656H21.4608H21.456H21.4511H21.4463H21.4415H21.4367H21.4318H21.427H21.4222H21.4173H21.4125H21.4077H21.4029H21.398H21.3932H21.3884H21.3835H21.3787H21.3739H21.3691H21.3642H21.3594H21.3546H21.3497H21.3449H21.3401H21.3353H21.3304H21.3256H21.3208H21.3159H21.3111H21.3063H21.3015H21.2966H21.2918H21.287H21.2821H21.2773H21.2725H21.2677H21.2628H21.258H21.2532H21.2526C21.2529 22.9893 21.2535 22.6925 21.254 22.3955C21.2549 21.965 21.2557 21.5341 21.2557 21.1039C21.2557 20.9189 21.1288 20.758 20.9489 20.7149C20.1212 20.5164 19.2831 20.3636 18.4582 20.2131C18.3568 20.1946 18.2557 20.1762 18.1548 20.1577C17.2549 19.9927 16.3713 19.8238 15.5075 19.5929C15.1765 19.3154 15.0784 18.9218 15.0777 18.3854C15.0774 18.1601 15.0939 17.9316 15.1115 17.6885C15.1162 17.6227 15.1211 17.5558 15.1257 17.4876C15.1465 17.1798 15.162 16.8481 15.1252 16.5336C15.102 16.335 14.9357 16.1841 14.7358 16.1802C14.0538 16.1668 13.3715 16.1646 12.6931 16.1624C12.6904 16.1624 12.6878 16.1624 12.6851 16.1624C12.6845 15.6477 12.6826 15.1322 12.6805 14.6179H12.6843H12.6891H12.6938H12.6986H12.7034H12.7081H12.7129H12.7177H12.7225H12.7272H12.732H12.7368H12.7415H12.7463H12.7511H12.7558H12.7606H12.7654H12.7702H12.7749H12.7797H12.7845H12.7892H12.794H12.7988H12.8035H12.8083H12.8131H12.8178H12.8226H12.8274H12.8322H12.8369H12.8417H12.8465H12.8512H12.856H12.8608H12.8655H12.8703H12.8751H12.8799H12.8846H12.8894H12.8942H12.8989H12.9037H12.9085H12.9132H12.918H12.9228H12.9275H12.9323H12.9371H12.9419H12.9466H12.9514H12.9562H12.9609H12.9657H12.9705H12.9752H12.98H12.9848H12.9895H12.9943H12.9991H13.0038H13.0086H13.0134H13.0182H13.0229H13.0277H13.0325H13.0372H13.042H13.0468H13.0515H13.0563H13.0611H13.0658H13.0706H13.0754H13.0801H13.0849H13.0897H13.0945H13.0992H13.104H13.1088H13.1135H13.1183H13.1231H13.1278H13.1326H13.1374H13.1421H13.1469H13.1517H13.1564H13.1612H13.166H13.1707H13.1755H13.1803H13.185H13.1898H13.1946H13.1994H13.2041H13.2089H13.2137H13.2184H13.2232H13.228H13.2327H13.2375H13.2423H13.247H13.2518H13.2566H13.2613H13.2661H13.2709H13.2756H13.2804H13.2852H13.2899H13.2947H13.2995H13.3042H13.309H13.3138H13.3185H13.3233H13.3281H13.3328H13.3376H13.3424H13.3471H13.3519H13.3567H13.3614H13.3662H13.371H13.3757H13.3805H13.3853H13.39H13.3948H13.3996H13.4043H13.4091H13.4139H13.4186H13.4234H13.4282H13.4329H13.4377H13.4425H13.4472H13.452H13.4568H13.4615H13.4663H13.4711H13.4758H13.4806H13.4854H13.4901H13.4949H13.4997H13.5044H13.5092H13.514H13.5187H13.5235H13.5283H13.533H13.5378H13.5426H13.5473H13.5521H13.5568H13.5616H13.5664H13.5711H13.5759H13.5807H13.5854H13.5902H13.595H13.5997H13.6045H13.6093H13.614H13.6188H13.6236H13.6283H13.6331H13.6379H13.6426H13.6474H13.6521H13.6569H13.6617H13.6664H13.6712H13.676H13.6807H13.6855H13.6903H13.695H13.6998H13.7046H13.7093H13.7141H13.7188H13.7236H13.7284H13.7331H13.7379H13.7427H13.7474H13.7522H13.757H13.7617H13.7665H13.7712H13.776H13.7808H13.7855H13.7903H13.7951H13.7998H13.8046H13.8094H13.8141H13.8189H13.8236H13.8284H13.8332H13.8379H13.8427H13.8475H13.8522H13.857H13.8617H13.8665H13.8713H13.876H13.8808H13.8856H13.8903H13.8951H13.8998H13.9046H13.9094H13.9141H13.9189H13.9236H13.9284H13.9332H13.9379H13.9427H13.9475H13.9522H13.957H13.9617H13.9665H13.9713H13.976H13.9808H13.9855H13.9903H13.9951H13.9998H14.0046H14.0094H14.0141H14.0189H14.0236H14.0284H14.0332H14.0379H14.0427H14.0474H14.0522H14.057H14.0617H14.0665H14.0712H14.076H14.0808H14.0855H14.0903H14.095H14.0998H14.1046H14.1093H14.1141H14.1188H14.1236H14.1284H14.1331H14.1379H14.1426H14.1474H14.1522H14.1569H14.1617H14.1664H14.1712H14.1759H14.1807H14.1855H14.1902H14.195H14.1997H14.2045H14.2093H14.214H14.2188H14.2235H14.2283H14.2331H14.2378H14.2426H14.2473H14.2521H14.2568H14.2616H14.2664H14.2711H14.2759H14.2806H14.2854H14.2901H14.2949H14.2997H14.3044H14.3092H14.3139H14.3187H14.3234H14.3282H14.333H14.3377H14.3425H14.3472H14.352H14.3567H14.3615H14.3663H14.371H14.3758H14.3805H14.3853H14.39H14.3948H14.3995H14.4043H14.4091H14.4138H14.4186H14.4233H14.4281H14.4328H14.4376H14.4424H14.4471H14.4519H14.4566H14.4614H14.4661H14.4709H14.4756H14.4804H14.4851H14.4899H14.4947H14.4994H14.5042H14.5089H14.5137H14.5184H14.5232H14.5279H14.5327H14.5374H14.5422H14.547H14.5517H14.5565H14.5612H14.566H14.5707H14.5755H14.5802H14.585H14.5897H14.5945H14.5992H14.604H14.6087H14.6135H14.6183H14.623H14.6278H14.6325H14.6373H14.642H14.6468H14.6515H14.6563H14.661H14.6658H14.6705H14.6753H14.68H14.6848H14.6895H14.6943H14.699H14.7038H14.7085H14.7133H14.718C14.938 14.6179 15.1167 14.4403 15.118 14.2203C15.1195 13.9772 15.1133 13.7319 15.1073 13.4934C15.1062 13.4503 15.1052 13.4073 15.1041 13.3647C15.0973 13.083 15.0927 12.81 15.1014 12.5412C15.1165 12.0705 15.1725 11.6291 15.3206 11.2137C15.8716 11.0727 16.4439 11.0291 17.0411 11.0218C17.3539 11.0179 17.6682 11.024 17.9896 11.0302C18.0096 11.0305 18.0297 11.0309 18.0498 11.0313C18.3889 11.0378 18.7354 11.0437 19.0815 11.0365C20.1294 11.0281 21.1842 11.032 22.2418 11.0359C23.9748 11.0424 25.7155 11.0488 27.446 11.0013C27.6094 10.9969 27.7536 10.8934 27.8103 10.7401C28.197 9.69314 28.6311 8.66362 29.0696 7.62393C29.1201 7.50424 29.1706 7.38441 29.2211 7.2644C29.2665 7.1565 29.2624 7.03412 29.2098 6.92952C29.1572 6.82492 29.0615 6.74861 28.9478 6.72072C27.6143 6.39355 26.4511 5.45822 26.2422 4.20918C26.1084 3.12063 26.0961 2.00881 26.2174 0.923526ZM28.2099 1.95623C28.0935 1.95616 27.9829 2.00679 27.9068 2.09491C27.8308 2.18303 27.7969 2.29991 27.814 2.41504C27.8333 2.54449 27.8345 2.69189 27.8296 2.86879C27.8285 2.90766 27.8271 2.94871 27.8257 2.99126C27.8209 3.12998 27.8156 3.28476 27.8197 3.43259C27.8305 3.822 27.9064 4.28834 28.2977 4.6534C28.6007 4.9989 28.997 5.09949 29.3385 5.13066C29.5111 5.14641 29.685 5.14573 29.8367 5.14479L29.8522 5.1447C30.0043 5.14375 30.1329 5.14295 30.252 5.15221C30.2638 5.15312 30.2756 5.15351 30.2873 5.15338C31.9394 5.13561 33.6045 5.14091 35.2729 5.14623C37.4616 5.1532 39.6562 5.1602 41.8348 5.11512C41.8447 5.11492 41.8546 5.11435 41.8644 5.11341C42.2459 5.07717 42.5561 4.9378 42.7928 4.7124C43.024 4.49209 43.1598 4.2138 43.2408 3.93773C43.3961 3.40899 43.3753 2.79277 43.361 2.36685L43.3602 2.34597C43.353 2.13051 43.1763 1.95956 42.9607 1.95942C40.5018 1.95783 38.0436 1.95783 35.5856 1.95783H35.5851C33.1269 1.95783 30.6688 1.95783 28.2099 1.95623ZM31.5031 6.69009C31.3436 6.68991 31.1992 6.78451 31.1357 6.93084C30.9234 7.42004 30.7226 7.90281 30.523 8.38245C30.2387 9.06597 29.957 9.74314 29.6484 10.4235C29.5931 10.5456 29.6025 10.6872 29.6736 10.8008C29.7446 10.9144 29.8678 10.9849 30.0017 10.9886C32.5194 11.058 35.0417 11.0464 37.5566 11.0348C38.7421 11.0294 39.926 11.0239 41.1069 11.027C41.2414 11.0273 41.367 10.9601 41.4413 10.848C41.5156 10.736 41.5287 10.5941 41.4761 10.4704C41.2719 9.99032 41.0696 9.5027 40.8666 9.01329C40.5778 8.31699 40.2876 7.61708 39.988 6.93019C39.9243 6.78406 39.7798 6.68972 39.6204 6.6901C36.915 6.69646 34.2095 6.69328 31.5031 6.69009ZM17.1841 12.6178C17.0776 12.6177 16.9755 12.66 16.9004 12.7353C16.8252 12.8107 16.7832 12.9129 16.7837 13.0194C16.7859 13.59 16.7854 14.1633 16.7849 14.738C16.784 15.8094 16.783 16.8857 16.8002 17.9586C16.8032 18.1462 16.9361 18.3064 17.1199 18.3441C18.3368 18.5932 19.5596 18.823 20.7795 19.049C20.8943 19.0703 21.0127 19.0404 21.1035 18.9671C21.1944 18.8938 21.2487 18.7844 21.2522 18.6677C21.2602 18.4003 21.2533 18.1088 21.2467 17.8309C21.2425 17.6539 21.2384 17.4824 21.2384 17.3262C21.2384 16.9116 21.2634 16.5272 21.361 16.1639C21.4531 16.0056 21.607 15.9015 21.8313 15.8366C22.0777 15.7653 22.3737 15.7531 22.6708 15.7637L22.6707 15.764L22.6838 15.764C26.5697 15.7766 30.4529 15.7732 34.3352 15.7697C39.2533 15.7654 44.17 15.761 49.0895 15.7893C49.4049 15.8294 49.5688 15.9437 49.6684 16.0719C49.781 16.2169 49.851 16.4308 49.8816 16.7256C49.912 17.0192 49.8993 17.3464 49.8827 17.6938C49.8817 17.7149 49.8807 17.736 49.8797 17.7573C49.8644 18.0713 49.848 18.4098 49.8768 18.7014C49.8878 18.8129 49.945 18.9146 50.0346 18.9819C50.1241 19.0491 50.2377 19.0758 50.3478 19.0554C51.5678 18.8293 52.79 18.5996 54.0095 18.3539C54.1947 18.3165 54.3285 18.1547 54.3304 17.9657C54.3469 16.3168 54.3436 14.6685 54.3337 13.0249C54.3324 12.8051 54.154 12.6275 53.9342 12.6273C47.8094 12.621 41.6839 12.6217 35.5587 12.6225H35.5561C29.4316 12.6233 23.3074 12.6241 17.1841 12.6178Z" fill="white" stroke="#1B1B1F" stroke-width="0.8" stroke-linejoin="round"/>
<path d="M26.1367 22.0918C26.1366 21.5633 26.1363 21.0356 26.1348 20.508C26.4058 20.5082 26.6769 20.5085 26.9482 20.5087C28.0389 20.5098 29.1309 20.5109 30.2213 20.5042C30.2502 21.0366 30.2511 21.5693 30.2202 22.1013C29.4555 22.0947 28.6846 22.0947 27.9157 22.0948C27.3202 22.0948 26.7259 22.0948 26.1367 22.0918Z" fill="white" stroke="#1B1B1F" stroke-width="0.8" stroke-linejoin="round"/>
<path d="M33.533 21.3019C33.5335 21.037 33.5341 20.7717 33.5344 20.5063C34.8994 20.5022 36.2648 20.5043 37.6332 20.5069C37.6339 21.0308 37.6361 21.5559 37.6398 22.0811C36.6866 22.0978 35.7347 22.0953 34.7778 22.0928C34.3635 22.0918 33.9483 22.0907 33.5316 22.0911C33.5319 21.8288 33.5324 21.566 33.533 21.3029L33.533 21.3019Z" fill="white" stroke="#1B1B1F" stroke-width="0.8" stroke-linejoin="round"/>
<path d="M40.8665 21.2978C40.8659 21.034 40.8654 20.7704 40.8651 20.5072C40.9363 20.507 41.0076 20.5068 41.0788 20.5067C42.3773 20.5038 43.6736 20.501 44.9697 20.5109V20.5138V20.5184V20.5231V20.5277V20.5324V20.537V20.5417V20.5463V20.551V20.5556V20.5602V20.5649V20.5695V20.5742V20.5788V20.5835V20.5881V20.5928V20.5974V20.602V20.6067V20.6113V20.616V20.6206V20.6253V20.6299V20.6346V20.6392V20.6438V20.6485V20.6531V20.6578V20.6624V20.6671V20.6717V20.6764V20.681V20.6856V20.6903V20.6949V20.6996V20.7042V20.7089V20.7135V20.7182V20.7228V20.7274V20.7321V20.7367V20.7414V20.746V20.7507V20.7553V20.76V20.7646V20.7692V20.7739V20.7785V20.7832V20.7878V20.7925V20.7971V20.8018V20.8064V20.8111V20.8157V20.8203V20.825V20.8296V20.8343V20.8389V20.8436V20.8482V20.8529V20.8575V20.8621V20.8668V20.8714V20.8761V20.8807V20.8854V20.89V20.8947V20.8993V20.9039V20.9086V20.9132V20.9179V20.9225V20.9272V20.9318V20.9365V20.9411V20.9457V20.9504V20.955V20.9597V20.9643V20.969V20.9736V20.9783V20.9829V20.9875V20.9922V20.9968V21.0015V21.0061V21.0108V21.0154V21.0201V21.0247V21.0294V21.034V21.0386V21.0433V21.0479V21.0526V21.0572V21.0619V21.0665V21.0712V21.0758V21.0804V21.0851V21.0897V21.0944V21.099V21.1037V21.1083V21.113V21.1176V21.1222V21.1269V21.1315V21.1362V21.1408V21.1455V21.1501V21.1548V21.1594V21.164V21.1687V21.1733V21.178V21.1826V21.1873V21.1919V21.1966V21.2012V21.2058V21.2105V21.2151V21.2198V21.2244V21.2291V21.2337V21.2384V21.243V21.2477V21.2523V21.2569V21.2616V21.2662V21.2709V21.2755V21.2802V21.2848V21.2895V21.2941V21.2987V21.3034V21.308V21.3127V21.3173V21.322V21.3266V21.3313V21.3359V21.3405V21.3452V21.3498V21.3545V21.3591V21.3638V21.3684V21.3731V21.3777V21.3823V21.387V21.3916V21.3963V21.4009V21.4056V21.4102V21.4149V21.4195V21.4241V21.4288V21.4334V21.4381V21.4427V21.4474V21.452V21.4567V21.4613V21.466V21.4706V21.4752V21.4799V21.4845V21.4892V21.4938V21.4985V21.5031V21.5078V21.5124V21.517V21.5217V21.5263V21.531V21.5356V21.5403V21.5449V21.5496V21.5542V21.5588V21.5635V21.5681V21.5728V21.5774V21.5821V21.5867V21.5914V21.596V21.6006V21.6053V21.6099V21.6146V21.6192V21.6239V21.6285V21.6332V21.6378V21.6424V21.6471V21.6517V21.6564V21.661V21.6657V21.6703V21.675V21.6796V21.6843V21.6889V21.6935V21.6982V21.7028V21.7075V21.7121V21.7168V21.7214V21.7261V21.7307V21.7353V21.74V21.7446V21.7493V21.7539V21.7586V21.7632V21.7679V21.7725V21.7771V21.7818V21.7864V21.7911V21.7957V21.8004V21.805V21.8097V21.8143V21.8189V21.8236V21.8282V21.8329V21.8375V21.8422V21.8468V21.8515V21.8561V21.8607V21.8654V21.87V21.8747V21.8793V21.884V21.8886V21.8933V21.8979V21.9026V21.9072V21.9118V21.9165V21.9211V21.9258V21.9304V21.9351V21.9397V21.9444V21.949V21.9536V21.9583V21.9629V21.9676V21.9722V21.9769V21.9815V21.9862V21.9908V21.9954V22.0001V22.0047V22.0094V22.014V22.0187V22.0233V22.028V22.0326V22.0372V22.0419V22.0465V22.0512V22.0558V22.0605V22.0651V22.0698V22.0744V22.079V22.0837V22.0883V22.0925C44.694 22.0926 44.4184 22.0927 44.1429 22.0928C43.0507 22.0934 41.96 22.0939 40.8679 22.0906C40.8676 21.8264 40.867 21.5621 40.8665 21.2979L40.8665 21.2978Z" fill="white" stroke="#1B1B1F" stroke-width="0.8" stroke-linejoin="round"/>
<path d="M12.7014 27.2109C12.7016 27.1928 12.7006 27.1746 12.6984 27.1567C12.6715 26.9414 12.7655 26.7635 12.9678 26.6248C13.1807 26.4787 13.4819 26.4057 13.7506 26.4354C13.7653 26.437 13.78 26.4378 13.7947 26.4378C28.3082 26.4347 42.8249 26.4315 57.3415 26.4378C57.3574 26.4378 57.3733 26.4369 57.3892 26.435C57.6524 26.4035 57.9444 26.4771 58.1532 26.6242C58.3533 26.7652 58.4499 26.9488 58.4272 27.1642C58.4255 27.1797 58.4248 27.1953 58.425 27.2109C58.4519 29.5075 58.4474 31.7988 58.4429 34.0931C58.4397 35.7346 58.4365 37.3777 58.4448 39.0253C58.4458 39.2409 58.6175 39.4168 58.8329 39.4232C58.9701 39.4272 59.1065 39.4273 59.241 39.4274C59.584 39.4277 59.9155 39.428 60.2216 39.4936C60.4218 39.5365 60.5682 39.6013 60.6688 39.686C60.7569 39.7603 60.8303 39.8664 60.8653 40.0428C60.9384 42.5491 60.9262 45.0503 60.914 47.5599C60.9072 48.9359 60.9005 50.3145 60.9078 51.6979H60.9061H60.9013H60.8965H60.8917H60.8869H60.8821H60.8773H60.8724H60.8676H60.8628H60.858H60.8532H60.8484H60.8436H60.8387H60.8339H60.8291H60.8243H60.8195H60.8147H60.8098H60.805H60.8002H60.7954H60.7906H60.7858H60.7809H60.7761H60.7713H60.7665H60.7617H60.7569H60.7521H60.7472H60.7424H60.7376H60.7328H60.728H60.7232H60.7183H60.7135H60.7087H60.7039H60.6991H60.6943H60.6894H60.6846H60.6798H60.675H60.6702H60.6654H60.6605H60.6557H60.6509H60.6461H60.6413H60.6365H60.6316H60.6268H60.622H60.6172H60.6124H60.6076H60.6027H60.5979H60.5931H60.5883H60.5835H60.5787H60.5738H60.569H60.5642H60.5594H60.5546H60.5498H60.5449H60.5401H60.5353H60.5305H60.5257H60.5208H60.516H60.5112H60.5064H60.5016H60.4968H60.4919H60.4871H60.4823H60.4775H60.4727H60.4678H60.463H60.4582H60.4534H60.4486H60.4438H60.4389H60.4341H60.4293H60.4245H60.4197H60.4149H60.41H60.4052H60.4004H60.3956H60.3908H60.3859H60.3811H60.3763H60.3715H60.3667H60.3619H60.357H60.3522H60.3474H60.3426H60.3378H60.3329H60.3281H60.3233H60.3185H60.3137H60.3088H60.304H60.2992H60.2944H60.2896H60.2848H60.2799H60.2751H60.2703H60.2655H60.2607H60.2558H60.251H60.2462H60.2414H60.2366H60.2318H60.2269H60.2221H60.2173H60.2125H60.2077H60.2028H60.198H60.1932H60.1884H60.1836H60.1787H60.1739H60.1691H60.1643H60.1595H60.1547H60.1498H60.145H60.1402H60.1354H60.1306H60.1257H60.1209H60.1161H60.1113H60.1065H60.1016H60.0968H60.092H60.0872H60.0824H60.0775H60.0727H60.0679H60.0631H60.0583H60.0535H60.0486H60.0438H60.039H60.0342H60.0294H60.0245H60.0197H60.0149H60.0101H60.0053H60.0004H59.9956H59.9908H59.986H59.9812H59.9764H59.9715H59.9667H59.9619H59.9571H59.9523H59.9474H59.9426H59.9378H59.933H59.9282H59.9233H59.9185H59.9137H59.9089H59.9041H59.8993H59.8944H59.8896H59.8848H59.88H59.8752H59.8703H59.8655H59.8607H59.8559H59.8511H59.8462H59.8414H59.8366H59.8318H59.827H59.8222H59.8173H59.8125H59.8077H59.8029H59.7981H59.7932H59.7884H59.7836H59.7788H59.774H59.7692H59.7643H59.7595H59.7547H59.7499H59.7451H59.7402H59.7354H59.7306H59.7258H59.721H59.7162H59.7113H59.7065H59.7017H59.6969H59.6921H59.6872H59.6824H59.6776H59.6728H59.668H59.6632H59.6583H59.6535H59.6487H59.6439H59.6391H59.6343H59.6294H59.6246H59.6198H59.615H59.6102H59.6053H59.6005H59.5957H59.5909H59.5861H59.5813H59.5764H59.5716H59.5668H59.562H59.5572H59.5524H59.5475H59.5427H59.5379H59.5331H59.5283H59.5235H59.5186H59.5138H59.509H59.5042H59.4994H59.4946H59.4897H59.4849H59.4801H59.4753H59.4705H59.4657H59.4608H59.456H59.4512H59.4464H59.4416H59.4368H59.4319H59.4271H59.4223H59.4175H59.4127H59.4079H59.403H59.3982H59.3934H59.3886H59.3838H59.379H59.3741H59.3693H59.3645H59.3597H59.3549H59.3501H59.3453H59.3404H59.3356H59.3308H59.326H59.3212H59.3164H59.3115H59.3067H59.3019H59.2971H59.2923H59.2875H59.2827H59.2778H59.273H59.2682H59.2634H59.2586H59.2538H59.249H59.2441H59.2441C59.2418 50.2172 59.2422 48.7344 59.2426 47.2512C59.2431 45.3099 59.2435 43.368 59.2382 41.4289C59.2375 41.2083 59.0583 41.0298 58.8376 41.0301C53.59 41.0369 48.3426 41.0356 43.0948 41.0343C40.9952 41.0338 38.8957 41.0332 36.796 41.0332C36.6897 41.0332 36.5878 41.0755 36.5128 41.1508C36.4377 41.226 36.3957 41.3281 36.396 41.4343C36.399 42.5041 36.3986 43.5777 36.3982 44.6521C36.3977 45.808 36.3973 46.9647 36.4011 48.1184C36.123 48.1176 35.845 48.1171 35.5673 48.1165L35.5657 48.1165C35.2866 48.116 35.0077 48.1154 34.729 48.1146C34.7262 47.203 34.7269 46.2879 34.7276 45.3721C34.7286 44.059 34.7296 42.7444 34.7205 41.4368C34.719 41.2173 34.5408 41.04 34.3212 41.0396C30.6491 41.0332 26.9771 41.034 23.3056 41.0348H23.3043C19.6322 41.0356 15.9605 41.0364 12.2889 41.0301C12.0683 41.0297 11.8891 41.208 11.8883 41.4286C11.8807 43.4605 11.8818 45.4948 11.8829 47.5281C11.8836 48.9189 11.8843 50.3092 11.8823 51.6979H11.8811H11.8763H11.8715H11.8667H11.8618H11.857H11.8522H11.8474H11.8425H11.8377H11.8329H11.8281H11.8232H11.8184H11.8136H11.8088H11.804H11.7991H11.7943H11.7895H11.7847H11.7798H11.775H11.7702H11.7654H11.7606H11.7557H11.7509H11.7461H11.7413H11.7364H11.7316H11.7268H11.722H11.7172H11.7123H11.7075H11.7027H11.6979H11.693H11.6882H11.6834H11.6786H11.6738H11.6689H11.6641H11.6593H11.6545H11.6497H11.6448H11.64H11.6352H11.6304H11.6256H11.6207H11.6159H11.6111H11.6063H11.6014H11.5966H11.5918H11.587H11.5822H11.5773H11.5725H11.5677H11.5629H11.5581H11.5532H11.5484H11.5436H11.5388H11.534H11.5291H11.5243H11.5195H11.5147H11.5099H11.505H11.5002H11.4954H11.4906H11.4858H11.4809H11.4761H11.4713H11.4665H11.4617H11.4568H11.452H11.4472H11.4424H11.4376H11.4327H11.4279H11.4231H11.4183H11.4135H11.4086H11.4038H11.399H11.3942H11.3894H11.3845H11.3797H11.3749H11.3701H11.3653H11.3604H11.3556H11.3508H11.346H11.3412H11.3363H11.3315H11.3267H11.3219H11.3171H11.3122H11.3074H11.3026H11.2978H11.293H11.2882H11.2833H11.2785H11.2737H11.2689H11.2641H11.2592H11.2544H11.2496H11.2448H11.24H11.2351H11.2303H11.2255H11.2207H11.2159H11.211H11.2062H11.2014H11.1966H11.1918H11.187H11.1821H11.1773H11.1725H11.1677H11.1629H11.158H11.1532H11.1484H11.1436H11.1388H11.1339H11.1291H11.1243H11.1195H11.1147H11.1098H11.105H11.1002H11.0954H11.0906H11.0858H11.0809H11.0761H11.0713H11.0665H11.0617H11.0568H11.052H11.0472H11.0424H11.0376H11.0327H11.0279H11.0231H11.0183H11.0135H11.0087H11.0038H10.999H10.9942H10.9894H10.9846H10.9797H10.9749H10.9701H10.9653H10.9605H10.9556H10.9508H10.946H10.9412H10.9364H10.9315H10.9267H10.9219H10.9171H10.9123H10.9075H10.9026H10.8978H10.893H10.8882H10.8834H10.8785H10.8737H10.8689H10.8641H10.8593H10.8544H10.8496H10.8448H10.84H10.8352H10.8303H10.8255H10.8207H10.8159H10.8111H10.8063H10.8014H10.7966H10.7918H10.787H10.7822H10.7773H10.7725H10.7677H10.7629H10.7581H10.7532H10.7484H10.7436H10.7388H10.734H10.7291H10.7243H10.7195H10.7147H10.7099H10.705H10.7002H10.6954H10.6906H10.6858H10.6809H10.6761H10.6713H10.6665H10.6617H10.6568H10.652H10.6472H10.6424H10.6376H10.6327H10.6279H10.6231H10.6183H10.6135H10.6086H10.6038H10.599H10.5942H10.5894H10.5845H10.5797H10.5749H10.5701H10.5653H10.5604H10.5556H10.5508H10.546H10.5412H10.5363H10.5315H10.5267H10.5219H10.5171H10.5122H10.5074H10.5026H10.4978H10.493H10.4881H10.4833H10.4785H10.4737H10.4689H10.464H10.4592H10.4544H10.4496H10.4447H10.4399H10.4351H10.4303H10.4255H10.4206H10.4158H10.411H10.4062H10.4014H10.3965H10.3917H10.3869H10.3821H10.3772H10.3724H10.3676H10.3628H10.358H10.3531H10.3483H10.3435H10.3387H10.3339H10.329H10.3242H10.3194H10.3146H10.3097H10.3049H10.3001H10.2953H10.2905H10.2856H10.2808H10.276H10.2712H10.2663H10.2615H10.2567H10.2519H10.247H10.2422H10.2374H10.2326H10.2278H10.2229H10.2181H10.2133H10.2118C10.2087 50.2362 10.2098 48.7718 10.2109 47.3069C10.2125 45.1742 10.2142 43.0405 10.2029 40.9122H10.2029L10.2028 40.9056C10.1962 40.6043 10.1995 40.3212 10.26 40.0757C10.3146 39.8544 10.4093 39.689 10.5701 39.5739C10.7947 39.4899 11.0454 39.4592 11.3353 39.4481C11.4335 39.4443 11.5456 39.443 11.6639 39.4416C11.877 39.4391 12.1099 39.4364 12.3159 39.4187C12.522 39.401 12.6806 39.229 12.6817 39.0221C12.6899 37.3745 12.6867 35.732 12.6835 34.0911C12.679 31.7977 12.6745 29.5075 12.7014 27.2109ZM14.717 28.0255C14.4964 28.0258 14.3178 28.2046 14.3176 28.4251C14.3143 31.9619 14.311 35.5025 14.3176 39.0432C14.318 39.2634 14.4964 39.4419 14.7167 39.4424C17.639 39.4492 20.5616 39.4479 23.4835 39.4466C24.6524 39.4461 25.8211 39.4456 26.9896 39.4456C27.2104 39.4456 27.3894 39.2667 27.3896 39.046C27.3929 35.5057 27.3929 31.9655 27.3929 28.4223C27.3929 28.2014 27.2138 28.0223 26.9929 28.0223C25.9695 28.0223 24.9463 28.0221 23.9231 28.0219C20.8537 28.0213 17.7853 28.0207 14.717 28.0255ZM29.4237 28.0286C29.2036 28.0297 29.0258 28.2082 29.0255 28.4283C29.0223 31.9686 29.0223 35.5057 29.0255 39.046C29.0258 39.2667 29.2048 39.4456 29.4255 39.4456C30.594 39.4456 31.7628 39.4461 32.9319 39.4466C35.8549 39.4479 38.7793 39.4492 41.7018 39.4424C41.9223 39.4419 42.1009 39.263 42.1009 39.0424C42.1009 37.8615 42.1012 36.6804 42.1016 35.4994C42.1023 33.1374 42.1031 30.7757 42.1009 28.4155C42.1008 28.3092 42.0583 28.2073 41.9829 28.1323C41.9075 28.0573 41.8053 28.0154 41.699 28.0159C39.6533 28.0255 37.6082 28.0239 35.5623 28.0223L35.5617 28.0223C33.5163 28.0207 31.4701 28.0191 29.4237 28.0286ZM44.1368 28.0223C43.916 28.0223 43.737 28.2011 43.7368 28.4219C43.7335 31.9581 43.7335 35.4974 43.7335 39.0333V39.0456C43.7335 39.2664 43.9124 39.4454 44.1332 39.4456C46.1804 39.4472 48.2267 39.4472 50.2728 39.4472H50.2765C52.3214 39.4472 54.3662 39.4472 56.4118 39.4488C56.5179 39.4489 56.6197 39.4068 56.6948 39.3317C56.7699 39.2567 56.8121 39.1549 56.8121 39.0488C56.8121 38.1628 56.8123 37.2768 56.8125 36.391C56.8131 33.735 56.8138 31.0798 56.8088 28.4247C56.8084 28.2043 56.6298 28.0258 56.4094 28.0255C53.341 28.0207 50.2724 28.0213 47.2042 28.0219C46.1817 28.0221 45.1592 28.0223 44.1368 28.0223Z" fill="white" stroke="#1B1B1F" stroke-width="0.8" stroke-linejoin="round"/>
<path d="M17.5867 34.5455C17.5875 33.4205 17.5884 32.2941 17.5825 31.1688C17.8551 31.1691 18.1277 31.1696 18.4002 31.1701L18.4017 31.1701C18.674 31.1707 18.9462 31.1712 19.2183 31.1715C19.2165 31.9386 19.2169 32.7027 19.2172 33.4661C19.2177 34.4085 19.2181 35.3498 19.2146 36.2946C18.6719 36.2967 18.1285 36.2985 17.5863 36.2992C17.5858 35.7152 17.5862 35.1305 17.5867 34.5455Z" fill="white" stroke="#1B1B1F" stroke-width="0.8" stroke-linejoin="round"/>
<path d="M22.49 33.7372C22.4893 32.8812 22.4886 32.0263 22.4906 31.1715C22.763 31.1712 23.0351 31.1707 23.3067 31.1701L23.3078 31.1701C23.5783 31.1696 23.8484 31.1691 24.1183 31.1688C24.1208 32.879 24.1208 34.5892 24.1183 36.2994C23.5754 36.2996 23.0319 36.3001 22.4895 36.3031C22.4915 35.447 22.4907 34.5917 22.49 33.7374L22.49 33.7372Z" fill="white" stroke="#1B1B1F" stroke-width="0.8" stroke-linejoin="round"/>
<path d="M32.2946 36.2996C32.2947 35.7743 32.295 35.2488 32.2953 34.7233C32.2959 33.5391 32.2966 32.3549 32.2951 31.172H32.2967H32.3015H32.3062H32.3109H32.3157H32.3204H32.3251H32.3299H32.3346H32.3393H32.3441H32.3488H32.3535H32.3583H32.363H32.3677H32.3725H32.3772H32.3819H32.3867H32.3914H32.3961H32.4008H32.4056H32.4103H32.415H32.4198H32.4245H32.4292H32.434H32.4387H32.4434H32.4482H32.4529H32.4576H32.4624H32.4671H32.4718H32.4766H32.4813H32.486H32.4908H32.4955H32.5002H32.505H32.5097H32.5144H32.5191H32.5239H32.5286H32.5333H32.5381H32.5428H32.5475H32.5523H32.557H32.5617H32.5665H32.5712H32.5759H32.5807H32.5854H32.5901H32.5949H32.5996H32.6043H32.6091H32.6138H32.6185H32.6233H32.628H32.6327H32.6374H32.6422H32.6469H32.6516H32.6564H32.6611H32.6658H32.6706H32.6753H32.68H32.6848H32.6895H32.6942H32.699H32.7037H32.7084H32.7132H32.7179H32.7226H32.7274H32.7321H32.7368H32.7415H32.7463H32.751H32.7557H32.7605H32.7652H32.7699H32.7747H32.7794H32.7841H32.7889H32.7936H32.7983H32.8031H32.8078H32.8125H32.8173H32.822H32.8267H32.8315H32.8362H32.8409H32.8457H32.8504H32.8551H32.8598H32.8646H32.8693H32.874H32.8788H32.8835H32.8882H32.893H32.8977H32.9024H32.9072H32.9119H32.9166H32.9214H32.9261H32.9308H32.9356H32.9403H32.945H32.9498H32.9545H32.9592H32.964H32.9687H32.9734H32.9781H32.9829H32.9876H32.9923H32.9971H33.0018H33.0065H33.0113H33.016H33.0207H33.0255H33.0302H33.0349H33.0397H33.0444H33.0491H33.0539H33.0586H33.0633H33.0681H33.0728H33.0775H33.0822H33.087H33.0917H33.0964H33.1012H33.1059H33.1106H33.1154H33.1201H33.1248H33.1296H33.1343H33.139H33.1438H33.1485H33.1532H33.158H33.1627H33.1674H33.1722H33.1769H33.1816H33.1864H33.1911H33.1958H33.2005H33.2053H33.21H33.2147H33.2195H33.2242H33.2289H33.2337H33.2384H33.2431H33.2479H33.2526H33.2573H33.2621H33.2668H33.2715H33.2763H33.281H33.2857H33.2905H33.2952H33.2999H33.3047H33.3094H33.3141H33.3188H33.3236H33.3283H33.333H33.3378H33.3425H33.3472H33.352H33.3567H33.3614H33.3662H33.3709H33.3756H33.3804H33.3851H33.3898H33.3946H33.3993H33.404H33.4088H33.4135H33.4182H33.423H33.4277H33.4324H33.4371H33.4419H33.4466H33.4513H33.4561H33.4608H33.4655H33.4703H33.475H33.4797H33.4845H33.4892H33.4939H33.4987H33.5034H33.5081H33.5129H33.5176H33.5223H33.5271H33.5318H33.5365H33.5412H33.546H33.5507H33.5554H33.5602H33.5649H33.5696H33.5744H33.5791H33.5838H33.5886H33.5933H33.598H33.6028H33.6075H33.6122H33.617H33.6217H33.6264H33.6312H33.6359H33.6406H33.6454H33.6501H33.6548H33.6595H33.6643H33.669H33.6737H33.6785H33.6832H33.6879H33.6927H33.6974H33.7021H33.7069H33.7116H33.7163H33.7211H33.7258H33.7305H33.7353H33.74H33.7447H33.7495H33.7542H33.7589H33.7637H33.7684H33.7731H33.7778H33.7826H33.7873H33.792H33.7968H33.8015H33.8062H33.811H33.8157H33.8204H33.8252H33.8299H33.8346H33.8394H33.8441H33.8488H33.8536H33.8583H33.863H33.8678H33.8725H33.8772H33.8819H33.8867H33.8914H33.8961H33.9009H33.9056H33.9103H33.9151H33.9198H33.9203C33.9289 32.4732 33.9271 33.7753 33.9254 35.0796C33.9248 35.486 33.9242 35.8927 33.924 36.2996H33.9203H33.9155H33.9108H33.906H33.9013H33.8965H33.8918H33.887H33.8823H33.8776H33.8728H33.8681H33.8633H33.8586H33.8538H33.8491H33.8443H33.8396H33.8348H33.8301H33.8254H33.8206H33.8159H33.8111H33.8064H33.8016H33.7969H33.7921H33.7874H33.7827H33.7779H33.7732H33.7684H33.7637H33.7589H33.7542H33.7494H33.7447H33.74H33.7352H33.7305H33.7257H33.721H33.7162H33.7115H33.7067H33.702H33.6973H33.6925H33.6878H33.683H33.6783H33.6735H33.6688H33.6641H33.6593H33.6546H33.6498H33.6451H33.6403H33.6356H33.6308H33.6261H33.6214H33.6166H33.6119H33.6071H33.6024H33.5976H33.5929H33.5882H33.5834H33.5787H33.5739H33.5692H33.5644H33.5597H33.555H33.5502H33.5455H33.5407H33.536H33.5312H33.5265H33.5218H33.517H33.5123H33.5075H33.5028H33.498H33.4933H33.4886H33.4838H33.4791H33.4743H33.4696H33.4648H33.4601H33.4554H33.4506H33.4459H33.4411H33.4364H33.4316H33.4269H33.4222H33.4174H33.4127H33.4079H33.4032H33.3985H33.3937H33.389H33.3842H33.3795H33.3747H33.37H33.3653H33.3605H33.3558H33.351H33.3463H33.3415H33.3368H33.3321H33.3273H33.3226H33.3178H33.3131H33.3084H33.3036H33.2989H33.2941H33.2894H33.2846H33.2799H33.2752H33.2704H33.2657H33.2609H33.2562H33.2515H33.2467H33.242H33.2372H33.2325H33.2277H33.223H33.2183H33.2135H33.2088H33.204H33.1993H33.1946H33.1898H33.1851H33.1803H33.1756H33.1708H33.1661H33.1614H33.1566H33.1519H33.1471H33.1424H33.1377H33.1329H33.1282H33.1234H33.1187H33.1139H33.1092H33.1045H33.0997H33.095H33.0902H33.0855H33.0808H33.076H33.0713H33.0665H33.0618H33.057H33.0523H33.0476H33.0428H33.0381H33.0333H33.0286H33.0239H33.0191H33.0144H33.0096H33.0049H33.0001H32.9954H32.9907H32.9859H32.9812H32.9764H32.9717H32.967H32.9622H32.9575H32.9527H32.948H32.9432H32.9385H32.9338H32.929H32.9243H32.9195H32.9148H32.9101H32.9053H32.9006H32.8958H32.8911H32.8863H32.8816H32.8769H32.8721H32.8674H32.8626H32.8579H32.8532H32.8484H32.8437H32.8389H32.8342H32.8294H32.8247H32.82H32.8152H32.8105H32.8057H32.801H32.7962H32.7915H32.7868H32.782H32.7773H32.7725H32.7678H32.763H32.7583H32.7536H32.7488H32.7441H32.7393H32.7346H32.7299H32.7251H32.7204H32.7156H32.7109H32.7061H32.7014H32.6967H32.6919H32.6872H32.6824H32.6777H32.6729H32.6682H32.6635H32.6587H32.654H32.6492H32.6445H32.6397H32.635H32.6303H32.6255H32.6208H32.616H32.6113H32.6065H32.6018H32.5971H32.5923H32.5876H32.5828H32.5781H32.5733H32.5686H32.5638H32.5591H32.5544H32.5496H32.5449H32.5401H32.5354H32.5306H32.5259H32.5212H32.5164H32.5117H32.5069H32.5022H32.4974H32.4927H32.4879H32.4832H32.4785H32.4737H32.469H32.4642H32.4595H32.4547H32.45H32.4452H32.4405H32.4358H32.431H32.4263H32.4215H32.4168H32.412H32.4073H32.4025H32.3978H32.3931H32.3883H32.3836H32.3788H32.3741H32.3693H32.3646H32.3598H32.3551H32.3503H32.3456H32.3409H32.3361H32.3314H32.3266H32.3219H32.3171H32.3124H32.3076H32.3029H32.2981H32.2946Z" fill="white" stroke="#1B1B1F" stroke-width="0.8" stroke-linejoin="round"/>
<path d="M37.1931 31.172H37.1932H37.198H37.2028H37.2075H37.2123H37.217H37.2218H37.2266H37.2313H37.2361H37.2409H37.2456H37.2504H37.2552H37.2599H37.2647H37.2695H37.2742H37.279H37.2838H37.2885H37.2933H37.298H37.3028H37.3076H37.3123H37.3171H37.3219H37.3266H37.3314H37.3362H37.3409H37.3457H37.3504H37.3552H37.36H37.3647H37.3695H37.3743H37.379H37.3838H37.3886H37.3933H37.3981H37.4028H37.4076H37.4124H37.4171H37.4219H37.4267H37.4314H37.4362H37.441H37.4457H37.4505H37.4552H37.46H37.4648H37.4695H37.4743H37.4791H37.4838H37.4886H37.4933H37.4981H37.5029H37.5076H37.5124H37.5172H37.5219H37.5267H37.5314H37.5362H37.541H37.5457H37.5505H37.5553H37.56H37.5648H37.5695H37.5743H37.5791H37.5838H37.5886H37.5934H37.5981H37.6029H37.6076H37.6124H37.6172H37.6219H37.6267H37.6314H37.6362H37.641H37.6457H37.6505H37.6553H37.66H37.6648H37.6695H37.6743H37.6791H37.6838H37.6886H37.6934H37.6981H37.7029H37.7076H37.7124H37.7172H37.7219H37.7267H37.7314H37.7362H37.741H37.7457H37.7505H37.7553H37.76H37.7648H37.7695H37.7743H37.7791H37.7838H37.7886H37.7933H37.7981H37.8029H37.8076H37.8124H37.8171H37.8219H37.8267H37.8314H37.8362H37.841H37.8457H37.8505H37.8552H37.86H37.8648H37.8695H37.8743H37.879H37.8838H37.8886H37.8933H37.8981H37.9028H37.9076H37.9124H37.9171H37.9219H37.9267H37.9314H37.9362H37.9409H37.9457H37.9505H37.9552H37.96H37.9647H37.9695H37.9743H37.979H37.9838H37.9885H37.9933H37.9981H38.0028H38.0076H38.0123H38.0171H38.0219H38.0266H38.0314H38.0362H38.0409H38.0457H38.0504H38.0552H38.06H38.0647H38.0695H38.0742H38.079H38.0838H38.0885H38.0933H38.098H38.1028H38.1076H38.1123H38.1171H38.1219H38.1266H38.1314H38.1361H38.1409H38.1457H38.1504H38.1552H38.1599H38.1647H38.1695H38.1742H38.179H38.1837H38.1885H38.1933H38.198H38.2028H38.2075H38.2123H38.2171H38.2218H38.2266H38.2314H38.2361H38.2409H38.2456H38.2504H38.2552H38.2599H38.2647H38.2694H38.2742H38.279H38.2837H38.2885H38.2933H38.298H38.3028H38.3075H38.3123H38.3171H38.3218H38.3266H38.3313H38.3361H38.3409H38.3456H38.3504H38.3552H38.3599H38.3647H38.3694H38.3742H38.379H38.3837H38.3885H38.3932H38.398H38.4028H38.4075H38.4123H38.4171H38.4218H38.4266H38.4313H38.4361H38.4409H38.4456H38.4504H38.4552H38.4599H38.4647H38.4694H38.4742H38.479H38.4837H38.4885H38.4933H38.498H38.5028H38.5075H38.5123H38.5171H38.5218H38.5266H38.5314H38.5361H38.5409H38.5456H38.5504H38.5552H38.5599H38.5647H38.5695H38.5742H38.579H38.5837H38.5885H38.5933H38.598H38.6028H38.6076H38.6123H38.6171H38.6218H38.6266H38.6314H38.6361H38.6409H38.6457H38.6504H38.6552H38.66H38.6647H38.6695H38.6742H38.679H38.6838H38.6885H38.6933H38.6981H38.7028H38.7076H38.7124H38.7171H38.7219H38.7267H38.7314H38.7362H38.7409H38.7457H38.7505H38.7552H38.76H38.7648H38.7695H38.7743H38.7791H38.7838H38.7886H38.7934H38.7981H38.8029H38.8077H38.8124H38.8172H38.8219H38.8267H38.8309C38.8296 31.7822 38.8299 32.3913 38.8301 32.9997C38.8306 34.1013 38.831 35.201 38.8223 36.3025C38.2737 36.3013 37.7266 36.2968 37.1818 36.2813C37.2079 34.9779 37.2025 33.6719 37.1971 32.3722C37.1955 31.9714 37.1938 31.5713 37.1931 31.172Z" fill="white" stroke="#1B1B1F" stroke-width="0.8" stroke-linejoin="round"/>
<path d="M47.0063 33.733C47.0063 32.8787 47.0063 32.0252 47.0085 31.172H47.0118H47.0166H47.0213H47.026H47.0308H47.0355H47.0402H47.045H47.0497H47.0544H47.0592H47.0639H47.0686H47.0734H47.0781H47.0828H47.0876H47.0923H47.097H47.1018H47.1065H47.1112H47.116H47.1207H47.1254H47.1302H47.1349H47.1396H47.1444H47.1491H47.1538H47.1586H47.1633H47.168H47.1728H47.1775H47.1822H47.187H47.1917H47.1964H47.2012H47.2059H47.2106H47.2154H47.2201H47.2248H47.2296H47.2343H47.239H47.2438H47.2485H47.2532H47.258H47.2627H47.2674H47.2722H47.2769H47.2816H47.2864H47.2911H47.2958H47.3006H47.3053H47.31H47.3148H47.3195H47.3242H47.329H47.3337H47.3384H47.3432H47.3479H47.3526H47.3574H47.3621H47.3668H47.3716H47.3763H47.381H47.3858H47.3905H47.3952H47.4H47.4047H47.4094H47.4142H47.4189H47.4236H47.4284H47.4331H47.4378H47.4426H47.4473H47.452H47.4568H47.4615H47.4662H47.471H47.4757H47.4804H47.4852H47.4899H47.4947H47.4994H47.5041H47.5089H47.5136H47.5183H47.5231H47.5278H47.5325H47.5373H47.542H47.5467H47.5515H47.5562H47.5609H47.5657H47.5704H47.5751H47.5799H47.5846H47.5893H47.5941H47.5988H47.6036H47.6083H47.613H47.6178H47.6225H47.6272H47.632H47.6367H47.6414H47.6462H47.6509H47.6556H47.6604H47.6651H47.6698H47.6746H47.6793H47.6841H47.6888H47.6935H47.6983H47.703H47.7077H47.7125H47.7172H47.7219H47.7267H47.7314H47.7362H47.7409H47.7456H47.7504H47.7551H47.7598H47.7646H47.7693H47.774H47.7788H47.7835H47.7883H47.793H47.7977H47.8025H47.8072H47.8119H47.8167H47.8214H47.8261H47.8309H47.8356H47.8404H47.8451H47.8498H47.8546H47.8593H47.864H47.8688H47.8735H47.8783H47.883H47.8877H47.8925H47.8972H47.9019H47.9067H47.9114H47.9162H47.9209H47.9256H47.9304H47.9351H47.9398H47.9446H47.9493H47.9541H47.9588H47.9635H47.9683H47.973H47.9777H47.9825H47.9872H47.992H47.9967H48.0014H48.0062H48.0109H48.0156H48.0204H48.0251H48.0299H48.0346H48.0393H48.0441H48.0488H48.0536H48.0583H48.063H48.0678H48.0725H48.0773H48.082H48.0867H48.0915H48.0962H48.1009H48.1057H48.1104H48.1152H48.1199H48.1246H48.1294H48.1341H48.1389H48.1436H48.1483H48.1531H48.1578H48.1626H48.1673H48.172H48.1768H48.1815H48.1863H48.191H48.1957H48.2005H48.2052H48.21H48.2147H48.2194H48.2242H48.2289H48.2337H48.2384H48.2431H48.2479H48.2526H48.2574H48.2621H48.2669H48.2716H48.2763H48.2811H48.2858H48.2906H48.2953H48.3H48.3048H48.3095H48.3143H48.319H48.3237H48.3285H48.3332H48.338H48.3427H48.3475H48.3522H48.3569H48.3617H48.3664H48.3712H48.3759H48.3806H48.3854H48.3901H48.3949H48.3996H48.4044H48.4091H48.4138H48.4186H48.4233H48.4281H48.4328H48.4376H48.4423H48.447H48.4518H48.4565H48.4613H48.466H48.4708H48.4755H48.4802H48.485H48.4897H48.4945H48.4992H48.504H48.5087H48.5135H48.5182H48.5229H48.5277H48.5324H48.5372H48.5419H48.5467H48.5514H48.5562H48.5609H48.5656H48.5704H48.5751H48.5799H48.5846H48.5894H48.5941H48.5989H48.6036H48.6083H48.6131H48.6178H48.6226H48.6273H48.6321H48.6363C48.6391 32.8803 48.6413 34.5895 48.6342 36.2965H48.6335H48.6288H48.624H48.6193H48.6145H48.6098H48.605H48.6003H48.5955H48.5908H48.586H48.5813H48.5766H48.5718H48.5671H48.5623H48.5576H48.5528H48.5481H48.5433H48.5386H48.5339H48.5291H48.5244H48.5196H48.5149H48.5101H48.5054H48.5006H48.4959H48.4911H48.4864H48.4817H48.4769H48.4722H48.4674H48.4627H48.4579H48.4532H48.4484H48.4437H48.439H48.4342H48.4295H48.4247H48.42H48.4152H48.4105H48.4058H48.401H48.3963H48.3915H48.3868H48.382H48.3773H48.3725H48.3678H48.3631H48.3583H48.3536H48.3488H48.3441H48.3393H48.3346H48.3299H48.3251H48.3204H48.3156H48.3109H48.3061H48.3014H48.2967H48.2919H48.2872H48.2824H48.2777H48.2729H48.2682H48.2635H48.2587H48.254H48.2492H48.2445H48.2397H48.235H48.2303H48.2255H48.2208H48.216H48.2113H48.2065H48.2018H48.1971H48.1923H48.1876H48.1828H48.1781H48.1733H48.1686H48.1639H48.1591H48.1544H48.1496H48.1449H48.1401H48.1354H48.1307H48.1259H48.1212H48.1164H48.1117H48.107H48.1022H48.0975H48.0927H48.088H48.0832H48.0785H48.0738H48.069H48.0643H48.0595H48.0548H48.05H48.0453H48.0406H48.0358H48.0311H48.0263H48.0216H48.0169H48.0121H48.0074H48.0026H47.9979H47.9931H47.9884H47.9837H47.9789H47.9742H47.9694H47.9647H47.96H47.9552H47.9505H47.9457H47.941H47.9362H47.9315H47.9268H47.922H47.9173H47.9125H47.9078H47.9031H47.8983H47.8936H47.8888H47.8841H47.8793H47.8746H47.8699H47.8651H47.8604H47.8556H47.8509H47.8462H47.8414H47.8367H47.8319H47.8272H47.8224H47.8177H47.813H47.8082H47.8035H47.7987H47.794H47.7893H47.7845H47.7798H47.775H47.7703H47.7655H47.7608H47.7561H47.7513H47.7466H47.7418H47.7371H47.7324H47.7276H47.7229H47.7181H47.7134H47.7086H47.7039H47.6992H47.6944H47.6897H47.6849H47.6802H47.6755H47.6707H47.666H47.6612H47.6565H47.6517H47.647H47.6423H47.6375H47.6328H47.628H47.6233H47.6186H47.6138H47.6091H47.6043H47.5996H47.5948H47.5901H47.5854H47.5806H47.5759H47.5711H47.5664H47.5616H47.5569H47.5522H47.5474H47.5427H47.5379H47.5332H47.5285H47.5237H47.519H47.5142H47.5095H47.5047H47.5H47.4953H47.4905H47.4858H47.481H47.4763H47.4715H47.4668H47.4621H47.4573H47.4526H47.4478H47.4431H47.4383H47.4336H47.4289H47.4241H47.4194H47.4146H47.4099H47.4051H47.4004H47.3957H47.3909H47.3862H47.3814H47.3767H47.372H47.3672H47.3625H47.3577H47.353H47.3482H47.3435H47.3387H47.334H47.3293H47.3245H47.3198H47.315H47.3103H47.3055H47.3008H47.2961H47.2913H47.2866H47.2818H47.2771H47.2723H47.2676H47.2629H47.2581H47.2534H47.2486H47.2439H47.2391H47.2344H47.2296H47.2249H47.2202H47.2154H47.2107H47.2059H47.2012H47.1964H47.1917H47.187H47.1822H47.1775H47.1727H47.168H47.1632H47.1585H47.1537H47.149H47.1443H47.1395H47.1348H47.13H47.1253H47.1205H47.1158H47.111H47.1063H47.1016H47.0968H47.0921H47.0873H47.0826H47.0778H47.0731H47.0683H47.0636H47.0588H47.0541H47.0494H47.0446H47.0399H47.0351H47.0304H47.0256H47.0209H47.0161H47.0114H47.0066H47.0042C47.0063 35.4413 47.0063 34.5869 47.0063 33.7334V33.733Z" fill="white" stroke="#1B1B1F" stroke-width="0.8" stroke-linejoin="round"/>
<path d="M53.5404 36.2994C52.995 36.2995 52.4506 36.2998 51.9062 36.3013C51.9133 34.5911 51.9112 32.8811 51.9084 31.1699C52.1789 31.1707 52.4496 31.1712 52.7203 31.1717L52.7213 31.1717C52.9937 31.1723 53.266 31.1728 53.5382 31.1736C53.5419 32.5203 53.5413 33.867 53.5407 35.2156C53.5406 35.5767 53.5404 35.938 53.5404 36.2994Z" fill="white" stroke="#1B1B1F" stroke-width="0.8" stroke-linejoin="round"/>
<path d="M15.1135 44.1832H15.1143H15.1191H15.124H15.1288H15.1336H15.1385H15.1433H15.1481H15.1529H15.1578H15.1626H15.1674H15.1723H15.1771H15.1819H15.1867H15.1916H15.1964H15.2012H15.206H15.2109H15.2157H15.2205H15.2254H15.2302H15.235H15.2398H15.2447H15.2495H15.2543H15.2591H15.264H15.2688H15.2736H15.2785H15.2833H15.2881H15.2929H15.2978H15.3026H15.3074H15.3123H15.3171H15.3219H15.3267H15.3316H15.3364H15.3412H15.346H15.3509H15.3557H15.3605H15.3654H15.3702H15.375H15.3798H15.3847H15.3895H15.3943H15.3991H15.404H15.4088H15.4136H15.4184H15.4233H15.4281H15.4329H15.4378H15.4426H15.4474H15.4522H15.4571H15.4619H15.4667H15.4715H15.4764H15.4812H15.486H15.4909H15.4957H15.5005H15.5053H15.5102H15.515H15.5198H15.5246H15.5295H15.5343H15.5391H15.5439H15.5488H15.5536H15.5584H15.5632H15.5681H15.5729H15.5777H15.5826H15.5874H15.5922H15.597H15.6019H15.6067H15.6115H15.6163H15.6212H15.626H15.6308H15.6356H15.6405H15.6453H15.6501H15.6549H15.6598H15.6646H15.6694H15.6742H15.6791H15.6839H15.6887H15.6935H15.6984H15.7032H15.708H15.7128H15.7177H15.7225H15.7273H15.7321H15.737H15.7418H15.7466H15.7514H15.7563H15.7611H15.7659H15.7707H15.7756H15.7804H15.7852H15.79H15.7949H15.7997H15.8045H15.8093H15.8142H15.819H15.8238H15.8286H15.8335H15.8383H15.8431H15.8479H15.8528H15.8576H15.8624H15.8672H15.8721H15.8769H15.8817H15.8865H15.8914H15.8962H15.901H15.9058H15.9107H15.9155H15.9203H15.9251H15.93H15.9348H15.9396H15.9444H15.9493H15.9541H15.9589H15.9637H15.9685H15.9734H15.9782H15.983H15.9878H15.9927H15.9975H16.0023H16.0071H16.012H16.0168H16.0216H16.0264H16.0312H16.0361H16.0409H16.0457H16.0505H16.0554H16.0602H16.065H16.0698H16.0747H16.0795H16.0843H16.0891H16.0939H16.0988H16.1036H16.1084H16.1132H16.1181H16.1229H16.1277H16.1325H16.1373H16.1422H16.147H16.1518H16.1566H16.1615H16.1663H16.1711H16.1759H16.1807H16.1856H16.1904H16.1952H16.2H16.2049H16.2097H16.2145H16.2193H16.2241H16.229H16.2338H16.2386H16.2434H16.2482H16.2531H16.2579H16.2627H16.2675H16.2723H16.2772H16.282H16.2868H16.2916H16.2964H16.3013H16.3061H16.3109H16.3157H16.3206H16.3254H16.3302H16.335H16.3398H16.3447H16.3495H16.3543H16.3591H16.3639H16.3688H16.3736H16.3784H16.3832H16.388H16.3929H16.3977H16.4025H16.4073H16.4121H16.4169H16.4218H16.4266H16.4314H16.4362H16.441H16.4459H16.4507H16.4555H16.4603H16.4651H16.47H16.4748H16.4796H16.4844H16.4892H16.4941H16.4989H16.5037H16.5085H16.5133H16.5181H16.523H16.5278H16.5326H16.5374H16.5422H16.5471H16.5519H16.5567H16.5615H16.5663H16.5711H16.576H16.5808H16.5856H16.5904H16.5952H16.6H16.6049H16.6097H16.6145H16.6193H16.6241H16.6289H16.6338H16.6386H16.6434H16.6482H16.653H16.6578H16.6627H16.6675H16.6723H16.6771H16.6819H16.6867H16.6916H16.6964H16.7012H16.706H16.7108H16.7156H16.7205H16.7253H16.7301H16.7349H16.7397H16.7445H16.7494H16.7542H16.759H16.7638H16.7686H16.7734H16.7782H16.783C16.7841 45.2372 16.7841 46.2912 16.7841 47.3455V47.3461C16.7841 48.3994 16.7841 49.4529 16.7853 50.5065C16.5081 50.5058 16.2308 50.5052 15.9537 50.5047C15.6749 50.5041 15.3964 50.5036 15.1181 50.5028C15.1105 48.8577 15.1116 47.2128 15.1127 45.5655C15.1131 45.1049 15.1134 44.6442 15.1135 44.1832Z" fill="white" stroke="#1B1B1F" stroke-width="0.8" stroke-linejoin="round"/>
<path d="M20.0171 46.153C20.0173 45.4964 20.0175 44.8397 20.0183 44.1832H20.0231H20.0279H20.0328H20.0376H20.0424H20.0472H20.052H20.0568H20.0616H20.0665H20.0713H20.0761H20.0809H20.0857H20.0905H20.0954H20.1002H20.105H20.1098H20.1146H20.1194H20.1243H20.1291H20.1339H20.1387H20.1435H20.1483H20.1531H20.158H20.1628H20.1676H20.1724H20.1772H20.1821H20.1869H20.1917H20.1965H20.2013H20.2061H20.211H20.2158H20.2206H20.2254H20.2302H20.235H20.2399H20.2447H20.2495H20.2543H20.2591H20.2639H20.2688H20.2736H20.2784H20.2832H20.288H20.2929H20.2977H20.3025H20.3073H20.3121H20.3169H20.3218H20.3266H20.3314H20.3362H20.341H20.3459H20.3507H20.3555H20.3603H20.3651H20.37H20.3748H20.3796H20.3844H20.3892H20.3941H20.3989H20.4037H20.4085H20.4133H20.4182H20.423H20.4278H20.4326H20.4374H20.4423H20.4471H20.4519H20.4567H20.4615H20.4664H20.4712H20.476H20.4808H20.4856H20.4905H20.4953H20.5001H20.5049H20.5097H20.5146H20.5194H20.5242H20.529H20.5338H20.5387H20.5435H20.5483H20.5531H20.5579H20.5628H20.5676H20.5724H20.5772H20.582H20.5869H20.5917H20.5965H20.6013H20.6062H20.611H20.6158H20.6206H20.6254H20.6303H20.6351H20.6399H20.6447H20.6496H20.6544H20.6592H20.664H20.6688H20.6737H20.6785H20.6833H20.6881H20.693H20.6978H20.7026H20.7074H20.7122H20.7171H20.7219H20.7267H20.7315H20.7364H20.7412H20.746H20.7508H20.7556H20.7605H20.7653H20.7701H20.7749H20.7798H20.7846H20.7894H20.7942H20.7991H20.8039H20.8087H20.8135H20.8183H20.8232H20.828H20.8328H20.8376H20.8425H20.8473H20.8521H20.8569H20.8618H20.8666H20.8714H20.8762H20.8811H20.8859H20.8907H20.8955H20.9004H20.9052H20.91H20.9148H20.9196H20.9245H20.9293H20.9341H20.9389H20.9438H20.9486H20.9534H20.9582H20.9631H20.9679H20.9727H20.9775H20.9824H20.9872H20.992H20.9968H21.0017H21.0065H21.0113H21.0161H21.021H21.0258H21.0306H21.0354H21.0403H21.0451H21.0499H21.0547H21.0596H21.0644H21.0692H21.074H21.0789H21.0837H21.0885H21.0933H21.0982H21.103H21.1078H21.1126H21.1175H21.1223H21.1271H21.1319H21.1368H21.1416H21.1464H21.1512H21.1561H21.1609H21.1657H21.1706H21.1754H21.1802H21.185H21.1899H21.1947H21.1995H21.2043H21.2092H21.214H21.2188H21.2236H21.2285H21.2333H21.2381H21.2429H21.2478H21.2526H21.2574H21.2622H21.2671H21.2719H21.2767H21.2816H21.2864H21.2912H21.296H21.3009H21.3057H21.3105H21.3153H21.3202H21.325H21.3298H21.3346H21.3395H21.3443H21.3491H21.354H21.3588H21.3636H21.3684H21.3733H21.3781H21.3829H21.3877H21.3926H21.3974H21.4022H21.4071H21.4119H21.4167H21.4215H21.4264H21.4312H21.436H21.4408H21.4457H21.4505H21.4553H21.4601H21.465H21.4698H21.4746H21.4795H21.4843H21.4891H21.4939H21.4988H21.5036H21.5084H21.5133H21.5181H21.5229H21.5277H21.5326H21.5374H21.5422H21.547H21.5519H21.5567H21.5615H21.5664H21.5712H21.576H21.5808H21.5857H21.5905H21.5953H21.6001H21.605H21.6098H21.6146H21.6195H21.6243H21.6291H21.6339H21.6388H21.6436H21.6484H21.6533H21.6581H21.6629H21.6677H21.6726H21.6774H21.6822H21.687H21.6878V44.1886V44.2002V44.2118V44.2234V44.235V44.2465V44.2581V44.2697V44.2813V44.2929V44.3045V44.3161V44.3276V44.3392V44.3508V44.3624V44.374V44.3856V44.3971V44.4087V44.4203V44.4319V44.4435V44.4551V44.4666V44.4782V44.4898V44.5014V44.513V44.5246V44.5361V44.5477V44.5593V44.5709V44.5825V44.5941V44.6056V44.6172V44.6288V44.6404V44.652V44.6636V44.6751V44.6867V44.6983V44.7099V44.7215V44.7331V44.7446V44.7562V44.7678V44.7794V44.791V44.8026V44.8141V44.8257V44.8373V44.8489V44.8605V44.8721V44.8836V44.8952V44.9068V44.9184V44.93V44.9415V44.9531V44.9647V44.9763V44.9879V44.9995V45.011V45.0226V45.0342V45.0458V45.0574V45.069V45.0805V45.0921V45.1037V45.1153V45.1269V45.1385V45.15V45.1616V45.1732V45.1848V45.1964V45.208V45.2195V45.2311V45.2427V45.2543V45.2659V45.2774V45.289V45.3006V45.3122V45.3238V45.3354V45.3469V45.3585V45.3701V45.3817V45.3933V45.4049V45.4164V45.428V45.4396V45.4512V45.4628V45.4743V45.4859V45.4975V45.5091V45.5207V45.5323V45.5438V45.5554V45.567V45.5786V45.5902V45.6018V45.6133V45.6249V45.6365V45.6481V45.6597V45.6712V45.6828V45.6944V45.706V45.7176V45.7292V45.7407V45.7523V45.7639V45.7755V45.7871V45.7986V45.8102V45.8218V45.8334V45.845V45.8565V45.8681V45.8797V45.8913V45.9029V45.9145V45.926V45.9376V45.9492V45.9608V45.9724V45.9839V45.9955V46.0071V46.0187V46.0303V46.0418V46.0534V46.065V46.0766V46.0882V46.0998V46.1113V46.1229V46.1345V46.1461V46.1577V46.1692V46.1808V46.1924V46.204V46.2156V46.2271V46.2387V46.2503V46.2619V46.2735V46.285V46.2966V46.3082V46.3198V46.3314V46.3429V46.3545V46.3661V46.3777V46.3893V46.4008V46.4124V46.424V46.4356V46.4472V46.4587V46.4703V46.4819V46.4935V46.5051V46.5166V46.5282V46.5398V46.5514V46.563V46.5745V46.5861V46.5977V46.6093V46.6209V46.6324V46.644V46.6556V46.6672V46.6788V46.6903V46.7019V46.7135V46.7251V46.7367V46.7482V46.7598V46.7714V46.783V46.7945V46.8061V46.8177V46.8293V46.8409V46.8524V46.864V46.8756V46.8872V46.8988V46.9103V46.9219V46.9335V46.9451V46.9566V46.9682V46.9798V46.9914V47.003V47.0145V47.0261V47.0377V47.0493V47.0609V47.0724V47.084V47.0956V47.1072V47.1187V47.1303V47.1419V47.1535V47.1651V47.1766V47.1882V47.1998V47.2114V47.2229V47.2345V47.2461V47.2577V47.2692V47.2808V47.2924V47.304V47.3156V47.3271V47.3387V47.3503V47.3619V47.3734V47.385V47.3966V47.4082V47.4197V47.4313V47.4429V47.4545V47.4661V47.4776V47.4892V47.5008V47.5124V47.5239V47.5355V47.5471V47.5587V47.5702V47.5818V47.5934V47.605V47.6165V47.6281V47.6397V47.6513V47.6629V47.6744V47.686V47.6976V47.7092V47.7207V47.7323V47.7439V47.7555V47.767V47.7786V47.7902V47.8018V47.8133V47.8249V47.8365V47.8481V47.8596V47.8712V47.8828V47.8944V47.9059V47.9175V47.9291V47.9407V47.9522V47.9638V47.9754V47.987V47.9985V48.0101V48.0217V48.0332V48.0448V48.0564V48.068V48.0795V48.0911V48.1027V48.1143V48.1258V48.1374V48.149V48.1606V48.1721V48.1837V48.1953V48.2069V48.2184V48.23V48.2416V48.2531V48.2647V48.2763V48.2879V48.2994V48.311V48.3226V48.3342V48.3457V48.3573V48.3689V48.3804V48.392V48.4036V48.4152V48.4267V48.4383V48.4499V48.4615V48.473V48.4846V48.4962V48.5077V48.5193V48.5309V48.5425V48.554V48.5656V48.5772V48.5887V48.6003V48.6119V48.6235V48.635V48.6466V48.6582V48.6697V48.6813V48.6929V48.7045V48.716V48.7276V48.7392V48.7507V48.7623V48.7739V48.7854V48.797V48.8086V48.8202V48.8317V48.8433V48.8549V48.8664V48.878V48.8896V48.9011V48.9127V48.9243V48.9359V48.9474V48.959V48.9706V48.9821V48.9937V49.0053V49.0168V49.0284V49.04V49.0516V49.0631V49.0747V49.0863V49.0978V49.1094V49.121V49.1325V49.1441V49.1557V49.1672V49.1788V49.1904V49.2019V49.2135V49.2251V49.2366V49.2482V49.2598V49.2713V49.2829V49.2945V49.3061V49.3109C21.1298 49.3108 20.5711 49.3105 20.0135 49.309C20.0163 48.2575 20.0167 47.2053 20.0171 46.153Z" fill="white" stroke="#1B1B1F" stroke-width="0.8" stroke-linejoin="round"/>
<path d="M24.9222 47.7375C24.9229 46.5535 24.9235 45.3687 24.9221 44.1851C25.4791 44.1836 26.0362 44.1833 26.5937 44.1832C26.5938 44.5444 26.5939 44.9055 26.5941 45.2666C26.5947 46.6157 26.5952 47.9642 26.5916 49.3128C26.0344 49.3112 25.4783 49.3109 24.9215 49.3109C24.9216 48.7867 24.9219 48.2622 24.9222 47.7375Z" fill="white" stroke="#1B1B1F" stroke-width="0.8" stroke-linejoin="round"/>
<path d="M29.8235 46.7469C29.8235 45.8932 29.8235 45.0392 29.8225 44.1851C30.3798 44.1836 30.9375 44.1833 31.4968 44.1832C31.4957 45.0384 31.4957 45.8935 31.4957 46.7486V46.749C31.4957 47.6041 31.4957 48.4591 31.4947 49.3146C31.0785 49.3123 30.6627 49.3112 30.2473 49.3102C30.1064 49.3098 29.9655 49.3094 29.8246 49.309C29.8235 48.4552 29.8235 47.6013 29.8235 46.747V46.7469Z" fill="white" stroke="#1B1B1F" stroke-width="0.8" stroke-linejoin="round"/>
<path d="M40.8763 49.3102C40.462 49.3112 40.0467 49.3123 39.6322 49.3146C39.6311 48.4591 39.6311 47.6041 39.6311 46.749V46.7489C39.6311 45.8937 39.6311 45.0385 39.6301 44.1832C40.1879 44.1833 40.7464 44.1836 41.3038 44.1851C41.3017 45.0393 41.3017 45.8933 41.3017 46.7468V46.747C41.3017 47.6015 41.3017 48.4553 41.2996 49.309C41.1586 49.3094 41.0175 49.3098 40.8763 49.3102Z" fill="white" stroke="#1B1B1F" stroke-width="0.8" stroke-linejoin="round"/>
<path d="M44.5336 44.1832H44.5342H44.539H44.5438H44.5486H44.5535H44.5583H44.5631H44.5679H44.5728H44.5776H44.5824H44.5872H44.592H44.5969H44.6017H44.6065H44.6113H44.6162H44.621H44.6258H44.6306H44.6355H44.6403H44.6451H44.6499H44.6547H44.6596H44.6644H44.6692H44.674H44.6788H44.6837H44.6885H44.6933H44.6981H44.703H44.7078H44.7126H44.7174H44.7222H44.7271H44.7319H44.7367H44.7415H44.7464H44.7512H44.756H44.7608H44.7656H44.7705H44.7753H44.7801H44.7849H44.7897H44.7946H44.7994H44.8042H44.809H44.8138H44.8187H44.8235H44.8283H44.8331H44.838H44.8428H44.8476H44.8524H44.8572H44.8621H44.8669H44.8717H44.8765H44.8813H44.8862H44.891H44.8958H44.9006H44.9054H44.9103H44.9151H44.9199H44.9247H44.9295H44.9344H44.9392H44.944H44.9488H44.9536H44.9585H44.9633H44.9681H44.9729H44.9777H44.9826H44.9874H44.9922H44.997H45.0018H45.0067H45.0115H45.0163H45.0211H45.0259H45.0308H45.0356H45.0404H45.0452H45.05H45.0549H45.0597H45.0645H45.0693H45.0741H45.0789H45.0838H45.0886H45.0934H45.0982H45.103H45.1079H45.1127H45.1175H45.1223H45.1271H45.132H45.1368H45.1416H45.1464H45.1512H45.1561H45.1609H45.1657H45.1705H45.1753H45.1802H45.185H45.1898H45.1946H45.1994H45.2042H45.2091H45.2139H45.2187H45.2235H45.2283H45.2332H45.238H45.2428H45.2476H45.2524H45.2573H45.2621H45.2669H45.2717H45.2765H45.2814H45.2862H45.291H45.2958H45.3006H45.3054H45.3103H45.3151H45.3199H45.3247H45.3295H45.3344H45.3392H45.344H45.3488H45.3536H45.3585H45.3633H45.3681H45.3729H45.3777H45.3825H45.3874H45.3922H45.397H45.4018H45.4066H45.4115H45.4163H45.4211H45.4259H45.4307H45.4356H45.4404H45.4452H45.45H45.4548H45.4596H45.4645H45.4693H45.4741H45.4789H45.4837H45.4886H45.4934H45.4982H45.503H45.5078H45.5127H45.5175H45.5223H45.5271H45.5319H45.5368H45.5416H45.5464H45.5512H45.556H45.5608H45.5657H45.5705H45.5753H45.5801H45.5849H45.5898H45.5946H45.5994H45.6042H45.609H45.6139H45.6187H45.6235H45.6283H45.6331H45.638H45.6428H45.6476H45.6524H45.6572H45.6621H45.6669H45.6717H45.6765H45.6813H45.6862H45.691H45.6958H45.7006H45.7054H45.7102H45.7151H45.7199H45.7247H45.7295H45.7343H45.7392H45.744H45.7488H45.7536H45.7584H45.7633H45.7681H45.7729H45.7777H45.7825H45.7874H45.7922H45.797H45.8018H45.8066H45.8115H45.8163H45.8211H45.8259H45.8307H45.8356H45.8404H45.8452H45.85H45.8548H45.8597H45.8645H45.8693H45.8741H45.8789H45.8838H45.8886H45.8934H45.8982H45.9031H45.9079H45.9127H45.9175H45.9223H45.9272H45.932H45.9368H45.9416H45.9464H45.9513H45.9561H45.9609H45.9657H45.9705H45.9754H45.9802H45.985H45.9898H45.9947H45.9995H46.0043H46.0091H46.0139H46.0188H46.0236H46.0284H46.0332H46.038H46.0429H46.0477H46.0525H46.0573H46.0622H46.067H46.0718H46.0766H46.0814H46.0863H46.0911H46.0959H46.1007H46.1056H46.1104H46.1152H46.12H46.1248H46.1297H46.1345H46.1393H46.1441H46.149H46.1538H46.1586H46.1634H46.1682H46.1731H46.1779H46.1827H46.1875H46.1924H46.1972H46.202H46.2037C46.2062 45.1779 46.2057 46.172 46.2052 47.1672C46.2049 47.881 46.2046 48.5954 46.2053 49.3109C45.6487 49.3109 45.0928 49.3112 44.5357 49.3128C44.5321 47.9644 44.5327 46.6161 44.5332 45.2671C44.5334 44.9058 44.5335 44.5446 44.5336 44.1832Z" fill="white" stroke="#1B1B1F" stroke-width="0.8" stroke-linejoin="round"/>
<path d="M49.4387 44.1832H49.443H49.4478H49.4526H49.4574H49.4623H49.4671H49.4719H49.4767H49.4815H49.4863H49.4912H49.496H49.5008H49.5056H49.5104H49.5152H49.52H49.5249H49.5297H49.5345H49.5393H49.5441H49.5489H49.5538H49.5586H49.5634H49.5682H49.573H49.5778H49.5827H49.5875H49.5923H49.5971H49.6019H49.6067H49.6116H49.6164H49.6212H49.626H49.6308H49.6356H49.6405H49.6453H49.6501H49.6549H49.6597H49.6646H49.6694H49.6742H49.679H49.6838H49.6886H49.6935H49.6983H49.7031H49.7079H49.7127H49.7176H49.7224H49.7272H49.732H49.7368H49.7416H49.7465H49.7513H49.7561H49.7609H49.7657H49.7706H49.7754H49.7802H49.785H49.7898H49.7947H49.7995H49.8043H49.8091H49.8139H49.8188H49.8236H49.8284H49.8332H49.838H49.8428H49.8477H49.8525H49.8573H49.8621H49.8669H49.8718H49.8766H49.8814H49.8862H49.891H49.8959H49.9007H49.9055H49.9103H49.9152H49.92H49.9248H49.9296H49.9344H49.9393H49.9441H49.9489H49.9537H49.9585H49.9634H49.9682H49.973H49.9778H49.9826H49.9875H49.9923H49.9971H50.0019H50.0067H50.0116H50.0164H50.0212H50.026H50.0309H50.0357H50.0405H50.0453H50.0501H50.055H50.0598H50.0646H50.0694H50.0743H50.0791H50.0839H50.0887H50.0935H50.0984H50.1032H50.108H50.1128H50.1177H50.1225H50.1273H50.1321H50.1369H50.1418H50.1466H50.1514H50.1562H50.1611H50.1659H50.1707H50.1755H50.1803H50.1852H50.19H50.1948H50.1996H50.2045H50.2093H50.2141H50.2189H50.2238H50.2286H50.2334H50.2382H50.243H50.2479H50.2527H50.2575H50.2623H50.2672H50.272H50.2768H50.2816H50.2865H50.2913H50.2961H50.3009H50.3058H50.3106H50.3154H50.3202H50.3251H50.3299H50.3347H50.3395H50.3443H50.3492H50.354H50.3588H50.3636H50.3685H50.3733H50.3781H50.3829H50.3878H50.3926H50.3974H50.4022H50.4071H50.4119H50.4167H50.4215H50.4264H50.4312H50.436H50.4408H50.4457H50.4505H50.4553H50.4601H50.465H50.4698H50.4746H50.4794H50.4843H50.4891H50.4939H50.4987H50.5036H50.5084H50.5132H50.518H50.5229H50.5277H50.5325H50.5373H50.5422H50.547H50.5518H50.5566H50.5615H50.5663H50.5711H50.576H50.5808H50.5856H50.5904H50.5953H50.6001H50.6049H50.6097H50.6146H50.6194H50.6242H50.629H50.6339H50.6387H50.6435H50.6483H50.6532H50.658H50.6628H50.6676H50.6725H50.6773H50.6821H50.687H50.6918H50.6966H50.7014H50.7063H50.7111H50.7159H50.7207H50.7256H50.7304H50.7352H50.74H50.7449H50.7497H50.7545H50.7593H50.7642H50.769H50.7738H50.7787H50.7835H50.7883H50.7931H50.798H50.8028H50.8076H50.8124H50.8173H50.8221H50.8269H50.8318H50.8366H50.8414H50.8462H50.8511H50.8559H50.8607H50.8655H50.8704H50.8752H50.88H50.8849H50.8897H50.8945H50.8993H50.9042H50.909H50.9138H50.9186H50.9235H50.9283H50.9331H50.938H50.9428H50.9476H50.9524H50.9573H50.9621H50.9669H50.9717H50.9766H50.9814H50.9862H50.9911H50.9959H51.0007H51.0055H51.0104H51.0152H51.02H51.0248H51.0297H51.0345H51.0393H51.0442H51.049H51.0538H51.0586H51.0635H51.0683H51.0731H51.078H51.0828H51.0876H51.0924H51.0973H51.1021H51.1069H51.1082C51.109 44.8955 51.1086 45.6085 51.1083 46.3217C51.1078 47.3178 51.1073 48.3141 51.1098 49.309C50.5544 49.3105 49.9977 49.3108 49.4403 49.3109C49.4353 48.0349 49.4365 46.7581 49.4377 45.4797C49.4381 45.0477 49.4385 44.6156 49.4387 44.1832Z" fill="white" stroke="#1B1B1F" stroke-width="0.8" stroke-linejoin="round"/>
<path d="M54.3396 44.1832H54.3404H54.3452H54.35H54.3549H54.3597H54.3645H54.3694H54.3742H54.379H54.3838H54.3887H54.3935H54.3983H54.4032H54.408H54.4128H54.4176H54.4225H54.4273H54.4321H54.4369H54.4418H54.4466H54.4514H54.4563H54.4611H54.4659H54.4707H54.4756H54.4804H54.4852H54.4901H54.4949H54.4997H54.5045H54.5094H54.5142H54.519H54.5238H54.5287H54.5335H54.5383H54.5432H54.548H54.5528H54.5576H54.5625H54.5673H54.5721H54.5769H54.5818H54.5866H54.5914H54.5963H54.6011H54.6059H54.6107H54.6156H54.6204H54.6252H54.63H54.6349H54.6397H54.6445H54.6494H54.6542H54.659H54.6638H54.6687H54.6735H54.6783H54.6831H54.688H54.6928H54.6976H54.7024H54.7073H54.7121H54.7169H54.7218H54.7266H54.7314H54.7362H54.7411H54.7459H54.7507H54.7555H54.7604H54.7652H54.77H54.7748H54.7797H54.7845H54.7893H54.7941H54.799H54.8038H54.8086H54.8135H54.8183H54.8231H54.8279H54.8328H54.8376H54.8424H54.8472H54.8521H54.8569H54.8617H54.8665H54.8714H54.8762H54.881H54.8858H54.8907H54.8955H54.9003H54.9051H54.91H54.9148H54.9196H54.9244H54.9293H54.9341H54.9389H54.9437H54.9486H54.9534H54.9582H54.963H54.9679H54.9727H54.9775H54.9823H54.9872H54.992H54.9968H55.0016H55.0065H55.0113H55.0161H55.0209H55.0258H55.0306H55.0354H55.0402H55.0451H55.0499H55.0547H55.0595H55.0644H55.0692H55.074H55.0788H55.0837H55.0885H55.0933H55.0981H55.103H55.1078H55.1126H55.1174H55.1223H55.1271H55.1319H55.1367H55.1416H55.1464H55.1512H55.156H55.1609H55.1657H55.1705H55.1753H55.1801H55.185H55.1898H55.1946H55.1994H55.2043H55.2091H55.2139H55.2187H55.2236H55.2284H55.2332H55.238H55.2429H55.2477H55.2525H55.2573H55.2621H55.267H55.2718H55.2766H55.2814H55.2863H55.2911H55.2959H55.3007H55.3056H55.3104H55.3152H55.32H55.3248H55.3297H55.3345H55.3393H55.3441H55.349H55.3538H55.3586H55.3634H55.3682H55.3731H55.3779H55.3827H55.3875H55.3924H55.3972H55.402H55.4068H55.4116H55.4165H55.4213H55.4261H55.4309H55.4357H55.4406H55.4454H55.4502H55.455H55.4599H55.4647H55.4695H55.4743H55.4791H55.484H55.4888H55.4936H55.4984H55.5032H55.5081H55.5129H55.5177H55.5225H55.5273H55.5322H55.537H55.5418H55.5466H55.5514H55.5563H55.5611H55.5659H55.5707H55.5755H55.5804H55.5852H55.59H55.5948H55.5996H55.6045H55.6093H55.6141H55.6189H55.6237H55.6286H55.6334H55.6382H55.643H55.6478H55.6527H55.6575H55.6623H55.6671H55.6719H55.6768H55.6816H55.6864H55.6912H55.696H55.7009H55.7057H55.7105H55.7153H55.7201H55.7249H55.7298H55.7346H55.7394H55.7442H55.749H55.7539H55.7587H55.7635H55.7683H55.7731H55.7779H55.7828H55.7876H55.7924H55.7972H55.802H55.8069H55.8117H55.8165H55.8213H55.8261H55.8309H55.8358H55.8406H55.8454H55.8502H55.855H55.8598H55.8647H55.8695H55.8743H55.8791H55.8839H55.8887H55.8936H55.8984H55.9032H55.908H55.9128H55.9176H55.9225H55.9273H55.9321H55.9369H55.9417H55.9465H55.9513H55.9562H55.961H55.9658H55.9706H55.9754H55.9802H55.9851H55.9899H55.9947H55.9995H56.0043H56.009C56.0102 45.2372 56.0102 46.2912 56.0102 47.3455C56.0102 48.399 56.0102 49.4528 56.0113 50.5065C55.7337 50.5058 55.4565 50.5052 55.1797 50.5047L55.1786 50.5047C54.9001 50.5041 54.6221 50.5036 54.3442 50.5028C54.3365 48.8577 54.3377 47.2127 54.3388 45.5653C54.3391 45.1048 54.3395 44.6441 54.3396 44.1832Z" fill="white" stroke="#1B1B1F" stroke-width="0.8" stroke-linejoin="round"/>
<path d="M33.0091 51.6132L33.0092 51.6133L33.0153 51.6124C33.1554 51.5924 33.2946 51.5719 33.4328 51.5516C34.4887 51.3963 35.4911 51.2487 36.4905 51.3866L36.4941 51.3871C44.1773 52.3767 51.8642 53.3536 59.5513 54.3019C60.1818 54.4192 60.8311 54.4838 61.4603 54.5463C61.6871 54.5689 61.9114 54.5912 62.1311 54.6156C62.9199 54.7032 63.6736 54.8193 64.3876 55.0639C64.4544 55.2241 64.5371 55.4224 64.6001 55.5747C64.2983 56.8938 63.951 58.2035 63.6016 59.521L63.5452 59.734C63.1986 61.0415 62.8525 62.357 62.5532 63.6854C61.9969 63.5941 61.4449 63.4802 60.9004 63.342C61.3872 61.5212 61.8533 59.697 62.3186 57.8762C62.4159 57.4953 62.5132 57.1145 62.6106 56.7339C62.639 56.6228 62.6184 56.5048 62.554 56.4099C62.4895 56.3151 62.3874 56.2524 62.2736 56.2379C53.8022 55.1587 45.3266 54.0826 36.8474 53.0478C36.7337 53.0339 36.6196 53.0695 36.5338 53.1454C36.4481 53.2213 36.399 53.3303 36.399 53.4449C36.399 54.2183 36.3984 54.9919 36.3979 55.7658C36.3967 57.567 36.3954 59.3692 36.4009 61.171C36.1228 61.1702 35.8448 61.1697 35.5669 61.1691H35.5668C35.2873 61.1686 35.008 61.1681 34.7288 61.1673C34.7243 59.6748 34.7254 58.1835 34.7265 56.6919C34.7273 55.6087 34.7281 54.5253 34.7268 53.4412C34.7266 53.3266 34.6774 53.2176 34.5915 53.1418C34.5057 53.066 34.3914 53.0306 34.2777 53.0447C28.6729 53.7371 23.0705 54.4435 17.4678 55.1499C14.5953 55.5121 11.7227 55.8743 8.84958 56.2346C8.73546 56.249 8.63301 56.3117 8.56841 56.4069C8.50381 56.502 8.4833 56.6204 8.51213 56.7318C8.68582 57.4028 8.8581 58.0752 9.03055 58.7483C9.42262 60.2786 9.81553 61.8122 10.2278 63.3398C9.68343 63.4802 9.13495 63.5994 8.58234 63.6954C8.27418 62.368 7.92628 61.0514 7.57984 59.7414L7.57212 59.7123C7.20659 58.3301 6.84301 56.9554 6.52562 55.5711C6.58909 55.4167 6.67201 55.2151 6.73876 55.0538C7.41657 54.8217 8.14481 54.7186 8.90003 54.6486L8.90005 54.6488L8.91265 54.6472C16.946 53.6444 24.976 52.632 33.0091 51.6132Z" fill="white" stroke="#1B1B1F" stroke-width="0.8" stroke-linejoin="round"/>
<path d="M31.0728 58.7805C30.6581 58.7816 30.2424 58.7826 29.8275 58.7849C29.8253 58.27 29.8228 57.7558 29.8191 57.2417C30.3783 57.2381 30.9375 57.2359 31.4967 57.2352C31.4952 57.7496 31.4949 58.2641 31.4948 58.7794C31.3543 58.7798 31.2136 58.7801 31.0728 58.7805Z" fill="white" stroke="#1B1B1F" stroke-width="0.8" stroke-linejoin="round"/>
<path d="M39.6311 58.0035C39.6306 57.747 39.6301 57.4909 39.6297 57.235C40.1876 57.235 40.7462 57.2353 41.3036 57.2368C41.3028 57.4953 41.3022 57.7537 41.3017 58.0119V58.012L41.3017 58.0122C41.3012 58.27 41.3006 58.5275 41.2998 58.7849C40.885 58.7826 40.4694 58.7816 40.0548 58.7805C39.9139 58.7801 39.7731 58.7798 39.6325 58.7794C39.6322 58.5207 39.6317 58.2624 39.6311 58.0044L39.6311 58.0035Z" fill="white" stroke="#1B1B1F" stroke-width="0.8" stroke-linejoin="round"/>
<path d="M15.5654 64.5461L15.5641 64.5464C14.9051 64.6778 14.2894 64.9397 13.6596 65.248C13.4744 65.3386 13.2852 65.4348 13.093 65.5326C12.6477 65.7589 12.1859 65.9937 11.7179 66.188C10.4033 66.744 8.94396 66.7908 7.59841 66.6136L7.59418 66.613L7.59419 66.613C6.73574 66.4906 5.9726 66.157 5.26228 65.8045C5.08176 65.715 4.90604 65.625 4.73304 65.5364C4.20946 65.2684 3.71075 65.013 3.1793 64.8197L3.17108 64.8167L3.17111 64.8166C2.31423 64.4835 1.38296 64.3909 0.408128 64.3321L0.401725 65.8677C1.3938 65.8763 2.29118 66.1649 3.12999 66.5266C3.54497 66.7056 3.95361 66.9062 4.35177 67.1017C4.41184 67.1312 4.47168 67.1605 4.53126 67.1897C4.98551 67.4121 5.42831 67.6239 5.87729 67.8001C8.42406 68.5812 11.3329 68.3776 13.6114 67.0365C15.5173 65.8602 17.9087 65.6051 20.0491 66.1776C20.0569 66.1797 20.0646 66.182 20.0722 66.1845C20.7426 66.408 21.3682 66.727 21.9631 67.0303C22.0176 67.0581 22.0718 67.0857 22.1257 67.1131C22.7787 67.445 23.4023 67.749 24.0721 67.9313C25.696 68.3434 27.4273 68.3417 29.0749 67.9882C29.7773 67.8248 30.4286 67.5174 31.1093 67.1732C31.194 67.1305 31.2792 67.087 31.3651 67.0432C31.959 66.7405 32.584 66.4219 33.2504 66.1976C33.2573 66.1953 33.2642 66.1932 33.2711 66.1913C35.411 65.598 37.8067 65.8541 39.7155 67.0237C41.8722 68.3021 44.5799 68.5363 47.0413 67.94C47.7123 67.7611 48.3351 67.4557 48.9891 67.1212C49.0418 67.0942 49.0947 67.0671 49.1478 67.0398C49.7452 66.7333 50.375 66.4101 51.0529 66.1872C51.0606 66.1847 51.0683 66.1824 51.0761 66.1804C53.1222 65.6423 55.4278 65.8156 57.289 66.9204L57.2898 66.9209C60.1146 68.6073 63.9115 68.73 66.7866 67.1154C67.9734 66.4115 69.306 65.9467 70.7203 65.877C70.7204 65.359 70.7207 64.8409 70.7221 64.3238C69.7443 64.3972 68.8138 64.4871 67.9517 64.8201L67.9454 64.8225L67.9454 64.8225C67.4176 65.0163 66.9223 65.2686 66.4032 65.533C66.2103 65.6313 66.0142 65.7312 65.8118 65.8304C65.0827 66.188 64.2988 66.5213 63.4164 66.6299L63.414 66.6302C62.1278 66.781 60.7365 66.7339 59.4797 66.2109C59.0005 66.0132 58.5282 65.7747 58.0725 65.5446C57.8796 65.4472 57.6896 65.3513 57.5034 65.2607C56.8626 64.9487 56.2365 64.6824 55.5683 64.5462C54.032 64.2385 52.4189 64.2423 50.8994 64.5946C50.1256 64.776 49.4193 65.1341 48.6634 65.5199L48.6407 65.5315C47.9054 65.907 47.121 66.3074 46.2463 66.514L46.2429 66.5148C44.2811 66.96 42.1613 66.6503 40.4378 65.6149C37.5922 63.9236 33.7559 63.8557 30.8891 65.5188L15.5654 64.5461ZM15.5654 64.5461C17.0199 64.251 18.545 64.248 19.9988 64.5399L20.001 64.5404M15.5654 64.5461L20.001 64.5404M20.001 64.5404C20.8661 64.709 21.649 65.1051 22.4886 65.5299M20.001 64.5404L22.4886 65.5299M22.4886 65.5299C22.598 65.5852 22.7083 65.641 22.8198 65.6969M22.4886 65.5299L22.8198 65.6969M22.8198 65.6969C23.762 66.1685 24.7827 66.635 25.9656 66.6768M22.8198 65.6969L25.9656 66.6768M25.9656 66.6768C27.7159 66.8683 29.4304 66.3666 30.889 65.5188L25.9656 66.6768Z" fill="white" stroke="#1B1B1F" stroke-width="0.8" stroke-linejoin="round"/>
</svg>
