<svg width="65" height="62" viewBox="0 0 65 62" fill="none" xmlns="http://www.w3.org/2000/svg">
<mask id="path-1-inside-1_667_11698" fill="white">
<path d="M2.17572 1.35641C2.14106 0.858173 2.30692 0.29644 2.82183 0.101055C3.5422 -0.0650229 4.29228 0.0277851 5.02503 0.0106888C23.3388 0.0106888 41.6526 0.0131311 59.9664 0.0106888C60.7115 0.0253427 61.4715 -0.0625805 62.2067 0.101055C62.6845 0.315979 62.8528 0.853289 62.8256 1.33443C62.8256 17.9862 62.8231 34.6379 62.8256 51.2896C63.5856 51.2896 64.7466 51.1504 64.9521 52.12C65.0412 53.6098 64.9768 55.107 64.9867 56.5992C65.0362 57.1634 64.5411 57.6934 63.9718 57.6934C62.8677 57.7471 61.7636 57.6909 60.662 57.7129C60.6348 58.9658 60.7313 60.2261 60.5754 61.4741C60.3649 61.6377 60.157 61.8014 59.9515 61.9674C57.731 61.9992 55.513 61.9796 53.2949 61.9845C52.7577 62.0334 52.1537 61.7574 52.0373 61.1957C51.9259 60.038 52.0274 58.8706 51.9953 57.7105C46.9403 57.7105 41.8878 57.7105 36.8353 57.7105C36.813 58.7949 36.8675 59.8792 36.8155 60.9636C36.8303 61.5229 36.308 62.0016 35.7436 61.9723C33.58 61.9943 31.4139 61.9919 29.2503 61.9748C28.681 62.0041 28.171 61.5156 28.1834 60.9563C28.1339 59.8744 28.1859 58.7924 28.166 57.7105C23.1135 57.7105 18.061 57.708 13.0061 57.7105C12.9863 58.7924 13.0407 59.8744 12.9912 60.9563C13.011 61.5034 12.5233 61.9772 11.9713 61.9699C9.89682 62.0114 7.8174 61.9674 5.74045 61.9894C5.17356 62.0602 4.49279 61.7745 4.3814 61.1712C4.27742 60.0209 4.37149 58.8632 4.33931 57.7129C3.23524 57.6909 2.13116 57.7495 1.02709 57.6909C0.571593 57.7227 0.314141 57.305 0.00965386 57.0486C0.0418354 55.4025 -0.0522339 53.7539 0.0467863 52.1127C0.249778 51.1528 1.41822 51.2921 2.17572 51.2896C2.1782 34.6452 2.17572 18.0008 2.17572 1.35641ZM4.34179 2.14772C4.34179 7.13493 4.33931 12.1197 4.34179 17.1069C10.1171 17.1069 15.895 17.1094 21.6703 17.1069C21.6678 12.1197 21.6777 7.13249 21.6654 2.14528C20.2222 2.15016 18.7814 2.14528 17.3382 2.14772C17.3134 4.11134 17.3902 6.07741 17.2887 8.04103C16.9495 8.28282 16.6129 8.59788 16.1574 8.54904C14.0928 8.57102 12.0282 8.55636 9.96366 8.55636C9.3225 8.64184 8.63927 8.15826 8.68382 7.48174C8.64917 5.70373 8.68878 3.92573 8.67392 2.14772C7.22823 2.14772 5.78501 2.14528 4.34179 2.14772ZM10.84 2.14772C10.8375 3.57159 10.84 4.99546 10.8375 6.41933C12.2832 6.42422 13.7264 6.41933 15.1696 6.42178C15.1721 4.9979 15.1721 3.57159 15.1696 2.14528C13.7264 2.14772 12.2832 2.14772 10.84 2.14772ZM23.8389 2.14528C23.8364 7.13493 23.8339 12.1221 23.8389 17.1094C29.6142 17.1069 35.3871 17.1069 41.1625 17.1094C41.1674 12.1221 41.1649 7.13493 41.1625 2.14528C39.7192 2.14772 38.276 2.14528 36.8328 2.15016C36.8179 3.92573 36.8575 5.70373 36.8204 7.4793C36.86 8.07034 36.3204 8.59788 35.7163 8.54659C33.5676 8.56857 31.4164 8.57102 29.2676 8.54415C28.6562 8.58567 28.119 8.04348 28.1809 7.44022C28.1438 5.67687 28.1834 3.91351 28.1685 2.14772C26.7253 2.14528 25.2821 2.14772 23.8389 2.14528ZM30.3346 2.14772C30.3321 3.57159 30.3346 4.99546 30.3346 6.42178C31.7778 6.42178 33.221 6.42178 34.6667 6.42178C34.6667 4.9979 34.6667 3.57159 34.6667 2.14772C33.221 2.14772 31.7778 2.14772 30.3346 2.14772ZM43.331 2.14772C43.331 7.13249 43.3285 12.1197 43.331 17.1069C49.1063 17.1094 54.8842 17.1069 60.6595 17.1069C60.6595 12.1197 60.6595 7.13493 60.6595 2.14772C59.2138 2.14772 57.7706 2.14772 56.3274 2.14772C56.3125 3.92817 56.3497 5.70862 56.3175 7.48907C56.3695 8.17292 55.6739 8.63696 55.0352 8.55636C52.9681 8.55636 50.9011 8.57102 48.8365 8.54904C48.2275 8.61009 47.626 8.10453 47.6755 7.48663C47.6359 5.70618 47.6805 3.92328 47.6607 2.14039C46.2174 2.1526 44.7742 2.14528 43.331 2.14772ZM49.8317 2.14528C49.8292 3.57159 49.8292 4.9979 49.8292 6.42178C51.2749 6.41933 52.7181 6.42422 54.1638 6.41933C54.1613 4.99546 54.1613 3.57159 54.1613 2.15016C52.7181 2.14528 51.2749 2.14772 49.8317 2.14528ZM4.34179 19.2439C4.34179 24.2312 4.33931 29.2184 4.34426 34.2032C10.1196 34.2032 15.895 34.2056 21.6703 34.2032C21.6703 29.2159 21.6728 24.2312 21.6703 19.2439C20.2246 19.2415 18.7814 19.2439 17.3382 19.2439C17.3159 21.2076 17.3902 23.1736 17.2912 25.1348C16.9545 25.3766 16.6203 25.6892 16.1673 25.6453C14.1002 25.6672 12.0282 25.6526 9.95871 25.6526C9.3225 25.7356 8.64174 25.2545 8.68382 24.5829C8.64917 22.8048 8.68878 21.0244 8.67392 19.2439C7.22823 19.2415 5.78501 19.2439 4.34179 19.2439ZM10.84 19.2439C10.8375 20.6678 10.84 22.0917 10.84 23.518C12.2832 23.518 13.7264 23.518 15.1696 23.518C15.1721 22.0941 15.1721 20.6678 15.1721 19.2415C13.7264 19.2439 12.2832 19.2415 10.84 19.2439ZM23.8364 19.2439C23.8364 24.2312 23.8339 29.2184 23.8389 34.2056C29.6117 34.2032 35.3871 34.2032 41.1625 34.2056C41.1674 29.2184 41.1649 24.2312 41.1649 19.2439C39.7242 19.2366 38.2859 19.2586 36.8476 19.2269C36.8006 21.0073 36.865 22.7902 36.8204 24.5706C36.8625 25.1617 36.3278 25.6917 35.7262 25.6404C33.58 25.6648 31.4312 25.6648 29.2825 25.6428C28.6711 25.6892 28.119 25.1519 28.1809 24.5438C28.1438 22.778 28.1834 21.0122 28.1685 19.2439C26.7253 19.2415 25.2821 19.2439 23.8364 19.2439ZM30.3346 19.2439C30.3321 20.6678 30.3346 22.0917 30.3346 23.518C31.7778 23.518 33.221 23.518 34.6667 23.518C34.6667 22.0941 34.6667 20.6678 34.6667 19.2439C33.221 19.2415 31.7778 19.2415 30.3346 19.2439ZM43.331 19.2439C43.331 24.2312 43.331 29.2159 43.331 34.2032C49.1088 34.2056 54.8842 34.2032 60.6595 34.2032C60.6595 29.2159 60.6595 24.2312 60.6595 19.2439C59.2138 19.2415 57.7706 19.2439 56.3274 19.2439C56.3125 21.0244 56.3497 22.8073 56.3175 24.5902C56.3546 25.1519 55.8521 25.6502 55.2852 25.6379C53.3073 25.6868 51.3269 25.6331 49.3465 25.6624C48.9034 25.6282 48.3785 25.721 48.0295 25.3839C47.6037 25.0835 47.6829 24.5218 47.6582 24.0749C47.6631 22.4654 47.6656 20.8534 47.6631 19.2439C46.2174 19.2439 44.7742 19.2415 43.331 19.2439ZM49.8317 19.2415C49.8292 20.6678 49.8292 22.0941 49.8317 23.518C51.2749 23.5156 52.7181 23.5204 54.1638 23.5156C54.1613 22.0917 54.1638 20.6678 54.1613 19.2439C52.7181 19.2415 51.2749 19.2439 49.8317 19.2415ZM4.34179 36.3402C4.34179 41.3274 4.34179 46.3122 4.34179 51.2994C10.1171 51.2994 15.8925 51.3018 21.6703 51.2994C21.6703 46.3122 21.6703 41.3274 21.6703 36.3402C20.2271 36.3377 18.7814 36.3377 17.3382 36.3402C17.3134 38.3038 17.3902 40.2723 17.2912 42.2335C16.9495 42.4728 16.6153 42.7879 16.1623 42.7415C14.1052 42.7635 12.048 42.7488 9.99089 42.7488C9.34478 42.8392 8.64174 42.3678 8.68382 41.6815C8.64917 39.9011 8.68878 38.1206 8.67392 36.3402C7.22823 36.3377 5.78501 36.3377 4.34179 36.3402ZM10.84 36.3402C10.8375 37.7641 10.84 39.1879 10.8375 40.6118C12.2832 40.6167 13.7264 40.6118 15.1721 40.6142C15.1721 39.1879 15.1721 37.7641 15.1696 36.3377C13.7264 36.3402 12.2832 36.3402 10.84 36.3402ZM23.8389 36.3377C23.8364 41.325 23.8339 46.3122 23.8389 51.3018C29.6142 51.2994 35.3871 51.2994 41.1625 51.3018C41.1674 46.3146 41.1649 41.3274 41.1625 36.3377C39.7192 36.3402 38.276 36.3377 36.8328 36.3402C36.8155 38.1206 36.86 39.9011 36.8179 41.6815C36.8576 42.2652 36.3228 42.783 35.7312 42.7366C33.58 42.761 31.4263 42.761 29.2751 42.7391C28.6661 42.7806 28.119 42.2433 28.1809 41.64C28.1438 39.8742 28.1834 38.106 28.1685 36.3402C26.7253 36.3377 25.2821 36.3402 23.8389 36.3377ZM30.3346 36.3402C30.3321 37.7641 30.3346 39.1879 30.3346 40.6142C31.7778 40.6142 33.221 40.6142 34.6667 40.6142C34.6667 39.1904 34.6667 37.7641 34.6667 36.3402C33.221 36.3377 31.7778 36.3402 30.3346 36.3402ZM43.331 36.3402C43.331 41.3274 43.331 46.3122 43.331 51.2994C49.1088 51.3018 54.8842 51.2994 60.6595 51.2994C60.6595 46.3122 60.6595 41.3274 60.6595 36.3402C59.2138 36.3377 57.7706 36.3377 56.3274 36.3402C56.3125 38.1182 56.3497 39.8986 56.3175 41.6766C56.3571 42.2408 55.8595 42.7464 55.2902 42.7342C53.3048 42.783 51.317 42.7293 49.3291 42.7562C48.891 42.7268 48.3711 42.8148 48.027 42.4777C47.6062 42.1798 47.6829 41.6229 47.6582 41.1809C47.6631 39.5665 47.6656 37.9521 47.6631 36.3402C46.2174 36.3377 44.7742 36.3377 43.331 36.3402ZM49.8317 36.3402C49.8292 37.7641 49.8292 39.1904 49.8317 40.6142C51.2749 40.6142 52.7181 40.6142 54.1613 40.6142C54.1613 39.1855 54.1638 37.7592 54.1589 36.3329C52.7156 36.3451 51.2724 36.3377 49.8317 36.3402ZM2.17325 53.4389C2.17572 54.1496 2.17572 54.8603 2.17572 55.5734C22.3932 55.5734 42.6081 55.5734 62.8256 55.5734C62.8256 54.8603 62.8256 54.1496 62.8281 53.4389C42.6082 53.434 22.3907 53.434 2.17325 53.4389ZM6.50785 57.7105C6.50785 58.4236 6.50785 59.1343 6.50785 59.8475C7.95107 59.8475 9.39677 59.8475 10.84 59.8475C10.84 59.1343 10.84 58.4236 10.84 57.7105C9.39677 57.708 7.95355 57.7105 6.50785 57.7105ZM30.3346 57.7129C30.3346 58.4236 30.3346 59.1343 30.3346 59.8475C31.7778 59.8499 33.221 59.8475 34.6643 59.8499C34.6667 59.1368 34.6667 58.4236 34.6667 57.7105C33.2235 57.7105 31.7778 57.708 30.3346 57.7129ZM54.1613 57.7105C54.1613 58.4236 54.1613 59.1343 54.1613 59.8475C55.6045 59.8475 57.0478 59.8475 58.4935 59.8475C58.4935 59.1343 58.4935 58.4236 58.4935 57.7105C57.0478 57.7105 55.6045 57.708 54.1613 57.7105Z"/>
</mask>
<path d="M2.17572 1.35641C2.14106 0.858173 2.30692 0.29644 2.82183 0.101055C3.5422 -0.0650229 4.29228 0.0277851 5.02503 0.0106888C23.3388 0.0106888 41.6526 0.0131311 59.9664 0.0106888C60.7115 0.0253427 61.4715 -0.0625805 62.2067 0.101055C62.6845 0.315979 62.8528 0.853289 62.8256 1.33443C62.8256 17.9862 62.8231 34.6379 62.8256 51.2896C63.5856 51.2896 64.7466 51.1504 64.9521 52.12C65.0412 53.6098 64.9768 55.107 64.9867 56.5992C65.0362 57.1634 64.5411 57.6934 63.9718 57.6934C62.8677 57.7471 61.7636 57.6909 60.662 57.7129C60.6348 58.9658 60.7313 60.2261 60.5754 61.4741C60.3649 61.6377 60.157 61.8014 59.9515 61.9674C57.731 61.9992 55.513 61.9796 53.2949 61.9845C52.7577 62.0334 52.1537 61.7574 52.0373 61.1957C51.9259 60.038 52.0274 58.8706 51.9953 57.7105C46.9403 57.7105 41.8878 57.7105 36.8353 57.7105C36.813 58.7949 36.8675 59.8792 36.8155 60.9636C36.8303 61.5229 36.308 62.0016 35.7436 61.9723C33.58 61.9943 31.4139 61.9919 29.2503 61.9748C28.681 62.0041 28.171 61.5156 28.1834 60.9563C28.1339 59.8744 28.1859 58.7924 28.166 57.7105C23.1135 57.7105 18.061 57.708 13.0061 57.7105C12.9863 58.7924 13.0407 59.8744 12.9912 60.9563C13.011 61.5034 12.5233 61.9772 11.9713 61.9699C9.89682 62.0114 7.8174 61.9674 5.74045 61.9894C5.17356 62.0602 4.49279 61.7745 4.3814 61.1712C4.27742 60.0209 4.37149 58.8632 4.33931 57.7129C3.23524 57.6909 2.13116 57.7495 1.02709 57.6909C0.571593 57.7227 0.314141 57.305 0.00965386 57.0486C0.0418354 55.4025 -0.0522339 53.7539 0.0467863 52.1127C0.249778 51.1528 1.41822 51.2921 2.17572 51.2896C2.1782 34.6452 2.17572 18.0008 2.17572 1.35641ZM4.34179 2.14772C4.34179 7.13493 4.33931 12.1197 4.34179 17.1069C10.1171 17.1069 15.895 17.1094 21.6703 17.1069C21.6678 12.1197 21.6777 7.13249 21.6654 2.14528C20.2222 2.15016 18.7814 2.14528 17.3382 2.14772C17.3134 4.11134 17.3902 6.07741 17.2887 8.04103C16.9495 8.28282 16.6129 8.59788 16.1574 8.54904C14.0928 8.57102 12.0282 8.55636 9.96366 8.55636C9.3225 8.64184 8.63927 8.15826 8.68382 7.48174C8.64917 5.70373 8.68878 3.92573 8.67392 2.14772C7.22823 2.14772 5.78501 2.14528 4.34179 2.14772ZM10.84 2.14772C10.8375 3.57159 10.84 4.99546 10.8375 6.41933C12.2832 6.42422 13.7264 6.41933 15.1696 6.42178C15.1721 4.9979 15.1721 3.57159 15.1696 2.14528C13.7264 2.14772 12.2832 2.14772 10.84 2.14772ZM23.8389 2.14528C23.8364 7.13493 23.8339 12.1221 23.8389 17.1094C29.6142 17.1069 35.3871 17.1069 41.1625 17.1094C41.1674 12.1221 41.1649 7.13493 41.1625 2.14528C39.7192 2.14772 38.276 2.14528 36.8328 2.15016C36.8179 3.92573 36.8575 5.70373 36.8204 7.4793C36.86 8.07034 36.3204 8.59788 35.7163 8.54659C33.5676 8.56857 31.4164 8.57102 29.2676 8.54415C28.6562 8.58567 28.119 8.04348 28.1809 7.44022C28.1438 5.67687 28.1834 3.91351 28.1685 2.14772C26.7253 2.14528 25.2821 2.14772 23.8389 2.14528ZM30.3346 2.14772C30.3321 3.57159 30.3346 4.99546 30.3346 6.42178C31.7778 6.42178 33.221 6.42178 34.6667 6.42178C34.6667 4.9979 34.6667 3.57159 34.6667 2.14772C33.221 2.14772 31.7778 2.14772 30.3346 2.14772ZM43.331 2.14772C43.331 7.13249 43.3285 12.1197 43.331 17.1069C49.1063 17.1094 54.8842 17.1069 60.6595 17.1069C60.6595 12.1197 60.6595 7.13493 60.6595 2.14772C59.2138 2.14772 57.7706 2.14772 56.3274 2.14772C56.3125 3.92817 56.3497 5.70862 56.3175 7.48907C56.3695 8.17292 55.6739 8.63696 55.0352 8.55636C52.9681 8.55636 50.9011 8.57102 48.8365 8.54904C48.2275 8.61009 47.626 8.10453 47.6755 7.48663C47.6359 5.70618 47.6805 3.92328 47.6607 2.14039C46.2174 2.1526 44.7742 2.14528 43.331 2.14772ZM49.8317 2.14528C49.8292 3.57159 49.8292 4.9979 49.8292 6.42178C51.2749 6.41933 52.7181 6.42422 54.1638 6.41933C54.1613 4.99546 54.1613 3.57159 54.1613 2.15016C52.7181 2.14528 51.2749 2.14772 49.8317 2.14528ZM4.34179 19.2439C4.34179 24.2312 4.33931 29.2184 4.34426 34.2032C10.1196 34.2032 15.895 34.2056 21.6703 34.2032C21.6703 29.2159 21.6728 24.2312 21.6703 19.2439C20.2246 19.2415 18.7814 19.2439 17.3382 19.2439C17.3159 21.2076 17.3902 23.1736 17.2912 25.1348C16.9545 25.3766 16.6203 25.6892 16.1673 25.6453C14.1002 25.6672 12.0282 25.6526 9.95871 25.6526C9.3225 25.7356 8.64174 25.2545 8.68382 24.5829C8.64917 22.8048 8.68878 21.0244 8.67392 19.2439C7.22823 19.2415 5.78501 19.2439 4.34179 19.2439ZM10.84 19.2439C10.8375 20.6678 10.84 22.0917 10.84 23.518C12.2832 23.518 13.7264 23.518 15.1696 23.518C15.1721 22.0941 15.1721 20.6678 15.1721 19.2415C13.7264 19.2439 12.2832 19.2415 10.84 19.2439ZM23.8364 19.2439C23.8364 24.2312 23.8339 29.2184 23.8389 34.2056C29.6117 34.2032 35.3871 34.2032 41.1625 34.2056C41.1674 29.2184 41.1649 24.2312 41.1649 19.2439C39.7242 19.2366 38.2859 19.2586 36.8476 19.2269C36.8006 21.0073 36.865 22.7902 36.8204 24.5706C36.8625 25.1617 36.3278 25.6917 35.7262 25.6404C33.58 25.6648 31.4312 25.6648 29.2825 25.6428C28.6711 25.6892 28.119 25.1519 28.1809 24.5438C28.1438 22.778 28.1834 21.0122 28.1685 19.2439C26.7253 19.2415 25.2821 19.2439 23.8364 19.2439ZM30.3346 19.2439C30.3321 20.6678 30.3346 22.0917 30.3346 23.518C31.7778 23.518 33.221 23.518 34.6667 23.518C34.6667 22.0941 34.6667 20.6678 34.6667 19.2439C33.221 19.2415 31.7778 19.2415 30.3346 19.2439ZM43.331 19.2439C43.331 24.2312 43.331 29.2159 43.331 34.2032C49.1088 34.2056 54.8842 34.2032 60.6595 34.2032C60.6595 29.2159 60.6595 24.2312 60.6595 19.2439C59.2138 19.2415 57.7706 19.2439 56.3274 19.2439C56.3125 21.0244 56.3497 22.8073 56.3175 24.5902C56.3546 25.1519 55.8521 25.6502 55.2852 25.6379C53.3073 25.6868 51.3269 25.6331 49.3465 25.6624C48.9034 25.6282 48.3785 25.721 48.0295 25.3839C47.6037 25.0835 47.6829 24.5218 47.6582 24.0749C47.6631 22.4654 47.6656 20.8534 47.6631 19.2439C46.2174 19.2439 44.7742 19.2415 43.331 19.2439ZM49.8317 19.2415C49.8292 20.6678 49.8292 22.0941 49.8317 23.518C51.2749 23.5156 52.7181 23.5204 54.1638 23.5156C54.1613 22.0917 54.1638 20.6678 54.1613 19.2439C52.7181 19.2415 51.2749 19.2439 49.8317 19.2415ZM4.34179 36.3402C4.34179 41.3274 4.34179 46.3122 4.34179 51.2994C10.1171 51.2994 15.8925 51.3018 21.6703 51.2994C21.6703 46.3122 21.6703 41.3274 21.6703 36.3402C20.2271 36.3377 18.7814 36.3377 17.3382 36.3402C17.3134 38.3038 17.3902 40.2723 17.2912 42.2335C16.9495 42.4728 16.6153 42.7879 16.1623 42.7415C14.1052 42.7635 12.048 42.7488 9.99089 42.7488C9.34478 42.8392 8.64174 42.3678 8.68382 41.6815C8.64917 39.9011 8.68878 38.1206 8.67392 36.3402C7.22823 36.3377 5.78501 36.3377 4.34179 36.3402ZM10.84 36.3402C10.8375 37.7641 10.84 39.1879 10.8375 40.6118C12.2832 40.6167 13.7264 40.6118 15.1721 40.6142C15.1721 39.1879 15.1721 37.7641 15.1696 36.3377C13.7264 36.3402 12.2832 36.3402 10.84 36.3402ZM23.8389 36.3377C23.8364 41.325 23.8339 46.3122 23.8389 51.3018C29.6142 51.2994 35.3871 51.2994 41.1625 51.3018C41.1674 46.3146 41.1649 41.3274 41.1625 36.3377C39.7192 36.3402 38.276 36.3377 36.8328 36.3402C36.8155 38.1206 36.86 39.9011 36.8179 41.6815C36.8576 42.2652 36.3228 42.783 35.7312 42.7366C33.58 42.761 31.4263 42.761 29.2751 42.7391C28.6661 42.7806 28.119 42.2433 28.1809 41.64C28.1438 39.8742 28.1834 38.106 28.1685 36.3402C26.7253 36.3377 25.2821 36.3402 23.8389 36.3377ZM30.3346 36.3402C30.3321 37.7641 30.3346 39.1879 30.3346 40.6142C31.7778 40.6142 33.221 40.6142 34.6667 40.6142C34.6667 39.1904 34.6667 37.7641 34.6667 36.3402C33.221 36.3377 31.7778 36.3402 30.3346 36.3402ZM43.331 36.3402C43.331 41.3274 43.331 46.3122 43.331 51.2994C49.1088 51.3018 54.8842 51.2994 60.6595 51.2994C60.6595 46.3122 60.6595 41.3274 60.6595 36.3402C59.2138 36.3377 57.7706 36.3377 56.3274 36.3402C56.3125 38.1182 56.3497 39.8986 56.3175 41.6766C56.3571 42.2408 55.8595 42.7464 55.2902 42.7342C53.3048 42.783 51.317 42.7293 49.3291 42.7562C48.891 42.7268 48.3711 42.8148 48.027 42.4777C47.6062 42.1798 47.6829 41.6229 47.6582 41.1809C47.6631 39.5665 47.6656 37.9521 47.6631 36.3402C46.2174 36.3377 44.7742 36.3377 43.331 36.3402ZM49.8317 36.3402C49.8292 37.7641 49.8292 39.1904 49.8317 40.6142C51.2749 40.6142 52.7181 40.6142 54.1613 40.6142C54.1613 39.1855 54.1638 37.7592 54.1589 36.3329C52.7156 36.3451 51.2724 36.3377 49.8317 36.3402ZM2.17325 53.4389C2.17572 54.1496 2.17572 54.8603 2.17572 55.5734C22.3932 55.5734 42.6081 55.5734 62.8256 55.5734C62.8256 54.8603 62.8256 54.1496 62.8281 53.4389C42.6082 53.434 22.3907 53.434 2.17325 53.4389ZM6.50785 57.7105C6.50785 58.4236 6.50785 59.1343 6.50785 59.8475C7.95107 59.8475 9.39677 59.8475 10.84 59.8475C10.84 59.1343 10.84 58.4236 10.84 57.7105C9.39677 57.708 7.95355 57.7105 6.50785 57.7105ZM30.3346 57.7129C30.3346 58.4236 30.3346 59.1343 30.3346 59.8475C31.7778 59.8499 33.221 59.8475 34.6643 59.8499C34.6667 59.1368 34.6667 58.4236 34.6667 57.7105C33.2235 57.7105 31.7778 57.708 30.3346 57.7129ZM54.1613 57.7105C54.1613 58.4236 54.1613 59.1343 54.1613 59.8475C55.6045 59.8475 57.0478 59.8475 58.4935 59.8475C58.4935 59.1343 58.4935 58.4236 58.4935 57.7105C57.0478 57.7105 55.6045 57.708 54.1613 57.7105Z" fill="white" stroke="#1B1B1F" stroke-width="1.6" mask="url(#path-1-inside-1_667_11698)"/>
</svg>
