<svg width="74" height="66" viewBox="0 0 66 66" fill="none" xmlns="http://www.w3.org/2000/svg">
<g clip-path="url(#clip0_848_11821)">
<path d="M20.6748 47.5357V31.0357C20.6748 30.6018 20.3188 30.25 19.8796 30.25H1.98805C1.54889 30.25 1.19287 30.6018 1.19287 31.0357V47.5357M20.6748 47.5357H1.19287M20.6748 47.5357V65.2143M20.6748 47.5357H39.7591C40.1983 47.5357 40.5543 47.8875 40.5543 48.3214V64.4286C40.5543 64.8625 40.1983 65.2143 39.7591 65.2143H20.6748M1.19287 47.5357V64.4286C1.19287 64.8625 1.54888 65.2143 1.98805 65.2143H20.6748" stroke="white" stroke-width="0.8" stroke-linecap="round"/>
<path d="M7.5542 30.25V36.1429C7.5542 36.5768 7.91022 36.9286 8.34938 36.9286H13.5181C13.9572 36.9286 14.3132 36.5768 14.3132 36.1429V30.25M7.5542 47.9286V53.4286C7.5542 53.8625 7.91022 54.2143 8.34938 54.2143H13.5181C13.9572 54.2143 14.3132 53.8625 14.3132 53.4286V47.9286M27.4337 47.9286V53.4286C27.4337 53.8625 27.7897 54.2143 28.2289 54.2143H33.3976C33.8368 54.2143 34.1928 53.8625 34.1928 53.4286V47.5357" stroke="white" stroke-width="0.8" stroke-linecap="round"/>
<path d="M15.9038 60.5H17.0966" stroke="white" stroke-width="0.8" stroke-linecap="round"/>
<path d="M15.9038 43.2144H17.0966" stroke="white" stroke-width="0.8" stroke-linecap="round"/>
<path d="M35.7832 60.5H36.976" stroke="white" stroke-width="0.8" stroke-linecap="round"/>
<path d="M44.1327 64.8216H52.8796M52.8796 64.8216H61.6266M52.8796 64.8216V25.9287M65.2049 64.8216H61.6266M61.6266 64.8216V12.1787M52.8796 25.9287V22.393C52.8796 21.959 52.5236 21.6073 52.0845 21.6073H13.9158C13.4766 21.6073 13.1206 21.959 13.1206 22.393V25.143C13.1206 25.5769 13.4766 25.9287 13.9158 25.9287H52.8796Z" stroke="white" stroke-width="0.8" stroke-linecap="round"/>
<path d="M52.8796 30.2502H24.6507M24.6507 34.5716H52.8796M52.8796 38.893H24.6507M4.37359 26.3216V12.1787M64.6003 8.49555L33.187 0.831503C33.0642 0.80152 32.9358 0.800962 32.8128 0.829861L1.80431 8.1067C1.44589 8.19077 1.19287 8.5071 1.19287 8.87112V11.9581C1.19287 12.4693 1.67904 12.8444 2.18091 12.7204L32.8085 5.15466C32.9343 5.12357 33.0659 5.12338 33.1919 5.15411L64.2191 12.7239C64.7204 12.8463 65.2049 12.4713 65.2049 11.9612V9.25832C65.2049 8.89697 64.9555 8.58213 64.6003 8.49555Z" stroke="white" stroke-width="0.8" stroke-linecap="round"/>
<path d="M36.1807 11.5894H30.6145C29.4068 11.5894 28.4277 12.5567 28.4277 13.7501C28.4277 14.9434 29.4068 15.9108 30.6145 15.9108H36.1807C37.3885 15.9108 38.3675 14.9434 38.3675 13.7501C38.3675 12.5567 37.3885 11.5894 36.1807 11.5894Z" stroke="white" stroke-width="0.8"/>
</g>
<defs>
<clipPath id="clip0_848_11821">
<rect width="66" height="66" fill="white"/>
</clipPath>
</defs>
</svg>
