<svg width="48" height="67" viewBox="0 0 48 67" fill="none" xmlns="http://www.w3.org/2000/svg">
<g clip-path="url(#clip0_848_11739)">
<path d="M3.32973 65.3139L9.13618 56.3584C9.25898 56.1691 9.46992 56.0547 9.69638 56.0547H12.1426C12.6636 56.0547 12.9833 56.6227 12.711 57.0647L7.19485 66.0202C7.07365 66.2169 6.85838 66.3369 6.62646 66.3369H3.88993C3.362 66.3369 3.04352 65.7553 3.32973 65.3139Z" stroke="white" stroke-width="0.8" stroke-linecap="round"/>
<path d="M44.67 65.3139L38.8636 56.3584C38.7408 56.1691 38.5298 56.0547 38.3034 56.0547H35.8572C35.3362 56.0547 35.0165 56.6227 35.2888 57.0647L40.8049 66.0202C40.9261 66.2169 41.1414 66.3369 41.3733 66.3369H44.1098C44.6378 66.3369 44.9562 65.7553 44.67 65.3139Z" stroke="white" stroke-width="0.8" stroke-linecap="round"/>
<path d="M4.6665 59.0396H6.99984M11.6665 59.0396H36.3332M9.33317 63.0197H38.6665M4.6665 63.0197H2.6665M40.6665 59.0396H42.6665M42.9998 63.0197H45.6665" stroke="white" stroke-width="0.8" stroke-linecap="round"/>
<path d="M15 0.663574H40.0211C40.2189 0.663574 40.4066 0.751019 40.5332 0.902267L46.8455 8.43949C46.9453 8.5587 47 8.70895 47 8.86411V40.0588C47 40.1087 46.9943 40.1584 46.9831 40.207L43.452 55.5395C43.3825 55.8409 43.113 56.0547 42.8021 56.0547H4.87543C4.55964 56.0547 4.28718 55.8342 4.22277 55.5266L1.01401 40.2008C1.00469 40.1563 1 40.111 1 40.0655V8.85476C1 8.7053 1.05073 8.56022 1.14397 8.443L7.13313 0.915189C7.2596 0.756253 7.45213 0.663574 7.65587 0.663574H11.3333" stroke="white" stroke-width="0.8" stroke-linecap="round"/>
<path d="M3.6665 9.95048V20.1181C3.6665 20.5263 4.03344 20.8376 4.4385 20.7731L19.7718 18.3319C20.0952 18.2804 20.3332 18.0028 20.3332 17.6769V9.95048C20.3332 9.5841 20.0347 9.28711 19.6665 9.28711H4.33317C3.96498 9.28711 3.6665 9.5841 3.6665 9.95048Z" stroke="white" stroke-width="0.8" stroke-linecap="round"/>
<path d="M43.3332 9.95048V20.1181C43.3332 20.5263 42.9662 20.8376 42.5612 20.7731L27.2278 18.3319C26.9044 18.2804 26.6665 18.0028 26.6665 17.6769V9.95048C26.6665 9.5841 26.965 9.28711 27.3332 9.28711H42.6665C43.0347 9.28711 43.3332 9.5841 43.3332 9.95048Z" stroke="white" stroke-width="0.8" stroke-linecap="round"/>
<path d="M1 25.8712C7.66667 24.8762 21.8501 23.2178 24 23.2178C28 23.2178 39.8889 25.0973 46.6667 25.8712" stroke="white" stroke-width="0.8" stroke-linecap="round"/>
<path d="M1.3335 40.1337H4.3335M12.3335 40.1337H35.6668M43.6668 40.1337H47.0002M15.6668 36.1535H31.3335M14.0002 32.1733H27.3335M31.0002 32.1733H33.6668M8.3335 46.7674V49.7525M13.3335 46.7674V49.7525M18.6668 46.7674V49.7525M24.0002 46.7674V49.7525M29.0002 46.7674V49.7525M34.3335 46.7674V49.7525M39.6668 46.7674V49.7525" stroke="white" stroke-width="0.8" stroke-linecap="round"/>
<path d="M8.33333 44.2796C10.4504 44.2796 12.1667 42.5718 12.1667 40.4652C12.1667 38.3586 10.4504 36.6509 8.33333 36.6509C6.21624 36.6509 4.5 38.3586 4.5 40.4652C4.5 42.5718 6.21624 44.2796 8.33333 44.2796Z" stroke="white" stroke-width="0.8"/>
<path d="M39.6668 44.2796C41.7839 44.2796 43.5002 42.5718 43.5002 40.4652C43.5002 38.3586 41.7839 36.6509 39.6668 36.6509C37.5497 36.6509 35.8335 38.3586 35.8335 40.4652C35.8335 42.5718 37.5497 44.2796 39.6668 44.2796Z" stroke="white" stroke-width="0.8"/>
<path d="M3.6665 52.7378H43.9998" stroke="white" stroke-width="0.8" stroke-linecap="round"/>
</g>
<defs>
<clipPath id="clip0_848_11739">
<rect width="48" height="67" fill="white"/>
</clipPath>
</defs>
</svg>
