<svg width="48" height="68" viewBox="0 0 48 68" fill="none" xmlns="http://www.w3.org/2000/svg">
<path d="M9.11314 24.3846C13.2347 23.9125 17.3545 23.4407 21.4773 23.001C23.4271 22.8419 25.3901 22.8964 27.3344 23.1399L27.3344 23.14L27.3385 23.1404C33.4105 23.8149 39.4825 24.5106 45.5551 25.2064L45.5554 25.2065L45.891 25.2449L45.8896 24.9072C45.8805 22.713 45.8852 20.5128 45.89 18.3115C45.8958 15.5925 45.9016 12.8716 45.8815 10.158C45.9195 9.25239 45.6059 8.47881 45.1814 7.79372C44.8823 7.31096 44.5127 6.85069 44.1658 6.41868C44.0282 6.24723 43.8941 6.08023 43.7694 5.91803L43.7695 5.9179L43.7624 5.90933C43.4352 5.5149 43.1251 5.10923 42.811 4.69813C42.671 4.51503 42.5303 4.33086 42.3868 4.14612C41.9258 3.55254 41.4436 2.96235 40.8979 2.42657C40.4731 1.99601 39.9498 1.81857 39.436 1.73894C39.0847 1.68448 38.708 1.67327 38.3649 1.66308C38.2221 1.65883 38.0852 1.65476 37.9584 1.64781L37.9493 1.64732L37.9403 1.64737C34.5919 1.66554 31.2319 1.66349 27.8708 1.66144C24.19 1.6592 20.5078 1.65695 16.838 1.68127C16.7098 1.67688 16.5842 1.67419 16.4607 1.67155C15.9756 1.66116 15.5241 1.65149 15.0842 1.54268C14.9858 1.50077 14.9368 1.44426 14.9061 1.37911C14.8687 1.29973 14.8498 1.18744 14.8525 1.03407C14.8552 0.881642 14.878 0.715981 14.9042 0.536737C14.9058 0.525883 14.9074 0.514939 14.909 0.503916C14.9187 0.437919 14.9288 0.369122 14.9376 0.3H39.6783C40.9521 0.629508 41.9027 1.46521 42.77 2.49824C43.1599 2.96264 43.5268 3.45901 43.8986 3.96213C43.9446 4.02434 43.9907 4.08665 44.0368 4.14902C44.4537 4.71203 44.8802 5.27821 45.3429 5.78895L45.3445 5.79071C46.6318 7.18919 47.3452 9.05957 47.1822 11.0058L47.1813 11.0173L47.1812 11.0289C47.1537 15.4305 47.1601 19.8263 47.1665 24.2205C47.1742 29.5703 47.182 34.9177 47.1286 40.27C46.8207 42.4939 46.3122 44.6798 45.8 46.8813C45.7313 47.1767 45.6625 47.4724 45.5941 47.7686C45.0175 50.2654 44.4712 52.7874 44.2571 55.3775C44.1476 55.882 43.9242 56.2278 43.636 56.473C43.3396 56.7251 42.9568 56.886 42.514 56.9853C41.8262 57.1395 41.0601 57.1352 40.3381 57.1312C40.1111 57.1299 39.8885 57.1287 39.6741 57.1324L39.1089 57.1422L39.4338 57.6048C39.5508 57.7714 39.6669 57.9391 39.7837 58.1079L39.7845 58.1091C39.9009 58.2772 40.0179 58.4463 40.1361 58.6145L40.2181 58.7312L40.3603 58.7413C40.4955 58.7509 40.6299 58.7599 40.7637 58.7688C41.4883 58.8172 42.1933 58.8643 42.886 58.9996C42.9926 59.1798 43.0157 59.3211 43.0047 59.4302C42.9915 59.5611 42.9246 59.6927 42.7966 59.8274C42.5303 60.1074 42.0738 60.3246 41.671 60.4783L41.3174 60.6131L41.5294 60.9266C41.8629 61.4197 42.2005 61.9128 42.5421 62.4058L42.6203 62.5187L42.7569 62.5333C42.8831 62.5467 43.0085 62.5596 43.1333 62.5723C43.8512 62.6458 44.5467 62.7171 45.2244 62.8842C45.3096 63.0209 45.334 63.1357 45.3308 63.231C45.327 63.3489 45.2798 63.4728 45.1849 63.6044C44.9883 63.877 44.6355 64.1168 44.3109 64.2979L44.132 64.3978L44.1598 64.6007C44.2733 65.4273 44.1449 66.197 43.6181 66.7334H40.2365C40.0297 66.4752 39.8323 66.2116 39.6317 65.9438C39.5232 65.7989 39.4137 65.6527 39.3013 65.5054C38.9561 65.0533 38.5911 64.602 38.1707 64.1957L38.0998 64.1272L38.002 64.1141C36.9454 63.9727 35.8683 63.9921 34.8179 64.0111C34.3644 64.0193 33.9159 64.0274 33.4761 64.0223H33.4725C25.4435 64.0266 17.4144 64.0266 9.38527 64.0223L9.23006 64.0223L9.14033 64.1489C8.87015 64.5302 8.60701 64.9103 8.34495 65.2889C8.00967 65.7732 7.67616 66.255 7.33195 66.7334H3.83398C3.23215 66.1787 3.2143 65.3145 3.38819 64.3816L3.44332 64.0858L3.14737 64.0315C3.03013 64.01 2.83117 63.9762 2.63896 63.9435C2.54203 63.9271 2.44681 63.9109 2.36466 63.8967L2.00599 63.136C2.85277 62.7545 3.76443 62.5751 4.70285 62.5304L4.85259 62.5233L4.93678 62.3992C5.10504 62.1513 5.27333 61.9044 5.44182 61.6572C5.61025 61.4102 5.77888 61.1628 5.94753 60.9143L6.11199 60.672L5.87374 60.5017C5.66729 60.3542 5.42085 60.2441 5.20953 60.1496C5.14787 60.1221 5.0892 60.0959 5.03539 60.0705C4.79816 59.9584 4.61684 59.8486 4.49005 59.691C4.42983 59.3668 4.49967 59.2053 4.5837 59.1124C4.68914 58.9958 4.88386 58.91 5.18472 58.8606C5.47931 58.8122 5.81968 58.8067 6.16795 58.8035L6.22289 58.803C6.53953 58.8003 6.87227 58.7975 7.13321 58.7499L7.25296 58.7281L7.32366 58.6291C7.41287 58.504 7.54774 58.3154 7.68275 58.1265L7.68955 58.117C7.82221 57.9314 7.95425 57.7467 8.04215 57.6236L8.34255 57.2026L7.82796 57.1508C7.4629 57.1141 7.08472 57.1119 6.71726 57.1121C6.68585 57.1121 6.65452 57.1122 6.62326 57.1122C6.28407 57.1126 5.95427 57.1129 5.63122 57.0911C4.9278 57.0436 4.30496 56.8931 3.79888 56.4477L3.79908 56.4475L3.78865 56.4391C3.51073 56.2157 3.34556 55.9044 3.24052 55.5306C3.13832 55.1668 3.09946 54.7697 3.05996 54.3659L3.05533 54.319C3.05527 54.3182 3.05521 54.3175 3.05515 54.3167C2.84987 51.8349 2.28424 49.4236 1.71311 47.0391C1.69395 46.9591 1.67477 46.8791 1.65561 46.7991C1.10299 44.4935 0.556067 42.2116 0.316319 39.8777C0.296435 31.7812 0.300961 23.6849 0.305487 15.588C0.306494 13.7876 0.3075 11.9871 0.308238 10.1867L0.308242 10.1777L0.307715 10.1688C0.243378 9.08107 0.587663 8.12037 1.12201 7.21604C1.55693 6.47998 2.10547 5.79964 2.65218 5.12158C2.78287 4.95949 2.91345 4.79754 3.04235 4.63498C3.31941 4.29938 3.59011 3.94504 3.85861 3.59358C3.935 3.49359 4.01121 3.39383 4.08734 3.2948C4.4342 2.8436 4.78249 2.40333 5.15421 2.00008C5.88891 1.20308 6.69836 0.569544 7.72634 0.3H11.4317C11.4416 0.369413 11.4524 0.437539 11.4627 0.503382L11.4634 0.507691C11.4877 0.661592 11.5101 0.803647 11.5223 0.9432C11.5421 1.1688 11.533 1.36539 11.4692 1.54486C10.9323 1.63451 10.3824 1.64215 9.80621 1.65016C9.68701 1.65182 9.56668 1.65349 9.44511 1.65591C8.69513 1.67082 7.90906 1.71501 7.14957 1.99705L7.1126 2.01078L7.08043 2.0336C6.4849 2.45604 5.99975 2.98902 5.55924 3.53774C5.36348 3.78159 5.17401 4.03183 4.98781 4.27775C4.96457 4.30844 4.94138 4.33907 4.91824 4.3696C4.70849 4.64637 4.50174 4.91685 4.28722 5.17531L4.28699 5.17512L4.27885 5.18587C4.06539 5.46793 3.83836 5.74989 3.60813 6.03583C3.02089 6.76516 2.41286 7.5203 1.95636 8.36852L1.95624 8.36845L1.95214 8.37665C1.73546 8.81053 1.6502 9.27286 1.61209 9.72037C1.58843 9.9983 1.58219 10.2927 1.57626 10.5722C1.57294 10.7287 1.56972 10.8805 1.5636 11.0221L1.56327 11.0296L1.56332 11.0372C1.58442 14.0393 1.58324 17.0421 1.58205 20.0468C1.58141 21.6655 1.58077 23.2847 1.58361 24.9047L1.5842 25.2395L1.91696 25.2023C4.31692 24.9338 6.71533 24.6592 9.11314 24.3846ZM1.85067 26.5788L1.58387 26.6083L1.58361 26.8767C1.58187 28.7105 1.58237 30.5436 1.58287 32.3761C1.58353 34.8188 1.58419 37.2606 1.57955 39.7019L1.57899 40.0002L1.8773 40.0024C2.15876 40.0045 2.44031 40.0077 2.72252 40.0109H2.72269C3.00466 40.0141 3.28729 40.0173 3.57001 40.0194L3.78714 40.021L3.85653 39.8153C4.53397 37.8064 6.22217 36.0939 8.26364 36.2678L8.27725 36.269L8.29091 36.2689C10.2285 36.2573 11.7506 37.8894 12.3715 39.8035L12.4388 40.0109H12.6569C15.118 40.0109 17.5792 40.0114 20.0405 40.0119C24.963 40.0128 29.8858 40.0137 34.8084 40.0109L35.0269 40.0108L35.0938 39.8028C35.7057 37.9004 37.2317 36.2848 39.1494 36.2732L39.1612 36.2731L39.173 36.2721C41.2229 36.0977 42.9524 37.7868 43.6073 39.8158L43.6755 40.0269L43.8973 40.0236C44.4576 40.0152 45.022 40.0109 45.5838 40.0067L45.5918 40.0067L45.8901 40.0044L45.8896 39.7061C45.8849 37.2627 45.8856 34.8201 45.8863 32.3772C45.8868 30.5441 45.8873 28.7108 45.8855 26.8767L45.8853 26.6081L45.6183 26.5788C42.9973 26.291 40.3819 25.9888 37.7648 25.6864C35.555 25.431 33.3439 25.1755 31.1272 24.9285L31.1272 24.9284L31.1212 24.9278C30.3275 24.8557 29.5271 24.7611 28.7216 24.666C26.3972 24.3914 24.0314 24.112 21.6666 24.3511L21.6656 24.3512C17.6965 24.7666 13.7276 25.2236 9.76068 25.6803C7.12289 25.984 4.48602 26.2876 1.85067 26.5788ZM2.13529 41.3752H1.76039L1.84259 41.741C2.6137 45.1727 3.37267 48.6044 4.12763 52.0407L4.17938 52.2762L4.42055 52.2763C8.53856 52.2777 12.6563 52.2756 16.7739 52.2734C25.524 52.2689 34.2733 52.2644 43.0231 52.2933L43.2618 52.2941L43.3162 52.0617C43.7876 50.0486 44.2321 48.0236 44.676 46.0015C44.9887 44.577 45.3011 43.1539 45.6224 41.7374L45.7062 41.3677L45.3272 41.371C45.0824 41.3731 44.8384 41.3742 44.5943 41.3753C44.3503 41.3763 44.1061 41.3774 43.8618 41.3795L43.6396 41.3814L43.5767 41.5945C42.9381 43.7554 40.94 45.455 38.7986 45.071L38.7866 45.0689L38.7743 45.0677C36.9996 44.8973 35.696 43.3512 35.1049 41.5843L35.0365 41.3799L34.8209 41.3795C29.5436 41.3704 24.264 41.3721 18.9857 41.3739C16.8745 41.3746 14.7634 41.3752 12.6528 41.3752H12.4315L12.3662 41.5867C11.7337 43.635 9.96799 45.2846 7.91677 45.1098L7.90836 45.1091L7.89991 45.1089C6.00408 45.0545 4.49705 43.4662 3.8818 41.5821L3.81424 41.3752H3.59662H3.59376H3.59091H3.58805H3.5852H3.58235H3.57949H3.57664H3.57378H3.57093H3.56807H3.56522H3.56237H3.55951H3.55666H3.5538H3.55095H3.5481H3.54524H3.54239H3.53953H3.53668H3.53382H3.53097H3.52812H3.52526H3.52241H3.51955H3.5167H3.51385H3.51099H3.50814H3.50528H3.50243H3.49957H3.49672H3.49387H3.49101H3.48816H3.4853H3.48245H3.4796H3.47674H3.47389H3.47103H3.46818H3.46532H3.46247H3.45962H3.45676H3.45391H3.45105H3.4482H3.44535H3.44249H3.43964H3.43678H3.43393H3.43107H3.42822H3.42537H3.42251H3.41966H3.4168H3.41395H3.4111H3.40824H3.40539H3.40253H3.39968H3.39683H3.39397H3.39112H3.38826H3.38541H3.38255H3.3797H3.37685H3.37399H3.37114H3.36828H3.36543H3.36258H3.35972H3.35687H3.35401H3.35116H3.3483H3.34545H3.3426H3.33974H3.33689H3.33403H3.33118H3.32833H3.32547H3.32262H3.31976H3.31691H3.31405H3.3112H3.30835H3.30549H3.30264H3.29978H3.29693H3.29408H3.29122H3.28837H3.28551H3.28266H3.2798H3.27695H3.2741H3.27124H3.26839H3.26553H3.26268H3.25983H3.25697H3.25412H3.25126H3.24841H3.24555H3.2427H3.23985H3.23699H3.23414H3.23128H3.22843H3.22558H3.22272H3.21987H3.21701H3.21416H3.2113H3.20845H3.2056H3.20274H3.19989H3.19703H3.19418H3.19133H3.18847H3.18562H3.18276H3.17991H3.17705H3.1742H3.17135H3.16849H3.16564H3.16278H3.15993H3.15708H3.15422H3.15137H3.14851H3.14566H3.1428H3.13995H3.1371H3.13424H3.13139H3.12853H3.12568H3.12283H3.11997H3.11712H3.11426H3.11141H3.10855H3.1057H3.10285H3.09999H3.09714H3.09428H3.09143H3.08858H3.08572H3.08287H3.08001H3.07716H3.07431H3.07145H3.0686H3.06574H3.06289H3.06003H3.05718H3.05433H3.05147H3.04862H3.04576H3.04291H3.04006H3.0372H3.03435H3.03149H3.02864H3.02578H3.02293H3.02008H3.01722H3.01437H3.01151H3.00866H3.00581H3.00295H3.0001H2.99724H2.99439H2.99153H2.98868H2.98583H2.98297H2.98012H2.97726H2.97441H2.97156H2.9687H2.96585H2.96299H2.96014H2.95728H2.95443H2.95158H2.94872H2.94587H2.94301H2.94016H2.93731H2.93445H2.9316H2.92874H2.92589H2.92303H2.92018H2.91733H2.91447H2.91162H2.90876H2.90591H2.90306H2.9002H2.89735H2.89449H2.89164H2.88878H2.88593H2.88308H2.88022H2.87737H2.87451H2.87166H2.86881H2.86595H2.8631H2.86024H2.85739H2.85453H2.85168H2.84883H2.84597H2.84312H2.84026H2.83741H2.83456H2.8317H2.82885H2.82599H2.82314H2.82028H2.81743H2.81458H2.81172H2.80887H2.80601H2.80316H2.80031H2.79745H2.7946H2.79174H2.78889H2.78604H2.78318H2.78033H2.77747H2.77462H2.77176H2.76891H2.76606H2.7632H2.76035H2.75749H2.75464H2.75179H2.74893H2.74608H2.74322H2.74037H2.73751H2.73466H2.73181H2.72895H2.7261H2.72324H2.72039H2.71754H2.71468H2.71183H2.70897H2.70612H2.70326H2.70041H2.69756H2.6947H2.69185H2.68899H2.68614H2.68329H2.68043H2.67758H2.67472H2.67187H2.66901H2.66616H2.66331H2.66045H2.6576H2.65474H2.65189H2.64904H2.64618H2.64333H2.64047H2.63762H2.63476H2.63191H2.62906H2.6262H2.62335H2.62049H2.61764H2.61479H2.61193H2.60908H2.60622H2.60337H2.60051H2.59766H2.59481H2.59195H2.5891H2.58624H2.58339H2.58054H2.57768H2.57483H2.57197H2.56912H2.56626H2.56341H2.56056H2.5577H2.55485H2.55199H2.54914H2.54629H2.54343H2.54058H2.53772H2.53487H2.53201H2.52916H2.52631H2.52345H2.5206H2.51774H2.51489H2.51204H2.50918H2.50633H2.50347H2.50062H2.49776H2.49491H2.49206H2.4892H2.48635H2.48349H2.48064H2.47779H2.47493H2.47208H2.46922H2.46637H2.46352H2.46066H2.45781H2.45495H2.4521H2.44924H2.44639H2.44354H2.44068H2.43783H2.43497H2.43212H2.42927H2.42641H2.42356H2.4207H2.41785H2.41499H2.41214H2.40929H2.40643H2.40358H2.40072H2.39787H2.39502H2.39216H2.38931H2.38645H2.3836H2.38074H2.37789H2.37504H2.37218H2.36933H2.36647H2.36362H2.36077H2.35791H2.35506H2.3522H2.34935H2.34649H2.34364H2.34079H2.33793H2.33508H2.33222H2.32937H2.32652H2.32366H2.32081H2.31795H2.3151H2.31224H2.30939H2.30654H2.30368H2.30083H2.29797H2.29512H2.29227H2.28941H2.28656H2.2837H2.28085H2.27799H2.27514H2.27229H2.26943H2.26658H2.26372H2.26087H2.25802H2.25516H2.25231H2.24945H2.2466H2.24374H2.24089H2.23804H2.23518H2.23233H2.22947H2.22662H2.22377H2.22091H2.21806H2.2152H2.21235H2.20949H2.20664H2.20379H2.20093H2.19808H2.19522H2.19237H2.18952H2.18666H2.18381H2.18095H2.1781H2.17524H2.17239H2.16954H2.16668H2.16383H2.16097H2.15812H2.15527H2.15241H2.14956H2.1467H2.14385H2.14099H2.13814H2.13529ZM4.50114 53.6534L4.11316 53.6543L4.21166 54.0295C4.28434 54.3064 4.35524 54.5817 4.42654 54.8585C4.47884 55.0615 4.53135 55.2654 4.58495 55.4714L4.64289 55.6941L4.87302 55.6959C11.3819 55.7449 17.8976 55.7374 24.4117 55.7299C29.7399 55.7238 35.067 55.7177 40.3883 55.7426L40.3933 55.7425C40.4967 55.7413 40.6015 55.7406 40.7073 55.74C41.3117 55.7362 41.9501 55.7321 42.578 55.619L42.7452 55.5889L42.8054 55.4301C42.9774 54.9763 43.1413 54.5138 43.293 54.0511L43.4214 53.6591L43.009 53.6576C30.1768 53.611 17.3367 53.6237 4.50114 53.6534ZM10.0766 57.0772L9.91033 57.0742L9.81966 57.2136C8.16234 59.7609 6.52933 62.3296 4.9247 64.9195L4.63694 65.384L5.18329 65.3775C5.53933 65.3733 6.24851 65.369 6.60046 65.369H6.76523L6.85363 65.23C7.37634 64.4078 7.897 63.5848 8.4174 62.7623C9.51505 61.0274 10.6115 59.2943 11.7235 57.574L12.0132 57.1258L11.4797 57.1112L11.4765 57.1111C11.011 57.0985 10.5439 57.0857 10.0766 57.0772ZM13.7411 57.0899L13.5798 57.0897L13.4907 57.2241C13.2423 57.5986 12.9982 57.9729 12.7547 58.3461L12.4527 58.809L13.0054 58.81C20.1541 58.8227 27.2988 58.8227 34.4475 58.81L34.9902 58.809L34.7007 58.3499C34.4655 57.977 34.2346 57.6086 34.0037 57.2361L33.9158 57.0943L33.7489 57.0942C30.8904 57.0923 28.0323 57.0929 25.1744 57.0934C21.3633 57.0941 17.5525 57.0948 13.7411 57.0899ZM35.9802 57.1069L35.4353 57.1164L35.7347 57.5717C36.9165 59.3686 38.0625 61.1922 39.2106 63.0192C39.6736 63.756 40.1369 64.4932 40.603 65.2295L40.6913 65.369H40.8565H40.8586H40.8607H40.8629H40.865H40.8672H40.8693H40.8715H40.8737H40.8759H40.8781H40.8803H40.8825H40.8847H40.8869H40.8892H40.8914H40.8936H40.8959H40.8982H40.9004H40.9027H40.905H40.9073H40.9096H40.9119H40.9142H40.9165H40.9189H40.9212H40.9236H40.9259H40.9283H40.9307H40.933H40.9354H40.9378H40.9402H40.9426H40.945H40.9474H40.9499H40.9523H40.9547H40.9572H40.9596H40.9621H40.9646H40.967H40.9695H40.972H40.9745H40.977H40.9795H40.982H40.9845H40.987H40.9896H40.9921H40.9947H40.9972H40.9998H41.0023H41.0049H41.0075H41.0101H41.0127H41.0153H41.0179H41.0205H41.0231H41.0257H41.0283H41.031H41.0336H41.0362H41.0389H41.0415H41.0442H41.0469H41.0495H41.0522H41.0549H41.0576H41.0603H41.063H41.0657H41.0684H41.0711H41.0738H41.0766H41.0793H41.082H41.0848H41.0875H41.0903H41.093H41.0958H41.0986H41.1014H41.1041H41.1069H41.1097H41.1125H41.1153H41.1181H41.1209H41.1237H41.1265H41.1294H41.1322H41.135H41.1379H41.1407H41.1436H41.1464H41.1493H41.1521H41.155H41.1579H41.1607H41.1636H41.1665H41.1694H41.1723H41.1752H41.1781H41.181H41.1839H41.1868H41.1897H41.1926H41.1956H41.1985H41.2014H41.2044H41.2073H41.2103H41.2132H41.2162H41.2191H41.2221H41.225H41.228H41.231H41.2339H41.2369H41.2399H41.2429H41.2459H41.2489H41.2519H41.2549H41.2579H41.2609H41.2639H41.2669H41.2699H41.2729H41.2759H41.279H41.282H41.285H41.2881H41.2911H41.2941H41.2972H41.3002H41.3033H41.3063H41.3094H41.3124H41.3155H41.3186H41.3216H41.3247H41.3278H41.3308H41.3339H41.337H41.3401H41.3432H41.3462H41.3493H41.3524H41.3555H41.3586H41.3617H41.3648H41.3679H41.371H41.3741H41.3772H41.3803H41.3835H41.3866H41.3897H41.3928H41.3959H41.399H41.4022H41.4053H41.4084H41.4115H41.4147H41.4178H41.4209H41.4241H41.4272H41.4304H41.4335H41.4366H41.4398H41.4429H41.4461H41.4492H41.4524H41.4555H41.4587H41.4618H41.465H41.4681H41.4713H41.4744H41.4776H41.4808H41.4839H41.4871H41.4902H41.4934H41.4966H41.4997H41.5029H41.5061H41.5092H41.5124H41.5156H41.5187H41.5219H41.5251H41.5283H41.5314H41.5346H41.5378H41.5409H41.5441H41.5473H41.5505H41.5536H41.5568H41.56H41.5632H41.5663H41.5695H41.5727H41.5759H41.579H41.5822H41.5854H41.5886H41.5917H41.5949H41.5981H41.6013H41.6044H41.6076H41.6108H41.614H41.6171H41.6203H41.6235H41.6266H41.6298H41.633H41.6362H41.6393H41.6425H41.6457H41.6488H41.652H41.6552H41.6583H41.6615H41.6647H41.6678H41.671H41.6741H41.6773H41.6805H41.6836H41.6868H41.6899H41.6931H41.6962H41.6994H41.7025H41.7057H41.7089H41.712H41.7151H41.7183H41.7214H41.7246H41.7277H41.7309H41.734H41.7371H41.7403H41.7434H41.7465H41.7496H41.7528H41.7559H41.759H41.7621H41.7653H41.7684H41.7715H41.7746H41.7777H41.7808H41.7839H41.7871H41.7902H41.7933H41.7964H41.7995H41.8026H41.8056H41.8087H41.8118H41.8149H41.818H41.8211H41.8242H41.8272H41.8303H41.8334H41.8364H41.8395H41.8426H41.8456H41.8487H41.8517H41.8548H41.8578H41.8609H41.8639H41.867H41.87H41.873H41.8761H41.8791H41.8821H41.8851H41.8882H41.8912H41.8942H41.8972H41.9002H41.9032H41.9062H41.9092H41.9122H41.9152H41.9182H41.9211H41.9241H41.9271H41.9301H41.933H41.936H41.939H41.9419H41.9449H41.9478H41.9508H41.9537H41.9566H41.9596H41.9625H41.9654H41.9683H41.9713H41.9742H41.9771H41.98H41.9829H41.9858H41.9887H41.9916H41.9944H41.9973H42.0002H42.0031H42.0059H42.0088H42.0117H42.0145H42.0174H42.0202H42.023H42.0259H42.0287H42.0315H42.0343H42.0372H42.04H42.0428H42.0456H42.0484H42.0512H42.0539H42.0567H42.0595H42.0623H42.065H42.0678H42.0705H42.0733H42.076H42.0788H42.0815H42.0842H42.087H42.0897H42.0924H42.0951H42.0978H42.1005H42.1032H42.1059H42.1085H42.1112H42.1139H42.1165H42.1192H42.1218H42.1245H42.1271H42.1297H42.1324H42.135H42.1376H42.1402H42.1428H42.1454H42.148H42.1506H42.1532H42.1557H42.1583H42.1609H42.1634H42.1659H42.1685H42.171H42.1735H42.1761H42.1786H42.1811H42.1836H42.1861H42.1886H42.191H42.1935H42.196H42.1984H42.2009H42.2033H42.2058H42.2082H42.2106H42.2131H42.2155H42.2179H42.2203H42.2227H42.225H42.2274H42.2298H42.2321H42.2345H42.2368H42.2392H42.2415H42.2438H42.2462H42.2485H42.2508H42.2531H42.2554H42.2576H42.2599H42.2622H42.2644H42.2667H42.2689H42.2712H42.2734H42.2756H42.2778H42.28H42.2822H42.2844H42.2866H42.2887H42.2909H42.293H42.2952H42.2973H42.2995H42.3016H42.8434L42.5558 64.9098C41.82 63.7348 41.08 62.5715 40.3408 61.4095C39.4586 60.0225 38.5774 58.6373 37.7055 57.2357L37.6175 57.0942H37.4508C36.9579 57.0942 36.469 57.0984 35.9802 57.1069ZM10.3388 62.1527L10.0436 62.6093L10.5872 62.6156C14.4336 62.6603 18.2696 62.6479 22.1027 62.6355C27.0254 62.6197 31.9432 62.6038 36.872 62.7089L37.4072 62.7203L37.1376 62.2578C36.9941 62.0116 36.8506 61.7671 36.7074 61.5232C36.4762 61.1292 36.246 60.7368 36.018 60.3414L35.9318 60.192L35.7593 60.1913C31.7627 60.1743 27.7661 60.1775 23.771 60.1807H23.7693H23.7687C19.7729 60.1838 15.7786 60.187 11.7854 60.1701L11.6213 60.1694L11.5322 60.3071L10.9355 61.2299L10.3388 62.1527ZM9.62528 38.0667C8.7558 37.5258 7.60481 37.3996 6.66397 38.0244C5.67922 38.5674 5.21328 39.6528 5.21766 40.698C5.22204 41.7428 5.69662 42.8226 6.68573 43.3543C7.60618 43.9641 8.73028 43.8513 9.58903 43.3345C10.4465 42.8184 11.0881 41.8716 11.0295 40.7472C11.1311 39.5905 10.4937 38.607 9.62528 38.0667ZM40.8504 38.0743C39.9834 37.5335 38.8385 37.4041 37.8941 38.023C36.9497 38.5294 36.4615 39.5398 36.4144 40.5411C36.3672 41.5425 36.758 42.5971 37.6496 43.1979C38.5584 43.9355 39.7526 43.8912 40.6803 43.3974C41.6075 42.9039 42.3266 41.9321 42.2693 40.7415C42.3541 39.5942 41.7165 38.6146 40.8504 38.0743Z" fill="white" stroke="#1B1B1F" stroke-width="0.6"/>
<path d="M19.2689 9.14982L19.2864 9.1501L19.3038 9.14834C20.1155 9.06635 20.9433 9.72692 20.9302 10.5805L20.9301 10.5878L20.9304 10.5951C20.9978 12.6074 20.9809 14.6222 20.964 16.6423C20.9607 17.0463 20.9573 17.4505 20.9546 17.8549L20.9544 17.8725L20.9564 17.89C21.0635 18.8553 20.2082 19.6564 19.2951 19.6528L19.2768 19.6527L19.2586 19.6549C15.5351 20.097 11.8093 20.5069 8.08346 20.9168C7.12761 21.022 6.17176 21.1272 5.21595 21.2329L5.20436 21.2341L5.19291 21.2363C4.78065 21.3147 4.32067 21.2198 3.9621 20.984C3.60852 20.7514 3.36652 20.3921 3.34858 19.9367L3.34877 19.9367L3.34796 19.9261C3.25358 18.6709 3.25037 17.4077 3.26152 16.1339C3.26354 15.9035 3.26603 15.6726 3.26852 15.4414C3.27975 14.4007 3.29106 13.3526 3.25963 12.3073C3.26425 12.1424 3.26497 11.9765 3.26568 11.8108C3.26754 11.3793 3.2694 10.9492 3.34033 10.5404C3.43486 9.99555 3.64185 9.56988 4.08738 9.32056C4.40406 9.1937 4.74497 9.14764 5.1139 9.13209C5.30108 9.12421 5.4904 9.12427 5.68674 9.12434L5.68817 9.12434C5.88004 9.1244 6.07883 9.12445 6.2766 9.11599C8.31635 9.13987 10.3559 9.13376 12.3924 9.12766C12.52 9.12728 12.6476 9.1269 12.7751 9.12652C14.9425 9.12016 17.1065 9.11593 19.2689 9.14982ZM4.87141 10.493H4.571L4.57141 10.7934C4.57344 12.2632 4.57344 13.7331 4.57344 15.2027C4.57344 16.6722 4.57344 18.1414 4.57547 19.6096L4.57594 19.9458L4.90993 19.9072C7.14566 19.6486 9.38802 19.4012 11.631 19.1537C14.2359 18.8663 16.8416 18.5788 19.4385 18.2737L19.7035 18.2425V17.9757V17.9617V17.9477V17.9337V17.9196V17.9056V17.8916V17.8776V17.8636V17.8495V17.8355V17.8215V17.8075V17.7935V17.7794V17.7654V17.7514V17.7374V17.7234V17.7093V17.6953V17.6813V17.6673V17.6533V17.6392V17.6252V17.6112V17.5972V17.5832V17.5691V17.5551V17.5411V17.5271V17.5131V17.499V17.485V17.471V17.457V17.443V17.4289V17.4149V17.4009V17.3869V17.3728V17.3588V17.3448V17.3308V17.3168V17.3027V17.2887V17.2747V17.2607V17.2467V17.2326V17.2186V17.2046V17.1906V17.1766V17.1625V17.1485V17.1345V17.1205V17.1065V17.0924V17.0784V17.0644V17.0504V17.0364V17.0223V17.0083V16.9943V16.9803V16.9663V16.9522V16.9382V16.9242V16.9102V16.8962V16.8821V16.8681V16.8541V16.8401V16.826V16.812V16.798V16.784V16.77V16.7559V16.7419V16.7279V16.7139V16.6999V16.6858V16.6718V16.6578V16.6438V16.6298V16.6157V16.6017V16.5877V16.5737V16.5597V16.5456V16.5316V16.5176V16.5036V16.4896V16.4755V16.4615V16.4475V16.4335V16.4195V16.4054V16.3914V16.3774V16.3634V16.3493V16.3353V16.3213V16.3073V16.2933V16.2792V16.2652V16.2512V16.2372V16.2232V16.2091V16.1951V16.1811V16.1671V16.1531V16.139V16.125V16.111V16.097V16.083V16.0689V16.0549V16.0409V16.0269V16.0129V15.9988V15.9848V15.9708V15.9568V15.9428V15.9287V15.9147V15.9007V15.8867V15.8727V15.8586V15.8446V15.8306V15.8166V15.8025V15.7885V15.7745V15.7605V15.7465V15.7324V15.7184V15.7044V15.6904V15.6764V15.6623V15.6483V15.6343V15.6203V15.6063V15.5922V15.5782V15.5642V15.5502V15.5362V15.5221V15.5081V15.4941V15.4801V15.4661V15.452V15.438V15.424V15.41V15.396V15.3819V15.3679V15.3539V15.3399V15.3259V15.3118V15.2978V15.2838V15.2698V15.2557V15.2417V15.2277V15.2137V15.1997V15.1856V15.1716V15.1576V15.1436V15.1296V15.1155V15.1015V15.0875V15.0735V15.0595V15.0454V15.0314V15.0174V15.0034V14.9894V14.9753V14.9613V14.9473V14.9333V14.9193V14.9052V14.8912V14.8772V14.8632V14.8492V14.8351V14.8211V14.8071V14.7931V14.7791V14.765V14.751V14.737V14.723V14.7089V14.6949V14.6809V14.6669V14.6529V14.6388V14.6248V14.6108V14.5968V14.5828V14.5687V14.5547V14.5407V14.5267V14.5127V14.4986V14.4846V14.4706V14.4566V14.4426V14.4285V14.4145V14.4005V14.3865V14.3725V14.3584V14.3444V14.3304V14.3164V14.3024V14.2883V14.2743V14.2603V14.2463V14.2323V14.2182V14.2042V14.1902V14.1762V14.1621V14.1481V14.1341V14.1201V14.1061V14.092V14.078V14.064V14.05V14.036V14.0219V14.0079V13.9939V13.9799V13.9659V13.9518V13.9378V13.9238V13.9098V13.8958V13.8817V13.8677V13.8537V13.8397V13.8257V13.8116V13.7976V13.7836V13.7696V13.7556V13.7415V13.7275V13.7135V13.6995V13.6854V13.6714V13.6574V13.6434V13.6294V13.6153V13.6013V13.5873V13.5733V13.5593V13.5452V13.5312V13.5172V13.5032V13.4892V13.4751V13.4611V13.4471V13.4331V13.4191V13.405V13.391V13.377V13.363V13.349V13.3349V13.3209V13.3069V13.2929V13.2789V13.2648V13.2508V13.2368V13.2228V13.2088V13.1947V13.1807V13.1667V13.1527V13.1386V13.1246V13.1106V13.0966V13.0826V13.0685V13.0545V13.0405V13.0265V13.0125V12.9984V12.9844V12.9704V12.9564V12.9424V12.9283V12.9143V12.9003V12.8863V12.8723V12.8582V12.8442V12.8302V12.8162V12.8022V12.7881V12.7741V12.7601V12.7461V12.7321V12.718V12.704V12.69V12.676V12.662V12.6479V12.6339V12.6199V12.6059V12.5918V12.5778V12.5638V12.5498V12.5358V12.5217V12.5077V12.4937V12.4797V12.4657V12.4516V12.4376V12.4236V12.4096V12.3956V12.3815V12.3675V12.3535V12.3395V12.3255V12.3114V12.2974V12.2834V12.2694V12.2554V12.2413V12.2273V12.2133V12.1993V12.1853V12.1712V12.1572V12.1432V12.1292V12.1152V12.1011V12.0871V12.0731V12.0591V12.045V12.031V12.017V12.003V11.989V11.9749V11.9609V11.9469V11.9329V11.9189V11.9048V11.8908V11.8768V11.8628V11.8488V11.8347V11.8207V11.8067V11.7927V11.7787V11.7646V11.7506V11.7366V11.7226V11.7086V11.6945V11.6805V11.6665V11.6525V11.6385V11.6244V11.6104V11.5964V11.5824V11.5684V11.5543V11.5403V11.5263V11.5123V11.4982V11.4842V11.4702V11.4562V11.4422V11.4281V11.4141V11.4001V11.3861V11.3721V11.358V11.344V11.33V11.316V11.302V11.2879V11.2739V11.2599V11.2459V11.2319V11.2178V11.2038V11.1898V11.1758V11.1618V11.1477V11.1337V11.1197V11.1057V11.0917V11.0776V11.0636V11.0496V11.0356V11.0215V11.0075V10.9935V10.9795V10.9655V10.9514V10.9374V10.9234V10.9094V10.8954V10.8813V10.8673V10.8533V10.8393V10.8253V10.8112V10.7972V10.498L19.4043 10.4972C15.945 10.4881 12.4854 10.4899 9.0249 10.4916C7.64057 10.4923 6.25609 10.493 4.87141 10.493Z" fill="white" stroke="#1B1B1F" stroke-width="0.6"/>
<path d="M26.8869 9.39907L26.8869 9.39911L26.8916 9.39632C27.1756 9.22774 27.5003 9.16392 27.8676 9.14134C28.0515 9.13003 28.239 9.12931 28.4354 9.12871L28.4428 9.12869C28.63 9.12812 28.8258 9.12752 29.0186 9.11605C31.033 9.14459 33.0332 9.1364 35.03 9.12822C37.4893 9.11815 39.9435 9.1081 42.4123 9.16674L42.424 9.16702L42.4358 9.16638C43.1654 9.12642 43.8293 9.81445 43.8122 10.6211L43.812 10.6288L43.8122 10.6365C43.8843 13.0383 43.8662 15.442 43.8481 17.8506C43.8438 18.4175 43.8395 18.9848 43.8364 19.5523L43.8363 19.5701L43.8383 19.5878C43.9538 20.6062 42.985 21.4454 42.0686 21.2344L42.0509 21.2304L42.0328 21.2285C37.2926 20.7279 32.5527 20.202 27.821 19.6421L27.8098 19.6408L27.7986 19.6403C27.0054 19.6064 26.233 19.0242 26.2266 18.2279L26.2269 18.2279L26.2263 18.2159C26.176 17.1702 26.1749 16.1207 26.181 15.0644C26.182 14.889 26.1832 14.7133 26.1844 14.5375C26.1905 13.658 26.1965 12.7734 26.178 11.8899C26.1787 11.7938 26.1786 11.6976 26.1784 11.6014C26.1777 11.1939 26.177 10.789 26.2483 10.4135C26.334 9.96179 26.5146 9.61102 26.8869 9.39907ZM27.7693 10.493L27.4716 10.4932L27.4695 10.7909C27.4676 11.0808 27.4654 11.3708 27.4632 11.661C27.4472 13.7681 27.4311 15.8852 27.5063 17.9991L27.5155 18.2581L27.773 18.2866C29.2582 18.4511 30.7436 18.6189 32.2294 18.7867C35.5691 19.164 38.9106 19.5414 42.255 19.8821L42.5877 19.916L42.5854 19.5816C42.5696 17.3026 42.571 15.0238 42.5724 12.7437C42.5728 12.0922 42.5732 11.4405 42.5732 10.7887V10.4882L42.2727 10.4887C39.5101 10.4936 36.7483 10.4929 33.9861 10.4922C31.9142 10.4917 29.8421 10.4912 27.7693 10.493Z" fill="white" stroke="#1B1B1F" stroke-width="0.6"/>
<path d="M14.4192 33.0426L14.3913 33.0426L14.3638 33.0476C14.1407 33.0891 13.9957 33.02 13.8954 32.9098C13.7839 32.7872 13.7117 32.5927 13.7057 32.3811C13.6996 32.1682 13.7613 31.9847 13.8583 31.8758C13.941 31.7828 14.0749 31.7134 14.315 31.7649L14.3479 31.772L14.3816 31.7716C18.5749 31.7207 22.7704 31.6784 26.9525 31.7927C27.1051 31.798 27.1732 31.8451 27.2123 31.8901C27.2604 31.9454 27.3005 32.0401 27.3203 32.1906C27.3516 32.4281 27.324 32.6959 27.2966 32.9615C27.2966 32.9621 27.2965 32.9627 27.2964 32.9633C24.129 33.1247 20.956 33.0952 17.7735 33.0656C16.6566 33.0552 15.5386 33.0448 14.4192 33.0426Z" fill="white" stroke="#1B1B1F" stroke-width="0.6"/>
<path d="M30.4818 32.3825C30.4661 32.0747 30.5984 31.8736 30.7899 31.8237C31.7131 31.6444 32.6782 31.6649 33.6151 31.8342C33.9002 32.1555 33.8438 32.7127 33.4974 32.9688C32.6388 33.1565 31.7242 33.1439 30.8508 32.9822C30.6578 32.9225 30.4976 32.6911 30.4818 32.3825Z" fill="white" stroke="#1B1B1F" stroke-width="0.6"/>
<path d="M31.8129 36.4764L31.8124 36.4843L31.8124 36.4921C31.8108 36.6874 31.7555 36.7969 31.6904 36.8671C31.6195 36.9435 31.5081 37.0041 31.3464 37.0464C31.185 37.0885 30.9963 37.1066 30.7943 37.1147C30.6943 37.1187 30.5947 37.1201 30.4956 37.1215L30.4876 37.1216C30.3956 37.1229 30.3026 37.1242 30.216 37.1278C28.165 37.107 26.1234 37.1131 24.0843 37.1192C21.5369 37.1269 18.9935 37.1345 16.4408 37.0897L16.4064 37.0891L16.3727 37.0963C16.1974 37.1338 16.0632 37.1015 15.9612 37.0386C15.8548 36.9729 15.7653 36.8622 15.7094 36.7186C15.6063 36.4539 15.6362 36.1341 15.8148 35.9056C18.1057 35.721 20.4112 35.713 22.7286 35.7348C23.1921 35.7392 23.6563 35.7448 24.1209 35.7504C26.0111 35.7731 27.9089 35.7959 29.8004 35.7383C29.9348 35.7441 30.0955 35.7424 30.2566 35.7407C30.3426 35.7397 30.4287 35.7388 30.5109 35.739C30.7667 35.7398 31.0132 35.7506 31.2264 35.7941C31.4418 35.8379 31.5899 35.9085 31.6804 36.0024C31.7614 36.0864 31.8282 36.2222 31.8129 36.4764Z" fill="white" stroke="#1B1B1F" stroke-width="0.6"/>
<path d="M7.80122 47.0023L7.8014 47.0025L7.80941 46.9933C7.91516 46.8721 8.11271 46.8383 8.34865 46.961C8.58497 47.0838 8.72693 47.3024 8.71669 47.4973L8.71565 47.5171L8.71722 47.5368C8.79547 48.5224 8.8376 49.5018 8.5818 50.4091C8.37694 50.5223 8.10555 50.564 7.88683 50.5107C7.76753 50.4816 7.67937 50.4282 7.62226 50.3601C7.56777 50.2951 7.52318 50.1951 7.5261 50.0344L7.52636 50.0344L7.52607 50.0219C7.52023 49.7749 7.49496 49.5095 7.47021 49.2495C7.46781 49.2243 7.46541 49.1991 7.46304 49.174C7.43572 48.885 7.41088 48.6009 7.40944 48.3266C7.40652 47.7717 7.50074 47.3197 7.80122 47.0023Z" fill="white" stroke="#1B1B1F" stroke-width="0.6"/>
<path d="M13.9173 47.5289L13.9138 47.5584L13.9163 47.5881C13.9892 48.4853 13.931 49.3859 13.8713 50.3097C13.8687 50.3492 13.8662 50.3888 13.8636 50.4284C13.8249 50.4314 13.7867 50.4346 13.7492 50.4377L13.7427 50.4383C13.6143 50.449 13.4938 50.4589 13.3752 50.4629C13.1878 50.4691 13.0197 50.4596 12.8649 50.4196C12.5061 49.4323 12.5414 48.2991 12.7856 47.2487C12.8258 47.0925 12.9111 47.0066 13.0114 46.9593C13.1208 46.9078 13.2676 46.8946 13.4213 46.9309C13.7421 47.0065 13.9505 47.245 13.9173 47.5289Z" fill="white" stroke="#1B1B1F" stroke-width="0.6"/>
<path d="M18.2294 46.9908L18.2591 46.9793L18.2857 46.9619C18.4701 46.8411 18.7074 46.876 18.9211 47.0741C19.1371 47.2744 19.2451 47.5739 19.1756 47.8282L19.1677 47.8573L19.1657 47.8874C19.1488 48.1406 19.1625 48.429 19.1756 48.7057C19.177 48.7351 19.1784 48.7642 19.1797 48.7933C19.1942 49.1061 19.2044 49.4063 19.1781 49.6778C19.1516 49.9505 19.0907 50.163 18.9858 50.3148C18.8947 50.4468 18.7559 50.5543 18.518 50.6064C18.3278 50.5706 18.2067 50.4876 18.1206 50.3809C18.0208 50.2574 17.9516 50.0811 17.9095 49.8536C17.8675 49.6274 17.8562 49.3731 17.8557 49.1105C17.8555 49.0056 17.8572 48.8911 17.8589 48.7774C17.861 48.6383 17.8631 48.5004 17.8616 48.3825C17.8824 48.2449 17.8912 48.0934 17.8992 47.9543C17.8998 47.9449 17.9003 47.9357 17.9008 47.9264C17.9104 47.7628 17.9203 47.611 17.9438 47.4714C17.992 47.1854 18.0802 47.0484 18.2294 46.9908Z" fill="white" stroke="#1B1B1F" stroke-width="0.6"/>
<path d="M23.3027 47.1094L23.3116 47.1008L23.3197 47.0915C23.4491 46.9429 23.5749 46.8927 23.6798 46.8851C23.7898 46.8771 23.9121 46.9137 24.0303 47C24.2743 47.1781 24.4382 47.5221 24.3773 47.8594L24.3735 47.8802L24.3727 47.9013C24.3648 48.1077 24.377 48.353 24.389 48.5969C24.392 48.6556 24.3949 48.7143 24.3975 48.7723C24.4114 49.082 24.4185 49.3879 24.3889 49.6631C24.359 49.9414 24.2946 50.1558 24.1902 50.3022C24.0969 50.4331 23.9567 50.5314 23.7099 50.5577C23.5297 50.5634 23.4266 50.5113 23.3562 50.4436C23.2752 50.3658 23.2084 50.2385 23.1606 50.0538C23.0823 49.7511 23.0761 49.3944 23.0702 49.0584C23.0689 48.9805 23.0675 48.9036 23.0653 48.8289C23.0887 48.6571 23.0904 48.4787 23.0886 48.3129C23.088 48.2617 23.0872 48.2121 23.0863 48.1636C23.0841 48.039 23.082 47.9219 23.0858 47.8042C23.0965 47.4755 23.1534 47.2549 23.3027 47.1094Z" fill="white" stroke="#1B1B1F" stroke-width="0.6"/>
<path d="M29.5892 47.8534L29.5858 47.8724L29.5848 47.8918C29.5736 48.1121 29.5868 48.3748 29.5997 48.6336C29.602 48.6788 29.6043 48.7238 29.6064 48.7685C29.6212 49.0799 29.6304 49.387 29.6036 49.6636C29.5764 49.9435 29.5149 50.1577 29.4139 50.3028C29.3241 50.4318 29.1885 50.5282 28.9444 50.5522C28.7381 50.5631 28.6254 50.5092 28.5538 50.4442C28.4729 50.3708 28.4069 50.2487 28.361 50.0652C28.3154 49.8832 28.2964 49.6686 28.2884 49.4394C28.2845 49.3259 28.2832 49.2126 28.2821 49.1002L28.282 49.087C28.2811 48.989 28.2801 48.8907 28.2772 48.7983C28.2974 48.6246 28.298 48.4447 28.2963 48.2774C28.296 48.2422 28.2955 48.2075 28.2951 48.1734C28.2932 48.0317 28.2914 47.8991 28.2975 47.7683C28.3127 47.4449 28.3746 47.2153 28.5365 47.0552C28.6721 46.9309 28.8024 46.8881 28.915 46.886C29.032 46.8839 29.1546 46.9255 29.2675 47.0106C29.4985 47.1847 29.6511 47.5126 29.5892 47.8534Z" fill="white" stroke="#1B1B1F" stroke-width="0.6"/>
<path d="M33.7717 47.0723L33.786 47.0619L33.7989 47.0499C33.9406 46.9185 34.0645 46.8818 34.1616 46.8825C34.2628 46.8833 34.3723 46.9249 34.4787 47.0147C34.6996 47.201 34.8507 47.5485 34.8148 47.8795L34.8126 47.8997L34.8132 47.92C34.8169 48.0581 34.8247 48.2055 34.8328 48.3579C34.8575 48.8238 34.8846 49.3369 34.8069 49.778C34.7565 50.0644 34.6681 50.2702 34.5439 50.396C34.4413 50.4999 34.2861 50.578 34.0183 50.5666C33.5936 50.2707 33.4486 49.7623 33.4504 49.1011C33.4514 48.7605 33.4917 48.4006 33.541 48.0417C33.5553 47.9378 33.5705 47.8328 33.5856 47.7284C33.6144 47.5302 33.6428 47.3339 33.664 47.1509L33.7717 47.0723Z" fill="white" stroke="#1B1B1F" stroke-width="0.6"/>
<path d="M38.6974 49.2557C38.6413 48.6181 38.7147 47.9418 38.8084 47.2908C38.8797 47.0517 39.1084 46.9107 39.3756 46.9118C39.6424 46.913 39.8536 47.0538 39.9069 47.2959C39.9148 47.3565 39.923 47.4177 39.9312 47.4794C40.0177 48.1305 40.1116 48.8373 40.0336 49.46C39.9914 49.7972 39.9003 50.0893 39.744 50.3233C39.6217 50.5063 39.4532 50.6636 39.2164 50.7807C38.898 50.3428 38.7472 49.8223 38.6974 49.2557Z" fill="white" stroke="#1B1B1F" stroke-width="0.6"/>
</svg>
