<svg width="39" height="40" viewBox="0 0 39 40" fill="none" xmlns="http://www.w3.org/2000/svg">
<path d="M22.2482 7.6875C23.2482 6.6875 25.2971 4.40084 26.2482 3.6875C28.2482 2.18748 29.7482 1.6875 31.7482 2.1875C33.4256 2.60684 37.2131 3.72945 37.5066 8.80008C37.6346 11.0132 36.4065 13.0242 34.8527 14.6053C30.3691 19.1673 26.6112 23.1651 25.2482 24.1873C23.2482 25.6873 20.2482 25.6873 16.7482 23.1873M22.7638 17.1875C21.5971 16.5208 18.8638 15.1875 17.2638 15.1875C15.7637 15.1875 14.7637 15.6875 13.2637 17.1875C11.9889 18.4623 3.14095 27.372 2.26376 28.6875C1.26353 30.1875 0.263755 33.6875 3.26376 36.1875C6.26376 38.6875 8.28309 38.3836 9.26367 38.1875C11.7637 37.6875 15.779 33.6875 16.2636 33.1875" stroke="#737383" stroke-width="2.2" stroke-linecap="round"/>
</svg>
