<svg width="31" height="30" viewBox="0 0 31 30" fill="none" xmlns="http://www.w3.org/2000/svg">
<path d="M17.7866 5.3853C18.5866 4.61426 20.2256 2.85115 20.9865 2.30114C22.5864 1.14456 23.7863 0.759051 25.3862 1.14457C26.728 1.4679 29.7579 2.33348 29.9927 6.24315C30.0951 7.94956 29.1126 9.50013 27.8697 10.7192C24.283 14.2367 21.2768 17.3192 20.1865 18.1073C18.5866 19.2639 16.1867 19.2639 13.3869 17.3363M18.1991 12.7102C17.2658 12.1962 15.0793 11.1681 13.7993 11.1681C12.5993 11.1681 11.7994 11.5536 10.5995 12.7102C9.57967 13.6931 2.50174 20.5629 1.80002 21.5772C0.999887 22.7338 0.200112 25.4324 2.59998 27.36C4.99984 29.2876 6.61521 29.0533 7.39963 28.9021C9.39952 28.5166 12.6116 25.4324 12.9992 25.0469" stroke="#5C5C5C" stroke-width="1.7" stroke-linecap="round"/>
</svg>
