<svg width="27" height="26" viewBox="0 0 27 26" fill="none" xmlns="http://www.w3.org/2000/svg">
<path d="M15.4712 4.75883C16.1609 4.09794 17.5738 2.5867 18.2297 2.11526C19.6089 1.12391 20.6434 0.793473 22.0226 1.12392C23.1794 1.40106 25.7913 2.14298 25.9937 5.49413C26.0819 6.95677 25.235 8.28582 24.1635 9.33076C21.0715 12.3458 18.48 14.9879 17.5401 15.6634C16.1609 16.6548 14.092 16.6548 11.6784 15.0025M15.8268 11.0373C15.0222 10.5967 13.1373 9.71553 12.0339 9.71553C10.9994 9.71553 10.3098 10.046 9.27539 11.0373C8.39627 11.8798 2.2946 17.7682 1.68968 18.6376C0.999902 19.6289 0.310442 21.9421 2.37929 23.5943C4.44814 25.2465 5.8407 25.0457 6.51692 24.9161C8.24096 24.5856 11.01 21.9421 11.3442 21.6116" stroke="#737383" stroke-width="1.5" stroke-linecap="round"/>
</svg>
