<svg width="24" height="30" viewBox="0 0 24 30" fill="none" xmlns="http://www.w3.org/2000/svg">
<path d="M12.7365 29.3188L12.7254 29.327L12.715 29.3359C12.5158 29.5064 12.2622 29.6 12 29.6C11.7378 29.6 11.4842 29.5064 11.285 29.3359L11.2845 29.3355C11.0484 29.1309 8.3232 26.7692 5.65514 23.4601C2.96125 20.1189 0.4 15.9013 0.4 12C0.4 8.92346 1.62214 5.97296 3.79756 3.79755C5.97298 1.62214 8.92349 0.4 12 0.4C15.0765 0.4 18.027 1.62214 20.2024 3.79755C22.3779 5.97296 23.6 8.92346 23.6 12C23.6 15.9021 21.0565 20.1202 18.3726 23.4606C15.6998 26.7871 12.9675 29.1472 12.7365 29.3188ZM11.7262 26.7665L11.9993 27.023L12.2731 26.7672C13.8843 25.2619 16.1542 22.8753 18.0248 20.2276C19.8838 17.5964 21.4 14.6364 21.4 12C21.4 9.50693 20.4096 7.11601 18.6468 5.35318C16.884 3.59034 14.493 2.59999 12 2.59999C9.50697 2.59999 7.11604 3.59034 5.3532 5.35318C3.59035 7.11601 2.6 9.50693 2.6 12C2.6 14.6366 4.11628 17.5928 5.97526 20.2221C7.84587 22.8679 10.1157 25.2543 11.7262 26.7665ZM8.88881 7.34375C9.80972 6.72841 10.8924 6.39998 12 6.39998C13.4852 6.39998 14.9096 6.98998 15.9598 8.04018C17.01 9.09038 17.6 10.5148 17.6 12C17.6 13.1075 17.2716 14.1902 16.6562 15.1111C16.0409 16.0321 15.1663 16.7498 14.143 17.1737C13.1198 17.5975 11.9938 17.7084 10.9075 17.4923C9.8212 17.2763 8.82337 16.7429 8.0402 15.9597C7.25703 15.1766 6.72368 14.1788 6.5076 13.0925C6.29152 12.0062 6.40242 10.8802 6.82627 9.85694C7.25012 8.83368 7.96789 7.95908 8.88881 7.34375ZM10.1111 14.8269C10.6702 15.2005 11.3275 15.4 12 15.4C12.9017 15.4 13.7665 15.0417 14.4042 14.4041C15.0418 13.7665 15.4 12.9017 15.4 12C15.4 11.3275 15.2006 10.6702 14.827 10.111C14.4534 9.5519 13.9224 9.11612 13.3011 8.85878C12.6799 8.60144 11.9962 8.53411 11.3367 8.6653C10.6772 8.79649 10.0713 9.12031 9.59584 9.5958C9.12034 10.0713 8.79652 10.6771 8.66533 11.3367C8.53414 11.9962 8.60147 12.6798 8.85881 13.3011C9.11615 13.9223 9.55193 14.4534 10.1111 14.8269Z" fill="#737383" stroke="#1B1B1F" stroke-width="0.8"/>
</svg>
