<svg width="25" height="30" viewBox="0 0 25 30" fill="none" xmlns="http://www.w3.org/2000/svg">
<path d="M23.4 12.2C23.4 20.6 12.2 29 12.2 29C12.2 29 1 20.6 1 12.2C1 9.22958 2.18 6.38081 4.2804 4.2804C6.38081 2.18 9.22958 1 12.2 1C15.1704 1 18.0192 2.18 20.1196 4.2804C22.22 6.38081 23.4 9.22958 23.4 12.2Z" stroke="#5C5C5C" stroke-width="1.5" stroke-linecap="round" stroke-linejoin="round"/>
<path d="M12.2 16.4C14.5196 16.4 16.4 14.5196 16.4 12.2C16.4 9.8804 14.5196 8 12.2 8C9.8804 8 8 9.8804 8 12.2C8 14.5196 9.8804 16.4 12.2 16.4Z" stroke="#5C5C5C" stroke-width="1.5" stroke-linecap="round" stroke-linejoin="round"/>
</svg>
