<svg width="40" height="40" viewBox="0 0 40 40" fill="none" xmlns="http://www.w3.org/2000/svg">
<g clip-path="url(#clip0_3907_6607)">
<path d="M40 20C40 31.0457 31.0457 40 20 40C8.95431 40 0 31.0457 0 20C0 8.95431 8.95431 0 20 0C31.0457 0 40 8.95431 40 20ZM2.04917 20C2.04917 29.9139 10.086 37.9509 20 37.9509C29.9139 37.9509 37.9509 29.9139 37.9509 20C37.9509 10.086 29.9139 2.04917 20 2.04917C10.086 2.04917 2.04917 10.086 2.04917 20Z" fill="#F1B83B"/>
<path d="M12.3086 19.4872L17.578 24.7566C17.7818 24.9604 18.1133 24.9563 18.312 24.7477L28.206 14.359" stroke="#F1B83B" stroke-width="2" stroke-linecap="round"/>
</g>
<defs>
<clipPath id="clip0_3907_6607">
<rect width="40" height="40" fill="white"/>
</clipPath>
</defs>
</svg>
