<svg width="40" height="40" viewBox="0 0 40 40" fill="none" xmlns="http://www.w3.org/2000/svg">
<g clip-path="url(#clip0_1689_3847)">
<path d="M39 20C39 30.4934 30.4934 39 20 39C9.50659 39 1 30.4934 1 20C1 9.50659 9.50659 1 20 1C30.4934 1 39 9.50659 39 20Z" stroke="#737383" stroke-width="2"/>
<path d="M17 29.0001V12.6661C17 12.1138 17.4471 11.6657 17.9994 11.6606C20.6376 11.6363 24.1173 11.5587 25 12.0001C26 12.5001 27.5 14.4505 27.5 17.0001C27.5 18.9324 26.0998 20.8646 24.6522 21.4441C24.5525 21.4841 24.4452 21.5 24.3377 21.5H14M14 25.5H24.5" stroke="#737383" stroke-width="1.8"/>
</g>
<defs>
<clipPath id="clip0_1689_3847">
<rect width="40" height="40" fill="white"/>
</clipPath>
</defs>
</svg>
