<svg width="26" height="20" viewBox="0 0 26 20" fill="none" xmlns="http://www.w3.org/2000/svg">
<path d="M22.9903 19.3298L22.9347 19.413L22.9903 19.3298C22.6102 19.0762 22.5085 18.5627 22.7366 18.1582C23.5744 16.672 24.0557 15.0101 24.1371 13.3017C24.2333 11.2819 23.7669 9.2748 22.7888 7.49957C21.8106 5.72441 20.3585 4.24946 18.591 3.2357C16.8235 2.22194 14.8086 1.7083 12.7663 1.7508C10.724 1.79329 8.73268 2.39028 7.00981 3.47667C5.28696 4.56306 3.89872 6.09712 2.99685 7.91142C2.09496 9.72576 1.71416 11.7505 1.8961 13.7646C2.04999 15.4681 2.60146 17.1085 3.50171 18.5585L3.58666 18.5057L3.50171 18.5585C3.7468 18.9532 3.66686 19.4703 3.29803 19.7395C2.92528 20.0116 2.40455 19.9307 2.16298 19.5521C1.07927 17.8535 0.416399 15.9205 0.234886 13.9111C0.0258106 11.5967 0.463396 9.26979 1.49992 7.18463C2.53645 5.09941 4.13211 3.336 6.11278 2.08705C8.09347 0.838094 10.3829 0.151661 12.7312 0.102803C15.0795 0.0539454 17.3961 0.644545 19.4281 1.81003C21.4601 2.9755 23.1293 4.671 24.2535 6.71124C25.3777 8.75149 25.9136 11.0581 25.8031 13.3792C25.7071 15.3944 25.1269 17.3533 24.1163 19.0954C23.8911 19.4836 23.3743 19.5861 22.9903 19.3298Z" fill="#737383" stroke="#1B1B1F" stroke-width="0.2"/>
<path d="M12.5846 15.4168C13.5051 15.4168 14.2513 14.6707 14.2513 13.7502C14.2513 12.8297 13.5051 12.0835 12.5846 12.0835C11.6641 12.0835 10.918 12.8297 10.918 13.7502C10.918 14.6707 11.6641 15.4168 12.5846 15.4168Z" fill="#737383"/>
<path d="M9.98828 16.5233L18.0218 8.48975" stroke="#737383" stroke-width="1.5" stroke-linecap="round"/>
</svg>
