<svg width="39" height="39" viewBox="0 0 39 39" fill="none" xmlns="http://www.w3.org/2000/svg">
<path d="M38 19C38 29.4935 29.4935 38 19 38C8.50659 38 0 29.4935 0 19C0 8.50659 8.50659 0 19 0C29.4935 0 38 8.50659 38 19ZM1.94671 19C1.94671 28.4183 9.58173 36.0533 19 36.0533C28.4183 36.0533 36.0533 28.4183 36.0533 19C36.0533 9.58173 28.4183 1.94671 19 1.94671C9.58173 1.94671 1.94671 9.58173 1.94671 19Z" fill="#5C5C5C"/>
<path d="M12 19L17.1377 24.1377C17.3364 24.3364 17.6596 24.3324 17.8533 24.129L27.5 14" stroke="#5C5C5C" stroke-width="2" stroke-linecap="round"/>
</svg>
