<svg width="40" height="39" viewBox="0 0 40 39" fill="none" xmlns="http://www.w3.org/2000/svg">
<g clip-path="url(#clip0_1540_4769)">
<path d="M39.252 19.5C39.252 30.2696 30.5216 39 19.752 39C8.9824 39 0.251953 30.2696 0.251953 19.5C0.251953 8.73045 8.9824 0 19.752 0C30.5216 0 39.252 8.73045 39.252 19.5ZM2.24989 19.5C2.24989 29.1661 10.0858 37.0021 19.752 37.0021C29.4181 37.0021 37.2541 29.1661 37.2541 19.5C37.2541 9.83388 29.4181 1.99794 19.752 1.99794C10.0858 1.99794 2.24989 9.83388 2.24989 19.5Z" fill="#737383"/>
<path d="M12.252 19L17.3897 24.1377C17.5884 24.3364 17.9116 24.3324 18.1053 24.129L27.752 14" stroke="#737383" stroke-width="2" stroke-linecap="round"/>
</g>
<defs>
<clipPath id="clip0_1540_4769">
<rect width="39" height="39" fill="white" transform="translate(0.251953)"/>
</clipPath>
</defs>
</svg>
