<svg width="40" height="40" viewBox="0 0 40 40" fill="none" xmlns="http://www.w3.org/2000/svg">
<path d="M25.0691 2.97787L25.0691 2.97785L21.6196 6.34752C21.3689 6.62582 21.2312 6.98804 21.234 7.36295C21.2369 7.74213 21.3833 8.10615 21.6437 8.38177C21.9041 8.6574 22.2592 8.82417 22.6377 8.84852C23.0085 8.87239 23.3748 8.75772 23.6656 8.52722L27.1061 5.10664C27.1063 5.10645 27.1065 5.10627 27.1067 5.10609C28.1286 4.08441 29.5146 3.51044 30.9597 3.51044C32.405 3.51044 33.7912 4.08461 34.8132 5.10664C35.8353 6.12866 36.4094 7.51483 36.4094 8.96019C36.4094 10.4054 35.8354 11.7914 34.8136 12.8134L25.0691 2.97787ZM25.0691 2.97787L25.0721 2.97484C26.6609 1.39595 28.8098 0.509766 31.0497 0.509766C33.2886 0.509766 35.4366 1.39517 37.0251 2.97275C38.5926 4.57123 39.4643 6.72473 39.4502 8.96353C39.436 11.2034 38.5362 13.3467 36.9473 14.9255L36.9461 14.9266L27.8461 24.0266L27.8459 24.0269C26.3372 25.5378 24.312 26.4207 22.1782 26.4978C20.0445 26.5748 17.9608 25.8404 16.3471 24.4423L16.3413 24.4373L16.3354 24.4324C16.1889 24.3132 16.0492 24.1857 15.9172 24.0506L15.9173 24.0505L15.9095 24.0429C15.625 23.7644 15.4628 23.3842 15.4585 22.9861C15.4543 22.588 15.6084 22.2045 15.887 21.92C16.1655 21.6355 16.5456 21.4733 16.9438 21.469C17.3419 21.4648 17.7254 21.6189 18.0099 21.8975L18.0242 21.9115L18.0396 21.9243L18.2722 22.1182C19.3039 23.0454 20.652 23.5418 22.0389 23.505C23.4291 23.4681 24.7518 22.8982 25.7336 21.9134C25.7337 21.9133 25.7337 21.9132 25.7338 21.9132L34.8132 12.8137L25.0691 2.97787ZM21.9095 18.1029L21.8951 18.0889L21.8798 18.0761L21.6471 17.8822C20.6154 16.955 19.2673 16.4586 17.8804 16.4954C16.4903 16.5323 15.1675 17.1022 14.1857 18.087C14.1857 18.0871 14.1856 18.0871 14.1855 18.0872L5.10612 27.1866C5.10606 27.1867 5.106 27.1868 5.10594 27.1868C4.08403 28.2088 3.50993 29.5949 3.50993 31.0402C3.50993 32.4855 4.08409 33.8717 5.10612 34.8937C6.12815 35.9158 7.51431 36.4899 8.95967 36.4899C10.4038 36.4899 11.7889 35.9167 12.8106 34.8963C12.8115 34.8955 12.8124 34.8946 12.8132 34.8937L16.3316 31.4748C16.6228 31.2432 16.9899 31.1279 17.3617 31.1519C17.7401 31.1762 18.0952 31.343 18.3557 31.6186C18.6161 31.8942 18.7624 32.2583 18.7653 32.6374C18.7681 33.0123 18.6305 33.3746 18.3797 33.6529L14.9358 37.0171C13.3299 38.4899 11.2175 39.2863 9.03875 39.2402C6.8575 39.194 4.77842 38.3069 3.23569 36.7642C1.69297 35.2214 0.805889 33.1424 0.75971 30.9611C0.713614 28.7838 1.50895 26.6727 2.97992 25.0671L12.1713 15.9757L12.1713 15.9757L12.1742 15.9727C13.6804 14.458 15.7061 13.5724 17.8409 13.4953C19.9676 13.4184 22.0441 14.1497 23.6532 15.5415C23.7626 15.658 23.8664 15.7797 23.9642 15.9061L23.9853 15.9334L24.0099 15.9575C24.2944 16.236 24.4566 16.6161 24.4608 17.0143C24.465 17.4124 24.3109 17.7959 24.0324 18.0804C23.7539 18.3649 23.3737 18.5271 22.9756 18.5313C22.5775 18.5356 22.194 18.3814 21.9095 18.1029Z" fill="#737383" stroke="#1B1B1F"/>
</svg>
