<svg width="32" height="40" viewBox="0 0 32 40" fill="none" xmlns="http://www.w3.org/2000/svg">
<path d="M10.7225 19.7579L13.0153 22.0508C13.4059 22.4413 14.039 22.4413 14.4296 22.0508L21.2225 15.2579M7.722 31.7579L15.6047 37.7859C15.9678 38.0636 16.4731 38.0597 16.8319 37.7764L25.6497 30.815C25.6978 30.777 25.7434 30.7336 25.7836 30.6874C29.2279 26.7343 29.7249 24.7343 30.222 20.7579C30.3099 20.0547 30.2348 11.7766 30.2234 6.05761C30.222 5.40058 29.5975 4.92469 28.9493 5.03198C23.8989 5.86786 19.1465 3.74268 16.8231 2.1877C16.4572 1.94278 15.9778 1.93575 15.6095 2.17719C11.035 5.17647 6.25304 5.40926 3.51867 5.02317C2.86082 4.93028 2.22149 5.41788 2.21411 6.08222C2.15231 11.646 1.76019 18.9088 2.222 20.7579C3.722 28.2579 6.222 30.4246 7.722 31.7579Z" stroke="#737383" stroke-width="2.2" stroke-linecap="round"/>
</svg>
