<svg width="61" height="51" viewBox="0 0 61 51" fill="none" xmlns="http://www.w3.org/2000/svg">
<path d="M46.8353 0.0466528C47.8404 -0.114054 48.8105 0.148565 49.6597 0.709078C51.0154 1.51261 52.2309 2.54349 53.0762 3.8997C53.4035 3.6606 53.7424 3.42149 54.0852 3.18239C54.8916 3.35094 55.7526 3.57829 56.3681 4.18584C57.864 5.84386 58.7795 7.92127 59.5314 10.0065C59.9794 11.1707 60.0846 12.4132 60.2404 13.644C60.2599 14.1496 60.2521 14.6592 60.2092 15.1687C60.1118 15.8508 60.0456 16.5367 59.9911 17.2266C59.2042 19.0845 58.129 20.8052 56.485 22.0086C55.4176 22.5965 54.3073 23.0904 53.1853 23.549C52.4724 23.11 51.7984 22.3692 52.1841 21.4716C52.8113 20.4093 53.645 19.4765 54.1787 18.3515C54.1553 17.8184 54.1437 17.2854 54.1398 16.7562C54.0385 16.4858 53.8359 15.9448 53.7385 15.6744C52.9282 15.7097 52.0751 15.9684 51.3232 15.6156C50.8674 14.8748 50.6064 14.0399 50.3298 13.2285C50.1778 13.3108 49.8662 13.4715 49.7104 13.5538C48.978 15.2667 47.8248 16.7758 47.2678 18.5671C47.0769 19.0845 47.295 19.6254 47.4158 20.135C48.2456 21.0091 48.6546 22.1967 47.9846 23.306C45.6861 23.4785 43.6409 22.0595 42.2852 20.3153C41.1242 18.4338 40.649 16.1996 40.9918 14.0124C41.8722 10.8689 43.9291 8.33284 45.6082 5.60867C46.7068 3.93497 46.0874 1.8301 46.8353 0.0466528ZM47.8989 3.83306C47.6963 4.33869 47.5054 4.84826 47.3301 5.36174C46.2315 8.02711 44.198 10.1359 42.9903 12.7425C42.2969 14.573 42.2696 16.5877 42.8929 18.4417C43.6604 19.892 44.8564 21.0169 46.4185 21.5539C45.1368 19.2648 46.099 16.5877 47.4937 14.5965C48.4793 13.2403 48.8299 11.5744 49.1806 9.96735C50.5752 11.0492 51.8257 12.3779 52.4919 14.0516C52.6672 13.3422 52.8542 12.6366 53.0606 11.9311C55.5539 14.3182 56.3486 18.4378 54.315 21.3657C56.1577 20.4603 57.7277 18.9003 58.3666 16.913C58.9782 14.5338 58.7211 12.0017 57.8602 9.72041C57.0888 8.01535 56.2785 6.30245 54.9656 4.95016C54.5176 6.09079 54.954 8.05847 53.571 8.54451C53.0801 7.25886 52.6321 5.93793 51.9153 4.76203C50.957 3.36663 49.5857 2.28871 48.0703 1.57533C48.0041 2.32791 47.9456 3.07656 47.8989 3.83306Z" fill="#9B9BA5"/>
<path d="M7.43359 10.9283C7.43177 10.4708 10.6787 10.7402 12.3071 10.7128C20.2972 10.6971 28.2911 10.7402 36.2851 10.6932C36.3942 11.1949 36.4993 11.7044 36.6045 12.214C32.6699 12.5276 28.704 12.261 24.7616 12.3473C19.4907 12.3473 14.2199 12.3473 8.94902 12.3473C8.91786 22.1151 8.93343 31.8829 8.94122 41.6507C10.7644 41.6546 12.5915 41.6625 14.4225 41.6311C14.4342 33.5056 14.4185 25.3762 14.4302 17.2468C14.9328 17.2704 15.447 17.2939 15.9691 17.3252C15.9535 25.435 15.9496 33.5488 15.9691 41.6586C17.765 41.6507 19.5648 41.6546 21.3646 41.6546C21.3685 33.5213 21.3685 25.3919 21.3646 17.2586C21.9022 17.2743 22.4476 17.29 23.0047 17.3096C22.9813 25.4233 22.9891 33.5409 23.0047 41.6586C24.82 41.6507 26.6432 41.6507 28.4703 41.6546C28.4859 33.5252 28.4742 25.3958 28.4742 17.2664C28.9612 17.2625 29.4598 17.2664 29.9701 17.2704C29.9701 25.3958 29.9585 33.5213 29.9779 41.6468C31.8011 41.6546 33.6282 41.6625 35.4592 41.635C35.4709 33.5056 35.4592 25.3802 35.467 17.2547C35.9773 17.2664 36.5032 17.286 37.0408 17.3096C37.0252 25.4233 37.0252 33.5409 37.0408 41.6586C38.8367 41.6507 40.6326 41.6546 42.4363 41.6546C42.4402 36.7903 42.4402 31.926 42.4402 27.0617C42.9662 27.0656 43.5077 27.0735 44.0609 27.0813C44.0492 31.9417 44.0492 36.7982 44.0609 41.6546C45.8724 41.6507 47.6877 41.6507 49.507 41.6546C49.5226 36.7864 49.507 31.9182 49.5148 27.0539C50.0096 27.0499 50.5199 27.0499 51.042 27.0539C51.0459 31.9182 51.0302 36.7786 51.0497 41.6429C52.869 41.6586 54.6922 41.6586 56.5193 41.639C56.5387 36.7472 56.5037 31.8555 56.5388 26.9637C57.0024 27.0343 57.4893 27.1009 57.9646 27.2224C58.0697 32.2435 57.9646 37.2685 58.0152 42.2896C57.9256 42.5326 57.7425 43.0148 57.6529 43.2539C40.9209 43.2147 24.189 43.2695 7.45699 43.2264C7.42972 32.4591 7.47645 21.6917 7.43359 10.9283Z" fill="#9B9BA5"/>
<path d="M0.751953 18.5362C2.58293 18.5244 4.4139 18.5205 6.25266 18.544C6.22929 19.0575 6.22152 19.5788 6.22541 20.1002C4.93594 20.1119 3.65035 20.1158 2.36867 20.1237C2.37257 26.7087 2.36867 33.2938 2.36867 39.8788C2.45438 43.0733 2.1778 46.2875 2.53231 49.4663C18.0761 49.4389 33.6199 49.4114 49.1637 49.482C49.6662 47.9533 49.4169 46.3188 49.4598 44.7431C49.8844 44.7353 50.3246 44.7353 50.7726 44.7353C50.7609 46.8166 50.8077 48.9019 50.722 50.9832C38.4389 50.9597 26.1519 50.9793 13.8688 50.9715C9.51947 51.0002 5.32327 51.0002 0.80428 51.0002C0.835445 40.2563 0.751953 29.28 0.751953 18.5362Z" fill="#9B9BA5"/>
</svg>
