<svg width="61" height="51" viewBox="0 0 61 51" fill="none" xmlns="http://www.w3.org/2000/svg">
<path d="M46.8334 0.0466528C47.8385 -0.114054 48.8085 0.148565 49.6578 0.709078C51.0135 1.51261 52.2289 2.54349 53.0743 3.8997C53.4015 3.6606 53.7404 3.42149 54.0833 3.18239C54.8897 3.35094 55.7506 3.57829 56.3661 4.18584C57.8621 5.84386 58.7776 7.92127 59.5294 10.0065C59.9774 11.1707 60.0826 12.4132 60.2385 13.644C60.2579 14.1496 60.2501 14.6592 60.2073 15.1687C60.1099 15.8508 60.0437 16.5367 59.9891 17.2266C59.2022 19.0845 58.127 20.8052 56.483 22.0086C55.4156 22.5965 54.3053 23.0904 53.1834 23.549C52.4705 23.11 51.7965 22.3692 52.1822 21.4716C52.8094 20.4093 53.643 19.4765 54.1768 18.3515C54.1534 17.8184 54.1417 17.2854 54.1378 16.7562C54.0365 16.4858 53.8339 15.9448 53.7365 15.6744C52.9262 15.7097 52.0731 15.9684 51.3212 15.6156C50.8654 14.8748 50.6044 14.0399 50.3278 13.2285C50.1759 13.3108 49.8642 13.4715 49.7084 13.5538C48.976 15.2667 47.8229 16.7758 47.2658 18.5671C47.0749 19.0845 47.2931 19.6254 47.4138 20.135C48.2436 21.0091 48.6527 22.1967 47.9826 23.306C45.6841 23.4785 43.6389 22.0595 42.2832 20.3153C41.1223 18.4338 40.647 16.1996 40.9899 14.0124C41.8703 10.8689 43.9272 8.33284 45.6062 5.60867C46.7048 3.93497 46.0854 1.8301 46.8334 0.0466528ZM47.8969 3.83306C47.6943 4.33869 47.5035 4.84826 47.3282 5.36174C46.2296 8.02711 44.196 10.1359 42.9883 12.7425C42.2949 14.573 42.2676 16.5877 42.891 18.4417C43.6584 19.892 44.8544 21.0169 46.4166 21.5539C45.1349 19.2648 46.0971 16.5877 47.4917 14.5965C48.4773 13.2403 48.828 11.5744 49.1786 9.96735C50.5733 11.0492 51.8238 12.3779 52.4899 14.0516C52.6652 13.3422 52.8522 12.6366 53.0587 11.9311C55.5519 14.3182 56.3466 18.4378 54.3131 21.3657C56.1558 20.4603 57.7257 18.9003 58.3646 16.913C58.9762 14.5338 58.7192 12.0017 57.8582 9.72041C57.0869 8.01535 56.2765 6.30245 54.9637 4.95016C54.5157 6.09079 54.952 8.05847 53.5691 8.54451C53.0782 7.25886 52.6302 5.93793 51.9134 4.76203C50.955 3.36663 49.5838 2.28871 48.0683 1.57533C48.0021 2.32791 47.9437 3.07656 47.8969 3.83306Z" fill="#5C5C5C"/>
<path d="M7.43164 10.9278C7.42982 10.4704 10.6768 10.7397 12.3052 10.7123C20.2952 10.6966 28.2892 10.7397 36.2831 10.6927C36.3922 11.1944 36.4974 11.7039 36.6026 12.2135C32.6679 12.5271 28.7021 12.2605 24.7597 12.3468C19.4888 12.3468 14.2179 12.3468 8.94707 12.3468C8.9159 22.1146 8.93148 31.8824 8.93927 41.6502C10.7625 41.6541 12.5896 41.662 14.4205 41.6306C14.4322 33.5052 14.4166 25.3758 14.4283 17.2464C14.9308 17.2699 15.4451 17.2934 15.9671 17.3248C15.9515 25.4346 15.9476 33.5483 15.9671 41.6581C17.763 41.6502 19.5628 41.6542 21.3626 41.6542C21.3665 33.5208 21.3665 25.3914 21.3626 17.2581C21.9002 17.2738 22.4456 17.2895 23.0027 17.3091C22.9793 25.4228 22.9871 33.5404 23.0027 41.6581C24.8181 41.6502 26.6413 41.6502 28.4684 41.6542C28.4839 33.5248 28.4723 25.3954 28.4723 17.266C28.9592 17.262 29.4579 17.266 29.9682 17.2699C29.9682 25.3953 29.9565 33.5208 29.976 41.6463C31.7992 41.6541 33.6263 41.662 35.4573 41.6345C35.4689 33.5051 35.4572 25.3797 35.465 17.2542C35.9753 17.266 36.5013 17.2856 37.0389 17.3091C37.0233 25.4228 37.0233 33.5404 37.0389 41.6581C38.8348 41.6502 40.6307 41.6542 42.4344 41.6542C42.4383 36.7898 42.4383 31.9255 42.4383 27.0612C42.9642 27.0651 43.5057 27.073 44.0589 27.0808C44.0472 31.9412 44.0472 36.7977 44.0589 41.6542C45.8704 41.6502 47.6858 41.6502 49.5051 41.6542C49.5207 36.7859 49.5051 31.9177 49.5129 27.0534C50.0076 27.0495 50.518 27.0495 51.04 27.0534C51.0439 31.9177 51.0283 36.7781 51.0478 41.6424C52.867 41.6581 54.6902 41.6581 56.5173 41.6385C56.5368 36.7467 56.5018 31.855 56.5368 26.9632C57.0004 27.0338 57.4873 27.1004 57.9626 27.2219C58.0678 32.243 57.9626 37.268 58.0132 42.2891C57.9236 42.5322 57.7406 43.0143 57.651 43.2534C40.919 43.2142 24.187 43.269 7.45504 43.2259C7.42777 32.4586 7.47449 21.6913 7.43164 10.9278Z" fill="#5C5C5C"/>
<path d="M0.75 18.5357C2.58097 18.524 4.41195 18.52 6.25071 18.5436C6.22734 19.057 6.21957 19.5783 6.22346 20.0997C4.93399 20.1114 3.6484 20.1153 2.36672 20.1232C2.37062 26.7082 2.36672 33.2933 2.36672 39.8783C2.45243 43.0729 2.17585 46.287 2.53036 49.4658C18.0742 49.4384 33.6179 49.411 49.1617 49.4815C49.6643 47.9528 49.415 46.3183 49.4578 44.7426C49.8824 44.7348 50.3226 44.7348 50.7706 44.7348C50.759 46.8161 50.8057 48.9014 50.72 50.9827C38.4369 50.9592 26.1499 50.9788 13.8668 50.971C9.51752 50.9997 5.32132 50.9997 0.802326 50.9997C0.833492 40.2559 0.75 29.2795 0.75 18.5357Z" fill="#5C5C5C"/>
</svg>
