<svg width="59" height="50" viewBox="0 0 59 50" fill="none" xmlns="http://www.w3.org/2000/svg">
<path d="M23.2898 0.845674C23.5528 0.572245 23.8124 0.298825 24.072 0.0219342C28.6061 0.10154 33.1575 -0.144205 37.6811 0.14653C37.9027 2.08476 37.7781 4.05069 37.7469 6.00276C36.7709 6.98919 35.9194 8.09674 34.8845 9.02779C34.3411 9.02779 33.7943 9.02433 33.2578 9.02087C33.154 9.90346 33.1471 10.8207 32.8459 11.6686C32.306 12.8143 31.2088 13.548 30.1359 14.1399C31.4338 14.1087 31.1915 16.0296 29.9282 15.9777C30.7727 16.3861 31.9841 16.4969 32.5206 15.552C32.9532 14.7767 33.6697 14.3718 34.5696 14.4998C34.9607 15.0225 35.8502 15.3651 35.7325 16.1231C35.3276 17.9298 33.9881 19.4216 32.4168 20.3422C30.7485 21.204 28.741 20.9756 27.0209 20.3941C27.1593 19.9684 27.2978 19.5496 27.4431 19.1308C28.966 19.5081 30.6931 19.7469 32.1156 18.9128C32.8736 18.532 33.3617 17.8225 33.8739 17.1787C34.0435 16.7876 34.2235 16.4 34.4034 16.0158C34.1992 16.002 34.002 15.9881 33.8081 15.9743C33.2024 17.0334 32.1295 17.8675 30.8489 17.6668C29.8348 17.691 29.1841 16.888 28.6268 16.1646C26.0033 19.0235 23.3209 21.8236 20.597 24.5856C21.9815 24.9351 23.3763 25.3505 24.823 25.3228C29.6721 25.3055 34.5246 25.3366 39.3771 25.302C38.0411 23.7895 36.6186 22.3566 35.3587 20.7783C35.1061 20.4772 35.0368 20.0826 34.9053 19.7331C35.338 19.7054 35.781 19.6915 36.2205 19.6846C37.5981 21.384 39.0967 22.9865 40.5608 24.6132C42.499 24.6548 44.3473 25.4128 46.2959 25.3262C48.4106 25.3816 50.5669 25.0943 52.6401 25.6377C53.2493 26.1777 53.8273 26.7522 54.3465 27.3891C54.4503 27.7906 54.5715 28.1921 54.7064 28.5901C54.7099 29.0746 54.7099 29.5661 54.7133 30.0541C56.1047 30.2099 57.0773 31.2102 57.8076 32.3212C58.0291 33.7472 57.7903 35.1801 56.8246 36.2946C57.6657 37.2602 58.884 38.257 58.6071 39.6968C58.5241 41.8497 56.3124 43.1511 54.3569 43.293C54.4849 43.7948 54.6164 44.2967 54.7445 44.8055C54.5818 45.29 54.4365 45.7815 54.3119 46.2799C53.6819 47.339 52.6574 48.0589 51.4703 48.3601C48.4833 48.6473 45.4306 48.0728 42.4956 48.8688C41.4399 48.9727 40.142 49.3776 39.3217 48.4708C34.4865 48.3981 29.6513 48.4673 24.8161 48.4327C22.8294 48.3324 20.9293 49.2426 18.9391 48.9934C18.7591 48.8619 18.3992 48.5989 18.2192 48.4674C15.125 48.4085 12.0307 48.45 8.93992 48.457C8.54535 48.2943 8.1404 48.1628 7.72853 48.0589C7.20243 47.6713 6.68673 47.2698 6.17795 46.8649C5.59302 45.7919 5.15345 44.3901 5.95298 43.3033C4.66197 43.7221 3.15984 43.9021 1.96921 43.1199C1.37736 42.6042 0.958562 41.9327 0.46362 41.334C0.0309791 39.5307 0.906643 37.7309 2.50568 36.8449C1.63002 36.4019 1.02433 35.63 0.512081 34.8201C0.439397 34.1071 0.404784 33.3907 0.390939 32.6742C0.955103 31.8574 1.40159 30.8121 2.39147 30.4279C3.44365 29.9399 4.66543 30.0299 5.71069 30.4902C5.57571 29.6319 5.39919 28.7424 5.6657 27.8909C6.28178 26.3438 7.8912 25.2259 9.56985 25.2916C12.4045 25.3401 15.2392 25.3055 18.0738 25.3228C20.2059 23.1215 22.3345 20.9168 24.3904 18.6463C24.0962 17.3726 23.712 16.0573 23.982 14.7421C24.2831 13.0081 25.5222 11.6825 26.4532 10.2634C26.4359 10.0004 26.4048 9.47428 26.3909 9.21469C25.2522 8.3148 24.2831 7.23147 23.3001 6.17582C23.2794 4.40026 23.2898 2.62123 23.2898 0.845674ZM24.6638 1.31293C24.6431 2.77006 24.6258 4.23067 24.6811 5.6878C25.3561 6.2935 25.9479 6.98226 26.4878 7.71256C29.0491 7.7091 31.6172 7.80254 34.175 7.6814C35.0645 7.15877 35.6494 6.18966 36.4074 5.48013C36.3936 4.10606 36.3936 2.73199 36.4109 1.35792C32.4964 1.27832 28.5784 1.35792 24.6638 1.31293ZM27.9242 9.17316C27.7339 9.91384 27.7788 10.741 27.3497 11.409C26.7717 12.2847 25.941 13.0219 25.6087 14.043C25.2176 15.1886 25.3768 16.4138 25.5083 17.5872C25.7195 17.3172 25.9306 17.0472 26.1417 16.7773C26.8582 16.1023 27.5816 15.4309 28.3049 14.7594C28.8829 13.4476 30.0978 12.6516 31.0877 11.6859C31.8145 11.0006 31.6138 9.93114 31.683 9.03817C30.4335 9.09355 29.1391 8.87204 27.9242 9.17316ZM7.13322 28.5832C6.8321 29.6665 7.58316 30.5595 8.39307 31.1582C8.98838 31.1582 9.58715 31.1652 10.1859 31.1755C10.982 30.5145 11.5427 29.6215 11.5427 28.5589C11.072 27.9705 10.7951 27.043 9.95749 26.9011C8.7634 26.5411 7.26128 27.2576 7.13322 28.5832ZM12.1726 26.7418C12.761 27.9013 12.9721 29.2096 12.5914 30.4695C12.2765 30.6979 11.9753 30.9402 11.6846 31.1929C11.8334 31.2932 12.1345 31.494 12.2868 31.5944C12.6918 30.6875 13.5536 30.2237 14.4189 29.8465C18.6968 29.8465 22.9748 29.8534 27.2562 29.8396C27.1974 29.6977 27.0832 29.4069 27.0243 29.2615C26.4048 28.7943 25.806 28.3028 25.2418 27.7733C24.4562 27.3302 23.667 26.7557 22.7221 26.7868C19.2056 26.7142 15.6891 26.8111 12.1726 26.7418ZM26.1106 26.7592C27.2631 27.6417 28.2807 28.6835 29.1598 29.8396C35.5387 29.8569 41.9176 29.843 48.2964 29.8465C48.2584 29.6907 48.1787 29.3792 48.1407 29.2235C46.687 28.2613 45.4237 26.6311 43.5027 26.773C37.7054 26.7453 31.908 26.7765 26.1106 26.7592ZM47.3169 26.7695C48.3587 27.7006 49.3036 28.7355 50.2589 29.753C51.2176 29.9399 52.2075 29.8292 53.1801 29.8465C53.405 28.777 53.187 27.4133 52.0275 26.998C50.4977 26.5653 48.8813 26.8249 47.3169 26.7695ZM14.2631 31.5078C13.7717 32.0928 12.8545 32.5427 12.9479 33.4253C12.8752 34.7717 14.1385 36.0765 15.523 35.7996C16.4402 35.7442 16.8624 34.7786 17.4335 34.1971C17.5547 33.1138 16.9386 32.252 16.2291 31.5182C15.5715 31.5147 14.9138 31.5113 14.2631 31.5078ZM18.1154 31.4663C18.8111 32.868 18.7591 34.4325 18.0288 35.8135C21.9849 35.7996 25.9444 35.8308 29.9005 35.7962C29.7967 34.3044 29.3052 32.8784 28.7237 31.5147C25.1865 31.4317 21.6527 31.5182 18.1154 31.4663ZM51.3041 31.5078C51.6468 32.4735 51.9202 33.4634 52.2698 34.429C52.2836 34.8824 52.2975 35.3358 52.3148 35.7962C53.5262 35.7027 55.056 36.2011 55.9732 35.1489C56.6827 34.474 56.4993 33.4564 56.4958 32.5808C56.0874 32.2173 55.679 31.8505 55.274 31.4871C53.9484 31.449 52.6263 31.4732 51.3041 31.5078ZM1.75116 33.4564C1.63002 34.6955 2.77566 35.9969 4.07012 35.8273C5.17768 35.99 5.68647 34.834 6.34062 34.1798C6.2887 33.716 6.22986 33.2522 6.17102 32.7954C5.79722 32.3766 5.4338 31.9474 5.08076 31.5147C4.36431 31.4836 3.64786 31.4767 2.93487 31.4801C2.4607 32.0789 1.71655 32.605 1.75116 33.4564ZM30.347 31.4905C30.7762 32.8992 31.1534 34.3286 31.2815 35.7996C37.8888 35.8204 44.4996 35.8135 51.1069 35.8031C50.9892 34.8686 50.7607 33.9583 50.4942 33.0584C50.2243 32.5392 49.9578 32.0166 49.7016 31.4974C43.2501 31.4663 36.7986 31.4767 30.347 31.4905ZM7.14014 32.1897C7.3305 32.6465 7.52086 33.1034 7.71122 33.5603C8.95377 33.2938 10.2275 33.273 11.4942 33.3007C11.5012 33.1034 11.5219 32.7019 11.5288 32.5012C10.0544 32.6431 8.57651 32.5704 7.14014 32.1897ZM7.07091 36.8795C6.93939 37.9178 7.8739 38.5339 8.55574 39.1223C9.25143 39.0462 9.9402 38.9042 10.6255 38.745C10.8851 38.3609 11.155 37.9801 11.4285 37.6063C11.4354 37.1148 11.4458 36.6268 11.4562 36.1423C10.8609 35.2528 10.0544 34.5225 8.9157 34.5571C8.01581 35.0174 6.93939 35.6992 7.07091 36.8795ZM12.7956 36.6061C12.2349 37.6236 13.9516 36.6857 12.7956 36.6061V36.6061ZM14.9865 37.5267C14.3635 37.7863 13.9932 38.3851 13.5675 38.8731C13.5675 39.3057 13.5675 39.7419 13.5709 40.1814C14.2908 41.2717 15.6337 42.1231 16.9455 41.4966C18.6657 40.8113 18.5584 38.2051 16.9767 37.409C16.3121 37.4229 15.6372 37.3848 14.9865 37.5267ZM52.3459 37.3814C52.3148 38.0182 52.2802 38.6585 52.2456 39.2988C51.9479 40.088 51.7264 40.9048 51.498 41.7182C52.9343 41.7078 54.3949 41.8635 55.8209 41.6178C57.6034 41.0882 57.6484 38.1947 55.9594 37.4956C54.7826 37.1841 53.547 37.3848 52.3459 37.3814ZM18.998 37.3433C19.6902 38.7139 19.8771 40.5448 18.7072 41.7182C22.1061 41.687 25.5222 41.8774 28.9106 41.6316C29.3017 40.9013 29.4471 40.0707 29.7413 39.3023C29.7967 38.6481 29.8417 37.9974 29.897 37.3502C26.2663 37.3398 22.6322 37.3571 18.998 37.3433ZM30.4647 41.7285C36.667 41.7528 42.8728 41.7389 49.0786 41.7389C49.6601 41.8428 50.1066 41.507 50.3489 40.9982C50.5115 40.4306 50.6984 39.8664 50.9096 39.3161C50.9719 38.662 51.0238 38.0078 51.0826 37.3571C44.4892 37.3467 37.8992 37.3364 31.3057 37.364C31.2157 38.8489 30.9077 40.3095 30.4647 41.7285ZM3.08023 38.0736C1.72347 38.6343 1.21469 40.6556 2.38455 41.6524C3.36059 42.6596 5.22267 42.4934 5.92874 41.2509C7.18167 39.5584 4.91117 37.1252 3.08023 38.0736ZM7.48972 40.2299C7.41011 40.6798 7.32704 41.1298 7.24743 41.5866C8.89147 41.0363 10.6186 41.2059 12.3145 41.2751C12.3249 41.0605 12.3457 40.6348 12.3561 40.4202C10.7328 40.4375 9.10606 40.4168 7.48972 40.2299ZM8.42768 42.5765C8.0435 42.9192 7.6593 43.2584 7.27512 43.5975C7.10898 44.4524 6.93248 45.4666 7.58663 46.1726C8.22348 47.0518 9.45563 46.9375 10.3901 46.7229C10.8193 46.3007 11.1239 45.7746 11.47 45.2866C11.47 44.9855 11.4735 44.3832 11.4769 44.0821C11.1066 43.5941 10.7536 43.0888 10.2863 42.6977C9.68061 42.5281 9.04376 42.6042 8.42768 42.5765ZM12.1934 42.535C13.0587 43.9263 12.7887 45.5358 12.363 47.0171C15.4884 47.0068 18.6138 47.031 21.7392 47.0137C24.3316 47.076 26.3425 45.1031 27.9104 43.2653C24.2208 43.2757 20.5312 43.2584 16.8451 43.2791C15.7826 43.3103 14.7166 43.0922 13.7717 42.6146C13.2421 42.5834 12.716 42.5557 12.1934 42.535ZM26.9482 46.3145L25.7363 47.3742C25.3348 47.7861 25.6065 47.2444 25.6065 47.1146C30.4625 47.1388 35.5214 47.1106 40.3774 47.1279C41.8206 47.1175 43.3159 47.2663 44.7003 46.7541C45.0326 46.6433 45.3475 46.4876 45.6729 46.3561C46.8047 45.4008 48.0991 44.5978 48.871 43.286C42.4575 43.293 36.0406 43.1926 29.634 43.3345C28.7272 44.3175 27.8342 45.3143 26.9482 46.3145ZM47.2512 47.0102C48.961 46.8856 50.875 47.4117 52.429 46.491C53.502 45.8334 53.3081 44.4317 53.097 43.3864C52.3148 43.3033 51.5222 43.2064 50.74 43.3137C49.5978 44.5632 48.4972 45.8507 47.2512 47.0102Z" fill="#5C5C5C"/>
</svg>
