<svg width="65" height="50" viewBox="0 0 65 50" fill="none" xmlns="http://www.w3.org/2000/svg">
<path d="M0.705079 12.5845C0.703018 12.0667 4.37847 12.3716 6.22178 12.3405C15.2663 12.3228 24.3153 12.3715 33.3643 12.3183C33.4878 12.8862 33.6068 13.463 33.7259 14.0399C29.2719 14.3948 24.7827 14.0931 20.32 14.1907C14.3535 14.1907 8.38701 14.1907 2.42051 14.1907C2.38523 25.2477 2.40286 36.3046 2.41168 47.3615C4.47548 47.366 6.54372 47.3749 8.61634 47.3394C8.62957 38.1415 8.61188 28.9392 8.62511 19.7369C9.19398 19.7636 9.77611 19.7902 10.367 19.8257C10.3494 29.0058 10.345 38.1903 10.367 47.3704C12.4 47.3615 14.4373 47.366 16.4746 47.366C16.479 38.1593 16.479 28.957 16.4746 19.7502C17.0832 19.768 17.7005 19.7857 18.3312 19.8079C18.3047 28.9925 18.3135 38.1814 18.3312 47.3704C20.3861 47.3615 22.4499 47.3615 24.5182 47.366C24.5358 38.1637 24.5226 28.9614 24.5226 19.7591C25.0738 19.7547 25.6382 19.7591 26.2159 19.7635C26.2159 28.9614 26.2027 38.1592 26.2248 47.3571C28.2886 47.366 30.3568 47.3748 32.4294 47.3438C32.4426 38.1415 32.4294 28.9437 32.4382 19.7458C33.0159 19.7591 33.6112 19.7813 34.2198 19.8079C34.2021 28.9925 34.2021 38.1814 34.2198 47.3704C36.2527 47.3615 38.2856 47.366 40.3274 47.366C40.3318 41.8597 40.3318 36.3534 40.3318 30.8471C40.9271 30.8516 41.5401 30.8604 42.1663 30.8693C42.1531 36.3711 42.1531 41.8686 42.1663 47.366C44.2169 47.3615 46.2718 47.3615 48.3312 47.366C48.3489 41.8553 48.3312 36.3445 48.34 30.8382C48.9001 30.8338 49.4778 30.8338 50.0687 30.8382C50.0731 36.3445 50.0554 41.8464 50.0775 47.3527C52.1369 47.3704 54.2007 47.3704 56.2689 47.3482C56.291 41.8109 56.2513 36.2735 56.291 30.7362C56.8158 30.8161 57.3669 30.8915 57.9049 31.029C58.024 36.7128 57.9049 42.401 57.9623 48.0848C57.8608 48.3599 57.6536 48.9056 57.5522 49.1763C38.612 49.1319 19.6718 49.194 0.731564 49.1452C0.700695 36.9568 0.753587 24.7685 0.705079 12.5845Z" fill="#9B9BA5"/>
<path d="M45.5848 0.706814C48.3246 -0.0679382 51.2557 -0.282147 54.0312 0.451589C58.777 1.8826 62.6332 5.9022 63.9409 10.7968C64.0121 11.6946 64.0921 12.5879 64.2166 13.4857C64.3278 14.0963 64.3234 14.707 64.1945 15.3177C64.0877 16.0925 64.0299 16.8763 63.9721 17.6602C62.8156 22.1447 59.591 25.9455 55.4011 27.7046C54.0801 28.1604 52.7191 28.4019 51.3625 28.6116C50.6108 28.6981 49.8636 28.6845 49.1386 28.6116C45.7138 28.2971 42.538 26.6337 40.1184 24.1681C39.171 22.9695 38.3482 21.6844 37.5565 20.381C35.9908 16.53 35.9598 11.9589 37.6233 8.13532C38.664 6.50378 39.6247 4.76742 41.137 3.53237C42.4491 2.33834 44.0458 1.55904 45.5848 0.706814ZM44.7308 3.03106C42.7071 4.40738 40.7989 6.06627 39.5669 8.23558C36.9026 13.5085 38.0458 20.8276 42.9651 24.3094C46.9548 27.6226 53.1505 27.7593 57.2692 24.6056C59.2796 23.3022 60.5561 21.2104 61.7304 19.155C62.7845 16.3431 62.7801 13.2578 62.0951 10.3593C60.6674 7.01876 58.2655 4.02001 54.894 2.6528C51.6204 1.43599 47.9199 1.65474 44.7308 3.03106Z" fill="#9B9BA5"/>
<path d="M53.8048 10.2706C54.3417 9.36111 55.4155 9.98693 55.998 10.5092C53.5271 13.5167 51.2474 16.6818 48.6855 19.6173C47.1111 18.01 45.4866 16.4567 43.9258 14.8494C44.3945 14.5117 44.8859 14.1785 45.3865 13.8454C46.4285 14.9439 47.5161 16.011 48.6901 16.9924C50.3009 14.6828 52.2076 12.5892 53.8048 10.2706Z" fill="#9B9BA5"/>
</svg>
