<svg width="61" height="51" viewBox="0 0 61 51" fill="none" xmlns="http://www.w3.org/2000/svg">
<path d="M50.121 0C50.566 0.00794684 51.015 0.01987 51.472 0.0278169C51.5713 0.564229 51.6865 1.10461 51.8097 1.64103C52.4415 1.32712 53.0931 1.04103 53.7527 0.76289C53.9712 1.27944 54.1938 1.80393 54.4242 2.32842C53.4587 2.77344 52.4971 3.21847 51.5435 3.67542C51.5673 5.59855 51.5355 7.51772 51.5753 9.44086C53.1924 8.67796 54.6746 7.65679 56.2162 6.75482C57.0109 5.74557 56.0295 4.29924 56.701 3.22244C57.0546 3.24628 57.7619 3.28999 58.1155 3.31383C58.2784 3.96547 58.2864 4.6489 58.35 5.32438C58.9738 5.09392 59.6016 4.87141 60.2492 4.70453C60.2453 5.45948 60.5075 6.50449 59.4148 6.54025C59.4069 6.6674 59.395 6.92568 59.391 7.05282C59.844 7.30315 60.3208 7.54553 60.7578 7.85149C60.7658 8.42366 60.4996 8.95212 60.3367 9.48853C59.2082 9.16271 58.3817 8.05412 57.2294 7.96671C55.7791 8.85675 54.3169 9.71105 52.8309 10.5335C52.7594 10.6766 52.6124 10.9666 52.5408 11.1097C54.0706 11.8328 55.4414 12.8421 56.9195 13.6686C57.8175 14.2288 58.5804 13.2235 59.2559 12.7626C59.7049 12.7229 60.1579 12.6871 60.6228 12.6593C61.2943 14.0143 59.7089 14.352 59.2241 15.3414C59.5181 15.4248 60.1062 15.5877 60.4002 15.6712C60.3049 16.1321 60.2175 16.593 60.138 17.0579C59.9791 17.0658 59.6612 17.0857 59.5022 17.0937C59.1009 16.887 58.7115 16.6884 58.3182 16.4976C58.2943 17.0897 58.2784 17.6817 58.2705 18.2777C57.7062 18.4248 57.146 18.5718 56.5937 18.7188C56.4745 17.6857 56.4904 16.6447 56.5619 15.6076C56.4427 15.4367 56.2043 15.095 56.0851 14.9242C54.5911 14.1096 53.0891 13.2871 51.758 12.2262C51.4243 14.1176 51.5951 16.0447 51.5316 17.9519C52.0839 18.3016 52.6521 18.6433 53.2203 18.985C53.6295 19.2075 54.0467 19.438 54.4679 19.6724C54.2216 20.0777 53.9832 20.487 53.7527 20.8962C53.0097 20.6538 52.2825 20.3876 51.5554 20.1294C51.5355 20.7055 51.5236 21.2856 51.5157 21.8657C51.1779 21.8697 50.5024 21.8816 50.1647 21.8856C50.1249 21.2856 50.0932 20.6896 50.0733 20.0936C49.3501 20.3757 48.6508 20.8684 47.8482 20.7731C47.6336 20.3916 47.3714 19.9744 47.5105 19.5214C48.2694 18.9016 49.2151 18.5638 50.0932 18.1307C50.0892 16.148 50.1567 14.1613 49.9779 12.1865C48.4601 13.3706 46.7595 14.2725 45.1344 15.2858C45.1503 16.3109 45.1622 17.3321 45.186 18.3572C44.6734 18.4605 44.1648 18.5678 43.6681 18.6751C43.5927 17.9479 43.5013 17.2129 43.4377 16.4897C42.941 16.7361 42.4483 16.9903 41.9676 17.2526C41.7093 16.8354 41.455 16.4182 41.2126 16.0049C41.5424 15.6712 41.8563 15.3215 42.1543 14.956C41.7887 14.4275 41.2523 14.0659 40.7676 13.6805C41.0179 13.2871 41.2722 12.8938 41.5304 12.5004C42.4523 12.9057 43.3344 13.4063 44.1927 13.9427C45.9291 13.0924 47.4707 11.9044 49.2151 11.066C49.1396 10.9388 48.9886 10.6885 48.9131 10.5653C47.2999 9.67131 45.7264 8.70974 44.1132 7.83161C43.2787 8.52299 42.345 9.07926 41.3477 9.4925C41.2205 8.96006 41.0854 8.43557 41.0258 7.89519C41.4152 7.55347 41.8603 7.28328 42.2973 7.00117C42.2814 6.91773 42.2496 6.75481 42.2377 6.67534C41.8761 6.32966 41.5225 5.99589 41.1689 5.65815C41.3358 5.42372 41.6655 4.95882 41.8324 4.72439C42.3808 4.92306 42.9212 5.12174 43.4894 5.32041C43.5251 4.62506 43.5807 3.93765 43.6324 3.24628C44.0099 3.25025 44.7728 3.2582 45.1502 3.26218C45.1582 4.38665 45.1502 5.51113 45.1622 6.63959C46.8548 7.4899 48.4164 8.56273 50.0415 9.53621C50.117 7.54156 50.1091 5.5469 50.0574 3.55224C49.1436 3.20655 48.2416 2.82908 47.3674 2.40789C47.5462 1.85956 47.7409 1.31918 47.9436 0.782765C48.6548 1.04898 49.37 1.33109 50.0813 1.62513C50.0852 1.08077 50.1011 0.540385 50.121 0Z" fill="#9B9BA5"/>
<path d="M7.30409 42.9801C7.27628 31.9817 7.24053 20.9833 7.32 9.98486C17.1304 10.0167 26.9368 9.98088 36.7472 10.0007C36.7671 10.41 36.8108 11.2206 36.8346 11.6259C30.3897 11.6934 23.9408 11.6378 17.4959 11.6537C14.5318 11.7371 11.5437 11.455 8.59546 11.8404C8.63916 21.6747 8.59945 31.5049 8.61534 41.3391C10.4511 41.3709 12.2868 41.363 14.1265 41.363C14.1384 33.13 14.1384 24.8971 14.1265 16.6642C14.6708 16.6562 15.2271 16.6523 15.7874 16.6483C15.7715 24.8892 15.7794 33.1261 15.7834 41.363C17.6152 41.363 19.4509 41.359 21.2866 41.363C21.3025 33.138 21.3025 24.909 21.2866 16.684C21.8151 16.6602 22.3475 16.6403 22.8919 16.6244C22.8958 24.8614 22.8919 33.0983 22.8958 41.3352C24.7832 41.3749 26.6745 41.359 28.5699 41.363C28.6136 33.1181 28.546 24.8693 28.6056 16.6244C29.0904 16.6324 29.5791 16.6403 30.0758 16.6523C30.0639 24.8812 30.0758 33.1102 30.0678 41.3391C31.9115 41.3749 33.7552 41.359 35.6028 41.363C35.6187 33.134 35.6187 24.9051 35.6028 16.6721C36.1551 16.6602 36.7114 16.6483 37.2756 16.6403C37.2717 24.8812 37.2717 33.1221 37.2756 41.363C39.1074 41.363 40.9431 41.359 42.7788 41.3669C42.7947 36.4518 42.7947 31.5327 42.7788 26.6216C43.2993 26.5898 43.8278 26.562 44.3682 26.5381C44.3841 31.4692 44.3642 36.4041 44.3801 41.3391C46.2754 41.3749 48.1747 41.359 50.074 41.3669C50.1257 36.428 50.0701 31.489 50.1058 26.5501C50.5826 26.554 51.0713 26.558 51.564 26.5659C51.6753 31.497 51.3297 36.4558 51.7508 41.3709C53.519 41.359 55.2872 41.359 57.0633 41.363C57.0712 36.4439 57.0752 31.5248 57.0593 26.6057C57.5759 26.5898 58.1003 26.5739 58.6328 26.562C58.6209 32.0294 58.6447 37.4968 58.6208 42.9643C41.5153 42.9881 24.4097 42.9563 7.30409 42.9801Z" fill="#9B9BA5"/>
<path d="M0.640001 18.0679C2.30486 18.0917 3.97369 18.1195 5.64253 18.1513C5.61471 18.4056 5.56305 18.9102 5.53524 19.1645C4.4942 19.1685 3.44524 19.1089 2.42804 19.3036C1.35919 19.2837 1.82009 20.6228 1.6691 21.3022C1.7446 30.6596 1.59756 40.017 1.74855 49.3745C17.8528 49.4897 33.9651 49.4341 50.0733 49.4023C50.1329 47.7612 50.1012 46.1242 49.9621 44.4911C50.4627 44.4951 50.9753 44.4991 51.4958 44.511C51.4839 46.5494 51.5117 48.5877 51.4561 50.6261C46.378 50.3122 41.2802 50.5864 36.1982 50.4989C24.3454 50.487 12.4927 50.5148 0.640001 50.4831C0.612187 39.6753 0.612187 28.8716 0.640001 18.0679Z" fill="#9B9BA5"/>
<path d="M0.230745 17.8481C2.03352 17.8481 4.31078 17.9279 6.27431 17.9276C6.2085 18.5976 6.2085 19.7362 5.64254 19.7037C4.31078 19.7362 3.33001 19.7037 2.2095 19.7037C2.20553 29.4386 2.17375 39.1735 2.22143 48.9084C18.0833 48.9004 33.9452 48.968 49.8032 48.8726C49.8032 47.4104 49.823 45.9442 49.9621 44.4899C50.1012 46.123 50.1329 47.7601 50.0733 49.4011C33.9651 49.4329 17.8528 49.4885 1.74857 49.3733C1.59758 40.0159 1.74462 30.6585 1.66912 21.301C1.82011 20.6216 1.35921 19.2826 2.42806 19.3024C3.44526 19.1077 4.49422 19.1673 5.53525 19.1634C5.56307 18.9091 5.61473 18.4044 5.64254 18.1501C3.97371 18.1183 2.30488 18.0905 0.640019 18.0667C0.612205 28.8704 0.612205 39.6742 0.640019 50.4819C12.4927 50.5137 24.3455 50.4858 36.1982 50.4978C41.2802 50.5852 46.378 50.311 51.4561 50.6249V50.8407C50.4604 50.8679 47.4986 50.8633 45.3092 50.911C30.2936 50.8752 15.2781 50.9825 0.262515 50.8554C0.171126 39.853 0.234719 28.8505 0.230745 17.8481Z" fill="#9B9BA5"/>
</svg>
