<svg width="49" height="51" viewBox="0 0 49 51" fill="none" xmlns="http://www.w3.org/2000/svg">
<path d="M20.817 50.4978H5.23746H3.04297C1.9384 50.4978 1.04297 49.6023 1.04297 48.4978V17.4492M1.04297 17.4492L12.428 5.76367M1.04297 17.4492H10.428C11.5326 17.4492 12.428 16.5537 12.428 15.4492V5.76367M12.428 5.76367H29.0383M4.63824 35.6847H15.4241M4.63824 31.6435H20.2178M4.63824 26.9287H18.4201M4.63824 22.5428H20.2178M4.63824 39.7259H17.5446M4.63824 44.5827H20.817" stroke="#5C5C5C" stroke-width="0.9" stroke-linecap="round"/>
<circle cx="34.4394" cy="13.664" r="7.38782" stroke="#5C5C5C" stroke-width="0.9"/>
<circle cx="34.4442" cy="13.661" r="2.56455" stroke="#5C5C5C" stroke-width="0.9"/>
<path d="M28.8754 19.0879L23.1304 40.1644C22.7822 41.7451 22.7636 45.2754 26.524 46.7508M33.8367 21.1955L25.7415 50.4392" stroke="#5C5C5C" stroke-width="0.9" stroke-linecap="round"/>
<path d="M39.455 19.0879L44.5616 40.1644C44.8711 41.7451 44.8876 45.2754 41.5451 46.7508M35.0449 21.1955L42.2406 50.4392" stroke="#5C5C5C" stroke-width="0.9" stroke-linecap="round"/>
<path d="M21.1758 37.1738H23.6354M29.5045 37.1738H38.6602M44.0863 37.1738H47.7038" stroke="#5C5C5C" stroke-width="0.9" stroke-linecap="round"/>
<path d="M20.5742 35.9668V38.3784" stroke="#5C5C5C" stroke-width="0.9" stroke-linecap="round"/>
<path d="M34.4219 35.9668V38.3784" stroke="#5C5C5C" stroke-width="0.9" stroke-linecap="round"/>
<path d="M48.3086 35.9668V38.3784" stroke="#5C5C5C" stroke-width="0.9" stroke-linecap="round"/>
<path d="M31.4297 6.76716L31.4297 4.01475C31.4297 2.34986 32.7793 1.0002 34.4442 1.0002V1.0002C36.1091 1.0002 37.4588 2.34986 37.4588 4.01475L37.4588 7.0293" stroke="#5C5C5C" stroke-width="0.9"/>
</svg>
