<svg width="48" height="48" viewBox="0 0 48 48" fill="none" xmlns="http://www.w3.org/2000/svg">
<path d="M23 43.5C34.0457 43.5 43 34.5457 43 23.5C43 12.4543 34.0457 3.5 23 3.5C11.9543 3.5 3 12.4543 3 23.5C3 34.5457 11.9543 43.5 23 43.5Z" stroke="#5C5C5C" stroke-linecap="round" stroke-linejoin="round"/>
<path d="M35 39C35 35.8174 33.7357 33.2652 31.4853 31.0147C29.2348 28.7643 26.1826 27.5 23 27.5C19.8174 27.5 16.7652 28.7643 14.5147 31.0147C12.2643 33.2652 11 35.8174 11 39" stroke="#5C5C5C" stroke-linecap="round" stroke-linejoin="round"/>
<path d="M23 27.5C27.4183 27.5 31 23.9183 31 19.5C31 15.0817 27.4183 11.5 23 11.5C18.5817 11.5 15 15.0817 15 19.5C15 23.9183 18.5817 27.5 23 27.5Z" stroke="#5C5C5C" stroke-linecap="round" stroke-linejoin="round"/>
</svg>
