<svg width="48" height="48" viewBox="0 0 48 48" fill="none" xmlns="http://www.w3.org/2000/svg">
<path d="M31.5662 31.7146V22.1653V16.3125C31.5662 15.1217 30.6008 14.1562 29.4099 14.1562V14.1562C28.219 14.1562 27.2536 15.1217 27.2536 16.3125V29.8204C27.2536 30.3092 26.5851 30.5353 26.2438 30.1854C24.7806 28.6852 23.1614 28.0175 22.1462 27.7437C22.0615 27.7208 21.9708 27.7224 21.8875 27.7496C19.8815 28.4041 20.3799 30.2507 20.7847 30.7905C21.7088 32.0226 22.633 32.0226 23.249 32.6387C23.645 33.0347 24.5978 35.3132 25.2766 37.0456C25.5666 37.7857 26.0681 38.4198 26.6711 38.9377C27.8739 39.9709 28.8519 41.1277 29.3158 41.7511C29.378 41.8347 29.4099 41.936 29.4099 42.0402V46.0006C29.4099 46.2767 29.6337 46.5006 29.9099 46.5006H39.3833C39.6594 46.5006 39.8833 46.2767 39.8833 46.0006V42.369C39.8833 42.2521 39.9248 42.1392 39.9974 42.0475C41.1663 40.5723 41.9497 38.4627 42.3476 37.5674C43.5798 34.8566 43.5202 32.7414 43.5202 32.0226L43.5202 30.4824V29.7123C43.5202 28.6065 42.6238 27.7101 41.5179 27.7101V27.7101C40.4121 27.7101 39.5157 28.6065 39.5157 29.7123V31.0985M35.5707 31.7146V27.2182C35.5707 26.1288 36.4538 25.2457 37.5432 25.2457V25.2457C38.6326 25.2457 39.5157 26.1288 39.5157 27.2182V28.0181M39.5157 27.094V28.0181M39.5157 28.0181V32.0226" stroke="#1E1E1E" stroke-width="1.5" stroke-linecap="round"/>
<path d="M31.5662 31.7128V23.8577C31.5662 22.7519 32.4626 21.8555 33.5684 21.8555V21.8555C34.6743 21.8555 35.5707 22.7519 35.5707 23.8577V31.7128" stroke="#1E1E1E" stroke-width="1.5" stroke-linecap="round"/>
<rect x="5.22925" y="2.24902" width="13.2995" height="13.2995" rx="1.25" stroke="#1E1E1E" stroke-width="1.5"/>
<path d="M35.2166 4.57894V4.06641C35.2166 2.96184 34.3212 2.06641 33.2166 2.06641H23.5555C22.451 2.06641 21.5555 2.96184 21.5555 4.06641V13.6107C21.5555 14.7152 22.451 15.6107 23.5555 15.6107H25.54M35.2166 8.56341V13.6107C35.2166 14.7152 34.3212 15.6107 33.2166 15.6107H32.9398" stroke="#1E1E1E" stroke-width="1.5"/>
<rect x="5.22925" y="19.3262" width="13.2995" height="13.2995" rx="1.25" stroke="#1E1E1E" stroke-width="1.5"/>
<path d="M25.7076 8.56358L28.7683 11.8354C28.8429 11.9151 28.9675 11.9203 29.0485 11.8472L37.0919 4.5791" stroke="#1E1E1E" stroke-width="1.5" stroke-linecap="round"/>
</svg>
