<svg width="61" height="61" viewBox="0 0 61 62" fill="none" xmlns="http://www.w3.org/2000/svg">
<path d="M43.6321 23.5699V2C43.6321 1.44772 43.1844 1 42.6321 1H9.251C8.98579 1 8.73143 1.10536 8.54389 1.29289L1.29289 8.54389C1.10536 8.73143 1 8.98578 1 9.251V60.5C1 61.0523 1.44772 61.5 2 61.5H42.6321C43.1844 61.5 43.6321 61.0523 43.6321 60.5V41.4378" stroke="white" stroke-width="0.8" stroke-linecap="round" stroke-linejoin="round"/>
<path d="M1 9.15026H6.83679C7.94136 9.15026 8.83679 8.25483 8.83679 7.15026V1" stroke="white" stroke-width="0.8" stroke-linejoin="round"/>
<path d="M7.58203 16.9868H36.7349" stroke="white" stroke-width="0.8" stroke-linecap="round" stroke-linejoin="round"/>
<path d="M7.58203 25.1377H36.7349" stroke="white" stroke-width="0.8" stroke-linecap="round" stroke-linejoin="round"/>
<path d="M7.26953 33.9146H24.197" stroke="white" stroke-width="0.8" stroke-linecap="round" stroke-linejoin="round"/>
<path d="M7.26953 42.0649L19.1814 42.0649" stroke="white" stroke-width="0.8" stroke-linecap="round" stroke-linejoin="round"/>
<path d="M25.8784 43.8003L51.1634 18.2935C51.5403 17.9134 52.1495 17.8973 52.5458 18.2571L57.2892 22.5636C57.7068 22.9427 57.7284 23.592 57.3368 23.9981L32.7881 49.456C32.704 49.5432 32.6048 49.6144 32.4953 49.6661L23.6683 53.8344C22.8478 54.2219 21.9769 53.4042 22.3119 52.561L25.6592 44.1352C25.7089 44.0099 25.7835 43.896 25.8784 43.8003Z" stroke="white" stroke-width="0.8" stroke-linecap="round" stroke-linejoin="round"/>
<path d="M26.0781 43.9458L32.3476 49.5883M41.7517 28.2722L47.3942 33.9147M45.1999 24.5105L50.8424 30.153M53.3501 18.868C54.604 17.5097 57.488 15.1691 58.9926 16.6737C60.8735 18.5546 58.0522 22.0028 57.4253 22.3162" stroke="white" stroke-width="0.8" stroke-linecap="round" stroke-linejoin="round"/>
<path d="M7.26953 51.7819C7.79198 50.8415 10.1535 49.5249 11.6581 50.528C13.539 51.7819 14.1659 55.5437 17.9276 53.6629" stroke="white" stroke-width="0.8" stroke-linecap="round" stroke-linejoin="round"/>
<path d="M46.7666 41.1247C47.0801 40.8112 54.8124 32.9744 58.6785 28.8993C60.5593 26.9168 60.8728 25.1376 57.1112 22.3164" stroke="white" stroke-width="0.8" stroke-linecap="round" stroke-linejoin="round"/>
</svg>
