<svg width="74" height="62" viewBox="0 0 64 62" fill="none" xmlns="http://www.w3.org/2000/svg">
<rect x="1.4" y="0.4" width="61.2" height="61.2" rx="3.6" stroke="white" stroke-width="0.8"/>
<path d="M1.36035 8.65115H62.6394M4.965 4.68604H6.0464M9.29058 4.68604H10.372M13.6162 4.68604H14.6976" stroke="white" stroke-width="0.8" stroke-linecap="round"/>
<path d="M15.4178 19.4653C12.534 19.3452 6.7666 20.763 6.7666 27.3956C6.7666 34.0281 12.534 35.6862 15.4178 35.6861L34.5224 36.407M48.5806 37.128C51.5844 37.3683 57.5922 39.8675 57.5922 47.9419C57.5922 51.1861 55.4294 55.8722 48.941 56.2326H33.8015" stroke="white" stroke-width="0.8" stroke-linecap="round"/>
<path d="M30.5576 56.2324H29.1157" stroke="white" stroke-width="0.8" stroke-linecap="round"/>
<path d="M25.8723 56.2323H23.7096M6.40723 56.2323H8.57002M8.57002 56.2323V46.7788C8.57002 46.2265 9.01773 45.7788 9.57002 45.7788H22.7096C23.2618 45.7788 23.7096 46.2265 23.7096 46.7788V56.2323M8.57002 56.2323H23.7096" stroke="white" stroke-width="0.8" stroke-linecap="round"/>
<path d="M7.688 45.7792H8.57002H23.3491H24.2311C24.8817 45.7792 25.359 45.1678 25.2012 44.5367L24.6199 42.2111C24.5086 41.7659 24.1086 41.4536 23.6497 41.4536H8.2694C7.81053 41.4536 7.41055 41.7659 7.29926 42.2111L6.71786 44.5367C6.56007 45.1678 7.03743 45.7792 7.688 45.7792Z" stroke="white" stroke-width="0.8" stroke-linecap="round"/>
<path d="M13.9759 55.8721C13.8558 54.1899 14.0996 51.1855 16.1387 51.186C18.3016 51.1866 18.4214 54.4302 18.3011 55.8721" stroke="white" stroke-width="0.8" stroke-linecap="round"/>
<path d="M43.4536 28.8372H50.3838H56.2327C56.785 28.8372 57.2327 28.3895 57.2327 27.8372V15.0581C57.2327 14.5058 56.785 14.0581 56.2327 14.0581H43.4536C42.9013 14.0581 42.4536 14.5058 42.4536 15.0581V27.8372C42.4536 28.3895 42.9013 28.8372 43.4536 28.8372Z" stroke="white" stroke-width="0.8" stroke-linecap="round"/>
<path d="M46.7798 14.0581V18.1046C46.7798 18.6569 47.2275 19.1046 47.7798 19.1046H52.2682C52.8204 19.1046 53.2682 18.6569 53.2682 18.1046V14.0581M53.2682 24.5116V25.2325" stroke="white" stroke-width="0.8" stroke-linecap="round"/>
<path d="M39.2085 19.4653H37.7667M34.883 19.4653H31.2783M17.5806 25.2328C16.4997 27.0351 17.5807 31.0002 23.3481 31.0002C26.1116 31.0002 31.2783 29.5584 29.4759 25.2328" stroke="white" stroke-width="0.8" stroke-linecap="round"/>
<path d="M35.2668 46.1401C34.1571 47.9425 35.2669 51.9076 41.1874 51.9076C44.0244 51.9076 49.3283 50.4657 47.478 46.1401" stroke="white" stroke-width="0.8" stroke-linecap="round"/>
<path d="M45.6952 39.2916C45.6952 41.7003 43.5273 44.9997 42.1486 47.3033C41.7738 47.9294 40.861 48.0099 40.4328 47.4189C37.0551 42.7558 37.0486 39.9255 37.0464 38.9304C37.0423 37.0924 38.8349 34.965 41.3696 34.9653C43.5324 34.9656 45.6952 36.7677 45.6952 39.2916Z" stroke="white" stroke-width="0.8" stroke-linecap="round"/>
<path d="M27.6717 18.7452C27.6717 21.1539 25.5039 24.4533 24.1252 26.7569C23.7504 27.3831 22.8375 27.4635 22.4094 26.8725C19.0317 22.2094 19.0252 19.3791 19.0229 18.3841C19.0188 16.546 20.8115 14.4186 23.3461 14.4189C25.509 14.4192 27.6717 16.2213 27.6717 18.7452Z" stroke="white" stroke-width="0.8" stroke-linecap="round"/>
</svg>
