<svg width="147" height="67" viewBox="0 0 147 67" fill="none" xmlns="http://www.w3.org/2000/svg">
<path d="M33.566 0.333496H72.7504C62.7596 2.78492 53.16 6.79381 44.3355 12.0738C37.8927 15.9814 31.7746 20.6154 26.973 26.4681C23.4076 30.8297 20.5965 36.1376 20.4568 41.8786C20.2403 46.53 21.9165 51.2373 25.0523 54.6875C28.8831 58.9862 34.4215 61.3573 39.9774 62.4538C48.3095 64.1579 56.8895 63.3268 65.2076 61.9754C58.2584 64.6887 50.8377 66.2741 43.3647 66.3335H42.8304C37.5085 66.2986 32.1727 65.4744 27.158 63.6691C20.5057 61.3049 14.3561 57.09 10.4171 51.1535C6.90757 45.9259 5.44091 39.3538 6.49551 33.1379C7.48376 26.7544 10.693 20.9192 14.7542 15.9779C19.9958 9.6608 26.5784 4.58334 33.566 0.333496Z" fill="#E3E3E3"/>
<path d="M0.482422 3.87777C8.51417 3.87777 16.5424 3.87078 24.5742 3.88126C20.1986 7.19523 16.085 10.9073 12.6767 15.227C8.61195 15.2479 4.54718 15.2305 0.482422 15.2375V3.87777Z" fill="#E3E3E3"/>
<path d="M66.6531 4.23398C67.2747 4.01748 67.9207 3.83589 68.5877 3.8743C76.3436 3.88129 84.096 3.8743 91.8518 3.87779C91.8484 7.66319 91.8518 11.4521 91.8518 15.2375C78.7601 15.2375 65.6684 15.2375 52.5766 15.2375C52.5801 22.8572 52.5801 30.4768 52.5766 38.1C47.4852 38.0826 42.3903 38.1349 37.2988 38.0721C37.3128 31.8492 37.3023 25.6264 37.3023 19.4C46.0849 12.6568 56.1525 7.68414 66.6531 4.23398Z" fill="#E3E3E3"/>
<path d="M57.3447 19.8299C59.7891 18.4959 62.6875 19.0686 65.3485 18.9359C65.3485 20.1616 65.3485 21.3873 65.3485 22.6131C64.2031 22.6445 63.0088 22.4769 61.9053 22.8645C60.6237 23.3918 60.2466 24.8969 60.2431 26.1505C60.2256 28.4308 60.2361 30.7112 60.2431 32.9915C58.504 33.0439 56.7615 33.0019 55.0224 33.0159C55.0329 30.0267 54.991 27.034 55.0399 24.0448C55.0783 22.3896 55.8012 20.6156 57.3447 19.8299Z" fill="#E3E3E3"/>
<path d="M66.7681 18.9604C69.6945 18.9045 72.6243 18.9534 75.5541 18.9324C76.937 18.9045 78.4456 19.128 79.4688 20.1511C80.6142 21.2337 80.8132 22.9169 80.8027 24.4115C80.7573 26.5102 80.8586 28.6089 80.7538 30.7042C80.698 31.9369 79.5805 32.9007 78.3618 32.8797C75.3376 32.9321 72.31 32.8902 69.2824 32.9007C68.0951 32.9635 66.7611 32.4537 66.3072 31.2734C65.6926 29.7194 65.6926 27.9594 66.0138 26.3391C66.2338 25.1937 67.2151 24.2473 68.4024 24.181C70.7107 24.0588 73.0259 24.1985 75.3342 24.1216C76.1688 23.6886 75.1595 22.4629 74.4437 22.4664C71.891 22.3546 69.3313 22.4524 66.7751 22.421C66.7751 21.2651 66.7821 20.1127 66.7681 18.9604ZM70.9097 28.2562C71.0075 28.4658 71.21 28.8813 71.3113 29.0908C72.6208 29.1572 73.9478 29.227 75.2573 29.0699C75.7916 28.6892 75.5891 27.9943 75.6624 27.4426C74.2132 27.4391 72.764 27.3937 71.3183 27.4985C71.217 27.687 71.011 28.0642 70.9097 28.2562Z" fill="#E3E3E3"/>
<path d="M84.223 19.1104C85.9725 18.7892 87.7674 18.9917 89.5344 18.9358C91.5144 18.9603 93.7144 18.7577 95.429 19.9485C96.8398 20.8006 97.5103 22.4838 97.5138 24.0831C97.5522 27.0584 97.5173 30.0371 97.5278 33.0158C95.7713 33.0053 94.0113 33.0403 92.2582 32.9914C92.2513 30.3688 92.2932 27.7463 92.2408 25.1238C92.2548 24.0796 91.6611 22.9587 90.5786 22.7247C89.6252 22.5676 88.5776 22.4558 87.6976 22.9342C87.6941 26.2936 87.6941 29.6565 87.6941 33.0158C85.9551 33.0123 84.2125 33.0158 82.4735 33.0123C82.484 29.1012 82.4595 25.1901 82.484 21.279C82.3932 20.2244 83.2138 19.299 84.223 19.1104Z" fill="#E3E3E3"/>
<path d="M99.8522 19.7532C100.613 18.9779 101.773 18.9605 102.789 18.936C105.886 18.936 108.987 18.9395 112.088 18.936C112.085 20.1373 112.085 21.3386 112.088 22.5364C109.211 22.6306 106.306 22.3443 103.449 22.6935C104.42 23.5944 105.827 23.7271 107.014 24.216C108.722 24.8691 110.873 25.1519 111.9 26.8595C112.612 28.19 112.661 29.8592 112.12 31.2595C111.655 32.4503 110.335 33.0649 109.11 33.016C105.705 33.0056 102.297 33.037 98.8919 32.9951C98.8988 31.7379 98.8988 30.4843 98.8954 29.2271C101.546 29.1957 104.2 29.283 106.85 29.1887C106.871 29.0456 106.91 28.7627 106.931 28.623C105.171 27.8687 103.281 27.4706 101.5 26.7722C100.428 26.3357 99.2795 25.6478 98.9792 24.443C98.609 22.8821 98.616 20.944 99.8522 19.7532Z" fill="#E3E3E3"/>
<path d="M0.482422 19.0474C3.6148 19.0509 6.74718 19.0439 9.87957 19.0543C6.3421 24.6032 3.9221 31.067 4.07576 37.7194C4.17703 45.0004 7.49099 52.0229 12.6104 57.1283C8.56655 57.1004 4.52623 57.1248 0.482422 57.1143V19.0474Z" fill="#E3E3E3"/>
<path d="M24.514 34.1509C26.6337 29.7055 29.9093 25.9131 33.5096 22.5991C33.5061 34.1055 33.5096 45.6083 33.5096 57.1147C32.7972 57.1077 32.0778 57.1636 31.3724 57.0763C27.7267 55.0928 24.7655 51.7788 23.421 47.8328C21.881 43.3699 22.4851 38.3588 24.514 34.1509Z" fill="#E3E3E3"/>
<path d="M72.51 38.0054C74.2456 37.9985 75.9846 38.0054 77.7202 38.002C77.7237 39.7131 77.7202 41.4242 77.7237 43.1353C79.0576 43.1353 80.3951 43.1353 81.7325 43.1318C81.736 44.3366 81.736 45.5448 81.736 46.7496C80.3986 46.7531 79.0611 46.7496 77.7237 46.7531C77.8459 48.562 77.3814 50.5105 78.1776 52.2112C78.89 53.4439 80.437 53.4578 81.6871 53.4508C81.6767 54.6975 81.6802 55.9442 81.6837 57.1908C79.4976 57.107 77.2243 57.4772 75.1291 56.688C73.5052 56.1013 72.4856 54.4007 72.5065 52.707C72.4856 50.7235 72.51 48.7366 72.4995 46.7531C71.8395 46.7496 71.1795 46.7496 70.5195 46.7496C70.523 45.5448 70.5195 44.34 70.5195 43.1353C71.1795 43.1353 71.8395 43.1353 72.4995 43.1353C72.503 41.4242 72.4925 39.7166 72.51 38.0054Z" fill="#E3E3E3"/>
<path d="M98.9019 38.0968C100.648 38.0688 102.397 38.0863 104.144 38.0828C104.144 39.3015 104.147 40.5237 104.14 41.7425C102.394 41.7355 100.644 41.7774 98.8984 41.7145C98.9124 40.5098 98.9124 39.3015 98.9019 38.0968Z" fill="#E3E3E3"/>
<path d="M41.1904 43.2333C43.0831 42.8946 45.0247 42.9749 46.9384 43.0342C48.7158 43.1041 50.7028 43.5685 51.8063 45.0911C53.1088 46.9942 53.0879 49.4108 52.9622 51.6212C52.8434 53.5733 52.0298 55.7768 50.1091 56.6079C47.8882 57.5508 45.4123 57.3971 43.0552 57.3377C41.0158 57.2295 38.6237 56.6743 37.6495 54.6593C36.511 52.2044 36.525 49.306 37.2199 46.7289C37.6809 44.8746 39.3222 43.5057 41.1904 43.2333ZM43.5755 46.9419C42.479 47.2876 42.0914 48.5063 42.1158 49.5504C42.1193 50.6923 41.9622 52.0787 42.8945 52.9343C44.3158 54.0866 47.1723 53.7584 47.5704 51.712C47.7695 50.3606 47.9022 48.8066 47.1584 47.5914C46.2784 46.5996 44.7593 46.6066 43.5755 46.9419Z" fill="#E3E3E3"/>
<path d="M124.123 43.6707C126.208 42.7872 128.53 43.0421 130.737 42.9897C132.389 43.0561 134.267 42.885 135.654 43.964C137.138 45.2596 137.117 47.4282 137.096 49.237C137.117 50.2882 136.495 51.5942 135.298 51.5942C132.584 51.6431 129.867 51.5872 127.154 51.6151C127.2 52.4602 127.64 53.3577 128.6 53.3786C131.264 53.5009 133.943 53.3926 136.611 53.431C136.611 54.6812 136.611 55.9348 136.611 57.1885C133.363 57.192 130.115 57.1955 126.868 57.1885C125.583 57.185 124.144 57.0209 123.219 56.0291C122.171 54.9885 122.08 53.4136 122.056 52.0237C122.063 50.2602 121.975 48.4932 122.115 46.7367C122.22 45.4726 122.915 44.1875 124.123 43.6707ZM127.881 46.7332C127.196 46.9567 127.262 47.7459 127.165 48.3117C128.607 48.3012 130.056 48.3675 131.498 48.2837C132.211 47.9205 131.931 46.7717 131.167 46.7158C130.098 46.4678 128.942 46.4399 127.881 46.7332Z" fill="#E3E3E3"/>
<path d="M54.9148 45.3845C54.824 44.0261 56.2138 43.188 57.4221 43.167C59.3986 43.0832 61.3786 43.1635 63.3551 43.1321C64.923 43.0972 66.6062 43.2404 67.9227 44.1762C69.2567 45.0213 69.9272 46.6312 69.9376 48.1712C69.9481 51.1778 69.9376 54.1845 69.9411 57.1912C68.2335 57.1667 66.5294 57.2401 64.8253 57.1632C64.4411 54.3521 64.937 51.3734 64.5703 48.5204C64.1478 46.694 61.8326 46.481 60.3624 46.9804C60.31 47.0886 60.2052 47.3051 60.1529 47.4134C60.0621 50.668 60.1389 53.9331 60.118 57.1912C58.3789 57.1877 56.6433 57.1947 54.9043 57.1877C54.9183 53.2521 54.8903 49.3201 54.9148 45.3845Z" fill="#E3E3E3"/>
<path d="M83.4822 46.7287C83.4857 45.5623 83.4857 44.3925 83.4857 43.2261C86.5482 43.2261 89.6142 43.2261 92.6768 43.2227C94.1399 43.2227 95.7603 43.6766 96.6193 44.9477C97.5831 46.2782 97.5272 48.0103 97.5307 49.5712C97.4853 51.4081 97.618 53.2484 97.4574 55.0782C97.3876 56.2655 96.298 57.1665 95.1387 57.1665C91.9888 57.2154 88.8355 57.1944 85.6857 57.1769C84.4355 57.2223 83.2098 56.4227 82.8745 55.19C82.4345 53.5871 82.3577 51.8271 82.8641 50.2277C83.2342 49.0439 84.5018 48.363 85.6926 48.3979C87.9136 48.37 90.138 48.4119 92.359 48.3804C92.2822 47.7169 92.0936 46.8265 91.2625 46.7846C88.6714 46.6554 86.0733 46.7741 83.4822 46.7287ZM88.1511 53.3741C89.4536 53.5242 90.7736 53.4474 92.0831 53.3741C92.2891 52.8677 92.3764 52.33 92.4218 51.7887C90.9901 51.7608 89.5444 51.6595 88.1196 51.8271C87.5015 52.1728 87.5923 53.0109 88.1511 53.3741Z" fill="#E3E3E3"/>
<path d="M98.9092 43.1425C100.652 43.1286 102.398 43.1355 104.147 43.1355C104.14 47.8184 104.147 52.5047 104.144 57.1876C102.398 57.1876 100.655 57.2016 98.9092 57.1771C98.9057 52.4978 98.9127 47.8184 98.9092 43.1425Z" fill="#E3E3E3"/>
<path d="M105.748 45.14C105.807 43.8025 107.242 43.16 108.416 43.153C110.612 43.1076 112.812 43.139 115.012 43.139C116.699 43.139 118.494 43.6454 119.625 44.9689C120.589 46.0235 120.781 47.5111 120.774 48.8835C120.777 51.6527 120.774 54.4219 120.774 57.1911C119.028 57.1876 117.282 57.1946 115.539 57.1876C115.501 54.5441 115.595 51.8971 115.494 49.2571C115.508 48.1676 114.789 47.0606 113.678 46.8685C112.826 46.7987 111.876 46.6136 111.087 47.0327C110.86 47.4936 110.961 48.0314 110.93 48.5273C110.947 51.4152 110.926 54.3031 110.94 57.1946C109.201 57.1876 107.459 57.1946 105.716 57.1876C105.737 53.1717 105.674 49.1558 105.748 45.14Z" fill="#E3E3E3"/>
<path d="M139.939 44.4242C141.671 43.0518 144.01 43.1182 146.102 43.1286V46.701C145.393 47.0083 144.527 47.1724 144.08 47.8674C143.479 48.7753 143.445 49.9032 143.441 50.9578C143.448 53.0356 143.445 55.1134 143.455 57.1912C141.706 57.1877 139.959 57.1912 138.213 57.1912C138.22 54.408 138.206 51.6283 138.217 48.8451C138.22 47.2423 138.594 45.4509 139.939 44.4242Z" fill="#E3E3E3"/>
</svg>
