<svg width="70" height="63" viewBox="0 0 70 63" fill="none" xmlns="http://www.w3.org/2000/svg">
<path d="M20.9212 3.55262C26.0012 -1.04737 34.0012 -0.927368 38.8679 3.92596C42.0145 1.45929 45.8945 -0.660703 50.0278 0.272629C55.6545 0.965961 60.0678 6.29928 60.0945 11.8859C60.2012 18.5126 60.0545 25.1392 60.1078 31.7659C62.5878 32.0459 65.0678 31.8326 67.5078 31.3392C67.9211 32.0859 68.7745 33.5792 69.1878 34.3126C61.8145 37.8726 54.6945 31.3126 47.1478 33.3126C41.5745 34.6992 35.8545 37.0992 30.0412 35.3659C24.3879 33.4726 18.1879 31.8992 12.3612 34.1259C8.58792 35.7259 4.48126 35.7526 0.62793 34.3792C1.12126 33.3792 1.61459 32.3792 2.10793 31.3926C4.58792 31.9126 7.12125 31.9792 9.64125 31.7392C9.65458 21.4726 9.64125 11.1926 9.64125 0.925961C13.4412 0.925961 17.2279 0.925961 21.0279 0.925961C21.0012 1.57929 20.9479 2.89929 20.9212 3.55262ZM21.2279 12.3126C20.8412 17.9526 21.2146 23.6059 21.1079 29.2592C23.8546 29.8459 26.5745 30.5259 29.2812 31.2859C29.0145 24.8726 29.5212 18.4326 29.0279 12.0193C28.1612 8.13928 21.6012 8.31261 21.2279 12.3126ZM40.5879 11.9259C40.0545 18.4459 40.5745 24.9926 40.3479 31.5259C43.0945 30.6459 45.8545 29.8459 48.6412 29.1659C48.5212 23.4059 48.9478 17.6459 48.4412 11.9126C47.1745 8.49928 41.8545 8.53928 40.5879 11.9259Z" fill="#E3E3E3"/>
<path d="M15.4281 37.4324C21.668 34.8191 32.028 35.8057 33.508 43.8057C31.068 43.8057 28.628 43.8057 26.2014 43.7524C24.6414 41.4591 21.3747 40.6724 19.2281 42.6591C18.0814 47.4324 24.668 46.5524 27.588 47.7791C33.9747 48.3924 35.5347 58.2857 29.708 60.819C23.3214 63.9924 12.1614 63.5257 10.7347 54.8724C13.2014 54.9124 15.6814 54.9257 18.1481 54.9924C19.5614 57.9257 24.948 58.419 25.388 54.619C22.508 50.739 16.0947 52.8057 12.7214 49.179C8.60141 45.8457 10.7081 38.9791 15.4281 37.4324Z" fill="#E3E3E3"/>
<path d="M42.5075 37.6454C49.2274 33.6587 58.4408 39.0454 58.9608 46.6987C56.6408 46.6854 54.3208 46.6854 51.9874 46.672C50.7208 44.6454 49.1074 41.712 46.2141 42.9654C41.8675 45.8587 41.8541 54.552 47.3875 56.0187C49.8408 56.2187 50.7741 53.7653 52.0274 52.1787C54.3074 52.1787 56.6008 52.192 58.8941 52.2053C57.9341 55.5387 56.6408 59.1387 53.3208 60.8053C47.8408 64.512 39.2941 61.6987 37.3341 55.3387C35.4141 49.2454 36.1341 40.8454 42.5075 37.6454Z" fill="#E3E3E3"/>
</svg>
