<svg width="24" height="30" viewBox="0 0 24 30" fill="none" xmlns="http://www.w3.org/2000/svg">
<path d="M7.78937 14.8149L9.57402 16.5987C9.87805 16.9025 10.3708 16.9025 10.6749 16.5987L15.9623 11.3141M5.45383 24.1505L11.5895 28.84C11.8722 29.056 12.2654 29.053 12.5447 28.8326L19.4083 23.4169C19.4457 23.3874 19.4811 23.3536 19.5124 23.3177C22.1933 20.2423 22.5803 18.6864 22.9672 15.5929C23.0356 15.0458 22.9772 8.60582 22.9683 4.15666C22.9672 3.64551 22.4811 3.27529 21.9766 3.35876C18.0455 4.00904 14.3464 2.35573 12.5379 1.14602C12.2531 0.955485 11.8799 0.950016 11.5933 1.13785C8.03261 3.47117 4.31044 3.65227 2.18209 3.3519C1.67004 3.27964 1.1724 3.65897 1.16666 4.1758C1.11855 8.50422 0.813339 14.1544 1.1728 15.5929C2.34035 21.4276 4.28628 23.1132 5.45383 24.1505Z" stroke="#5C5C5C" stroke-width="1.5" stroke-linecap="round"/>
</svg>
