<svg width="48" height="48" viewBox="0 0 48 48" fill="none" xmlns="http://www.w3.org/2000/svg">
<path d="M4.00006 41.998C5.20006 42.998 6.40006 43.998 9.00006 43.998C14.0001 43.998 14.0001 39.998 19.0001 39.998C21.6001 39.998 22.8001 40.998 24.0001 41.998C25.2001 42.998 26.4001 43.998 29.0001 43.998C34.0001 43.998 34.0001 39.998 39.0001 39.998C41.6001 39.998 42.8001 40.998 44.0001 41.998" stroke="#1E1E1E" stroke-width="1.5" stroke-linecap="round" stroke-linejoin="round"/>
<path d="M38.76 40.002C40.9114 36.3711 42.0316 32.2222 42 28.002L24 20.002L6 28.002C6 33.802 7.88 38.682 11.62 43.522" stroke="#1E1E1E" stroke-width="1.5" stroke-linecap="round" stroke-linejoin="round"/>
<path d="M38.0001 25.998V13.998C38.0001 12.9372 37.5786 11.9198 36.8285 11.1696C36.0783 10.4195 35.0609 9.99805 34.0001 9.99805H14.0001C12.9392 9.99805 11.9218 10.4195 11.1716 11.1696C10.4215 11.9198 10.0001 12.9372 10.0001 13.998V25.998" stroke="#1E1E1E" stroke-width="1.5" stroke-linecap="round" stroke-linejoin="round"/>
<path d="M24 20.002V28.002" stroke="#1E1E1E" stroke-width="1.5" stroke-linecap="round" stroke-linejoin="round"/>
<path d="M24 3.99805V9.99805" stroke="#1E1E1E" stroke-width="1.5" stroke-linecap="round" stroke-linejoin="round"/>
</svg>
