<svg width="5" height="8" viewBox="0 0 5 8" fill="none" xmlns="http://www.w3.org/2000/svg">
<path d="M4.38712 3.52655L1.56045 0.699884C1.49847 0.637399 1.42474 0.587802 1.3435 0.553957C1.26226 0.520111 1.17512 0.502686 1.08712 0.502686C0.999109 0.502686 0.911972 0.520111 0.830732 0.553957C0.749493 0.587802 0.675759 0.637399 0.613784 0.699884C0.489616 0.824793 0.419922 0.993761 0.419922 1.16988C0.419922 1.34601 0.489616 1.51498 0.613784 1.63988L2.97378 3.99988L0.613784 6.35988C0.489616 6.48479 0.419922 6.65376 0.419922 6.82988C0.419922 7.00601 0.489616 7.17498 0.613784 7.29988C0.676077 7.36167 0.749954 7.41056 0.831179 7.44373C0.912404 7.47691 0.999379 7.49372 1.08712 7.49322C1.17485 7.49372 1.26183 7.47691 1.34305 7.44373C1.42428 7.41056 1.49816 7.36167 1.56045 7.29988L4.38712 4.47322C4.4496 4.41124 4.4992 4.33751 4.53304 4.25627C4.56689 4.17503 4.58432 4.08789 4.58432 3.99988C4.58432 3.91188 4.56689 3.82474 4.53304 3.7435C4.4992 3.66226 4.4496 3.58853 4.38712 3.52655Z" fill="white"/>
</svg>
