<svg width="32" height="32" viewBox="0 0 32 32" fill="none" xmlns="http://www.w3.org/2000/svg">
<path d="M20.9468 11.0534C20.8228 10.9285 20.6754 10.8293 20.5129 10.7616C20.3504 10.6939 20.1761 10.659 20.0001 10.659C19.8241 10.659 19.6498 10.6939 19.4873 10.7616C19.3249 10.8293 19.1774 10.9285 19.0534 11.0534L16.0001 14.1201L12.9468 11.0534C12.6957 10.8024 12.3552 10.6613 12.0001 10.6613C11.645 10.6613 11.3045 10.8024 11.0534 11.0534C10.8024 11.3045 10.6613 11.645 10.6613 12.0001C10.6613 12.3552 10.8024 12.6957 11.0534 12.9468L14.1201 16.0001L11.0534 19.0534C10.9285 19.1774 10.8293 19.3249 10.7616 19.4873C10.6939 19.6498 10.659 19.8241 10.659 20.0001C10.659 20.1761 10.6939 20.3504 10.7616 20.5129C10.8293 20.6754 10.9285 20.8228 11.0534 20.9468C11.1774 21.0717 11.3249 21.1709 11.4873 21.2386C11.6498 21.3063 11.8241 21.3412 12.0001 21.3412C12.1761 21.3412 12.3504 21.3063 12.5129 21.2386C12.6754 21.1709 12.8228 21.0717 12.9468 20.9468L16.0001 17.8801L19.0534 20.9468C19.1774 21.0717 19.3249 21.1709 19.4873 21.2386C19.6498 21.3063 19.8241 21.3412 20.0001 21.3412C20.1761 21.3412 20.3504 21.3063 20.5129 21.2386C20.6754 21.1709 20.8228 21.0717 20.9468 20.9468C21.0717 20.8228 21.1709 20.6754 21.2386 20.5129C21.3063 20.3504 21.3412 20.1761 21.3412 20.0001C21.3412 19.8241 21.3063 19.6498 21.2386 19.4873C21.1709 19.3249 21.0717 19.1774 20.9468 19.0534L17.8801 16.0001L20.9468 12.9468C21.0717 12.8228 21.1709 12.6754 21.2386 12.5129C21.3063 12.3504 21.3412 12.1761 21.3412 12.0001C21.3412 11.8241 21.3063 11.6498 21.2386 11.4873C21.1709 11.3249 21.0717 11.1774 20.9468 11.0534ZM25.4268 6.57344C24.1968 5.29997 22.7256 4.28421 21.0988 3.58542C19.4721 2.88663 17.7225 2.51882 15.9521 2.50343C14.1817 2.48805 12.426 2.8254 10.7874 3.49582C9.14877 4.16623 7.66008 5.15627 6.40817 6.40817C5.15627 7.66008 4.16623 9.14877 3.49582 10.7874C2.8254 12.426 2.48805 14.1817 2.50343 15.9521C2.51882 17.7225 2.88663 19.4721 3.58542 21.0988C4.28421 22.7256 5.29997 24.1968 6.57344 25.4268C7.8034 26.7002 9.27466 27.716 10.9014 28.4148C12.5281 29.1136 14.2777 29.4814 16.0481 29.4968C17.8185 29.5122 19.5742 29.1748 21.2128 28.5044C22.8514 27.834 24.3401 26.8439 25.592 25.592C26.8439 24.3401 27.834 22.8514 28.5044 21.2128C29.1748 19.5742 29.5122 17.8185 29.4968 16.0481C29.4814 14.2777 29.1136 12.5281 28.4148 10.9014C27.716 9.27466 26.7002 7.8034 25.4268 6.57344ZM23.5468 23.5468C21.8028 25.2927 19.5075 26.3799 17.0518 26.6232C14.5962 26.8665 12.1321 26.2509 10.0795 24.8811C8.02682 23.5114 6.51258 21.4724 5.79474 19.1114C5.07689 16.7505 5.19985 14.2136 6.14266 11.9332C7.08547 9.65268 8.78981 7.76964 10.9653 6.60486C13.1408 5.44007 15.6528 5.06561 18.0734 5.54527C20.4941 6.02493 22.6735 7.32903 24.2404 9.23539C25.8074 11.1417 26.6648 13.5324 26.6668 16.0001C26.6715 17.4018 26.3982 18.7906 25.8627 20.086C25.3271 21.3813 24.54 22.5576 23.5468 23.5468Z" fill="#8A8A92"/>
</svg>
