<svg width="12" height="15" viewBox="0 0 12 15" fill="none" xmlns="http://www.w3.org/2000/svg">
<path d="M5.99935 0.833252C4.58486 0.833252 3.22831 1.39516 2.22811 2.39535C1.22792 3.39554 0.666016 4.7521 0.666016 6.16659C0.666016 9.76659 5.36602 13.8333 5.56602 14.0066C5.68677 14.1099 5.84045 14.1666 5.99935 14.1666C6.15825 14.1666 6.31193 14.1099 6.43268 14.0066C6.66602 13.8333 11.3327 9.76659 11.3327 6.16659C11.3327 4.7521 10.7708 3.39554 9.77058 2.39535C8.77039 1.39516 7.41384 0.833252 5.99935 0.833252V0.833252ZM5.99935 12.5999C4.57935 11.2666 1.99935 8.39325 1.99935 6.16659C1.99935 5.10572 2.42078 4.0883 3.17092 3.33816C3.92107 2.58801 4.93848 2.16659 5.99935 2.16659C7.06021 2.16659 8.07763 2.58801 8.82778 3.33816C9.57792 4.0883 9.99935 5.10572 9.99935 6.16659C9.99935 8.39325 7.41935 11.2733 5.99935 12.5999ZM5.99935 3.49992C5.47193 3.49992 4.95636 3.65632 4.51783 3.94933C4.0793 4.24235 3.7375 4.65883 3.53567 5.1461C3.33384 5.63337 3.28103 6.16954 3.38392 6.68683C3.48682 7.20411 3.74079 7.67926 4.11373 8.0522C4.48667 8.42514 4.96183 8.67912 5.47911 8.78201C5.99639 8.88491 6.53257 8.8321 7.01984 8.63026C7.50711 8.42843 7.92358 8.08664 8.2166 7.64811C8.50962 7.20957 8.66602 6.694 8.66602 6.16659C8.66602 5.45934 8.38506 4.78106 7.88497 4.28097C7.38487 3.78087 6.70659 3.49992 5.99935 3.49992ZM5.99935 7.49992C5.73564 7.49992 5.47785 7.42172 5.25859 7.27521C5.03932 7.1287 4.86843 6.92046 4.76751 6.67683C4.66659 6.4332 4.64019 6.16511 4.69163 5.90647C4.74308 5.64782 4.87007 5.41025 5.05654 5.22378C5.24301 5.03731 5.48059 4.91032 5.73923 4.85887C5.99787 4.80742 6.26596 4.83383 6.50959 4.93475C6.75323 5.03566 6.96147 5.20656 7.10797 5.42583C7.25448 5.64509 7.33268 5.90288 7.33268 6.16659C7.33268 6.52021 7.19221 6.85935 6.94216 7.10939C6.69211 7.35944 6.35297 7.49992 5.99935 7.49992Z" fill="white"/>
</svg>
