<svg width="78" height="44" viewBox="0 0 78 44" fill="none" xmlns="http://www.w3.org/2000/svg">
<mask id="mask0_295_14130" style="mask-type:luminance" maskUnits="userSpaceOnUse" x="0" y="0" width="78" height="44">
<path d="M0 0H78V44H0V0Z" fill="white"/>
</mask>
<g mask="url(#mask0_295_14130)">
<mask id="mask1_295_14130" style="mask-type:luminance" maskUnits="userSpaceOnUse" x="0" y="0" width="79" height="43">
<path d="M0 0H78.351V42.557H0V0Z" fill="white"/>
</mask>
<g mask="url(#mask1_295_14130)">
<path d="M10.7396 31.836H2.47461L18.6596 2.492C19.4996 0.94 21.1836 0 23.0146 0H31.1316L14.7996 29.485C14.392 30.2013 13.8013 30.7963 13.0881 31.2092C12.3749 31.6222 11.5647 31.8381 10.7406 31.835L10.7396 31.836ZM57.7116 31.836H64.8876C66.9176 31.836 68.4026 30.049 68.0066 28.215L61.6696 0H54.4926C52.4636 0 50.9786 1.787 51.3746 3.62L57.7106 31.836H57.7116Z" fill="white"/>
<path d="M45.9317 6.16H34.8447L36.9727 2.351C37.7647 0.893 39.3487 0 41.0317 0H49.3467L45.9317 6.16Z" fill="white"/>
<path d="M50.139 31.836H44.299C41.922 31.836 40.389 29.437 41.477 27.416L42.467 25.628H53.554L50.139 31.836ZM77.015 6.16H65.928L69.343 0H75.183C77.559 0 79.093 2.398 78.005 4.42L77.015 6.16ZM28.955 31.836H20.689L33.409 8.84H44.496L33.063 29.53C32.271 30.894 30.687 31.835 28.955 31.835V31.836ZM11.087 6.16H0L2.128 2.351C2.92 0.893 4.504 0 6.187 0H14.502L11.087 6.16Z" fill="white"/>
<path d="M1.138 37.1969H2.178L1.238 41.7109H4.208L4.009 42.5569H0L1.138 37.1969ZM9.948 42.2749C9.553 42.0869 9.206 41.8049 9.008 41.4749C8.78461 41.1235 8.6647 40.7163 8.662 40.2999C8.662 39.7359 8.81 39.1719 9.107 38.7009C9.404 38.2309 9.8 37.8549 10.345 37.5729C10.889 37.2909 11.483 37.1489 12.175 37.1489C12.72 37.1489 13.215 37.2429 13.611 37.4319C14.007 37.6199 14.354 37.9019 14.551 38.2309C14.75 38.5609 14.898 38.9359 14.898 39.4069C14.898 39.9709 14.75 40.5349 14.453 41.0049C14.156 41.4749 13.76 41.8519 13.215 42.1339C12.671 42.4159 12.077 42.5569 11.384 42.5569C10.839 42.5569 10.394 42.4629 9.948 42.2749ZM12.72 41.4289C13.067 41.2409 13.364 40.9589 13.512 40.6289C13.71 40.2999 13.809 39.9239 13.809 39.5009C13.809 39.0769 13.661 38.7009 13.364 38.4659C13.067 38.1839 12.621 38.0899 12.077 38.0899C11.631 38.0899 11.235 38.1839 10.839 38.3719C10.493 38.5599 10.196 38.8419 10.047 39.1719C9.85 39.5009 9.751 39.8769 9.751 40.2999C9.751 40.7229 9.899 41.0999 10.196 41.3349C10.493 41.6169 10.938 41.7109 11.483 41.7109C11.978 41.7109 12.373 41.6169 12.72 41.4289ZM23.758 39.8299H24.748L24.253 41.9459C23.956 42.1339 23.659 42.3219 23.263 42.4159C22.916 42.5099 22.521 42.6039 22.125 42.6039C21.58 42.6039 21.085 42.5099 20.689 42.3219C20.293 42.1339 19.947 41.8519 19.749 41.5219C19.501 41.1939 19.402 40.8169 19.402 40.3469C19.402 39.7829 19.551 39.2189 19.848 38.7479C20.145 38.2779 20.541 37.9019 21.085 37.6199C21.63 37.3379 22.224 37.1969 22.916 37.1969C23.411 37.1969 23.856 37.2909 24.253 37.4319C24.649 37.5719 24.946 37.8079 25.193 38.0899L24.451 38.6539C24.253 38.4659 24.055 38.2779 23.807 38.1839C23.5213 38.0836 23.2197 38.0359 22.917 38.0429C22.422 38.0429 22.026 38.1369 21.63 38.3249C21.283 38.5129 20.986 38.7949 20.788 39.1249C20.59 39.4539 20.491 39.8299 20.491 40.2529C20.491 40.6759 20.64 41.0529 20.937 41.2879C21.234 41.5229 21.679 41.6639 22.273 41.6639C22.669 41.6639 23.015 41.5699 23.362 41.4289L23.758 39.8289V39.8299ZM30.885 37.1969H31.925L30.786 42.5569H29.746L30.885 37.1969ZM37.37 42.4159C36.973 42.3219 36.676 42.1339 36.429 41.9929L36.874 41.2409C37.122 41.4289 37.369 41.5699 37.716 41.6639C38.062 41.7579 38.359 41.8049 38.706 41.8049C39.101 41.8049 39.448 41.7579 39.696 41.6169C39.943 41.4759 40.042 41.2869 40.042 41.0529C40.0436 40.9903 40.031 40.928 40.0052 40.8709C39.9794 40.8138 39.941 40.7632 39.893 40.7229C39.794 40.6289 39.646 40.5829 39.497 40.4879C39.349 40.4409 39.151 40.3939 38.904 40.2999C38.6026 40.2203 38.3053 40.1262 38.013 40.0179C37.765 39.9239 37.617 39.7829 37.419 39.5949C37.2577 39.3951 37.1701 39.1458 37.171 38.8889C37.171 38.5599 37.271 38.2789 37.468 37.9959C37.666 37.7609 37.963 37.5259 38.359 37.3849C38.755 37.2439 39.151 37.1969 39.646 37.1969C39.992 37.1969 40.339 37.2439 40.686 37.2909C41.032 37.3849 41.279 37.4789 41.526 37.6199L41.131 38.3719C40.9225 38.23 40.6863 38.1339 40.438 38.0899C40.1608 38.0326 39.879 38.0012 39.596 37.9959C39.2514 37.9889 38.9107 38.0698 38.606 38.2309C38.359 38.3719 38.26 38.5609 38.26 38.7949C38.26 38.9359 38.31 39.0309 38.408 39.1249C38.508 39.2189 38.656 39.2649 38.804 39.3599C38.953 39.4069 39.151 39.4999 39.448 39.5479C39.794 39.6419 40.091 39.7359 40.338 39.8299C40.586 39.9239 40.735 40.0649 40.933 40.2059C41.081 40.3939 41.18 40.6289 41.18 40.8639C41.18 41.1939 41.081 41.5229 40.883 41.7579C40.685 41.9929 40.388 42.2279 39.993 42.3689C39.596 42.5099 39.2 42.5569 38.705 42.5569C38.2557 42.5622 37.8074 42.5152 37.369 42.4169L37.37 42.4159ZM48.01 38.0429H46.13L46.328 37.1969H51.128L50.931 38.0429H49.051L48.11 42.5569H47.02L48.01 38.0429ZM56.771 37.1969H57.811L56.672 42.5569H55.632L56.771 37.1969ZM63.601 42.2749C63.205 42.0869 62.859 41.8049 62.661 41.4749C62.4376 41.1235 62.3177 40.7163 62.315 40.2999C62.315 39.7359 62.463 39.1719 62.76 38.7009C63.057 38.2309 63.453 37.8549 63.997 37.5729C64.542 37.2909 65.136 37.1489 65.829 37.1489C66.324 37.1489 66.769 37.2429 67.116 37.3849C67.511 37.5249 67.759 37.7609 67.956 38.0429L67.214 38.6539C66.918 38.2309 66.423 38.0429 65.73 38.0429C65.284 38.0429 64.839 38.1369 64.492 38.3249C64.146 38.5129 63.849 38.7949 63.651 39.1249C63.453 39.4539 63.354 39.8299 63.354 40.2529C63.354 40.6759 63.502 41.0529 63.799 41.2879C64.096 41.5229 64.542 41.6639 65.086 41.6639C65.73 41.6639 66.274 41.4759 66.67 41.0529L67.264 41.6629C67.0044 41.9634 66.6589 42.1771 66.274 42.2749C65.878 42.4159 65.433 42.4629 64.987 42.4629C64.542 42.5569 64.047 42.4629 63.601 42.2749Z" fill="white"/>
</g>
</g>
</svg>
