<svg width="150" height="165" viewBox="0 0 150 165" fill="none" xmlns="http://www.w3.org/2000/svg">
<path d="M50.6514 79.723C50.4857 77.7192 49.7594 75.6842 48.6037 73.8371C45.1035 68.264 42.726 62.4716 41.4712 59.1215C41.4382 59.0275 41.4051 58.9022 41.3721 58.8082C37.3108 68.0134 36.4189 76.4668 36.2872 77.9698C37.8719 81.2573 39.5232 84.0441 41.0748 86.3292C41.5365 87.0046 42.0099 87.6728 42.4948 88.3334C45.7642 87.9889 48.1087 86.9244 49.3966 85.1712C50.4202 83.7935 50.8496 81.9773 50.6514 79.723ZM63.8268 12.1257C62.5059 13.0962 60.4587 14.7554 57.85 17.4482C55.5716 19.8278 52.7977 22.3948 50.6514 24.3051C56.9916 22.4575 62.2416 21.0489 63.3973 20.7357C63.3643 18.2621 63.4304 15.3192 63.8268 12.1257ZM37.5751 28.8137C38.863 27.9998 40.6794 27.2485 43.1885 26.4972C43.3867 26.4346 43.5519 26.3719 43.7501 26.3406C43.4858 22.5206 42.7265 18.3252 41.9012 14.5679C41.0423 10.6231 40.0847 7.21034 39.5237 5.30011C34.6365 10.5287 32.721 16.9167 32.3906 18.1999C33.0183 20.4229 33.8767 22.458 34.7681 24.1803C35.5921 25.7832 36.5299 27.3312 37.5751 28.8137Z" fill="#333338"/>
<path d="M24.848 109.874C26.5399 110.686 37.4688 115.648 44.5403 111.31C51.4426 107.128 47.5514 97.6705 46.9088 96.2034C45.5891 95.1111 38.2468 88.6504 32.3257 74.824C26.9123 62.2144 21.8369 40.9905 26.6415 9.71661C26.6076 9.81029 26.5738 9.87274 26.5399 9.96641C23.596 16.9887 19.5023 28.038 16.6599 40.772C12.2615 60.3106 10.0956 87.8078 24.1376 108.813C24.3746 109.157 24.6115 109.531 24.848 109.874Z" fill="#333338"/>
<path d="M35.1026 46.1861C35.0368 45.5128 34.9678 44.8397 34.8957 44.1669L27.6245 51.5918C28.2796 55.9093 29.2105 60.2278 30.4507 64.4836C32.4499 61.7186 35.9985 55.3504 35.1026 46.1861Z" fill="#333338"/>
<path d="M37.6397 40.4475C37.8404 42.0767 38.0745 43.8936 38.2747 46.0552C39.3779 57.9601 33.9287 65.322 32.3906 67.1702C33.1599 69.6139 34.029 72.0262 35.0319 74.4072C35.0654 74.4699 35.0988 74.5326 35.0988 74.5953C35.7343 70.6477 37.2049 64.0688 40.5151 57.0826C40.7158 56.6756 40.8825 56.2682 41.1167 55.8607L42.3202 53.4802L43.089 55.9861C43.1225 56.0801 45.8975 64.9773 51.0463 73.06C52.3837 75.1589 53.2193 77.5086 53.42 79.7955C53.5872 81.7064 53.3531 83.3984 52.7511 84.8396C52.4835 85.4659 52.183 86.0301 51.7816 86.5624C50.277 88.5673 47.803 89.8518 44.4598 90.416C45.931 92.2015 47.168 93.486 47.9702 94.2691C48.405 94.6765 48.706 94.9586 48.9067 95.1148C50.01 95.4282 55.3589 96.8067 59.8053 96.1177C60.942 95.9297 61.9788 95.6476 62.9148 95.1461C66.7597 93.1099 67.0936 89.9145 67.0936 88.6927C65.1213 87.5962 59.5048 83.273 64.1853 71.3999C64.2187 71.2745 64.2856 71.1491 64.3191 71.0238L64.3854 70.8671L64.4858 70.7417C64.5527 70.6477 65.4557 69.7079 67.0267 68.6741C68.2059 67.897 69.4869 67.2653 70.8381 66.7946C76.2879 55.5478 66.7597 47.6845 66.3583 47.371L65.7897 46.9323L66.0238 46.2746C67.3277 42.9225 67.0267 38.2545 66.3917 34.4641C65.7897 30.83 64.9206 28.0415 64.9206 27.9788L64.8871 27.8848C64.8537 27.6659 64.4858 25.8486 64.3191 22.9666C63.6501 23.1547 62.6138 23.4363 61.2095 23.8124C57.2643 24.878 50.8122 26.6943 44.3595 28.6052C36.4696 30.9553 36.6374 32.2085 37.6397 40.4475ZM48.4379 127.446H48.4714C51.8814 128.009 55.4253 127.665 55.9934 127.602C57.9662 127.038 59.4708 125.942 60.574 124.814C61.1756 124.188 61.6438 123.561 62.0447 122.997C62.4126 122.433 62.7136 121.901 62.9143 121.493C59.5043 120.334 56.2944 121.305 53.72 122.872C51.3463 124.313 49.4743 126.224 48.4379 127.446ZM131.986 84.3073L131.952 84.4322L131.885 84.5575C131.852 84.5889 131.518 85.247 130.949 86.3748C128.643 90.9801 122.926 103.48 122.926 113.411C122.926 116.982 123.527 120.021 124.798 122.715C127.105 127.602 126.904 132.897 124.297 137.251C122.324 140.509 119.181 142.765 115.805 143.298C114.467 144.269 107.179 149.908 104.304 156.33C103.903 157.207 103.501 158.241 103.067 159.338C102.639 160.405 102.204 161.471 101.763 162.533C104.003 162.094 106.243 161.343 108.449 160.34C109.185 159.996 109.921 159.651 110.656 159.275C121.522 153.573 131.184 142.671 132.855 136.688C133.825 133.21 134.493 129.639 135.028 126.036C135.663 121.525 136.065 117.013 136.433 112.533L138.706 85.748C139.14 80.7044 139.609 75.0027 137.569 70.1153C135.296 64.633 133.725 62.158 129.011 57.7408C133.023 66.8259 134.026 75.8484 131.986 84.3073Z" fill="#333338"/>
<path d="M67.0988 29.3501C68.0494 32.9995 69.6456 40.7346 67.8456 46.1616C69.9173 48.0641 77.1161 55.6749 73.0751 65.8741C74.5655 65.634 76.0833 65.5711 77.5912 65.6869L78.2027 65.7493L78.4744 66.2481C78.5763 66.4353 80.9533 71.0515 78.4405 75.2309L78.2027 75.6366H78.1687C78.3046 76.2289 78.3725 76.853 78.3725 77.4766C78.3725 81.3444 76.0635 84.3697 73.1091 84.3697C71.479 84.3697 70.4264 83.5901 69.7814 82.7476C69.4757 83.5277 69.2379 84.4009 69.068 85.3678C68.9327 86.085 68.8647 86.8338 68.7968 87.6135C68.8647 88.1127 68.9661 90.14 67.8116 92.3233C67.0648 93.727 65.7404 95.2238 63.5333 96.3778C61.4961 97.4383 58.9833 97.7815 56.5724 97.7815C53.8557 97.7815 51.207 97.3447 49.475 96.9707C50.0394 98.529 50.4154 100.14 50.596 101.774C51.1396 106.733 49.441 110.569 45.6723 112.846C43.3973 114.219 40.6127 114.905 37.4544 114.905C35.4851 114.905 33.3799 114.624 31.1389 114.094C28.9096 113.547 26.7388 112.817 24.653 111.91C24.1434 113.221 23.3626 114.187 22.5478 114.936C21.9703 115.466 21.3928 115.903 20.8158 116.308C18.8804 117.712 17.7939 118.492 19.2876 121.985C19.8651 122.453 21.7664 123.919 23.8721 124.636L23.1248 126.476C21.3253 125.884 19.6613 124.823 18.6766 124.075L17.1484 126.508C17.9298 127.412 18.7785 128.192 19.6273 128.878C25.8414 133.9 33.4139 134.149 34.2626 134.149C42.7858 132.87 46.0794 133.681 48.9659 134.43C50.6979 134.867 52.2256 135.272 54.7384 135.116C60.6129 134.804 66.3179 130.624 67.5064 129.689C67.5404 129.564 67.5744 129.44 67.6423 129.315C68.8987 125.041 68.3552 118.492 68.1513 116.433C63.8731 115.435 57.8288 115.435 57.7608 115.435V113.47C58.0326 113.47 64.8577 113.47 69.4417 114.718L70.1211 114.905L70.1886 115.56C70.1886 115.622 70.2225 115.841 70.2565 116.183C70.3924 117.369 70.6302 120.051 70.5623 123.014C75.6559 114.624 83.9072 109.041 85.3675 108.074C95.724 91.0132 90.529 76.0729 86.7598 65.1565C86.1143 63.3164 85.5373 61.6007 85.0617 60.0103C84.3828 57.7334 83.9752 55.7061 84.0771 53.9904C84.6546 43.542 81.2925 34.7464 79.7308 31.2838C78.5084 32.8747 77.286 34.372 76.1654 35.6196L75.5879 36.2437L74.8071 35.838C74.5353 35.682 68.1174 32.2199 69.8834 28.3209C72.5321 22.5506 73.5847 11.6029 73.7545 9.45085L73.8224 8.76437L75.486 8.3592L75.9276 8.92087C76.8104 10.1061 79.7988 14.0983 80.9873 16.4376L80.138 16.7808L79.0174 17.2484C78.6783 16.5619 78.1347 15.6892 77.4893 14.7219C76.9123 13.8798 76.3008 12.9442 75.6559 12.0398C75.1803 16.2816 74.0597 24.2975 71.8526 29.0385C71.1058 30.629 73.5167 32.625 75.1123 33.6231C75.8597 32.7499 76.6405 31.783 77.4558 30.785C78.6455 29.2477 79.8003 27.6878 80.9193 26.1064C83.5675 22.4263 85.8091 18.9641 86.5899 17.7788C84.179 13.1002 80.8514 9.20122 77.7271 6.20712C74.4674 3.0882 71.445 0.998515 69.9173 0C64.0769 12.6946 66.4878 26.356 66.6571 27.2604C66.6232 27.5725 66.827 28.2897 67.0988 29.3501ZM61.1224 118.648C62.175 118.804 63.2276 119.116 64.2802 119.583L65.1295 119.958L64.8577 120.768C64.7558 121.018 62.6506 127.163 55.9609 129.003L55.791 129.034C55.6891 129.034 54.1275 129.221 52.0558 129.221C50.1544 129.221 47.8114 129.065 45.6043 128.504L44.1776 128.13L44.9929 127.007C45.0268 126.976 45.2986 126.57 45.8082 125.978C46.7249 124.886 48.355 123.139 50.5276 121.58C54.0256 119.116 57.625 118.118 61.1224 118.648ZM79.7648 85.2117L81.2925 86.5842C80.6308 87.1961 79.9276 87.769 79.1873 88.2995C77.184 89.7655 75.1803 90.8884 75.0444 90.9508L74.6372 91.2004L70.3584 89.9216L71.0378 88.0503L74.3655 89.0483C75.272 88.5189 76.1556 87.9569 77.0142 87.3638C77.9309 86.709 78.9495 85.9606 79.7648 85.2117Z" fill="#333338"/>
<path d="M76.5089 68.0282C73.2303 67.9021 70.5938 68.8163 68.7344 69.8251C67.0109 70.7394 65.9293 71.7482 65.5911 72.0952C62.7517 79.1576 63.8338 83.1299 65.3544 85.2423C65.7011 85.728 66.1097 86.1726 66.5713 86.5665C67.2476 81.3015 69.7827 78.2745 71.9121 76.6668C73.8047 75.2164 75.6302 74.6176 76.5427 74.3968C77.7257 71.9059 76.9147 69.1628 76.5089 68.0282Z" fill="#333338"/>
<path d="M71.0379 80.2848C70.9017 80.4723 70.7315 80.691 70.5954 80.9097C71.3102 82.5957 72.0584 82.8144 72.8072 82.8144C73.3513 82.8144 73.8959 82.5645 74.3378 82.1588C74.1676 82.1901 74.032 82.1901 73.8618 82.1901C72.7051 82.2213 71.6846 81.4715 71.0379 80.2848ZM37.1523 136.245C39.4317 137.4 42.8003 138.93 45.4876 139.461C47.8691 139.93 50.2165 138.712 51.7817 137.588C50.3527 137.463 49.196 137.182 48.0052 136.869C45.6918 136.276 43.0726 135.62 37.1523 136.245ZM75.2568 76.8502C74.3052 77.302 73.4241 77.8691 72.637 78.5363C72.9093 79.6292 73.5215 80.2228 73.8618 80.2228C74.4059 80.2228 75.2568 79.0361 75.2568 77.2559V76.8502ZM59.6404 172.032C60.1169 171.064 61.5459 168.035 62.5665 164.038C57.2929 162.382 54.3674 157.698 53.6526 156.387C52.0534 155.7 50.5229 154.919 49.0939 154.138C49.4462 156.066 49.9581 157.966 50.625 159.822C51.6796 160.384 54.7753 162.102 57.2589 164.006L57.4631 164.163L57.5652 164.412C57.6673 164.631 59.2665 168.628 59.1304 172.25C59.3341 172.188 59.4702 172.094 59.6404 172.032Z" fill="#333338"/>
<path d="M78.5768 194.822C79.5541 195.041 80.2612 195.73 80.733 196.858C81.1368 194.477 80.8672 191.532 80.6656 189.934C78.6442 190.561 76.0843 191.156 73.1204 191.344L72.8508 191.375L72.615 191.281C72.5813 191.281 68.8761 189.778 65.0366 189.715V189.245L65.0703 187.71C68.7755 187.773 72.2448 188.994 73.2215 189.339C73.7289 189.306 74.2346 189.254 74.7374 189.183C79.5541 188.588 83.0234 186.927 83.8653 186.52C87.3009 181.727 88.9178 177.685 89.6587 175.367C88.5135 175.9 87.2672 176.307 85.8861 176.589C85.8187 176.589 85.7513 176.62 85.7176 176.62C85.0779 176.745 84.4044 176.808 83.7305 176.808C81.9792 176.808 80.1601 176.463 78.1056 176.056C77.4316 175.931 76.6908 175.774 75.95 175.649L76.3538 173.707C77.0952 173.832 77.836 173.989 78.5431 174.114C81.1368 174.615 83.3935 175.054 85.28 174.678C86.8074 174.386 88.2744 173.867 89.625 173.142C95.6542 169.916 98.3827 163.117 100.471 157.886C100.872 156.854 101.299 155.83 101.751 154.816C104.85 148.018 112.26 142.285 113.911 141.063C114.113 140.06 114.584 136.614 113.069 132.228C112.926 131.806 112.769 131.388 112.597 130.975C111.317 130.192 105.456 126.715 98.7871 124.898L99.3931 122.986C107.242 125.117 113.809 129.315 114.079 129.502L114.349 129.659L114.483 129.941C114.837 130.771 115.14 131.618 115.393 132.479C116.403 135.894 116.369 138.682 116.201 140.311C118.491 139.59 120.613 137.899 122.028 135.549C123.476 133.105 124.083 130.349 123.78 127.529C123.605 125.885 123.15 124.278 122.432 122.767C121.018 119.822 120.344 116.502 120.344 112.679C120.344 100.243 128.664 84.6407 129.539 83.0432C133.346 67.1912 125.228 52.4983 117.413 42.7236C111.452 35.2368 105.658 30.6002 105.523 30.5061L105.288 30.3181L105.186 30.0674C102.761 23.6452 98.012 14.9988 89.0863 10.3936C86.9075 9.25739 84.5567 8.43356 82.1135 7.94989C84.2696 10.5189 86.3578 13.4949 88.0422 16.8784L88.2776 17.3485L88.0085 17.7873C87.8063 18.1002 84.337 23.5826 80.4971 28.8455C80.9346 29.6917 81.7771 31.5086 82.6527 34.0772C84.2359 38.6824 85.9535 45.6687 85.5159 53.6888C85.3811 56.2891 86.6274 59.9547 88.1091 64.2152C91.7806 74.9292 97.3386 91.126 86.4589 109.077L86.3242 109.265L86.122 109.39C85.9872 109.484 73.053 117.849 69.1794 129.691C69.112 129.941 69.0446 130.192 68.9435 130.443L68.8761 130.693L68.6407 130.881C68.3711 131.1 62.0049 136.426 54.8978 136.99C53.8874 137.993 50.5529 140.969 46.6119 140.969C46.1064 140.969 45.6009 140.906 45.0623 140.812C40.6837 139.904 35.0246 136.771 33.7788 136.05C33.5092 136.05 33.0712 136.019 32.5325 135.988C29.0627 135.674 20.7436 134.202 14.9165 127.091L14.4784 126.558L17.0379 122.36C15.1518 117.629 17.2738 116.094 19.3288 114.591C20.6425 113.62 22.023 112.617 22.6296 110.486C17.1395 102.623 13.9393 93.8199 12.3223 84.8287C11.413 87.4291 10.3352 91.0946 9.86341 94.6975L9.83023 94.9164L9.69544 95.1044C9.62804 95.1984 2.1503 105.725 0.297456 109.954C-0.847742 112.523 1.57796 115.092 3.09331 116.376C3.76727 115.06 5.11413 113.087 7.60671 111.771L8.65082 113.494C8.28066 113.682 7.94369 113.901 7.60671 114.152C5.5522 115.656 4.77767 117.661 4.60919 118.162C4.64288 119.259 4.94616 126.307 6.93328 129.847C7.20286 130.349 7.47244 130.975 7.74202 131.695C9.72914 137.147 11.1097 148.143 11.1097 152.874C11.1097 155.724 19.8 157.478 26.4696 157.886C26.7723 157.917 27.0761 157.917 27.3789 157.949L27.2778 159.922C27.143 159.922 24.583 159.797 21.417 159.358C23.9433 162.366 28.5241 168.287 30.2421 174.02C31.2188 174.396 36.1029 176.119 45.0286 175.242L45.2645 177.215C43.3448 177.403 41.6267 177.497 40.044 177.497C35.429 177.497 32.3298 176.808 30.6123 176.307V178.312C31.2862 178.343 32.1955 178.437 33.206 178.813C34.6881 179.346 36.5742 180.505 38.1237 183.042C39.033 181.162 40.65 178.813 43.3442 178.155C45.8373 177.529 48.6327 178.563 51.6644 181.131C51.7655 180.473 51.8329 179.847 51.9672 179.158L52.0009 178.97L52.102 178.813C52.1694 178.688 53.3483 176.839 55.0663 174.96C55.5453 174.446 56.0512 173.955 56.5822 173.487C57.5252 170.605 55.9419 166 55.5381 164.903C54.3255 163.964 52.9444 163.055 51.7655 162.366C52.3716 163.713 53.0792 165.123 53.9548 166.532L52.102 167.504C47.656 160.079 46.8478 153.625 46.713 152.247C39.3026 147.61 34.924 142.535 34.6881 142.253L36.1029 141.219L36.3388 141.031C36.4062 141.125 43.5464 149.396 54.763 154.22L55.1337 154.377L55.3022 154.722C55.3359 154.784 57.8959 159.891 62.8131 161.614C63.386 158.763 63.6556 155.599 63.2849 152.403L63.2175 151.965C62.0723 142.065 61.2304 134.923 80.6993 125.054L81.5749 126.589L81.676 126.746L81.7097 126.809C63.4871 136.05 64.1605 141.971 65.3057 151.777L65.3731 152.215C65.6764 154.847 65.5753 157.416 65.2383 159.828C64.329 166.47 61.7016 171.764 61.2304 172.673C61.0282 173.613 59.9167 178.813 57.7948 181.1L56.1778 179.816C57.2219 178.657 58.0638 176.307 58.603 174.427C56.5485 175.994 54.7293 178.469 53.9548 179.659C53.382 182.98 53.2472 185.611 53.382 187.679C55.9082 187.24 57.8285 187.616 59.1085 188.838C60.7923 190.436 60.7923 193.036 60.5564 194.822L61.0619 194.634C63.824 193.694 68.2701 192.597 71.2002 194.195C72.3122 194.822 73.1204 195.73 73.5585 196.983C74.939 195.73 76.8256 194.414 78.5768 194.822ZM68.3374 175.586C76.7919 178.437 82.4842 178.375 82.5516 178.375V179.001L82.5853 180.348H82.4505C82.282 180.348 81.9792 180.348 81.5075 180.317C79.4193 180.223 74.3667 179.722 67.5961 177.435L68.3374 175.586Z" fill="#333338"/>
<path d="M149.51 137.349C145.13 120.264 146.276 110.403 147.118 103.18C147.623 98.8459 148.028 95.4541 146.983 91.9995C145.298 86.4407 142.805 82.1063 141.053 79.5C141.019 81.7298 140.851 83.8967 140.682 86.0008L138.391 112.853C137.684 120.987 136.976 129.372 134.719 137.38C134.381 138.574 133.742 139.987 132.832 141.495C127.643 150.288 113.794 163.133 100.284 164.955C98.4975 168.629 96.0715 172.397 92.3651 174.941C92.0623 176.48 90.6808 181.882 85.6266 188.885L85.4917 189.074L85.2895 189.199C85.1883 189.231 84.3124 189.734 82.8298 190.299C83.0658 192.089 83.5714 196.423 82.695 199.501L82.5601 199.971L82.055 200.16C81.9539 200.191 80.0667 200.914 76.4615 201.133C75.3496 203.489 74.7097 205.468 74.3052 207.101C74.5451 206.944 74.8057 206.818 75.0805 206.724C76.8997 206.096 79.2245 207.038 82.1899 209.55C83.2343 210.43 84.1439 211.34 84.7844 212C86.907 208.608 89.1307 206.473 91.3881 205.593C92.2386 205.253 93.159 205.092 94.0838 205.122C97.7901 205.311 100.553 208.702 102.103 211.183C102.912 208.577 104.091 207.258 105.674 207.038C107.157 206.849 108.606 207.823 109.751 209.048C108.471 205.719 105.944 203.709 105.91 203.677L105.708 203.52L105.607 203.3C105.539 203.144 98.0935 186.342 116.12 174.376C122.016 170.45 126.632 166.148 130.17 162.222C135.932 155.753 138.728 150.257 139.368 148.906C138.998 147.933 137.65 145.043 134.786 142.908L135.493 142.091L136.1 141.369C138.796 143.379 140.278 145.923 140.986 147.43C144.625 144.917 147.859 140.866 149.14 139.139C149.51 138.636 149.645 137.977 149.51 137.349ZM92.4663 196.297C92.1292 196.329 91.7589 196.329 91.3881 196.329C89.9055 196.329 88.2885 196.172 86.5362 195.7L87.1092 193.785C87.2772 193.816 87.4458 193.879 87.6143 193.91C93.8478 195.324 98.2615 192.748 98.329 192.717L99.4745 194.381C99.3065 194.475 96.6446 196.046 92.4663 196.297ZM101.9 192.089L99.1042 190.927C97.925 191.523 94.8248 192.937 91.1859 192.937H90.7145C89.1307 192.874 87.4458 192.56 85.7614 191.775L86.7047 189.984C86.8395 190.047 86.9744 190.11 87.1092 190.142C92.5674 192.403 98.3964 189.011 98.4638 188.979L98.9357 188.697L102.743 190.299L101.9 192.089Z" fill="#333338"/>
</svg>
