<svg width="16" height="16" viewBox="0 0 16 16" fill="none" xmlns="http://www.w3.org/2000/svg">
<path d="M14.8789 14.286L11.476 10.8838C12.3888 9.83457 12.9414 8.46563 12.9414 6.96941C12.9414 3.67583 10.2619 1 6.97075 1C3.67643 1 1 3.67894 1 6.96941C1 10.2599 3.67953 12.9388 6.97075 12.9388C8.46729 12.9388 9.83656 12.3863 10.886 11.4736L14.289 14.8758C14.3697 14.9565 14.4784 15 14.584 15C14.6895 15 14.7982 14.9597 14.8789 14.8758C15.0404 14.7144 15.0404 14.4474 14.8789 14.286ZM1.83522 6.96941C1.83522 4.13836 4.13906 1.83814 6.96763 1.83814C9.79933 1.83814 12.1 4.14147 12.1 6.96941C12.1 9.79735 9.79933 12.1038 6.96763 12.1038C4.13906 12.1038 1.83522 9.80046 1.83522 6.96941Z" fill="#B12925" stroke="#B12925" stroke-width="0.366667"/>
</svg>
