<svg width="48" height="48" viewBox="0 0 48 48" fill="none" xmlns="http://www.w3.org/2000/svg">
<path d="M19.8785 26.9695L20.2324 27.3235L20.586 26.9691L30.8805 16.6506C30.8807 16.6504 30.8809 16.6502 30.8811 16.65C31.237 16.2965 31.7183 16.0981 32.22 16.0981C32.722 16.0981 33.2035 16.2967 33.5595 16.6506L33.5599 16.651C33.738 16.8276 33.8793 17.0378 33.9758 17.2693C34.0723 17.5008 34.1219 17.7492 34.1219 18C34.1219 18.2508 34.0723 18.4992 33.9758 18.7307C33.8793 18.9622 33.738 19.1724 33.5599 19.349L33.5584 19.3504L21.5599 31.349C21.5596 31.3493 21.5593 31.3496 21.559 31.3499C21.2052 31.7003 20.7279 31.8979 20.2299 31.9L20.2291 31.9C19.9791 31.9014 19.7312 31.8535 19.4997 31.759L19.3254 32.1857L19.4997 31.759C19.2687 31.6646 19.0586 31.5257 18.8813 31.3501C18.8809 31.3498 18.8805 31.3494 18.8801 31.349L13.2423 25.6872L13.2283 25.6731L13.2132 25.6602C13.0143 25.4899 12.8528 25.2803 12.7388 25.0446C12.6247 24.8088 12.5606 24.5521 12.5505 24.2904C12.5404 24.0288 12.5845 23.7678 12.68 23.524C12.7755 23.2802 12.9204 23.0587 13.1056 22.8736C13.2908 22.6884 13.5122 22.5435 13.756 22.448C13.9998 22.3525 14.2608 22.3084 14.5224 22.3185C14.7841 22.3286 15.0409 22.3927 15.2766 22.5067C15.5123 22.6208 15.7219 22.7823 15.8922 22.9812L15.9048 22.9959L15.9185 23.0095L19.8785 26.9695ZM10.9441 4.46046C14.8087 1.87825 19.3521 0.5 24 0.5C27.0861 0.5 30.1419 1.10785 32.9931 2.28883C35.8442 3.46982 38.4348 5.20081 40.617 7.38299C42.7992 9.56516 44.5302 12.1558 45.7112 15.0069C46.8922 17.8581 47.5 20.9139 47.5 24C47.5 28.6479 46.1217 33.1913 43.5395 37.0559C40.9573 40.9204 37.2871 43.9325 32.9931 45.7112C28.699 47.4898 23.9739 47.9552 19.4154 47.0484C14.8568 46.1417 10.6695 43.9035 7.383 40.617C4.09647 37.3305 1.85831 33.1432 0.951557 28.5846C0.0448041 24.0261 0.510182 19.301 2.28884 15.0069C4.0675 10.7129 7.07955 7.04268 10.9441 4.46046ZM13.0553 40.3799C16.2949 42.5446 20.1037 43.7 24 43.7C29.2248 43.7 34.2355 41.6245 37.93 37.93C41.6245 34.2355 43.7 29.2248 43.7 24C43.7 20.1037 42.5446 16.2949 40.38 13.0553C38.2153 9.81562 35.1386 7.29062 31.5389 5.79957C27.9392 4.30853 23.9782 3.9184 20.1567 4.67853C16.3353 5.43866 12.8251 7.3149 10.07 10.07C7.31491 12.8251 5.43867 16.3353 4.67854 20.1567C3.91841 23.9781 4.30854 27.9392 5.79958 31.5389C7.29063 35.1386 9.81563 38.2153 13.0553 40.3799Z" fill="#F1B83B" stroke="#2A2A2F"/>
</svg>
