<svg width="15" height="18" viewBox="0 0 15 18" fill="none" xmlns="http://www.w3.org/2000/svg">
<g clip-path="url(#clip0_546_8583)">
<path d="M13.8515 4.38409C14.0495 4.17196 14.0495 3.82803 13.8515 3.61591L10.6247 0.159095C10.4267 -0.0530318 10.1057 -0.0530318 9.90764 0.159095C9.70962 0.371223 9.70962 0.715152 9.90764 0.927277L12.7759 4L9.90764 7.07269C9.70962 7.28482 9.70962 7.62877 9.90764 7.8409C10.1057 8.05303 10.4267 8.05303 10.6247 7.8409L13.8515 4.38409ZM2 4.54318H13.493V3.45681H2V4.54318Z" fill="#B12925"/>
<path d="M1.14851 14.3841C0.950497 14.1719 0.950497 13.8281 1.14851 13.6159L4.37531 10.1591C4.57332 9.94697 4.89436 9.94697 5.09237 10.1591C5.29038 10.3712 5.29038 10.7152 5.09237 10.9273L2.22411 14L5.09237 17.0727C5.29038 17.2848 5.29038 17.6288 5.09237 17.8409C4.89436 18.053 4.57332 18.053 4.37531 17.8409L1.14851 14.3841ZM13 14.5432H1.50704V13.4568H13V14.5432Z" fill="#B12925"/>
</g>
<defs>
<clipPath id="clip0_546_8583">
<rect width="15" height="18" fill="white"/>
</clipPath>
</defs>
</svg>
