<svg width="120" height="111" viewBox="0 0 120 111" fill="none" xmlns="http://www.w3.org/2000/svg">
<g clip-path="url(#clip0_39_881)">
<path d="M141.04 11.64L125.6 27.08C126.32 30.68 126.72 34.28 126.72 37.96C126.72 67.64 102.56 91.72 72.96 91.72C43.36 91.72 19.2 67.64 19.2 37.96C19.2 8.28 43.36 -15.8 72.96 -15.8C85.76 -15.8 98 -11.24 107.76 -3L121.36 -16.6C108 -28.52 90.88 -35 72.96 -35C32.72 -35 0 -2.28 0 37.96C0 78.2 32.72 110.92 72.96 110.92C113.2 110.92 145.92 78.2 145.92 37.96C146 28.92 144.32 20.04 141.04 11.64Z" fill="#1B1B1F"/>
<path d="M71.3603 43.32L42.8803 14.84L29.2803 28.44L71.2803 70.44L123.04 18.44L137.6 3.96004C137.28 3.32004 136.96 2.68004 136.56 2.04004C134.64 -1.39996 132.32 -4.75996 129.84 -7.87996C128.72 -9.23996 127.52 -10.6 126.32 -11.96L112.72 1.64004L71.3603 43.32Z" fill="#1B1B1F"/>
</g>
<defs>
<clipPath id="clip0_39_881">
<rect width="120" height="111" fill="white"/>
</clipPath>
</defs>
</svg>
