<svg width="104" height="143" viewBox="0 0 104 143" fill="none" xmlns="http://www.w3.org/2000/svg">
<path opacity="0.5" d="M92.6094 61.1682C95.2724 58.2136 97.3048 54.837 98.706 51.0422C100.249 47.2374 101.016 43.0197 101.016 38.3961C101.016 32.5114 99.8297 27.2385 97.4443 22.5891C95.066 17.8152 91.7767 13.8102 87.5795 10.5792C83.3826 7.20984 78.3551 4.6898 72.5067 3.01246C66.6617 1.3361 60.3368 0.5 53.5348 0.5C47.4297 0.5 42.0015 1.19596 37.2564 2.59609C32.5309 3.8523 28.2831 5.5986 24.5168 7.83817C20.7526 9.93812 17.4713 12.4606 14.6762 15.4065C11.8997 18.333 9.39983 21.3999 7.17715 24.6072L6.92207 24.9753L7.25994 25.2692L22.7825 38.7733L23.2333 39.1655L23.5398 38.6526C26.8163 33.171 30.8339 28.9381 35.5885 25.9381L35.5886 25.9382L35.597 25.9326C40.3299 22.8106 46.0938 21.2368 52.9139 21.2368C59.8652 21.2368 65.3251 23.0141 69.3501 26.5157L69.35 26.5158L69.3575 26.522C73.3573 29.8679 75.3873 34.767 75.3873 41.3047V42.759C75.3873 48.5771 73.3057 53.3567 69.1388 57.1363C64.9924 60.7593 58.514 62.6191 49.6025 62.6191H34.9078H34.4078V63.1191V83.0637V83.5637H34.9078H50.2234C59.2665 83.5637 66.1786 85.4902 71.0263 89.275C75.8488 93.0402 78.2848 98.5594 78.2848 105.917V107.371C78.2848 114.735 75.9808 120.477 71.4134 124.659C66.8451 128.703 60.2214 130.763 51.4652 130.763C47.3652 130.763 43.6891 130.283 40.4319 129.33C37.3048 128.374 34.454 127.079 31.8771 125.448C29.4332 123.674 27.1916 121.629 25.1521 119.31C23.2356 116.836 21.3861 114.154 19.6039 111.264L19.3098 110.787L18.8693 111.133L1.69099 124.637L1.32815 124.923L1.58349 125.307C3.8062 128.654 6.37466 131.929 9.28791 135.131L9.29555 135.14L9.30356 135.148C12.366 138.222 15.8437 141.014 19.735 143.525L19.7437 143.531L19.7526 143.536C23.7956 145.915 28.3891 147.801 33.5289 149.196C38.6897 150.735 44.6708 151.5 51.4652 151.5C59.2335 151.5 66.3205 150.525 72.7219 148.57L72.7314 148.567C79.1292 146.472 84.5688 143.536 89.04 139.749C93.6455 135.966 97.2089 131.478 99.7245 126.287L99.7268 126.283C102.245 120.947 103.5 115.056 103.5 108.618C103.5 103.307 102.665 98.6031 100.983 94.5169C99.4446 90.3103 97.2743 86.7225 94.467 83.7625C91.6674 80.6722 88.3776 78.2128 84.6007 76.3858C81.0873 74.488 77.314 73.1157 73.2828 72.2682V72.0359C76.9071 71.1915 80.3377 69.8899 83.5733 68.131C87.0716 66.3044 90.085 63.9836 92.6094 61.1682ZM92.6094 61.1682C92.6096 61.168 92.6098 61.1678 92.61 61.1676L92.2377 60.8338L92.6091 61.1686C92.6092 61.1684 92.6093 61.1683 92.6094 61.1682Z" stroke="#F1B83B"/>
</svg>
