<svg width="98" height="135" viewBox="0 0 98 135" fill="none" xmlns="http://www.w3.org/2000/svg">
<path opacity="0.5" d="M90.8 20.5479H91.3V20.0479V1V0.5H90.8H11.6H11.1332L11.1012 0.965693L5.90118 76.5741L5.86908 77.0409L6.33269 77.1039L24.9327 79.6307L25.1894 79.6655L25.366 79.4759C27.8645 76.7922 30.8946 74.3581 34.461 72.1758C37.956 70.0372 42.6552 68.9451 48.6 68.9451C56.779 68.9451 62.9676 71.1228 67.2462 75.4069L67.2515 75.4121C71.6666 79.7028 73.9 85.6513 73.9 93.324V95.6563C73.9 103.329 71.6666 109.278 67.2515 113.568L67.2462 113.573C62.9676 117.858 56.779 120.035 48.6 120.035C44.7729 120.035 41.3561 119.586 38.3446 118.696C35.4599 117.804 32.8418 116.531 30.4872 114.878C28.1216 113.218 26.0201 111.303 24.1815 109.133C22.331 106.949 20.5443 104.506 18.8217 101.802L18.528 101.341L18.0949 101.674L1.69487 114.308L1.32003 114.597L1.58769 114.987C3.73386 118.116 6.14727 121.178 8.82738 124.173L8.83514 124.182L8.84329 124.19C11.6708 127.068 14.8996 129.683 18.5281 132.034L18.5369 132.039L18.5459 132.045C22.3217 134.273 26.6292 136.038 31.4641 137.343C36.3187 138.784 41.8995 139.5 48.2 139.5C56.1127 139.5 63.1715 138.392 69.369 136.166L69.3744 136.164C75.6948 133.812 81.0211 130.605 85.3427 126.536L85.3428 126.536L85.3485 126.53C89.6682 122.332 92.9079 117.347 95.0665 111.58C97.3575 105.816 98.5 99.534 98.5 92.7409C98.5 86.0796 97.4249 80.1182 95.2633 74.8655C93.1056 69.4928 90.0672 64.9615 86.1451 61.2804C82.36 57.6029 77.8349 54.7824 72.5767 52.8168C67.4478 50.8496 61.8538 49.869 55.8 49.869C51.7686 49.869 48.253 50.3254 45.262 51.2489C42.2832 52.0395 39.6331 53.2272 37.3172 54.8159C35.01 56.3986 32.9746 58.3105 31.2116 60.5498C29.5125 62.5828 27.8805 64.919 26.3147 67.5563H25.7389L29.2639 20.5479H90.8Z" stroke="#F1B83B"/>
</svg>
