<svg width="98" height="135" viewBox="0 0 98 135" fill="none" xmlns="http://www.w3.org/2000/svg">
<path opacity="0.5" d="M28.5702 135.768L28.5738 135.77C34.6392 138.26 41.4832 139.5 49.0978 139.5C56.3183 139.5 62.8962 138.391 68.8255 136.164L68.831 136.162C74.8817 133.808 80.0233 130.6 84.247 126.532C88.4706 122.465 91.7029 117.611 93.9441 111.976C96.3172 106.209 97.5 99.8596 97.5 92.9352C97.5 86.5326 96.4486 80.7036 94.3375 75.4549C92.3602 70.2153 89.5231 65.7513 85.8231 62.0714C82.253 58.2613 77.9566 55.3717 72.9404 53.403C68.0529 51.4336 62.7104 50.4521 56.9185 50.4521C52.5783 50.4521 48.7453 50.9749 45.4268 52.0306C42.1241 53.0812 39.1455 54.5279 36.4944 56.3727L36.4944 56.3726L36.4846 56.3797C33.9711 58.2208 31.7231 60.3902 29.7408 62.8862L29.7386 62.8891C27.9751 65.1431 26.3931 67.5757 24.9925 70.1861L24.4721 70.0383C26.1494 62.9966 28.4464 56.5157 31.3611 50.5937C34.4715 44.5393 38.2951 38.8053 42.8333 33.3916C47.3749 27.9738 52.6984 22.6811 58.8056 17.5141C64.9208 12.3404 71.819 6.97066 79.5011 1.4049L80.7501 0.5H79.2077H49.8798H49.7277L49.6014 0.5847C43.9669 4.3623 38.2084 9.11204 32.3256 14.8302C26.5613 20.4303 21.324 26.8741 16.6127 34.1595C11.897 41.4517 8.03463 49.4574 5.02433 58.1748C2.00697 66.9127 0.5 76.233 0.5 86.1324C0.5 94.3406 1.61399 101.718 3.85073 108.258C6.08513 114.791 9.24366 120.42 13.3308 125.139L13.3357 125.144L13.3407 125.15C17.5621 129.74 22.6406 133.279 28.5702 135.768ZM67.3249 75.4133L67.3249 75.4134L67.3305 75.4186C71.6299 79.4413 73.8198 85.4436 73.8198 93.5183V96.2394C73.8198 104.311 71.6312 110.382 67.3278 114.536C63.0147 118.57 56.9609 120.618 49.0978 120.618C41.2347 120.618 35.1808 118.57 30.8677 114.536C26.5643 110.382 24.3758 104.311 24.3758 96.2394V93.5183C24.3758 85.4436 26.5656 79.4413 30.8651 75.4187L30.8706 75.4133C35.1843 71.2512 41.237 69.1394 49.0978 69.1394C56.9585 69.1394 63.0112 71.2512 67.3249 75.4133Z" stroke="#F1B83B"/>
</svg>
