<svg width="98" height="135" viewBox="0 0 98 135" fill="none" xmlns="http://www.w3.org/2000/svg">
<path opacity="0.5" d="M28.1004 136.605L28.1003 136.606L28.1126 136.609C34.1876 138.54 41.1523 139.5 49 139.5C56.8474 139.5 63.7495 138.54 69.6984 136.609L69.7045 136.607C75.7679 134.552 80.8191 131.784 84.8447 128.294C88.9945 124.808 92.1128 120.671 94.1924 115.886C96.3988 111.103 97.5 105.936 97.5 100.391C97.5 91.376 94.9754 84.1101 89.8819 78.6469C85.0198 73.1717 78.5912 69.3377 70.62 67.1333V66.3393C77.455 63.8848 82.9292 60.0501 87.0232 54.8294C91.3274 49.5044 93.468 42.9551 93.468 35.2133C93.468 30.0497 92.4306 25.3249 90.3484 21.0473C88.3954 16.7723 85.5311 13.1445 81.762 10.1676C77.9905 7.06147 73.3215 4.67737 67.7681 3.00598C62.209 1.33289 55.9513 0.5 49 0.5C42.0487 0.5 35.791 1.33289 30.2319 3.00598C24.6785 4.67736 20.0096 7.06145 16.2381 10.1676C12.4697 13.1438 9.54304 16.7696 7.46248 21.0415L7.46234 21.0414L7.45717 21.0527C5.50447 25.3293 4.532 30.0521 4.532 35.2133C4.532 42.9528 6.60729 49.5011 10.7825 54.8265L10.7825 54.8265L10.7872 54.8324C15.0062 60.0506 20.5427 63.8848 27.38 66.3393V67.1333C19.4053 69.3381 12.9137 73.1726 7.9264 78.6466L7.92599 78.6471C2.95996 84.1112 0.5 91.3769 0.5 100.391C0.5 105.934 1.53632 111.099 3.6134 115.881L3.61328 115.881L3.61802 115.891C5.8241 120.671 8.93948 124.806 12.9605 128.292L12.9604 128.292L12.9664 128.297C17.1162 131.783 22.1641 134.55 28.1004 136.605ZM67.3058 115.678L67.3004 115.683C63.0698 119.275 56.9938 121.107 49 121.107C41.0091 121.107 34.8659 119.276 30.5049 115.68C26.2851 112.096 24.156 107.086 24.156 100.582V96.759C24.156 90.2549 26.2851 85.2449 30.5049 81.6605C34.8659 78.0647 41.0091 76.2341 49 76.2341C56.9938 76.2341 63.0698 78.0659 67.3003 81.6582L67.3058 81.6627C71.6536 85.249 73.844 90.2586 73.844 96.759V100.582C73.844 107.082 71.6536 112.092 67.3058 115.678ZM65.583 53.937L65.5829 53.9369L65.5768 53.9421C61.8612 57.0244 56.3623 58.6053 49 58.6053C41.6412 58.6053 36.0745 57.0259 32.2281 53.9395C28.5303 50.8702 26.652 46.3767 26.652 40.374V37.1247C26.652 31.1219 28.5303 26.6284 32.2282 23.5591C36.0745 20.4727 41.6412 18.8934 49 18.8934C56.3623 18.8934 61.8612 20.4742 65.5768 23.5566L65.5767 23.5566L65.583 23.5616C69.4086 26.6329 71.348 31.1259 71.348 37.1247V40.374C71.348 46.3727 69.4086 50.8657 65.583 53.937Z" stroke="#F1B83B"/>
</svg>
