<svg width="108" height="153" viewBox="0 0 108 153" fill="none" xmlns="http://www.w3.org/2000/svg">
<path opacity="0.5" d="M53.0285 153.5H53.1759L53.2997 153.42C59.5221 149.402 65.8087 144.242 72.1602 137.943C78.6647 131.636 84.5167 124.471 89.7169 116.449C94.9214 108.421 99.1845 99.6068 102.507 90.0086C105.837 80.3899 107.5 70.1296 107.5 59.231C107.5 50.1946 106.271 42.0745 103.803 34.8773C101.337 27.6854 97.7792 21.5594 93.1242 16.5088C88.6099 11.312 83.0056 7.34452 76.3198 4.60574C69.7721 1.86448 62.293 0.5 53.8921 0.5C45.7808 0.5 38.4502 1.79252 31.9077 4.38698C25.3746 6.83505 19.7755 10.2947 15.118 14.769C10.4593 19.2444 6.82319 24.6555 4.20785 30.9952L4.20776 30.9952L4.20417 31.0044C1.73275 37.3477 0.5 44.2606 0.5 51.738C0.5 58.9246 1.5871 65.4084 3.77061 71.1825L3.77333 71.1897L3.77627 71.1968C6.10073 76.8154 9.22708 81.7199 13.1569 85.9056L13.163 85.9121L13.1693 85.9184C17.2471 89.9622 21.9811 93.0675 27.3675 95.2329L27.3717 95.2346C32.9033 97.3999 38.8665 98.4803 45.2566 98.4803C50.0448 98.4803 54.2715 97.9049 57.9292 96.7442C61.5709 95.5886 64.7854 93.9967 67.5672 91.9649C70.481 89.9416 72.963 87.6259 75.0095 85.0169C77.1009 82.3898 78.9251 79.629 80.4817 76.7346L81.1447 76.9225C79.2884 84.6987 76.6759 91.8551 73.309 98.3936L73.309 98.3936L73.3052 98.4013C70.0135 105.072 65.8621 111.389 60.8494 117.354C55.8326 123.324 49.9524 129.156 43.207 134.849C36.4537 140.548 28.8359 146.464 20.3527 152.595L19.1002 153.5H20.6456H53.0285ZM74.0544 28.1208L74.0601 28.1261C78.8209 32.5695 81.2413 39.1961 81.2413 48.0986V51.0958C81.2413 59.9955 78.8222 66.6971 74.0573 71.2849C69.2826 75.7398 62.5837 77.9986 53.8921 77.9986C45.2004 77.9986 38.5015 75.7398 33.7268 71.2849C28.9619 66.6971 26.5428 59.9955 26.5428 51.0958V48.0986C26.5428 39.1961 28.9632 32.5695 33.724 28.1261L33.7241 28.1261L33.7296 28.1208C38.505 23.5246 45.2027 21.1958 53.8921 21.1958C62.5814 21.1958 69.2791 23.5246 74.0544 28.1208Z" stroke="#F1B83B"/>
</svg>
